<?xml version="1.0" encoding="utf-8"?>
<!-- Generator: Adobe Illustrator 19.0.0, SVG Export Plug-In . SVG Version: 6.00 Build 0)  -->
<svg version="1.1" id="Layer_1" xmlns="http://www.w3.org/2000/svg" xmlns:xlink="http://www.w3.org/1999/xlink" x="0px" y="0px"
	 width="39.8px" height="100.6px" viewBox="0 0 39.8 100.6" style="enable-background:new 0 0 39.8 100.6;" xml:space="preserve">
<style type="text/css">
	.st0{fill:#FFFFFF;}
</style>
<g>
	<path class="st0" d="M21.6,12.5c0.3-1.5,1.4-3.3,0.6-5C22,8,22,8.6,21.6,8.9c-0.1-0.9,0.2-2-0.3-2.8C20.8,8.3,21.8,10.6,21.6,12.5
		 M21.4,11.1c-0.1-0.2,0-0.5,0-0.8c-0.2-1.7-0.9-3.9,0-5.1c0.3,0.7,0.4,1.9,0.5,2.6C22,7.6,21.9,7,22.2,6.7c0.9,1.4,0.2,3.7-0.2,4.9
		c1.5-2.6,0.8-7.3-0.2-9.9C20.8,4.4,20.1,8.6,21.4,11.1 M21.9,0c0.2,2.2,1.3,4.8,1.5,7.3c0.1,1.2,0,3-0.5,4
		c-0.3,0.6-0.5,0.9-0.9,1.3c-0.1,0.1,0.1,0.2,0,0.4c-0.3-0.1-0.2-0.1-0.6,0c0-0.2-0.1-0.3-0.3-0.3c-0.4-1.6-1.2-2.9-1.2-4.7
		c0-2.7,1.3-5.3,1.6-7.9c0-0.1,0.1-0.1,0.1-0.1H21.9z"/>
	<path class="st0" d="M19.9,23.9c0.1,0,0.1,0,0.1,0c-0.2,0.7,0.2,1.4-0.1,1.9C19.9,25.3,19.8,24.6,19.9,23.9"/>
	<path class="st0" d="M6.2,26h0.2c0,0.3,0.4,0.2,0.6,0.5C6.8,26.8,6.2,26.4,6.2,26"/>
	<path class="st0" d="M38,27c-0.2,0.1-0.1-0.4-0.4-0.4c-0.2,0-0.3,0.2-0.5,0.1C37.3,26.1,38.3,26.4,38,27"/>
	<path class="st0" d="M20.7,27.6C20.7,27.5,20.8,27.6,20.7,27.6c0.1,0.7,0,1.3,0,1.9c0,0.5,0.1,1.1-0.2,1.4
		C20.5,29.9,20.5,28.4,20.7,27.6"/>
	<path class="st0" d="M36,37.8c0.2,0.6-0.1,1.5,0,2.2C35.6,39.6,36,38.5,36,37.8"/>
	<path class="st0" d="M21.1,38.3c0.1,2.6-0.1,5.4,0,8.4c-0.3-0.3,0-0.7,0-1.1C20.9,43.3,20.8,40.5,21.1,38.3"/>
	<path class="st0" d="M20.3,39h0.1c-0.3,3.4-0.1,7.2-0.2,10.2c-0.3-0.9-0.1-2.1-0.1-3.2c-0.1-2.1-0.1-4.7,0.1-6.9
		C20.2,39,20.3,39,20.3,39"/>
	<path class="st0" d="M37.8,41.8C37.8,41.9,37.8,41.9,37.8,41.8c0.2,2,0.1,4-0.1,5.7c-0.3-0.7-0.1-1.5,0-2.3c0.1-1.1,0.1-2.1,0-3.3
		C37.7,41.9,37.8,41.9,37.8,41.8"/>
	<path class="st0" d="M36.1,42.8c0.3,1.7,0,3.3,0,5.2c-0.2-0.3-0.2-0.9-0.2-1.4C35.9,45.3,36,43.9,36.1,42.8"/>
	<path class="st0" d="M20.9,47.2H21c0.1,0.7,0.1,1.5,0,2.1C20.6,48.9,21.1,47.9,20.9,47.2"/>
	<path class="st0" d="M20.8,50.1c0.2,0.2,0.1,0.6,0.1,0.9c0,1.5-0.1,3.6-0.2,5.1c-0.3-0.4-0.1-1,0-1.4
		C20.7,53.2,20.7,51.7,20.8,50.1"/>
	<path class="st0" d="M36,51.5h0.1c0,1.9-0.2,4.2-0.2,6.5c-0.4-0.1-0.2-0.7-0.2-1.1c0.1-1.7,0.1-3.9,0.2-5.3V51.5z"/>
	<path class="st0" d="M5.1,51.8h0.1c0.1,1.1,0.1,2.6,0.1,3.9c0,0.6,0.1,1.3-0.1,1.7C5.1,55.5,5.2,53.7,5.1,51.8"/>
	<path class="st0" d="M36.4,52.7c0.1,0,0.1,0.1,0.1,0.1c-0.1,1.2-0.2,2.8-0.3,4.1c-0.4-0.1-0.2-0.5-0.1-0.8c0.1-0.7,0-1.6,0.1-2.3
		C36.3,53.4,36.4,53.1,36.4,52.7"/>
	<path class="st0" d="M36.7,60.2h0.1c0,0.5,0.1,1.6-0.1,2.2C36.6,61.9,36.6,60.6,36.7,60.2"/>
	<path class="st0" d="M20.8,61.4h0.1c-0.1,0.4,0.2,0.8,0,1.1C20.6,62.4,20.8,61.8,20.8,61.4"/>
	<path class="st0" d="M25.2,67.3c-0.3-0.1-0.3-0.3-0.6-0.4c-0.4-0.1-0.7,0.4-1,0.2C23.8,66.6,25.3,66.5,25.2,67.3"/>
	<path class="st0" d="M36.1,68.6c-0.3,0.9-0.8,1.5-1.6,1.8c0.5-0.6,1.1-1.1,1.4-1.8H36.1z"/>
	<path class="st0" d="M17.9,68.8c0.5,0.7-0.1,1.9-0.5,2.4C17.5,70.5,18,69.7,17.9,68.8"/>
	<path class="st0" d="M22.9,68.9H23c0.3,0.9,0.5,1.7,1.1,2.3c0.5,0.5,1.3,0.6,1.8,1.1C24.3,72.1,23,70.8,22.9,68.9"/>
	<path class="st0" d="M19.7,82.8c0.1,0.5-0.2,1.5-0.1,2.1C19.2,84.4,19.3,83.2,19.7,82.8"/>
	<path class="st0" d="M21.2,86.4L21.2,86.4c0.3,0,0.2,0.2,0.3,0.2c-0.1,0.6-0.6,1-1,1.3C20.5,87.4,21.3,87.2,21.2,86.4"/>
	<path class="st0" d="M13.4,97.3c0.1,0,0.1,0,0.1,0c-0.1,0.3-0.2,0.7-0.5,0.8C13.1,97.8,13.2,97.6,13.4,97.3"/>
	<path class="st0" d="M20,98.6c0.2,0.2,0.3,0.8,0.1,1.1c0.4,0,0.7-0.1,1.1,0C21.8,98.7,20.8,98.1,20,98.6 M18.3,99.7
		c0.6,0,0.9,0,1.6,0c0.3-0.4,0-0.7-0.1-1.2c-0.4,0.1-0.8-0.1-1.3,0C18.4,98.6,17.9,99.2,18.3,99.7 M21.5,98.4c0,0.3,0.2,0.9-0.1,1.2
		c0.4-0.1,1,0,1.4-0.1c0-0.3,0.2-0.9-0.1-1.1C22.2,98.3,21.9,98.4,21.5,98.4 M22.9,98.3c0.2,0.3,0.3,0.9,0,1.2c0.6,0,1-0.1,1.5-0.2
		C24.7,98.3,23.8,98,22.9,98.3 M16.8,98.3c-0.2,0.3-0.1,0.8,0.1,1.2c0.3,0.1,0.7,0.1,1,0.1c-0.1-0.5,0-0.9,0.2-1.3
		C17.7,98.5,17.1,97.9,16.8,98.3 M16,99.4c0.2,0.1,0.3,0,0.6,0c-0.1-0.3-0.2-1,0.1-1.4C16,97.7,15.7,98.9,16,99.4 M25.4,98.5
		c0.3-0.1,0-0.6-0.1-0.7C25.4,98.1,25.4,98.2,25.4,98.5 M24.9,98.9c0-0.5-0.1-1.2-0.6-0.9c0.2,0.3,0.5,0.7,0.4,1.2
		c0.3,0,0.5-0.1,0.7-0.2c-0.2-0.4-0.1-1.2-0.6-1.2C24.9,98,25.4,98.8,24.9,98.9 M15.3,99.3C15,99,14.8,98,15.4,97.9
		c0.1,0,0.1,0.1,0.1,0.2c-0.5,0.2-0.2,1.2,0.2,1.3c-0.3-0.5,0-1.1,0.1-1.5C14.9,97.1,14.2,99.4,15.3,99.3 M26,98.6
		c-0.1-0.4,0-1.1-0.6-1.1c0.2,0.3,0.7,1.2,0,1.4c0.5-0.1,0.8-0.3,1-0.5c-0.1-0.3-0.1-0.9-0.5-0.8C26.1,97.7,26.4,98.5,26,98.6
		 M14.5,99.1c-0.1-0.5,0-1.2,0.4-1.6C14,97.3,14.1,98.8,14.5,99.1 M26,97.1c0.3,0.3,0.6,0.7,0.6,1.2c0.1-0.2,0.2-0.3,0.2-0.5
		C26.7,97.5,26.5,97,26,97.1 M23.4,97c0.1,0.3,0.2,0.6,0.2,0.9c0.3-0.2,0.9-0.2,1.1-0.5C24.4,97,24,96.7,23.4,97 M23.1,97.1
		c-0.3-0.1-1.2,0.2-1.9,0.2c-1.9,0.1-3.8-0.1-5-0.7c-0.3,0.2-0.5,0.4-0.3,0.8c2.2,0.9,5.1,0.7,7.5,0.4
		C23.2,97.8,23.4,97.3,23.1,97.1 M24.4,96.7c0.3,0.2,0.4,0.8,0.8,0.6C25.1,96.8,24.8,96.3,24.4,96.7 M14.3,96.2
		c-0.1,0.2-0.1,0.7,0.2,0.8c0-0.4,0.2-0.6,0.7-0.6c0,0.1,0.1,0.1,0.1,0.2c-0.3,0-0.6,0-0.6,0.4c0.3,0.2,0.6,0.3,0.9,0.4
		c-0.2-0.4,0-0.7,0.3-0.9C15.3,96.6,15,95.9,14.3,96.2 M24.9,96.3c0.3,0.1,0.6,0.3,0.6,0.8c0.3-0.1,0.2-0.3,0.3-0.5
		C25.7,96.2,25.2,95.8,24.9,96.3 M13.5,96c0,0.2,0,0.3,0,0.5c0.1,0.1,0.4,0.3,0.5,0.2c-0.1-0.3,0-0.7,0.3-0.7
		C14.2,95.5,13.7,95.6,13.5,96 M22.2,94.9c-0.1-0.1-0.2-0.3-0.3-0.3C21.9,94.7,22.1,95,22.2,94.9 M15.7,96.2
		c0.2,0.2,0.5,0.3,0.8,0.4c0.8-0.8,2.1-1.4,2.3-2.7C18.2,95.1,17,95.7,15.7,96.2 M15.3,96.1c1.2-0.6,2.8-1.1,3.1-2.4
		c-0.7,1.1-2,1.9-3.4,2.2c0-0.3,0.4-0.3,0.6-0.3c1.5-0.5,2.8-1.6,3-3.2c-0.9,1.6-2,3-4.4,3.2C14.6,95.8,15,96,15.3,96.1 M18.9,92
		c0-0.2,0.2-0.3,0-0.4C18.9,91.6,18.8,91.8,18.9,92 M19.1,91.1c0-0.3,0.2-0.6,0.1-0.9C19.2,90.5,19,90.9,19.1,91.1 M22.3,95.2
		c0.4,0.5,1.1,0.6,1.4,1.2c-0.5,0-0.9-0.6-1.3-0.7c0.3,0.3,0.6,0.5,0.9,0.8c-0.6,0.1-1-0.5-1.4-0.8c-1-0.9-2-2.4-1.9-3.7
		c0.4,1.4,1.2,2.8,2.3,3.5c-1.2-1.3-2.4-2.8-2.3-5.2c0.4,1.5,0.6,3.2,1.7,4.1c-0.7-1.2-1.4-2.8-1.5-4.5c-0.2,0.1-0.7-0.1-0.8,0
		c0,0.1-0.2,0.3,0,0.4c0-0.2,0.2-0.2,0.3-0.1c-0.1,1.3-0.7,2.4-0.9,3.4c0.3-0.3,0.2-0.9,0.6-1.1c0.1,0.2-0.1,0.4-0.1,0.6
		c0.2,0.1,0.2,0.2,0.2,0.5c0,0.1-0.2,0.1-0.2,0.3c-0.5,1.3-1.4,2.1-2.4,2.9c2.3,0.7,5.9,0.7,7.8-0.5C23.7,96.2,22.9,95.4,22.3,95.2
		 M20.2,89.2c0.2-0.1,0.3-0.2,0.4-0.4c-0.2-0.1-0.4-0.1-0.7,0C20,88.9,20.2,89,20.2,89.2 M20.1,89.3c-0.2-0.2-0.3-0.5-0.5-0.7
		C19.6,89,19.8,89.2,20.1,89.3 M19.6,89.3c-0.2-0.2-0.3-0.5-0.5-0.7C19,89,19.3,89.2,19.6,89.3 M19.5,88.3c1.7,0.3,2.5-0.7,2.8-2
		c-0.4,0.1-0.3,0.7-0.6,1.1c-0.2,0.3-0.5,0.5-0.8,0.6c0.3-0.6,1-0.7,0.9-1.6c-1.4,0.1-2.3,0-3.5-0.2c0.1,0.5,0.5,0.9,0.7,1.3
		c-0.7-0.1-0.7-1.1-1.1-1.5c0,0.8,0.6,1.3,1.1,1.7c-0.8,0.2-1.6-1-1.4-1.8h-0.1C17.3,87.1,18.4,88.1,19.5,88.3 M20.3,85.9
		c0.6,0.2,1.9,0.2,2.3-0.2C21.8,85.7,21.1,86,20.3,85.9 M20.1,85.9c-1.1,0-1.8-0.3-2.6-0.6C17.8,86,19.5,86,20.1,85.9 M21.7,85.3
		c0.2,0,0.2-0.1,0.3-0.1c-0.2-0.3-0.1-1-0.4-1.2C21.7,84.5,21.6,84.9,21.7,85.3 M17.9,84.8c-0.1-0.2,0.2-0.6,0-0.8
		c-0.1,0.3-0.1,0.6-0.3,0.8c0.3,0.1,0.5,0.2,0.8,0.2c0-0.6,0.1-0.9,0-1.3C18.2,84,18.3,84.6,17.9,84.8 M22.2,85.2
		c0.1,0,0.2-0.1,0.2-0.2c-0.4-0.6-0.5-1.6-1-2.2C21.7,83.6,22.1,84.2,22.2,85.2 M18.4,83.1c0.1-0.3,0.3-0.6,0.2-0.9
		C18.6,82.5,18.3,82.8,18.4,83.1 M19.3,76.9c-0.1-0.3,0-0.9-0.2-0.9C19.1,76.2,19.1,76.6,19.3,76.9 M19.1,75.7
		c-0.1-0.1,0-0.3-0.1-0.3C18.9,75.4,18.9,75.7,19.1,75.7 M19.4,75.9c0.1-0.2-0.2-0.5,0.1-0.5c0.3,1.2,0.5,2.4,0.4,3.6
		c-0.1,1.7-0.9,3.4-1.1,4.9c0,0.3-0.3,1.2,0.2,1.2c-0.2-1,0.2-1.9,0.5-3c0.3-1.1,0.4-2.2,0.8-3.2c0.1,2.3-1.1,4-1,6.2
		c0.6,0,1,0.1,1.7,0.1c0.2-0.4-0.1-1,0.2-1.2c0.1,0.4,0,1,0.1,1.2c0.3,0.1,0.3-0.3,0.3-0.4c0.1-0.7-0.3-1.7-0.4-2.2
		c0-0.2,0.2-0.1,0.1-0.2c-0.4-1.6-0.4-3-0.4-5c0.1-0.1,0.2,0.1,0.2,0c0.2-1.2,0.3-2.4,0.6-3.4c-1.1,0.1-1.6,0.1-2.5-0.1
		C19.1,74.6,19.2,75.2,19.4,75.9 M20.9,73.6c0.2,0,0.3,0.1,0.5,0.2c0.1,0,0.1-0.1,0.1-0.2c-0.1-0.1-0.2-0.3-0.5-0.2
		C20.9,73.3,20.9,73.4,20.9,73.6 M20.2,73.7c0.1,0,0.3,0.1,0.4,0c0.1-0.1-0.1-0.4-0.1-0.5C20.3,73.3,20.2,73.5,20.2,73.7 M26,73.4
		c0.2,0,0.4,0,0.4-0.2C26.1,73.2,26,73.2,26,73.4 M19.6,73.5c0.1,0.1,0.2,0.2,0.4,0.2c0-0.1,0-0.3,0-0.5
		C19.8,73.1,19.6,73.4,19.6,73.5 M18.9,73.4c0.1,0.1,0.2,0.2,0.4,0.3c0-0.2,0.1-0.3,0-0.5C19.1,73.2,19,73.2,18.9,73.4 M18.7,73.5
		c0-0.2,0-0.3,0.1-0.4C18.5,73,18.4,73.5,18.7,73.5 M11.2,73.7c1.8,0.6,4.5,0.2,5.4-1C15.3,73.7,13.4,74,11.2,73.7 M18.9,72.2
		c-0.1,0.1,0,0.3,0,0.5c0.6,0.4,1.6,0.4,2.5,0.3c0-0.2-0.2-0.4-0.2-0.5C20.1,72.6,19.6,72.2,18.9,72.2 M14.4,72H14
		C14,72.2,14.5,72.2,14.4,72 M12.8,71.9C13.4,72.1,13.2,71.9,12.8,71.9 M9.3,72C9.2,72,9,71.9,8.8,71.9C8.8,72,9.2,72.1,9.3,72
		 M19.9,72.1c0.3,0,0.2-0.2,0.3-0.4c-0.1,0-0.2-0.1-0.3-0.1C20,71.8,19.9,72.1,19.9,72.1 M18.8,71.8c0.3,0,0-0.4-0.1-0.3
		C18.8,71.6,18.8,71.7,18.8,71.8 M20.3,71.4c0.2,0.2,0.1,0.5,0,0.8c0.1,0.1,0.2,0,0.3,0c-0.1-0.2,0.1-0.7-0.1-0.8
		C20.5,71.4,20.4,71.4,20.3,71.4 M20,71.4c0-0.1,0.2,0,0.1-0.1c-0.1,0-0.1-0.1-0.2-0.1C19.9,71.2,19.9,71.3,20,71.4 M28.2,71.8
		c0.6,0,1.2-0.4,1.3-0.8C29.1,71.4,28.6,71.4,28.2,71.8 M19.5,71.9c0.3-0.7-1.1-1.3-1.3-0.6c0.4,0.1,0.7,0.2,0.9,0.5
		c0.2,0,0-0.2,0.2-0.2c0.1,0.1,0.1,0.3,0.1,0.5c0.1,0,0.2,0.1,0.3,0C19.6,72.1,19.6,71.9,19.5,71.9 M21.1,70.9
		c-0.2,0.3-0.3,1.1,0,1.3c0.1-0.7,0.4-1.3,1.3-1.1C22.4,70.7,21.4,70.6,21.1,70.9 M29.9,70.9c0,0,0.1-0.2,0-0.2
		C29.9,70.7,29.8,70.8,29.9,70.9 M19.9,70.6c0.3,0,0.5,0.1,0.6,0.4c0.2,0,0.2-0.1,0.3-0.3c-0.2-0.2,0-0.6-0.2-0.7
		C20.5,70.4,19.9,70.3,19.9,70.6 M21,70.5c0.3-0.1,0.5-0.3,0.9-0.2c0-0.2-0.2-0.2-0.3-0.3C21.5,70.2,20.9,70.3,21,70.5 M20.9,70.2
		c0.1-0.2,0.4-0.2,0.5-0.4C21.1,69.8,20.8,70,20.9,70.2 M19.7,70.7c0-0.1,0.1-0.1,0.1-0.2c-0.1,0-0.1,0-0.1-0.1
		c0.1-0.1,0.2-0.2,0.3-0.3c0-0.1-0.1-0.2-0.2-0.2C19.8,70.3,19.4,70.5,19.7,70.7 M18.9,69.9c0.2,0,0.4,0.2,0.6,0.2
		c0-0.2-0.2-0.2-0.2-0.4C19.1,69.7,19,69.8,18.9,69.9 M6.5,70.2c-0.1-0.1-0.3-0.5-0.4-0.4c0.6,0.7,1.3,1.6,2.2,1.8
		C7.7,71.2,7,70.7,6.5,70.2 M18.5,69.5c0,0.1,0,0.2,0,0.2c0-0.1,0.2-0.1,0.3-0.2c0-0.1,0-0.2,0-0.2C18.8,69.5,18.5,69.5,18.5,69.5
		 M20.1,69.4c0.3,0,0.4-0.2,0.3-0.4C20.2,68.9,20,69.1,20.1,69.4 M34.8,68.3c0.1-0.2,0.3-0.5,0.2-0.7C35,67.8,34.7,68.1,34.8,68.3
		 M18.1,67.8c-0.1-0.1-0.1-0.3-0.2-0.4C17.9,67.6,18,67.9,18.1,67.8 M35.3,68c0.2-0.1,0.3-0.6,0.2-0.7C35.5,67.6,35.3,67.8,35.3,68
		 M20.3,67.5c0-0.1,0.1-0.1,0.1-0.3h-0.2C20.3,67.3,20.3,67.5,20.3,67.5 M18.1,66.9c0.3,0.5,0.6,1.1,0.5,1.9
		C19.2,68.3,19.1,66.6,18.1,66.9 M21.5,69.6c0.8,0.4,0.8,1.2,1.6,1.7c0.2-0.4-0.5-0.7-0.8-1c-0.6-0.9-0.3-2.7,0-3.6
		C21.3,66.9,21.7,68.6,21.5,69.6 M18.2,70.9c0-0.3-0.1,0.1-0.1,0c0.1-0.1,0.3-0.3,0.6-0.5c0.1,0.1,0.5,0,0.6,0.1
		c-0.1-0.4-0.9-0.2-1-0.5c0.1-0.5,0-0.9,0-1.4c-0.1-0.1-0.2,0.1-0.3-0.1c0-0.8-0.5-1-0.8-1.5c0.2-0.2,0.4,0.3,0.5,0.1
		c-0.3-0.5-1.1-0.8-1.7-0.6c0,0.4,0.5,0.1,0.5,0.5c-0.3,0-1-0.1-1.4,0.1c0,0.1-0.1,0.3-0.1,0.4c0.2,0,0.3,0,0.3,0.1
		c-0.3,0.5,0.1,0.9,0.6,1c-0.1-0.3,0-0.5-0.2-0.7c0.1-0.4,0.5-0.5,1-0.5c0.3,0.6,0.7,0.9,0.7,1.7c-0.1,1.9-1.2,2.6-2.7,3
		c0.7,0,1.1-0.5,1.6-0.4c-0.8,1-3.8,1-4.4-0.2c-0.4-0.1-0.6-0.2-0.9-0.5c-0.1,0.2-0.1,0.5-0.1,0.8c0.5,0.6,1.2,1,2.1,1
		c-0.1,0.4-0.6,0.2-0.9,0.1c-1.1-0.1-2.3,0.1-2.7-0.6c-1.7-0.4-2.8-1.5-3.5-2.9c0.2,0,0.1,0.2,0.3,0.2c-0.3-0.6-0.5-1.2-0.8-1.8
		c-0.5,0.2-1-0.1-1.5,0.1C4,68.2,4,68.7,4.3,69c0.2,0.2,0.5,0.3,0.5,0.6c-0.9-0.2-0.9-1.3-1.4-1.9c0.2,0.8,0.8,2.1,1.5,2.5
		c0.4,0.2,1.3,0,1.1,0.7c-0.3-0.3-1-0.4-1.5-0.2c1.6,0.7,2.9,2.2,4.8,2.4c0.3,0,0.6-0.2,0.7,0.2c-0.7,0-1.5,0.1-1.2,0.9
		c0.7-0.4,1-0.6,2-0.4c0.9-0.6,2.1-0.1,3.2-0.2c1.2-0.1,2.1-0.8,2.9-1.2c0.2,0,0.1,0.2,0.1,0.2C17.4,72.1,17.8,71.2,18.2,70.9
		 M2.3,66.9c1.3,1.2,4.2,0.5,5.4-0.4c0-0.1,0.1-0.1,0-0.1C6.1,66.8,4,67,2.3,66.9 M35.3,68.1c-0.7,1.1-1.3,2.7-2.7,3
		c0.6-0.5,1.3-1,1.6-1.8c0.1-0.1,0.5-0.3,0.2-0.4c-1.1,1.5-2.4,3.2-4.7,3.1c-0.2,0-0.5,0.5-0.7,0.2c0.3-0.3,0.8-0.7,0.8-1.2
		c-0.4,0.5-1.4,1.1-2.2,0.8c-1.2,0.3-2.6-0.5-3.3-1.3c0,0.1,0,0.2-0.1,0.2c-0.6-0.5-1.2-1.9-0.8-2.8c0.1,0,0.1,0.1,0.2,0
		c0.1-0.2,0-0.3,0-0.5c0.4-0.6,1.7,0.1,1.1,0.8c0.5,0.3,1-0.6,0.5-0.9c0.2-0.2,0.1-0.4,0.4-0.5c-0.6-0.2-0.9-0.7-1.8-0.6
		c-0.4,0.2-0.8,0.5-0.8,1.1c-0.1,0-0.2,0.1-0.4,0.1c-0.2-0.1-0.1-0.3-0.3-0.3c-0.1,0.4-0.2,1.3,0,1.6c0-0.3-0.1-0.8,0.1-1
		c0.1,0.4,0.2,1.3,0.1,1.7c-0.2,0-0.1-0.2-0.2-0.1c0.1,1.5,1.3,2.3,2.3,3.1c0.2,0.2,0.4,0.4,0.6,0.5c0.3,0.1,0.7-0.1,0.9,0.2
		c0.1,0.2-0.3,0.3,0,0.3c0.7-0.2,1.7-0.9,2.5-0.5c-0.7,0.1-1.5,0.1-1.9,0.5c1.8-0.4,4.6-0.8,5.4,0.8c0-0.2,0-0.4,0-0.6
		c-0.3-0.7-1.4-1-2.3-0.9c0.9-0.7,1.9,0.2,2.8-0.1c1.2-0.5,2.1-1.9,3.5-2.1c-0.4-0.1-0.5,0-0.8-0.1c0.5-1,1.2-1.8,1.4-3.1
		c-0.4,0.1-1.1,0-1.4,0.1c0,0.2,0.2-0.2,0.3,0.1c-0.1,0.6-0.3,1.3-0.7,1.4C35.2,68.5,35.4,68.1,35.3,68.1 M20.3,67
		c0.2,0,0.2-0.2,0.4-0.2c0-0.1-0.1-0.1-0.1-0.1c0.1-0.1,0.2-0.1,0.2-0.3c-0.1-0.1-0.2,0-0.4,0c0,0,0.1-0.2,0-0.2
		C19.9,66.3,19.8,66.9,20.3,67 M20,68.6c0.5-1.1-0.7-1.5-0.3-2.4c-0.5-0.2-1.4-0.2-1.7,0.3c1.9-0.2,1.6,1.9,1,3c0.5,0,1,0.1,1.1,0.4
		c0.3-0.2,0.6-0.3,1.1-0.4c0.1-0.6-0.1-1.2,0-1.8c0.1-0.7,0.5-1,0.7-1.5c-0.3-0.1-0.5,0-0.8,0c-0.1,0.1-0.1,0.3-0.1,0.4
		c-0.8,0.2-0.3,1.8-0.4,2.4c-0.1,0.5-1,0.6-0.9,0c0.1-0.3,0.6-0.2,0.5-0.7C20.3,68.6,20.1,68.8,20,68.6 M22.5,66.3
		c0,0.2,0.1,0.3,0.3,0.4c0.1-0.3,0.6-0.7,0.6-0.8C23,66,22.8,66.2,22.5,66.3 M37.2,66.3c0.2,0,0.1,0.2,0.3,0.1
		c0.7-0.2,1.2-0.5,1.5-1c-1.2,0.3-2.8,0.2-4.1,0.3c0.5,0.2,1.3-0.1,2,0c-0.8,0.4-1.9,0.2-3,0.2c-0.3-0.6-1.6-0.4-1.9-0.8
		C33.3,66.1,35.3,67.2,37.2,66.3 M0.6,65.4c0.7,0.6,1.7,0.9,2.6,1.1C5,66.8,6.7,66.3,8.1,66c0.1-0.5-0.8-0.8-1.2-0.5
		c0.2,0,0.4-0.1,0.5,0.1c-1.2,0.9-4.1,0.9-5.3,0c0.1-0.2,0-0.3,0.1-0.6C1.5,65,1,65.1,0.6,65.4 M18.9,65.8c0.4-0.3,0.6,0.2,0.9,0.2
		c0.4,0.1,0.8-0.3,1.1,0.1c0.8-0.3,1.8-0.4,2.4-0.9c-2.3,0.3-4.4-0.1-6.4-0.4C17.7,65.2,18.4,65.4,18.9,65.8 M2.8,65.1
		c-0.1-0.2,0.1-0.4-0.1-0.5C2.7,64.7,2.6,65.1,2.8,65.1 M5.5,66c0-0.3,0.1-1.1,0-1.5C5.4,64.8,5.3,65.6,5.5,66 M4.8,65.1
		c0-0.2,0.1-0.6-0.1-0.6C4.7,64.7,4.6,65,4.8,65.1 M6.3,65.7c0.1-0.4,0.1-1.1-0.1-1.3C6.2,64.7,6,65.5,6.3,65.7 M5.1,66
		c0.2-0.4,0-1.3,0-1.6H5C5.1,64.9,4.8,65.6,5.1,66 M6.6,64.9c0-0.2,0.2-0.5,0-0.5C6.4,64.5,6.5,64.8,6.6,64.9 M5.9,65.9
		c-0.1-0.6,0.2-1.4-0.2-1.5C5.8,64.9,5.6,65.6,5.9,65.9 M4.5,65.9c-0.2-0.3,0-1.3-0.1-1.6C4.3,64.7,4.3,65.8,4.5,65.9 M31.9,64.6
		c0.8,0.7,2.1,0.6,3.3,0.8c1.3,0.2,2.8,0.2,3.9-0.2c0-0.4-0.3-0.4-0.6-0.5c-0.1,0.1,0,0.4-0.1,0.4c-1.5,0.4-3.3,0.1-4.8-0.3
		c-0.1-0.2-0.2-0.3-0.2-0.4C32.8,64.2,32.2,64.3,31.9,64.6 M4.1,66c0.2-0.4-0.1-1.1,0-1.7H3.8C4,64.7,3.7,65.7,4.1,66 M3.6,65.9
		c0-0.7,0-1.2,0-1.7c-0.3,0-0.2,0.7-0.2,1.1c0,0.2,0.1,0.4,0,0.5c-0.5-0.3,0-1.3-0.4-1.6c-0.1,0.4,0.2,1.2-0.1,1.5
		c-0.1-0.1-0.2-0.2-0.4-0.2c0-0.4,0.1-0.8-0.1-1c0,0.4,0.2,0.9,0,1.1C2.7,65.7,3.2,65.9,3.6,65.9 M35.7,64.6c0-0.2,0.1-0.6,0-0.8
		C35.7,64,35.5,64.5,35.7,64.6 M22.5,64.4c-1.5,0.5-3.5,0.3-4.5-0.6c-0.3,0.1-0.8,0.1-1.1,0.2c0.5,0.9,1.8,0.8,3.3,0.8
		c1.1,0.1,2.1,0.2,2.9,0.1c0.3,0,0.7-0.2,0.6-0.6C23.3,63.9,22.9,64.3,22.5,64.4 M37.8,64.1c0.2-0.1,0-0.5,0-0.7
		C37.8,63.7,37.8,63.8,37.8,64.1 M2.9,63.6v0.2c0.1-0.1,0.2,0.1,0.3,0c-0.3-0.1,0.3-0.3,0-0.4C3.2,63.7,3,63.7,2.9,63.6 M36,64.7
		c0.1-0.4,0.1-1,0-1.3C35.9,63.8,35.9,64.3,36,64.7 M36.9,63.3c0,0.6-0.1,1.2,0,1.6c0.3,0,0.5,0,0.7-0.1c0.2-0.4-0.1-1,0-1.4
		C37.4,63.3,37.2,63.3,36.9,63.3 M36.2,64.9c0.2,0,0.3,0.1,0.5,0c-0.1-0.4,0-1,0-1.5C35.8,63,36.4,64.3,36.2,64.9 M34.8,64.7
		c0.2,0,0.3,0.1,0.6,0.1c0.1-0.5,0-1,0-1.6c-0.3,0.4,0.2,1.3-0.2,1.5c-0.3-0.4,0-1.2-0.3-1.6h-0.1C34.7,63.5,34.9,64.3,34.8,64.7
		 M34.5,64.6c0-0.5,0.1-1.1-0.2-1.5C34.4,63.7,34.3,64.2,34.5,64.6 M33.9,64.4c0-0.5-0.2-1.1-0.1-1.5C33.6,63.1,33.7,64.4,33.9,64.4
		 M18.5,63.7c0.9,0.2,2.9,0.8,3.9,0v-0.5c-1.4-0.1-2.9,0.3-3.9-0.5C18.4,63.1,18.6,63.5,18.5,63.7 M19.7,62.5c0-0.2,0.1-0.5-0.1-0.5
		C19.7,62.1,19.6,62.4,19.7,62.5 M3.5,63.8c0-0.8,0.1-1.8-0.1-2.5C3.4,62.2,3.3,63,3.5,63.8 M19.7,61.7c0-0.2,0-0.6,0-0.6
		C19.7,61.3,19.5,61.6,19.7,61.7 M3,62.6c0.1-0.6,0.1-1.3,0-1.7C2.9,61.4,2.9,62.2,3,62.6 M35,62.9c0.1-0.5,0.1-1.7-0.1-2.2
		C34.8,61.4,34.9,62.4,35,62.9 M21.7,61.9c0-0.4,0.2-1.3,0-1.8C21.6,60.7,21.5,61.5,21.7,61.9 M2.7,60.2c0,0.1,0.1,0.3,0.1,0.4
		c0.1-0.1,0.2,0,0.2,0c0.1-0.2-0.2-0.4,0.1-0.4c0.3,0.1-0.1,0.8,0.2,0.8c0.2-0.1-0.1-0.5,0.2-0.6c0.1,0.6-0.1,2,0.1,2.8
		C4,62.4,3.5,61.6,3.9,61C4,61.8,3.9,62.7,4,63.7c0.4-0.3,0-1.3,0.2-1.8c0.2,0.6-0.1,1.4,0.1,2.1c0.8,0.1,1.4,0.1,2.1,0.1
		c0.1-0.2-0.2-0.1-0.2-0.3c0.4-0.9-0.2-2.5,0.1-3.5C5.3,59.9,3.9,60,2.7,60.2 M19.7,60.9c0-0.3,0.1-0.8,0-1
		C19.6,60.2,19.6,60.7,19.7,60.9 M34.9,59.9c0,0.2,0.1,0.3,0.1,0.6c0,0.1,0.1-0.1,0.2,0c0.2,0.6,0,1.6,0.2,2.3c0,0.1-0.2,0-0.2,0.2
		c0.2,0,0.2,0.1,0.3,0c0-1.1-0.2-2.2,0-3.1C35.3,59.9,35.1,59.8,34.9,59.9 M34.2,60c0,0.2,0.3,0.2,0.3,0.3c-0.2,0.6,0,2.1,0,2.5
		c0.4-0.5-0.1-2.3,0.3-3C34.7,60,34.2,59.8,34.2,60 M35.8,60.3c0.1-0.1,0.1-0.3,0.3-0.2c0,0.4-0.1,1.3,0,1.9c0.1-0.6-0.1-1.6,0.3-2
		c0,0.5,0,1.3,0,1.9c0,0.2,0.2,0.5-0.1,0.5c-0.2,0,0-0.3-0.2-0.4c-0.1,0.2,0.2,0.5,0,0.7c-0.4-0.4,0-1.7-0.3-2.2
		c-0.1,0.9,0,1.6,0,2.4c0.6,0,1.6,0.2,2,0.1c-0.1,0-0.2,0-0.1-0.1c0.2-0.9,0.1-1.7,0-2.6c-0.6-0.3-1.2-0.5-2-0.5
		C35.9,60,35.5,60.1,35.8,60.3 M19.4,62.4c0.1-0.9,0.1-1.9,0-2.8C19.3,60.5,19.4,61.5,19.4,62.4 M1.6,59.8C1.7,60,2,60.1,2.2,60.2
		c0.2,0,0.2-0.2,0.3-0.2c1.5-0.2,3.5-0.3,4.5,0.4c0.2-0.1,0.5-0.1,0.6-0.3C5.9,59.2,3.5,59.3,1.6,59.8 M32.7,59.7
		c0.1,0.3,0.6,0.2,0.9,0.3c0.1-0.1,0.2-0.3,0.3-0.4c1.3,0,2.9-0.1,4,0.4c0,0.1,0.1,0.3,0.1,0.4c0.3-0.1,0.7,0,0.8-0.2
		C37.6,59.2,34.4,59,32.7,59.7 M7.3,59.5c0.2,0,0.2-0.2,0-0.2V59.5z M38.3,59.4c0-0.1,0.1-0.4-0.1-0.3
		C38.2,59.3,38.2,59.4,38.3,59.4 M19,62.1c0.3-0.8,0.1-1.8,0.1-3H19C18.9,59.9,19,61.1,19,62.1 M34.3,59.1c0.1,0,0.3,0,0.3-0.1
		C34.4,59,34.2,58.9,34.3,59.1 M3.3,59.2c-0.1,0-0.1-0.1,0-0.1c-0.1,0-0.1,0-0.1,0C3.2,59.1,3.2,59.3,3.3,59.2 M37.9,59.3
		c-0.1,0,0.1-0.2,0-0.3c-0.1,0-0.1-0.1-0.2,0C37.7,59.2,37.8,59.4,37.9,59.3 M3.7,59.2c0-0.1,0-0.2-0.2-0.2
		C3.5,59.1,3.6,59.2,3.7,59.2 M19.7,59.8c0-0.1,0-0.5,0.2-0.4c-0.1,0.9-0.1,1.8,0,2.5c0,0.2-0.1,0.8,0.2,0.9
		c0.1-0.6-0.3-1.7,0.1-1.9c0,0.5,0.2,1.3,0.1,1.9c0.6,0,1.3,0.2,1.6-0.3c-0.3-0.1-0.2,0.2-0.6,0.2c0-0.9,0-2.5,0.1-3.3
		c0.2,0,0.1,0.4,0.2,0.5c-0.1-0.2,0.1-0.1,0.2-0.1c0,0.7-0.1,1.4,0,2.3c0,0.1,0,0.2,0,0.1v-0.3c0.1-0.8,0.2-2,0-2.6
		c-0.7-0.2-1.4-0.3-2.3-0.3C19.7,59.3,19.5,59.6,19.7,59.8 M4,59c0,0.2,0.1,0.2,0.2,0.2C4.2,59,4.2,58.9,4,59C4.1,59,4.1,59,4,59
		 M4.6,59.1c0-0.1,0-0.2-0.1-0.2C4.4,58.9,4.4,59.1,4.6,59.1 M36.9,59.2c0.1,0,0.1,0.1,0.2,0c-0.1-0.2,0-0.2,0-0.4H37
		C37,59,37.1,59.1,36.9,59.2 M35.3,59c0.1,0,0.2-0.1,0.2-0.3c-0.1,0-0.1-0.1-0.2,0C35.2,58.8,35.2,58.9,35.3,59 M34.7,58.9
		c0.1,0.1,0.3,0,0.2-0.2C34.8,58.7,34.7,58.7,34.7,58.9 M3.3,58.7c0.2,0.1,0.3-0.2,0.1-0.2C3.4,58.6,3.2,58.5,3.3,58.7 M35,58.5
		c0-0.1,0.1-0.5-0.1-0.5C34.9,58.1,34.8,58.4,35,58.5 M17.2,58.3c0.2,0.6,0.8,0.5,1.3,0.8c-0.1-0.1-0.2-0.4-0.1-0.5
		c1.3-0.1,3-0.2,3.9,0.4c0,0.2,0.1,0.2,0.1,0.5c0.5-0.1,0.9-0.3,1.2-0.6C22.3,57.7,19.1,57.8,17.2,58.3 M23,58
		c0.1-0.1,0-0.3-0.1-0.3C22.8,57.8,22.9,58,23,58 M22.6,57.8c0-0.1,0.1-0.3-0.1-0.2C22.4,57.7,22.4,57.9,22.6,57.8 M22.2,57.7v-0.2
		h-0.1C22.1,57.6,22.1,57.7,22.2,57.7 M18.1,57.7h0.1c0-0.1,0-0.2-0.1-0.2V57.7z M21.9,57.7c-0.1-0.1,0-0.3-0.1-0.3
		C21.7,57.5,21.7,57.7,21.9,57.7 M18.8,57.4c0.1,0.1,0,0.2,0.2,0.1v-0.2C19,57.3,18.8,57.3,18.8,57.4 M21.2,57.7c0.1,0,0.2,0,0.3,0
		c0-0.2-0.1-0.2,0-0.4c-0.1,0-0.2,0-0.3,0C21.1,57.4,21.2,57.6,21.2,57.7 M20.9,57.7v-0.4h-0.2C20.8,57.4,20.6,57.7,20.9,57.7
		 M19.5,57.7v-0.4h-0.1C19.2,57.4,19.3,57.6,19.5,57.7 M20.5,57.7c0-0.1-0.1-0.3-0.1-0.4C20.2,57.4,20.3,57.6,20.5,57.7 M19.7,57.4
		c0.1,0,0,0.2,0.1,0.2H20c0-0.1,0.1-0.3,0-0.4C20,57.3,19.8,57.2,19.7,57.4 M4,58.7c0.1-1.1,0.1-2.5-0.1-3.2C4,56.5,3.7,58,4,58.7
		 M22.1,57.2c0-0.6,0.2-1.4,0.1-2.1C22.1,55.7,22,56.8,22.1,57.2 M19,55.9c0.2-0.1,0.1-0.9,0-0.8C19.1,55.4,19,55.6,19,55.9
		 M6.3,58.5c-0.1-1,0.2-2.5-0.1-3.5C6.4,56.1,6.1,57.4,6.3,58.5 M4.3,56.5c0-1.2,0.1-2-0.1-3C4.1,54.5,4.1,55.6,4.3,56.5 M6.3,54.1
		c0-0.6,0.1-1.2,0-1.7C6.3,53.1,6.1,53.5,6.3,54.1 M19.8,56c0.1-1.2,0.2-2.5,0-3.7C19.8,53.5,19.6,55.1,19.8,56 M20.1,55.2
		c0.1-1,0.2-2.2,0-3.1C20.2,53,20,54.2,20.1,55.2 M3.9,55.3C3.9,55.4,3.9,55.4,3.9,55.3c0-1.3,0.2-2.5,0-3.5
		C3.8,52.9,3.8,54.4,3.9,55.3 M19.1,54.8c0.1-1.5,0.1-2.5,0-3.6C19.1,52.4,19,53.6,19.1,54.8 M4.2,51.9C4.1,52.2,4.2,52.3,4.2,51.9
		l0-1.1c0,0,0-0.1,0-0.1C4,51.1,4.2,51.5,4.2,51.9 M6.3,51.5c0-0.2,0.1-0.8,0-0.8C6.3,50.9,6.2,51.5,6.3,51.5 M35,57.9
		c-0.1-2.6,0.3-5.3,0-7.3C35,52.6,34.7,55.9,35,57.9 M19.1,51.1c0-0.2,0.1-0.7,0-0.6C19.2,50.6,19,51,19.1,51.1 M4.3,50.3
		c0-0.2,0-0.2,0-0.4c-0.1-0.6-0.1,0.2,0,0.5C4.2,50.4,4.2,50.3,4.3,50.3 M3.9,48.9c0-0.1,0-0.6,0-0.5C3.9,48.6,3.8,48.7,3.9,48.9
		 M34.6,58.1c-0.1-3.9,0.4-8.2-0.1-12C34.5,50.2,34.4,54.3,34.6,58.1 M22.2,49.6c0-2.1,0.1-3.4-0.1-5.3C22.1,46.2,22,47.9,22.2,49.6
		 M34.6,44.3c-0.1-0.4,0.1-0.6-0.1-0.9C34.6,43.8,34.5,44.2,34.6,44.3 M22.1,43.7c-0.1-0.6-0.1,0.3,0,0.5
		C22.2,44,22.2,43.9,22.1,43.7 M19.2,47.8c-0.1-2,0-3.7-0.2-5.4C19,44,18.9,46.1,19.2,47.8 M19,42.2c0-0.2,0.1-0.7,0-0.7
		C19,41.8,18.9,42.2,19,42.2 M4.2,41.7c0,0.7,0.2-0.2,0-0.3C4.1,41.5,4.2,41.5,4.2,41.7 M34.6,43c0.2-1.4,0.2-3.5,0-5
		C34.7,39.8,34.4,41.3,34.6,43 M3.9,45c0.1-2.9,0-5.4-0.2-7.7C3.8,39.7,3.6,42.8,3.9,45 M3.8,37.2c0.1-0.9,0.1-2.1,0-2.9
		C3.8,35.3,3.7,36.3,3.8,37.2 M34.7,31.6c-0.1,0.1-0.1,0.4,0,0.5c0.2,0,0.2-0.3,0.4,0c-0.1,0.2-0.2,0.3-0.4,0.4
		c-0.1,0-0.1-0.2-0.3-0.2c0.4,0.7,1.1-0.3,0.9-0.8C35.2,31.6,34.9,31.7,34.7,31.6 M4,31.4c0.2,0,0.1-0.4,0-0.4
		C4.1,31.2,4,31.3,4,31.4 M3.6,29.8c0,0.1-0.1,0.1,0,0.1c-0.3,5-0.1,9.7-0.1,14.9c0,3.8-0.5,7.9-0.1,11.5c0.1-1-0.2-2.3,0.1-3.2
		c0,1.3,0.1,2.4,0.1,3.6c0.2-8.7-0.4-17.2,0.2-25.9C3.9,30.4,4,30,3.6,29.8L3.6,29.8z M36.9,30c-0.3,0.5,0,1.4-0.8,1.6
		c-0.1,0.8-0.7,1.2-1.1,1.8c-0.1,1.2-0.1,2.4-0.1,3.5c0.1,4.2-0.3,8.8,0.1,12.8c-0.1-3.9,0.2-7.4,0.1-11.2c0-0.7,0.1-1.4,0-2.2
		c0-0.7-0.2-1.5,0.2-2c0.2,0.3,0,0.4,0,0.8c-0.1,0.7,0.1,1.5,0.1,2.3c-0.3,4.4-0.1,9.1-0.2,13.8c0,2.4-0.2,5,0,7.3
		c0.3-0.3,0.1-0.7,0.1-1.1c0-0.5,0-1,0-1.5c0-0.7,0-1.5,0-2.2c0-0.8,0.2-1.6,0.2-2.4c0-2.5-0.3-5.3,0-7.9c0.1-0.8,0-1.7,0-2.4
		c0-0.2-0.1-0.6,0.2-0.7c0.1,2.1-0.2,4.3-0.1,6.7c0.1,2.2,0.2,4.2,0,6.2c-0.1,1.7-0.2,3.6,0,5.2c0.8-0.1,1.7,0.3,2.4,0.2
		c-0.1-0.2-0.2-0.2-0.2-0.4C37.7,57.4,38,56.1,38,55c0-0.6,0-1.1,0-1.7c-0.1-0.8,0-1.5,0-2.4c0-5.2,0-10.7,0.1-16.1
		c-0.4,0.9-0.1,2.2-0.3,3.1c-0.3-0.5-0.1-1.3,0-2c0-0.4,0-0.9,0-1.2c0-0.2,0.2-0.3,0.3-0.5c0.1-0.4-0.2-1,0.3-1
		c-0.1,0.4-0.2,0.9-0.2,1.5c0,5.6,0.1,11.1,0,16.6c-0.1,1.9,0,3.9,0.1,5.7c0.1-6,0.3-12.3,0.1-18.2c-0.1-2.6,0.4-5.1,0.3-7.4
		c0-0.3-0.1-0.6,0-0.8c0-0.4,0.2-0.9,0-1.2h-0.1C38,29.8,37.6,30.1,36.9,30 M19.1,40.6c0.2-3.9,0.3-8.3,0.3-11.8
		C19.2,32.5,18.9,36.8,19.1,40.6 M34.5,30.1c0-0.8,0.6-1.2,0.6-1.8C34.7,28.7,34.1,29.4,34.5,30.1 M5.8,28.6c-0.3,0-0.5-0.3-0.8-0.2
		c-0.2,0.1-0.7,0.8-0.8,1.1c-0.1,0.5,0,1.1,0,1.7c0,1.3-0.2,2.7-0.1,3.9c0,2-0.2,3.7,0.1,5.4c0-2.8,0-4.9,0.1-7.3
		c0-0.3-0.1-0.8,0.3-1c-0.1,1.6-0.2,3.3-0.2,5C4.5,44,4.4,50.6,4.5,57c0,0.2,0,0.3,0,0.5c0,0.3-0.2,0.7,0.1,1
		c0.2-3.6,0.2-7.3,0-11.2c0-0.9,0.1-1.9,0.1-2.8c0-1.5,0-3.2,0-4.9c0-0.5-0.2-1.2,0.2-1.4C4.7,44.7,5,52,5,58.6
		c0.5,0.2,0.9,0.1,1.4,0.2c0-0.2-0.3,0-0.3-0.3c0-3.5,0-7.8,0-11.5c0-0.8-0.1-1.7,0-2.5c0-0.2,0-0.5,0.3-0.6c-0.1,1.8-0.1,3.9,0,6
		c0.2-5.8,0.3-10.8,0.4-16.6c0-0.7-0.2-1.6,0.3-2.1c-0.3,1.6,0,3.7-0.1,5.7c-0.1,2.7,0,5.3-0.1,8c-0.2,4.9-0.4,9.4,0,13.9
		c-0.1-6.7,0.2-14.2,0.4-21c0.1-2.7,0.2-5.5,0.1-8.3c0-0.2,0.2-0.2,0.2-0.3c-0.7,0.1-0.6-0.7-0.8-0.9C6.2,28.4,6.2,28.6,5.8,28.6
		 M35.2,28.1c0.1,0,0.5-0.4,0.7-0.7c0.1-0.3-0.1-0.7,0.1-0.8c0.6,1.3-1.2,1.6-0.6,2.7c-0.1,0.2-0.3,0-0.4,0.1
		c-0.1,0.2-0.2,0.4-0.2,0.6c0.1,0,0.2,0.2,0.2,0.3c-0.1,0.1-0.3,0-0.4,0c0.1,0.4-0.1,1,0.1,1.2c0.2,0,0.1-0.3,0.2-0.3
		c0.1,0.1,0,0.3,0.1,0.3c0.2-0.2,0.4-0.4,0.7-0.5c-0.3-0.2-0.6-0.7-0.1-0.9c0.1,0.1,0,0.2,0,0.4c0.1,0.1,0.4,0.1,0.5,0.2
		c0,0.1-0.1,0.2,0,0.3c0.1,0,0.1,0.1,0.2,0c0.1-0.3,0.2-0.5,0.1-0.8c-0.5,0.3-1-0.5-0.5-0.6c0.1,0.1,0,0.3,0.1,0.4
		c0.2,0,0.4,0,0.5-0.2c-0.1-0.1-0.5-0.3-0.2-0.5c0.1,0.1,0.2,0.2,0.3,0.3c0.2,0,0.2-0.2,0.4-0.1c0.7,0.6,0.9-0.7,1.7-0.5
		c0.2-0.2,0.2-0.4,0.1-0.7c-0.1-0.1-0.3-0.1-0.4-0.2c0-0.6-0.2-1-0.4-1.4c0.7,0,0.3,1.3,0.8,1.3c-0.2-0.6-0.3-1.7-1.3-1.5
		c-0.1,0-0.2-0.1-0.3-0.1c-0.5,0.2-1.2,0.1-1.7,0.3C35.6,27.1,35.4,27.6,35.2,28.1 M7.2,25.4c-1-0.1-2.2-0.5-3.3-0.1
		c-0.2,0.2-0.6,0.8,0,0.8c-0.1-0.1-0.2-0.6,0.2-0.5c0,0.2-0.1,0.2,0,0.3c0.3,0.2,0.9-0.2,1,0.1c-0.1,0.2-0.3,0.3-0.2,0.6
		c0.1,0.1,0.4,0.1,0.4,0.2c-0.5,0.4-0.7-0.5-0.7-0.8c0,0,0,0.1-0.1,0c0.1,0.2,0,0.4,0,0.8c0.1,0.2,0.5,0,0.6,0.2
		c-0.4,0.4-1.1-0.1-0.8-0.7c-0.3-0.1-0.5,0-0.8-0.2c-0.1,0.4-0.5,0.5-0.5,0.9c0,0.2,0.4,0.4,0.5,0.8c0.1,0.5-0.2,0.8,0,1.2
		C3.8,29.2,4,29,4,28.9c-0.2,0-0.2,0.3-0.4,0.1c0.2-0.2,0.2-0.7,0.4-0.8c0.1,0,0,0.3,0.1,0.4c0.1-0.3,0-0.6-0.1-0.9
		c0.4-0.2,0.3,0.4,0.5,0.6c0.2-0.1,0-0.4,0-0.6c0.1-0.1,0.2-0.1,0.3,0c0.1,0.1,0.1,0.2,0.1,0.3c0.4-0.1,0.3,0.3,0.8,0.2
		c0.2,0,0.1-0.3,0.3-0.3C6,27.8,6.1,27.9,6,28c0.6-0.4,1.4-0.1,1.1,0.7c0.2,0.2,0.2,0.2,0.4,0c-0.2-0.2-0.1-0.8-0.1-1.2
		c-0.4,0-0.8,0-0.8-0.4C6.3,27.1,6,27,6,26.5c0.1-0.1,0.3-0.1,0.4,0c0,0.1-0.2,0.1-0.1,0.2c0.2,0.3,0.4,0,0.7,0
		c0.2,0.2-0.1,0.3,0,0.6c0.2,0.1,0.3,0.1,0.5,0C7.5,26.5,7.5,25.9,7.2,25.4 M23.4,25.8c0.3-0.3,0-0.8,0-1.2c0-0.5,0.3-1.2-0.2-1.6
		c-0.1,0-0.1,0-0.1,0C22.9,23.8,21.9,25.7,23.4,25.8 M23.1,21.3c0-0.3,0.1-0.9,0-0.9C23.1,20.6,23,21.2,23.1,21.3 M19.1,20.3
		c0.2,0,0.7-0.4,0.4-0.6C19.4,20,19.1,20,19.1,20.3 M19,20c0.2-0.2,0.5-0.5,0.2-0.8C19.1,19.5,19,19.8,19,20 M5.3,21.5
		c-0.3-0.2,0-0.6-0.2-0.9c-0.3,0.9,0,1.9,0.4,2.4c0.5-0.4,1-1.1,0.8-1.8c-0.2,0-0.3,0.2-0.4,0c0.3-0.9-0.2-2.1-0.3-2.9
		C5.1,19.2,6.1,20.6,5.3,21.5 M23,18.1c0,0.7-0.1,1.5,0.1,2.1c0-1,0-1.3,0-2.2c-0.2-0.1-0.3-0.1-0.5-0.1C22.6,18.1,23,17.9,23,18.1
		 M21.3,17.9c0,0.7-0.3,1.1-0.7,1.5c0.2,1,0.6,2.5-0.6,2.7c-0.2,0.4,0,0.8-0.2,1.2c-0.1,0.2-0.5,0.4-0.5,0.7c-0.1,0.5,0,1.3,0,1.9
		c0,0.6,0,1.3,0.1,1.9c0.1-0.7-0.1-1.4,0.2-1.8c-0.1,2.7-0.2,5.5-0.2,8.3c0,2.9-0.4,5.6-0.2,8.4c0.2,4.4,0.1,8.9,0.1,13
		c0,0.5-0.3,1.3,0.3,1.4c-0.3-0.2-0.1-0.9-0.1-1.5c0-1.3,0.1-2.4,0.1-3.7c0.1-2.1-0.1-4.5-0.1-6.4c0-2.3-0.2-4.7-0.1-6.9
		c0.1-2,0.3-4.1,0.3-6.1c0-0.8-0.2-1.6,0.2-2.3c0,3.4-0.5,7.2-0.2,11c0-2.6,0.1-5.1,0.2-7.5c0-0.6-0.1-1.3,0.2-1.8
		c-0.2,6.4-0.3,13.5-0.1,19.9c0.2-0.5,0.1-1.1,0.1-1.5c0.4,1.6,0,3.9,0,5.7c0,0.3,0.2,0.7,0,0.9c-0.2-0.3-0.2-1.2-0.1-1.6
		c-0.2,0.4-0.2,1.1-0.2,1.7c0.7-0.1,1.1,0.1,1.9,0.1c0.2-1.6,0.2-3.2,0.2-4.9c0-1.8-0.1-3.6-0.2-5.6c-0.1-1.4,0.1-2.7,0-4.1
		c-0.2-2.7-0.1-5.8,0-8.6c0.1-1.1,0.1-2.2,0.1-3.2c0-0.5-0.2-1.1,0.3-1.6c-0.3,3.8-0.3,8.2-0.2,12.5c0-3.6,0.3-7.1,0.3-10.6
		c0-0.7-0.1-1.5,0-2.2c0-0.2,0.1-0.7,0.3-0.8c-0.2,1.1-0.2,2.3-0.2,3.4c0,4.8-0.3,9.9-0.1,14.8c0.2,3.4,0.1,6.8,0,10
		c0,0.4,0,0.9,0.2,1c-0.1-2.6,0.1-5.1,0.1-7.6c0-2.4-0.3-4.8-0.3-7.2c0-1.3,0.2-2.6,0.2-3.9c0.1-4,0.3-8,0.2-12.3
		c-1.3-0.7-0.2-2.6,0-3.8c0.1-0.2,0.3,0.3,0.3,0c0.1-0.4,0-0.5,0-0.9c-0.4,0-0.1-0.8-0.3-1c-0.1,0.5,0.1,1.4-0.2,1.7
		c-0.3-1-0.1-2.5-0.2-3.7c0,0.1,0,0.2-0.1,0.2c0-0.4,0.2-0.9,0.2-1.1C22.2,18,21.6,18,21.3,17.9 M23.5,16c0.1,0.5,0.8,1.3-0.2,1.5
		c0.2,0.2,0.6-0.1,0.8,0.1c0.3-0.4,0-1.2-0.4-1.4c0-0.2,0.1-0.2,0.1-0.3C23.7,16,23.6,15.9,23.5,16 M4.8,21.5c0-0.7,0-1.3,0.3-1.6
		c0.2,0,0.1,0.4,0.3,0.4c-0.3-1-0.2-2.5,0.6-3c0,0.7-0.2,2.1,0.2,2.8c0,0.1,0,0.5,0,0.7c0.1,0,0.1-0.1,0.3,0c-0.1-1.9-0.3-3.5-0.6-5
		C5.3,17.3,4.2,19.4,4.8,21.5 M23.9,15.1c-0.1-0.4-0.5-0.4-0.7-0.8c0.1,0.6,0.6,0.6,0.8,1.1C24.1,15.4,24,14.8,23.9,15.1 M23.3,14.2
		c0-0.2,0-0.5-0.2-0.5C23.2,13.9,23.1,14.2,23.3,14.2 M21.9,13.7c-0.2-0.1-0.4,0-0.7,0c-0.7,0-1.5-0.1-1.7,0.5
		c-0.3,0.9,0.2,2.3-0.3,3.2c-0.1,0.2-0.4,0.3-0.4,0.5c-0.1,0.5,0.3,0.8,0.4,1c-0.3-0.7,0.1-1.6,0.7-1.8c0.4-0.7-0.2-1.9,0.3-2.5
		c-0.1,0.8,0.4,1.9-0.1,2.7c-0.2,0.3-0.6,0.3-0.7,0.6c-0.2,0.8,1.1,1.1,0.6,2.2c-0.2,0.2-0.6,0.3-0.5,0.7c-0.4,0.2-0.3-0.4-0.5-0.6
		c-0.1,0.2-0.1,0.3-0.1,0.6c1,0.5-0.1,1.6-0.1,2.4c0.1,0.1,0.3,0.3,0.5,0.2c-0.1-0.1-0.5-0.7,0.1-0.8c0.1,0.1-0.2,0.3,0,0.5
		c0.6,0,0.5-0.9,0.6-1.3c-0.2,0-0.7-0.2-0.4-0.5c0.3-0.1,0.1,0.3,0.4,0.2c0-0.2-0.2-0.2-0.2-0.4c0.1-0.1,0.1-0.3,0.3-0.2
		c0,0.1-0.1,0.1,0,0.3c0.2,0,0.4-0.2,0.5,0c-0.2,0.1-0.2,0.4-0.5,0.5c1.2-0.4,0.1-2,0.2-2.9c0.5-0.2,0.9-0.7,0.8-1.5
		c-0.7-0.4-0.6-1.7,0.1-2.1c0,0.5-0.8,1.7,0.1,1.9c-0.3-0.2-0.6-1.1,0-1.1c-0.4,0.8,0.3,1.1,0.8,1.4c0-0.2-0.6-0.6-0.2-0.8
		c0.2,0.2,0.3,0.6,0.6,0.8c0.2,0,0.2-0.3,0.4-0.3c0.1,0,0.1,0.1,0.2,0.1c0.1-0.4-0.2-0.6-0.3-1c0-0.2,0.2-0.2,0.3-0.4
		c0-0.2-0.3-0.5-0.1-0.6c0.4,0,0.2,0.5,0.3,0.8c0,0.1-0.2,0.1-0.2,0.3c0.1,0.3,0.3,0.5,0.3,0.9c0,0.2-0.4,0.4-0.1,0.5
		c0.1-0.3,0.4-0.3,0.4-0.6c0-0.3-0.6-0.6-0.3-1c0.1-0.1,0.2-0.1,0.4-0.1c0-0.7-0.9-0.9-0.8-1.9C22.4,13.9,22,13.7,21.9,13.7
		 M13.2,96.5c-0.4,0.4-1,0.5-1,1.3c0.1,0,0.1,0.2,0.3,0.1c0-0.8,0.3-1.1,0.8-1.3c0,0,0,0.1,0,0.1c0.1,0.3-0.3,0.2-0.4,0.3
		c-0.3,0.2-0.3,0.8-0.3,1.2c0.4,0.3,0.8,0.6,1.4,0.8c-0.3-0.4-0.4-1.6,0.2-1.7c0-0.1-0.1-0.2-0.1-0.1C13.9,97.3,13.6,96.6,13.2,96.5
		 M24.3,16.2c0.5,0.6,0.8,2.2-0.5,2.1c-0.2,1.1,0,2.2,0,3.2c0,0.4-0.1,0.7-0.1,1.1c0,0.6,0.3,1.2,0.4,1.8c0,0.1-0.1,0.3-0.1,0.4
		c0,0.5,0.4,1,0.1,1.6c-0.2,0.1-0.4,0.4-0.7,0.5c-0.2,2.2,0,4.4-0.1,6.5c0,0.2-0.1,0.4-0.1,0.6c0,0.2,0.1,0.4,0.1,0.6
		c0,0.2-0.1,0.4-0.1,0.5c-0.2,1.9,0,4.1,0.1,6.1c0.2,5.4-0.3,11,0,16.3c0.4,0.3,0.9,0.6,0.8,1.3c-0.3,0.5-0.9,0.7-1.6,0.8
		c0,1-0.1,2,0,2.9c0,0.2,0.4,0.1,0.4,0.2c0.1,0.3-0.1,0.5,0,0.8c0.5,0.3,1.4,0.4,1.5,1c0.1,0.6-0.4,0.9-0.8,1.2
		c0.8-0.2,1.7,0.1,2.2,0.5c0.7-1,1.1,0.5,0.4,1c0,0.5-0.1,0.9-0.3,1.2c-0.4,0.2-0.9,0.3-1.3,0c0-0.3,0.2-0.6,0.1-0.8
		c-1-0.6-0.5,2-0.1,2.4c0.7,1,1.9,1.7,3.5,1.2c0.3-0.1,0.7-0.3,1-0.6c0.5-0.3,0.8-0.8,1.3-0.5c0.1,0.4,0.1,0.9,0,1.3
		c2.2-0.6,3.6-2,4.2-4.2c-0.5-0.5-1.9-0.8-2.5-1.4c-0.9-0.8-0.6-2.3,1.2-2c0-0.7-0.4-1.4,0.5-1.6c-0.1-0.5-0.1-1-0.1-1.6
		c-0.8-0.3-1.8-0.7-1.5-1.9c0.6-0.1,1.1-0.5,1.7-0.5c0.4-3.5-0.2-7,0-10.8c0.1-2.7,0.4-5.4,0.3-8C34,37.9,34,36.2,34,34.9
		c0-0.5,0.2-1.1,0.1-1.5c-0.1-0.3-0.5-0.5-0.6-0.9c0-0.7,0.5-1.2,0.6-1.7c0.1-0.5-0.4-1.4-0.2-2c0.1-0.4,0.7-0.6,0.8-0.9
		c0.3-0.6,0.2-1.4,0.8-1.8c0.8,0,1.8-0.2,2.6-0.1c0.4,0.1,0.7,0.3,1,0.3c-0.2,0.9,1.5,2.7,0,3.3c-0.3,2,0.1,4.1,0,6.1
		c0,1.1-0.2,2.2-0.2,3.3c-0.1,3,0.1,6.1,0,9.2c0,3.6-0.3,7-0.1,10.7c0.2,0.1,0.5,0.2,0.7,0.4c0.1,0.9-0.3,1.5-1.1,1.7
		c0,0.7-0.2,1.9,0.4,2.2c0.1,0.3-0.1,0.5,0,0.9c0.3,0.4,0.8,0.5,0.9,1c0,0.4-0.5,1.4-1,1.7c-0.3,0.2-0.7,0.2-1,0.3
		c-0.4,0.9-0.7,1.9-1.3,2.7c0.4,0.2,0.3,0.7,0.7,0.9c-0.3,0.3-0.6,0.1-0.9,0.1c-1.4,0.2-2,1.7-3.4,1.9c0.3,0.7,0.4,1.8-0.6,1.8
		c-1-2.4-5.1-0.9-6.9-0.4c-0.2-0.3,0-0.8,0.1-1.1c-1.2-0.3-1.9-1.2-2.9-1.7c-0.4,0.1-0.6,0.3-0.7,0.7c-0.1,0.6,0.5,0.8,0.6,1.2
		c0,0.3-0.2,0.4-0.3,0.7c-1,2.4-0.5,6.6,0.1,8.8c0.1,0.4,0.3,0.9,0.6,1.3c0.1,0.2,0.5,0.3,0.5,0.6c0.1,0.3-0.4,0.8-0.1,0.9
		c0,0.2-0.2,0.2-0.2,0.4c-0.1,1.4-0.6,2.3-1.6,2.7c-0.1,0.4-0.3,0.6-0.6,0.8c0.2,0.4,0.1,0.8,0.3,1.1c-0.1,1,0.5,2.5,1,3.2
		c0.7,0.9,1.5,1.4,2.9,1.6c0.7,0.1,1,0.1,1.3,0.6c0,0.2,0.1,0.3,0,0.5c0.9,0.3,1.5,1.4,1.1,2.4c-1.8,1.2-4.6,1.5-7.6,1.7
		c-3.2,0.1-6.7-0.7-8.4-2.3c0-0.2,0.1-0.1,0.2-0.1c-0.1-1.1,0.5-1.8,1.3-2.2c0.2-0.7,0.5-0.8,1.2-0.8c1-0.2,2.4-0.6,3.2-1.5
		c0.2-0.2,0.2-0.5,0.4-0.8c0.2-0.4,0.5-0.7,0.7-1.1c0.2-0.5,0.5-1.5,0.3-2.2c-0.1-0.4-0.4-0.5-0.4-1.1c-0.9-0.5-1.4-1-1.6-2
		c-0.1-0.5,0.2-1.1-0.2-1.5c0.2-0.2,0.2-0.6,0.3-0.8c0.1-0.1,0.2-0.1,0.4,0c0.5-1.2,1.1-2.7,1.4-4.3c0.2-0.9,0.1-1.9,0.1-2.8
		c0-0.9-0.3-2.1-0.5-2.7c-0.2-0.5-0.6-1,0-1.3c-0.2-0.3,0.1-0.6,0.1-0.8c-0.8,0.4-1.2,1.1-1.9,1.7c-0.9,0.3-1.4,0.8-2.4,0.9
		c-1.3,0.2-2.7-0.6-3.9-0.4c-0.7,0.1-1.1,0.7-1.8,0.7c-0.2-0.3-0.7-0.8-0.4-1.3c-1.7-0.7-2.6-2.2-4.7-2.6c0.1-0.4,0.5-0.6,0.8-0.8
		C3.5,69.6,2.9,69,2.7,68c-0.8-0.4-2.6-1.4-2.7-2.4c-0.1-0.8,1-1.1,1.8-1.4c-0.2-0.5,0.1-0.8,0.4-1c0-0.8,0-1.4,0-2.3
		C1.6,60.5,0.6,60.2,1,59c0.4,0.1,0.9-0.2,1.4-0.3c0.3-2.5,0.1-5,0.2-7.6c0.1-1.9-0.1-3.8,0-5.6c0-1.1,0.2-2.2,0.2-3.4
		c0-1.8-0.2-3.6-0.1-5.3c0.1-2.8,0.1-5.6,0.1-8.5C2,27.6,2.3,26.5,3,26.1c-0.4-1.4,1-1.6,2.1-1.7c0.3-0.9-0.2-1.2-0.5-1.9
		c-0.4-1.1-0.8-2.6-0.4-4.1c0.3-1,0.8-2,1.2-3c0.3-0.6,0.2-1.5,0.8-1.7c0.2,0.2-0.2,0.5,0.2,0.5c-0.5,2.5,1,5,0.6,7.7
		c-0.3,0.2-0.6,1.5-1.2,1.7c0,0.4,0.1,0.6,0.1,0.9c0.4,0.4,1.4-0.1,1.7,0.4c0.2,0.3,0.1,1,0.1,1.5c0,1,0.2,1.8,0,2.5
		C8,33.5,7.7,39.4,7.6,44.4c-0.1,4.8-0.2,9.3-0.3,14.2c0.4,0.4,1.1,0.4,1.2,0.9c0.2,0.9-1,1.2-1.7,1.5c0.1,0.9-0.1,1.8,0,2.7
		c0.2,0.1,0.5,0.1,0.6,0.3c-0.1,0.2,0,0.3,0,0.6c0.7,0.2,1,0.6,1.3,1.2c-0.3,1.2-1.4,1.7-2.6,2c0.4,2.1,1.7,3.3,4,3.6
		c0-1,0.9-2.2,1.4-0.8c0.9,0.4,2.1,1,3.2,0.8c0.9-0.2,1.4-0.8,1.9-1.4c0-0.2-0.1,0.1-0.1-0.1c0.4-0.3,0.5-1.3,0-1.7
		c-0.3,0.1,0,0.5-0.1,0.7c-1.6,0.5-2.5-2.2-0.8-2.5c0-0.3-0.1-0.8,0.1-0.9c0.2-0.2,0.2,0.3,0.3,0.3c0.6-0.2,1.2-0.1,1.5,0.3
		c0.1-0.1,0.2-0.3,0.3-0.3c-0.5-0.4-1.9-0.9-1.8-1.7c0-0.7,1.2-1,2.1-1.1c-0.1-0.3-0.1-0.6-0.1-0.8c1-0.4,0.2-1.7,0.6-2.5
		c-1.2-0.2-2.2-0.8-1.8-2.3c0.5-0.2,1.1-0.4,1.7-0.6c0.2-3.5,0.1-6.9,0-10.3c0-0.7,0.1-1.4,0.1-2.1c0-1.8,0-4,0-6.2
		c0-1.4,0.1-2.9,0-4.1c-0.1-2.8,0.4-6.1,0.2-8.9c0-0.3-0.2-0.8,0-1.2c-0.9-0.6-0.4-1.8,0.3-2.2c-0.2-0.7-1.1-1.8-0.1-2.5
		c-0.2-0.5-0.7-0.8-0.7-1.3c0-0.5,0.7-0.8,0.8-1.4c0.1-0.8-0.2-1.4,0-2.3c0.2-0.3,0.4-0.5,0.7-0.7c1,0,2.1-0.3,2.8,0.1
		c0.6-0.4,1.4,0,1.6,0.6C24.6,14.3,24.8,15.6,24.3,16.2"/>
	<path class="st0" d="M36.8,22.2c0-0.4,0.2-0.9,0-1.3c-0.6,1.2-0.5,2.9,0.2,3.9c0.3-1.3,1.3-2.7,0.6-4.3
		C37.4,21.2,37.4,22,36.8,22.2 M36.1,22.5c-0.1-0.7,0.3-1.3,0.4-1.8c0-0.3-0.1-0.6,0.1-0.7c0.4,0.2,0.2,0.9,0.5,1.1
		c0.2-0.8-0.2-1.7-0.1-2.2c0.6,0.5,0.7,1.4,0.9,2.3c0.1-1.2-0.1-2.9-0.7-4C36.8,18.7,35.8,20.5,36.1,22.5 M37.6,15.6
		c0.4,0.4,0.2,1,0.3,1.6c0.1,0.9,0.4,1.7,0.6,2.6c0.4,2.4-0.2,4.8-1.7,5.8c-0.8-1.1-1.4-2.8-1.2-4.5c0.3-1.9,1.4-3.7,1.8-5.4
		C37.4,15.6,37.4,15.6,37.6,15.6L37.6,15.6z"/>
	<path class="st0" d="M37.5,49.9L37.5,49.9c0.3,0.3,0.2,0.7,0.2,1c0.1,2,0,4.2,0.1,6.1c0,0.5,0.1,1.2-0.2,1.6
		c-0.2-0.2,0.2-0.8-0.1-1.2c-0.2,0.2,0.2,1-0.3,1C37.3,56,37.4,52.5,37.5,49.9"/>
	<path class="st0" d="M5.6,63.8c0.1-0.5,0.2-1.3,0-1.7C5.5,62.7,5.4,63.3,5.6,63.8 M5.8,62.6c0-0.3,0.1-1.1,0-1.4
		C5.7,61.6,5.7,62.3,5.8,62.6 M6,60.8c0.2,0.8-0.1,2.3,0.2,3.2c-0.4,0-0.7,0.3-1,0c0.4-0.8,0-2.3,0.4-3.1C5.7,60.8,5.9,60.9,6,60.8"
		/>
</g>
</svg>
