<?xml version="1.0" encoding="utf-8"?>
<!-- Generator: Adobe Illustrator 19.0.0, SVG Export Plug-In . SVG Version: 6.00 Build 0)  -->
<svg version="1.1" id="Layer_1" xmlns="http://www.w3.org/2000/svg" xmlns:xlink="http://www.w3.org/1999/xlink" x="0px" y="0px"
	 width="65.4px" height="115.8px" viewBox="0 0 65.4 115.8" style="enable-background:new 0 0 65.4 115.8;" xml:space="preserve">
<style type="text/css">
	.st0{fill:#FFFFFF;}
</style>
<g>
	<path class="st0" d="M52.2,8.3c-1.3,0.7-2.5,1.4-3.6,2.3c-0.3,0.3-0.7,0.7-1.1,0.7c0.6-0.7,1.4-1.2,2.2-1.7
		C50.4,9.1,51.2,8.6,52.2,8.3"/>
	<path class="st0" d="M9.2,28.3c0.4,0,0,0.9,0.2,1c-0.5,1.3-1,2.7-1.7,3.9c-0.1,0.2-0.4,0.3-0.5,0.6C6.7,34.7,7,35.9,6,36.4
		c0.5-0.6,0.4-1.7,0.7-2.5c0.3-0.9,1.3-1.7,1.7-2.7c0.2-0.4,0.2-0.9,0.3-1.3C8.8,29.6,9,29,9.2,28.3"/>
	<path class="st0" d="M11.8,30.1c0.8,0.3,0.2,1.6-0.5,1.7C11.8,31.4,12,30.6,11.8,30.1"/>
	<path class="st0" d="M10.3,31.4c-0.2,0.6-0.9,0.8-0.9,1.7C8.9,32.6,9.6,31.5,10.3,31.4"/>
	<path class="st0" d="M10.4,31.9c-0.3,0.4-0.5,0.8-0.9,1C9.7,32.4,9.9,31.9,10.4,31.9"/>
	<path class="st0" d="M11.3,32.3h0.2c0,1.5-1,2-1.7,2.8C10.1,34.3,11.3,33.4,11.3,32.3"/>
	<path class="st0" d="M10.4,33c0.3,0.2,0.1,1-0.2,1C10.3,33.7,10.3,33.3,10.4,33"/>
	<path class="st0" d="M8.6,33.1c0.1,0,0.1,0.1,0.2,0.1c-0.2,2.5-1.1,4.9-2.6,6.4c0.3-0.7,1.2-1.5,1.4-2.6c-0.5,0.1-0.8,1-1.4,1.2
		c1.1-1.3,2.5-2.6,2.3-4.9C8.4,33.2,8.5,33.2,8.6,33.1"/>
	<path class="st0" d="M16.2,33.9c-2,1.4-4.1,3-6,4.3c1-1.1,2.4-1.8,3.4-2.7c0.2-0.2,0.3-0.4,0.5-0.6C14.7,34.5,15.5,34.2,16.2,33.9"
		/>
	<path class="st0" d="M7.8,34.1c0.7,0.8-0.6,1.9-1.1,2.5C7,35.7,7.9,35.1,7.8,34.1"/>
	<path class="st0" d="M6.4,37.1c-0.2,0.7-1,0.9-1.4,1.3C4.5,39,4.2,39.9,4.4,41c-0.9-1.8,0.9-3,1.8-3.8H6.4z"/>
	<path class="st0" d="M7.7,38.7c-0.4,0.6-0.8,1.2-1.6,1.4c0.3-0.6,1-0.8,1.2-1.4H7.7z"/>
	<path class="st0" d="M5.3,39c0.2,0.5-0.3,1.4-0.8,1.7C4.6,40.3,5,39.5,5.3,39"/>
	<path class="st0" d="M49.3,39.2c0.4,1-0.7,2-0.5,3.2c0.1,0.7,0.9,1,0.7,1.7c-0.2-0.6-0.7-0.9-0.9-1.4
		C48.2,41.7,49.3,40.5,49.3,39.2"/>
	<path class="st0" d="M45.6,39.4c-0.2,2.3,0.6,5.1,0.1,7.2C45.8,43.9,44.9,41.8,45.6,39.4"/>
	<path class="st0" d="M3.3,40.1c0.4,0.4-0.2,1.3,0.3,1.7c0.3,0,0.3-0.3,0.7-0.3c-0.2,0.5-1,0.9-1.7,1.1C2.8,42.4,3,42.1,3.4,42
		C3,41.5,3.1,40.7,3.3,40.1"/>
	<path class="st0" d="M7.6,40.3c-0.4,0.7-1,1.2-1.9,1.4c0.4-0.5,1.3-0.7,1.5-1.4H7.6z"/>
	<path class="st0" d="M49.7,46.6c-0.4-0.7-0.4-1.8-1.1-2.3c-0.8,0.6-0.9,1.7-1,2.6c-0.1,0.9-0.1,2.1,0,3.2c0,0.9,0.3,1.9,0.2,2.7
		c-0.1,1.1-0.7,2.1-0.8,3c-0.2,1.2,0.2,2.6,0.1,3.8c-0.2,2.5,0.7,5.2,1.1,7.6c0,0.4,0.3,0,0.3,0.4c-0.2,0.4,0.1,1.1-0.3,1.2
		c-0.1-0.3,0.1-0.5,0.1-0.8c-0.3-2.3-1.5-4.8-1.5-7.7c0-0.4,0.1-0.8,0.2-1.2c0-1-0.2-2-0.2-3c0.1-1.2,0.8-2.3,0.9-3.5
		c0.1-1.2-0.3-2.5-0.3-3.8c0-1.3,0-3.2,0.5-4.3C48.8,42.8,49.8,45.8,49.7,46.6"/>
	<path class="st0" d="M48.4,47.1c0.3,1.1,0.6,3-0.1,3.8C48.4,49.9,48.6,48.2,48.4,47.1"/>
	<path class="st0" d="M46.8,48.5c0.1,0,0.1,0,0.2,0.1c0,1.2,0.5,3-0.3,4c0-0.6,0.3-1.1,0.3-1.8C46.9,50,46.5,49.3,46.8,48.5"/>
	<path class="st0" d="M48.7,52c0.6,0.6,0.2,1.8,0.3,2.7c0.1,0.5,0.5,0.8,0.2,1.2c-0.8-0.9-0.1-2.7-0.7-3.5c-1,0.2-0.3,1.2-0.2,1.7
		c0,0.5,0,1.4-0.1,1.9c-0.1,0.3-0.3,0.5-0.4,0.8c-0.2,0.6-0.2,1.4-0.2,2c0,2.5,0.4,5.2,0.9,7.4c0.6,0.4,0.7,1.7,1.1,2.5
		c-0.5-0.1-0.4-0.9-0.8-1c-0.9-2.6-1.6-6.7-1.3-10.5c0-0.5,0.2-0.8,0.5-1.2c0.1-1.3-0.2-2.3-0.2-3.5C48.2,52.1,48.3,51.9,48.7,52"/>
	<path class="st0" d="M49.3,58.8c-0.3-0.3-0.2-1.1-0.5-1.3c-0.3,0.3-0.3,1-0.2,1.8c0,0.8,0,1.7,0.1,2.3c0.2,1,1.1,2,0.8,3
		c-0.4-0.3-0.1-0.7-0.2-1.1c-0.2-0.6-0.6-1.2-0.8-1.8c-0.1-0.6-0.1-1.7-0.2-2.5c0-0.9,0.1-1.8,0.5-2.2
		C49.2,57.3,49.2,58.1,49.3,58.8"/>
	<path class="st0" d="M46.3,64.9c0.7,1,0.3,2.4,0.6,3.7c0.2,0.8,0.6,2,0.8,2.8c-0.1,0.2-0.1,0-0.4,0.1c0.3,0.7,0.3,1.7,0.4,2.3
		c-0.4-0.5-0.3-1.5-0.5-2.1c-0.3,0.9-0.2,2.4-0.1,3.5c0,0.4,0.3,0.9,0,1.1c-0.2-1.3-0.4-3.6-0.2-5c0.2-0.2,0.2,0.1,0.5,0.1
		c-0.2-1.5-1.1-2.9-1.1-4.5c0-0.4,0.2-0.9,0-1.3c-0.7,4,0.5,8.1,0.2,11.9c-0.5-0.4-0.2-1.2-0.2-1.8c0-3.3-0.8-7.1-0.3-10.6
		c0-0.1,0.1-0.1,0.1-0.2H46.3z"/>
	<path class="st0" d="M44.2,68c0.1,0,0.2,0.5-0.1,0.4C44.1,68.2,44.1,68.1,44.2,68"/>
	<path class="st0" d="M48.4,69c0.5,0.4,0.5,1.5,0.7,2C48.5,70.7,48.7,69.6,48.4,69"/>
	<path class="st0" d="M48.1,74.1c0.3,0.6-0.2,0.8,0,1.4c0.2,0.7,1.5,1.2,0.6,2C49,76.1,47.2,75.7,48.1,74.1"/>
	<path class="st0" d="M41.6,81.2c0.2,0.4-0.7,1-0.8,1.8c0,0.2,0.2,0.3,0,0.5C40.4,82.7,41.1,81.7,41.6,81.2"/>
	<path class="st0" d="M47.5,90c0.8,0.1,0.7,1.8,0.1,1.7C48.1,91.2,47.6,90.5,47.5,90"/>
	<path class="st0" d="M49,90.2c0.1,0,0.1,0.1,0.2,0.1c-0.4,0.4,0.2,1.1-0.2,1.4C48.7,91.3,48.6,90.6,49,90.2"/>
	<path class="st0" d="M42.7,93.4c0.2,0.3-0.5,0.6-0.6,1c-0.4,1.2,0.4,2.2,1.2,2.7C41.6,96.9,41.4,94.1,42.7,93.4"/>
	<path class="st0" d="M47.7,93.7c0.1,0.7,1,0.6,1.1,1.2c0.1,0.6-0.7,1.2-0.8,2c-0.2-1.1,1-2.2-0.5-2.7
		C47.5,93.9,47.6,93.8,47.7,93.7"/>
	<path class="st0" d="M47.5,98.4h0.2c0.2,0.3,0.2,1.1,0.1,1.5C47.5,99.6,47.6,98.7,47.5,98.4"/>
	<path class="st0" d="M43.7,103.7c0.1,0,0.1,0.1,0.2,0.1c-0.7,1.6-1.4,3.1-2.8,4C42.1,106.6,43.1,105.3,43.7,103.7"/>
	<path class="st0" d="M49.8,103.9c0.6,1.4,1.5,2.5,2.5,3.6c-0.2,0.3-0.5-0.4-0.8-0.5C50.9,106,49.7,105.3,49.8,103.9"/>
	<path class="st0" d="M50.3,103.9h0.2c0.6,1.4,1.2,2.8,2.6,3.5C51.8,107.4,50.6,105.2,50.3,103.9"/>
	<path class="st0" d="M49.1,104c0.1,0,0.1,0.1,0.2,0.1c0.2,1.3,1,2,1.7,3C50.3,106.6,49.1,105.3,49.1,104"/>
	<path class="st0" d="M55.2,109.7c0.9,1.3-0.7,2.6-1,3.4c-0.2,0.1-0.4,0-0.6,0c0.6-0.8,1.9-1.9,1.2-3.3
		C54.9,109.7,55.1,109.7,55.2,109.7"/>
	<path class="st0" d="M49.2,112.9c0.7-0.5,1-1.9,0.3-2.7c0-0.1,0-0.1,0.1-0.1C50.5,110.3,50.5,112.8,49.2,112.9"/>
	<path class="st0" d="M36.8,110.3c-1.3,0.4-1.4,2.6,0,3C35.4,113.5,34.8,110.4,36.8,110.3"/>
	<path class="st0" d="M35,115.4c0.9-0.1,1.9-0.1,2.7-0.1c0.5-0.1,1-0.2,1.5-0.1c0.3,0,0.5,0.2,0.8,0.2c0.5,0,1-0.1,1.5-0.1
		c1.3-0.1,3,0.1,4,0.2c1.1,0.1,1.8-0.3,2.6-0.4c1.3-0.1,2.5-0.1,4-0.3c0.2,0,1.5-0.1,1.7-0.1c-0.1,0-1-0.1-1.6-0.1
		c-2.6,0.1-5,0-8.1,0c-2.5,0-4.8,0.4-7.3,0.4c-2.1,0-4,0-6.1,0.3C32.1,115.7,33.5,115.6,35,115.4 M29.8,114.7c5,0.2,10.1,0,14.9-0.4
		C39.7,114.3,34.9,114.7,29.8,114.7 M45,114.4c5,0.3,10.8-0.1,15.5-0.4C55.4,113.8,50.4,114.2,45,114.4 M56.9,112.2
		c-0.5,0.3-0.9,0.8-1.4,1c-0.2,0.1-0.4-0.2-0.4,0.1c2.6,0.8,3.5-2.3,2-3.4C57.5,110.7,57.3,111.6,56.9,112.2 M57.7,113.3
		c1.5-0.2,2.2-1,2.1-2.6c-0.3-0.4-1-0.9-1.6-0.9C59.6,110.6,58.6,112.6,57.7,113.3 M43.6,108.6h-1c0,0,0,0.1-0.1,0.1
		c-0.1,0-0.7,0-0.5,0.1C42.7,108.8,43.3,108.8,43.6,108.6 M59.4,109.8c-0.6-0.4-1.7-1.2-2.5-0.7c-1.7-1-4.6-0.3-6.5-0.4
		c0.2,0.3-0.2,0.2-0.2,0.5c0.2,0.4,0.8,0.5,1.4,0.7c0.7,0.6,0.7,2.4,0.3,3.3c-0.1-0.9,0.3-2.5-0.5-3.1c-0.7-0.1-1.5-0.2-1.7-0.9
		c-0.1-0.3,0.6-0.3,0.2-0.4c-2.3,0-5,0.1-7.8,0.2c-1.4,0-3,0-4.5,0.1c-1,0-2.1,0-2.9,0.1c-1.3,0.2-3.2,1.6-2.2,3.1
		c0-1.3,0.9-2.8,2.3-2.8c-0.9,0.4-2.1,1.5-1.9,2.8c0,0.2,0.2,0.6,0.5,0.5c-0.5-1.3,1.1-3.4,2.2-3.2c-1.3,0.5-2.8,2.5-1.4,3.8
		c0.4,0.1,0.5,0.1,0.9,0c-1.4-1.2-0.4-3.8,1.3-3.7c-1.6,0.5-2.3,2.9-0.5,3.8c0.7,0,1.5,0.1,2-0.1c-0.7-0.4-1.7-0.4-1.9-1.3
		c-0.2-0.8,0.6-1.9,1.4-1.7c-0.4,0.4-1.2,0.7-1.1,1.4c0,0.5,0.5,0.9,1.1,1.1c-0.2-0.5-0.5-1.6,0.2-1.9c-0.5,1,0.1,2.2,0.9,2.5
		c0.5,0.1,1.8,0,2.6,0c2.1,0,4.6-0.2,6.4-0.1c-0.1-0.6,0.3-1.7,1-1.7c-0.3,0.4-0.7,1.3-0.8,1.7c1.6-0.2,3.2-0.2,4.9-0.1
		c0.5-0.6,1.1-1.3,1.2-2.2c0-0.3-0.3-0.7,0.2-0.8c0.5,1.2-0.5,2.2-0.9,3h1.4c0.6-0.7,1.6-1.7,1.4-3c-0.1-0.3-0.4-0.4-0.3-0.8
		c1.4,0.8,0.1,2.9-0.3,3.4c0.5-0.5,1.4-0.9,1.5-1.7c0.1-0.7-0.4-1.2-0.5-1.8c1.3-0.1,2.1,1.7,1.4,3c1.1-0.5,0.8-2.7-0.5-2.8
		c0.2-0.2,0.4-0.2,0.4-0.4C58.5,109.2,58.9,109.9,59.4,109.8 M38.8,108.2c1.1-0.8,2.1-1.9,2.7-3.1c0.3-0.5,0.5-1.1,0.5-1.7
		c-1.1,2.2-2.6,4-4.8,5.1h2.2c1-1.1,2.2-2.2,2.8-3.5c0.2-0.5,0.2-1.1,0.8-1.4c-0.4,2.3-2.1,3.4-3.3,4.9c2.9,0,5.7-0.3,9-0.3
		c0.1-0.8,0.7-1.1,0.8-2c-0.7-0.3-1.9-0.5-1.9-1.4c0-0.3,0.3-1,0.8-0.9c-1.6,1.6,1.3,1.5,1.4,2.4c0.1,0.8-0.9,0.9-0.8,1.9
		c1.9-0.1,4.1-0.1,5.6-0.3c-1.6-1-2.8-2.5-3.6-4.3c-2-0.1-5.7,0.1-8.4-0.2c-0.5,1.3-1.3,2.7-2.1,3.7C40,107.6,39.2,108.3,38.8,108.2
		L38.8,108.2z M41.6,102.6c0.1-0.2,0.1-0.6,0.3-0.9C41.3,101.5,41.1,102.5,41.6,102.6 M42.3,103.1c0.4-0.1,0.8,0.2,1.1,0
		c-0.8-0.3-0.3-1.2,0.2-1.5H43c0.2,0.3-0.2,0.3-0.4,0.5c-0.1,0.4,0.2,0.7,0.1,0.8c-0.2,0-0.3-0.2-0.5-0.3c-0.1-0.4,0.3-0.7,0.1-0.9
		C41.7,102.2,42.2,102.7,42.3,103.1 M44,101.6c-0.3,0.3-0.8,0.5-0.8,1.1c0.2,0.3,0.6,0.5,0.7,0.7h0.4c-0.1-0.3-0.4-1.3,0.2-1.3
		c-0.2,0.5,0,1.1,0.3,1.3c2.8-0.2,5.5,0.4,7-0.4c0.2-0.7-0.7-1.3-1.4-1.2c0.2,0.3,0.1,0.9,0.3,1.2c-0.2,0-0.3,0.3-0.5,0.1
		c0.1-0.5,0-1.3-0.5-1.5c0.3,0.4,0.6,1.2,0,1.5c0.3-0.8-0.3-1.1-0.6-1.4c0-0.3,0.5,0.1,0.4-0.2C48.1,101.4,45.5,101.5,44,101.6
		 M42.9,101.2c0.3-0.5,0.4-1.5,0.3-2.2c0-0.4-0.5-1,0-1.1c0.7,0.8,0.1,2.5,0.2,3.4c0.7-0.1,1.4-0.1,2.2-0.1
		c-0.3-0.9,0.2-2.3-0.4-3.3c0.1,0.8,0,1.5-0.1,2.2c0,0.4,0,0.9-0.3,1c-0.2-0.9,0.4-2.4-0.2-3.2c-0.1,0.8,0.2,2.1-0.2,2.7
		c-0.4-0.6,0.2-2.4-0.5-2.8c-0.1,0.8,0.3,2-0.2,2.8c-0.2-0.8-0.3-2.3-0.2-2.9h-0.8C42.8,99,42.9,99.8,42.9,101.2 M49,100.7
		c-0.4-0.7-0.3-1.8-0.3-2.8c-0.5,0.2,0.1,1-0.2,1.6c-0.2-0.5-0.2-0.9-0.3-1.7c-0.8,0-1.7,0-2.4,0.1c0,0.9-0.1,2.3,0,3.3
		c1.3,0.1,2.5-0.1,3.8-0.1c-0.2-1,0-2-0.3-2.5c0-0.2,0.4-0.8,0-0.9C48.8,98.4,49.1,100,49,100.7 M49.8,97.6
		C49.7,97.6,49.7,97.7,49.8,97.6c0.2,1.2-0.5,3.1,0.3,3.5c0.2-1.2,0.1-2.2,0.2-3.6C50.1,97.6,49.9,97.6,49.8,97.6 M52.5,96.7
		c0.3,0,0.5,0,0.5-0.2c-0.2-0.2,0.4-0.7,0.1-1C53,96,52.7,96.3,52.5,96.7 M38.8,96c0-0.9,0.4-1.5,0.9-2c0-0.1,0.1-0.1-0.1-0.1
		C39,94.2,38.4,95.2,38.8,96 M53.1,96.5c1.4-0.1,1.3-2.6,0-2.8C53.4,94.5,53.6,95.8,53.1,96.5 M41.2,97.2c-0.6-0.5-0.8-1.6-0.5-2.5
		c0.1-0.4,0.6-0.7,0.5-0.9C39.9,94.1,39.4,97,41.2,97.2 M52.7,93.7c0.1-0.3-0.2-0.3-0.3-0.4C52.4,93.6,52.6,93.6,52.7,93.7 M42,97.3
		c-1.1-1-0.8-3.4,0.5-4.1C40.7,93.7,39.9,96.7,42,97.3 M41.6,93.4c0-0.1,0.1-0.1-0.1-0.1c-1.7,0.1-3.5,2.9-1.5,3.5
		C39.2,95.5,40.2,93.7,41.6,93.4 M43.9,97.1c-1.7-0.4-1.6-2.8-0.7-3.9C41.1,93.1,40.7,98.2,43.9,97.1 M52.2,96.8
		c0.3-0.5,0.7-0.8,0.8-1.4c0.2-1.8-1.4-2.3-3-2.4c-2.1-0.1-4.9,0-6.4,0.1c-0.7,0.7-1.2,2.1-0.5,3.2c0.3,0.1,0.6,0.6,0.9,0.4
		c-0.6-0.3-1-2.3-0.1-2.6c-0.6,1.1-0.3,2.7,0.9,2.9c1.2,0.2,2.7-0.2,4.1-0.1c0.4-0.5,0.5-1.3,0.4-2c0.7,0.5,0,1.5-0.2,2
		c0.9-0.3,1.4-1.7,0.9-2.5c1.1,0.6,0,1.9-0.5,2.5h0.8c0.7-0.6,1-2.3,0.5-3c1.1,0.7,0.2,2.3-0.2,3c0.9-0.1,2-1.6,1.5-2.7
		c-0.2-0.3-0.5-0.3-0.6-0.7c0.6,0,1,0.8,0.9,1.7c-0.2,0.6-1.1,1.2-1,1.7C51.6,96.8,52,96.9,52.2,96.8 M50.5,90.6
		c0.1-0.3-0.2-0.6,0-0.8c-0.2-0.1-0.1,0.2-0.3,0.1c0.1-0.4-0.5-0.3-0.8-0.4c-0.2,0.1,0,0.5-0.4,0.4c-0.1-0.1,0.1-0.2,0-0.4
		c-2.4,0.1-4.7,0.5-6.8,0.1c0.2,0.8,0.1,1.8,0.2,2.6c2.4-0.3,5.8,0,8,0c0.1-0.5-0.1-0.8,0.2-1.3c-0.3,0.1-0.2-0.8-0.3-0.9
		C50.6,90,50.4,90.8,50.5,90.6 M50.6,89.3c0.5,0.1,1-0.2,0.7-0.6C51.1,88.9,50.7,88.9,50.6,89.3 M41,88.4c-0.2-0.3-0.3-1.3,0.2-1.3
		c-0.7,1.9,1.1,2.4,2.5,2.5c1.8,0.1,4.1-0.3,5.4-0.2c0.1-0.2,0.4-0.3,0.4-0.7c-0.2-0.2-0.5-0.3-0.5-0.7c0-0.4,0.4-0.3,0.3-0.8
		c-0.1,0-0.2-0.1-0.2-0.2c-2.7,0.1-4.7,0-7.3,0.1c-0.5,0.9,0,2,0.9,2.2c-1.2,0.1-1.6-1.3-1.1-2.2C40.4,86.4,40.5,88.4,41,88.4
		 M50.8,88.7c0.4-0.4,0.6-1.5,0.2-2.1c-0.4,0.1-0.9,0.2-1.4,0.2c0.2,0.5,0,0.8-0.2,1.2c0,0.2,0.4,0.2,0.5,0.4
		c0.1,0.4-0.4,0.6-0.2,0.9C49.9,89,50.4,88.9,50.8,88.7 M41.3,86.6c2.5,0.1,5.4,0.1,7.7-0.1C46.5,86.5,44.2,86.3,41.3,86.6 M51.8,84
		c0.4-0.1,0.9,0.2,1.2-0.1C52.7,83.8,52.1,83.9,51.8,84 M35.8,83.3c0-0.3,0.4-0.6,0.2-0.8C35.9,82.8,35.5,83.2,35.8,83.3 M55,83.4
		c0.2,0.1,0.5,0.1,0.8,0c-0.1-0.4-0.2-0.7-0.5-0.9c-0.3,0.2,0.2,0.5,0,0.7c-0.4,0-0.3-0.7-0.6-0.8C54.7,82.8,55,83,55,83.4
		 M36.7,83.6c0.1,0.1,0.4,0.1,0.7,0.1c0.1-1.1,1.1-1.7,1.4-2.3C37.9,82,37,82.4,36.7,83.6 M54.3,81.6c-0.1-0.1-0.3-0.6-0.5-0.4
		C54,81.3,54.2,81.7,54.3,81.6 M38.4,80.9C37.9,81,37,81.3,37,81.7C37.3,81.3,38.1,81.2,38.4,80.9 M50.6,80.7
		c0.7,0.5,0.6,1.8,0.5,2.7c0.9,0.2,1.7-0.1,2.8,0c-0.3-1.1-0.9-2.2-1.9-2.4c0.3,0.5,0.9,1.9,0.5,2.2c-0.3-0.9-0.4-2-1.1-2.5
		c0.4-0.2,0.6,0.4,0.8-0.1C51.6,80.6,51.1,80.6,50.6,80.7 M39,80.6c-0.7,0.8-3.2,1.4-3,2.9c0.5,0.2,0.5-0.5,0.6-0.7
		c0.6-1,2.3-2.1,3.3-1.9c-0.6,0.5-1.9,1.2-2.2,2c0,0.1-0.2,0.7,0.2,0.8c0.4-0.2,0.2-1,0.8-1c-0.1,0.4-0.4,0.6-0.4,1.1
		c0.7,0,1.5,0,2.3,0.1c-0.3,0.1-0.7,0.2-1.1,0.3c-0.1,1.1,0.7,1.4,1.1,2c1.7,0.3,3.9-0.1,6.1,0c2.8,0.1,5.8,0.6,6-1.7
		c-3,0.1-6.6,0.1-9.5,0.3c-0.3,0-0.7,0.3-1-0.1c3.4-0.5,6.8-0.1,10.4-0.5c-3.7,0-7.3-0.1-10.7,0.3c0-0.7,0-1.4,0.2-2.2
		c-0.7,0.3-0.9,1.3-0.9,2c-0.6,0.1-0.3-0.5-0.2-0.9c0.3-0.7,0.6-1.4,1.1-1.6c0.4,0.6,0,1.4,0,2c1.1-0.1,2.9-0.2,4.4-0.2
		c-0.1-0.6-0.3-1.5,0.5-1.7c0.1,0.4-0.3,1.3,0.1,1.6c1.1,0.1,2.6,0,3.7-0.1c0.4-1.2-0.3-2.2-0.6-2.7c0-0.1,0.3-0.3-0.2-0.2
		c-0.2,0.4,0.7,2-0.1,2.5c0.1-1.1-0.1-1.9-0.5-2.6C46.1,80.6,42.5,80.6,39,80.6 M54,83.5c0.2-0.2,0.7,0,0.9-0.1
		c-0.1-0.1-0.2-0.2-0.3-0.3c-0.2-1.2-1.2-1.8-2.1-2.3c0.1,0,0.3-0.3,0.1-0.4c0,0.2-0.3,0.2-0.4,0.3C53.3,81.2,54.1,82.3,54,83.5
		 M42.8,79.3c-0.9-0.1-2-0.1-2.8-0.1c-0.1,0.4-0.3,0.7-0.5,1c2.1,0.2,4.5,0,6.7,0.1c2.2,0.1,4.1-0.1,5.9-0.1c0-0.5-0.7,0.1-0.8-0.3
		c0.2-0.3,0-0.6,0.1-0.9C48.4,78.4,45.7,79.5,42.8,79.3 M45.5,79c-1.1-0.1-1.7,0.2-2.6,0.1C43.7,79.5,44.7,79.1,45.5,79 M45.2,76.3
		c0-0.3,0.1-1.1-0.1-1.1C45.1,75.5,45,76.4,45.2,76.3 M45.1,74.9c0.1-1,0.2-2.7-0.1-3.6C44.9,72.4,44.9,73.6,45.1,74.9 M40.7,41.3
		c0-0.3,0-0.5-0.1-0.6C40.5,40.8,40.6,41.2,40.7,41.3 M40.4,35.6c0.1-0.1,0.1-0.6,0-0.7C40.3,35.2,40.4,35.3,40.4,35.6 M20.1,30.8
		c1.8-1.3,3.8-2.6,5.4-4.1C23.6,27.9,21.6,29.4,20.1,30.8 M45,31.8c0,5.7,0.1,11.5,0.5,17.3c0.3,5.8-0.4,11.6-0.2,17.5
		c0.4-6.1,0.8-13.3,0.8-19.8c0-3.6,0.1-6.4-0.2-9.8c-0.2-3.3-0.5-6.5-0.5-10c0-0.1-0.1-0.1-0.1,0.1c0,0.8,0,1.5-0.2,2.2
		c-0.2-2.2,0.3-3.7-0.4-5.5C44.7,26.4,45,29.1,45,31.8 M44.7,22.8c0-0.7,0.2-1.3-0.1-2C44.7,21.5,44.5,22.3,44.7,22.8 M45.2,20.1
		c-0.3,1.2-0.2,3.2,0.1,4.3c0-1.6,0.3-3.9-0.2-5.1c0-0.1,0.3,0,0.2-0.3c-0.4-0.5,0-1.3-0.2-1.4C44.9,18.4,44.7,19.6,45.2,20.1
		 M41.9,19.6c0-0.6,0-1.4,0-2h-0.3C41.5,18.1,41.7,19.1,41.9,19.6 M44.7,16.6c0.2,0,0.2,0.2,0.4,0.2c-0.1-0.3-0.2-0.4,0-0.6
		C45,16.1,45,16,44.9,15.9C44.9,16.3,44.7,16.4,44.7,16.6 M41.5,14.5c0.3-0.2,0.2-1,0.1-1.2C41.5,13.8,41.6,14,41.5,14.5 M47.7,12.7
		c-0.1,0.9,0.5,1.7,0.6,2.6c0.1,1.1-0.4,2.2-0.3,3.4c0.1,0.7,0.3,1.5,0.4,2.2c0.1,1.1,0.2,2.2,0.2,3.3c0,1.1-0.3,2.1-0.2,3.2
		c0,0.6,0.3,1.3,0.3,2c0,1-0.4,1.9-0.4,3c0,1.4,0.6,2.8,0.6,4.1c0,0.6,0,1.3-0.2,1.8c-0.1,0.6-0.5,1-0.6,1.6
		c-0.2,1.2,0.1,2.2,0.2,3.3c-0.4-0.3-0.4-0.9-0.5-1.3c-0.1-0.7-0.1-1.6,0.1-2.2c0.1-0.5,0.5-0.9,0.6-1.4c0.1-0.5,0.1-1.3,0.2-1.9
		c0-1.6-0.7-3.1-0.5-4.9c0-0.5,0.3-1,0.3-1.5c0.1-0.7-0.2-1.4-0.2-2.2c-0.1-1.3,0.3-2.7,0.2-3.6c0-0.3-0.2-0.5-0.2-0.7
		c-0.1-0.8,0.2-1.6,0.1-2.4c-0.1-0.8-0.4-1.6-0.5-2.4c-0.1-1.2,0.4-2.3,0.3-3.4c0-0.4-0.2-1-0.4-1.4c-0.1-0.4-0.2-1.1-0.8-0.9
		c-0.1,0.3,0.1,0.7,0.2,1.1c0.1,1.1-0.5,2.7-0.3,4.1c0.1,0.8,0.5,1.5,0.5,2.2c0,0.5-0.3,1.1-0.2,1.6c0.1,1.9,0.7,3.6,0.5,5.6
		c0,0.4-0.2,0.8-0.2,1.2c-0.2,2.2,0.2,4.3,0.3,6.2c0.2,2.1-0.7,3-0.5,5c0.1,1,0.6,2.2-0.1,2.9c0.2-1.6-0.4-3.2-0.1-4.9
		c0.1-0.4,0.4-0.8,0.5-1.2c0.1-0.5,0.1-1.3,0-2c-0.2-1.8-0.5-4-0.3-6c0.1-1.3,0.4-2.5,0.2-3.5c-0.1-0.4-0.3-0.8-0.3-1.2
		c0-0.3,0.1-0.6,0.1-0.9c0-0.5-0.3-0.9-0.3-1.3c0-1.3,0.5-2.7-0.3-3.9c0.7,2.2-0.3,4.5-0.2,6.9c0.1,2,0.9,3.9,0.2,5.8
		c0.5-2.5-0.6-5-0.4-7.5c0.1-1.1,0.6-2.3,0.5-3.3c-0.1-0.8-0.4-1.7-0.5-2.6c-0.1-0.6,0-1.3,0-1.9c0-0.6-0.2-1.3,0.2-1.8
		c0,1.6-0.2,2.9,0.2,4.2c0.2-1.4,0.2-2.6,0.4-4c-0.3-0.3-0.3-0.8-1-0.7c-0.7,0.2-0.5,2.8-0.5,3.6c0,2.2,0.3,4.5,0.2,6.8
		c-0.3,6.6,0.8,13.4,0.7,20c-0.1,6.5,0.1,13.1-0.4,19.3c-0.2,2.1-0.4,4-0.5,6c-0.3,3.4,0.3,6.5,0.1,9.6c1.7-0.2,3.6,0,4.8-0.1
		c0.3-5.2-0.4-10.6,0.2-15.3c-0.4-4.6,0-9.6-0.2-13.2c-0.2-3.3-0.3-6.7-0.2-10.1c0-3.4-0.8-7.2-0.7-10.8c0.2-5-0.1-10.6-0.4-15.9
		c0-0.3-0.5,0-0.4-0.3c0.1,0,0.2,0.1,0.3,0.1C48.9,12.4,48,12.6,47.7,12.7 M39.8,16.1c0.5-0.1,0.7-0.4,1.3-0.5c0-0.8-0.1-2-0.2-3
		c-0.4-0.1-0.7-0.2-1.1-0.2C39.6,13.4,39.9,15,39.8,16.1 M41.8,15.2c0.1-0.1,0.3-0.1,0.4-0.2c-0.1-1.1,0.2-2.4,0.1-3
		C41.8,12.8,42.1,14.4,41.8,15.2 M43.5,12c1.1,0.6,2.4,0.3,3.6-0.1C46.1,11.7,44.2,10.9,43.5,12 M42.7,11.8c0.2-0.1,0.6-0.3,0.5-0.5
		C43,11.5,42.8,11.6,42.7,11.8 M40,11.7c0.8,0.9,2.1,0,2.6-0.7C41.8,10.9,40.9,11.5,40,11.7 M60.4,1.8c-5.1,2.9-9.9,6.2-14.4,9.5
		c4.3-2.3,7.6-5.7,12.3-7.7c-2.1,1.1-4.1,2.5-6,3.9c-1.6,1.2-3.5,2.3-5.1,3.5c-0.1,0.1-0.6,0.2-0.5,0.5c0.5,0.2,1.2,0.1,1.5,0.4
		c-0.1-0.3-0.2-0.3-0.1-0.6c3.9-2.5,7.7-5.6,11.5-8.1c1-0.7,2.1-1.3,2.9-2c0.2-0.2,0.7-0.3,0.6-0.7C62,0.7,61.3,1.3,60.4,1.8
		 M43.2,78.4c0.3-2.1-0.3-4.9,0.2-7.1c0,1.9,0,4.4,0.2,6.3c0,0.2-0.2,0.8,0.3,0.7c0.1-3.3,0-6.6,0.3-9.8c0.1,3.4-0.3,6.6,0.3,9.8
		c0.6-3.1,0-6.4,0.3-9.9c0.5-4.9,0.2-10.4,0.5-15.5c0.2-3.3-0.2-6.6-0.4-9.8c-0.2-4-0.1-8-0.2-12c0-2.1-0.2-4.2-0.3-6.3
		c-0.1-2.7,0.2-5.6-0.1-8c0.3-1.2-0.2-2.5,0.2-3.8c-0.7-0.1-1.5-0.4-2-0.4c0,2.5,0,5.1-0.4,7.4c-0.1,0.5-0.2-0.4-0.2,0.1
		c0,0.2,0.3,0.1,0,0.3c-0.7-0.6-0.5-2.1-1-2.9c-0.2,0.2-0.5,0.4-0.8,0.7c0.3,2.6,0,5.2,0.2,7.5c0.2,2.7,0.2,5.4,0.2,8.2
		c0,7.2,0.9,15.1,0.6,22.6c-0.1,3.6,0.3,7.3-0.1,10.8c0,0.4-0.2,0.7-0.2,1.1c-0.1,1.4,0,3.1-0.1,4.7c-0.1,1.7,0,3.4,0,5.1
		c0.3,0.1,1.3-0.1,1.7,0.1c0.1-1.5-0.2-2.8,0.3-3.9C42.9,75.6,42.5,77.6,43.2,78.4 M15.4,35.8c4.6-3.2,9.1-6.6,13.5-9.8
		c1.5-1.1,3.2-2,4.7-3.1c0.7-0.5,1.3-1.2,2-1.7c1.3-0.9,2.7-1.5,3.6-2.7c1.1-0.4,1.7-1.5,2.9-1.7c0.1-0.5,0.2-0.9,0.2-1.4
		c-4,2.4-7.6,5.1-11.3,7.7c3-1.5,5.6-3.5,8.2-5.2c0.9-0.6,1.8-1.3,2.9-1.5c-0.3,0.3-0.7,0.3-1.1,0.5c-0.3,0.2-0.6,0.5-1,0.7
		c-0.9,0.6-2,1.1-2.7,1.7c-2.6,2-5.5,3.7-8.2,5.4c-2.9,1.8-5.2,4-7.9,5.9c-1.8,1.3-3.7,2.3-5.5,3.6c0.1-0.3,0.4-0.4,0.5-0.7
		c-1,0.6-2,1.4-2.9,2.1c-1,0.7-2.1,1.3-2.8,2.1c0.8-0.6,1.7-1.1,2.6-1.6c-1,0.6-2,1.6-2.9,2c0-0.1,0.4-0.2,0.2-0.4
		c-0.4,0.4-1,0.6-1.1,1.3c-0.2-0.2-0.2,0.1-0.4,0.1c0-0.1-0.2-0.1-0.2-0.4c-0.3,0-0.1,0.3-0.5,0.2c0.8-2.3,3.1-3.1,4.5-4.7
		c1.3-1.6,1.5-4.8,0.6-6.8c-0.6,0.9-1,2-1.7,2.8c-0.3,0-0.1-0.5-0.5-0.5c-0.3,0.4-0.3,1-0.7,1.2c-0.1-1.2,0-3.5-0.9-4.4
		c-0.2,1.2-0.6,1.8-0.8,3c-0.2,0.1-0.2,0.3-0.3,0.4c0.1,0.3-0.1,0.4-0.1,0.8c-0.2,0.2-0.4,0.4-0.4,0.8c-0.2,0.3-0.6,0.6-0.8,0.9
		c-0.5,1-0.5,2.6-1.2,3.5c-0.6,0,0-0.7-0.5-0.9c-0.1,0.3-0.2,0.5-0.3,0.8c0,0.1,0.4,0,0.3,0.3c-0.2,0.9-0.9,1.6-1.5,1.8
		c0.4-0.5,1.2-1,1.1-1.8c-1,1.4-2.1,2.8-3.1,4.2c0.9-0.4,1.4-1.7,2.6-1.7c-1,0.8-4.1,2.4-2.8,3.9c0.2-0.4,0.2-1.2,0.8-1
		c-0.4,0.4-0.4,1.1-0.8,1.5c-0.2-0.3-0.5-0.5-0.8-0.7c0,0.5-0.4,1-0.1,1.4c2,0.1,2.2-1.6,3.9-1.8C5.5,42.9,6.2,42,7.1,42
		c0.4-0.4,1.2-0.9,1.4-1.3c0,0.1-0.2,0.3-0.3,0.1c3.6-2.8,7.2-5.7,11-8.3c3.7-2.6,7.2-5.7,11.3-8C25.5,28.2,20,31.9,15.4,35.8
		 M10.7,36.4c9.4-6.5,18.2-13.4,27.9-19.6c-0.1-0.3,0.1-0.3,0.2-0.4c0.1-1.7-0.3-3.2,0.2-4.6c0.6-0.5,1.7-0.8,2.6-1.2
		c1.1-0.5,2-0.8,2.2,0.6c0.5,0,0.6-0.3,1.1-0.1c2.8-2,6.2-4,9.3-5.9c1.9-1.2,3.9-2.7,6.1-3.9C61,0.8,61.9,0.1,62.4,0
		c0.9-0.1,1.6,0.3,2.3,0.2c0,0.4-0.5,0.3-0.4,0.7c-5.3,3.2-9.8,7.2-14.9,10.6c1.3,3.5,0.7,7.4,0.7,11c0,0.7,0,1.4,0,2.2
		c-0.1,3.1,0.2,6,0.3,9.3c0.1,3.7,0.8,7.2,0.7,11.1c-0.1,2-0.1,3.9,0,5.8c0.3,7.2-0.3,14.2-0.1,21.9c0,1.4,0.1,3.3,0.1,5
		c0.2,0.3,0.7,0.3,1.1,0.4c0.3,0.5,0.5,1.1,0.8,1.5c1.7,0.8,3.7,2,3.3,4.3c-0.7,0.2-1.5,0.3-2.3,0.4c-0.2,1.2-1,1.8-1.7,2.5
		c-0.1,1.2,0.1,2.7-0.8,3c0,0.8-0.2,1.8-0.1,2.5c1.5,0.5,3.4,0.6,3.4,2.5c0,1-0.6,1.9-1.4,2.5c-0.8,0-1.3,0.3-2.2,0.2
		c0.1,1.2,0.1,2.1,0.1,3.4c1.2,0.4,2,2.2,0.6,2.9c0.1,0.8,0.6,1.5,1.1,2.1c0.6,0.8,1.9,1.7,2.9,2c0.4,0.1,0.8,0.1,1.1,0.1
		c1.2,0.3,3.4,0.9,3.8,2c0.3,0.8-0.1,2.1-0.2,2.8c-0.2-0.1-0.6,0.2-0.7,0.5c1.2,0,2.3-0.2,3.6,0.1c0,0.4-0.4,0.3-0.6,0.5
		c0.7,0.4,2.2-0.3,2.5,0.6c-0.3,0-0.3-0.2-0.7-0.2c-0.5,0-1,0.4-1.6,0.3c0.1-0.2,0.6-0.1,0.7-0.3c-2.9,0-6.7,0-9.6,0.4
		c3.2,0.6,7.1-0.2,10.5,0.2c-0.4,0.4-0.8,0.1-1.2,0.1c-2.7-0.2-5.6,0.3-8.5,0.1c-0.6,0-1.2-0.2-1.8-0.1c-1.9,0.1-3.7,0.4-5.4,0.5
		c-0.7,0-1.5,0.3-2.2,0.3c-2.1-0.1-4.5-0.5-6.6,0c0-0.2,0.3-0.1,0.4-0.2c-2.7-0.1-5.3,0.4-8,0.3c-0.3-0.5-1.3-0.1-1.6-0.1
		c0.1-0.4,0.5-0.5,1.1-0.4c-0.1-0.3-0.8-0.1-1.1-0.1c-0.1-0.6-0.5-0.3-0.6-1.1c1.2,0.1,2.2-0.3,3.6-0.2c-0.5-0.5-1.5-1.1-1.4-2.2
		c0-0.6,0.5-0.8,0.7-1.3c0.4-0.2,0.6-0.5,0.9-0.8c0.9-0.7,2.1-0.9,3.2-1.3c2.2-0.8,3.8-2.5,4.8-4.4c-0.9-1-0.5-2.9,1.1-2.9
		c0-1.2-0.1-1.9-0.3-2.9c-1.5-0.3-4-0.6-4.2-2.2c-0.2-1.9,1.6-3.4,3.9-3.2c0-0.8,0-1.7-0.1-2.6c-1.2-0.5-2.1-1.7-1.6-3.5
		c-0.4-0.6-1-1-1.1-1.8c-1.4-0.1-2.8-0.1-3.7-0.7c-0.4-2.4,2-3.3,3.9-4.1c0.1-0.8,0.5-1.3,1.2-1.5c-0.4-6.9,0.2-14.2,0.4-22
		c0-0.5,0-0.9-0.2-1.3c0.3-6.9-0.5-13.9-0.5-20.5c0-5.2-0.5-10.2-0.5-14.9c-4,2.5-7.7,5.5-11.7,8.2c-1.3,0.9-2.5,1.9-3.8,2.9
		c-3.7,3-7.8,5.5-11.7,8.3c-0.6,0.5-1.3,0.9-2,1.4c-0.7,0.4-1.3,1-2,1.3c-0.1,0.4-0.5,0.6-0.8,0.9c-0.4-0.1-0.6,0.1-0.8,0.2v-0.4
		c-0.4,0.3-1.5,0.6-1.9,0.1c-1.3,0.4-2,1.8-3.9,1.9c0.6-0.3-0.4-0.1-0.6-0.4c-0.1-2.7,1.7-4.4,3-6.2c1.2-1.5,2.1-3,2.7-5
		c0.4,0.3,0,0.9,0.2,1.5c0.8-3.3,3.5-5.8,2.6-10c0.5,0,0.7,0.3,1,0.5c0.2,1.5,0.9,2.5,1.1,4.2c0.2,0.1,0.2-0.6,0.5-0.6
		c0.4,0,0.2,0.5,0.5,0.6c0.2-0.6,0.8-1,1.1-1.7c0.2-0.4,0-1.1,0.6-1.3c0.5,1,1,1.5,1,3c0,0.9,0,1.9-0.2,2.7
		C13.6,34,11.9,35.1,10.7,36.4"/>
	<path class="st0" d="M40.7,18.1c0.3,0.1,0.3,0.5,0.5,0.7C41,18.8,40.8,18.4,40.7,18.1"/>
	<path class="st0" d="M13.1,29c0.4,0.4,0.1,1.4,0,2c-0.3,2-1.6,3.4-2.8,4.5c0.6-1.2,2.1-2.2,2.4-3.9C12.9,30.8,12.6,29.8,13.1,29"/>
	<path class="st0" d="M21.6,30.3c-3.2,2.7-7.1,5.4-10.5,8.1c-0.5,0.4-1,0.9-1.6,0.9C13.3,36.1,17.7,33.4,21.6,30.3"/>
</g>
</svg>
