<?xml version="1.0" encoding="utf-8"?>
<!-- Generator: Adobe Illustrator 19.0.0, SVG Export Plug-In . SVG Version: 6.00 Build 0)  -->
<svg version="1.1" id="Layer_1" xmlns="http://www.w3.org/2000/svg" xmlns:xlink="http://www.w3.org/1999/xlink" x="0px" y="0px"
	 width="38.1px" height="83.4px" viewBox="0 0 38.1 83.4" style="enable-background:new 0 0 38.1 83.4;" xml:space="preserve">
<style type="text/css">
	.st0{fill:#FFFFFF;}
</style>
<g>
	<path class="st0" d="M10.8,74.1c0.3,0.1,0.5,0.1,0.5,0.1S11.1,74.2,10.8,74.1c-0.3-0.1-0.7-0.3-1.3-0.5c-1.1-0.5-2.5-1.5-3.7-3.2
		c-2.5-3.4-4-9.2-3.5-16.3c0.1-1.8,0.4-3.6,1-5.4c0.3-0.9,0.6-1.8,1-2.7c0.5-0.9,1-1.9,1.5-2.8c2.1-3.8,4.5-7.9,6.9-12.3
		c2.1-3.7,4.2-7.7,5.9-12c-2.7,9.9-9.7,18.4-12.9,28.2c-1,3.1-1.5,6.4-1.4,9.7c0,0.2,0.3,0.2,0.3,0c-0.4-12.3,8.2-22.3,12.7-33.2
		c0.9-2.2,1.6-4.4,2.1-6.7c0,0,0-0.1,0-0.1c0.2-0.7,0.4-1.3,0.6-2c0.2-0.7,0.3-1.4,0.5-2.1l0.1-0.5l0.1-0.4l0-0.3
		c-0.2,6-2.7,11.3-4.6,16.9c-2.3,4-4.4,8.1-6.2,12.3c0,0,0,0,0,0c-0.1,0.2-0.2,0.4-0.3,0.6c-1,1.9-1.9,3.8-2.5,5.8
		c-0.5,1.6-1,3.5-0.4,5.1c0.1,0.3,0.7,0.2,0.5-0.1c-0.6-1.7,0-3.7,0.5-5.3c0.7-2,1.6-3.9,2.6-5.8c0.8-1.5,1.6-3,2.5-4.5
		c1.3-2.1,2.8-4,4.5-5.9c-1.3,2.1-3.2,4-4.4,6.1c-2.1,3.6-3.8,7.4-5.5,11.3c-0.1,0.3,0.3,0.6,0.5,0.3c1.7-4,3.5-8,5.7-11.7
		c1.1-1.8,2.6-3.5,3.8-5.3c0.1,0.1,0.1,0.1,0.2,0.1c-0.7,2.5-1.5,4.9-2.3,7.3c-0.1,0.2,0.2,0.2,0.3,0.1c0.9-2.6,1.7-5.2,2.4-7.8
		c0.5-0.6,0.9-1.3,1.2-2c0.1-0.1,0.1-0.2,0.2-0.3c-0.1,0.4-0.2,0.8-0.2,1.1c-0.3,1.7-0.6,3.4-0.5,5.2c-0.2,0.4-0.3,0.8-0.5,1.2
		c-0.1,0.2,0.2,0.3,0.2,0.1c0.1-0.2,0.2-0.4,0.3-0.7c0,0,0,0,0,0c0,0.2,0.3,0.2,0.3,0c0-0.2,0-0.4,0-0.6c0.8-2,1.4-4.2,1.9-6.3
		c0.1-0.5,0.3-0.9,0.4-1.4c0.1,0,0.3-0.1,0.3-0.3c0-0.3,0.1-0.7,0.1-1c0.1-0.3,0.2-0.5,0.3-0.8c0.1-0.2,0-0.3-0.2-0.3
		c0.1-1.2,0.3-2.4,0.8-3.6c0,0.1,0.1,0.2,0.1,0.3c-0.2,0.5-0.3,1-0.3,1.5c-0.2,1.1-0.4,2.3-0.5,3.4c-0.2,0.7-0.4,1.5-0.5,2.2
		c0,0.2,0.1,0.3,0.2,0.3c-0.3,2.3-0.6,4.5-1.6,6.7c-0.1,0.2,0.2,0.3,0.2,0.1c1-2.2,1.3-4.6,1.6-6.9c0,0,0,0,0-0.1
		c0.3-1.3,0.6-2.7,1.1-3.9c-0.5,3.5-0.8,7.1-1,10.6c0,0.2,0.3,0.2,0.3,0c0.3-3.7,0.6-7.4,1.1-11c0-0.1,0-0.1-0.1-0.1
		c0-0.1,0.1-0.1,0.1-0.2c0.1-0.3-0.2-0.5-0.4-0.4c0-0.1,0.1-0.1,0-0.2c-0.1-0.3-0.1-0.7,0-1c0.2,0.4,0.3,0.9,0.5,1.3
		c0,0.3,0.1,0.6,0.1,0.9c0,0.1,0.1,0.2,0.1,0.2c0.1,2,0.2,4,0.5,6c0,1,0,2-0.1,3c0,0.2,0.3,0.2,0.3,0c0-0.5,0-1,0-1.5
		c0.1,0.7,0.3,1.4,0.5,2.1c0.1,0.2,0.3,0.1,0.3-0.1c-0.3-1.1-0.6-2.3-0.8-3.5c0-1.6,0-3.3-0.2-4.9c0.3,0.7,0.5,1.4,0.8,2
		c0.3,1.4,0.6,2.8,1.1,4.2c0.3,2.3,0.5,4.6,0.5,6.9c0,0.2,0.3,0.2,0.3,0c0-1.9-0.2-3.8-0.4-5.7c0,0.1,0.1,0.2,0.1,0.2
		c0.1,0.2,0.3,0.1,0.3-0.1c-0.2-0.4-0.4-0.9-0.5-1.4c-0.1-0.4-0.1-0.8-0.2-1.2c0.5,1.2,1,2.5,1.3,3.8c1,4.8,1.2,9.7,1.2,14.6
		c0,0.4,0.6,0.4,0.6,0c0-4.3-0.2-8.7-0.9-13c-0.4-2.2-1-4-1.8-6.1c0.1,0.1,0.3,0.1,0.4-0.1c0.6,2.3,1.2,4.6,1.7,6.9
		c0.5,2.5,0.5,5.1,0.6,7.7c0.1,2.7,0.2,5.3,0.1,8c0,0.2,0.3,0.2,0.3,0c0.2-2.6,0.1-5.2-0.1-7.8c-0.1-2.5-0.1-5-0.6-7.5
		c0-0.1,0-0.1,0-0.2c0.1,0,0.2-0.1,0.3-0.3c0.1-1.4,0-2.7-0.2-4c0.9,3.8,1.6,7.7,1.5,11.6c0,0.2,0.3,0.2,0.3,0
		c0.2-4.6-0.8-9.1-1.9-13.5c0.1,0.3,0.2,0.6,0.4,0.9c0.7,3.3,1.3,6.6,1.7,9.8c0,0.1,0.1,0.2,0.2,0.2c0,0,0,0.1,0,0.1
		c0,2.8,0,5.6,0,8.3c0,0.2,0.3,0.2,0.3,0c0-2.4,0-4.8,0.1-7.1c0-0.5,0-0.9,0-1.4c0.1-0.1,0.1-0.1,0.1-0.2c0-0.2-0.1-0.4-0.1-0.6
		c0-1,0-2.1-0.2-3.1c-0.3-1.6-0.7-3.2-1.1-4.8c0-0.2-0.1-0.3-0.1-0.5c0.1-0.1,0.1-0.1,0.1-0.3c-0.1-0.2-0.2-0.4-0.2-0.6
		c-0.2-0.8-0.3-1.5-0.5-2.3c0,0,0-0.1,0-0.1c-0.1-0.7-0.3-1.7-0.2-2.5c0,0.1,0.1,0.2,0.1,0.3c1.5,7.1,3.5,14.1,3.3,21.4
		c-0.1,2.5-0.3,4.9-0.5,7.4c0,0.2,0.3,0.2,0.3,0c0.4-4.4,0.8-8.8,0.3-13.3c-0.5-4.3-1.5-8.5-2.5-12.7c-0.1-0.4-0.2-0.8-0.3-1.2
		c0.5,1.4,1.1,2.7,1.6,4.1c0.1,0.3,0.7,0.2,0.5-0.1c-0.8-2.3-1.8-4.6-2.7-6.8c0.1-0.2,0.1-0.3,0.2-0.4c0.1-0.2-0.1-0.3-0.2-0.1
		c0,0.1-0.1,0.1-0.1,0.2c-0.1-0.7-0.3-1.4-0.4-2.1c0.9,1.8,1.6,3.7,2.3,5.5c0.7,2.4,1.5,4.8,2,7.3c0.5,2.5,0.6,5.1,0.7,7.6
		c0.1,2.6,0,5.1-0.2,7.6c0,0.2,0.3,0.2,0.3,0c0.2-2.5,0.3-5.1,0.2-7.6c-0.1-2.4-0.2-4.8-0.6-7.2c-0.1-0.4-0.2-0.8-0.3-1.2
		c0.9,3.5,1.5,6.9,1.8,10.1c0.3,4.2,0,8-0.8,11.5c-1.6,7-5.4,12-8.4,15.1c-1.5,1.5-2.8,2.7-3.7,3.4c-0.9,0.7-1.4,1.1-1.4,1.1
		s0.5-0.3,1.5-1c1-0.6,2.4-1.6,4.1-3.1c3.3-2.9,7.8-7.8,10-15c1.1-3.6,1.8-7.7,1.7-12.1c-0.1-4.4-0.7-9.1-2.1-13.8
		c-1.3-4.8-3.3-9.7-5.7-14.5c-1.2-2.4-2.6-4.9-4.1-7.3C21.9,3.8,19.3,0.9,17.7,0c1.4,5.6,0.1,11.5-2.7,16.5c-1.5,4.5-3.7,8.9-5.8,13
		c-2.2,4.4-4.4,8.6-6.2,12.6c-0.5,1-0.9,2-1.4,3c-0.5,1.1-0.8,2.1-1,3.1C0.1,50.2,0,51,0,52.9c0,7.4,2.3,14.6,5.2,17.9
		c1.5,1.7,3.1,2.6,4.2,3C10,74,10.5,74.1,10.8,74.1"/>
	<path class="st0" d="M17.5,29.6c-1.6,1.6-3,3.3-4.3,5.2c0.7-1.3,1.3-2.6,2-3.8c0,0.2,0.3,0.4,0.5,0.2c0.6-0.7,1.1-1.4,1.6-2.1
		c0.1-0.1,0.1-0.2,0.2-0.3c0,0.2-0.1,0.4-0.1,0.6C17.4,29.4,17.4,29.5,17.5,29.6C17.5,29.5,17.5,29.5,17.5,29.6"/>
	<path class="st0" d="M17,28.1c-0.5,0.8-1,1.6-1.5,2.3c0.2-0.4,0.5-0.9,0.7-1.3c0.1,0,0.2-0.1,0.2-0.2c0.1-0.2,0.1-0.3,0.2-0.5
		c0.3-0.5,0.6-1,0.9-1.6C17.4,27.4,17.2,27.8,17,28.1"/>
	<path class="st0" d="M18.8,28.7C18.8,28.7,18.8,28.7,18.8,28.7c0.1-0.2,0.1-0.5,0.2-0.8c0,0,0-0.1,0-0.1c0.2-0.7,0.4-1.4,0.7-2.1
		c0.1-0.2,0.1-0.3,0.2-0.5C19.6,26.4,19.3,27.6,18.8,28.7"/>
	<path class="st0" d="M19,34.3c0-1.5,0.3-3.1,0.6-4.6c0.1-0.6,0.2-1.2,0.4-1.7c0.1-0.2,0.3-0.4,0.4-0.7c-0.1,0.8-0.2,1.7-0.3,2.5
		c0,0.2,0.1,0.3,0.3,0.3C19.9,31.5,19.5,33,19,34.3"/>
	<path class="st0" d="M20.4,21.8c0,0.1-0.1,0.2-0.1,0.4c0,0-0.1,0-0.1,0c0.1-0.3,0.2-0.6,0.3-0.9C20.5,21.4,20.4,21.6,20.4,21.8"/>
	<path class="st0" d="M18.7,24c-0.4,0.6-0.8,1.3-1.2,1.9c1.1-3,2.3-6.1,3-9.2C20.2,19.2,19.6,21.7,18.7,24"/>
	<path class="st0" d="M21.1,26.4c-0.1,0.2-0.1,0.3-0.2,0.5c0-0.3,0.1-0.7,0.1-1c0.1-0.1,0.1-0.3,0.2-0.4
		C21.1,25.8,21.1,26.1,21.1,26.4"/>
	<path class="st0" d="M20.7,23.9C20.7,23.9,20.7,24,20.7,23.9c-0.1,0.2-0.2,0.3-0.2,0.5c0.1-0.8,0.2-1.6,0.4-2.3
		c0.2-0.5,0.4-1,0.6-1.6c0,0.1,0,0.2,0,0.4C21.2,21.9,20.9,22.9,20.7,23.9"/>
	<path class="st0" d="M21.4,20c0.1-0.7,0.2-1.4,0.3-2.1c0,0,0-0.1,0-0.1c0-0.1,0.1-0.3,0.1-0.4c0.1,0.1,0.3,0.3,0.4,0.4
		c-0.1,0.2-0.1,0.3-0.1,0.5C21.8,18.9,21.6,19.5,21.4,20"/>
	<path class="st0" d="M21.8,20.1c0,0.1-0.1,0.2-0.1,0.2c0,0-0.1,0-0.1,0c0.2-0.4,0.3-0.8,0.5-1.2c0,0.3,0.1,0.6,0.2,0.9
		C22.1,19.9,21.8,19.9,21.8,20.1"/>
	<path class="st0" d="M21.9,16.9c0.1-0.3,0.2-0.7,0.2-1c0.2,0.4,0.3,0.9,0.5,1.3c-0.1,0.1-0.1,0.2-0.2,0.3
		C22.3,17.2,22.1,17,21.9,16.9"/>
	<path class="st0" d="M23,24c-0.2,0.4-0.4,0.8-0.5,1.2c0.1-0.4,0.1-0.8,0.2-1.2C22.7,24.1,22.9,24.1,23,24C23,24,23,24,23,24"/>
	<path class="st0" d="M22.8,19.8c-0.1-0.3-0.2-0.6-0.2-0.9c0.1,0.3,0.3,0.7,0.5,1C23,19.9,22.9,19.8,22.8,19.8"/>
	<path class="st0" d="M22.7,17.7c0-0.1,0.1-0.1,0.1-0.2c0.1,0.2,0.1,0.3,0.2,0.5c0.1,0.3,0.7,0.2,0.5-0.1c-0.1-0.3-0.3-0.7-0.4-1
		c0,0,0-0.1,0.1-0.1c0.1-0.1-0.1-0.2-0.2-0.2c-0.2-0.6-0.4-1.2-0.6-1.8c0-0.1,0-0.2,0-0.2c0.4,1,0.9,2.1,1.3,3.1c0,0,0,0,0,0.1
		c0,0,0,0,0,0c0.4,1,0.8,2,1.1,3.1c0,0.2,0.3,0.1,0.3-0.1v0c0.2,0.4,0.3,0.8,0.5,1.2c0.3,1,0.5,2,0.7,3c0,0.1,0,0.2,0,0.4
		c-0.1-0.2-0.2-0.4-0.3-0.7c-0.3-1-0.7-1.9-1.1-2.9C24.3,20.3,23.6,18.9,22.7,17.7"/>
	<path class="st0" d="M23.1,15.5c0.3,0.5,0.6,1.1,0.8,1.7c0,0-0.1,0-0.1,0C23.6,16.7,23.4,16.1,23.1,15.5"/>
	<path class="st0" d="M26.1,21.8c0-0.2-0.1-0.3-0.1-0.5c0.4,0.9,0.7,1.8,1,2.7c0,0.2,0.1,0.3,0.1,0.5C26.8,23.7,26.5,22.8,26.1,21.8
		"/>
	<path class="st0" d="M28.2,29.4c0.1,0.5,0.3,1.1,0.4,1.6c-0.4-1.3-0.9-2.6-1.5-3.9c-0.1-0.5-0.1-1-0.2-1.4
		C27.3,26.9,27.8,28.2,28.2,29.4"/>
	<path class="st0" d="M24.6,24.1c-0.1-0.2-0.3-0.2-0.5-0.1c0,0,0,0,0-0.1c0-0.2-0.1-0.4-0.1-0.5c0,0,0,0.1,0,0.1
		c0.1,0.3,0.6,0.2,0.5-0.1c-0.1-0.3-0.2-0.5-0.3-0.8c0.2,0.4,0.3,0.7,0.5,1.1c0.1,0.7,0.3,1.5,0.4,2.2C25,25.2,24.8,24.6,24.6,24.1"
		/>
	<path class="st0" d="M25.7,27.2c-0.2-0.9-0.3-1.8-0.5-2.8c0,0.1,0.1,0.1,0.1,0.2c0.5,1.4,0.9,2.9,1.3,4.4c0,0.1,0.1,0.2,0.2,0.2
		c0.1,0.3,0.1,0.6,0.2,0.8C26.5,29.1,26.1,28.2,25.7,27.2"/>
	<path class="st0" d="M27.1,29.1c0.1-0.1,0.1-0.1,0.1-0.3c-0.1-0.2-0.1-0.4-0.2-0.7c1.1,2.6,1.9,5.3,1.9,8.1
		C28.4,33.9,27.6,31.6,27.1,29.1"/>
	<path class="st0" d="M28.9,27c-0.1,0.4-0.1,0.8,0,1.2c-0.5-1.9-1.1-3.8-1.8-5.7c0,0,0,0,0,0C27.7,24,28.3,25.5,28.9,27"/>
	<path class="st0" d="M26.4,19.2c0.7,1.4,1.4,2.8,2.1,4.2c0,0-0.1,0.1-0.1,0.1c0.1,0.5,0.2,1,0.3,1.5c-0.9-2.2-1.8-4.3-2.7-6.5
		C26.1,18.7,26.2,19,26.4,19.2"/>
	<path class="st0" d="M24.5,15.8c-0.1,0.1-0.1,0.1,0,0.2c0.4,1.1,0.9,2.2,1.3,3.2c-0.6-1.4-1.3-2.7-2.1-4c-0.2-0.4-0.4-0.8-0.6-1.1
		c0.1,0,0.1-0.1,0.1-0.2c-0.3-0.3-0.4-0.7-0.5-1.1C23.3,13.8,23.9,14.8,24.5,15.8"/>
	<path class="st0" d="M21.3,10.8l1,1.5c0,0,0.1,0.1,0.1,0.1c0,0,0,0,0,0c0,0.4,0.1,0.8,0.2,1.1c-0.2-0.3-0.4-0.7-0.7-1
		c-0.1-0.3-0.2-0.7-0.4-1c0-0.1-0.1-0.1-0.1-0.1c0-0.1-0.1-0.2-0.1-0.4C21.3,11,21.3,10.9,21.3,10.8"/>
	<path class="st0" d="M21.3,13.4c0.1,0.4,0.3,0.9,0.4,1.3c-0.1,0.6-0.2,1.2-0.3,1.7c-0.3-0.1-0.5,0.3-0.2,0.5c0,0,0.1,0,0.1,0.1
		c-0.2,0.7-0.4,1.3-0.6,2C21.1,17.2,21.3,15.3,21.3,13.4"/>
	<path class="st0" d="M19.1,83.3c-0.2,0-0.6-1.6-0.8-2.6c-0.1-1,0.1-1,0-1.8c-0.1-0.9,0.6-1.6,0.8-2.5c0.5-1.8,0.8-4.1,1.1-6.7
		c0.5-5.2,0.7-9.6-0.9-10c-1.6-0.4-4.5,3.8-5.1,9.6c0,0.1,0.3-1.4,0,0.3c-0.3,1.6,0.1,3.4,0.4,4.7c0.3,1.3,1.1,2.3,1.1,2.3
		c0.2,1.4-0.1,2.3-0.3,3.4c-0.2,1.1-0.3,3.7-0.3,3.4"/>
</g>
</svg>
