<?xml version="1.0" encoding="utf-8"?>
<!-- Generator: Adobe Illustrator 19.0.0, SVG Export Plug-In . SVG Version: 6.00 Build 0)  -->
<svg version="1.1" id="Layer_1" xmlns="http://www.w3.org/2000/svg" xmlns:xlink="http://www.w3.org/1999/xlink" x="0px" y="0px"
	 width="76.9px" height="130.5px" viewBox="0 0 76.9 130.5" style="enable-background:new 0 0 76.9 130.5;" xml:space="preserve">
<style type="text/css">
	.st0{fill:#FFFFFF;}
</style>
<g>
	<g>
		<path class="st0" d="M41.1,5.6c11.9,2.6,20.2,8.9,26.5,17.2c-1.1-0.4-1.7-1.6-2.5-2.5c-0.8-0.9-1.7-1.8-2.4-2.8
			C56.9,12.3,50.3,7.9,41.2,6C41.2,5.9,41.1,5.8,41.1,5.6"/>
		<path class="st0" d="M30.8,6.2H31c0.2,1-1.4,0.5-2.2,0.6C20.1,8,13.6,13.7,10,20.2c-1.4,2.5-3.1,4.9-3.7,7.7
			c-1,5-2.5,11.1-0.9,16.9c2.1,7.6,5.8,14,9.3,19.9c-1.3-1.2-2.2-2.9-3.1-4.4c-1-1.6-1.8-3.3-2.6-4.9c-1.7-3.4-3.1-7-4.2-10.9
			c-0.8-5-0.6-10.2,0.6-14.6C8.6,17.6,16.8,7.5,30.6,6.4C30.7,6.4,30.7,6.2,30.8,6.2"/>
		<path class="st0" d="M65.5,22.5C62.3,18.2,58,14.9,53,12.2c-1.6-0.9-3.2-2-4.9-2.7c-2.1-0.8-4.3-1-6.4-1.9V7.4
			c0.1,0,0.1-0.1,0.2-0.1c4.8,1.1,8.4,2.9,12.3,5c1.8,1,4,2.4,5.7,3.7C62.2,17.7,64.2,20,65.5,22.5"/>
		<path class="st0" d="M43.8,8.9c8.7,2.6,15.6,7,20.3,13.7c-2.8-2.8-5.5-5.7-8.8-8c-3.3-2.3-7.2-3.9-11.4-5.3
			C43.9,9.1,43.8,9.1,43.8,8.9"/>
		<path class="st0" d="M27.9,9.1c-0.3,0.9-1.5,0.7-2.2,0.8c-2.8,0.3-4.7,1.3-6.7,2.4c-3.9,2.3-7.4,6.5-9.6,11.1
			c-0.6,1.2-1,2.7-1.4,4.1c-0.5,1.4-1.1,2.8-1.3,4.1c-0.5,2.3-0.1,4.7-0.6,6.8c-0.9-4.5,0.8-9,2.1-12.8c0.6-1.9,1.7-3.8,2.7-5.3
			c2.2-3.3,4.7-6.3,7.7-8.2c0.6-0.4,1.5-0.7,2.2-1.1c1.7-1,3.9-1.8,6.7-1.8C27.5,9.1,27.7,8.9,27.9,9.1"/>
		<path class="st0" d="M25.7,10.7c0.1,0.7-1.2,0.6-2.1,0.7c-1.3,0.2-2.9,1.3-4,2.1c-1.6,1.1-3.4,2.2-4.6,3.4c-2.1,2.1-3.8,5.6-5.4,9
			c-0.9,1.8-1.6,3-2,5.2c-0.2,1,0.1,2-0.4,3c-0.7-0.6,0.2-1.7-0.2-2.5c0.2-2.1,1.3-3.9,2.2-5.8c2.4-5.6,5.2-9.4,10.1-12.6
			c0.9-0.6,2-1.4,3-1.8C23.2,11,24.7,11.2,25.7,10.7L25.7,10.7z"/>
		<path class="st0" d="M44.9,10.9c4.8,1.2,9,3.7,12.3,6.6c2,1.8,4,3.7,5.2,6c-0.8-0.2-1-1.1-1.4-1.6c-2-2.5-4.6-4.8-7.5-6.6
			c-1.1-0.7-2.2-1.5-3.2-2c-1.6-0.7-3.3-1.3-5.2-2C45.1,11.1,44.9,11.1,44.9,10.9"/>
		<path class="st0" d="M58.1,24.7c-2.2-2.1-4.1-4.8-7-6.5c-5.9-3.4-15.7-5.5-23.1-3.3c2.1-1.2,4.6-1.4,7.8-1.3
			C45.9,14.1,53.9,18.2,58.1,24.7"/>
		<path class="st0" d="M56.9,25.3c-2-2-4-4.2-6.8-5.8C45.5,17,40,15.3,33.1,16C43.2,14.1,52.9,19,56.9,25.3"/>
		<path class="st0" d="M48.4,21.3c3,1.3,6,3.6,6.6,7C53.8,25,51.1,23.2,48.4,21.3"/>
		<path class="st0" d="M17.7,21.9c-4.3,4.3-8.4,12.2-6.6,21.7c0.1,0.4,0.4,0.7,0.4,1.1c0.7,2.6,1.2,5.2,2.2,7.5c1,2.4,2,4.5,3.1,6.6
			c-2.8-3-4.3-8.4-5.7-13.8C10,40.8,10,34.7,11.7,30.6c0.6-1.5,1.4-3.2,2.3-4.7C15,24.3,16.5,22.4,17.7,21.9L17.7,21.9z"/>
		<path class="st0" d="M15.5,27.2c0.1,0,0.2,0,0.2,0.1c-0.9,1.9-2,3.6-2.8,5.7c-1.8,4.9-1,10.4,0.4,15.2c1.1,3.7,3.3,6.7,4.5,9.3
			c-0.8-0.3-1.1-1.3-1.5-2.1c-1.4-2.3-3-4.9-3.8-8.4c-1-4.6-1.9-9.1-0.2-13.7C13.3,31.1,14.2,28.9,15.5,27.2"/>
		<path class="st0" d="M71.3,34.5c0.1,0,0.2,0.1,0.3,0.1c1.1,8.2-1.3,16-4.8,21.7c-0.9,1.5-1.8,3.1-2.6,4.6c-2.9,5.1-6.8,8.9-7.5,16
			c-0.5,4.3,0,10.5-2.7,13.7c-0.6,0.6-1.5,0.8-2.8,1.2c-0.7,0.2-1.6,1-1.9,0.1c1-0.2,1.9-0.3,2.9-0.6c3.3-1.1,3.4-6.1,3.7-10.1
			c-0.4,1.8-0.8,3.9-1.6,5.8c0.1-2.1,1-3.9,1.2-6.1c0.2-2-0.2-4,0.1-5.8c0.5-2.7,1.6-5.6,2.8-7.6c0.4-0.6,1-1.2,1.4-1.8
			c0.5-0.7,0.7-1.5,1.1-2.2c1.6-2.8,4-5.3,5.4-8.4c1.1-2.3,2.1-4.7,3-7.4c0.4-1.3,1-2.4,1.1-3.7c0.2-2-0.2-3.7,0.4-5.7
			c0.6,0.9,0.1,2.3,0.1,3.5c0,1.7,0,3.3-0.4,4.6c-1.3,3.2-2.4,6.4-3.9,9.3c-1.4,2.9-3.6,5.3-5.2,7.9c-0.1,0.7-0.6,0.9-0.6,1.6
			c-3.1,3.6-5,8.4-4.7,15.1c0.6-4,0.9-7.6,2.3-10.8c0.9-2,2.5-4,3.8-5.8c1.4-2,2.2-4.2,3.4-6.1c1.4-2.2,2.9-4.3,3.7-7
			c0.8-2.6,1.9-5.3,2.2-8.4c0.3-2.3-0.3-5.4-0.1-7.5C71.2,34.7,71.3,34.6,71.3,34.5"/>
		<path class="st0" d="M13.9,34.9c0.1,0,0.2,0.1,0.3,0.1c-1.6,5.5-0.1,12.4,2.4,16.4C13.4,48.2,12.1,40.4,13.9,34.9"/>
		<path class="st0" d="M63.2,54.7c0.1,0,0.2,0.1,0.2,0.2c-0.9,2.6-2.3,5.1-3.8,7.6c-1.4,2.4-3.2,4.8-4.2,7.2
			c-1.2,2.9-0.8,6.4-1,10.2c-0.1,2.2,0.2,4.4-0.7,6.3c1.1-5.9-0.7-11.8,1.3-16.4c1.1-2.5,2.8-4.9,4.2-7.3
			C60.6,59.9,62,57.4,63.2,54.7"/>
		<path class="st0" d="M20.3,58.7c1,1.8,2.3,5,3.5,7.5c0.6,1.3,1.4,2.2,1.5,3.8c0.6,6.9,0.1,14.4,2,20.5c-1.9-2.3-1.6-5.9-1.9-9.7
			c-0.2-3-0.4-5.8-0.5-8.9c0-0.9,0.1-1.8-0.1-2.7c-0.5-2.1-1.9-3.9-2.8-5.8C21.3,61.9,20.8,60.3,20.3,58.7"/>
		<path class="st0" d="M59.5,59.7c0.1,0,0.2,0,0.2,0.1c-1.2,4.3-5.3,7.6-6.4,12c-0.6,2.6,0.1,5.7-0.9,8.6c0.1-2.3,0.1-4.3,0.2-6.2
			c0.2-3.2,1.6-5.3,3-7.6C56.9,64.2,58.3,62,59.5,59.7"/>
		<path class="st0" d="M18.8,61.8H19c0.3,0.6,0.6,1.2,0.7,2C19.2,63.3,19.1,62.4,18.8,61.8"/>
		<path class="st0" d="M40.5,62.5c0.4,0.1,0,0.6,0.1,0.9C40.4,63.2,40.6,62.7,40.5,62.5"/>
		<path class="st0" d="M21.6,69.2c0.1,0,0.2,0.1,0.3,0.1c0.2,0.9,0.8,1.5,1.2,2.2c0.9,1.9,0.7,4.2,0.9,6.6c0.2,2.8,0.2,5.9,0.5,8.5
			c0.2,1.7,1.3,3,1.3,4.6c-1.2-1.8-1.8-3.9-2-6.9c-0.2-3.5-0.2-7.5-0.5-10.6C23.1,71.9,21.9,71.1,21.6,69.2"/>
		<path class="st0" d="M26.8,73.2c0.1,0,0.2,0,0.2,0.1c0.2,3.4,0.6,6.9,0.9,9.7c0.3,2.8-0.3,5.8,1.5,7.4c-2.3-1-1.7-3.9-2-7.1
			C27.2,80,26.6,75.9,26.8,73.2"/>
		<path class="st0" d="M38.7,75.1c0.4,5.8,0.6,12.9,0.4,19.4c-0.7-1.7-0.3-3.5-0.4-5.3c-0.1-4.4-0.2-8.9-0.4-13.8
			c0-0.1,0.1-0.1,0.1-0.3H38.7z"/>
		<path class="st0" d="M37.8,75.2c0.5,0.8,0.2,2.4,0.3,3.9c0.3,5.1,0.4,10.9,0.4,15.5c-0.5-0.7-0.2-1.7-0.3-2.5
			c-0.2-5.5-0.5-10.8-0.7-16.5c0-0.1,0.1-0.2,0.1-0.3H37.8z"/>
		<path class="st0" d="M50.9,76.4c0.1,0,0.2,0,0.2,0.1c0.6,1.7,0.2,3.6,0.3,5.4c0.1,2.7,1,5.3-0.1,7.7C51.4,85.5,51,80.5,50.9,76.4"
			/>
		<path class="st0" d="M57.6,31.4c-0.7-1.5-1.1-3.2-1.9-4.6c-2.4-3.7-5.9-6.3-10-8.4c-0.3-0.1,0.4,0,0.6,0.1
			c2.6,0.8,6.1,3.6,7.8,5.5C56,26,57.2,28.7,57.6,31.4"/>
		<path class="st0" d="M30.9,124.5c-0.3-1.3-0.9-2.3-1.5-3.3C29.7,122.4,30.3,123.4,30.9,124.5 M30.3,124.5c-0.4-1.3-1-2.4-1.7-3.3
			C29,122.4,29.6,123.4,30.3,124.5 M31.8,124.5c-0.3-1.3-0.8-2.5-1.4-3.4h-0.3C30.6,122.2,30.7,123.8,31.8,124.5 M28.6,122.4
			c-0.2-0.5-0.5-1-0.8-1.3C27.9,121.6,28.2,122,28.6,122.4 M29.2,124.4c-0.5-1.3-1.5-2.1-2.1-3.3h-0.9
			C27,122.4,28.2,123.3,29.2,124.4 M36.7,121c-0.2-0.2-0.6,0.1-1.1,0c0.2,1.2,0.4,2.4,0.8,3.4c0.3-0.1,0.4,0.1,0.6,0.1
			C37.2,123.6,36.8,122.2,36.7,121 M35.8,124.5c-0.1-1-0.6-2.5-1-3.5h-0.4C34.9,122.1,34.6,124.1,35.8,124.5 M34.7,124.5
			c0.2-1.1-0.8-2.3-0.6-3.4c-0.3,0-0.4-0.2-0.7-0.1C33.9,122,33.5,124,34.7,124.5 M33.8,124.3c-0.3-1.1-0.7-2.1-0.9-3.3h-0.3
			C32.6,122.1,33,124,33.8,124.3 M31.1,121c0.7,1.1,0.5,3.1,1.9,3.4c-0.3-1.2-0.7-2.4-1.2-3.5C31.5,121,31.2,120.9,31.1,121
			 M37.1,121c0,1.2,0.5,2.1,0.4,3.5h1.1c0.2-1.4-0.2-2.6-0.1-3.7C37.9,120.7,37.6,121,37.1,121 M38.9,120.8c0.2,1.1,0.1,2.4,0.1,3.6
			c0.3,0.1,0.6,0,1,0.1c0.3-1.1,0.5-2.8,0.6-3.9C40,120.6,39.5,120.8,38.9,120.8 M40.5,124.4c1.8-0.1,1.5-2.4,1.9-3.9
			C40.6,120,40.8,123,40.5,124.4 M43,120.4c-0.3,1.4-0.8,2.5-1.1,3.9c0.4-0.2,0.9,0.1,1.4,0c0.3-1.3,0.9-2.5,1.2-3.9H43z
			 M45.3,120.3c-0.6,1.2-1.1,2.5-1.4,4c0.5-0.1,0.9,0.1,1.3-0.1c0.3-1.4,1-2.4,1.3-3.9H45.3z M47.1,120.2c-0.4,1.4-1.1,2.5-1.5,4
			c1.2-0.8,1.5-2.5,2.2-3.9C47.6,120.2,47.3,120.2,47.1,120.2 M46.5,124.2c0.7-0.2,1-1.1,1.3-1.7c0.4-0.7,0.7-1.4,0.9-2.2
			c0-0.1-0.1-0.1-0.2-0.2C47.8,121.5,46.8,122.9,46.5,124.2 M47.3,124.1c0.9-0.1,1-1.2,1.3-1.9c0.4-0.7,0.9-1.4,1.1-2.2h-0.5
			C49,121.5,47.8,122.7,47.3,124.1 M50.5,119.9c-1,1.3-1.6,2.8-2.4,4.2c0.3-0.1,0.4,0.1,0.5,0.2c0.7-1,1.4-2.1,1.9-3.3
			c-0.1,0-0.3,0-0.3-0.1c0.2-0.4,0.7-0.4,0.7-1H50.5z M50,122.9c0.9-1.1,1.9-1.9,2.7-3.1c-0.6,0.1-0.7,0-1.2-0.1
			C51.3,121,50.2,121.9,50,122.9 M45.1,119.1c-7.2,0.6-14,1-20.9,0.8c0.4,0.7,1.2,0.7,1.8,0.7c2.2,0.2,4.8-0.1,7.1-0.1
			c6.3,0.1,14.4-0.9,20.3-1.2c0.1-0.3,0.5-0.5,0.4-0.8C51.4,118.5,47.9,118.8,45.1,119.1 M23.9,117.8c0,0.4,0.6,0.4,0.9,0.3
			C24.7,117.5,24.4,117.9,23.9,117.8 M26.4,117.9c0.1,0.2,0.6,0,0.7-0.1C27,117.6,26.5,117.6,26.4,117.9 M27.5,117.9
			c0.9,0,1.7-0.1,2.4-0.3C28.9,117.6,28.1,117.4,27.5,117.9 M33.4,117.5c0.2,0.1,0.6,0.1,0.6-0.2C33.8,117.4,33.4,117.3,33.4,117.5
			 M35.1,117.4c1.6-0.1,3.6,0.2,5.1-0.4C38.6,117.2,36.6,117,35.1,117.4 M52.2,116.8c-2.4,0.2-4.9,0.4-7.6,0.5
			c-6.3,0.4-11.4,0.7-16.9,1c-0.2,0-2.2,0.1-2.8,0.3c-1,0.3-0.8,0-0.7,0.4c0,0.5,3,0.4,3.5,0.5c9.6,0.1,17.9-1,26.1-1.7
			C53.4,117,53,116.8,52.2,116.8 M44.7,116.9C45.7,116.9,45.2,116.5,44.7,116.9 M43.1,117c0.4-0.1,1,0.2,1.1-0.2
			C44,116.7,43.2,116.7,43.1,117 M52.6,116.4c0.3,0.1,0.3-0.4,0-0.4C52.7,116.3,52.5,116.2,52.6,116.4 M24.4,117.3
			c0.1-0.4,0.1-1,0.3-1.4C24,115.2,23.3,117.2,24.4,117.3 M26,117.3h0.4c0.2-0.4-0.1-1.1,0.1-1.6C25.8,115.6,25.8,116.7,26,117.3
			 M28,117.1c0.4,0.2,0.6,0,1,0.1c0.1-0.3-0.4-1-0.1-1.5C28.1,115.3,27.7,116.4,28,117.1 M24.9,117.2c0.1,0.1,0.6,0.2,0.6,0
			c-0.3-0.5,0-1.3,0.2-1.6C25,115.7,25,116.5,24.9,117.2 M29.6,117.1h1c-0.3-0.7,0.2-1.3,0.5-1.6C29.9,115.4,28.7,116,29.6,117.1
			 M37.6,116.7c0.8,0,1.7-0.1,2.2-0.2c-0.1-0.3,0-0.9-0.2-1.2c-0.6,0.1-1.1,0-1.9,0C37.7,115.9,37.1,116.2,37.6,116.7 M34.4,116.9
			c0.9-0.1,1.9-0.1,2.7-0.3c-0.3-0.2-0.2-0.9-0.1-1.3c-0.6,0.1-0.9,0.1-1.4,0C35.4,116.1,34.3,115.9,34.4,116.9 M32.7,116.9h1.2
			c0.1-0.5,0.3-1,0.4-1.4C33.2,115.2,32.4,115.8,32.7,116.9 M31.1,117.1c0.3-0.2,0.8,0,1.1-0.2c-0.2-0.6,0-1.1,0.3-1.5h-0.7
			C31.5,115.9,30.4,116.3,31.1,117.1 M27,117.2h0.5c-0.2-0.7,0-1.3,0.3-1.8C26.9,115.3,26.6,116.5,27,117.2 M50.7,115.8
			c0.2-0.2,0-0.5-0.2-0.5C50.5,115.5,50.4,115.8,50.7,115.8 M40.3,115.6c-0.1,0.4,0,0.7,0.2,1c0.7,0,1.4-0.1,2.1-0.2
			c0.2-0.3,0-0.9-0.2-1.1C41.6,115.2,41,115.3,40.3,115.6 M22.7,116.5c0.2,0.1,0.5,0.6,0.7,0.4c-0.4-0.7,0.5-1.3,0.4-1.6
			C23.2,115.3,22.7,115.7,22.7,116.5 M43,116.4c0.5-0.1,0.8,0,1.3-0.2c-0.1-0.3-0.1-0.7-0.3-0.9c-0.3,0-0.6-0.3-1.2-0.2
			C43,115.7,43.2,115.9,43,116.4 M50,115.8c0-0.4-0.1-0.7-0.4-0.8C49.7,115.4,49.5,116,50,115.8 M44.6,114.9
			c0.1,0.5,0.3,0.8,0.3,1.3c0.7-0.1,1.6-0.1,2-0.2c0.1-0.4-0.1-0.6-0.1-0.9c-0.4,0.2-0.4,0-0.5-0.4C45.4,114.8,45.4,115,44.6,114.9
			 M49,115.9c0.7-0.5-0.2-1.1-0.7-1.2C48.5,115.1,48.6,115.7,49,115.9 M47.1,114.9c0.2,0.3,0.3,0.7,0.3,1.2c0.3,0,0.5-0.1,0.9-0.1
			c0.1-0.7-0.6-0.6-0.5-1.3C47.4,114.8,47.2,114.8,47.1,114.9 M50.9,114.6c0.1,0.5,0.2,1,0.6,1.2c0.1-0.5-0.3-0.5-0.4-0.9
			c0.1,0,0.2-0.1,0.4-0.2c0.5,0.2,0.4,1,0.7,1.3c0.1-0.7-0.3-0.9-0.4-1.4C51.4,114.4,51.2,114.5,50.9,114.6 M52.4,114.6
			c0,0.5,0.3,0.7,0.4,1.1c0.3-0.2,0.8-0.3,1-0.6C53.5,114.6,52.8,114.3,52.4,114.6 M53.5,114.2c0.2,0.1,0.4,0.3,0.6,0.4
			c0-0.3,0.5-0.7,0.1-0.8C54.1,114.1,53.7,114,53.5,114.2 M27.9,112.9c0.3,0,0.3-0.1,0.5,0C28.6,112.6,27.8,112.6,27.9,112.9
			 M30.8,113h0.6c0-0.2,0-0.4-0.3-0.4C31.2,112.8,30.8,112.7,30.8,113 M29,112.8c0.4,0.1,1.5,0.2,1.6,0
			C30.4,112.6,29.3,112.4,29,112.8 M31.8,112.6c0.3,0.2,1,0.7,1.3,0.2C33,112.3,32.2,112.4,31.8,112.6 M50.9,112.2
			c-3.1,0.1-6.6,0.8-9.8,1c-5.9,0.4-11.9,0.2-17.3,0.3c0.1,0.5-0.1,0.9-0.2,1.3c9.3,1,21.1-0.2,29.3-0.6c0.4-0.3,0.9-0.4,1.3-0.6
			C53.6,112,52.6,112.1,50.9,112.2 M33.3,112.3c0,0.3,0.3,0.3,0.2,0.6h2.3c0-0.4-0.4-0.5-0.4-0.9C34.7,112,34,112.2,33.3,112.3
			 M40.3,112.4c-1.3-0.5-3.2-0.5-4.4-0.3c0.5,1.3,2.6,0.5,4.4,0.4c1,0,1.9,0.2,2.3-0.4v-0.4C41.8,112,40.8,111.9,40.3,112.4
			 M45.5,111.8v0.4c0.3-0.1,1,0.1,0.9-0.4C46.1,111.7,45.6,111.6,45.5,111.8 M43.1,112.2c0.6,0.2,1.7,0.1,1.9-0.4
			c0-0.1,0-0.2-0.1-0.2C44.5,112,43.2,111.5,43.1,112.2 M46.8,112.1c0.3-0.2,1,0.1,0.9-0.4C47.2,111.5,46.5,111.7,46.8,112.1
			 M48.2,112c0.3,0,0.5-0.1,0.4-0.4C48.2,111.5,48.1,111.6,48.2,112 M50.1,111.8c0-0.2,0.1-0.3,0.2-0.4H50
			C50.1,111.6,49.8,111.7,50.1,111.8 M49.1,111.9c0.2,0,0.6-0.3,0.4-0.5C49.2,111.5,49,111.5,49.1,111.9 M50.9,111.7
			c0.1-0.1,0.2-0.4,0-0.4C50.7,111.4,50.5,111.6,50.9,111.7 M52.6,111.6c0.4,0,0.6-0.1,0.6-0.4C52.8,111.1,52.6,111.3,52.6,111.6
			 M51.5,111.3c0.1,0.2-0.3,0.4,0,0.4c0.2-0.2,0.5,0.1,0.7-0.2v-0.4C51.9,111.1,51.8,111.3,51.5,111.3 M24.6,112.4h0.5
			c0-0.3,0.4-1.1,0-1.3C24.8,111.4,24.6,111.8,24.6,112.4 M24.1,112.3c0.1-0.5,0.3-0.9,0.4-1.3C23.8,110.9,23,112.3,24.1,112.3
			 M28.8,112.2c0.3-0.1,0.6-0.1,1-0.1c-0.1-0.4-0.1-1,0.1-1.3C29,110.8,28.5,111.7,28.8,112.2 M26.1,112.4c0-0.5,0.4-1.5,0.1-1.6
			C25.9,111,25.2,112.4,26.1,112.4 M23.2,112.4c-0.2-0.8,0.3-1.1,0.5-1.7C22.9,110.7,22.3,112.1,23.2,112.4 M31.5,112.2
			c0.5,0.1,0.7-0.2,1.2-0.1c-0.1-0.6,0.1-0.9,0.2-1.4C31.8,110.4,31.2,111.2,31.5,112.2 M30.5,112.2c0-0.2,0.4,0,0.5-0.1
			c0-0.4,0.1-1.1,0.3-1.5C30.3,110.5,29.6,111.6,30.5,112.2 M26.9,112.3c0.1-0.6,0.7-1.6,0.6-1.7C26.8,110.6,26.4,111.8,26.9,112.3
			 M33.8,110.5c-0.3,0.3-0.7,0.7-0.7,1.3c0.6,0.1,1.6-0.2,2.3-0.3c-0.1-0.4,0.5-1,0.2-1.2C35.2,110.7,34.4,110.5,33.8,110.5
			 M27.5,112.2c0.1,0.2,0.5,0.2,0.8,0.2c-0.4-1.1,0.6-1.3,1-1.9C28.3,110.6,27.5,111,27.5,112.2 M36.5,110.5
			c-0.2,0.3-0.6,0.5-0.5,1.1c1.6-0.1,3.2,0.2,4.4,0.1c0.1-0.6,0-1.1-0.4-1.3C38.7,110.5,37.8,110.5,36.5,110.5 M40.8,111.6
			c0.7-0.1,1.6,0,2.2-0.3c0.1-1.3-1.2-1.1-2.3-1.1C40.7,110.7,40.8,111.1,40.8,111.6 M48.5,111.1c0.6,0.1,0.4-0.9,0-0.9V111.1z
			 M50.4,111c0.1-0.2,0.1-0.3,0.2-0.5c-0.1-0.2-0.2-0.4-0.5-0.4C50.2,110.4,50.1,110.9,50.4,111 M43.1,110.3
			c0.2,0.2,0.3,0.6,0.3,1.2c0.6,0,1.2,0,1.7-0.1C45.2,110.2,43.9,109.8,43.1,110.3 M47.1,111.2c0.4,0,0.8,0.1,1-0.2
			c0.1-0.8-0.4-1.2-1.2-1.2C47.1,110.2,47.2,110.6,47.1,111.2 M45.1,110c0.2,0.4,0.4,0.8,0.5,1.3c0.3,0,0.7-0.1,1-0.2
			c0.1-0.7-0.3-0.9-0.5-1.3C45.9,110.1,45.3,109.8,45.1,110 M52.9,109.9c-0.1,0.2-0.1,0.5-0.1,0.8c0.9,0.1,1.5-0.4,1.4-1
			C54.1,110.3,53.6,109.8,52.9,109.9 M49.3,111h0.4c0.3-0.5-0.4-0.7-0.4-1.3h-0.3C49.1,110.1,49.3,110.5,49.3,111 M51.4,109.5
			c-0.1,0.6,0.3,0.7,0.3,1.3h0.7v-0.7c-0.3,0-0.4,0.2-0.4-0.1c0-0.3,0.2-0.3,0.2-0.5C51.8,109.4,51.7,109.6,51.4,109.5 M29.7,107.8
			h-0.4C29.2,108,29.9,108,29.7,107.8 M30.5,107.7v0.3C31,108,31.3,108,32,108C31.8,107.6,30.9,107.5,30.5,107.7 M42.4,107.8
			c0.7-0.2,1.8,0.2,2.2-0.4c-0.7-0.4-1.1,0.1-2-0.2C42.6,107.5,42.5,107.6,42.4,107.8 M32.2,108c1.7,0.2,3.2,0,4.8-0.1
			c1.4,0,3.2,0.4,3.6-0.7C37.8,107.3,34.6,107.4,32.2,108 M45,107.6c0.3-0.2,1,0.1,1.1-0.3C46,107,44.8,107,45,107.6 M40.8,107.8
			h1.3c-0.1-0.3,0-0.2,0-0.5C41.6,107,40.6,107,40.8,107.8 M46.6,107.3c0.2,0.1,0.4,0,0.7,0c0-0.1,0-0.3-0.1-0.3
			C47.2,107.3,46.5,106.9,46.6,107.3 M47.9,107.2c0.1,0.2,0.8,0.1,0.6-0.3C48.2,107,47.9,106.9,47.9,107.2 M52.6,107.3
			c-9.3,1.3-19.4,1-28.7,1.3c-0.2,0.6,0.4,0.9,0.2,1.6c10.1,0.1,18.9-0.4,29.3-1.3c0.4,0.3,0.8,0.6,1.2,0.5
			c-0.3-0.9-1.2-1.1-1.2-2.3c-0.4,0.4-0.8-0.4-0.7-0.2C52.7,107.1,52.6,107.1,52.6,107.3 M49.1,107.1h0.5v-0.2
			C49.5,106.8,49,106.9,49.1,107.1 M22.8,107.5c0.1-0.1,0.6-0.8,0.2-0.9C22.9,106.8,22.6,107.2,22.8,107.5 M23.9,107.4
			c0.2-0.1,0.6,0.1,0.6-0.1c-0.3-0.1,0.1-0.7-0.2-0.8C24.2,106.8,23.8,106.9,23.9,107.4 M31.8,107.2c-0.2-0.3,0-1.1-0.2-1.3
			C31.3,106.2,31.2,107.1,31.8,107.2 M28.5,107.3c-0.2-0.5-0.2-1.1-0.4-1.6C27.9,106.2,28,107.2,28.5,107.3 M30,107.2
			c-0.2-0.6,0.3-1.4,0-1.6C29.3,105.7,29.3,107.1,30,107.2 M26.5,107.6c0.6,0.1,0.7,0,1.4,0c-0.3-0.5-0.5-1.1-0.4-2
			C26.5,105.5,25.8,106.7,26.5,107.6 M33.2,107.4c-0.2-0.6-0.1-1.3,0-1.9C31.7,105.2,31.8,107.6,33.2,107.4 M24,105.7
			c0.4-0.1,1.1,0.4,1.2-0.2C24.7,105.6,24.1,105.5,24,105.7 M36.5,106.9c1.4-0.1,2.8,0,4.1-0.2c0-0.4-0.1-0.6-0.2-0.9
			C39.1,105.6,36,104.6,36.5,106.9 M33.9,105.5c-0.3,0.5-0.6,1.2-0.3,1.8c0.9,0,1.5-0.3,2.4-0.3c0-0.6,0-1.2,0.1-1.6
			C35.5,105.5,34.8,105.5,33.9,105.5 M31,107.2c-0.2-0.7,0.1-1.3,0.3-1.8C30.5,105.4,29.8,107.2,31,107.2 M25,107.5
			c0.4-0.1,0.7,0.1,0.9,0c-0.4-1,0.2-1.8,0.9-2.1C25.8,105.7,24.6,106.1,25,107.5 M50.9,106.4h0.4c0-0.5-0.4-1.1-0.7-1
			C50.9,105.6,51,106,50.9,106.4 M50.4,106.5c0-0.6,0-1.1-0.4-1.2C50,105.8,50.1,106.3,50.4,106.5 M49.6,106.5
			c0.3-0.5-0.1-1.1-0.5-1.2C49.3,105.6,49.2,106.4,49.6,106.5 M48.2,106.6c0.3,0,0.6,0,0.7-0.2c0-0.7-0.3-1-0.8-1.1
			C48.1,105.8,48.3,106.1,48.2,106.6 M44.1,106.8c0.3-0.1,0.3,0.1,0.6,0.1c0.2-0.6-0.1-1.1-0.1-1.5H44
			C44.1,105.9,44.2,106.1,44.1,106.8 M40.7,105.4c0.2,0.4,0.2,1,0.4,1.3c0.4-0.1,0.8-0.1,1.2,0c0.2-0.5-0.4-1,0-1.2
			c0.5,0.1,0.5,0.7,0.5,1.2h0.6C44.4,105,42.2,105.4,40.7,105.4 M29.1,107.4c0.3-0.4-0.5-1.7,0.4-2.1
			C28.6,105.4,28.5,106.9,29.1,107.4 M53.2,105.4c0.2,0.2,0.3,0.5,0.3,0.9c0.4-0.2,0.8-0.5,0.8-1.1
			C53.8,105.4,53.3,105.2,53.2,105.4 M52.4,105.3c0.2,0.2,0.2,0.8,0.5,1c0.3-0.3-0.2-0.7-0.1-1.1C52.6,105.2,52.5,105.3,52.4,105.3
			 M52.1,106.4c0.3-0.5-0.3-0.9-0.5-1.2C51.8,105.6,51.8,106.1,52.1,106.4 M45.3,105.3c-0.1,0.4,0.1,0.9,0,1.4
			c0.5,0,0.8-0.1,1.2-0.2c0.1-0.6-0.4-0.5-0.4-0.9c0.1,0,0.2-0.1,0.3-0.2c0.5,0.1,0.7,0.5,0.6,1.2c0.3,0,0.7,0.1,0.8-0.1
			C47.9,104.9,46.7,105.4,45.3,105.3 M49.1,104c-0.2-0.2,0.1-0.4-0.3-0.4c-5.4,0.3-10.9,0-16.1,0.4c-0.3,0-0.2,0.4-0.5,0.4
			c-2.1-0.2-4.6,0.4-6.5,0.4c-0.5,0-1.1-0.4-1.3,0c0.4,0.5,1.2,0.2,1.6,0.2c4.3-0.4,8.5,0.2,12.8,0.2c5.1-0.1,11-0.5,15.2-0.4
			c0-0.4-0.8-0.8-0.9-1.4C52,103.4,50.2,103.3,49.1,104 M27.2,103.3c-0.1-0.9-0.9-2-1.3-3C25.8,101.6,26.3,102.9,27.2,103.3
			 M26.6,98.3c-0.8,1.7,0.5,3.3,1.2,4.6c0.1,0.2-0.2,0.6,0.4,0.4c-0.7-1.2-1.5-3-0.6-5H26.6z M28.2,98.2c-0.9,1.7-0.8,4.5,1.2,5.1
			c-0.7-1.3-1.2-3.6-0.4-5.1H28.2z M26.3,103.3c-0.5-1-1.4-2.6-0.4-3.6c-0.2-0.6,0.4-1.3,0-1.5C24.8,99.6,24.8,102.4,26.3,103.3
			 M24.2,98.2c-0.8,1.7-1.6,4.1,0.4,5.1c-1.4-1.3-1-3.6,0-5.1H24.2z M53.2,101.9c0.7-0.9,0.9-3.1-0.1-3.8
			C53.7,99.2,53.2,100.8,53.2,101.9 M25.7,103.4c-1-0.8-1.3-2.7-0.9-4.1c0.1-0.4,0.7-0.7,0.4-1.2C23.8,99.6,23.5,102.8,25.7,103.4
			 M50,102.8c1.9-0.1,2.3-3.5,1.3-4.9c-0.2,0.1-0.6-0.1-0.6,0.1C51.6,99.6,50.5,101.6,50,102.8 M29.6,98.2c-0.8,1.1-0.8,4,0.4,5
			c6.2-0.4,13.2,0.1,19.5-0.4c0.7-1.1,1.8-3.6,0.4-4.9C43.1,98.2,36.5,98.2,29.6,98.2 M51.3,102.7c2-0.3,2.2-3.9,0.7-4.9
			C52.6,99.6,52,101.5,51.3,102.7 M53.9,101.4c1.2-0.7,0.6-3-0.3-3.6C54.2,98.6,54.5,100.4,53.9,101.4 M23.4,103.1
			c-1.7-1.5,0.4-3.9,0-5.3C23.4,99.6,21.1,102.3,23.4,103.1 M26.1,97.2c0.1-0.4-0.1-1.1-0.3-1.4C25.8,96.2,25.8,96.9,26.1,97.2
			 M29.5,97.3c-0.1-0.5,0.1-1.5-0.4-2C29.2,96.1,28.9,97.1,29.5,97.3 M24.4,97.2c0.3-0.4,0.3-1.3,0.2-1.9h-0.4
			C24.4,95.8,24,96.9,24.4,97.2 M23.5,97c-0.5-0.2,0-1.3-0.5-1.5c-0.1,0.4,0.2,1,0.2,1.6c0.2,0,0.2,0.1,0.5,0.2
			c0.4-0.5,0.1-1.3,0.2-1.9h-0.4C23.6,95.8,24,96.7,23.5,97 M25.2,97.2c0.3-0.4,0.2-1.7-0.2-2C25.3,96,24.8,96.6,25.2,97.2
			 M35.8,97.2c0.3,0.2,0.5,0.2,0.8,0.1c-0.2-0.7-0.4-1.4-0.5-2.2h-0.3C35.5,95.8,35.8,96.5,35.8,97.2 M34.3,97.4c0.4,0,0.7,0,1-0.1
			c0.1-0.8-0.1-1.2-0.1-2c-0.3-0.1-0.7-0.2-1.2-0.2C34.1,95.9,34.2,96.8,34.3,97.4 M33,95.3c0.3,0.6-0.2,2.1,0.7,2.2
			c0.2-0.7-0.1-1.6-0.2-2.2C33.3,95.2,33.1,95.2,33,95.3 M31.4,95.4c0.2,0.7,0.1,1.2,0.1,2.1c0.6-0.1,0.9,0.1,1.3-0.2
			c0-0.8,0-1.4-0.3-2.1C31.9,95.2,31.5,95.1,31.4,95.4 M30.8,97.4c0.4-0.6,0.3-1.8-0.1-2.2h-0.3C30.5,96,30.2,97,30.8,97.4
			 M30.2,97.4C29.9,96.8,30,96,30,95.2h-0.3C29.9,96.1,29.7,96.8,30.2,97.4 M28.7,96.6c-0.1-0.4,0.2-1.3-0.2-1.4
			C28.4,95.6,28.3,96.3,28.7,96.6 M27.3,97.4c0.4-0.4,0.4-1.9-0.1-2.2C27.2,96.1,27.1,96.9,27.3,97.4 M26.8,97.3
			c-0.1-0.7,0.2-1.8-0.2-2.2C26.5,95.9,26.4,96.8,26.8,97.3 M38.2,95.2c0,0.8,0.1,1.5,0.2,2.2c0.8,0.1,1.6,0,2.5,0.2
			c0.4-0.6,0.2-1.6,0-2.4C39.7,95.1,39.1,95,38.2,95.2 M36.6,95.2c0,0.9,0.2,1.5,0.4,2.2h0.8c0.1-0.8-0.1-1.4-0.1-2.2
			C37.4,95.1,37,95.1,36.6,95.2 M41.4,95c0.1,0.8,0.1,1.6,0.1,2.5c0.7-0.1,1.2,0,2.1,0c0-0.8-0.1-1.6-0.1-2.5
			C42.9,94.7,42.1,95,41.4,95 M53.5,95.9c0.1,1.6,0-0.6,0.2-1c0-0.1-0.1-0.1-0.2-0.1C53.4,95.1,53.5,95.6,53.5,95.9 M53.1,96.7
			c0-0.7-0.2-1.2-0.1-2h-0.3C52.7,95.2,52.7,96.4,53.1,96.7 M52.4,97c0.2-0.6-0.2-1.4-0.1-2.2H52C52.1,95.5,52,96.5,52.4,97
			 M51.7,97.1c0.1-0.7-0.1-1.6-0.2-2.3C51.3,95.2,51.3,96.6,51.7,97.1 M50.9,97.2c0.2-0.6-0.1-1.6,0-2.4
			C50,94.7,50.6,96.8,50.9,97.2 M49.5,97.2c0.4-0.5,0.1-1.7,0.2-2.5C48.7,94.7,49.3,97,49.5,97.2 M48.8,96.9c0-0.6,0.1-1.8-0.4-2.2
			C48.3,95.3,48.3,96.6,48.8,96.9 M48.1,97.2c0-0.6,0-2-0.5-2.5C47.5,95.4,47.6,96.7,48.1,97.2 M46.6,97.3c0.4,0,0.5,0,0.7-0.1
			c0.1-1-0.2-1.6-0.3-2.5C45.7,94.6,46.6,96.5,46.6,97.3 M45.3,94.7c-0.3,0.1-0.9,0.3-1.4,0.2c0.2,0.7,0,1.9,0.2,2.6
			c0.7-0.1,1.5-0.1,2-0.2C46,96.4,46.1,95,45.3,94.7 M23.9,94.5c-0.7-0.9-1.5-1.6-2.3-2.3C22.1,93.1,22.7,94.1,23.9,94.5 M46,92.5
			c-0.1-0.5,0.1-0.9-0.2-1C45.8,91.9,45.8,92.3,46,92.5 M24.6,94.7c0.5-0.2-0.2-0.9-0.4-1.1c-0.7-0.7-1.8-1.7-2.5-2.3
			C22.5,92.7,24.1,93.5,24.6,94.7 M34,94.7c-0.3-3.9-0.4-9-1-13.3C33,85.7,33.2,90.6,34,94.7 M20.7,90.7c-1.5-3.2-1-8.4-2.2-11.9
			C19.4,82.4,18.6,87.6,20.7,90.7 M57.7,79.7c0-0.4,0.3-0.9,0.1-1.2C57.7,78.8,57.5,79.5,57.7,79.7 M33,78.6
			c-0.1-0.7,0.1-1.7-0.1-2.3C33,77,32.6,78,33,78.6 M43.2,81.8c0-1.5,0.4-3.2,0.2-4.5c-0.2-1.2-1.9-2.2-2.9-2.5
			c-0.1,0-0.2,0.1-0.2,0.3c0.2,6-0.1,12.9,0.4,19.5c1-0.1,2.3-0.1,3.1-0.2C44.2,90.6,43.4,85.9,43.2,81.8 M38,74v-1.3
			C37.3,72.6,37.5,73.9,38,74 M39.7,75c0.9-1.4-0.1-3.8-2.1-3.1c0.3,0.5,0.8,0.7,1.2,1c-0.8,0.2-0.2,1.3-0.4,1.6
			c-1.3,0.1-1.4-1.2-1.3-2.1c-0.7,0.8-0.1,2.4,0.4,3.1c-0.2,0.4-0.3,0.8-0.4,1.2c-0.2,4.6,0.1,10.6,0.3,15.2c0,0.9,0.5,2-0.3,2.6
			c-0.6-6.4-0.2-14-0.5-19.6c-2.4-0.1-2.1,1.8-2,4.1c0.2,5.2,0.5,11.2,0.9,15.7c2.2,0,2.8-0.1,4.8-0.1C39.9,87.6,40.1,81.4,39.7,75
			 M34.2,83.8c-0.2-4,0-8-0.4-11.5c-0.1-0.6-0.5-1.2-0.4-1.7c0.1-0.4,0.4-0.5,0.5-0.9c-0.2-1-0.9,0.3-1.7,0.1
			c0.2,0.7,0.5,1.1,0.6,1.7c0-0.2-0.1-0.5,0.2-0.4c0.7,0.9,0,2.7,0.4,3.9c-0.5,3.7,0.2,7.5,0.4,11.2c0.1,2.2,0.3,4.5,0.4,6.4
			c0.1,0.7-0.2,1.7,0.4,2.2C34.8,91.5,34.4,87.7,34.2,83.8 M34.4,68.9c-0.1,0.5,0.1,0.6,0.1,1.2c0,0.3-0.5,0.2-0.6,0.4
			c0.4,1.3,0.4,2.9,0.5,4.4c0.3-0.2,1.3-0.5,1.9-0.7c-0.9-3.9,4.8-3.7,4.3,0c1.3,0.3,2,1.2,2.9,2c-0.1-2.1,0-3.8-0.2-6.1
			c-0.2-0.1-0.5-0.1-0.5-0.4c0.1-0.4,0-0.7-0.1-1C40.4,67.9,36.7,67.7,34.4,68.9 M40.7,60.9c0.3-1.7,0.2-4.4-0.2-6.1
			C40.7,56.9,40.7,58.7,40.7,60.9 M37.6,61c0-2.3,0.1-4.7-0.5-6.4C37.4,56.6,37.2,59.5,37.6,61 M38,63.8c-0.6,0-0.5,1.4,0.3,1.1
			c0.1-3.4,0-7.4-0.5-10.5C38.2,57.4,37.8,60.5,38,63.8 M37.8,54.2c0-0.1,0.1-0.2,0.2-0.4c-0.1,0-0.5-0.1-0.4,0.1
			C37.7,53.9,37.6,54.2,37.8,54.2 M38.6,59.9c0.1,1.9,0.4,3.7,0.1,5.1c0.6-0.2,1.6,0,2.1-0.1c0.1-1,0-2.3,0.1-3.7
			c-0.4,0,0,0.9-0.3,1.1c-0.2-2-0.3-4.8-0.4-6.9c0-0.5,0.3-1.5-0.4-1.6c-0.1,2.7,0.3,5.5,0,8.3c-0.3-2.6-0.2-5.7-0.6-8.2
			c-0.2-0.1-0.5-0.1-0.8-0.1C38.7,55.3,38.6,57.8,38.6,59.9 M37.1,54.1c0.2,0,0.3-0.1,0.4-0.3C37.3,53.7,37,53.8,37.1,54.1
			 M34.8,52.5c2.1,1.3,6.4,1.1,8.4-0.2C40.9,51.5,37.3,52,34.8,52.5 M25.6,46.1c0-0.5-0.6-1.3-0.5-1.2
			C25.1,45.5,25.3,45.9,25.6,46.1 M45.1,38.5c0.5-0.1,0.9-0.3,0.9-0.9C45.5,37.7,45.3,38,45.1,38.5 M31.4,37.4c0.4,0,0.4-1.3,0-1.3
			C31.2,36.5,31.5,36.9,31.4,37.4 M71.5,48.5c-0.8,3-2.6,5.4-4,8.1c-1,1.9-1.8,4-2.8,5.7c-2.8,4.8-6.9,8.9-6.8,15.7
			c0.5-5.7,4.2-9.4,6.1-13.7c1-2.3,2.2-4.4,3.5-6.5c0.6-0.9,1.1-2.1,1.7-3.2c1.3-2.3,2.3-4.5,2.9-7.2c0.5-2,1.3-3.9,1.4-5.9
			c0.3-3.8-0.3-7.7-0.5-11.2c-0.1-2.7-1-5.7-2.2-7.9c-0.5-0.9-1.3-1.7-1.8-2.6c-0.5-1-0.8-2.1-1.4-3c-1.4-2-3.4-3.8-5.2-5.2
			c0.1-0.2,0.4,0,0.4-0.2C59.2,9,55.7,5.9,50.9,4.8c-5-2.1-10.4-1.5-16.9-1.5c-0.3,0-0.2,0.4-0.6,0.3c-0.7,0-1.3-0.1-2.1,0
			c-4,0.6-7.8,2.2-10.7,3.8c-5.5,2.9-9.4,6.5-12.7,11.8C5.6,23,3.7,26.9,3.1,31.7C2.6,35,2.3,39.5,2.8,43.2c0.4,2.7,1.3,4.7,2.2,6.9
			c2.1,5.2,4.9,10.3,7.8,14.6c0.6,0.8,0.8,2,1.3,3c1.5,2.9,3.4,5.8,4.4,8.8c1.6,4.6,0.7,10.6,3,14.5c0.2-0.1-0.3-0.4-0.3-0.6
			c-1.3-5.3-1.1-11.2-2.9-15.7c-0.3-0.8-0.8-1.7-1.3-2.5c-0.8-1.6-1.5-3-2.3-4.3c-1.7-2.6-2.9-5.4-4.6-7.8c-1.7-3.1-3.1-6.5-4.7-9.7
			c0-0.2-0.5,0-0.4-0.3c-2.5-5.5-2.4-14.9-0.7-21c1.6-6.6,5.1-11.3,8.7-15.8c3-1.8,5.6-4.3,8.9-6c1.5-0.8,3.3-1.2,5.1-1.6
			c2.5-0.6,5.8-2,9-1c-8.6-0.1-15.4,3.2-20.3,7.4c-3.8,2-5.6,6-7.9,9.8C6.6,23.7,5.4,26,5,28.4c-0.3,0.1-0.2,0.5-0.4,0.6
			C3.6,34.6,3,41.8,4.7,47c0.1,0.2,0.4-0.2,0.4,0.2c0.4,2.1,1.4,3.7,2.2,5.4c1,2,1.6,4.1,2.8,6c1.1,1.8,2.2,3.7,3.2,5.6
			c2.1,3.9,4.7,7.6,6,11.6c1.3,4.1,1.3,9.5,2.2,13.7c0.5,2.3,2.5,3.3,3.8,4.7c0.1,0.2,0.1,0.5,0.3,0.6c2-0.1,4.7,0.2,7.2,0
			c-0.2-7.8-0.7-15.6-0.9-23.5c-0.7-0.3-0.9-1.8-0.2-2.2c-0.1-0.4-0.6-0.5-0.4-1.3c0.3-0.4,0.8-0.6,1.3-0.8
			c-0.3-1.2-0.3-2.6,0.6-3.1c-3.9-7.5-7.5-15.3-10.7-23.5c-1.2-0.4-1.3-1.8-1.8-2.9c0.3-0.3,0.5-0.7,1-0.8c0.3,0.3,0.6,0.7,0.8,1.2
			c0.4-0.1,0.4-0.7,0.8-0.7c0.2,0.1,0.4,0.2,0.6,0.3c-0.1-0.4,0.2-0.5,0.4-0.5c0.4,0.1,0.5,0.4,0.7,0.6c0.2-0.2,0.1-0.7,0.4-0.7
			c0.8,0.1,1.6,0.2,2.1-0.4c0.6,0.2,1.5,1.5,0.5,2c-0.3-0.4,0-1.1-0.5-1.3c-0.2,0.3,0,1-0.4,1.2c-0.6,0-0.3-0.8-0.7-0.9
			c-0.3,0.2,0.1,1.5-0.5,1.3c-0.2-0.3,0-1-0.4-1.1c-0.3,0.4,0.1,1.4-0.5,1.5c-0.7-0.1,0.1-1.3-0.7-1.4c-0.2,0.5,0.3,1.3-0.4,1.4
			c-0.5-0.2,0.1-1.1-0.6-1.2c-0.1,0.3-0.2,0.6-0.3,1c0.2,0.3,0.4,0.5,0.4,0.8c0.1,0.3-0.1,0.4-0.1,0.6c2.9,6.1,5.2,12.3,8.4,18.2
			c0.8,1.6,1.9,3,2.3,4.9c0.2,0.2,0.8,0.6,0.4,0.9c-0.5,0-0.3-0.7-0.8-0.7c0.4,1.2-0.2,2.4,0.2,4c-0.3,0.3-1,0.3-1.4,0.4
			c-0.1,0.6,0.1,1,0.3,1.3c2-1.1,5.9-2,8.7-1.3c0.8,0.2,2.4,0.6,2.4,1.1c-0.1,0.3-0.3,0.4-0.4,0.5c0.2,0.2,0.6,0.2,0.7,0.5
			c-0.6,8.3,0,16.4,0.5,24.4c0.5,0,0.5,0,1-0.1c0-8.4-1.4-16.7-0.4-24.3c0-0.3,0.5-0.2,0.4-0.5V68c-1.6-0.5-0.9-2.7-1.2-4.3
			c-0.1-0.1-0.7,0-0.7-0.4c2.7-7.8,6.1-15.1,9.3-22.1c-0.1-0.1-0.2-0.2-0.2-0.4c0.6-0.6,0.5-1.7,0.5-2.5c-0.6,0-0.4,0.8-1,0.9
			c-0.6,0.1,0.1-1.1-0.5-1c-0.5,0.2-0.2,1.1-0.7,1.3c-0.5-0.2,0.1-0.8-0.2-1.3c-0.6,0-0.3,1.5-1,1.2c-0.3-0.3,0.4-0.9-0.1-1.2
			c-0.3,0.3-0.1,1.1-0.6,1.2c-0.5-0.2,0-0.8-0.3-1.2c-0.5,0-0.3,1.2-0.8,1c-0.4-0.2,0.1-0.7-0.3-1c-0.3,0.3-0.2,0.9-0.7,0.9
			c-0.4-0.2,0.2-0.7-0.1-1.2c-0.6,0.7-1.1,0.6-2.1,1.1c-1.3,3.6-2.2,8.1-2.5,12.5c0.8,0.1,1.4,0.4,1.3,1c-0.1,0.9-1.8,0.7-2.5,1.2
			c-0.2,1.8,0.2,3.6,0.2,5.7c0,2.2-0.3,4.8,0.3,6.6c0.5,0.1,1.2,0.1,1.6,0c0.1-0.7-0.7-1.6-0.1-2c0.5,0.5,0.2,1.8,0.9,2.2
			c-0.8,0.3-2,0.2-2.7,0.6c-0.2-0.3-0.2-0.7-0.4-1.1c-1.2-0.4-3.1,0-4.2-0.4c-0.1,0.5,0.3,0.7,0.1,1c-0.6,0.3-1.6,0.1-2.2,0.1
			c-0.2-0.7,0.2-1.4-0.4-1.7c0.2-0.2,0.2-0.5,0.7-0.4c0.2,0.4,0.1,1.2,0.3,1.6c0.3,0.1,0.8,0.1,1.2,0.2c-0.1-0.3-0.2-0.7-0.2-1.1
			c0.1-0.2,0.5-0.2,0.9-0.2c0.1-3.9-0.4-7.5-0.4-11c-0.8-0.3-1.6-0.5-2.3-0.8c-0.3-0.7-0.1-1.3,0.9-1.2c-1-5.2-3.1-9.3-4.4-14.2
			c-0.3,0-0.3,0.2-0.6,0.1c-0.1-0.4-0.1-0.9-0.5-0.9c0,0.5,0.1,1.2-0.3,1.3C29,38,29.1,37.3,28.9,37c0-0.3-0.8-0.3-0.4-0.6
			c0.7-0.4,2.7,0.7,3-0.5c0.1-0.6-1.4-3.5-0.9-4.6c0.3,2.3,1.8,3.9,1.6,6.4c-0.2,0.3-0.7,0.2-0.7,0.6c1.5,4.5,3.1,8.9,4.4,13.6
			c1.9-0.1,3.8-0.3,5.9-0.4c0-1.9,0.6-3.2,0.9-4.9c0.3-1.5,0.4-3.1,0.8-4.5c0.3-1.3,1.4-2.9,0.6-3.9c-0.4,0.1,0,1-0.6,0.9
			c-0.4-0.3-0.1-0.9-0.3-1.4c-0.7,0.1-0.6,1.1-1.3,1.3c-0.3-0.4,0.1-1.3-0.5-1.6c-0.4,0.2-0.1,1.1-0.7,1.1c-0.3-0.3,0-1.2-0.4-1.3
			c-0.5,0.3-0.1,1.4-0.9,1.4c-0.2-0.5,0.1-1.1-0.4-1.3c-0.3,0.3,0.1,1.2-0.5,1.2c-0.2-0.3,0-1.1-0.2-1.4c-0.6,0.1-0.3,1-0.7,1.3
			c-0.5-0.2-0.2-0.6-0.4-1.1c-0.5,0.1-0.1,1-0.8,0.9c-0.2-0.4,0.2-1-0.4-1.1c-0.3,0.3,0.2,1.3-0.4,1.2c-0.4-0.3-0.1-1.2-0.6-1.3
			c-0.2,0.3,0.1,1.1-0.5,1.1c-0.3-0.2-0.1-0.7-0.4-0.9c-0.6,0-0.2,1-0.9,0.9c0.1-0.8-0.5-0.9-0.5-1.5c0.1,0,0.2-0.1,0.3-0.2
			c0.7,0.5,1.5,0.5,2.2,0c0.4,0.4,0.6,0.3,1.1,0c0.5,0.7,1.5,0.4,2.2,0.1c0.4,0.8,0.8,0.4,1.5,0.8c0.2-0.2,0.3-0.6,0.7-0.5
			c0.2,0.1,0.4,0.3,0.4,0.6c0.3,0,0.4-0.4,0.8-0.3c0.3,0.2,0.4,0.6,0.5,0.9c0.5-0.1,0.5-0.6,1-0.7c0.4,0.1,0.3,0.8,0.9,0.8
			c0.5-1.2,0.5-2.8,1.2-3.8c0,1.3-0.6,2.9-0.4,3.9c0.2-0.5,0.6-0.8,1.3-0.8c0.4,0,0.2,0.5,0.4,0.5c0.9-0.3,1.5,0.6,2.3,0
			c0.2,0.1,0.3,0.4,0.4,0.6c0.5-0.6,1,0,1.4-0.6c0.4,0.7,1.4-0.4,1.6,0.6c0.5,0,0.4-0.6,1-0.5c0.4,0,0.2,0.6,0.4,0.7
			c0.2-0.4,0.2-1,0.7-1.1c0.2,0.2,0.6,0.2,0.7,0.5c0.2,0.6-1,3.8-1.8,3.9c-2.2,5.2-4.6,10.6-6.7,16.2c-1.1,2.8-2.3,5.9-1.6,9.1
			c0.6,0,1,0.2,1.3,0.5c0,0.9,0,1.8,0.2,2.4c-0.2,0.3-0.6,0.4-1,0.4c-0.2,8.4,0.5,15.4,0.9,23.9c2.4-0.3,5.2,0.4,7.4,0
			c1.7-0.3,2.8-2,3.1-3.6c-0.7,1.4-1.9,3.3-3.6,3.1c4.3-1.7,3.8-8.5,4-13.2c-0.2,2-0.4,4.2-0.7,6.1c-0.6,3.9-2.3,6.2-6,6.7
			c0.8-1,2.5-1,3.5-1.8c0.2-0.3,0.4-0.5,0.7-0.7c1.7-4.1,2.1-9.5,2.4-13.8c0.5-6.6,5.1-11.1,7.6-16.2c2.3-4.6,5.4-9.2,6.6-14.6
			c1-4.3,1.2-8.8,0.8-13.3c-0.2-2.1-1.1-4.1-1-6C73.8,33.5,73.2,42.4,71.5,48.5 M60.1,73.4c1.4-2.8,3.3-5.7,4.9-8.6
			c1.9-3.4,4.2-6.6,5.5-10.2c1.3-1.9,2-4.5,3-7.2c0.8-2.3,1.5-4.7,1.5-7.1c0-1.4-0.3-3-0.4-4.5c-0.1-1.5,0.1-3.2-0.1-4.7
			c-0.1-0.7-0.5-1.5-0.7-2.3c-0.5-2.4-1.1-3.7-2-5.7c-3.8-8.3-9.5-14.2-17.3-18.1c-3.4-1.7-7.9-2.8-12-3.3C38.1,1.2,34.1,2,30.5,2.8
			c-5.4,1.3-10.1,2.9-13.9,5.7c-2.9,2.1-5.4,4.4-7.7,7.1c-1.9,2.9-3.7,6-4.9,9.5c-1.3,3.7-2.1,7.4-2.3,11.8c-0.1,1.7,0,3.9,0.4,5.7
			c0.3,1.8,0.5,3.7,1,5.4c0.4,1.3,1.1,2.6,1.7,4c0.6,1.3,1.2,2.6,1.9,3.8c4.4,7,8.2,14.7,11.9,22.1c-0.5-2.3-1.6-4.3-2.7-6.4
			c-1-2-1.9-4.2-3.1-6.1c-1-1.6-2.1-3-3-4.7c-0.9-1.7-1.9-3.3-2.8-4.9c-0.8-1.5-1.4-3.3-2.1-5C3.4,47.1,2,44.1,2.1,39.5
			c0-2-0.1-4.2,0.2-6.1c0.3-2.8,1.1-5.7,2.1-8.1c2.9-7.2,6.5-12,12.5-16.1c2.8-1.9,5.6-3.7,8.8-4.8c2.6-0.9,5.2-0.9,7.8-1.8
			C37.7,3,41.7,2.4,46,3c1.3,0.2,2.4,0.8,3.6,0.9c0.3,0,0.7-0.1,1-0.1c1,0.2,2.1,0.8,3.1,1.3c1.1,0.5,2,1,2.9,1.5
			c1.9,1.1,3.8,2.2,5.4,3.4c0.7,0.6,1.1,1.5,1.8,2.2c0.4,0.4,0.9,0.5,1.3,0.8c0.9,0.9,1.6,2,2.4,3c0.9,1,1.2,2.2,2,3.4
			c1.6,2.7,3.3,5.4,4,8.6c0.3,1.3,0.2,2.6,0.4,3.8c0.2,1.2,0.4,2.5,0.4,3.8c0.7,9.8-3.2,17.2-6.7,23.5c-1.1,2-2.1,3.8-3.1,5.9
			c-1.2,2.7-3.3,5-4.4,7.5c-2.1,4.9-1.9,11.2-2.5,16.6C58.6,83.9,58.1,77.5,60.1,73.4 M41.2,1.1h-0.4C40.7,1.4,41.4,1.4,41.2,1.1
			 M55.1,95.4c-0.5,1.3,0.6,2.3,0.8,3.5c0.3,1.7-0.4,3.1-1.3,4.2c0.2,0.6,0.6,1.2,0.9,1.7c-0.1,1-1,1.4-1,2.3c0,0.7,0.8,1.2,1,2.1
			c0.2,1.1-0.1,1.9-1.1,2.5c0.7,0.9,1.1,1.4,0.9,2.5c-0.1,0.8-1,1.3-1,2c0,0.6,0.7,1.1,0.7,1.8c0,0.7-0.5,0.8-0.5,1.5
			c-2.9,4.2-6.8,7.3-10.2,10.9c-3.7-0.2-8-0.6-11.9-0.7c-1.8-1.8-4.1-3.9-5.9-5.9c-0.5-0.6-0.9-1.6-1.6-2c-0.7-0.4-1.9,0-2.2-1
			c-0.3-0.8,0.2-1.6-0.1-2.5c-0.3-0.9-2-1.4-1.4-3.1c0.2-0.6,0.7-0.6,1.3-1.2c-0.1-0.8-1-1.1-1.2-1.9c-0.2-1.3,0.6-1.9,1.1-2.8
			c-0.4-1-1.1-1.2-1-2.2c0.1-1,1.5-1.4,1.4-2.3c0-0.8-1.4-1.5-1.6-2.3c-0.4-1.5,0.3-2.3,0.7-3.8c-0.6-1.4,0-2.5-0.3-3.6
			c-0.1-0.6-0.7-0.8-1-1.2c-0.7-0.9-1.7-2.5-2.1-3.8c-1.3-4.2-1.2-9.4-2.4-13.7c-0.4-1.5-1.4-3-2.2-4.5C9.1,61.6,1.1,53.7,0.1,39.7
			c-0.5-6.6,1.1-11.3,2.6-16c0.6-1.7,1.5-3.5,2.4-5.1c2.5-4.7,6.8-8.5,11-11.6c4.3-3.2,9.8-5.3,16.4-6.2c3.9-0.5,7.5-1.3,11.9-0.4
			c3.6,0.7,6.6,1.8,9.8,3c4,1.5,6.9,3.4,9.8,6c2.4,2.2,4.1,3.7,5.8,6.6c0.7,1.1,1.6,2.1,2.2,3.1c3.2,5.5,4.9,12.7,4.9,20.4
			c0,4.4-1.5,8-2.9,11.5c-0.7,1.9-1.5,3.7-2.2,5.5c-3.1,6.9-8.7,12.6-10.9,20.1c-0.9,3-1,6.2-1.4,9.6c-0.1,1-0.5,2.1-0.7,3.1
			C58.2,92.7,57.8,94.4,55.1,95.4"/>
	</g>
</g>
</svg>
