<?xml version="1.0" encoding="utf-8"?>
<!-- Generator: Adobe Illustrator 19.0.0, SVG Export Plug-In . SVG Version: 6.00 Build 0)  -->
<svg version="1.1" id="Layer_1" xmlns="http://www.w3.org/2000/svg" xmlns:xlink="http://www.w3.org/1999/xlink" x="0px" y="0px"
	 width="40.2px" height="120.6px" viewBox="0 0 40.2 120.6" style="enable-background:new 0 0 40.2 120.6;" xml:space="preserve">
<style type="text/css">
	.st0{fill:#FFFFFF;}
</style>
<g>
	<path class="st0" d="M19.6,5C20,4.2,20.9,4,21.1,3.1c0-0.2,0-0.4,0-0.6c0-0.3-0.3-0.2-0.3-0.5c0.1-0.1,0.1-0.1,0.1-0.2
		C22.5,2.4,20.5,5.1,19.6,5"/>
	<path class="st0" d="M23.4,2c0.3,0,0.4,0.1,0.6,0.1c0.1,0.2-0.1,0.1-0.1,0.3C23.6,2.3,23.4,2.3,23.4,2"/>
	<path class="st0" d="M20.1,2.1c0.1,0,0.1,0.1,0.3,0.1c0.3,1.1-0.3,2.1-1.1,2.4C19.7,3.8,20.3,3.3,20.1,2.1"/>
	<path class="st0" d="M7.4,6.2c-0.2,0.7-1,0.6-1.5,1c-0.6,0.5-0.9,1.1-1,1.9C5,9.3,5.1,9.3,5.1,9.7c-0.4,0-0.5-0.5-0.6-0.6
		C4.3,7.5,6.2,6.5,7.4,6.2"/>
	<path class="st0" d="M34.7,7.5h0.1c0.6,0.4,0.5,1.3,0.3,2c-1.4,2.5-4.7,2.3-7.6,3C30.4,11.3,35.6,11.7,34.7,7.5"/>
	<path class="st0" d="M6.7,8.2c-0.5,0.5-1,1.1-1.1,2c-0.5-0.2-0.1-1.3,0.2-1.7C6,8.2,6.5,7.9,6.7,8.2"/>
	<path class="st0" d="M6.1,15.7c-0.6,0.6-1.6,0.8-1.8,1.9c0,0.3,0.1,0.8-0.1,0.8C3.5,17.6,4.7,15.4,6.1,15.7"/>
	<path class="st0" d="M25.3,17.5c0.1,0.2-0.4,0.1-0.5,0C24.8,17.2,25.2,17.5,25.3,17.5"/>
	<path class="st0" d="M5.5,18.6c0.2,0,0.2,0.1,0.3,0.2c0,0.2-0.2,0.3-0.2,0.4c-0.2,1,0.6,1.2,0.6,1.8C5.2,20.8,4.9,19.3,5.5,18.6"/>
	<path class="st0" d="M6.4,19.3c0.1,0,0.1,0.1,0.2,0.1C6.4,20.1,7,20.7,7,21.2C6.3,21,5.9,19.8,6.4,19.3"/>
	<path class="st0" d="M6,25.1c-0.5,0.7-1.4,1-1.7,1.9c0,0.9,0.4,1.4,0.7,2c-0.7-0.1-1-0.9-1-1.5c-0.2-1.2,0.6-2,1.4-2.4
		C5.6,25.1,5.8,24.8,6,25.1"/>
	<path class="st0" d="M5.4,26.5c-0.1,0.4-0.3,0.5-0.3,0.9c0,0.7,0.7,1.2,0.4,1.6C4.8,28.9,4.2,26.6,5.4,26.5"/>
	<path class="st0" d="M6,27.4c-0.2,0.6,0,1.1,0.2,1.5C5.6,29.3,5.2,27.2,6,27.4"/>
	<path class="st0" d="M34.3,33.1c0.5,0.3,0.5,1.2,0.6,1.9c0.1,0.2,0.1-0.3,0.3-0.1c0,0.1,0,0.2,0.1,0.3c0,0.3-0.2,0.3-0.4,0.2
		c-0.2,1.3-0.9,1.9-1.7,2.6c-3.3,0.8-7.2,2.2-10.3,2.8c0-0.5,0.7-0.5,1-0.6c2-0.5,4-1.1,6-1.7c1.1-0.3,2.1-0.5,2.8-1
		c-0.7,0.3-1.6,0.5-2.5,0.8c-1.3,0.4-2.7,1-3.8,0.8c0.7-0.6,2-0.5,3.1-0.8c0.9-0.2,2.4-0.6,3.2-1.1c0.2-0.1,0.6-0.5,0.7-0.8
		c0.1-0.5-0.1-1.1,0.3-1.7c0.6,1.1-0.2,2.3-0.7,2.9c0.5-0.1,1.3-0.9,1.5-1.5C34.9,35.2,34.3,34.1,34.3,33.1"/>
	<path class="st0" d="M5.6,35.8c-0.3,0.8,0,1.8,0.5,2.6C5.3,38.6,4.5,35.9,5.6,35.8"/>
	<path class="st0" d="M6.2,42.7c-0.1,0.5-0.5,0.4-0.8,0.6c-0.4,0.2-0.8,0.7-1,1.1c-0.2,0.3,0,0.9-0.5,1C3.9,44.1,4.8,42.7,6.2,42.7"
		/>
	<path class="st0" d="M6,43.6v0.3c-0.9,0.3-1.5,1.4-1.5,2.3c-0.2,0.1-0.3-0.1-0.4-0.1C4.3,45.1,4.9,43.6,6,43.6"/>
	<path class="st0" d="M6.1,44.6c0,0.4-0.3,0.4-0.5,0.6c-0.4,0.4-0.4,1.2-0.8,1.7C4.5,46.2,5.2,44.5,6.1,44.6"/>
	<path class="st0" d="M6.2,45.9c-0.3,0.4-0.4,1.2-0.8,1.5c0-0.1-0.1-0.1-0.1-0.1C5.4,46.7,5.6,45.7,6.2,45.9"/>
	<path class="st0" d="M6.7,52.3c0.1,0.1,0.1,0.3,0.1,0.5c-0.7,0-0.5,0.9-0.6,1.5C5.4,53.9,5.8,52.3,6.7,52.3"/>
	<path class="st0" d="M5.7,54.7C6.3,54.9,6.2,56,7,55.9v0.3C6.2,56.4,5.5,55.2,5.7,54.7"/>
	<path class="st0" d="M32.1,56h0.3c0.1,1,0.2,2.8,0,3.9c0,0.2,0,0.6-0.3,0.6C32,59.2,32.3,57.7,32.1,56"/>
	<path class="st0" d="M31.8,56.7c0.1,0,0.1,0.1,0.2,0.1c-0.3,1.2,0.4,3.3-0.5,3.9c-0.2-0.2,0-0.3,0.1-0.6
		C31.7,59,31.4,57.7,31.8,56.7"/>
	<path class="st0" d="M33.4,59.2c0.1,0.3,0.1,0.7,0.2,1C33.3,60.1,33.3,59.5,33.4,59.2"/>
	<path class="st0" d="M11.4,63.4c0.1-0.3,0.9,0,1-0.1C12.3,63.4,11.8,63.3,11.4,63.4"/>
	<path class="st0" d="M32.2,83c0.2,0.3-0.3,0.1-0.6,0.2C31.6,82.9,32.1,83.2,32.2,83"/>
	<path class="st0" d="M32.8,83c0,0.2-0.4,0-0.4,0.2C32.2,82.9,32.7,83,32.8,83"/>
	<path class="st0" d="M30.4,83.2c-0.2,0.3-0.5,0.1-0.8,0.2C29.8,83.1,30.1,83.3,30.4,83.2"/>
	<path class="st0" d="M29.5,83.4c-0.2,0.1-0.3-0.2-0.3,0C28.9,83.3,29.7,83.1,29.5,83.4"/>
	<path class="st0" d="M36.8,95.5c-0.2-0.1,0.2-0.3,0.1-0.4C37.1,95.3,36.8,95.4,36.8,95.5"/>
	<path class="st0" d="M20.6,109.5c-0.2,0.2-0.7,0.1-1.2,0.2C19.6,109.4,20.1,109.5,20.6,109.5"/>
	<path class="st0" d="M19.3,109.5c0,0.2-0.3,0.2-0.6,0.2C18.9,109.6,19.2,109.6,19.3,109.5"/>
	<path class="st0" d="M24.1,111.9c-0.1,0.2-0.2,0.2-0.4,0.1C23.7,111.9,23.9,111.9,24.1,111.9"/>
	<path class="st0" d="M19.6,113.5c-0.1-0.3,0.5,0,0.5-0.2C20.3,113.5,19.7,113.4,19.6,113.5"/>
	<path class="st0" d="M27.9,113.8c0.2,0.2-0.2,0.3-0.1,0.6C27.5,114.2,27.8,114,27.9,113.8"/>
	<path class="st0" d="M12.8,115c0,0.1-0.1,0.1-0.1,0.2c-0.2,0-0.2-0.2-0.3-0.2C12.5,114.8,12.7,115.1,12.8,115"/>
	<path class="st0" d="M17.8,119.7c2.4-0.1,4.6,0.4,6.2-0.4c-2.1-0.1-4.1-0.4-6.3-0.3C17.8,119.2,17.8,119.4,17.8,119.7 M24.7,119
		c0,0.2,0.1,0.2,0.2,0.3c0-0.2,0-0.3,0.1-0.4C24.8,118.9,24.7,118.9,24.7,119 M14.8,116c0.5,0,1.2-0.1,1.6,0.1c0-0.2,0-0.4,0.1-0.5
		C16,115.8,15.1,115.7,14.8,116 M17.9,116.1c-0.1-0.1,0-0.5-0.2-0.6c0,0.2-0.1,0.5,0.1,0.6C17.8,116.1,17.8,116,17.9,116.1
		C17.8,116.1,17.9,116.2,17.9,116.1 M24.6,115.9c0-0.3,0.1-0.7-0.1-0.9C24.5,115.2,24.4,115.8,24.6,115.9 M18.1,115.1
		c0.1,0.5,0.1,0.8,0.2,1h0.3c0-0.4,0-0.8-0.1-1.1C18.3,115,18.3,115.1,18.1,115.1 M13.8,115.6c0.5,0,1.7-0.2,2.6-0.5
		C15.6,114.9,14.5,115.4,13.8,115.6 M19,114.9c0.1,0.7-0.1,1,0.2,1.3c0.1-0.4,0.2-1.1,0-1.4C19.2,114.9,19.1,114.9,19,114.9
		 M19.7,116.2c0-0.1,0.1-0.1,0.3-0.1c0-0.6,0-0.8,0.1-1.4h-0.3C19.6,115.1,19.7,115.6,19.7,116.2 M20.5,116.3
		c0.2-0.3,0.1-1.1,0.1-1.7h-0.2C20.3,115.2,20.3,116.1,20.5,116.3 M21,114.5c0,0.7,0,1.1-0.1,1.5c0.2,0.1,0.2,0,0.5,0
		C21.3,115.5,21.8,114.2,21,114.5 M21.8,116c0.5,0,0.4-1.4,0.3-1.7C21.6,114.6,21.8,115.5,21.8,116 M22.5,115.6
		c0.1-0.3,0.2-1.2,0-1.3C22.5,114.5,22.4,115.2,22.5,115.6 M23.2,115.9c0-0.6,0.1-1.3-0.1-1.7C22.9,114.8,22.8,115.6,23.2,115.9
		 M23.6,115.9c0.1-0.3-0.1-1.2,0-1.8h-0.2C23.6,114.7,23.5,115.1,23.6,115.9 M24.1,115.4c0.1-0.5-0.1-0.8,0.1-1.3
		c-0.1,0-0.2,0-0.2-0.1C23.9,114.4,24,114.9,24.1,115.4 M21.8,114.2c0.2,0,0.4-0.1,0.4-0.2C22,114,21.9,114,21.8,114.2 M25.2,115.8
		c-0.1-0.7,0.2-1.3-0.2-1.9C24.8,114.5,24.9,115.3,25.2,115.8 M26,115.8c0.2-0.6,0.2-1.4,0.1-2c0,0.1-0.1,0-0.1,0
		C26,114.6,25.9,115.3,26,115.8 M25.6,115.7c0-0.3,0.2-1.3-0.1-1.9C25.4,114.4,25.5,115.2,25.6,115.7 M23.6,113.9
		c0.1,0,0.2-0.5-0.1-0.4C23.5,113.5,23.3,114,23.6,113.9 M24.1,113.8c0.1,0,0.1-0.5,0-0.6C24,113.3,23.9,113.9,24.1,113.8
		 M25.1,113.8c-0.1-0.3,0.2-0.4,0-0.6C24.8,113.2,24.8,113.8,25.1,113.8 M25.4,113.7c0.2,0.1,0.2-0.5,0.1-0.6
		C25.4,113.2,25.5,113.5,25.4,113.7 M26.1,113.6V113h-0.2C25.9,113.1,25.7,113.7,26.1,113.6 M16.6,114.9c3-0.3,4.9-1.1,7.3-1.9
		C21.3,113.3,19.1,114.2,16.6,114.9 M13.4,114c1.6,0,3.5-0.5,4.9-1.2C16.9,112.9,14.9,113.5,13.4,114 M25.9,112.7
		c0.1,0,0.1,0.2,0.3,0.1v-0.3C26,112.6,25.9,112.6,25.9,112.7 M24.3,112.8c0.4-0.3,1.4-0.3,1.4-0.8
		C25.4,112.4,24.4,112.5,24.3,112.8 M26.2,112h-0.3C25.8,112.3,26.2,112.1,26.2,112 M26.4,111.8c0.2,0.1,0.6,0,0.7-0.2
		C26.8,111.7,26.5,111.6,26.4,111.8 M19.8,112.2c0.1,0,0.1,0.1,0.1,0.1c0.4-0.5,1.8-0.3,1.9-0.9c-0.7,0.5-2,0.4-2.6,1
		c-0.1-0.3-0.8,0.2-1,0.1C18.8,112.8,19.6,112.4,19.8,112.2 M27,111.5c0.1,0.1,0.5-0.1,0.6-0.3C27.4,111.3,27.2,111.3,27,111.5
		 M27.7,110.6c-0.4-0.2-1.5,0.1-2,0.3c0-0.1,0-0.1-0.1-0.1c-0.9,0.5-2.1,0.5-3.1,1c0,0-0.4,0.2-0.2,0.3c0.1,0.1,0.9-0.4,0.8,0.1
		c-0.3-0.1-0.6,0.1-0.9,0.1c0-0.1,0.1-0.1,0-0.2c-0.2,0.1-0.6,0-0.6,0.2c0.3,0,0.5-0.3,0.6,0.1c-1.7,0-2.8,0.6-4.2,1.2
		c0.4,0.1,0.8-0.1,1.2,0c-2,0.1-4,0.8-5.9,1.1c0.1-0.1-0.2-0.3-0.3-0.2c-0.1,0.3,0.1,0.7,0.5,0.8c0.3-0.4,1.4-0.1,1.2-0.3
		c2-0.3,3.9-0.8,5.7-1.6c1.6-0.3,3.5-0.8,4.7-1.4c-0.4-0.1-0.6,0.3-0.8-0.1C25.3,111.9,26.7,111.3,27.7,110.6 M23.6,111
		c1.3-0.3,2.7-0.9,3.5-1.6C26,110,24.7,110.4,23.6,111 M13.1,112.1c0.1,0.2-0.1,0.4-0.3,0.3c0,0.4,0.5,0.2,0.6,0.1
		c0.5,0,1.3-0.1,1.7-0.4c-0.2,0-0.7,0.2-0.7-0.1C13.8,111.9,13.8,112.1,13.1,112.1 M25.2,108.7c0.3,0.1,0.7-0.2,1-0.3
		c-0.8-0.1-1.2,0.3-1.8,0.4c0,0.4,0.4-0.2,0.5,0.1c-1.6,0.5-3.1,0.6-4.6,1.2c0,0.1,0,0.3-0.1,0.3c0-0.4-0.3,0-0.3,0
		c-1.3,0.3-3.6,1-5.1,1.5c1.9,0.1,4.3-1,6.2-1.5c-0.1,0-0.4,0.1-0.4-0.1c0.2,0,0.4-0.1,0.6-0.1c0,0.1-0.1,0.2,0,0.2
		c0.7-0.4,2.2-0.6,3.3-1c0-0.1-0.1-0.2,0-0.2C24.5,109.4,25.3,109,25.2,108.7 M22.7,107.9c-0.1-0.4-1.2-0.2-1.5-0.1
		c0.1,0.1,0.4,0.1,0.4,0.3c-0.8-0.1-1,0.3-1.5,0.4c-0.1,0-0.3-0.1-0.3-0.1c-0.4,0-0.6,0.3-1,0.4c-1.7,0.6-4,0.8-5.8,1.2
		c0,0.1,0,0.3-0.1,0.3c0.1-0.3-0.3,0-0.3,0.1c0.2,0.1,0.6-0.1,0.6,0.1c3.2-0.5,5.8-1.7,8.9-2.4c0-0.2-0.1-0.2,0.1-0.3
		C22.3,108,22.4,107.8,22.7,107.9 M22.9,107.8c0.2,0,0.5-0.1,0.8-0.1C23.6,107.5,22.9,107.6,22.9,107.8 M19.8,107.9
		c0.3,0,0.5-0.1,0.7-0.2c-0.2,0-0.5,0-0.6-0.1C19.8,107.7,19.8,107.7,19.8,107.9 M13.3,108.1c-0.1,0-0.3,0.1-0.3,0.3
		c1.1,0.2,2.6-0.1,3.6-0.8C15.4,107.9,14.2,107.8,13.3,108.1 M27.5,107.7c-0.1,0-0.2-0.1-0.1-0.3c-0.2,0.1-0.3,0-0.6,0.1
		c0,0.2,0.1,0.2,0.1,0.3C27.1,107.9,27.2,107.7,27.5,107.7C27.4,107.8,27.4,107.8,27.5,107.7 M13.4,107.2c0.1,0.2,0,0.2,0.1,0.5
		c0.6-0.1,1.7-0.1,1.9-0.3c-0.7-0.1-1.1-0.2-1.7-0.4C13.7,107.2,13.5,107.1,13.4,107.2 M25.1,107c0.2-0.1,0.2-0.8,0.1-0.9
		C25.1,106.5,25.2,106.7,25.1,107 M27.6,106.8c0.4,0,0.3-0.8,0.1-1C27.6,106.3,27.5,106.5,27.6,106.8 M14.2,106.3
		c0.3,0,0.1-0.6,0.1-0.6C14.2,106,14.3,106.1,14.2,106.3 M25.7,106.3c0-0.2,0.1-0.5-0.1-0.6C25.7,106,25.4,106.2,25.7,106.3
		 M24.7,106.6c0.2,0,0.2-0.9,0-0.9C24.6,106.1,24.8,106.3,24.7,106.6 M24.3,107.1c0-0.2,0.2-1.2-0.1-1.4
		C24.1,106.2,24.1,106.8,24.3,107.1 M23.8,107.2c0-0.6,0.1-1,0.1-1.5h-0.3C23.6,106.2,23.4,107,23.8,107.2 M23.1,107.2
		c0.2-0.3,0.1-0.8,0.1-1.5H23C23.1,106.2,22.9,106.8,23.1,107.2 M22.1,107.2h0.5c0.1-0.4,0.1-1.2,0-1.5c0,0.1-0.3-0.1-0.6,0
		C22.1,106.3,22.1,106.7,22.1,107.2 M21.1,107.2c0.1,0.1,0.4,0,0.6-0.1c0.1-0.4,0-0.9,0-1.5h-0.6C21.1,106.3,21.1,106.7,21.1,107.2
		 M19.8,107.2c0.4,0,0.7,0,1,0.1c0.1-0.5-0.1-1.1,0-1.6c-0.4-0.1-0.7,0.1-0.9,0C19.7,106,19.8,106.7,19.8,107.2 M26.7,105.8
		c0.2,0.2-0.1,0.6-0.1,0.9c0.4,0,0,0.3,0.3,0.3c0.1-0.4-0.1-1,0.3-1.3c0.1,0.1,0.3,0.1,0.3,0.1c0-0.1,0-0.2,0.1-0.3
		C27.4,105.7,26.9,105.6,26.7,105.8 M19.1,107.2h0.3c-0.1-0.4,0.2-1.6-0.2-1.5c0.3,0.1-0.3,0.1-0.2-0.1
		C18.8,106,19.1,106.6,19.1,107.2 M18.7,107.2c0.1-0.6-0.1-1.2-0.2-1.7c-0.1,0.2-0.1-0.1-0.2-0.1C18.4,106,17.9,107.2,18.7,107.2
		 M17.5,107.1h0.3c0.1-0.4-0.1-1.1,0-1.7h-0.3C17.5,106.2,17.6,106.6,17.5,107.1 M15,106.3c0,1.1,0.1-0.3,0.1-0.7
		c0-0.1,0-0.1-0.1-0.1C14.9,105.7,15,106.1,15,106.3 M17.2,107c-0.1-0.5,0.2-1.4-0.1-1.7C17.1,106,16.9,106.6,17.2,107 M16.7,107
		c-0.1-0.2,0.2-1.5-0.2-1.6C16.7,105.9,16.1,106.9,16.7,107 M16,107c0.1-0.5,0.2-1.2-0.1-1.7C16,105.9,15.9,106.6,16,107
		 M15.5,106.4c0.2,0.4,0.2-0.9,0-1.2C15.4,105.7,15.5,106,15.5,106.4 M25.4,105.3c0.7,0.1,1.6,0.1,2.4-0.3
		C27.2,105.2,26.1,105,25.4,105.3 M17.1,104.5c-0.8,0,1.2,0.4,1.2,0.1C18,104.6,17.2,104.5,17.1,104.5 M11.5,100.2
		c-0.5-0.3-1-0.6-1.4-1C10.5,99.7,10.9,100.3,11.5,100.2 M8.9,98.9c-0.5-0.3-1.1-1-1.5-1.1C7.9,98.1,8.4,98.8,8.9,98.9 M37,96.6
		c0.1-0.2,0.5-0.7,0.3-0.7C37.2,96.1,36.9,96.4,37,96.6 M3.2,94.5c1.2,1.8,2.1,4.2,4.3,4.8C5.5,97.8,4.6,96.4,3.2,94.5 M0.6,87.3
		c0.1-0.1,0-0.3-0.1-0.4C0.5,87,0.4,87.2,0.6,87.3 M0.5,86.9c0.1-0.2,0.1-0.5,0-0.8C0.4,86.4,0.4,86.7,0.5,86.9 M4.6,88.7
		c0.3,1.9,1.3,3.3,1.5,5c0.9,1.1,1.3,2.4,2.2,3.5c0.7,0.9,1.8,1.5,2.6,2.1c-1.8-1.5-3.1-3.6-4.2-5.8c-1.2-2.5-1.7-4.8-1.8-8.1
		c0-0.5,0.3-1.5-0.3-1.6C4.6,85.2,4.4,87.2,4.6,88.7 M8.4,97.9C8,97.3,7.5,96.7,7.1,96c-0.4-0.7-1-1.3-1.2-2
		c-0.2-0.5-0.3-1.1-0.5-1.7c-0.2-0.5-0.5-1.1-0.6-1.7c-0.6-2.1-0.4-4.2-0.5-6.9c-0.2,0-0.5-0.3-0.7-0.1C3.6,89.9,4.7,95,8.4,97.9
		 M2.8,83.6c0.2,2.5-0.2,5.2,0.4,7.4c0.3,1.2,1.2,2.5,1.7,3.6c0.6,1.2,1.2,2.2,2.2,2.8c-0.6-0.7-1-1.7-1.5-2.4
		c-0.2-0.2-0.4-0.4-0.6-0.6c-0.7-1.2-1-3.1-1.3-4.7c-0.1-0.6-0.2-0.9-0.2-1.5c0-1.4-0.4-3.5-0.3-4.8c-0.2,0-0.4,0-0.5-0.1V83.6z
		 M6.4,83.1C6,83,5.7,83,5.3,83C5.4,83.3,6,83.2,6.4,83.1 M2,92.1c0.1,0,0.3,0,0.3,0.2c0.1,0.9,0.5,1.5,0.8,2.2
		c-0.8-2.3-1.7-5-1.6-7.8c0-1.2,0.3-2.5-0.1-3.6H1.2C1.4,86.2,1.3,89,2,92.1 M33.6,99.1c1.1-1,2.6-2,3-3.5c0.5,0,0.6-1.1,1-1.5v-0.4
		c1.1-1.9,1.1-4.5,1.3-7.1c0.1-1.2,0.4-2.5,0.1-3.7c0,0.4-0.1,0.6-0.3,0.9c0,2.2-0.4,4.3-0.3,6c-0.8,2.4-2,5.9-3.7,7.8
		c0-0.1,0.2-0.4,0.3-0.2c-0.4,0.2-0.6,1-1,1c0.1-0.2,0.3-0.2,0.4-0.4c-0.3,0-0.7,0.5-0.5,0.6c0-0.1,0-0.2,0.1-0.1
		c0,0.2-0.2,0.2-0.5,0.2c-0.6,0.5-1.4,1.3-2.1,1.6c1.2-1.4,2.6-2.4,3.7-3.7c1-1.4,1.8-3.1,2.4-5c0.8-2.2,0.5-5.3,0.8-7.8
		c-0.4,0-0.5,0.3-0.8,0.3c0,3.7-0.7,8.1-2.2,11c-1.1,2.4-3,4.1-4.8,5.4c0.4-0.5,0.8-1,1.2-1.4c0.5-0.4,1-0.8,1.5-1.2
		c0.7-0.8,1.3-2.1,1.8-3.2c1.4-2.9,1.9-6.4,2-10.5c-0.3,0-0.3,0.1-0.6,0.1c-0.2,2.9-0.2,6.1-1,8.6c-0.3,0.8-0.8,1.5-1,2.3
		c-0.5,0.8-1,1.7-1.4,2.6c-1.1,1-2.1,2.1-3.3,2.9c-0.4,0.3-0.8,0.6-1.3,0.7c1.4-1.3,2.9-2.3,4.2-3.7c0.9-1.7,1.9-3.3,2.6-5.3
		c0.8-2.4,0.6-5.5,0.9-8c-1.8,0.4-3.8,0-5.8,0.1c-2.3,0.1-5-0.1-7.8-0.2c-2.1-0.1-4.2-0.3-6.2-0.3c-3.7,0-7.5,0-11.2-0.1
		c0,1.1,0,2.1,0.1,3.2c0.2,3.6,1.5,6.2,3.1,8.7c1.1,1.7,2.4,3.3,4,4c0.7,1,2,1.1,3.3,1.6c0.9,0.3,1.8,0.7,2.6,0.8
		c1.1,0.2,2.4,0.1,3.1,0.6c-1.1,0.1-2.6,0-3.8-0.3c-1.9-0.5-3.5-1.2-5.1-1.9c-0.1-0.1-0.1-0.2-0.3-0.2c0-0.2-0.2-0.2-0.1,0
		c0,0.1,0,0.2-0.1,0.1c1.6,0.8,3.5,1.6,5.3,2c0.6,0.1,1.3,0.1,1.7,0.6c-2.1,0.1-3.9-1-5.8-1.4c-0.6-0.4-1.4-0.9-2.2-0.9
		c-0.9-0.6-1.7-1.2-2.8-1.6c-1.1-1.2-2.5-2-3.4-3.4c-0.8-1.9-2.1-3.8-2.3-6.2c-0.2-2-0.1-4.6-0.2-6.2c-0.3,0.1-0.2-0.2-0.5-0.1
		c0.2,2-0.3,4.9,0.3,7.1c0.4,1.6,1,3.4,1.7,4.4c0.2,0.3,0.2,0.6,0.3,0.8c0.2,0.2,0.5,0.3,0.6,0.6c0.2,0.2,0.2,0.5,0.4,0.8
		c0.9,1.2,2.3,2.1,3.3,3.2c0.2,0,0.3,0.1,0.4,0c-0.1,0.2,0.1,0.2,0.1,0.3c0.7,0.3,1.3,0.7,1.9,1.1c0.2,0,0.2-0.2,0.5-0.1
		c0.6,0.6,1.4,0.7,2,0.9c1.2,0.5,2.7,0.9,4.2,1.2c0.3,0.1,0.9,0,1.1,0.3c-2.2,0.2-4.4-0.7-6.3-1.3c0.3,0.4,0.4,0.6,0.6,1.1
		c0.5,0,0.9,0.2,1.2,0.4c2.9,0.4,7.4,0.6,11.1,0.7c1.3,0,2.8-0.2,3.5-0.6c-0.2-0.4,0.4-0.8,0-1.3c0.1-0.3,0.2-0.4,0.4-0.5
		c-0.1,0.1-0.4,0.5-0.2,0.6c0-0.4,0.8-0.4,0.6-0.8c0,0.3-0.2,0.2-0.3,0.1c0.3-0.2,0.6-0.2,0.8-0.4c0.2-0.1,0.2-0.4,0.3-0.6
		c0.5-0.4,1.2-0.7,1.7-1c0.4-0.3,0.6-0.8,1-0.7c0-0.1-0.1-0.1-0.1-0.2C33.5,98.9,33.4,99.1,33.6,99.1 M3.3,83
		c-0.1-0.1-0.3-0.2-0.5-0.1C2.7,83.1,3.3,83.3,3.3,83 M4.9,82.9c-0.1-0.1-0.3-0.1-0.4-0.1C4.4,83,5,83.2,4.9,82.9 M4.2,82.8
		C4,82.7,4,82.7,3.7,82.7C3.7,82.9,4.2,82.9,4.2,82.8 M2.4,82.8c-0.3,0-0.4,0-0.5-0.1C2,82.8,2.5,83.1,2.4,82.8 M1,79.2
		c0.1-0.1,0.2-0.6-0.1-0.6C0.9,78.8,0.8,79.1,1,79.2 M38,76.7c0.1,2-0.3,4.1-0.2,5.9c0.1-0.1,0.4-0.2,0.5-0.1c0.2-2.4,0-5.1-0.2-7.5
		C38,75.7,38,76.2,38,76.7 M37.3,82.7c0.2-2.6,0.4-4.9,0.3-8c0-0.1-0.1-0.1-0.1-0.1c-0.1,0.1-0.3,0.1-0.4,0.2c0,2.8-0.3,5.6-0.3,8.3
		c0.1-0.2,0.5,0,0.5-0.3c0-0.1-0.3,0.1-0.3-0.1H37.3z M38.1,75c0.1-0.1,0.2-0.5-0.1-0.5C38.1,74.7,38,75,38.1,75 M3.7,82.1
		c0.2,0,0.3,0,0.5,0.1c0-2.6-0.5-4.8-0.3-7.1c0.5,0.4,0.2,1.3,0.2,2.1c0.1,1.2,0.2,2.7,0.5,3.7c-0.2,0.3-0.4,1.7,0.3,1.5
		c-0.1-1.4-0.1-2.9-0.1-4.4c0-0.9-0.4-2,0.1-2.7c0.4,0.3,0.1,0.8,0.1,1.2c0,1.8,0.1,4.2,0.1,5.9c7.5,1,14.1,1.3,22.6,1.2
		c-0.1,0-0.4-0.1-0.3,0.1c3,0.2,6.3,0.1,8.9-0.4c0.2-2.1,0.2-4.9,0.3-7.1c0-0.3,0.3-0.9-0.1-1.1c-0.2,0,0.1,0.5-0.1,0.6
		c0-0.3-0.2-0.5-0.5-0.5c-0.1,0.2,0.2,0.5-0.3,0.5c-0.3-0.1,0.1-0.5-0.2-0.5c-0.6,0.3-1.6,0.1-1.9,0.6c-0.2,0,0-0.3-0.3-0.3
		c-0.2,0.4-0.4,0.1-0.7,0.1c-0.2,0.1,0,0.4-0.3,0.3c-0.3,0.1,0-0.5-0.4-0.3c-0.3-0.1,0,0.4-0.3,0.3c-0.2,0-0.1-0.3-0.4-0.2
		c-5.8,0.8-10.6-0.3-15-0.1c-1-0.2-2.3-0.3-3.5-0.2c-2.9,0.1-6.9-0.3-9.3-1C3.5,76.9,3.7,79.2,3.7,82.1 M2.8,81.9
		c0.1-0.1,0.3,0.1,0.6,0.1c0.1-1.3-0.1-2.9-0.1-4.5c-0.1-1.2,0-2.4-0.3-3.4c-0.1,0-0.2,0-0.2-0.1C2.6,76.4,2.7,79.4,2.8,81.9
		 M1.9,74c0,2.2,0,4.4,0,5.9c0,0.6-0.2,1.4,0.3,1.9c0.3-0.4,0.2-1,0.2-1.6c0-1.5,0-3.1-0.1-4.4c0-0.7,0-1.4-0.3-1.9
		c0-0.1-0.1-0.1-0.1-0.1V74z M38.6,75.6c0,2.3,0.3,4.1,0.1,6.2c0.3,0,0.2-0.4,0.5-0.4c-0.1-2.2,0-5.3-0.2-7.8
		C38.7,74.1,38.6,74.8,38.6,75.6 M1.2,77.7c0,0.5,0.1,0.9,0.1,1.4c0,0.7-0.4,1.7,0.3,2.3c-0.1-2.9,0-4.8-0.1-6.9
		c0-0.3,0.2-0.7-0.2-0.9H1.2C1.4,74.8,1.2,76.3,1.2,77.7 M28.6,73c0.1,0.8,0,1.6,0.3,2c0.2-0.4,0.2-1.7,0-2.2
		C29,73,28.8,73.1,28.6,73 M27.9,75.1c0.2,0,0.2-0.1,0.4-0.1c0.1-0.6,0-1.4-0.1-2.2c-0.2,0-0.3,0-0.4-0.1
		C27.8,73.6,27.8,74.4,27.9,75.1 M27.1,75.1c0-0.2,0.4,0.2,0.4-0.1c0-0.5-0.1-1.6,0.1-2.2h-0.5C27.2,73.8,27,74.6,27.1,75.1
		 M30.1,74.9h0.5c0-0.8,0.1-1.2,0.1-2.1h-0.6C30.1,73.4,29.9,74.1,30.1,74.9 M29.3,72.8c0.1,0.7-0.2,1.9,0.3,2.1
		c0.1-0.6,0.2-1.6,0.1-2.2C29.7,72.9,29.4,72.7,29.3,72.8 M26.1,75.1c0.2,0,0.3-0.1,0.6-0.1c0.1-0.5,0-1.5,0.1-2.2
		c-0.1-0.1-0.5-0.1-0.7-0.1C26.1,73.5,25.9,74.6,26.1,75.1 M24.8,75h0.8c0-0.8,0.2-1.5,0.1-2.3C24.2,72.3,25,73.9,24.8,75
		 M24.4,72.7c-0.1,0.2-0.4,0-0.6,0.1c0,0.8,0,1.7,0,2.3c0.2,0,0.4-0.1,0.7-0.1C24.4,74.2,24.8,73.4,24.4,72.7 M22.7,75h0.7
		c0-0.7,0.1-1.4,0.1-2.2c-0.4,0-0.6,0-0.8-0.1C22.7,73.5,22.6,74.4,22.7,75 M31,72.7c-0.1,0.2-0.1,0.6-0.1,1c0,0.4-0.2,1,0.2,1
		c0.3-0.4,0.1-1.6,0.1-2.1C31.2,72.7,31.1,72.7,31,72.7 M21.2,74.9c0.2-0.1,0.7,0,1.1,0c0.1-0.9,0-1.4,0-2.2c-0.4,0-0.9,0-1.2-0.1
		C21.1,73.1,20.8,74.5,21.2,74.9 M31.6,72.6c0.2,0.8-0.4,2,0.3,2.1c0.1-0.6,0.1-1.6,0-2.2C32,72.7,31.7,72.6,31.6,72.6 M19.7,74.8
		c0.3,0.1,0.8,0.1,1,0.1c0.1-0.7,0.2-1.6,0.1-2.2c-0.4,0-0.7,0-1-0.1C19.7,73.3,19.8,74.2,19.7,74.8 M18.1,74.7c0.2,0,0.9,0,1.2,0.1
		c0.1-0.8,0.1-1.5,0.1-2.3c-0.6,0-1-0.1-1.5-0.1C17.9,73.4,17.8,74.1,18.1,74.7 M33.3,74.8c0.1-0.6,0.2-1.9-0.1-2.4h-0.1
		C33.1,73.5,32.9,74.1,33.3,74.8 M32.4,72.5c0,0.9-0.1,1.6,0.3,2.4c0.1-0.7,0.1-1.8,0-2.4C32.6,72.5,32.5,72.5,32.4,72.5 M16.2,72.4
		c0.2,0.6,0,1.6,0.1,2.2c0.5,0,0.8,0.1,1.2,0.1c0-1,0-1.7-0.1-2.3C17.3,72.5,16.6,72.4,16.2,72.4 M33.8,74.7
		c0.1-0.8,0.2-1.3,0.2-2.4h-0.3C33.7,73.3,33.8,74,33.8,74.7 M15.1,74.7c0.2-0.1,0.6,0.1,0.9-0.1c0-0.9-0.1-1.3-0.1-2.2
		c-0.2-0.1-0.6,0-0.8-0.1V74.7z M14.1,74.7c0.3,0,0.3-0.1,0.6,0c0.1-0.6,0.1-1.5,0.1-2.2c-0.3,0-0.4-0.1-0.7-0.1
		C14.1,72.9,14,74,14.1,74.7 M34.7,74.6c-0.1-0.9,0.1-1.7-0.1-2.3C34.6,73.1,34.5,74,34.7,74.6 M13.2,72.4C13,73,13.3,74,13.3,74.6
		h0.4c-0.1-0.8,0.1-1.8,0-2.3C13.6,72.4,13.5,72.3,13.2,72.4 M12.6,74.6c0.5-0.1,0.1-0.6,0.1-0.8c0-0.4,0.1-0.8,0.1-1.4
		c-0.1,0-0.2-0.1-0.3-0.1C12.6,73.3,12.5,74,12.6,74.6 M11.9,74.6h0.2c0.2-0.7,0.1-1.4,0.1-2.3h-0.5C11.7,73.3,11.9,74,11.9,74.6
		 M10.9,74.5h0.6c0-0.8,0.1-1.6-0.1-2.2h-0.2C11,73,11,74,10.9,74.5 M9.4,73.2c-0.1-0.3,0.2-0.9-0.1-0.9C9.3,72.5,9.2,73.2,9.4,73.2
		 M8.5,74.3c0.2,0,0.3,0.1,0.6,0.1c0-0.5,0-1.4,0-2.1H8.8C8.8,73.1,8.7,73.8,8.5,74.3 M35,72.4c0.1,0.7,0.1,1.5,0.1,2.3
		c0.2,0.1,0.3-0.1,0.5-0.1c0.1-0.7,0-1.5,0-2.4C35.3,72.2,35.1,72.2,35,72.4 M10.3,72.4c0,0.3-0.1,0.6-0.1,1c0,0.4,0,0.9,0.3,1.1
		c0.1-0.7,0.3-1.6,0.1-2.3h-0.3C10.4,72.3,10.3,72.3,10.3,72.4 M9.6,74.4c0.2-0.1,0.1-0.1,0.3,0.1c0.2-0.8,0-1.4,0.2-2.2
		c-0.1,0-0.1-0.1-0.2-0.1C9.6,72.8,10,73.9,9.6,74.4 M8,74.3c0.1,0,0.4,0.1,0.4-0.1c-0.3-0.6,0.2-1.1,0.1-1.9c-0.2,0-0.3,0-0.4-0.1
		C8.1,73,8,73.8,8,74.3 M7.4,74.2c0.7-0.1,0.2-1.4,0.4-1.9c-0.3,0.1-0.3-0.1-0.6-0.1C7.3,72.9,7,73.7,7.4,74.2 M36.1,74.4
		c0.1-0.7,0.1-1.6-0.1-2.3C36,72.6,35.8,74,36.1,74.4 M6.7,74.2c0.3-0.5,0.1-1.4,0.2-2c-0.2,0-0.3,0-0.3-0.1
		C6.6,72.5,6.5,73.7,6.7,74.2 M36.5,74.3c0.2-0.6,0.1-1.5,0.1-2.3h-0.2C36.4,72.7,36.4,73.9,36.5,74.3 M37.1,74.1
		c0.2-0.4,0-1.6-0.1-2.1C37,72.8,36.8,73.7,37.1,74.1 M37.6,73.5c-0.1-0.6,0.2-1.5-0.1-1.8C37.2,72.2,37.5,73.2,37.6,73.5 M5,74
		c0.4,0.1,0.9,0,1.2,0.1c0.2-0.6,0-1.4,0-2.1C6,72,6,71.9,5.8,71.9c-0.1,0.7,0.1,1.6-0.3,2c-0.1-0.7,0.2-1.5,0-2.1H5.1
		C5.1,72.3,5.1,73.3,5,74 M38.8,72.9c0.2-0.3,0.2-1.2,0.1-1.2C38.7,72,38.7,72.4,38.8,72.9 M37.9,72.6c0,0.3-0.1,0.9,0.1,0.8
		c-0.1-0.3,0-1.5-0.1-1.8C37.9,71.9,37.9,72.3,37.9,72.6 M4.4,71.8c0.1,0.4-0.1,0.8-0.1,1.1c0,0.3,0,0.9,0.3,1
		c0.4-0.5,0.1-1.6,0.2-2.2c-0.2,0.1-0.3-0.1-0.4-0.1V71.8z M29.3,72.2c0.1,0.1,0.4,0.1,0.5,0c-0.1-0.2,0-0.3-0.1-0.6h-0.3
		C29.4,71.9,29.4,71.9,29.3,72.2 M31.1,72.2c0-0.1,0.1,0,0.2,0v-0.7h-0.3C31.1,71.7,30.8,72.1,31.1,72.2 M30.2,72.2
		c0.2,0,0.3-0.1,0.5-0.1c0.1-0.3-0.1-0.4-0.1-0.7h-0.4C30.2,71.9,30.1,71.9,30.2,72.2 M28.7,72.3c0-0.2,0.3,0,0.3,0v-0.8
		c-0.2,0-0.4,0-0.5-0.1C28.6,71.8,28.5,72.2,28.7,72.3 M31.6,72.1H32c0-0.4,0-0.4,0.1-0.7h-0.4C31.6,71.6,31.6,71.8,31.6,72.1
		 M27.9,72.3h0.4c0-0.4,0-0.8-0.3-0.9C27.9,71.7,27.9,72,27.9,72.3 M3.6,73.5c0.1,0.1,0.4,0,0.5,0.1c0-0.9-0.1-1.4,0-2.1
		c-0.1,0-0.2-0.2-0.4-0.1C3.7,72.4,3.6,72.5,3.6,73.5 M2.1,72.2c-0.2,0,0-0.9-0.1-0.7C2,71.7,1.8,72.3,2.1,72.2 M33.1,72
		c0-0.1,0.1-0.1,0.2-0.1c-0.1-0.3,0.1-0.4,0.1-0.6h-0.3C33.2,71.5,33,71.9,33.1,72 M32.5,71.4c0,0.3-0.1,0.4-0.1,0.6
		c0.1,0.1,0.1,0,0.3,0c0-0.3,0-0.5,0.1-0.7C32.6,71.3,32.6,71.5,32.5,71.4 M27.1,71.4c0,0.3-0.1,0.7,0.1,0.9
		c0.2,0.1,0.3-0.1,0.4-0.1c-0.1-0.3,0.1-0.8-0.1-0.9C27.5,71.5,27.2,71.4,27.1,71.4 M26.1,72.3h0.7c-0.1-0.3,0-0.7-0.1-1
		C26,71.3,26.2,71.7,26.1,72.3 M33.7,71.9H34c0.1-0.1,0.1-0.5,0.1-0.7C33.6,71.1,33.7,71.6,33.7,71.9 M38.4,72.2
		c0-0.2,0.1-1-0.1-0.9C38.4,71.5,38.3,72.3,38.4,72.2 M24.9,72.2c0.1,0,0.7,0.2,1,0c-0.1-0.2,0.1-0.7,0.1-1c-0.3,0-0.8-0.1-1.1-0.1
		C25,71.5,24.8,71.9,24.9,72.2 M23.9,72.2c0.1,0,0.5,0.1,0.7,0c0-0.4-0.1-0.7,0.1-1h-0.8C24,71.4,23.8,71.7,23.9,72.2 M22.6,71.2
		c-0.1,0.4,0.1,0.7,0,0.9c0.2,0.1,0.6,0.1,0.9,0.1c0-0.3,0-0.9,0-1C23.4,71.2,23,71.2,22.6,71.2 M21.3,72c0.2,0,0-0.3,0.2-0.2
		c0,0.1,0,0.2-0.1,0.2c0.4,0,0.5-0.1,0.8,0.1c0.2-0.2-0.1-0.5,0-0.8c-0.5-0.2-0.7,0-1.1-0.1C21.1,71.3,21,72,21.3,72 M19.8,71.2
		c0,0.4,0,0.4,0,0.8c0.3,0.1,0.6-0.1,1,0.1c0.1-0.4-0.1-0.6-0.1-0.9C20.4,71.1,20,71.2,19.8,71.2 M17.9,72.1c0.6,0,0.9-0.1,1.5,0
		c-0.1-0.2,0-0.8-0.1-1c-0.4,0.1-0.9,0-1.3-0.1C17.8,71.4,17.9,71.7,17.9,72.1 M16.3,72c0.5,0,0.8,0,1.2,0.1c0-0.5-0.1-0.5-0.1-1
		h-1.2C16.2,71.4,16.2,71.7,16.3,72 M35.1,71c-0.1,0.2,0,0.5-0.1,0.7c0.1,0.1,0.4,0,0.6-0.1c0-0.3,0-0.6-0.2-0.7
		C35.3,71.1,35.2,71.1,35.1,71 M15.1,71.9c0.1,0.1,0.5,0,0.8,0.1c0-0.3-0.1-0.7,0.1-0.9c-0.3,0-0.7,0.1-0.8-0.1
		C15.1,71.5,15.3,71.5,15.1,71.9 M14.1,71.7c0.2,0.1,0.5,0,0.7,0.1c0-0.3-0.1-0.5-0.1-0.9h-0.5C14.2,71.3,14.1,71.4,14.1,71.7
		 M35.9,71.6c0.1-0.1,0-0.5,0.1-0.7c-0.1,0-0.2,0-0.2,0.1C36,71.1,35.6,71.5,35.9,71.6 M13.1,71.6c0.3,0,0.5,0.1,0.7,0.1
		c0.1-0.5-0.3,0-0.3-0.4h0.3c-0.1-0.2,0.1-0.2,0.1-0.3h-0.7C13.2,71.4,13.3,71.3,13.1,71.6 M12.5,71.2c0.1,0,0.2,0,0.3,0.1v-0.4
		h-0.3V71.2z M36.3,71.5c0.1,0,0.2-0.1,0.3-0.1c-0.1-0.2,0-0.6-0.2-0.6C36.3,70.9,36.4,71.2,36.3,71.5 M11.7,71.4
		c0.1,0,0.4,0.1,0.4-0.1c-0.1-0.1,0.1-0.4-0.1-0.6c0,0.2-0.2,0-0.3,0V71.4z M11.3,71.4c-0.1-0.2,0.1-0.7-0.1-0.6
		C11.2,71.1,11,71.3,11.3,71.4 M3.3,73.5c-0.2-0.9,0.4-1.9-0.2-2.4c-0.1,0.8,0.2,1.3-0.3,1.8c-0.1-0.7,0-1.2-0.1-2
		c-0.2,0-0.3-0.1-0.4-0.1C2.6,71.9,2,73.2,3.3,73.5 M10.7,71.3c-0.1-0.4,0-0.1,0-0.6c-0.1,0-0.2,0-0.2-0.1
		C10.4,70.9,10.4,71.4,10.7,71.3 M10,71.3c0.1-0.1,0.3-0.6,0-0.6C10,70.8,9.7,71.2,10,71.3 M9.5,71.3c0-0.3,0.1-0.3,0.1-0.6
		c-0.1,0-0.1-0.1-0.2-0.1C9.5,70.9,9.2,71.1,9.5,71.3 M9,70.8c0-0.1,0.1-0.4-0.1-0.3C8.8,70.6,8.8,70.8,9,70.8 M1.7,71.7
		c0-0.3,0.1-0.9-0.1-1.2H1.4C1.3,71,1.4,71.5,1.7,71.7 M37.2,70.5V71c0.4,0.1,0.5-0.6,0.2-0.6C37.4,70.5,37.3,70.5,37.2,70.5
		 M8.2,71.1h0.3c-0.1-0.2,0.1-0.7-0.2-0.7C8.2,70.6,8.2,70.8,8.2,71.1 M7.4,71c0.2-0.1,0.2,0,0.5,0c-0.1-0.3,0-0.3,0-0.7H7.4V71z
		 M6.4,71H7c-0.1-0.3,0-0.3,0-0.7H6.4V71z M6.1,70.9c0-0.3-0.1-0.4-0.1-0.7H5.8C5.9,70.5,5.7,71,6.1,70.9 M5.1,70.8
		c0.2-0.1,0.2,0.1,0.3,0.1c0-0.3-0.4-0.4-0.1-0.7H5.1V70.8z M4.4,70.6c0-0.2,0.1,0.1,0.2,0.1c0-0.3,0-0.5,0.1-0.7H4.4
		C4.4,70.2,4.3,70.6,4.4,70.6 M2.4,70.1c0.2-0.1,0.2,0.1,0.4,0.1c-0.2-0.2-0.4-0.4-0.2-0.8c-0.1,0-0.2-0.1-0.3-0.1
		C2.3,69.6,2.4,69.8,2.4,70.1 M1.7,69.7c0-0.3,0.1-0.6-0.3-0.5C1.3,69.6,1.5,69.6,1.7,69.7 M22.6,67.9c0.2,0,0.3-0.1,0.5-0.1
		c0-0.3-0.1-0.5-0.1-0.9h-0.6C22.5,67.3,22.4,67.7,22.6,67.9 M22.1,67.9c0-0.3-0.1-0.6-0.1-1h-0.6C21.6,67.4,21.4,68,22.1,67.9
		 M20.4,67.9h0.8c-0.1-0.4,0-0.6-0.1-1c-0.3,0.1-0.4,0-0.8,0C20.4,67.4,20.5,67.6,20.4,67.9 M29.8,67.9c0-0.3,0.3-1-0.1-1
		C29.9,67.3,29.6,67.6,29.8,67.9 M29.3,67.9c-0.1-0.4,0-0.5,0-1h-0.2C29,67.2,29.1,67.7,29.3,67.9 M24.4,67.2
		c0.2,0.1,0.4,0.4,0.2,0.6c0.2,0,0.4,0,0.5,0.1c0-0.5-0.2-0.7-0.1-1h-0.6C24.5,67.1,24.4,67.1,24.4,67.2 M23.4,67c0,0.4,0,0.8,0.3,1
		c0-0.2,0.3,0,0.5-0.1c-0.1-0.3,0-0.6-0.1-0.9C23.7,66.9,23.7,66.9,23.4,67 M19.4,67.9c0.2-0.1,0.3,0,0.6,0c0-0.4,0-0.7-0.1-1
		c-0.4,0-0.5-0.1-0.9-0.1C19.1,67.3,19.2,67.6,19.4,67.9 M18.4,67.9h0.5c-0.1-0.4-0.2-0.6-0.3-1h-0.2C18.2,67.2,18.6,67.6,18.4,67.9
		 M17.8,67.8c0.4-0.1,0.1-0.5,0.2-0.9h-0.4C17.6,67.2,17.8,67.4,17.8,67.8 M30.4,66.8c-0.1,0-0.3,0-0.3,0.1
		C30.4,67.4,30.2,67.8,30.4,66.8 M28.4,67.5c0.4,0,0,0.4,0.3,0.4c0.1-0.5-0.3-0.7-0.1-1c-0.1,0-0.2,0-0.3-0.1
		C28.4,67.1,28.4,67.2,28.4,67.5 M28,67.9c0-0.4,0.2-1.2-0.3-1C27.9,67.1,27.6,67.9,28,67.9 M26.3,67.9c0.2,0,0.2,0.1,0.5,0.1
		c0-0.3,0-0.6,0-1c-0.1-0.1-0.3-0.1-0.5-0.1V67.9z M25.4,66.9c0,0.4,0.1,0.7,0.1,1c0.2-0.1,0.3,0.1,0.4,0.1c0.1-0.4-0.1-0.6-0.1-1
		C25.7,66.8,25.7,66.9,25.4,66.9 M16.7,67.7c0.3,0,0.3,0.1,0.6,0.1c-0.1-0.4,0-0.5-0.1-1c-0.2,0.1-0.3,0-0.6,0
		C16.6,67.2,16.8,67.4,16.7,67.7 M16.2,67.7c0.1-0.2,0.2-0.9-0.1-0.9h-0.1C16,67.1,15.8,67.8,16.2,67.7 M31.9,67.7
		c0.2-0.5-0.1-0.7-0.3-1C31.7,67.2,31.7,67.6,31.9,67.7 M31.2,67.7c0.1-0.2,0.2-1-0.2-1C30.9,67,30.8,67.8,31.2,67.7 M27.1,66.8
		c0,0.5,0,0.9,0.3,1.1c-0.1-0.6,0.2-0.9-0.1-1.2C27.3,66.8,27.2,66.8,27.1,66.8 M15.2,67.5c0.2-0.1,0.3,0.1,0.3,0.1
		c0-0.4,0-0.4,0-0.8c-0.1,0-0.2-0.1-0.3-0.1C15.2,67,15.3,67.1,15.2,67.5 M14.8,67.6v-0.8h-0.3C14.7,67.2,14.3,67.5,14.8,67.6
		 M32.2,67.2h0.1v-0.6C32.1,66.6,32.3,67.1,32.2,67.2 M13.8,67.2c0.2,0,0.3,0.1,0.3,0.3c0-0.3,0-0.6-0.1-0.8c-0.2,0-0.1,0-0.3,0
		C13.8,66.8,13.8,67,13.8,67.2 M13.5,67.4c0-0.3,0-0.5-0.1-0.8h-0.3C13.1,67.1,13.1,67.4,13.5,67.4 M12.8,67.4
		c-0.1-0.2,0-0.6-0.2-0.7C12.7,66.9,12.5,67.3,12.8,67.4 M12.2,67.4v-0.7h-0.4C11.8,67.1,11.8,67.4,12.2,67.4 M10.9,67.2
		c0-0.1,0.2-0.6-0.2-0.6C10.7,66.9,10.7,67.2,10.9,67.2 M10.3,67.2c0.1-0.3-0.1-0.7-0.2-0.5C10.2,66.7,9.9,67.2,10.3,67.2 M9.7,67.2
		v-0.6c-0.1,0-0.3,0-0.3,0.1C9.6,66.7,9.5,67.1,9.7,67.2 M34.6,67.6c0-0.4,0.1-0.9-0.1-1.1h-0.2C34.5,67,34.3,67.3,34.6,67.6
		 M36.7,67.2c-0.1-0.1,0-0.8-0.1-0.8C36.7,66.8,36.2,67.2,36.7,67.2 M8.6,67c-0.1-0.2,0.1-0.6-0.1-0.6C8.5,66.6,8.4,66.9,8.6,67
		 M8,66.9c0.1-0.1,0.2-0.7-0.1-0.6C7.9,66.5,7.8,66.9,8,66.9 M37,66.3c-0.1,0.3,0.2,0.4,0.2,0.6c0.3-0.1,0.5-0.3,0.6-0.6
		C37.6,66.1,37.3,66.1,37,66.3 M7.1,66.7c0-0.3,0-0.6,0.1-0.8c-0.2,0-0.2-0.1-0.4-0.1C6.9,66.1,6.7,66.7,7.1,66.7 M6.5,66.7
		c-0.1-0.2,0-0.8-0.3-0.8C6.2,66.3,6.2,66.7,6.5,66.7 M1.9,67.9c1.1,0.9,2.9,1.3,4.6,1.6c3.1,0.5,6.5,1,9.9,1c1.4,0,2.8,0.2,4.2,0.3
		c1.1,0,2.3-0.2,3.5-0.1c2.1,0,4.1,0,6.3-0.1c1.1-0.1,2.3,0.1,3.3-0.1c0.5-0.1,1.1-0.2,1.7-0.3c0.6-0.1,1.4-0.2,1.9-0.3
		c1.2-0.4,1.5-1.6,1-2.6c-3.9,2-9,1.5-13.7,1.4c-0.8,0-1.6,0.1-2.4,0.1c-0.5,0-1.1-0.2-1.7-0.2c-4.1-0.2-8.2-0.4-12.4-0.7
		c-0.7,0-1.3-0.3-2-0.2C5.5,67,4.8,66.9,4,66.6c-0.2-0.3-0.4-0.6-0.6-0.9C2.7,66.3,1.6,66.6,1.9,67.9 M4.9,66.2c0-0.4,0.1-1-0.3-1
		C4.8,65.4,4.4,66.2,4.9,66.2 M4.3,65.9c-0.1-0.3,0-1.2-0.3-1C4.1,65.1,3.9,65.8,4.3,65.9 M36,65.4c0.3,0,0.7-0.1,0.8-0.5
		c-0.1,0-0.1,0-0.1-0.1C36.3,64.9,36.2,65.3,36,65.4 M5.3,64c0.1,0.6,0.8,0.6,1.3,0.8c4.3,1,9.7,1.4,14.2,1.2
		c4.4,0.3,10.5,0.6,14.8-0.5c0.2-0.3,0.8-0.5,0.7-0.8c-0.4,0.3-0.6-0.3-1-0.4c-2.2,0.3-4.5,0.1-6.6,0.1c-1.2,0-2.4,0.1-3.5,0.1
		c-1.3-0.1-2.7-0.1-4.1,0c-2.7,0.1-5.4,0.1-7.6,0.2c-0.8,0-1.7,0.3-1.9-0.1c0.7,0,1.6-0.1,2.5-0.1c0.1,0,0.5,0,0.3-0.1
		c-2.2-0.1-4.5-0.2-6.9-0.4c-0.2,0-0.2,0.2-0.5,0.2c-0.3-0.3-1.1-0.3-1.2-0.3C6,64.1,5.3,64,5.3,64 M14.1,63.7c0.2,0,0.3,0,0.4,0.1
		C14.5,63.5,14.1,63.5,14.1,63.7 M20.2,63.4c-1.9,0.2-4.1-0.3-5.6,0.3c1.9,0.1,3.7,0.1,5.5,0.1c1.7,0,3.4,0.1,5,0.1
		c0.3,0,0.9,0.2,1.1-0.2C24.4,63.8,22,63.2,20.2,63.4 M13.5,63.1c0.1-0.3,0.1-0.5-0.1-0.8C13.4,62.5,13.4,62.9,13.5,63.1 M6.4,63.1
		c0.2,0,0.3,0,0.3,0.1C6.7,62.8,7,62,6.6,62C6.5,62.3,6.5,62.7,6.4,63.1 M27.6,63.3c-0.1,0-0.1-0.1-0.1,0.1c0.4,0.1,0.2-0.7,0.1-0.8
		c-0.3,0.2,0-0.6-0.2-0.7h-0.2C27.3,62.4,27.5,62.8,27.6,63.3 M28.2,63.8c-0.1,0-0.3,0-0.3,0.1h0.4c0-0.6,0.2-1.2,0.1-2h-0.2
		C28.1,62.4,27.8,63.3,28.2,63.8 M28.5,63.8c0.3,0,0.3-0.1,0.6-0.1c0.1-0.5,0-1.4-0.1-2h-0.2C28.7,62.7,28.9,63.5,28.5,63.8
		 M30.2,61.8c-0.1,0.6,0.2,1.4-0.1,1.7c-0.6-0.3,0-1.6-0.7-1.7c-0.2,0.6,0,1.4-0.1,2c2,0,4-0.2,5.6-0.2c-0.2-0.5-0.2-1.3-0.3-1.9
		C33.2,61.7,31.7,61.7,30.2,61.8 M5.9,61.8c0,0.4,0,0.8-0.1,1.1c0.2,0,0.3,0,0.4,0.1c-0.1-0.5,0.2-0.7,0-1.3
		C6.2,61.8,5.9,61.7,5.9,61.8 M5.5,62.9c0-0.5,0.3-1.2-0.1-1.7C5.3,61.7,5.3,62.6,5.5,62.9 M11.4,63.3c0.7,0.1,1.3,0.4,1.9,0.3
		c0-0.5,0-1.6,0.1-2.1C12,61.3,9,61.3,7.8,61.3c-0.3,0.6,0.4,1.4-0.3,1.6c-0.1-0.6-0.2-1.2-0.4-1.6c0.1,0.6,0.1,1.2,0,1.8
		C8.4,63.5,10.1,63,11.4,63.3 M28.6,60.8c0.1,0,0.2-0.5,0.1-0.6c0,0.2-0.2,0-0.3,0C28.4,60.4,28.2,60.8,28.6,60.8 M7.5,60.2
		c0.3-0.1,0.1-1.2,0.1-1.2C7.6,59.5,7.4,59.8,7.5,60.2 M6,59.6C6,59.4,6.2,59,6,58.8C6,59.1,5.9,59.5,6,59.6 M6.4,60
		c0.4-0.9,0.3-2,0.3-2.8C6.4,58,6.4,59,6.4,60 M28.5,60.1c0-0.2,0.1,0.1,0.3,0c-0.1-0.9-0.1-2.4-0.1-3.3
		C28.6,57.8,28.3,59.3,28.5,60.1 M10.8,55.3c-0.2,0,0.1-0.5-0.1-0.6C10.5,54.9,10.7,55.5,10.8,55.3 M29.1,56
		c0.2-0.6,0.8-1.8,0.4-2.2C29.5,54.3,29.2,55.5,29.1,56 M9.6,54.1c0.6,0,1.2-0.2,1.5-0.5C10.6,53.8,10.1,53.9,9.6,54.1 M3.5,54.2
		c0-0.2,0-0.5-0.1-0.6C3.4,53.8,3.4,54.1,3.5,54.2 M12.3,53.5c0.1-0.1,0.7-0.1,0.5-0.3C12.8,53.4,12.2,53.4,12.3,53.5 M10.5,53.5
		c-0.1-0.2,0.5-0.3,0.1-0.3c-0.5,0.2-1.1,0.3-1.5,0.6C9.4,53.8,10,53.5,10.5,53.5 M29.5,53.6C29.6,52.9,29.3,52.9,29.5,53.6
		 M9.3,53.2c0.6-0.1,0.9-0.1,1.3-0.3C10.1,52.9,9.8,52.9,9.3,53.2 M11.1,52.7c0.2,0,0.5,0,0.6-0.2C11.5,52.6,11.2,52.6,11.1,52.7
		 M4,52.3c0.2-0.3,0.4-0.5,0.6-0.8C4.3,51.6,4,52.1,4,52.3 M28.2,55.4c0.2,0,0.4-0.4,0.2-0.5C28.4,55.2,28.3,55.2,28.2,55.4
		 M27.4,60c-0.3-1.2,0-2.2,0.1-3.4c0-0.2,0.3-0.1,0.3-0.3c0.2-1.1,1-1.8,1-2.8c0.1-1.4-1.4-1.4-2-2.4c-0.3,0-0.4-0.2-0.7-0.3
		c-4.9,1.5-9.8,2.1-14.5,3.7c0.1,0.3-0.1,0.5-0.1,0.7c-0.1-0.1-0.2-0.6-0.4-0.4c0,0.9,0.9,1.5,1.5,1.5c0,0.1-0.2,0.1-0.1,0.2
		c0.7,0.7,0.6,2.6,0.5,4c0.7,0.2,1.6-0.2,1.8,0.5c0.1,0.4-0.3,0.8-0.2,1.5c3.6,0,7.2,0.3,11,0.1c0.1,0.3,0.2,0.1,0.5,0.2
		c0.2-0.4,0-1.1-0.1-1.5c0.2-0.1,0.2-0.3,0.3-0.4c0.5,0.1,0.5-0.2,0.8-0.2c0,0.1,0,0.2,0.1,0.2c0.2,0-0.1-0.2,0.1-0.2
		c0.2,0,0.4,0.4,0.5,0.1c-0.3,0,0.1-0.1,0-0.3C27.6,60.3,27.4,60.2,27.4,60 M5.3,51.4c0.4,0.2,0.6-0.4,0.8-0.6
		C5.7,51,5.5,51.1,5.3,51.4 M4.7,50.6C4.7,50.7,4.8,50.8,4.7,50.6c0.4-0.2,0.7-0.4,1-0.6C5.3,50.1,5.1,50.4,4.7,50.6 M30.2,53.6
		c0.1,1.2-0.7,2.1-1,3.1c-0.4,1.2,0.1,2.8-0.1,4.1c0.6-0.9-0.1-2.6,0.1-3.5c0-0.2,0.1-0.7,0.5-0.6c0.2,0.2,0,0.4,0,0.6
		c0,0.8,0.1,2,0,2.8c0,0.3-0.3,0.6-0.1,0.7c0.7-0.9,0-2.8,0.6-3.7c0.4,0.1,0.1,0.5,0.1,0.8c0,0.9-0.1,2-0.2,3c1,0,1.8,0.1,2.8,0.1
		c0-0.3-0.3,0-0.3-0.3c0.5-2.4-0.1-6.2,2.1-7.4c0.9-1.4,0.2-3-0.5-4.2c-1.4,0.4-2.9,0.7-4.1,1.3c0.8-0.1,1.6-0.4,2.1-0.4
		c-0.7,0.8-2.4,0.6-3.1,1.2c1,0,2-0.7,2.9-0.4c-0.8,0.4-1.9,0.5-2.6,0.9C29.7,52.3,29.8,53.1,30.2,53.6 M35.6,50.9
		c0.1,0.8-0.1,1.8-0.4,2.5c-0.7,0.6-1.5,1.1-1.7,2.1c-0.1,0.7-0.1,1.5-0.2,2.4c-0.1,1-0.4,2.2-0.2,3.1c-0.1,0-0.2,0-0.1,0.1
		c0.2-0.2,0.2,0.1,0.4-0.3c-0.1,0.2,0.2,0.1,0.3,0.1c0.3-1.4,0-3.3,0.2-4.7c0.1-0.4,0.3-0.8,0.2-1.2c0.2,0,0.1,0.1,0.3,0
		c0.3-0.8,1-1.1,1.4-1.8c0.2-1.6,0.4-3.5-1-4.2C35.1,49.7,35.1,50.5,35.6,50.9 M6,49.9c1.4-0.5,3.1-0.7,4.6-1.2
		C9,49,7.3,49.2,6,49.9 M15.7,52.5c1.2-0.3,2.5-0.7,3.8-1.1c2.9-0.9,6.2-1.6,8.8-2.4c0.2-0.1,0.6-0.1,0.6-0.3
		c-5.3,1.5-10.6,2.4-15.7,4.2c0.2,0,0.2,0.2,0.3,0.3c0.1-0.2,0.2-0.5,0.4-0.2h-0.2C14.1,53.2,15.5,52.3,15.7,52.5 M34.1,48.4
		c-0.5,0.3-1.2,0.5-1.8,0.7c-0.6,0.2-1.3,0.3-1.9,0.7c1.2-0.2,2.3-0.7,3.5-0.9c0-0.2,0.3-0.4,0.4-0.2C34.4,48.5,34.3,48.4,34.1,48.4
		 M34.7,48.6c-0.1,0-0.1-0.3-0.2-0.3C34.4,48.5,34.6,48.9,34.7,48.6 M29.2,48.7c0.4-0.1,0.8-0.1,1.2-0.3c-0.1,0-0.1,0-0.1-0.1
		c0.1,0,0.2,0,0.2-0.1C30.1,48.5,29.1,48.4,29.2,48.7 M13.9,48.2c0.3,0,0.5,0,0.6-0.1C14.3,48.1,14.1,48.1,13.9,48.2 M31.5,48.2
		c0.4-0.1,0.8-0.2,1.1-0.3C32.3,47.9,31.6,48.1,31.5,48.2 M12.5,48.2c0.6-0.1,1.2-0.2,1.7-0.4C13.5,47.8,13,47.9,12.5,48.2 M14.8,48
		C14.7,48,14.5,48.1,14.8,48c0.7,0,1.7-0.3,2.6-0.6C16.5,47.6,15.6,47.8,14.8,48 M33.1,47.7c0.3-0.1,0.8,0,0.9-0.3
		C33.7,47.5,33.3,47.5,33.1,47.7 M17.6,47.5c0-0.2,0.6,0.1,0.5-0.2C17.9,47.3,17.4,47.3,17.6,47.5 M11.1,46.8c0-0.1,0.1-0.1,0.1-0.1
		c-0.2,0,0-0.3-0.2-0.2C10.9,46.6,11,46.8,11.1,46.8 M20,46.5c0.3-0.1,0.8,0,0.9-0.3C20.6,46.3,20.2,46.3,20,46.5 M21.2,46.2
		c0.4-0.1,1-0.2,1.5-0.3c0.4-0.1,1.3-0.3,1.2-0.4C22.9,45.8,21.9,45.7,21.2,46.2 M14.5,45c-0.8,0.2-1.6,0.4-2.2,0.7
		c1.4-0.2,2.3-0.6,3.7-0.7C15.6,44.7,15.1,44.9,14.5,45 M34.5,47.3c0.6,0.4,1-0.6,1.6-0.8c0-0.6,0.7-0.7,0.5-1.2
		c-0.1,0.2-0.1,0.5-0.3,0.5c0.2-0.2,0.2-0.7,0.2-1.2c-0.3,0.1-0.1,0.4-0.2,0.6c-0.2,0.6-0.8,0.9-0.8,1.4c0.3-0.1,0.5-0.7,0.7-0.6
		C35.7,46.6,35.4,47.1,34.5,47.3 M13.7,44.7c0.4-0.1,0.9,0,1.2-0.3C14.6,44.2,13.7,44.3,13.7,44.7 M3.4,44.1c0-0.3,0.6-0.6,0.3-0.8
		C3.6,43.6,3.2,43.8,3.4,44.1 M36.5,44.4c0-0.1,0-0.2,0.1-0.3c0,0.3-0.2,0.7,0,0.9c0-0.8,0.3-2.2,0.1-2.8
		C36.7,42.5,36.5,43.6,36.5,44.4 M12.7,46.5c2.2-0.4,4.3-1,6.4-1.4c2-0.3,3.9-1,5.9-1.5c1.9-0.5,3.6-0.3,4.7-1.3
		c-0.6-0.1-1.2-0.7-1.7-0.6c0.4,0.2,1.1,0.4,1,0.9c-0.6-0.3-1.2-0.9-1.9-0.8c0.5,0.2,1,0.3,1.3,0.8c-0.9-0.1-1.8-0.9-2.8-0.9
		c0.2,0.2,0.6,0.4,1,0.5c0.1,0.4,0.8,0.2,0.8,0.7c-0.9-0.3-1.8-1-2.7-1c0.4,0.3,1,0.3,1.2,0.9c-0.7-0.1-1.5-1.1-2.4-0.6
		c0.4,0.2,0.9,0.3,1.2,0.8c-1-0.4-1.8-0.7-3-0.5c-0.5,0.1-1,0.3-1.4,0.5c-1.8,0-3.3,0.7-5.2,1.2c0.7,0.2,1.5,0.3,1.7,1
		c-0.3,0-0.8-0.2-1.2,0.1c0.1,0.1,0.4-0.1,0.6,0.1C15,45.9,13.4,45.9,12.7,46.5 M3.6,42.1c0.2-0.5,0.8-0.6,1-1
		C4.2,41.3,3.5,41.7,3.6,42.1 M3.9,43.3c1-0.9,2.2-1.6,3.7-2.1c0-0.1,0.1-0.2,0-0.2C6.2,41.6,4.3,42,3.9,43.3 M4.7,51.9
		c-0.4,0.3-0.7,1.1-1.2,0.8c-0.1,1,0.3,1.3,0.3,2.1h0.3C3.7,53.8,4.5,52.6,4.7,51.9 M28.8,43.7c-1.1,0.4-2.4,0.6-4,1
		c-4,0.9-8.4,1.9-12.5,2.8c-0.2,0-0.4,0.1-0.6,0.1c-2.5,0.7-5.2,1.2-7.3,2.4c0,0.3-0.5,0.5-0.3,0.7c1.7-2,5.1-2,7.6-2.8
		c2.6-0.8,5.8-1.2,8.7-2c1.4-0.4,2.9-0.6,4.2-0.8c0.7-0.1,3.3-1.2,3.6-0.4c-0.6,0-1.4,0.3-2,0.3c0,0.2,0,0.3-0.1,0.4
		c-2.8,0.6-4.8,1.3-7.9,1.7c-0.1,0.2,0.2,0.1,0.1,0.3c-1.3,0.4-3,0.8-4.6,1.1c-0.6,0.1-1.3,0.2-1.8,0.1c-0.3,0.5-1.1,0.4-1.6,0.6
		c-1.1,0.4-2.5,0.8-3.6,1.2c0.1,0.1,0.4,0,0.3,0.3c-0.7,0.5-1.7,1-1.8,1.9c0.5-0.4,1-1.7,1.7-1.2c-0.8,0.4-1.1,1.3-1.7,2
		c-0.1,0.6,0.4,1,0,1.4c-0.6-0.4-0.1-1.7-0.5-2.2c-0.3,0.6-0.4,1.5-0.2,2c0,0.2-0.4,0-0.4,0.1c0.2,0.3,0.7,1.2,0.8,0.6
		c0,0.3,0.2,0.1,0,0.4c0.3,0.1,0.7,0.2,1,0.3C6.2,56.9,6,57.8,6,58.8c0.3-0.9-0.2-2,0.4-2.4c0.4,0.1,0.1,0.4,0.3,0.7
		c0-0.2,0.2-0.1,0.3-0.1c0,0.5,0,1.1,0,1.7c0,0.6-0.5,1.4-0.1,1.7c0.4-0.8,0.1-1.9,0.3-2.9c0.1-0.1,0.2,0,0.3,0v1
		c0.1,0,0.4-0.1,0.3,0.1c0,0.7,0.1,1.2,0,1.9c1.4,0.2,3.3,0.3,4.4,0.2c-0.3-1,0.3-2.4,0.1-3.3c-0.3-1.1-2-0.7-2.5-1.7
		c-0.1,0.5,0.5,0.4,0.5,0.8c-0.1,0-0.1,0.2-0.3,0.1C9.4,56.1,9.3,55,10,54.6c-0.4,0-0.7,0.6-0.9,0.6c0-0.3,0.3-0.3,0.3-0.5
		c-0.3-0.1-0.4,0.4-0.6,0.2c0-0.2-0.2-0.4-0.1-0.6c0,0.1-0.3,0.3-0.3,0.1c0-0.3,0.3-0.2,0.2-0.6c-0.1-0.2-0.2,0.1-0.3-0.1
		c-0.1-0.2,0.1-0.3-0.1-0.4c-0.1,0.2-0.5,0.1-0.5-0.2c2.4-0.7,4.9-1.2,7.4-2.1c5.1-0.9,10.2-3,15.7-4c0.4-0.2,1.2-0.6,1.5-0.2
		c-2.1,0.8-4.2,1-6.2,1.5c-1.2,0.3-2.5,0.7-3.7,1.1c-1.3,0.4-2.6,0.8-4,1.1c-0.9,0.2-1.8,0.7-2.8,0.8c-1.4,0.2-2.7,0.5-3.9,1.1
		c1.6-0.2,3-0.5,4.4-1c2.2-0.8,4.6-1.2,7.1-1.7c3-0.7,5.9-1.7,8.9-2.4c-0.1,0-0.2,0-0.1-0.1c1.9-0.8,3.5-2,3.4-4.9
		c0.1,0,0-0.4,0.3-0.3c0.4,1.3-0.2,2.8-0.8,3.7c-0.5,0.7-1.4,0.9-1.7,1.5c0.3-0.2,0.7-0.3,1.1-0.3c0.4-0.5,0.9-0.9,1.3-1.3
		c0.3-0.9,0.7-1.8,0.7-2.8c0-1-0.7-1.8-0.4-2.7c0.5,0.1,0.2,1,0.6,1.2c0-0.2-0.3-0.3,0-0.3c0.1,0.6,0,0.7,0.1,1.2
		c0.3-0.2,0.4-1.8-0.2-1.9c0,0.2,0.3,0.5,0.1,0.7c-0.1-0.2-0.2-0.4-0.2-0.8c-0.5-0.3-1.4-0.1-1.7-0.7c-0.9,0-1.7,0.2-2.4,0.6
		c0.2,0.1,0.4-0.2,0.5,0.1c-1.2,0.5-2.5,0.6-3.6,1c-0.1,0-0.3-0.1-0.4-0.3c-0.1,0.1-0.4,0-0.4,0.2c0.3,0.2,0.7,0.3,1,0.5
		c0.2-0.5,1.3,0.4,1.5,1c-0.1,0.6-1.3,0.5-1.3,1C29.2,43.1,29.1,43.7,28.8,43.7c0.1,0,0.2-0.3,0.1-0.3v0.1
		C28.9,43.7,28.9,43.7,28.8,43.7 M12.3,39.4c0.4-0.1,1-0.1,0.8-0.3c-3,0.8-6.2,1-8.4,2.6C6.8,40.6,9.8,40.1,12.3,39.4 M7.1,40.1
		c2.8-0.8,6-1.3,8.7-2.1C12.4,38.4,9.8,39.1,7.1,40.1 M10.1,38.3c0.3,0,0.5-0.1,0.8-0.1c0-0.3-0.2-0.1-0.3-0.2
		C10.6,38.3,10.1,38,10.1,38.3 M13.4,39.1c2.3-0.4,5.6-0.9,8-1.9C18.7,37.9,15.9,38.2,13.4,39.1 M20.1,37.1c0.6-0.2,1.3-0.2,1.7-0.4
		C21.2,36.7,20.6,36.8,20.1,37.1 M11.2,37.7c0.2,0.4-0.2,0.1-0.2,0.4c2.1-0.6,4.4-0.9,6.2-1.7c-1.8,0.1-3.5,1.1-5.1,1.3
		c0.2-0.4,0.8-0.5,1.2-0.6c0.4-0.1,0.9-0.2,1.3-0.3c0.2-0.3,0.8-0.2,1.1-0.5C14.2,36.6,12.5,37.3,11.2,37.7 M10.1,38.1
		c0-0.3,0.4-0.2,0.6-0.3c-0.3-0.6-0.1-1.4,0.2-1.7C10.2,36.4,9.7,37.2,10.1,38.1 M13.6,36.5c-0.5,0.2-1.2,0.2-1.3,0.6
		c0.8-0.5,2-0.5,2.7-1C14.5,36.1,14,36.4,13.6,36.5 M19.1,36.2c0.2-0.1,0.6,0,0.7-0.2c-0.1,0-0.1,0-0.1-0.1
		C19.5,36.1,19,36.1,19.1,36.2 M15.8,36.3c0.3-0.1,0.7,0,0.8-0.3C16.4,36.1,16,36.1,15.8,36.3 M12.8,35.3c0,0.1-0.2,0.1-0.2,0.3
		c0.1-0.1,0.7-0.1,0.6-0.3C13.1,35.5,12.9,35.2,12.8,35.3 M21.8,35.6c-0.8-0.5-2.4-1.4-3.5-0.5C19.6,35.3,20.5,36.2,21.8,35.6
		 M21.3,34.3c0.5,0.3,1,0.4,1.4,0.8c-0.8,0.2-1.7-0.7-2.4-0.6c0.5,0.4,1.7,0.4,1.7,1c0.9-0.2,1.7-0.3,2.4-0.6
		c-0.8-0.3-1.4-0.8-2.3-0.8c0.5,0.3,1.2,0.4,1.5,0.9C22.8,34.8,21.8,34.3,21.3,34.3 M3.5,36.7c-0.2-1.4,0.9-2.3,1.7-3.1
		c0-0.1,0.1-0.1-0.1-0.1C4.4,34.2,2.7,35.2,3.5,36.7 M25.5,34.6c-0.8-0.1-2.1-0.9-2.8-0.8c0.6,0.2,1.1,0.5,1.7,0.8V35
		c0.5-0.2,1.4-0.1,1.7-0.3c-0.8-0.5-1.5-1.6-2.5-1c0.2-0.1,0.4,0.2,0.5,0.1c-0.1,0,0.1-0.2,0.2-0.2C24.4,34.2,25.3,34.1,25.5,34.6
		 M36.2,33.9c0-0.2,0-0.4-0.1-0.6C36,33.6,36.1,33.8,36.2,33.9 M4.4,33.5C4.7,33.4,5,33.3,5.1,33C4.7,33.1,4.6,33.3,4.4,33.5
		 M3.3,34.2c0.2-0.4,0.8-0.8,0.8-1.2C3.8,33.4,3.3,33.6,3.3,34.2 M25,33.3c0.5,0.4,1.3,0.7,1.2,1.4c0.4,0,0.5-0.3,0.8-0.3
		c0-0.2,0-0.4,0.1-0.5c0,0.2,0,0.3-0.1,0.4c0.3-0.1,0.6-0.1,0.7-0.4c-0.1-0.3-0.5-0.1-0.6-0.4c-0.1-0.2,0.2-0.1,0.1-0.3
		c-0.4,0-0.5-0.3-0.8-0.4C26.3,33,26,32.9,25.8,33c0.4,0.3,0.8,0.6,1,1c0,0.1-0.1,0.2-0.1,0.2C26.2,33.8,25.5,33.4,25,33.3 M5.1,33
		c0.2,0,0.3-0.1,0.4-0.3C5.4,32.8,5.1,32.8,5.1,33 M5.8,32.7c0.5-0.3,1.2-0.4,1.7-0.7C7,32.2,6,32.3,5.8,32.7 M35.3,32.1
		c0.4,0.1,0.4,0.6,0.7,0.8C36,32.4,35.5,31.8,35.3,32.1 M7.7,32c0.3,0,0.6-0.1,0.8-0.2C8.3,31.7,7.9,31.8,7.7,32 M8.6,31.8
		c0.9-0.2,1.2-0.2,1.9-0.5C9.8,31.4,8.9,31.6,8.6,31.8 M36.3,36.7c0.3-1.3-0.1-2-0.4-3.5c0-0.1,0.2,0.1,0.1-0.2
		c0-0.3-0.2,0.1-0.3-0.1c-0.2-0.7-0.7-1-1.2-1.4c0.3-0.2,0.6,0.4,0.8,0.1c-0.8-0.7-2.2-0.9-3.5-0.1c0.7,0.1,1.5-0.6,1.8-0.1
		c-1.8,0.6-3.9,0.7-5.4,1.5c0.6-0.2,1.4-0.2,2.1-0.3c0.7-0.1,1.3-0.5,1.8-0.3c-0.2,0.4-0.9,0.3-1.4,0.4c-0.4,0.1-0.7,0.3-1,0.5
		c-0.4-0.2-0.6,0.2-1,0.2c-0.1,0.4,0.1,0.5,0.1,0.8c-0.3,0.3-0.6,0.6-0.8,1c-1.7,0.3-3.2,0.4-4.6,1.1c0.4-0.1,1-0.2,1.5-0.3
		c0.5-0.1,1.1-0.5,1.3,0.1c-1.3,0.5-2.7,0.6-4.2,1c-0.1,0.2,0.1,0.2,0.1,0.4c-2,0.8-3.9,1.2-5.9,1.6c-1.8,0.3-3.5,0.8-5.3,1.2
		c-1.1,0.2-2.2,0.4-3.3,0.9c3.1-0.6,6.6-1.6,9.8-2.3c0.6-0.1,1.7-0.5,1.9,0.1c-3.7,0.6-7.3,1.6-10.9,2.4c-1.6,0.4-3,1.4-4.2,2.2
		c-0.1,0.1-0.1,0.2-0.1,0.3c-0.4,0.2-0.9,0.8-1,1.4c-0.1,1,1.5,2.9,2.1,3c0.4,0,1.1-0.4,1.7-0.5c1.3-0.2,2.4-0.5,3.5-0.8
		c-0.4,0-0.6-0.2-0.9-0.6c0,0.3-0.3,0.2-0.3-0.1c0.1,0,0.2,0.1,0.3,0.1c-0.1-0.4-0.2-0.9,0-1.3c3.7-1.6,8.1-1.8,12.1-3.3
		c1.6-0.3,2.7-0.4,4-1c-0.4,0.1-0.9,0.3-1.2,0.3c3.4-1.7,8.3-1.6,10.9-4.2c0.1-0.7,0.4-1.3,0.3-2.1c-0.1-0.8-0.9-1.5-0.6-2.1
		c0.3,0.1,0.5,0.5,0.6,0.8c1,2.3,0,4.7-2,5.3C34.8,38.2,35.9,37.8,36.3,36.7 M12.2,31.1c0.4,0,0.9-0.1,1.1-0.3
		C12.9,30.9,12.5,30.9,12.2,31.1 M13.7,30.8c0.8-0.1,1.3-0.1,1.9-0.4C14.9,30.4,14.2,30.5,13.7,30.8 M4,29.2c0-0.3-0.3-0.4-0.5-0.6
		C3.5,29,3.8,29.1,4,29.2 M13.9,28.7c0.5,0,0.8-0.3,1.3-0.3C15,28.1,14.2,28.5,13.9,28.7 M11.7,28.3c0.5-0.3,1.1-0.3,1.5-0.6
		C12.6,27.8,11.8,28,11.7,28.3 M13.6,28.2c-0.2,0.1-0.5,0.2-0.6,0.3c0.9-0.3,2.1-0.7,2.7-0.6c0,0.3-0.5,0.1-0.4,0.3
		c0.4-0.2,1-0.1,1.3-0.4C15.7,27.6,14.6,27.9,13.6,28.2 M13.7,27.2c0.3,0,0.6,0,0.8-0.2C14.2,26.9,13.9,27,13.7,27.2 M22.7,26
		c-0.8,0.2-1.8-0.6-2.4-0.2c0.2-0.2-0.7-0.4-0.7-0.1c0.5,0.1,0.9,0.3,1.3,0.6c-0.8,0.1-1.5-0.5-2.2-0.5c-1.2,0-2.4,0.7-3.7,0.9
		c0.2,0.2,0.9,0.1,0.7,0.3c0.1,0,0.1-0.1,0.2-0.1c-0.2,0.3,0.2,0.2,0.3,0.5c0.2,0,0.3-0.1,0.5-0.1c0,0.1,0,0.2-0.1,0.3
		c0.3,0.1,0.7,0.1,1,0.3c3.1-0.8,5.5-1.2,8.4-1.7c-0.7-0.5-1.2-0.4-1.9-0.5c-0.2,0,0.3,0.2,0,0.3c-0.8-0.1-1.7-0.7-2.4-0.4v-0.2
		c-0.3,0-0.5,0-0.6-0.1C21.5,25.7,22.4,25.7,22.7,26 M21.6,24.6c0.4,0,0.7-0.1,1-0.3C22.2,24.3,21.9,24.4,21.6,24.6 M35.9,28
		c-1,1.9-3.6,2.1-5.4,3.1c1.4-0.3,2.7-1,4-1.5c0.7-0.3,1.1-0.4,1.5-0.9c0.2-1,0.3-3.5-0.1-4.6C35.9,25.5,36.1,26.5,35.9,28 M23.7,24
		c-0.3,0.1-1.1,0.2-0.8,0.3c0.3-0.1,0.7-0.1,1-0.2c0.4-0.1,0.9-0.2,1-0.4C24.6,23.7,24.2,23.8,23.7,24 M4.3,23.6
		c0-0.2,0.5-0.2,0.3-0.4C4.5,23.2,4.1,23.4,4.3,23.6 M27,22.8c0.1-0.1,0.4,0,0.5-0.1C27.3,22.5,27,22.6,27,22.8 M32.9,22.2
		c-0.3-0.2-0.3,0.3-0.3,0c0.1,0-0.2-0.2-0.2-0.3c-0.5,0.3-1.2,0.2-1.7,0.4c-0.8,0.3,0.6-0.1,1.1-0.1c0,0.3-0.2,0-0.2,0
		c-0.1,0.2-0.3,0.4-0.2,0.5c-0.5-0.1-0.9,0-1.2,0.3c0.6,0,1.8-0.4,2.4-0.4c-0.1,0.4-0.5,0.3-0.8,0.3c-1.6,0.4-3.8,1.1-5.4,1.6
		c-0.1-0.1-0.1-0.2-0.1-0.3c-0.9-0.1-1.6-0.1-2.3,0.3c0-0.1,0-0.2,0.1-0.2c-0.2,0-0.3,0.1-0.4,0.3c0-0.3-0.5,0-0.7,0.1
		c0.3,0,0.4,0.2,0.7,0.2c0-0.3,0.3-0.2,0.3-0.1c0,0.3-0.2-0.1-0.3,0.2c0.9,0.4,2.1,0.4,2.9,0.9c-0.1,0.3-0.4,0.1-0.6,0.2
		c0.3,0.4,0.9-0.2,1.5-0.1c0.1-0.1,0.2-0.2,0.3-0.3c0,0.2,0.6-0.1,0.7-0.2c-0.3-0.3-0.6-0.2-0.9-0.5c0-0.1,0.1-0.1,0.1-0.3
		c0.9,0,1.5,0.3,1.9,1c-0.9,0.9-2,1.1-3.3,1.5c-3.1,0.8-6.4,1.3-9.7,2.1C13.1,30,9.5,31,6,31.7c-0.3,0.4-1.2,0.6-1.2,1
		c2.6-1.5,5.8-1.8,8.9-2.4c1.3-0.3,2.7-0.7,4-0.9c2.1-0.4,4.5-1,6.4-1.6c0.6,0.1,1.3-0.7,1.7-0.1c0,0.1-0.1,0.2-0.1,0.3
		c-1.5,0.2-2.6,0.5-4,0.9c-0.8,0.2-1.7,0.1-2,0.6c0.7-0.1,1.6-0.7,2.3-0.4c-0.6,0.5-1.5,0.7-2.3,0.8c-0.4,0.1-0.8,0.2-1.1,0.2
		c-1.3,0.2-2.6,0.6-3.9,0.8c-2.3,0.4-4.6,0.9-6.7,1.3c-0.4,0.1-0.9,0.3-1.3,0.5c-0.4,0.2-1,0.2-1.1,0.6c0.3-0.1,0.6-0.4,0.9-0.3
		c0,0.5-0.6,0.5-0.8,0.6c-0.3,0.1-0.7,0.6-0.9,0.8c-1,1.1-1,2.6,0.1,3.7c-0.4-0.7-1.1-2.6,0.1-3c0.2-0.4,0.4-0.8,0.8-1
		c0,0.1,0.1,0.1,0.1,0.2c-0.3,0.6-0.9,1.3-1.2,1.5c-0.4,1.3,0.8,1.9,0.7,2.9c0.3,0,0.4,0.2,0.3,0.5c1.5-0.4,2.4-0.7,4.1-1
		c-0.6-0.9-0.1-2.1,0.6-2.5c1.6-0.5,3.1-1.5,4.7-1.3c-0.5,0.4-1.2,0.3-1.6,0.7c4.9-1.5,10-2.3,14.8-3.7c-0.3-0.1-0.5,0.2-0.6-0.1
		c0.4-0.2,0.9-0.2,1.5-0.4c0.5-0.2,1.1-0.4,1.2-0.6c-1.6,0.6-3.4,1.1-5.1,1.5c-0.6,0.2-1.6,0.4-1.9,0.1c0.4-0.3,1-0.3,1.6-0.5
		c3-0.7,6.8-1.8,8.8-3.5c0.3-0.2,0.7-0.7,0.8-1c0.5-1,0-1.8,0.1-2.8c0.4,0.5,0.7,1.2,0.6,1.9c-0.2,1.9-2.3,2.8-3.7,3.6
		c0.3-0.2,0.2,0,0.3,0.2c0.8-0.5,1.8-0.6,2.5-1.1c0.3-0.2,0.8-0.8,0.9-1c0.4-1.3,0-3.2-0.1-4.6C34.4,22.9,33.7,22.4,32.9,22.2
		 M29.9,21.4c-0.4,0.3,0.8-0.1,0.5-0.1C30.2,21.3,30.1,21.5,29.9,21.4 M16,21.4c0.1-0.1,0.5,0,0.5-0.2C16.4,21.2,15.9,21.3,16,21.4
		 M16.9,21.2c0.5-0.1,1.2-0.1,1.5-0.4C17.9,21,17.2,20.9,16.9,21.2 M16.5,18.6c-0.1,0-0.1,0.1-0.2,0.1c-0.4,0-1.4,0-1.6,0.3
		c0.6,0,1.5-0.2,2.2-0.4C16.7,18.7,16.7,18.5,16.5,18.6 M31.4,21.3c-1,0.4-1.9,0.6-3.1,1c-0.2,0-1.1,0.4-0.7,0.3
		c3.2-0.8,6.4-1.5,8.7-3.1c0.1,0,0.1-0.1,0.1-0.1c-0.1-0.4,0-1-0.1-1.4C35.9,20.2,33.5,20.6,31.4,21.3 M12.3,18.6
		c1-0.1,1.8-0.2,2.7-0.4C14.2,17.7,13.3,18.3,12.3,18.6 M18.1,16.2c0.6-0.4,1.2,0,1.7-0.6C19.2,15.9,18.2,15.8,18.1,16.2 M19.8,15.6
		c0.3,0,0.6,0.2,0.8-0.1C20.4,15.4,20.1,15.6,19.8,15.6 M23.6,14.8c0-0.1,0.1-0.1-0.1-0.1c-1,0.3-2,0.3-2.7,0.8
		C21.6,15.6,22.6,14.9,23.6,14.8 M5.5,14c0.3,0,0.5-0.1,0.6-0.3C5.9,13.8,5.6,13.8,5.5,14 M4.2,15.8C5.3,14.7,7.3,14,9,13.5
		c0.3-0.1,0.7,0,0.8-0.3C7.7,13.9,5.4,14.1,4.2,15.8 M10,13.2C10.7,13.2,10.4,12.9,10,13.2 M10.4,27.8c-0.2,0.4-0.1,0.5,0.2,0.7
		C10.5,28.3,10.6,28,10.4,27.8 M4.3,29.4C4.7,29.8,5,30,5.5,30.2C5.2,29.8,4.6,29.4,4.3,29.4 M33.1,13.4v-0.5
		c-3.1,0.9-5.7,1.8-9.2,2.4c0.4,0.3,1.1,0.1,1.2,0.6c-0.6-0.2-1.2-0.3-1.9-0.5c0.6,0.5,1.7,0.4,2.1,1c-1,0-2.1-0.9-3.3-0.7
		c0.9,0.3,2.2,0.5,2.6,1.1c-1.1-0.3-2.1-0.8-3.3-1c0.7,0.7,2.2,0.6,2.8,1.3c-1.3-0.1-2.6-1.3-4.3-1c1,0.3,1.6,0.6,2.4,0.5
		c0,0.5,1,0.1,1,0.9c-1.1-0.3-2.8-0.9-4.1-0.8c0.1-0.1-0.1-0.3-0.1-0.5c-1.5,0.1-3,0.6-4.2,1c0.2,0.1,0.4-0.2,0.5,0
		c-0.2,0.3,0.3,0.1,0.1,0.5c0.2-0.2,0.3,0.2,0.6,0c0,0.3,0.4,0.3,0.6,0.2c0.7,0.2,1.8,0.8,2.6,0.9c0.1,0,0.2-0.2,0.3-0.1
		c0.2,0,0.7,0.2,0.8-0.1c0,0.1,0.3,0.2,0.3,0.1c-0.1,0-0.2,0-0.1-0.1c0.9-0.1,1.1-0.1,1.6-0.4c0,0.1-0.2,0.3,0,0.3
		c0.1-0.4,0.7,0,0.8-0.4c0.8,0.2,2.6-0.9,3.7-0.4c0.5-0.3,1.1-0.6,1.7-0.8c0-0.2-0.2-0.2-0.3-0.3c0.3-0.1,0.5,0.4,0.5,0.1
		c-0.5-0.3-1,0-1.3-0.4c0.4-0.7,2.1-0.2,2,0.9c-4.9,2.1-11,2.9-16.6,3.9c-0.8,0.1-1.5,0.4-2.3,0.6c-1.8,0.3-3.6,0.2-5,1.3
		c4.2-1.1,8.4-1.6,12.5-2.4c0.6-0.1,1.3-0.2,1.9-0.3c1.3-0.3,2.9-0.7,4.4-1c0.4-0.1,0.9-0.3,1.3-0.2c-1.3,1.1-4.2,0.9-5.6,1.6
		c1.1,0.1,2.4-0.7,3.1-0.1c-4.6,0.9-9.1,1.7-13.7,2.6c-1.2,0.2-2,0.5-3.1,0.8C6.1,24,6.3,24,6.3,24.3c-1.2,0.3-1.8,1.3-2.5,2.2
		c0.1-1.2,1-1.6,1.6-2.3c-1.2,0.6-1.9,1.6-2.1,3c-0.1-0.6,0.1-1.3,0.1-1.4c0.7-1.4,2.2-2.4,4.2-2.9c1.4-0.3,2.9-0.2,4-0.8
		c-3,0.5-7.3,0.6-8.3,3.5c0-0.1,0-0.2-0.1-0.1C3,26.6,3,27.5,3.6,28.5c-0.1-0.4-0.5-0.9-0.3-1.3C3.5,27.5,3.6,28.6,4,29
		c0.1,0,0.2-0.1,0.3-0.1c0.3,0.5,1,0.9,1.2,1.1c0.1,0.3,0.2,0.5,0.6,0.8c1.6-0.6,3.5-0.9,5.2-1.4c0.3-0.1,0.7-0.2,0.9-0.5
		c-0.6,0.2-1.4-0.1-1.7-0.3c-0.3-0.1,0,0.2-0.1,0.2c-0.1-0.3-0.5-0.4-0.4-0.9c0.2,0.3,0.1-0.1,0.3-0.2c0.2-0.2,0.9-0.4,1.2-0.6
		c2.8-1.2,5.6-1.6,8.7-2.4c2-0.6,4-1.3,5.7-1.7c0.3-0.1,0.8,0,1-0.3c-0.2-0.1-0.4,0.2-0.5,0.1c0.5-0.4,1.4-0.6,1.9-0.8
		c0.3-0.1,0.7-0.1,0.7-0.3c-0.8,0.2-1.9,0.6-2.5,0.5c2.2-0.7,5.7-1.6,7.6-2.9c0.4-0.2,0.9-0.9,1.1-1.2c0.3-0.5-0.2-1.9,0.7-1.6
		c-0.3,0.5,0,1.2-0.3,1.8c-0.6,1.4-2.3,1.6-3.5,2.5c2.7-0.5,4.9-2.1,3.9-5.7c0.2,0,0.3-0.1,0.4-0.1c0,0.7,0.2,1.4,0.3,2.2
		c0,0.1-0.1,0-0.1,0c0.1,0.1,0.1,0.3,0.2,0.5c0.5-2.6-0.7-3.3-2.4-4c-0.1,0-0.4,0.3-0.5-0.1c0.3-0.1,0.2,0.3,0.3,0
		C33.8,13.3,33.4,13.4,33.1,13.4 M6.2,13.8c0.9-0.3,2-0.4,2.7-0.8C8,13.2,6.9,13.3,6.2,13.8 M11.2,12.5c0.6-0.2,1.3-0.1,1.9-0.5
		C12.4,12.2,11.7,12.2,11.2,12.5 M12.9,12.6c2.3-0.5,5-0.8,7.3-1.5C17.9,11.4,15.1,11.6,12.9,12.6 M3.8,10.4
		c-0.2-0.2-0.4-0.7-0.6-0.7C3.4,10,3.6,10.5,3.8,10.4 M4.4,10.9c-0.4-0.4-1-1.4-1-1.7C3.4,10,4,10.6,4.4,10.9 M36,10.2
		c-0.6,0.7-1.3,1.5-2.2,1.9c1.6-0.6,3.1-1.7,2.6-4.1c-0.2,0-0.3,0.1-0.4,0C36.1,8.6,36.1,9.5,36,10.2 M21,6.1c0.5,0.2-0.3-0.3-0.3,0
		C20.8,6.2,20.9,6.2,21,6.1 M3.3,18.6c0.1,0.5,0.2,1.1,0.6,1.3C3.8,19.5,3.6,19,3.3,18.6 M36.1,7.9c0-0.4-0.1-0.6-0.1-1
		c-0.6-0.7-1-1.3-1.9-1.6c-0.3-0.1-0.8-0.1-1-0.2c-0.4-0.1-0.6-0.4-1-0.6c-1.1-0.4-2.3-0.5-3.3-0.9c-0.3-0.1-0.5-0.4-0.8-0.5
		c-0.1-0.1-0.4,0-0.6-0.1c-0.7-0.3-1.3-0.9-2-1c-0.1,0-0.2,0.1-0.3,0.2c-0.7-0.3-1.9-0.9-2.6-0.8c0.3,0.3,0.5,0.3,0.6,0.6
		c0.6,1.3-0.7,2.5-1.2,3.3c0.7,0.5,1.9,0.7,2.2,1.2c0.3-0.4,0.6,0,1.3,0.2C26,7.2,26.8,7.3,27,7.9c-0.2,0.9-1.5,0.8-2.2,1.2
		c0.1,0,0.3-0.2,0.3,0c-0.1,0.5-0.5,0.5-0.9,0.6c-1.9,0.4-4.7,0.8-6.6,1.3c0.9-0.1,1.8-0.2,2.7-0.3c1.4-0.2,2.8-0.9,3.9-0.5
		c-1,0.4-2,0.4-3.1,0.7c-0.3,0.1-0.7,0-0.8,0.3c0.4,0,1.4-0.5,2-0.1c-0.9,0.4-2.1,0.5-3.3,0.8c-2.8,0.7-6.1,0.8-8.7,1.8
		c-2.1,0.4-4.9,1.4-6.3,3c-0.1,0.7-0.7,1.2-0.6,1.9c0,0.4,0.7,1.2,0.9,1.7c0,0.1-0.1,0.1-0.1,0.2c0.3,0.5,0.9,0.7,1.2,0.8
		c-0.7-0.7-1.1-1.7-1-3.1c0.4-0.4,0.8-1.8,1.5-1.2c-1.6,0.8-1.3,3.4-0.1,4.5c-0.4,0.1,0.1,0.4-0.3,0.3C5.7,21.9,6,21.8,6.1,22
		c1-0.6,3.3-0.7,4-0.9c-0.1,0-0.1,0-0.1-0.1c0.3,0.1,0.2,0,0.3-0.1c0.1,0,0.3,0.3,0.3,0.1c0.1-0.2,0.4-0.1,0.7-0.3
		c0.2,0.1,0,0.1,0.1,0.2c0.2-0.1,0.1-0.3,0.3-0.1c0.1,0,0-0.3,0.1-0.3c0.3-0.2,0.6,0,1,0c0.7-0.1,2.1-0.8,2.6-0.6
		c0.2-0.2-0.3-0.1-0.1-0.5c0.7-0.3,1.8-0.3,2.6-0.6c-1.3-0.2-2.6,0.5-3.7,0.6c-0.1-0.3,0.3-0.4,0-0.4c-0.5,0-0.8,0.1-1.1,0.3
		c-0.1-0.1-0.1-0.2-0.1-0.3c-1-0.1-1.8,0.1-2.2-0.7c0.1-0.1,0.3-0.1,0.3-0.2c0.1-0.2-0.2-0.3-0.1-0.3c0.1,0,0.1,0.1,0.1,0.1
		c0.2-0.1-0.1-0.3,0.1-0.3c0,0.2,0.2-0.2,0.1,0.1c6.3-2.6,14.2-3.8,20.8-5.3c0.1-0.2,0.3-0.3,0.5-0.4c-1.5,0.3-3.1,0.9-4.5,0.8
		c1.8-0.5,4.2-0.8,6.2-1.9c0.3-0.3,0.4-0.6,0.8-0.8c0.5-1.5,0.1-3.1-0.8-3.7c-0.6-0.3-1.4-0.4-1.6-1.2C34.3,5.5,35.6,6.5,36.1,7.9
		 M22.3,2.2c-0.1-0.5-0.5-0.7-0.8-1C21.7,1.6,22.1,1.9,22.3,2.2 M21.8,3.8c0.2-0.5-0.1-1.1,0.1-1.5c0,0.1,0.1,0.1,0.1,0.1
		c-0.1-1.1-0.9-1-1.1-1.4c0,0.1-0.1,0.2-0.3,0.1c0.1-0.1,0.2-0.2,0-0.3c-0.1,0.1-0.2,0.2-0.3,0.2c0-0.1-0.1-0.2-0.1-0.2
		c0,0.1,0.1,0.2,0,0.2c-0.5,0-0.5-0.5-1.2-0.3c0,0.3,0.4-0.1,0.4,0.2c-0.8-0.2-1.5-0.1-2.3,0.1c0.1,0,0.2,0,0.2,0.1
		c-4.4,1-9.5,2.5-13,4.9c1.5-0.6,2.5-1.5,4.4-1.9c-0.1,0-0.2-0.1-0.1-0.3c1.3-0.5,3.1-1,4.8-1.3c0.1,0,0.1,0.1,0.1,0.1
		c0.4-0.1,0.9-0.2,1.3-0.3c0.3-0.1,0.9-0.6,1-0.2c-3.7,2-9.1,2-12,5.2C3.5,8.1,3.7,9.6,4.3,9.8C3.4,8.3,4.2,7.2,5.2,6.5
		C6.3,5.7,8,5,9.1,5c0.1,0.1,0,0.1,0,0.3C7.5,5.6,4.3,6.8,4.3,8.5c0,0.6,0.4,1.1,0.5,1.9c0.2,0.1,0.4,0.2,0.4,0.4
		c0,0.3-0.2-0.1-0.3,0.1c0.7,0.5,1.1,1.5,2.1,1.5c0.3,0,0.5-0.2,0.8-0.3c1.6-0.4,3.9-0.7,5.2-1.2c-0.3-0.1-0.7,0.2-0.8-0.1
		c0.4-0.2,0.7-0.1,1,0.1c2.5-0.7,4.9-1,7.3-1.6C22.3,9,24,8.6,25.7,8c0.2,0.1,0.5,0.1,0.5-0.3c-0.4,0-1.2-0.7-2-0.4
		c-1-0.7-3.1-0.4-4.2-0.8c-0.6,0.3-1.2,0.6-1.9,0.8c0,0.2,0.1,0.2,0.1,0.4c-0.2,0-0.2,0.2-0.4,0.1c0.2,0.9,0.9,1.3,1.5,1.7
		c-0.2,0-0.4-0.1-0.6-0.1c-0.1,0.1,0.1,0.5-0.3,0.4c-1-0.6-2-0.8-2.4-2.1c0.2,0,0.1,0.2,0.2,0.2c0-0.6,0.6-0.7,0.9-1
		c-0.3,0-0.6,0.2-0.7,0.1c0.2-0.3,1.3-0.6,1-0.2c0.3,0.2,0.3-0.3,0.5-0.3c0,0,0.1,0.2,0.1,0.1c0,0,0.1-0.3,0.1-0.3
		c0.2-0.1,0.3,0.1,0.3,0.1c0.2-0.1,0-0.4,0.2-0.1V6.2c0-0.1,0.1-0.1,0.1-0.1c-0.2-0.1-0.4,0.2-0.4,0c0.6-0.3,1.1,0,1.6-0.5
		c1.4-0.1,3.5-2,2.3-3.5C22.1,2.6,22.3,4,21.8,3.8c-0.1,0.8-0.7,0.9-1.1,1.4c0.2-0.2,0.4-1,0.8-0.7C21.2,4.2,21.9,3.7,21.8,3.8
		 M35.2,12.7c0.9,0.7,2,1.6,2.6,2.5c-0.2,1.4,0.4,4.1-0.6,5.3c-1.1,0.3-1.8,0.9-2.7,1.3c0.1,0.3,0.9,0.3,0.7,0.5
		c0.8,0.2,1.8,0.7,2,1.7c0,2.4,0.1,4.4-0.7,6.3c-0.2-0.2-0.3,0.2-0.6,0.2c1.3,1,0.9,3,1.5,4.4c-0.3,0.1,0.1-0.2-0.1-0.2
		c-0.2,1.2,0.5,2.8-0.2,4c-0.1,0.1-0.4,0.3-0.4,0.3c0,0.2,1.1,1,1.1,1.4c-0.3,2.2-0.1,4.5-0.5,6.8c-0.4,0.4-0.7,1-1.1,1.3
		c0.5,1.2,0.9,2.7,0.8,4.1c-0.2,1.4-1.7,2.5-2,4c-0.1,0.3,0.1,0.5-0.2,0.7c0,1.2,0,2.3,0.1,3.3c0.1,0.2,0.4,0.3,0.8,0.3
		c0.7,0.6,0.4,1.9,0.8,2.8c0.7,0.1,0.9,0.4,1.5,0.4c0.5,0.7,1.3,1.2,1.6,2.1c0.5,2.6,0.5,5.5,0.3,8.3c-0.2,2.6,0.3,5.1,0.3,7.4
		c0.1,5.4-0.3,9.9-2.1,13.7c-1.2,2.5-3.6,3.7-5.5,5.8c-0.3,0-0.4,0.3-0.7,0.3c-0.1,0,0,0.3-0.2,0.3c0-0.1,0.1-0.1,0.1-0.1
		c-1.5,0.4-1.4,2.3-2.4,3.1c0.1,0.1,0.4-0.1,0.8-0.1c0,0.7-1.2,0.5-1.6,0.6c0,0.3,0,0.6-0.1,0.3c0,0.3,0,0.3,0.2,0.2
		c-0.2,0.6-0.3,1.2-0.9,1.5v0.4c-0.3,0-0.4,0.2-0.7,0.2c0,0.2,0,0.4,0.1,0.5c-0.3-0.1-0.3,0.6-0.7,0.6c-0.2,0.1-0.1-0.2-0.1-0.3
		c-0.6,0.3-1.2,0.6-1.8,0.8c0.2,0.3,0.9-0.4,0.8,0.1c0.3,0,0.1-0.2,0.2-0.3c1,0,1.5-0.6,2.4-0.8c0-0.2-0.2-0.2-0.2-0.4
		c0-0.3,0.3-0.3,0.3-0.5c0-0.1-0.1,0-0.2,0c0.1-0.4,0.6-0.1,1-0.3c-0.3,0.1-0.3,0.4-0.3,0.8c0.2,0.2,0.7,0.4,0.5,0.8
		c-0.3-0.1-0.4,0.1-0.5,0c-0.4,0.6-1.7,1-2.5,1.5c0.4,0.1,1.2-0.2,1.6-0.1c0.2-0.1,0.1-0.5,0.4-0.4c0.1,0.2,0.2,0.3,0.6,0.2
		c-0.2,0.2,0.2,0.5-0.1,0.9c-0.2,0.2-0.2-0.1-0.3-0.1c0.2,0.4-0.1,0.8-0.4,0.9c0,0.3,0.1,0.5,0.3,0.6c-0.4,0-0.1,0.7-0.3,0.9
		c0.1,0.1,0.2,0,0.4,0c0,0.3-0.4,0.2-0.6,0.3c0.1,0.5-0.1,1,0.1,1.3c-0.2-0.2-0.1,0.2-0.1,0.3c0,0.1,0.3,0,0.3-0.1
		c0.3,0.2-0.3,0.2-0.3,0.3c-0.2,1.6-1.4,2.2-2.1,3.2c-0.1,0.2,0.2,0.1,0.2,0.3c-0.2,0.4-0.7,0.6-0.6,1.4c-0.3-0.2-0.5,0.1-0.7,0.2
		c-1.3,0-2-0.3-3.4-0.3c-1.2,0-3.1,0.3-3.9-0.1c0.1-1.1-0.3-1.9-1.3-2.2c-0.3-0.7-1-1-1.7-1.2c0.1-0.3-0.2-0.3-0.2-0.7
		c-0.2,0-0.3,0.1-0.5,0.1c-0.1-0.9-0.5-1.4-1-1.9c0.2,0.2,0.2-0.3,0.3-0.5c0.6-0.3,1.4-0.4,2.1-0.6c-0.2-0.2-0.4,0.2-0.5-0.1
		c0.2-0.3,0.6,0.2,0.8,0c0,0.1-0.1,0.1-0.2,0.1c1.9-0.3,3.8-1.1,5.8-1.5c-0.5,0,0-0.2-0.3-0.3c0.2-0.3,0.3,0.2,0.6,0.1
		c-0.4-0.2,0-0.1,0.1-0.2c0.1,0,0,0.2-0.1,0.1c1.2-0.2,3.2-0.6,4.2-1.5c-1.3,0.3-3.4,0.8-5.3,1.4c0,0.2,0.3,0,0.2,0.2
		c-0.3-0.1-0.6,0-0.9,0.1c0.3,0.1,1,0.1,1.2,0c-0.3,0.4-0.7,0.1-1.2,0.2c-0.1,0-0.1-0.1-0.1-0.2c-0.2,0-0.3,0.1-0.4,0.1
		c0,0.2,0.2-0.1,0.3,0c-2,0.4-3.4,1-5.4,1.4c0.1,0.2,0.4,0.1,0.7,0.1c0.1,0.3-0.5,0.1-0.8,0.2c0-0.1,0.1-0.1,0.1-0.3
		c-0.1,0-0.1,0.1-0.2,0.1c-0.1,0.4-0.9-0.4-0.9-0.6c0.1,0.3,0.2-0.5,0-0.4c1.5-0.7,3.4-0.4,4.5-1.2c1.1-0.1,2.5-0.7,3.8-1.1
		c0.1,0,0.2-0.1,0.1-0.3c1.6-0.2,3-0.6,4.2-1.2c-0.1,0-0.1,0-0.1,0.1c0-0.2,1.3-0.1,1.6-0.6c-0.2-0.3-0.5-0.2-0.8-0.2
		c-0.1,0.2,0.2,0.1,0.3,0.1c-0.2,0.3-0.3-0.1-0.5-0.1c-0.2,0.4-0.7,0-0.9,0.3c-0.2,0,0.1-0.2,0-0.3c-0.1,0.1-0.1,0.2-0.1,0.3
		c-0.3-0.1-0.4,0.1-0.4-0.2c-0.3,0.7-1,0.7-1.8,1c-1.3,0.4-2.5,0.7-3.6,1c0.1,0.2,0.2-0.1,0.3,0.1c-1.9,0.3-3.2,0.9-5.1,1.2
		c0.7,0.5-1.4-0.1-1.4,0.3c-0.4-0.4,0.1-1-0.2-1.2c0-0.3,0.3-0.3,0.5-0.4c-0.3,0.4,0.6,0.3,0.5,0c0.8,0.2,1.9-0.3,3.1-0.6
		c1.2-0.2,2.5-0.4,3.5-0.9c0-0.4-0.2,0.2-0.2-0.1c-0.1-0.2,0-0.1,0.2-0.1c0.1-0.4-0.7-0.4-0.8-0.2c-0.1,0.3,0.4,0,0.3,0.2
		c0,0.2-1,0.1-0.7-0.1c-0.1,0-0.1,0.1-0.1,0.1c-1.6-0.3-3.6,1.4-5.5,0.8c0,0.3-0.2,0.3,0,0.6c-0.1,0.1-0.3-0.1-0.6,0.1
		c0.1-0.1,0-0.4,0.3-0.3c-0.1-0.2-0.3-0.3-0.4-0.6c-0.2-0.6,0.7-0.8,0.7-0.8c0.3-0.2-0.2-1,0.2-1.2c-0.5-0.3-0.1-1.6-0.7-1.9
		c0.2-0.6,0.2-0.6,0.1-1.2c-0.1,0-0.1,0.1-0.1,0.1c-0.5-1.5-2.5-2-4-2.7c-0.1-0.1-0.1,0-0.3,0c-2.8-1.7-4.5-4-5.9-7.3
		c-0.1-0.1-0.2-0.1-0.3-0.2c-0.3-1.6-1.3-3.3-1.1-5.1c-0.5-1.2-0.1-2.4-0.3-3.8c0.1,0,0.1,0.1,0.2,0.1c-0.1-1.1,0.3-2.4-0.4-2.8
		c0.1-0.1,0.2-0.2,0.4-0.2c-0.1-0.4,0-0.5-0.3-0.6c0-0.1,0.2-0.1,0.3-0.1C0.2,77.4,0.4,71,0.9,67.4c0.1-0.4-0.1-0.7,0.1-1
		c0.1-0.2,0.5-0.2,0.6-0.3c0.4-0.4,0.6-1.1,1.2-1c0.2-1,0.4-1.9,1.3-2.1c0-1-0.4-2-1-2.6c0.3-0.3,1.5,0.1,2-0.3c0-1.1,0-2.1-0.2-3
		c-1.5-0.8-2.7-2.2-2.8-4.2c-0.1-1.7,0.9-2.9,1.4-4.2c0.3,0-0.1,0.2,0,0.5c0.1-0.3,0.6-0.2,0.8-0.5c-1.7-1.5-3.1-5-1.7-7.7
		c0.6-0.4,1.1-0.8,1.5-1.4c-0.5-0.1-0.6-1-1-0.7c0-0.2,0.1-0.1,0.2-0.2c-0.5-1-0.6-2.5-1.2-3.4c-0.4-2.2,0.9-3.7,2.7-4.2
		c-0.2-0.4-0.7-0.4-1-0.7c-0.4-0.4-0.6-1-1-1.2c-0.2-0.7-0.6-1.6-0.8-2.1C2,27,2.3,26.9,2.2,26.7c-0.1,0-0.1,0.1-0.1,0.1
		c-0.2-0.1,0-0.3,0.1-0.3c-0.2-1,0.2-2.6,0.6-3.7C2.9,22.9,3,22.9,3,23c0.4-0.5,0.8-1,1.4-1.3c-1.7-0.7-2.2-2.5-2.6-4.5
		c0.4-2.1,1.8-3.1,3-4.4c0.2,0,0.3,0,0.4-0.1c-0.8-0.7-1.6-1.5-2.4-2.3c-0.9-1.5-0.4-3.8,0.5-5C5.6,3.8,8.6,3,11.7,1.8
		c1.6-0.2,2.9-1,4.3-1.3c0.3-0.1,0.7,0,1.1-0.1c1.7-0.3,3-0.5,4.5-0.3c0.4,0,1,0.1,1.4,0.2c0.8,0.2,1.5,0.8,2.3,1.1
		c0.3,0.1,0.7,0,1,0.1c0.3,0.1,0.6,0.3,0.9,0.5c0.7,0.3,1.6,0.7,2.4,1C30,3.1,30.4,3,30.7,3.2c0.2,0.1,0.3,0.2,0.4,0.3
		c1.9,0.8,4,0.6,4.9,2.2c0.1,0,0.1-0.1,0.1,0c0.1,0.1,0,0-0.1,0c0.7,1,1.5,2.1,1.3,3.4C37.3,10.6,36.1,11.9,35.2,12.7"/>
	<path class="st0" d="M35.9,96.2c0.1,0.6-0.6,0.6-0.7,1.1C35.1,96.8,35.9,96.8,35.9,96.2"/>
	<path class="st0" d="M38.1,91.2c0.3,0,0-0.1,0.1-0.2h0.2c-0.2,0.4-0.2,0.6-0.3,1C37.9,91.6,38.2,91.5,38.1,91.2"/>
	<path class="st0" d="M38,92.1c0,0.3-0.2,0.5-0.1,0.6C37.7,92.9,37.7,92,38,92.1"/>
	<path class="st0" d="M37.3,94.2c-0.1-0.1,0-0.6,0.3-0.7c-0.2,0.5-0.3,1.2-0.7,1.2C37,94.5,37.3,94.5,37.3,94.2"/>
</g>
</svg>
