<?xml version="1.0" encoding="utf-8"?>
<!-- Generator: Adobe Illustrator 19.0.0, SVG Export Plug-In . SVG Version: 6.00 Build 0)  -->
<svg version="1.1" id="Layer_1" xmlns="http://www.w3.org/2000/svg" xmlns:xlink="http://www.w3.org/1999/xlink" x="0px" y="0px"
	 width="50.2px" height="118.6px" viewBox="0 0 50.2 118.6" style="enable-background:new 0 0 50.2 118.6;" xml:space="preserve">
<style type="text/css">
	.st0{fill:#FFFFFF;}
</style>
<g>
	<path class="st0" d="M29.6,3.6c0.1,0,0.1,0.1,0.2,0.1c-0.1,2.2-0.4,4.2-0.4,6.6v1c0,0.2,0.1,0.9-0.1,0.7V11v-0.9
		c-0.1-2.3,0.2-4.8,0.1-6.3C29.5,3.7,29.6,3.7,29.6,3.6"/>
	<path class="st0" d="M30.3,6.2c0.1,0,0.1,0.1,0.2,0.1c0,7.6-0.1,18.7-0.1,26.4c-0.3-0.7-0.3-1.6-0.3-2.4c-0.2-4.9,0.2-10.5,0-16.1
		c-0.1-1.3,0.2-2.6,0.1-3.9c0-1.3,0-2.5,0-3.9C30.3,6.3,30.3,6.3,30.3,6.2"/>
	<path class="st0" d="M27.3,19.8C27.3,19.8,27.3,19.9,27.3,19.8c0,1.9,0.4,3.3,0.2,5.2c-0.1,1-0.4,2-0.6,3c-0.5,2.8-1.2,5.6-2.2,8.2
		c-0.7,1.6-1.5,3.2-2.3,4.8c-0.8,1.6-1.7,3.3-2,5c-0.1,0.6-0.1,1.3-0.1,2c-0.1,0.8-0.3,1.5-0.2,2.1c0.1,1.6,1,3,1.4,4.7
		c-0.6-1.6-1.4-2.8-1.6-4.5c-0.1-1,0.1-2.1,0.2-3.1c0.3-3.1,1.7-5.7,2.9-8c0.8-1.6,1.5-3.3,2.1-5.2c0.7-1.9,1-3.8,1.4-5.9
		c0.2-1,0.6-2.1,0.6-3.2c0.1-1.6-0.3-3.3,0-4.9C27.1,19.9,27.2,19.9,27.3,19.8"/>
	<path class="st0" d="M33.2,19.8c0.1,0,0.1,0.1,0.2,0.1c0.3,1.9-0.1,3.2,0,4.9c0.1,1.1,0.5,2.2,0.6,3.3c0.3,2.1,0.7,4,1.4,5.9
		c0.6,1.8,1.3,3.5,2.1,5.1c1.1,2.3,2.6,4.9,2.9,8c0.1,1,0.3,2.1,0.2,3.1c-0.2,1.8-1,3-1.5,4.7c0.2-1.8,1.3-3.3,1.3-5.1
		c0-0.5-0.1-1.1-0.2-1.8c-0.1-0.6,0-1.4-0.1-1.9c-0.3-1.8-1.2-3.5-2-5.1c-1.5-3.1-3.1-6.2-3.9-10.2c-0.2-0.9-0.4-1.8-0.6-2.8
		c-0.2-1-0.5-2-0.6-2.9c-0.2-1.8,0.2-3.3,0.1-5.1V19.8z"/>
	<path class="st0" d="M29.5,23.5h0.2c0.1,2.9,0.1,5.6,0.2,8.4c0,1,0.4,2.1-0.1,2.9c-0.2-3-0.4-8.2-0.3-11V23.5z"/>
	<path class="st0" d="M28.9,27.3c0.1,0,0.1,0.1,0.1,0.1c0,2.4,0.3,5.9-0.1,8.5C28.7,33.7,28.9,29.9,28.9,27.3"/>
	<path class="st0" d="M31.6,27.3c0.2,2.5,0.2,6.3,0.1,8.7c-0.3-0.3-0.3-0.8-0.3-1.2C31.3,32.4,31.5,29.4,31.6,27.3"/>
	<path class="st0" d="M21.6,45.8c0.1,0,0.1,0,0.1,0.1c-0.7,1.4-1.1,3.4-0.8,5.2C20.2,49.3,20.8,47.1,21.6,45.8"/>
	<path class="st0" d="M38.8,45.8c1.1,1.1,1.4,3.4,0.9,5.3c-0.2-0.7,0.1-1.6,0-2.4C39.5,47.7,39,46.7,38.8,45.8"/>
	<path class="st0" d="M26.4,46c0.1,0,0.1,0.1,0.2,0.1c0.1,0.4-0.2,0.6-0.2,0.9c-0.3,1.7,0.6,3.3,1.6,4.2c-0.6-0.2-1.5-1.2-1.8-2.1
		C25.9,48.2,26,46.9,26.4,46"/>
	<path class="st0" d="M19.5,47.5c0.1,0,0.1,0.1,0.2,0.1c-0.6,2-0.2,4.1,0.4,6.2c0.4,1.6,1.6,3.6,2.6,5c0.7,1,2.1,1.8,3.3,2.2
		c-0.4,0.3-1.1,0-1.6-0.2c-0.5-0.3-0.9-0.8-1.4-0.9C20.8,56.9,18.1,52.5,19.5,47.5"/>
	<path class="st0" d="M40.9,47.5c0.1,0,0.1,0.1,0.2,0.1c0.9,3.3-0.2,6.7-1.6,9.2c-0.6,1.1-1.2,2-1.8,2.6c-0.7,0.8-2,1.7-3.2,1.6
		c1-0.5,2-1,2.8-1.7c1-1.5,2.6-3.3,3.1-5.5c0.3-1.1,0.7-2.4,0.7-3.4C41.3,49.4,40.8,48.4,40.9,47.5"/>
	<path class="st0" d="M21.5,50.5c0.1,0,0.1,0.1,0.2,0.1c0,3.1,0.9,6,2.7,7.4c0.5,0.4,1,0.7,1.4,1.1c0.4,0.3,1.1,0.6,1.3,1.2
		c-0.4-0.1-0.6-0.3-0.9-0.5c-2.5,0.2-4.6-2.1-4.9-4.7c0.5,0.4,0.6,1.1,0.9,1.6c0.5,0.9,1.1,1.6,1.9,2.3c0.6,0.2,1,0.5,1.8,0.5
		C23.1,58.1,21.2,54.8,21.5,50.5"/>
	<path class="st0" d="M38.9,50.5c0.1,0,0,0.1,0.1,0.1c0,4.2-1.5,7.5-4.5,8.9c1.8,0,3-1.3,3.7-2.7c0.3-0.5,0.4-1.2,0.9-1.6
		c-0.3,2.5-2.4,4.8-4.9,4.7c-0.4,0.1-0.5,0.4-0.9,0.5c0.2-0.6,0.9-0.9,1.3-1.2c1.5-1.2,2.7-2,3.4-4c0.2-0.4,0.4-1,0.5-1.5
		C38.8,52.7,38.7,51.4,38.9,50.5"/>
	<path class="st0" d="M23,52.1c-0.6,3.1,1,5.7,3.7,5.9c-0.2,0.3-0.7,0.3-1.1,0.1c-1.9-0.7-3.4-3.2-3-5.8c0.1-0.1,0.2-0.1,0.2-0.3H23
		z"/>
	<path class="st0" d="M37.5,52.1h0.2c0,0.2,0.1,0.2,0.2,0.3c0.4,2.4-1.1,5.1-3,5.8c-0.3,0.1-0.9,0.2-1.1-0.1
		C36.5,57.8,38.1,55.1,37.5,52.1"/>
	<path class="st0" d="M24.1,54.5c0.1,0,0.1,0,0.1,0.1c0.2,1.5,1.6,2.2,2.8,2.4c0,0.3-0.4,0.2-0.6,0.2C25.6,57.1,23.8,55.6,24.1,54.5
		"/>
	<path class="st0" d="M36.3,54.5c0.1,0,0.1,0,0.1,0.1c0.1,1.3-1.7,2.9-2.9,2.5C34.6,56.6,36.1,56.1,36.3,54.5"/>
	<path class="st0" d="M25.5,55c0.4,0.5,1,0.8,1.4,1.3C26.4,56.1,25.5,55.8,25.5,55"/>
	<path class="st0" d="M34.9,55c0.1,0,0.1,0,0.1,0.1c-0.1,0.8-0.9,1.1-1.4,1.2C34,55.7,34.7,55.6,34.9,55"/>
	<path class="st0" d="M25.6,68.8c0.1,0.1,0.3,0.1,0.4,0.1c0-0.1,0-0.7-0.2-0.8C25.9,68.5,25.5,68.5,25.6,68.8 M26,66.3
		c0.1,0,0.1,0.1,0.2,0.1c0.1,0.9,0,1.9,0.4,2.7c-0.5,0.3-1.3,0.1-1.7-0.1C25.6,68.5,25.8,67.4,26,66.3"/>
	<path class="st0" d="M34.5,68.9c0.2,0,0.3,0,0.4-0.1c0-0.3-0.1-0.6-0.4-0.7C34.6,68.5,34.4,68.7,34.5,68.9 M34.4,66.3
		c0.1,0,0.1,0.1,0.2,0.1c0.1,1.2,0.4,2,1,2.6c-0.4,0.2-1.2,0.4-1.7,0.1C34.4,68.4,34.1,67.2,34.4,66.3"/>
	<path class="st0" d="M28.8,69c-0.1-0.3-0.2-0.5-0.3-0.8c-0.3,0.1-0.3,0.7-0.7,0.7c0.1-0.5,0.5-0.9,0.6-1.5c0.1-0.3-0.2-1,0.4-0.9
		c0.1,0.8,0,1.8,0.5,2.4c-0.2,0.3-0.3,0.2-0.3,0.5c-0.4-0.1-1.1,0.2-1.1-0.3C28,68.9,28.4,69.1,28.8,69"/>
	<path class="st0" d="M32.1,68.3c-0.2,0.2-0.2,0.5-0.4,0.7c0.3,0.2,0.8-0.1,0.9,0.1c0,0.4-0.7,0.3-1.1,0.3c0-0.3-0.1-0.2-0.3-0.5
		c0.5-0.5,0.4-1.6,0.5-2.4c0.5,0,0.3,0.6,0.4,0.9c0.1,0.6,0.5,1.1,0.6,1.6C32.4,68.9,32.3,68.5,32.1,68.3"/>
	<path class="st0" d="M29.3,66.8c-0.1,0.8,0.6,1.7,0.9,2.4C29.4,68.9,29.2,68,29.3,66.8"/>
	<path class="st0" d="M29.8,69.1c-0.1,0.2-0.3,0.3-0.5,0.4C29.2,69.1,29.6,69,29.8,69.1"/>
	<path class="st0" d="M24.5,73.6c0.3,0.1,0.3-0.5,0.1-0.5C24.6,73.3,24.5,73.3,24.5,73.6 M25.2,72.9c-0.1,0,0-0.2-0.1-0.2
		C25,73.3,25.2,73.9,25.2,72.9 M24.9,72.2c0.5,0.5,0.8,2-0.5,1.8C23.9,73.5,24.4,72.5,24.9,72.2"/>
	<path class="st0" d="M36,73.6c0-0.2,0-0.4-0.1-0.5C35.7,73.2,35.7,73.6,36,73.6 M35.3,72.9c-0.1,1.1,0.3,0.2,0.1-0.2
		C35.4,72.8,35.4,72.9,35.3,72.9 M35.7,72.2c0.4,0.4,1,1.3,0.4,1.8C34.8,74.3,35.1,72.5,35.7,72.2"/>
	<path class="st0" d="M30.3,74c0.1,0,0.2,0.2,0.4,0.1c0.2-0.3-0.1-0.5-0.2-0.7C30.4,73.6,30.3,73.7,30.3,74 M30.4,72.6
		c0.4,0.4,1.1,1.9,0.2,2c-0.3,0-0.6-0.1-0.6-0.4c-0.1,0-0.1,0.1-0.1,0.1C29.8,73.6,30.3,73.1,30.4,72.6"/>
	<path class="st0" d="M32.6,74c0-0.2,0-0.4-0.1-0.5C32.5,73.6,32.3,74,32.6,74 M32.6,72.8c0.1,0.6,0.7,1.1,0.3,1.6
		c-0.9,0.4-0.9-0.7-0.7-1.2c-0.3,0-0.2,0.5-0.3,0.8c-0.2-0.4,0.1-0.7,0.1-1.1C32.1,73.5,32.1,72.7,32.6,72.8"/>
	<path class="st0" d="M29.3,73.6c0.2,0.1,0.2,0.7,0.1,0.9C29.2,74.3,29.4,73.9,29.3,73.6"/>
	<path class="st0" d="M24.5,79.6c0.2,0,0.4,0,0.4-0.1c-0.1,0-0.1-0.1-0.1-0.2h-0.2C24.7,79.6,24.4,79.4,24.5,79.6 M24.9,77.8
		c0.1,0.1,0.2,0.2,0.2,0.4c0,0.2-0.2,0.2-0.3,0.3c0.2,0.5,0.8,1.1,0.2,1.6c-0.5,0-0.7,0-1-0.1c0.1-0.6,0.3-1.1,0.7-1.3
		C24.6,78.3,24.6,78,24.9,77.8"/>
	<path class="st0" d="M35.8,79.6c0.1,0.1,0.3,0.1,0.4,0.1c-0.1-0.1-0.1-0.4-0.4-0.4C35.9,79.4,35.8,79.5,35.8,79.6 M35.7,77.8
		c0.1,0.1,0.3,0.2,0.4,0.4c0.1,0.3-0.2,0.1-0.1,0.4c0.4,0.3,0.7,0.7,0.7,1.4c-0.3,0.2-0.5,0.1-1,0.1c-0.6-0.4,0-1.1,0.2-1.5
		c0-0.2-0.3-0.1-0.3-0.3C35.5,78,35.7,78.1,35.7,77.8"/>
	<path class="st0" d="M29.5,78.5c0,0.2-0.3,0.4-0.5,0.2v-0.3C29.1,78.3,29.4,78.4,29.5,78.5"/>
	<path class="st0" d="M31.7,78.4v0.3c-0.2,0.2-0.4,0-0.5-0.1C31.2,78.4,31.5,78.3,31.7,78.4"/>
	<path class="st0" d="M28.8,80.2c0.2,0,0.3-0.1,0.5-0.1c0-0.2-0.1-0.4-0.3-0.4C28.9,79.8,28.8,80,28.8,80.2 M29.7,80.3
		c-0.3,0.3-0.9,0.2-1.4,0.3c0.1-0.7,0.1-1.5,0.8-1.6C29.3,79.5,29.7,79.7,29.7,80.3"/>
	<path class="st0" d="M31.4,80.1c0.2,0.1,0.3,0.2,0.5,0.1c-0.1-0.2-0.1-0.5-0.3-0.6C31.6,79.8,31.4,79.9,31.4,80.1 M32.3,80.6
		c-0.4-0.1-1.1,0-1.4-0.3c0-0.6,0.4-0.8,0.6-1.3C32.2,79.1,32.2,79.9,32.3,80.6"/>
	<path class="st0" d="M29.8,79.6c0,0.3,0.5,0.9,0,0.9V79.6z"/>
	<path class="st0" d="M29.5,80.6c-0.1,0.2,0.1,0.2,0.1,0.4c-0.3,0-0.5,0.1-0.9,0.1C28.6,80.4,29.1,80.6,29.5,80.6"/>
	<path class="st0" d="M32.1,81.1c-0.4,0-0.7-0.2-0.9-0.1c0-0.2,0.1-0.2,0.1-0.4C31.6,80.6,32.1,80.4,32.1,81.1"/>
	<path class="st0" d="M1.4,83.5c0.4,0-0.1,0.3,0,0.5C1.2,83.9,1.4,83.6,1.4,83.5"/>
	<path class="st0" d="M18,85.8c0,0.4-0.4,0.5-0.6,0.7c-0.2,0.5-0.5,1-0.9,1.4c-0.1-0.2,0.1-0.6,0.4-1C17.2,86.4,17.5,85.9,18,85.8"
		/>
	<path class="st0" d="M42.6,85.8c0.9,0.3,1.2,1.4,1.5,2.1c-0.5-0.2-0.6-0.9-0.9-1.3C43,86.3,42.7,86.2,42.6,85.8"/>
	<path class="st0" d="M20,87.9c-0.1,0.2-0.4,0.1-0.6,0.1c-1.1,0.4-1.5,2-1.9,3.1c-0.3-0.2-0.1-0.6-0.1-0.9c0.3-1.1,1-2.2,1.9-2.6
		C19.7,87.8,20,87.7,20,87.9"/>
	<path class="st0" d="M43.1,91.2c-0.6-1.3-0.9-3.2-2.5-3.2c0.3-0.5,1-0.1,1.3,0.1C42.7,88.8,43.3,90.4,43.1,91.2"/>
	<path class="st0" d="M17.9,96.1c0.2,2.2,1.5,3.7,2.4,5.4c-1.1-1.4-2.6-3.2-2.5-5.4H17.9z"/>
	<path class="st0" d="M42.6,96.1h0.1c0.8,1-0.6,2.3-0.8,3.4c-0.6,0.6-0.9,1.5-1.5,2.1C41,99.8,42.7,98.6,42.6,96.1"/>
	<path class="st0" d="M21.3,99.7c0.1,0.1,0.2,0.1,0.3,0.1c0.2,0.3-0.2,0.4,0,0.7c0.9,1.6,2.3,2.7,4,3.4c-0.8,0.2-1.7-0.6-2.4-1.2
		C22.2,102,20.8,101,21.3,99.7"/>
	<path class="st0" d="M39.4,99.7c0.5,1.3-0.6,2-1.6,2.9c-0.8,0.7-1.5,1.4-2.6,1.4c1-0.4,2.4-1.4,3.2-2.2c0.5-0.5,0.9-1.2,0.8-1.9
		C39.2,99.8,39.3,99.8,39.4,99.7"/>
	<path class="st0" d="M22.3,103.4c-0.1-0.4-0.5-0.8-0.8-0.8C21.8,102.8,21.8,103.4,22.3,103.4 M22.6,103.6c0.5,1.1,1.9,1.2,2.8,1.8
		c-1.9-0.2-3.7-1.4-4.4-3.3c-0.5-0.5-0.8-1.1-1.1-1.8c0.1-0.2,0.1-0.4,0.1-0.5c0.3,1.1,1,1.8,1.6,2.6c0.2-0.1-0.1-0.4,0.1-0.5
		c0.4,0,0.3,0.5,0.5,0.8c0,0.2,0.3,0.2,0.4,0.2c0,0.2,0.1,0.2,0.1,0.4c1.8,1.1,4.6,2.4,6.8,2.1c-0.3,0.3-0.5,0.3-1.1,0.3
		C26.4,105.7,24.1,104.4,22.6,103.6"/>
	<path class="st0" d="M38.4,103.4c0.4-0.1,0.7-0.7,0.7-0.9C38.9,102.8,38.5,103,38.4,103.4 M38.1,103.6c-1.4,0.8-3.7,2-5.7,2.1
		c-0.5,0-0.9,0.1-1.1-0.3c2.2,0.2,4.9-1,6.7-2.1c0.1-0.1,0.1-0.3,0.1-0.5c0.2,0,0.3-0.1,0.4-0.1c0.1-0.3,0.1-0.8,0.4-0.9
		c0.3,0.1,0,0.2,0.1,0.5c0.6-0.7,1.4-1.3,1.6-2.6c0.5,0.8-0.5,1.7-0.9,2.2c-0.6,2-2.5,3.1-4.4,3.4C36.2,104.8,37.5,104.7,38.1,103.6
		"/>
	<path class="st0" d="M24.1,102.4v0.3h-0.3C23.8,102.5,23.9,102.4,24.1,102.4"/>
	<path class="st0" d="M36.6,102.4c0.2,0,0.3,0.1,0.3,0.3h-0.3V102.4z"/>
	<path class="st0" d="M27.6,106.1c-0.9-0.1-1.5-0.4-2.2-0.6C25.9,105.4,27.1,105.7,27.6,106.1"/>
	<path class="st0" d="M35.3,105.5c-0.7,0.3-1.3,0.5-2.2,0.6C33.5,105.7,34.6,105.5,35.3,105.5"/>
	<path class="st0" d="M26.3,112.9c-0.5-0.2-0.6-0.8-1.1-0.7c-0.4,0-0.4,0.5-0.9,0.6C23.8,111.6,26.6,111.6,26.3,112.9"/>
	<path class="st0" d="M36.4,112.8c-0.4-0.1-0.5-0.4-0.8-0.6c-0.7,0-0.7,0.6-1.2,0.7C34.1,111.6,36.9,111.6,36.4,112.8"/>
	<path class="st0" d="M29.8,112.3v0.2c-0.1,0.3-0.5,0.2-0.4,0.6c-0.2-0.1-0.2,0.1-0.4,0.1C28.9,112.6,29.2,112.3,29.8,112.3"/>
	<path class="st0" d="M31.8,113.2c-0.6,0-0.5-0.7-1-0.6c-0.4,0-0.4,0.5-0.7,0.8C29.5,112.1,32,111.8,31.8,113.2"/>
	<path class="st0" d="M24.8,118.1c-0.5-0.5-1.3-0.2-2-0.5C23.2,118,24.2,117.9,24.8,118.1 M35.8,118.1c0.9-0.1,1.9-0.3,2.6-0.6
		C37.5,117.7,36.5,117.7,35.8,118.1 M22.8,117.6c-0.1,0-0.5-0.2-0.6,0C22.4,117.5,22.6,117.8,22.8,117.6 M33.7,117.7
		c0.1-0.2,0.2-1.1,0-1.5h-0.2C33.6,116.7,33.2,117.6,33.7,117.7 M27,117.7c0.3-0.2,0.1-1,0.1-1.5H27C26.9,116.6,26.8,117.6,27,117.7
		 M34.2,117.6c0-0.5,0.1-0.9,0.1-1.4c-0.1,0-0.1-0.1-0.2-0.1C34.1,116.4,34.1,117.2,34.2,117.6 M26.5,117.6c0-0.5-0.1-1,0.1-1.4
		c-0.1,0-0.1-0.1-0.2-0.1C26.3,116.5,26.4,117.2,26.5,117.6 M34.8,117.6c0.2-0.3,0.2-1.5-0.1-1.5C34.7,116.5,34.4,117.4,34.8,117.6
		 M31.1,117.9h0.6c-0.1-0.5,0.1-1.2,0-1.9h-0.4C31.1,116.8,31.1,117.5,31.1,117.9 M30.2,117.9h0.6c-0.2-0.8,0.3-1.4,0.1-1.9h-0.6
		C30.3,116.8,30.2,117.3,30.2,117.9 M29.8,117.5c0-0.5,0.2-1.1-0.1-1.4C29.7,116.3,29.7,117,29.8,117.5 M29,117.9
		c0.2,0,0.6,0.1,0.6-0.1c-0.1-0.4-0.1-1.1-0.2-1.8H29C28.9,116.7,29.1,117.4,29,117.9 M25.9,117.6c0.3-0.1,0.2-1.3-0.1-1.5
		C25.8,116.3,25.6,117.3,25.9,117.6 M35.4,117.5c0.2-0.3,0.3-1.2,0-1.5C35,116.2,35.2,117.2,35.4,117.5 M33.1,117.7
		c0-0.5,0.3-1.5-0.1-1.7C33,116.5,32.6,117.5,33.1,117.7 M32,116.1c0.2,0.5-0.1,1.2,0.1,1.7c0.9,0.1,0.4-1.1,0.5-1.7
		C32.3,116,32.2,116,32,116.1 M28.1,116.1c0.1,0.6-0.4,1.8,0.5,1.7c0.2-0.5-0.1-1.2,0.1-1.7C28.4,116,28.3,116,28.1,116.1
		 M27.5,117.7c0.4-0.2,0.3-1.5,0-1.7C27.4,116.5,27.5,117.2,27.5,117.7 M25.3,117.5c0.1-0.4,0.3-1,0.1-1.4c-0.1,0-0.2,0-0.2-0.1
		C25.1,116.4,25,117.3,25.3,117.5 M35.9,117.4c0-0.1,0.2-0.1,0.3-0.1c0-0.5,0.1-1.3-0.1-1.4C35.7,116.2,35.9,117,35.9,117.4
		 M24.5,117.3c0.2,0,0.3,0,0.4,0.1c-0.1-0.5,0-0.7,0-1.4c-0.1,0-0.2-0.1-0.3-0.1C24.5,116.2,24.5,116.8,24.5,117.3 M36.7,117.3
		c0.1-0.4,0-1,0.1-1.4h-0.3C36.6,116.5,36.4,116.9,36.7,117.3 M24,117.3c0.2-0.5,0.1-0.8,0.1-1.4h-0.3C24,116.3,23.8,117,24,117.3
		 M37.1,117.2c0.4-0.1,0.2-1.4,0.1-1.5C37.1,116.1,37.1,116.8,37.1,117.2 M23.5,117.2c0-0.3,0.2-1.3-0.2-1.5
		C23.5,116,23,117.1,23.5,117.2 M37.8,117.1c0-0.4,0.2-0.8,0.1-1.4h-0.3C37.8,116,37.5,116.8,37.8,117.1 M23,117.1
		c0.1-0.4,0-1,0.1-1.4h-0.3C22.8,116.2,22.8,116.8,23,117.1 M38.2,116.8c0.3-0.2,0.2-1.1,0-1.4C38.1,116,38.4,116.4,38.2,116.8
		 M22.5,116.8c-0.2-0.4,0.2-1-0.1-1.4C22.3,115.9,22.1,116.6,22.5,116.8 M38.8,116.3c0.1-0.2,0.1-0.7-0.1-0.9
		C38.6,115.8,38.6,116.1,38.8,116.3 M22,116.3c-0.1-0.3,0.3-0.8-0.1-0.9C21.9,115.8,21.7,116.1,22,116.3 M30.8,115.8
		c0.5-0.3,1.8,0.1,2.4-0.4c0.1,0.1,1,0.2,1-0.1c-1.2,0.2-3.1,0.2-3.7,0.4C30.6,115.8,30.8,115.5,30.8,115.8 M27.5,115.4
		c0.3,0.3,1.1,0.3,1.6,0.3c0.3,0,0.6,0,0.7-0.1c-1-0.3-2.3-0.2-3.4-0.4C26.6,115.6,27.4,115.5,27.5,115.4 M40.4,116.1
		c0.1-0.3-0.1-0.8,0-1.2h-0.2C40.3,115.3,40.1,115.8,40.4,116.1 M20.3,116.1c0.2-0.4,0.1-0.7,0.1-1.2h-0.2
		C20.4,115.3,20,115.9,20.3,116.1 M40.9,115.9c0.2-0.3,0.2-1.2,0-1.4C40.8,114.9,40.7,115.5,40.9,115.9 M19.9,115.9
		c-0.1-0.6,0.1-1-0.1-1.4C19.7,114.8,19.5,115.7,19.9,115.9 M41.4,115.6c-0.1-0.4,0.2-1.1-0.1-1.2C41.3,114.7,41.2,115.4,41.4,115.6
		 M19.3,115.6c0-0.4,0.3-1.1-0.1-1.2C19.3,114.8,19.2,115.4,19.3,115.6 M41.8,114.8c0-0.2,0.1-0.8-0.1-0.6
		C41.7,114.3,41.7,114.9,41.8,114.8 M19,114.8c0-0.2,0.1-0.8-0.1-0.6C18.9,114.3,18.8,114.9,19,114.8 M42.2,114.6
		c0-0.2,0.1-0.7-0.1-0.8C42.1,114,41.9,114.6,42.2,114.6 M18.5,114.6c0.3,0,0.2-0.7,0-0.8V114.6z M40.4,112.7
		c-6,2.2-14.1,2.2-20.2,0c-0.1,0.2,0,0.4,0.1,0.5c-0.2,0-0.2-0.3-0.4-0.1c0,0.4,0.6,0.4,0.7,0.4c0.2-0.1-0.2-0.1,0-0.2
		c0.5,0.3,1.6,0.3,1.7,0.8c4.8,1.5,11.1,1.4,16,0c0.1-0.5,1.2-0.5,1.7-0.8c-0.1,0.1-0.2,0.1-0.1,0.2c0.2,0,0.7,0,0.7-0.4
		c-0.2-0.3-0.3,0.2-0.4,0C40.6,113.1,40.5,112.9,40.4,112.7 M40.9,113.1c0.2,0,0.3-0.1,0.3-0.3c-0.1-0.1-0.2,0.2-0.3,0
		c0.1,0,0.1-0.1,0.1-0.2c-0.1-0.1-0.1-0.3-0.4-0.3c0,0.1-0.1,0.1-0.1,0.2C40.7,112.6,40.9,112.7,40.9,113.1 M19.5,112.8
		c0,0.2,0.1,0.3,0.3,0.3c0-0.3,0.3-0.4,0.4-0.6c-0.1,0-0.1-0.1-0.1-0.1c-0.3,0-0.5,0.4-0.2,0.6C19.6,112.9,19.6,112.8,19.5,112.8
		 M20.6,112.5c2,0.7,4.3,1.2,6.9,1.4c3.3,0.3,7.2-0.1,10-0.7c0.5-0.1,1-0.1,1.4-0.3c0.4-0.1,0.9-0.3,1.1-0.6c-2.1,0.7-4.5,0.9-7,1.2
		c-1.2,0.2-2.6,0.4-3.5,0.2c-1.5-0.3-3.4-0.3-5.1-0.5c-1-0.1-3-0.7-3.9-1V112.5z M26,109.8c-0.2,0-0.2,0.1-0.4,0
		c-0.1,0.5-0.3,1.2-0.6,1.2c0-0.5,0.7-1.2,0-1.4c-0.2,0.7-0.3,1.8-0.9,1.7c0.3-0.5,0.5-1.1,0.6-1.7c-0.2,0-0.3-0.1-0.5-0.1
		c-0.1,0.8-0.5,1.4-0.8,1.9c0.1,0.3,0.7,0.6,0.5,1c-0.3,0.1-0.5-0.6-0.9-0.7c-0.4,0.1-0.8,0.2-0.9,0.6c1.3,0.4,3,0.6,4.4,0.7
		c-0.1-1.3,2.1-1,2.2,0.1c-0.6-0.1-0.8-0.6-1.4-0.7c-0.2,0.2-0.5,0.3-0.6,0.6c2.3,0.5,4.7,0.5,7,0c0-0.4-0.4-0.5-0.6-0.6
		c-0.6,0.1-0.8,0.8-1.4,0.6c0.2-1,2.3-1.3,2.2,0c1.3-0.1,3.1-0.3,4.4-0.7c-0.1-0.4-0.5-0.5-0.9-0.6c-0.3,0.2-0.4,0.8-0.9,0.7
		c0-0.6,0.5-0.6,0.6-1.1c-0.4-0.5-0.7-1.1-0.8-1.9c-0.2,0-0.3,0-0.5,0.1c0.1,0.7,0.5,1.3,0.6,1.8c-0.6-0.3-0.7-1.1-0.9-1.8
		c-0.8,0.2,0.1,0.9,0,1.4c-0.6-0.3-0.4-1.3-1-1.4c0-0.2,0.2-0.1,0.2-0.2c-2.7,0.6-6.5,0.4-9.2,0.1C25.9,109.5,26,109.6,26,109.8
		 M36.8,109.5c0.2,0.8,0.4,1.9,1,2c-0.3-0.6-0.3-1.6-0.7-2.1C37,109.5,36.9,109.5,36.8,109.5 M23,111.5c0.5-0.2,0.7-1.3,0.9-2
		c-0.2,0-0.3,0-0.4-0.1C23.3,110,23,110.9,23,111.5 M33.3,109.3c-2.2,0.1-4-0.1-6,0.1C29.5,109.6,31.2,109.7,33.3,109.3 M38.9,111.6
		c-0.8-0.4-0.8-1.6-1.3-2.4c0.1,1.2,0.4,2.2,1.2,2.6c0.2,0.2-0.1,0.1-0.1,0.4c0.3,0,0.5-0.1,0.8-0.1c-0.6-0.9-0.8-2.1-1.4-3
		C37.9,110.1,38.8,111,38.9,111.6 M21.2,112.1c0.3,0,0.5,0.1,0.8,0.1c0-0.3-0.2-0.2-0.1-0.4c0.9-0.4,1.1-1.4,1.2-2.6
		c-0.5,0.8-0.5,2-1.4,2.4c0.4-0.7,0.8-1.4,0.9-2.4c-0.1,0-0.1-0.1-0.2-0.1C22.1,110.3,21.7,111.2,21.2,112.1 M39.9,112
		c-0.1-1-0.8-2.1-1.1-3.1C38.6,109.7,39.2,111.3,39.9,112 M20.9,112c0.5-0.8,1.1-2.2,1.1-3.1c-0.1,0-0.1-0.1-0.2-0.1
		C21.8,110.2,20.7,111.1,20.9,112 M39.9,110.9c0.2,0.5,0.3,1.2,0.7,1.2c-0.5-1-0.9-2.1-1.1-3.4h-0.2
		C39.4,109.6,39.7,110.2,39.9,110.9 M20.1,112.1c0.4-0.1,0.4-0.8,0.6-1.3c0.3-0.7,0.6-1.3,0.6-2.1h-0.2
		C21,110,20.3,111.2,20.1,112.1 M37.7,108.3c-0.1,0.2,0.2,0.1,0.4,0.1C38.1,108.2,37.9,108.3,37.7,108.3 M36.3,108.4
		c0.1,0,0-0.1-0.1-0.1c-1.6,0.4-3.5,0.5-5.4,0.6C32.5,109,34.6,108.9,36.3,108.4 M28.5,108.8c-1.5-0.1-3.1-0.5-4.1-0.4
		c2,0.5,4.4,0.7,6.4,0.4C30,108.7,29.3,108.9,28.5,108.8 M22.6,108.3c-0.1,0.2,0.2,0.1,0.4,0.1C23,108.3,22.7,108.2,22.6,108.3
		 M38.6,107.7c0.3,0,0.6,0,0.6-0.3C39,107.5,38.7,107.5,38.6,107.7 M22.1,107.6c-0.2-0.1-0.4-0.2-0.6-0.2
		C21.5,107.6,22,107.8,22.1,107.6 M38.8,104.6c0.3-0.1,0.7-0.4,0.6-0.6C39.2,104.3,38.9,104.3,38.8,104.6 M21.9,104.5
		c-0.2-0.1-0.5-0.5-0.6-0.4C21.4,104.2,21.7,104.7,21.9,104.5 M44.7,102.5c0.1-0.4,0.5-0.5,0.6-0.9
		C45.1,101.8,44.7,102.2,44.7,102.5 M16,102.5c-0.2-0.3-0.4-0.6-0.7-0.9C15.5,102,15.8,102.2,16,102.5 M47.9,96.9
		c-0.1,0.3-0.3,0.6-0.4,0.9C47.8,97.8,47.9,96.8,47.9,96.9 M33.1,96.9c0.7,0,0.2-0.2-0.4,0C33,97,33,96.9,33.1,96.9 M29.8,97
		c0.1-0.2,0.4,0.2,0.5-0.1C30,96.8,29.7,96.8,29.8,97 M27.2,96.9c0.3-0.1,0.6,0.2,0.7-0.1C27.7,96.8,27,96.7,27.2,96.9 M12.7,96.8
		c0.1,0.3,0.1,0.9,0.4,1C13,97.5,12.9,97.1,12.7,96.8 M33.6,96.9c1.5-0.1,2.4-0.2,3.8-0.6C36,96.5,34.7,96.4,33.6,96.9 M27,96.9
		c-1-0.4-2.5-0.5-3.8-0.5C24.8,96.6,25.5,96.8,27,96.9 M37.6,96.3c0.6,0.2,1-0.2,1.6-0.1C38.9,95.9,38,96.2,37.6,96.3 M23.1,96.2
		c-0.6,0-1.1-0.2-1.6-0.2C21.8,96.2,22.7,96.5,23.1,96.2 M33.3,97.4c-1,0-2-0.1-3-0.1c-1,0-2.1,0.1-3.1,0.1c-3.4,0-7-1.4-10.4-1.6
		c-0.3,1.2,0.3,2.7,0.8,3.6c0,0.3,0.3-0.1,0.4,0.2c1.4,2,2.9,3.7,4.7,5.2c1.8,1.5,4.5,2.2,7.3,2.4c1,0.1,2.9-0.3,4.1-0.6
		c4.3-0.9,6.3-4.3,8.5-7.2c0.1-0.1,0.4,0.1,0.4-0.2c0.6-0.9,0.9-2.2,0.9-3.5C40.2,96,36.9,97.4,33.3,97.4 M44.1,95.7
		c0.1,1.7-0.4,3.3-1.4,4.1c-0.1,0.3-0.2,0.6-0.4,0.8c-0.7,1-2.3,2.2-2.4,3.4c0.6-0.4,0.9-1.2,1.4-1.8c0.1,0.1-0.1,0.3,0.1,0.4
		c1.4-2.1,2.9-4.1,3.6-6.9C44.8,95.5,44.6,95.7,44.1,95.7 M19.1,102.5c0.2-0.1-0.1-0.3,0.1-0.4c0.4,0.6,0.8,1.4,1.4,1.8
		c-0.5-1.8-2.1-2.4-2.7-4.1c-1.1-0.8-1.5-2.4-1.4-4.2c-0.4,0-0.7-0.1-1.1-0.1C16.1,98.4,17.6,100.4,19.1,102.5 M18.6,102.7
		c0.1,0.2-0.1,0.2-0.1,0.4c1.7,1.7,3.9,3.3,6.4,4.2c1.6,0.6,3.6,0.6,5.5,0.6c1.1,0,2.3,0.1,3.1-0.1c3.5-0.5,6.4-2.6,8.6-4.7
		c0-0.2-0.1-0.3,0-0.4c1.7-2.2,3.5-4.3,4.1-7.5c-0.8,0-0.7,0.9-0.9,1.4c-0.5,1.6-1.4,3.1-2.3,4.3c-0.5,1.5-1.6,2.2-2.6,3.1
		c-0.4,0.4-0.8,0.8-1.2,1.1c-1.4,1-3.2,1.7-4.9,2.1c-1.2-0.2-2.8,0.5-4.4,0.4c-1.4-0.1-2.7-0.7-3.6-0.4c-5.9-1.3-9.7-6-11.3-11.8
		c-0.2,0-0.3-0.2-0.6-0.1C15,98.5,16.9,100.5,18.6,102.7 M32.1,96.5c0.5,0,0.9-0.1,1.5-0.1c0.1-0.3-0.1-0.8,0-1.3
		c-0.5,0-1.1,0.1-1.4,0C32.2,95.6,32.1,95.8,32.1,96.5 M29,96.5c0.8-0.1,1.6,0,2.6,0c0.1-0.4,0.3-1,0.1-1.4c-0.2,0-0.2,0.1-0.4,0.1
		c0.1,0.2-0.1,0.3-0.2,0.4c-0.1-0.1-0.1-0.2-0.2-0.3c-0.6,0.2-1.1,0-1.4,0.3c-0.1-0.1-0.2-0.1-0.1-0.4c-0.2,0.1-0.3-0.1-0.4-0.1
		C28.7,95.6,28.9,96.2,29,96.5 M27.1,96.4c0.6,0,1,0.1,1.5,0.1c-0.1-0.6-0.2-0.8-0.1-1.4c-0.4,0.1-0.9,0-1.4,0
		C27.2,95.6,27,96.1,27.1,96.4 M46.8,95c-0.6,2.9-2.3,5.3-3.7,7.6c1.6-2.2,3.6-4.2,3.9-7.6H46.8z M17.6,102.6
		c-1.4-2.3-3.1-4.7-3.7-7.6h-0.2C14,98.4,16,100.4,17.6,102.6 M33.9,95c0,0.6,0,0.8,0,1.3c0.8-0.1,1.7-0.1,2.4-0.4
		c-0.1-0.5,0.1-0.7,0.1-1.1C35.5,94.8,34.6,95.1,33.9,95 M24.4,96c0.7,0.2,1.6,0.2,2.4,0.4c0-0.5,0-0.7,0-1.3
		c-0.7,0.1-1.6-0.2-2.4-0.2C24.3,95.2,24.5,95.5,24.4,96 M36.4,107.3c1.3-0.2,2.1-0.5,3.2-0.9c0.1-0.3,0.4-0.3,0.5-0.6
		c0.7-0.2,1.1-0.6,1.6-1.1c1.9-1.7,3.4-3.4,4.8-5.7c0.8-1.3,1.5-2.9,1.4-4.4c-0.8,0.3-0.5,1.2-0.7,1.9c-0.2,0.8-0.7,1.9-1.2,2.7
		c-0.4,0.7-0.9,1.1-1.3,1.6c-0.4,0.5-0.7,1.1-1.1,1.6c-1.1,1.3-2.5,2.4-3.9,3.2v-0.1c0,0,0.1-0.1,0-0.1
		C38.8,106.2,37.6,106.7,36.4,107.3 M45.8,94.7c-0.4,0.3-0.9,0.2-1.4,0.3c-0.9,0.2-1.9,0.5-2.7,0.7c-0.2,0-0.6-0.1-0.6,0.2
		c1.6-0.4,3.5-0.5,4.9-1.1C45.9,94.7,45.9,94.7,45.8,94.7 M36.7,94.7c-0.1,0.4-0.1,0.8-0.1,1.2c0.6,0,0.7,0,1.1-0.1
		c0-0.4,0-0.8,0.1-1.1C37.4,94.6,37.1,94.8,36.7,94.7 M23,95.8c0.4,0.1,0.6,0.1,1.1,0.1c-0.1-0.4-0.1-0.8-0.1-1.2
		c-0.4,0.1-0.6-0.1-1.1-0.1C23,95,23,95.4,23,95.8 M17,95.2c-0.8-0.2-1.6-0.6-2.2-0.4c1.4,0.5,3.2,0.7,4.9,1.1
		C18.9,95.4,17.9,95.4,17,95.2 M20.9,105.7c-2.1-1.2-4-3.3-5.6-5.4c-0.8-1.1-1.5-2.4-1.9-3.7c-0.2-0.7,0.1-1.6-0.8-1.9
		c0.5,4,3.1,7.1,5.5,9.4c0.7,0.7,1.5,1.4,2.4,1.7c0,0.4,0.4,0.3,0.4,0.6c1.1,0.3,2,0.8,3.2,0.8c-1.3-0.4-2.4-1.3-3.4-1.7
		C20.9,105.6,20.9,105.6,20.9,105.7 M32.5,94.8c0.3,0.1,0.4-0.1,0.7-0.1C33.2,94.5,32.5,94.6,32.5,94.8 M28.3,94.7
		c1.1,0.2,2.9,0.2,4-0.1C30.9,94.6,29.7,94.5,28.3,94.7 M28.2,94.8c-0.1-0.2-0.4-0.2-0.7-0.2C27.5,94.8,27.9,94.8,28.2,94.8
		 M38.1,94.6c-0.2,0.3-0.2,1-0.1,1.2c0.3-0.1,0.7-0.1,0.9-0.2c0-0.4,0-0.8,0.1-1.1C38.7,94.5,38.5,94.6,38.1,94.6 M21.7,95.6
		c0.2,0.1,0.6,0.2,0.9,0.2c0.1-0.2,0.1-0.9-0.1-1.2c-0.4,0-0.5-0.1-0.9-0.1C21.7,94.8,21.7,95.2,21.7,95.6 M46.2,94.6
		c0.1,0.3,0.8,0.1,0.9-0.1c-0.2,0.2-0.4-0.2-0.5,0C46.8,94.5,46.3,94.8,46.2,94.6 M13.6,94.4c0,0.2,1,0.4,0.8,0.1
		c-0.3,0.3-0.3-0.3-0.4-0.2C13.9,94.6,13.8,94.5,13.6,94.4 M40.9,94.3c-0.1,0.4,0.2,1.1-0.4,0.9v-0.9c-0.4,0.1-0.7,0-1.1,0.1
		c-0.1,0.3-0.1,0.8-0.1,1.1c0.5-0.1,1.1-0.2,1.7-0.3c0.2-0.3,0.3-1,0.1-1.1C41.1,94.3,41,94.3,40.9,94.3 M19.6,95.4
		c0.6,0,1.2,0.2,1.7,0.3c0.1-0.3,0-0.8-0.1-1.1c-0.4-0.1-0.7-0.1-1.1-0.1c0,0.3,0.1,0.7-0.1,0.9c-0.5,0.1-0.2-0.6-0.3-0.9
		c-0.2,0-0.3,0-0.4-0.1C19.4,94.5,19.4,95.1,19.6,95.4 M41.6,94.3c0.1,0.3,0,0.5,0,0.9c0.2,0,0.2-0.1,0.4-0.1c0.1-0.3,0-0.7,0.1-1
		C41.8,94.2,41.7,94.3,41.6,94.3 M18.7,95.2c0.2-0.1,0.2,0.1,0.4,0.1c0-0.4-0.1-0.6,0-0.9c-0.2-0.1-0.3-0.2-0.5-0.1
		C18.7,94.4,18.7,94.9,18.7,95.2 M42.4,95c0.7,0.1,0.4-0.6,0.6-1C42.2,93.8,42.4,94.8,42.4,95 M37.4,94.4c0.4-0.3,1.3,0.1,1.6-0.4
		C38.6,94.2,37.5,94.1,37.4,94.4 M23.3,94.3c-0.5-0.2-1.1-0.2-1.6-0.3C21.9,94.4,23.1,94.2,23.3,94.3 M17.9,95
		c0.2,0,0.2,0.1,0.4,0.1c0.1-0.2,0-0.8-0.1-1c-0.1,0-0.4-0.1-0.4,0.1C17.9,94.3,17.8,94.7,17.9,95 M47.4,94.2c0.1,0.2-0.2,0.3,0,0.4
		c0.3-0.2,0.7-0.2,0.7-0.6C47.9,94,47.7,94.1,47.4,94.2 M13.3,94.5c0-0.2-0.1-0.2-0.1-0.4c-0.2-0.1-0.5-0.2-0.7-0.3
		C12.6,94.3,13,94.4,13.3,94.5 M43.3,93.9c0,0.4-0.1,0.6-0.1,1c0.2,0,0.5,0,0.6-0.1c-0.4-0.1,0.2-0.8-0.2-1
		C43.6,93.9,43.3,93.8,43.3,93.9 M16.9,94.8c0.2,0,0.3,0.1,0.6,0.1c0.1-0.4-0.1-0.6-0.1-1c-0.1-0.1-0.3-0.1-0.4-0.1
		C16.8,94,17.3,94.6,16.9,94.8 M43.9,94.7c0.2,0,0.2-0.1,0.4-0.1c0-0.3,0.1-0.8-0.1-1.1C43.9,93.9,44,94.3,43.9,94.7 M16.3,94.7
		c0.2-0.1,0.3,0.1,0.4,0.1c-0.1-0.5,0-1-0.4-1.1C16.3,93.9,16.3,94.3,16.3,94.7 M48.5,93.9c0.3-0.1,0.5-0.2,0.5-0.4
		C48.7,93.5,48.5,93.6,48.5,93.9 M12.2,93.9c0-0.3-0.2-0.4-0.5-0.4C11.7,93.8,11.9,93.9,12.2,93.9 M44.7,93.6c0,0.3-0.1,0.7,0.1,0.9
		c0.2,0,0.2-0.1,0.4-0.1c0-0.4-0.1-0.7,0-1C44.9,93.4,44.9,93.6,44.7,93.6 M15.5,94.4c0.2-0.1,0.2,0.1,0.4,0.1
		c0.1-0.2,0-0.6,0.1-0.9c-0.1,0-0.2-0.2-0.4-0.1C15.6,93.8,15.5,94,15.5,94.4 M45.5,94.3c0.2,0.1,0.2-0.1,0.4-0.1
		c0-0.4-0.1-0.7-0.1-1h-0.2C45.4,93.5,45.4,94,45.5,94.3 M14.7,94.2c0.2-0.1,0.2,0.1,0.4,0.1c0.1-0.4,0.1-0.8-0.1-1.1h-0.2
		C14.8,93.5,14.7,93.8,14.7,94.2 M46.2,93.9c0.1-0.1,0.1-0.7,0-0.9C46.1,93.2,46.1,93.8,46.2,93.9 M14.5,93.9
		c-0.1-0.3,0.1-0.8-0.1-0.9C14.4,93.4,14.3,93.9,14.5,93.9 M43.6,93.1c-1.5,0.4-2.9,0.6-4.4,0.9c1.5,0.1,3.4-0.2,4.6-0.9
		c0.1,0.1,0.3,0.2,0.5,0.1C44.2,92.9,43.8,93,43.6,93.1 M16.4,93.1c-0.1,0-0.1,0.1-0.1,0.1c0.2,0.2,0.4-0.2,0.6,0
		c0.9,0.4,2,0.6,3.1,0.8c0.5,0.1,1.1,0.2,1.4-0.1C19.5,93.7,18.1,93.3,16.4,93.1 M44.4,93c0.3,0.1,0.6,0.2,0.8-0.1
		C45,92.7,44.6,92.9,44.4,93 M16.2,92.9c-0.3,0-0.4-0.2-0.8-0.1C15.5,93.2,16.1,93.2,16.2,92.9 M47.4,93.7c0.3-0.2,0-0.5,0.1-0.9
		c-0.1,0-0.1-0.1-0.2-0.1C47.3,92.9,47.2,93.6,47.4,93.7 M13.3,93.7c0-0.2,0.2-1-0.1-1C13.1,93.1,13,93.6,13.3,93.7 M47.9,93.5
		c0.5,0,0.1-0.5,0.2-1h-0.2C48,92.9,47.8,93.3,47.9,93.5 M12.7,93.5c0.3-0.1,0-0.6,0.1-1h-0.2C12.6,92.9,12.3,93.5,12.7,93.5
		 M45.5,92.7c0.1,0.4,0.9,0,1-0.2C46,92.5,45.9,92.7,45.5,92.7 M15.2,92.7c-0.4,0-0.5-0.2-1-0.2C14.3,92.7,15.1,93.1,15.2,92.7
		 M48.5,92.4v0.9c0.3,0,0.3-0.2,0.5-0.3c-0.1-0.2-0.1-0.5-0.2-0.7C48.8,92.4,48.6,92.4,48.5,92.4 M11.7,93c0.2,0.1,0.2,0.3,0.5,0.3
		v-0.9c-0.2,0-0.3,0-0.4-0.1C11.8,92.6,11.7,92.8,11.7,93 M3.9,87.3c0.1-0.1,0.2-0.1,0.2-0.4C3.9,86.9,3.7,87.2,3.9,87.3 M3.2,87.2
		c0.2-0.3,0.8-0.5,0.6-0.8C3.7,86.8,3,86.8,3.2,87.2 M29.7,86.2c-0.2,0.1,0.1,0.2,0,0.4c0.6,0.1,0.8-0.1,1.3,0
		c-0.1-0.2,0.1-0.3,0.1-0.4C30.5,86.2,30.2,86.2,29.7,86.2 M3.1,86.6c0.3-0.2,1.1-0.7,0.9-0.9C3.8,86,3.2,86.1,3.1,86.6 M37.1,86
		c0.3,0,0.4-0.1,0.4-0.4c-0.1,0-0.1-0.1-0.3-0.1C37.2,85.8,36.9,85.9,37.1,86 M32.2,86.2c0.2,0.1-0.1,0.2,0,0.4
		c1.7,0.1,3.1-0.2,4.4-0.4c-0.2-0.3,0.2-0.5,0-0.6C35.2,85.9,33.4,85.8,32.2,86.2 M24,86.2c1.3,0.2,2.7,0.4,4.4,0.4
		c0-0.2-0.2-0.3,0-0.4c-1.4-0.3-3-0.3-4.5-0.6C24,85.8,24.2,85.9,24,86.2 M23.6,86c0.1-0.1,0-0.5-0.3-0.4
		C23.2,85.8,23.3,86.1,23.6,86 M3.5,85.7c0-0.3,0.6-0.4,0.4-0.6C3.8,85.3,3.2,85.5,3.5,85.7 M26.1,85.5c2.8,0.4,5.7,0.4,8.5,0
		c0.5-0.1,1.1-0.2,1.5-0.4c-3.9,0.7-7.7,0.7-11.6,0C25,85.4,25.6,85.4,26.1,85.5 M3,85.4c0.4-0.2,0.7-0.6,1-0.9
		C3.6,84.8,3.1,84.9,3,85.4 M37.7,85.4c0,0.2,0.1,0.3,0.1,0.6c1.2-0.2,2.5-0.2,3.5-0.9c-0.2,0-0.2-0.2-0.3-0.4
		c0-0.2,0.4-0.3,0.3-0.4C40.2,85,39,85.3,37.7,85.4 M19.7,84.9c-0.1,0.2-0.2,0.2-0.3,0.4c1.1,0.5,2.2,0.6,3.5,0.8
		c0-0.2,0-0.4,0.1-0.6c-1.3,0-2.6-0.6-3.6-1C19.5,84.6,19.7,84.6,19.7,84.9 M41.4,84.4c0.3,0,0.1,0.3,0.1,0.4c0.3,0,0.4-0.2,0.4-0.6
		C41.7,84.3,41.4,84.2,41.4,84.4 M19.2,84.9c-0.1-0.2-0.1-0.4,0.1-0.5c-0.1-0.1-0.3-0.1-0.4-0.1C18.8,84.6,18.9,84.9,19.2,84.9
		 M39.9,86.4c-6.1,1-14.8,1.3-20.9-0.4c-0.7-0.5-1.4-1-1.9-1.6c0,0,0-0.1-0.1-0.1c-0.9,0.9-1.4,2.3-2.4,3.1c-0.5,1-1,2.1-1.5,3.1
		c0.2,0.3-0.6,1-0.1,1.1c0.4,0.1,0.4-0.8,0.4-0.9c0.2-0.8,0.4-1.2,0.9-1.9c0.8-1.3,1.7-3.2,2.7-3.8c0.2,0.6-0.5,0.9-0.9,1.3
		c-0.5,0.7-1,1.7-1.6,2.6c-0.2,0.4-0.5,0.9-0.6,1.4c-0.2,0.5-0.5,1.4-0.1,1.5c0.3-0.3,0.2-1.1,0.4-1.6c0.2-0.8,0.7-1.4,1.1-2
		c0.3-0.4,0.5-1,0.9-1.1c-0.2,0.9-1.3,2-1.6,3.1c-0.2,0.5-0.4,1.4,0,1.8c0.3,0-0.1-0.4,0.1-0.6c0.5-0.9,0.5-2.6,1.4-2.9
		c-0.3,1-1.1,2.2-1.1,3.6c0.3,0.1,0.7,0.3,1.1,0.4c-0.3-2.4,0.8-3.9,1.9-5.1c0.4-0.1,0.8-0.8,1.1-0.5c-1.6,1.2-3.1,2.8-2.8,5.7
		c2.9,0.6,6.4,1.5,9.3,1.4c3.4,0.5,6.1,0.5,9.5,0c2.7,0.2,6.3-0.8,9.2-1.4c0.4-2.9-1.3-4.4-2.8-5.7c1.9,0.7,3.4,3,3.1,5.7
		c0.4-0.1,0.7-0.2,1.1-0.4c-0.1-0.3,0-0.6,0-0.9c-0.2-1-0.9-1.9-1.1-2.8c1,0.6,1.2,2.5,1.5,3.6c0.4,0,0.3-0.4,0.2-0.7
		c-0.1-1.2-0.6-1.8-1.1-2.6c-0.3-0.6-0.7-1.2-0.6-1.6c0.6,0.8,1.5,2,1.9,3.2c0.1,0.3,0.1,1.6,0.4,1.4c0.5,0.1,0.2-0.5,0.1-0.6
		c-0.1-0.9-0.5-1.7-0.9-2.3c-0.5-0.9-1.1-1.9-1.6-2.6c-0.3-0.4-1.2-0.8-0.8-1.3c0.6,0.6,1.5,1.6,2.1,2.8c0.4,0.7,0.8,1.4,1.1,2
		c0.1,0.4,0.4,2,0.8,1.8c0.4-0.2-0.3-0.8-0.1-1.1c-0.5-1.1-1-2.1-1.5-3.1c-1.1-0.8-1.5-2.3-2.5-3.1C42.9,85.5,41.5,86.1,39.9,86.4
		 M3.2,84.7C3.3,84.4,4,84.3,3.8,84C3.7,84.3,3,84.3,3.2,84.7 M16.2,83.7h0.1c0,0,0-0.1,0.1-0.1v-0.1c-0.1,0-0.2,0-0.2-0.1
		C16.1,83.6,16.2,83.5,16.2,83.7 M3.5,83.9c0.1-0.3,0.7-0.4,0.6-0.6C3.9,83.5,3.3,83.6,3.5,83.9 M42,84c0.2,0.1,0.4,0.4,0.2,0.6
		c0.5-0.1,0.6-0.6,0.7-0.9c-0.2-0.2-0.5-0.4-0.6-0.6C42.3,83.6,42.2,83.8,42,84 M17.7,83.8c0.2,0.2,0.2,0.8,0.7,0.9
		c-0.2-0.3,0.1-0.5,0.2-0.7c-0.4,0-0.2-0.6-0.4-0.8C18.2,83.5,17.8,83.4,17.7,83.8 M41.1,84.1c0.8,0,1-1.2,0.4-1.2
		C41.7,83.4,41.1,84,41.1,84.1 M19.2,84c0.7,0.4,0-0.5-0.1-0.6c0-0.2,0-0.3,0.1-0.6C18.6,83.1,18.9,83.8,19.2,84 M3.7,83.1
		C4,83,4.3,82.9,4.5,82.6C4.2,82.7,3.8,82.7,3.7,83.1 M40.5,83.4c-0.5-0.5-0.7-1.3-1.8-1.2c0.5,0.4,1.5,0.8,1.3,1.6
		c-0.2,1-2.5,0.6-3.3,1.2c1.4-0.3,4.9-0.6,4.4-2.4c-0.6-0.2-0.7-0.7-1.5-0.8C39.9,82.4,40.9,82.8,40.5,83.4 M22.3,82.3
		c0.3,0,0.6-0.1,0.6,0.2c-0.8,0.2-2.1,0.1-2,1.5c0.3,0,0.5,0.1,0.7,0.1c0.1-0.7,1.2-1.6,1.7-0.9c-0.7,0.1-1.3,0.3-1.4,1
		c5.4,1.4,11.4,1.4,16.7,0c-0.1-0.8-0.9-0.8-1.4-1.1c0.6-0.5,1.6,0.3,1.7,1c0.3,0,0.4-0.2,0.7-0.1c0.1-1.5-1.3-1.2-2-1.6
		c0.2-0.2,0.8,0,0.7-0.5c-5.3,1.9-10.9,1.8-16.2,0.1C22.4,82,22.3,82.2,22.3,82.3 M19.6,82.7C18.9,84.4,23,84.9,24,85
		c-0.9-0.5-3.1-0.2-3.3-1.2c-0.1-0.8,0.7-1.1,1.3-1.6c-1.2-0.2-1.3,0.8-1.9,1.2c-0.2-0.7,0.7-1,1-1.5C20.3,82,20.2,82.5,19.6,82.7
		 M15.7,82.2c-0.1-0.2-0.5-0.1-0.6-0.3c0,0.2,0.2,0.3,0.3,0.4C15.2,81.9,15.6,82.4,15.7,82.2 M30.5,81.7c0.4,0.3,0.1,0.9,0.1,1.2
		c0.5,0,1,0,1.2-0.1c0.1-0.4,0.2-0.7-0.1-1.1C31.1,81.7,31,81.7,30.5,81.7 M28.8,82.2c0,0.2,0.2,0.3,0.1,0.6
		c0.6,0.3,1.3,0.2,1.4-0.3c0.1-0.3-0.3-0.4-0.1-0.8C29.5,81.7,28.8,81.5,28.8,82.2 M38.5,81.9h0.6c-0.1-0.2,0.1-0.2,0.1-0.4
		C38.9,81.4,38.6,81.7,38.5,81.9 M32.1,81.7c0.4,0.2,0.2,0.9,0,1.2c0.4-0.1,0.6,0,1-0.1c0.4-0.4,0.3-1.1-0.1-1.4
		C32.7,81.7,32.2,81.5,32.1,81.7 M27.6,82.9c0.4,0.1,0.6,0,1,0.1c-0.2-0.3-0.3-1,0-1.3c-0.3-0.1-0.7-0.1-1-0.1
		C27.3,81.9,27.2,82.5,27.6,82.9 M21.5,81.6c0.1,0,0.2,0.1,0.1,0.3h0.6C22.1,81.7,21.7,81.3,21.5,81.6 M33.4,81.5
		c0.3,0.3,0.3,0.9,0.1,1.3c1.2,0.1,1.4-1,0.6-1.5C33.8,81.4,33.6,81.3,33.4,81.5 M27.2,82.7c-0.3-0.3-0.2-1,0.1-1.3
		c-0.3-0.1-0.4-0.1-0.7-0.1C25.7,81.8,26.1,83,27.2,82.7 M14.7,81.6c0-0.1,0-0.2,0.1-0.2c0,0-0.3-0.2-0.4,0
		C14.6,81.4,14.6,81.5,14.7,81.6 M35.7,82.3c0.6-0.1,0.5-1.2-0.1-1C35.8,81.5,35.8,81.9,35.7,82.3 M34.5,81.4
		c0.4,0.2,0.6,0.6,0.4,1.1C35.7,82.3,35.4,80.7,34.5,81.4 M25.8,82.5c0-0.2-0.1-0.4-0.1-0.6c0.2-0.2,0.3-0.4,0.5-0.6
		C25.2,80.9,25,82.3,25.8,82.5 M24.5,81.9c0.2,0,0.1,0.4,0.4,0.4c-0.3-0.4,0.2-1,0-1.1C24.7,81.3,24.6,81.5,24.5,81.9 M4.4,82.1
		c0.1-0.1,0.1-0.2,0.4-0.2c0-0.5,0.5-0.7,0.4-1C5,81.3,4.4,81.7,4.4,82.1 M37.1,81.5c0.2-0.3-0.1-0.5-0.3-0.6
		C36.9,81.1,37,81.3,37.1,81.5 M23.7,81.5c-0.1-0.3,0.3-0.5,0.1-0.6C23.7,81,23.3,81.3,23.7,81.5 M37.4,81.9c0.3-0.3,0.3-1-0.1-1.1
		C37.6,81,37.4,81.6,37.4,81.9 M36.6,82.1c0.1-0.3,0-0.5,0.1-0.8c-0.2-0.3-0.4-0.4-0.7-0.6C36.3,81.2,36.5,81.7,36.6,82.1 M24,81.4
		c0.2,0.3-0.1,0.6,0.2,0.8c-0.3-0.5,0.6-1.1,0.4-1.4C24.4,81.1,24.1,81.1,24,81.4 M23.3,81.8c-0.4-0.3,0.1-0.8,0-1
		C23,80.9,23,81.9,23.3,81.8 M5.2,82.8c-0.8,2.1-0.1,4.7,0.9,6.1c0.5,0.6,1.9,1.7,2.4,1.9c0.6,0.3,1.8,0.8,2.4,0.7
		c0.5-0.1,0.7-0.5,1.2-0.6c0.2-0.8,0.4-1.5,0.7-2.2c0.3-0.6,0.9-1.3,0.9-2c0-0.6-0.5-1.8-0.8-2.3c-0.9-1.8-3.5-3.8-5.7-4.1
		C6.4,81.1,5.5,81.8,5.2,82.8 M14.2,80.6c-0.3-0.2-0.5-0.4-0.9-0.4C13.4,80.5,13.9,80.8,14.2,80.6 M11.4,79.4
		c-0.1,0-0.1-0.1-0.1-0.2c-0.2,0-0.4,0-0.5,0.1C11.1,79.3,11.4,79.6,11.4,79.4 M20.1,79.4c0.2,0,0.2-0.2,0.4-0.2
		c0-0.1,0-0.2-0.1-0.3C20.3,79,19.9,79.2,20.1,79.4 M9.5,78.8c0.1,0.3,0.7,0.3,0.7-0.1C10,78.7,9.7,78.7,9.5,78.8 M20.5,78.7
		c0.2,0.2,0.7,0.1,0.7-0.2c-0.2-0.1-0.4,0-0.6-0.1C20.6,78.5,20.5,78.5,20.5,78.7 M7.7,78.5c-0.1-0.2-0.2-0.4-0.4-0.5
		C7.3,78.3,7.3,78.5,7.7,78.5 M21.3,78c-0.2,0-0.3,0-0.5-0.1C20.7,78.3,21.2,78.1,21.3,78 M25.3,77.7c-0.7-0.5-1,0.8-1.5,1.2
		c-0.2,0-0.1-0.3-0.2-0.3c0.1,0.6,0,0.8,0.1,1.4c0.5,0.3,0.9,0,1.4,0.2c0,0.2,0.1,0.1,0,0.3c3.3,1,7.4,1.1,10.6-0.1
		c-0.1,0,0-0.2,0.1-0.2c0.5-0.3,0.9,0.1,1.4-0.2c0-0.6,0.1-1,0-1.4c0,0.2,0,0.3-0.2,0.3c-0.4-0.5-0.6-1.1-1.1-1.4
		c-0.6,0.2-0.4,1.2-1,1.4c-0.2-0.5-0.7-0.8-1.1-1.1c-0.6,0.1-0.5,0.9-1,1.2c-0.5-0.2-0.5-0.9-1.1-1c-0.5,0.4-0.7,1-1,1.6
		c-0.5-0.4-0.6-1.3-1.2-1.6c-0.6,0.1-0.6,0.9-1.1,1c-0.3-0.4-0.4-1.1-0.9-1.2c-0.5,0.3-0.9,0.7-1.2,1.1C25.4,78.7,25.6,78,25.3,77.7
		 M21,77.6c0.2-0.1,0.2,0.1,0.4,0.1C21.4,77.4,21,77.5,21,77.6 M19,77.8c-0.2-0.1,0-0.6-0.1-0.6v0.6C18.9,77.7,18.9,77.9,19,77.8
		 M20.8,77.1c0.2,0,0.8,0.2,0.9-0.1C21.4,76.9,20.9,76.8,20.8,77.1 M29.3,77.2c-1.2,0-3.2-0.5-4-0.4c0.3,0.5,0.3,1.1,0.6,1.7
		c0.2-0.6,0.9-0.7,1.4-1c0.4,0.2,0.7,0.6,0.8,1.1c0.4-0.4,0.8-0.9,1.5-1c0.1,0.6,0.5,1,0.9,1.4c0.2-0.5,0.5-0.9,0.8-1.4
		c0.6,0.2,1.1,0.6,1.4,1c0.1-0.6,0.3-1,0.9-1.1c0.5,0.3,1.1,0.5,1.4,1c0.2-0.7,0.3-1.2,0.6-1.7c-1.1,0-3.6,0.4-4.7,0.6
		c-0.4-0.2-0.9,0-1.4,0C29.3,77.3,29.3,77.2,29.3,77.2 M35.6,77.1c0.7,0.2,1.1,0.7,1.4,1.3c-0.1-0.7-0.3-1.3-0.6-1.8
		C35.8,76.5,35.8,76.9,35.6,77.1 M23.8,78.4c0.2-0.7,0.7-1.1,1.3-1.3c0-0.2-0.2-0.3-0.2-0.5C23.9,76.6,23.8,77.8,23.8,78.4
		 M11.7,80.1C10.5,79.4,9,79,7.4,79c-0.6-0.3-0.6-1.3-0.3-1.9c-0.4,0.1-0.1-0.3-0.2-0.5c-0.2,0.3-1.1,0.4-1,0.9
		c0-0.1,0.2-0.2,0.2-0.1c-0.2,0.2-0.3,0-0.5,0.1c-0.1,0.4-0.9,0.8-1,1.5c0-0.1,0.1-0.4-0.1-0.3c-0.1,0.4-0.2,0.7-0.4,0.9
		C4,79.8,3.6,79.9,3.6,80c-0.1,0.2-0.1,0.4-0.2,0.5c0,0-0.1-0.2-0.1-0.1c-0.2,0.3-0.1,0.7-0.6,0.8c0-0.1,0.4-0.2,0.1-0.4
		c-1.3,1.4-2.2,3.3-1.9,5.8c0.4,3.8,3.5,6.8,7.2,7c1,0.1,1.7,0.1,2.5-0.4c-0.4-0.6-1.7,0-2.5-0.4c-0.1,0.3,0.5,0,0.4,0.3
		c-2.2,0.3-4.7-1.1-6.1-3.2c-0.9-1.5-1.8-4.2-1-5.7c-0.1,4.9,2.2,8.1,6.7,8.8c-0.2-0.5-0.7-0.3-1.1-0.4c-1.6-0.4-2.5-1.5-3.6-2.6
		c-1.1-2.3-1.5-6-0.1-8.2c1-0.5,1.6-1.7,3-1.8c1.1-0.1,2-0.1,2.9,0.2c2.2,0.8,3.6,2.9,4.6,4.9c0.1-0.1-0.2-0.2,0-0.3
		c0,0.5,0.3,1,0.5,1.5c0.1-0.3,0.2-0.6,0.5-0.7c-0.1-0.2-0.3-0.5-0.2-0.9c-0.5-1.2-1.2-2.2-2.2-2.9c-0.3-0.1-0.8-0.2-0.6-0.6
		c1.7,0.8,2.7,2.2,3.2,4.2c0.1-0.5,0.7-0.6,0.7-1.1c0-0.6-0.5-0.8-0.8-1.2c-0.5-0.9-1.9-2.2-2.5-2.4c0.9,0.7,1.6,1.3,2.2,2.4
		c0.1,0.2,0.8,1.7,0.6,1.6c-0.1,0-0.4-0.6-0.5-0.9c-0.6-1.2-1.6-2.5-2.6-2.8c-0.2-0.6-1.2-0.3-1.4-0.9
		C11.1,79.7,11.4,80.1,11.7,80.1 M20.8,76.6c0.3-0.2,0.5,0.1,0.6-0.1C21.2,76.5,20.8,76.4,20.8,76.6 M22,76.1c-0.2,0.3,0,0.6,0,1
		c0.2,0.1,0.9,0.1,1.4,0.1c0-0.7,0.7-0.8,1.1-1.1C23.7,76,22.7,76.1,22,76.1 M34.2,76.3c-0.2,0,0.1-0.5-0.1-0.5
		C33.9,76,34.1,76.5,34.2,76.3 M26.4,76.3c0.1-0.1,0.2-0.5,0-0.5C26.5,76,26.3,76.6,26.4,76.3 M20.9,75.8c0,0.5,0.3,0.1,0.6,0.3
		c0.1-0.1,0.2-0.4,0-0.4C21.5,76.2,21.1,75.9,20.9,75.8 M36.1,76.1c0-0.1,0.1-0.5-0.1-0.4C35.8,75.8,36,76,36.1,76.1 M24.6,76.1
		c0-0.1,0.2-0.1,0.1-0.4c-0.1,0-0.1-0.1-0.3-0.1C24.5,75.8,24.5,76,24.6,76.1 M33.3,76.6c-0.1-0.4,0.1-1-0.1-1.1
		C33,75.7,33,76.4,33.3,76.6 M30,77c0.3-0.1,0.4,0,0.6-0.1c0.1-0.4,0.2-1.1,0-1.5C30.2,75.5,29.9,76.2,30,77 M27.3,76.6
		c0.2-0.1,0.3-1,0.1-1.1C27.2,75.7,27.3,76.2,27.3,76.6 M32.1,76.8c0.2-0.5,0-1,0.1-1.4c-0.1,0-0.4-0.1-0.4,0.1
		C32,75.8,31.7,76.7,32.1,76.8 M31.1,76.9c0.2,0,0.4-0.1,0.6-0.1c-0.1-0.4-0.2-0.8-0.1-1.4c-0.2,0.1-0.1,0.1-0.3-0.1
		C31.1,75.8,31,76.5,31.1,76.9 M29,75.4c0,0.5,0,1-0.1,1.4c0.4,0.1,0.4,0.1,0.7,0.3c0-0.6,0.2-1.2,0.1-1.6c-0.1,0-0.3,0-0.4,0.2
		c0-0.1,0.1-0.4-0.1-0.4C29.3,75.6,29.2,75.4,29,75.4 M28.4,76.8c0.5-0.1,0.2-1,0.4-1.4h-0.4C28.4,75.8,28.2,76.3,28.4,76.8
		 M35.3,75.7c0.1-0.1,0.2-0.6-0.1-0.5C35.2,75.4,35.1,75.7,35.3,75.7 M32.8,76.6c-0.1-0.2,0-1.3-0.1-1.4
		C32.6,75.5,32.3,76.4,32.8,76.6 M27.8,76.6c0.3-0.3,0.2-1.5-0.1-1.4C28,75.6,27.6,76.6,27.8,76.6 M25.3,75.7
		c-0.1-0.2,0.1-0.6-0.1-0.5C25.2,75.4,25.1,75.7,25.3,75.7 M34.5,76.4c0.6-0.1,0.1-1.1,0.3-1.4c-0.1,0-0.3,0-0.3,0.1
		C34.6,75.3,34.5,76.1,34.5,76.4 M26,76.4c-0.1-0.3,0.1-1.3-0.1-1.4h-0.1C25.9,75.3,25.4,76.4,26,76.4 M19,74.9
		C18.6,76.1,19.2,75.1,19,74.9 M21.1,75c0.1-0.3-0.3-0.3-0.4-0.1C20.9,74.9,20.9,75,21.1,75 M20,74.6h-0.2c-0.2,0.3-0.5,0.7-0.6,1.2
		c-0.1,1-0.1,2.3,0.4,2.8C20.6,78.1,20.5,75.5,20,74.6 M36.3,71.4c-3.6,0.9-8.5,1-12,0c-0.1,0-0.1,0.1-0.2,0.1
		c-0.1-0.2-0.7-0.3-1-0.2c0,3.3,3.2,3.5,5.9,3.5c0.1,0.1,0.3,0.2,0.5,0.3c3.4-0.5,7.8,0.4,7.9-3.8c-0.5-0.2-1.1,0.3-1.2,0.2
		C36.3,71.5,36.3,71.5,36.3,71.4 M34,71.5c0.3,0,0.6-0.1,0.9-0.1c0.8-0.2,2.1-0.5,2.9-0.7c-5,0.9-10.1,0.7-15,0.1
		C26.4,71.5,30,72.1,34,71.5 M30.1,70.9c0.2,0,0.3,0,0.5,0.1c0-0.2,0.1-0.4,0.1-0.7c-0.3,0-0.5,0-0.7-0.1
		C30.2,70.5,30.2,70.5,30.1,70.9 M32.6,70.4c0.1-0.1,0.3-0.1,0.4-0.2h-0.5c0.1,0.5-0.6,0.8-0.7,0.3c0.2,0,0.4,0,0.4-0.2
		c-0.3-0.2-0.7,0.2-0.9,0c-0.1,0.3-0.3,0.4-0.4,0.6c1,0,1.8-0.2,2.6-0.1c0.1-0.2,0.1-0.7-0.1-0.6C33.4,70.5,32.7,70.9,32.6,70.4
		 M27,70.8c0.9,0,1.7,0.1,2.7,0.2c0-0.3-0.3-0.3-0.2-0.8c-0.4,0.2-0.7-0.1-1.1,0.1c-0.1,0.3,0.3,0.1,0.4,0.3
		c-0.2,0.4-0.8,0.1-0.7-0.4c-0.1,0-0.5-0.1-0.5,0.1c0.2,0,0.3,0.1,0.4,0.2c-0.4,0.4-0.7-0.1-0.9-0.4C26.9,70.2,26.9,70.6,27,70.8
		 M34,70.1v0.6c0.3-0.1,0.7,0,1-0.1c-0.3,0-0.1-0.5-0.2-0.6C34.4,69.9,34.3,70.1,34,70.1 M25.5,70.6c0.5,0,0.7,0,1,0.1v-0.6
		c-0.3,0-0.4-0.1-0.8-0.1C25.6,70.1,25.7,70.5,25.5,70.6 M35.2,70.6c0.2-0.2,0.3-0.5,0.1-0.7h-0.2C35.2,70,35.2,70.3,35.2,70.6
		 M25.3,70.6c0-0.3,0-0.5,0.1-0.7C24.9,69.8,25.1,70.4,25.3,70.6 M37.3,69.8c0.1,0,0.1,0,0.1-0.1c-0.3-0.1-0.2,0.2-0.2,0.4h0.4
		c-0.1-0.2,0-0.2-0.1-0.3C37.6,70.1,37.3,69.9,37.3,69.8 M22.9,70.2h0.4c0.1-0.2,0-0.6-0.2-0.4c0.3-0.1,0.1,0.2-0.1,0.1
		c0,0-0.1-0.1-0.1,0C23,70,22.9,70.1,22.9,70.2 M35.8,70.5h0.4c-0.1-0.3,0.3-0.8-0.4-0.9C35.7,69.8,36,70.2,35.8,70.5 M24.4,70.5
		h0.4c-0.2-0.3,0.1-0.7,0-0.9C24.1,69.6,24.5,70.2,24.4,70.5 M36.6,70.4h0.3c-0.1-0.3,0-0.3,0.1-0.6c-0.1-0.2-0.4-0.3-0.6-0.4
		C36.4,69.7,36.6,69.9,36.6,70.4 M23.6,69.8c0,0.3,0.2,0.3,0.1,0.6c0.4,0,0.4-0.9,0.4-1C24,69.6,23.7,69.6,23.6,69.8 M30.6,66.3
		c0-0.1-0.1-0.2-0.2-0.2c-0.4,0.3,0.3,1.3-0.1,1.6c0.1,0.2,0.1,0.4,0.3,0.4c0-0.2-0.2-0.2-0.1-0.4c0.3-0.2,0.3,0.1,0.6,0.1
		C30.6,67.5,30.5,66.6,30.6,66.3C30.5,66.3,30.5,66.4,30.6,66.3 M35.6,66.9c0.2-0.4,0.1-1.6-0.1-2.1C35.5,65.3,35.1,66.6,35.6,66.9
		 M25,66.9c0.3-0.5,0.1-1.7-0.1-2.1C25,65.5,24.6,66.6,25,66.9 M23.8,68.8c2.1,1.1,4.8,1.1,7.2,0.9c1.7,0.2,4.1-0.1,5.7-0.9
		c-0.3-1.5-0.3-3.5,0.4-4.7c-1.4-0.1-1.2,2-0.9,3.2c-0.3,0.3-0.6,0.4-0.9,0.4c0-0.3,0.1,0,0.2-0.1c0-0.3-0.4-0.2-0.4-0.5
		c0.3-0.4-0.1-1.5,0.1-2.1c-0.2-0.3-0.4-0.6-0.8-0.7c-0.8,0.5-0.6,1.7-0.7,2.7c0.2,0,0.4,0.1,0.4,0.2c0,0.5-0.2,0.6-0.3,0.8
		c-0.4-0.1-1.4,0.2-1.3-0.9h0.3c-0.2-0.4,0-1-0.1-1.6c-0.5-0.3-0.8-0.8-1.2-1.1c-0.4,0.3-0.4,0.9-0.3,1.5c-0.8,0.2,0.2,1.8,0,2.2
		C31,68.8,30,68.8,29.8,68c0.7-0.7-0.4-3.5-0.9-3.5c-0.2,0-0.8,1.2-1.1,1.1c-0.1,0.6,0,1.2-0.1,1.6c0.1,0,0.3,0,0.3,0.1
		c0,1.1-0.9,0.7-1.4,0.9c0-0.3-0.3-0.4-0.2-0.9c0.1,0,0.2-0.2,0.4-0.1c-0.1-1,0.1-2.2-0.7-2.7c-0.2,0.2-0.7,0.3-0.8,0.8
		c-0.1,0.3,0.1,2.1,0.2,2.1c-0.1,0.2-0.4,0.2-0.4,0.5c0.2,0,0.2-0.1,0.2,0.1c-0.3-0.2-0.8-0.1-0.9-0.6c-0.1-0.3,0.2-1.1,0.2-1.7
		c0-1.1-0.3-1.3-1.1-1.4C24.1,65.3,24.1,67.3,23.8,68.8 M33.8,64.6c0-0.3,0.4-0.4,0-0.6C33.9,64.2,33.6,64.5,33.8,64.6 M26.8,64.6
		c0-0.3,0-0.5-0.1-0.6C26.3,64.2,26.7,64.4,26.8,64.6 M34.8,64c0.1,0,0.2,0.1,0.3,0.1c0-0.3,0-0.6-0.2-0.6
		C34.9,63.8,34.9,63.9,34.8,64 M25.5,64.2c0-0.1,0.2,0,0.2-0.2c-0.3,0,0.1-0.3-0.1-0.4C25.5,63.7,25.3,64,25.5,64.2 M34.5,63.3
		c0-0.1,0.2-0.6-0.1-0.6C34.4,63,34.4,64,34.5,63.3 M26,63c0,0.9,0.4,0.2,0-0.3C26,62.8,26,62.9,26,63 M33.9,63.9
		c0.3-0.2,0.2-1.2,0-1.6C34.1,62.8,33.9,63.3,33.9,63.9 M26.6,63.9c-0.1-0.5,0.1-1.3-0.1-1.6C26.6,63,26.2,63.6,26.6,63.9 M33.2,67
		c0,0.2-0.3,0.1-0.3,0.2c0,0.4,0.4,0.5,0.7,0.3c0-0.1-0.3,0-0.4-0.1c0-0.2,0.2-0.3,0.4-0.4c-0.5-0.7-0.1-1.8,0-2.4
		c-0.4-0.2,0.3-1.7-0.1-2.5c-0.2,0-0.2-0.2-0.4-0.1C33.4,63.9,33,65.7,33.2,67 M27.3,67c0.1-0.5-0.2-1,0.1-1.6
		c-0.4-0.9-0.2-2.3-0.1-3.3c0-0.1-0.1-0.1-0.1-0.1c0,0.1-0.2,0.1-0.3,0.1c-0.2,0.8,0,1.7,0.1,2.4c-0.1,0.1-0.1,0.2-0.3,0.1
		c0.3,0.7,0.5,1.7,0.1,2.4c0.3,0,0.3,0.2,0.4,0.4c-0.2,0-0.3,0-0.4,0.1c0.4,0.1,0.7,0,0.7-0.4C27.4,67.2,27.3,67.2,27.3,67
		 M32.8,65.2c0.4-0.9,0.2-2.5-0.1-3.4C32.8,63,31.9,64.6,32.8,65.2 M27.8,65.2c0.7-0.6,0-2.3,0-3.4C27.7,62.8,27.2,64.4,27.8,65.2
		 M30.3,60.9c-0.1,1.3,0,2.9-0.2,4.2h-0.2c0.1,0.3,0.3,0.6,0.5,0.9c-0.1-0.4,0.5-0.4,0.4-0.6c0.1-0.9-0.1-3,0.3-4.6
		C30.7,60.8,30.6,60.9,30.3,60.9 M31.1,64.2c0.3,0,0.2-0.4,0.6-0.3c0-1.2,0.2-2.2,0.1-3.1c-0.3,0-0.3,0.1-0.6,0
		C31.4,61.7,31,63.1,31.1,64.2 M28.9,63.9c0.6,0,0.4,0.9,0.9,1c0.1-1.4,0.2-3,0.1-4c-0.3-0.1-0.3,0.1-0.6,0.1c0,0.2,0.1,0.7-0.1,0.8
		c0-0.5-0.1-0.7,0.1-1c-0.2,0.1-0.3,0-0.6,0C28.7,61.7,28.9,62.7,28.9,63.9 M32.1,60.9c0,1.4-0.5,2.7,0,3.6c0.2-1.2,0.3-2.7,0.2-3.9
		h-0.2V60.9z M28.5,64.5c0.3-1.1,0-2.3-0.1-3.9h-0.2C28.2,61.8,28.2,63.5,28.5,64.5 M30.9,59.8c0.1-0.5,0.1-1.4-0.1-1.7
		C30.9,58.7,30.7,59.4,30.9,59.8 M31.8,60.2c0.4-0.7,0.2-1.9,0.1-2.9C32,58.3,31.6,59.7,31.8,60.2 M28.8,60.2c0-0.6-0.1-2.1-0.3-2.9
		C28.6,58.4,28.2,59.6,28.8,60.2 M30.1,60.2c0.2,0,0.3,0,0.4,0.1c0.1-0.7,0-2.3,0.1-3.1h-0.4C30,58.3,30.1,58.8,30.1,60.2
		 M29.5,57.3c-0.1,0.8,0,1.6,0.1,2.2c0,0.2-0.2,0.6,0.1,0.6c0.2-1,0-2.2,0.2-3c-0.1,0-0.5-0.1-0.5,0.1
		C29.5,57.2,29.5,57.2,29.5,57.3 M31.1,60.1c-0.2,0-0.1-0.3-0.3-0.2c-0.1,0.4,0.4,0.3,0.6,0.3c0.1-1,0.3-2.1,0.1-3.1
		C30.8,57.8,31.7,59.2,31.1,60.1 M29.3,60.2c-0.1-1,0.4-2.4-0.3-3.1C29,58.1,28.8,59.4,29.3,60.2 M32.4,56.3c-0.2,0-0.3-0.1-0.4-0.1
		c-0.1,0.2-0.2,0.4-0.4,0.4c0-0.1-0.1-0.2-0.1-0.2C31.5,56.9,32.3,56.7,32.4,56.3 M28.9,56.6c-0.2-0.1-0.2-0.3-0.4-0.4
		c-0.1,0.1-0.2,0.2-0.4,0.1C28.3,56.7,28.6,56.6,28.9,56.6c0.1,0,0.4-0.1,0.1-0.2C29,56.5,29,56.5,28.9,56.6 M30.8,55.5
		c0-0.2-0.3-0.5-0.4-0.3C30.7,55.2,30.6,55.5,30.8,55.5 M29.3,56.7c0.6-0.1,1.4,0.3,1.8-0.1c-0.4-0.5-0.9-0.7-1.3-1.1
		C30,55.3,30,55.3,30,55c0.1-0.2,0.2,0.1,0.3-0.1c-0.1-0.1-0.3-0.2-0.4-0.4c0-0.1,0.2-0.1,0.3-0.2c-0.2-0.2-0.5-0.3-0.5-0.6
		c0.6-0.1,0.9,0.7,1.4,0.9c-0.2-0.6-0.8-0.8-1.1-1.3c-0.1-0.3,0.3-0.1,0.4-0.3c-0.3,0-0.5-0.1-0.8-0.1
		C29.4,54.1,29.3,55.3,29.3,56.7 M39.4,58.6c-0.3,0.4-0.8,0.7-0.8,1.2c1.9-1.9,3-4.6,3.4-8C41.3,54.2,40.6,56.8,39.4,58.6 M22,59.7
		c-1.7-2.1-2.6-5-3.4-7.9C18.9,55.2,20.1,58.2,22,59.7 M42.1,51.6c0-0.2,0.1-0.8-0.1-0.6C42,51.1,41.9,51.8,42.1,51.6 M18.5,51.6
		c0-0.2,0.1-0.8-0.1-0.6C18.5,51.1,18.4,51.8,18.5,51.6 M29.8,40.7c-0.1,0.7,0.1,1.5,0,2.2c-0.2,1.9-0.8,3.6-0.9,5.4
		c0.2,0.5,0.4,1.1,0.5,1.6c0.3-0.2,0.2,0.3,0.4,0.4c0.1-0.3-0.3-0.4-0.1-0.6c0.3,0,0.1,0.4,0.4,0.4c0.6,0,0.6-1.1,0.7-1.4
		c-0.2,0.6-0.4,1.1-1.3,1c-0.7-1.4-0.3-4.1,0.2-5.7c0.2,1.1-0.5,4-0.1,4.2c0,0,0-0.3,0.1-0.2c0,0.8-0.2,0.7,0,1.4
		c0.9,0,0.6-1.1,0.9-1.6c0.1,0.1,0.1,0.4,0.2,0.5c0.2-1.7-0.6-4.1-0.4-5.4c0.7,2.3,1.4,5.6,0.2,7.6c-0.3,0.2-1.2,0.2-0.9,0.8
		c0.8,0,0.8-0.4,1-0.9c0.2-0.4,0.5-0.7,0.6-1c0.4-1,0.1-1.9-0.1-3c-0.3-2.4-1.1-5.1-1-7.6c-0.2-0.1-0.2-0.3-0.3-0.4
		C30.3,39.1,29.8,39.8,29.8,40.7 M34.2,1.4c-2.7-0.5-5.1-0.4-7.9-0.1c-0.1,4.1,0,9.7-0.1,13.5c0.1,0.2,0-0.2,0.2-0.1
		c-0.4,0.8-0.2,1.8,0,2.4c-0.1,0.2-0.3,0.3,0,0.4c-0.2,0.1-0.4,0.1-0.2,0.5c0-0.1,0-0.2,0.1-0.2c-0.3,3.7-0.6,7.6-1.1,10.8
		c-0.5,3.3-1.5,6.3-2.6,9.2c-0.6,1.1-1.1,1.9-1.6,2.9c-1.3,2.9-3.1,5.7-2.6,9.3c0-2,0.5-3.2,1.1-4.8c0.4-1,0.9-2,1.4-2.9
		c0.1-0.3,0.1-0.6,0.2-0.8c0.4-0.9,1.1-1.7,1.6-2.6c0.9-1.9,1.5-3.6,2.1-5.8c0.3-1.3,0.9-2.7,1.1-4c0.2-0.9,0-1.8,0-2.6
		c0-1.1,0.5-2.3,0.6-3.5c0.1-1.9,0-4.1,0.1-5.5c0.2-1.8-0.2-3.6-0.1-5.3c0.1-2.3,0.2-4.4,0.1-6.6c-0.1-0.9,0-1.7,0-2.6
		c0-0.4-0.3-0.8,0.2-1.1c0.2,3.5,0.2,6.5,0.5,9.7c-0.2,0-0.3-0.2-0.4,0.1c0.1,0.9-0.1,2.2,0.2,3.4c0.5-4.1,0.2-7.7,0.2-11.2
		c0-0.8-0.2-1.8,0.3-2.2c0.1,2.9,0.2,7.1,0,10.2c-0.2,2.2-0.3,4.7-0.7,6.6c-0.1,1.4,0,3-0.1,4.6c-0.1,1.1-0.5,2.2-0.6,3.1
		c0,0.4,0.1,0.7,0.1,1.1c0,1.3-0.4,2.5-0.6,3.6c-0.7,2.4-1.1,4.6-2.1,6.6c-0.3,0.5-0.4,1.1-0.6,1.6c-0.5,0.9-1.2,1.8-1.6,2.7
		c-0.5,1-0.9,2.2-1.4,3.3c-0.5,1.2-1,2.4-1.1,3.6c-0.2,1.6,0.1,2.8,0.4,3.9c0.3,1.1,0.4,2.3,0.7,3.1c0.4,0.9,1,1.9,1.6,2.9
		c0.6,0.9,1.3,1.9,2,2.4c0.4,0.4,1,0.2,1.4,0.8c-0.9,0.1-1.7-0.6-2.3-1.1c0.7,0.9,1.5,1.7,1.5,3.4c0.3,0.3,0.7,0.4,0.8,0.9
		c0-1.1,0.1-2,0.8-2.6c0.4-0.3,1-0.3,1.4-0.7c0-0.7,0.3-1,0.6-1.4c0-0.9-0.1-1.6-0.1-2.6c-0.4-0.2-0.4-0.8-0.4-1.4
		c0.4-0.3,0.7-0.7,1.4-0.8c0.1-1.1,0-2,0.1-2.9c0.7,0,0.8-0.7,0.1-0.8c-0.1-0.3-0.4-0.4-0.7-0.5c-0.7-0.9-1.3-1.9-1.4-3.2
		c0-1.2,0.4-2.2,0.7-3.1c0.2-0.6,0.3-1.3,0.7-1.6c-0.6,2.5-1.9,5.7,0.2,7.6c-1.9-3.3,0.4-7,1.1-10.7c0.3-1.6,0.4-3,0.6-4.3
		c0.3,0.1,0.3,0.4,0.6,0.5c-0.1,5.6,4.1,10.6,1.1,15.3c-0.5,0-0.7,0.5-1.1,0.8c0.6,0.1,0.6-0.3,1.1-0.1c0.3,0.8,0.1,1.9,0.2,3
		c1.2,0,1.8,1.4,0.9,2.2c0.1,0.9-0.1,1.7-0.1,2.6c0.4,0.2,0.6,0.7,0.6,1.3c1,0.5,2,1,2.1,2.3c0,0.3-0.3,0.7,0.1,1
		c0-0.6,0.6-0.5,0.7-0.9c0-1.6,1-2.4,1.4-3.3c-0.5,0.5-1.5,1.2-2.2,1c1.5-0.7,2.5-1.7,3.4-3.1c0.6-0.9,1.2-2,1.6-2.9
		c0.3-0.9,0.4-2.1,0.7-3.1c0.1-0.2,0.2-0.4,0.3-0.6c0.6-2.6-0.2-4.8-1-6.9c-0.4-1.1-0.9-2.3-1.4-3.3c-0.5-0.9-1.2-1.8-1.6-2.8
		c-0.9-1.9-1.8-4.1-2.4-6.4c-0.3-1.1-0.7-2.3-0.9-3.4c-0.2-1.2,0.1-2.3,0-3.1c-0.1-0.9-0.5-1.9-0.6-3.1c-0.1-1.6,0-3.2-0.1-4.6
		c-0.7-3.8-1-8.7-0.8-12.1c0.1-1.9-0.2-3.6,0.1-4.6c0.4,0.6,0.2,1.5,0.2,2.3c0,3.6-0.3,7.2,0.3,11.2c0.1-1.3,0.1-2.4,0.1-3.4
		c0-0.3-0.3,0.1-0.4-0.1c0-2.6,0.5-5.1,0.4-7.7c0-0.6-0.3-1.3,0.1-1.9c0.6,2-0.1,4.1,0,6.1c0.1,1.4,0.2,2.8,0.2,4.2
		c0,1.7-0.3,3.5-0.1,5.3c0.2,1.5,0,3.6,0.1,5.5c0.1,1.2,0.6,2.4,0.6,3.5c0,0.4-0.1,0.7-0.1,1c0,1,0.3,1.7,0.5,2.4
		c0.4,1.2,0.5,2.6,0.9,3.9c1.5,5.7,5.7,9.5,6.3,16.1c0.2-5.2-2.6-8.5-4.3-12.3c-1.1-2.9-2.1-6-2.6-9.2c-0.4-2.5-0.6-5.1-0.8-7.9
		c0-0.8,0-1.6-0.1-2.3c0-0.2-0.3-0.4-0.1-0.6c0,0.1,0,0.2,0.1,0.2c0.1-0.5-0.2-0.3-0.3-0.6c0.4,0,0-0.2,0-0.4
		c0.3-0.5,0.3-1.7,0.1-2.3c0.1,0,0.1,0.3,0.1,0C34.2,11,34.3,5.4,34.2,1.4 M35.1,0.6c0.2,3.7,0,8.7,0.2,12.2c0,0.8,0,1.7,0,2.4
		c-0.1,2.2,0.5,4.6,0.6,6.9c0.1,1.4,0.1,2.7,0.3,4.1c0.3,3.3,1,6.4,1.9,9.4c0.5,1.6,1.4,3.1,2.4,4.7c0.8,1.3,1.2,3,1.8,4.7
		c0.1,0.4,0.4,0.6,0.6,1.1c1.2,3.3,0.6,7.4-0.5,10.5c-1.3,2.5-3.4,4.2-4.6,6.8c-0.2,0.2,0.2,0.2,0.2,0.5c-0.6,0.7-1.1,5-0.1,5.4
		c0.1,0,0.7-0.4,1.1-0.1c0.6,0.8,0.2,2.3-0.9,2.4c0,1.7-0.7,3.3-2.4,3.6c0.3,0.4,0.7-0.1,1-0.1c-0.5,0.2-0.1,0.9-0.5,1.1
		c1.6,0.6,1.3,2.7,1.3,4.1c0.7,0.5,1.5,0.2,2.6,0.6c0.3,0.1,0.6,0.3,0.9,0.5c1.7,0.9,3.2,2.2,4.6,3.6c1.2,1.2,2.3,3.9,2.9,6
		c0.7,0.3,1.6,0.7,1.6,1.6c0,0.6-0.2,0.9-0.4,1.4c-0.1,0.2-0.2,0.5-0.2,0.5c-0.2,0.2-0.5,0.2-0.6,0.4c-0.3,0.4-0.3,1.3-0.5,1.9
		c-1.2,4.5-4.2,8-7.7,9.9c-0.4,0.8-0.7,2.2-0.3,3.2c0.3,0.7,0.9,0.8,1,1.4c2.5-0.1,2.2,3.1,1.4,4.5c-1.7,1.5-4.7,2.5-7.4,2.7
		c-3,0.2-6.8,0.2-9.8,0c-2.7-0.2-5.8-1.2-7.5-2.7c-0.8-1.4-1.2-4.5,1.3-4.5c0.7-1.3,1.2-2.7,0.9-4.4c-3.5-2.4-6.6-5.4-7.9-10.2
		c-0.3-1-0.1-2.3-1.4-2.5c-1.2-0.2-2.4,0.3-3.6,0.1c-1.8-0.3-4.2-1.6-5.2-2.6C1.5,91,1.1,90,0.6,89C0.3,88.2,0,87.6,0,86.3
		c0-3.3,1.6-5.4,3.4-7.1c0.7-1.8,2.3-2.7,3.9-3.6c0.3,0.3,0.5,0,0.8,0.2c0,0.7-0.2,0.8-0.1,1.6c1.6,0.4,3.2,0.2,4.6,0.9
		c1.7,1,3.3,3.1,4.4,4.7c0.1-0.1,0.2-0.3,0.3-0.4c0.1,0,0,0.2,0.1,0.2c1.2-0.8,2.8-2,4.5-2.3c0.5-0.1,0.9,0.1,1.3-0.2
		c0.1-0.6-0.2-1.6,0.1-2.4c-0.4-0.1-1,0.1-1.3,0.1c-0.4,1-0.6,2.4-1.9,2.2c-1.9-0.2-2.5-5.9-0.4-6.7c0.6-0.2,1.2-0.1,1.8,0.4
		c0.2,0.5,0.3,0.9,0.4,1.4c1.1,0.1,1.7,0,3-0.1c-1.5-0.5-2.4-1.9-2.4-3.6c-1-0.2-1.6-1.6-0.9-2.4c0.3-0.3,1,0.1,1.1,0.1
		c1.1-0.4,0.7-4.5,0-5.4c-0.1-0.3,0.3-0.2,0.3-0.5c-1.2-2.6-3.3-4.3-4.7-6.9c-0.5-1.3-0.8-2.7-0.9-4.1c-0.1-0.5-0.3-1-0.3-1.4
		c-0.1-1.9,0.2-3.5,0.7-5c0.1-0.4,0.4-0.6,0.6-1c0.6-1.6,1-3.3,1.8-4.7c0.3-0.5,0.8-1,1.1-1.6c0.9-1.8,1.5-3.8,2-5.8
		c0.9-3.3,1.3-6.7,1.4-10.7c0.1-2.5,0.5-4.9,0.5-7.4c0-0.6,0-1.2,0.1-1.9c0.1-2.4-0.1-5.3,0.1-8.2c0-0.6,0.1-1.2,0.1-1.8
		c0-0.8-0.3-1.6,0-2.3C26.6-0.1,29.1,0,30.6,0C32.3,0,34,0,35.1,0.6"/>
	<path class="st0" d="M26.4,73.7c0.1-0.1,0.1-0.6,0-0.6C26.4,73.3,26.1,73.7,26.4,73.7 M26.9,74c-0.2-0.1-0.5,0.2-0.7,0.2
		c-0.7-0.4-0.1-1.4,0.2-1.8c0.2,0,0.1,0,0.4,0c-0.2,0.6,0.3,1.3,0.1,1.8C26.8,74.4,26.9,74.1,26.9,74"/>
	<path class="st0" d="M34.2,73.7c0.1-0.1,0-0.5-0.1-0.6C34.1,73.3,33.9,73.7,34.2,73.7 M33.8,72.4c0.2,0,0.1,0,0.4,0
		c0.3,0.4,0.8,1.3,0.3,1.8c-0.2-0.1-0.6,0-0.6-0.3c-0.1,0-0.2,0.1-0.1,0.3C33.4,74.1,33.9,72.9,33.8,72.4"/>
	<path class="st0" d="M28,74c0.2,0.1,0.2-0.5,0.1-0.5C28,73.7,27.9,73.8,28,74 M28.6,73.2h-0.1c-0.1,0.3,0.2,1.6-0.8,1.2
		c-0.4-0.5,0.1-1.2,0.4-1.6c0.3-0.1,0.3,0.3,0.4,0.4c0.2-0.6,0.3,0.5,0.3,0.9C28.6,73.8,28.6,73.5,28.6,73.2"/>
	<path class="st0" d="M27.7,106.1c0-0.1,0.2-0.2,0.1,0c0.2-0.2,0.6,0,0.7,0.1C28.3,106.3,28.1,106.2,27.7,106.1"/>
	<path class="st0" d="M32.8,106c0.3,0.3-0.5,0.2-0.7,0.3C32.2,105.9,32.9,106.2,32.8,106"/>
	<path class="st0" d="M26.7,80c0.2,0.1,0.3-0.1,0.4-0.1c0-0.2-0.1-0.3-0.3-0.4C26.9,79.8,26.6,79.7,26.7,80 M27,78.4
		c0.2,0,0.3,0,0.4,0.1v0.2c0,0.2-0.1,0.2-0.3,0.2c0.1,0.5,0.5,0.7,0.5,1.3c-0.1,0-0.1,0.1-0.1,0.1c-0.2,0-0.3,0.1-0.6,0.1
		c0.1,0.2,0.4,0.1,0.4,0.3c0,0.4-0.4,0-0.8,0.1c0.1-0.4,0-0.4-0.3-0.5c0.1-0.7,0.2-1.2,0.7-1.4C26.9,78.6,26.9,78.6,27,78.4"/>
	<path class="st0" d="M33.6,79.9c0.2,0,0.2,0.1,0.4,0.1c0-0.2-0.1-0.4-0.3-0.4C33.8,79.8,33.5,79.7,33.6,79.9 M33.4,78.4h0.3
		c0,0.7,0.8,1,0.7,1.9c-0.3,0.1-0.4,0.1-0.3,0.5c-0.3-0.1-0.7,0.2-0.8-0.1c0-0.2,0.3-0.2,0.4-0.3c-0.1-0.1-0.4,0-0.6-0.1
		c0-0.1,0-0.1-0.1-0.1c0-0.6,0.4-0.8,0.5-1.2c0-0.1-0.2-0.1-0.3-0.1C33.3,78.6,33.3,78.4,33.4,78.4"/>
</g>
</svg>
