<?xml version="1.0" encoding="utf-8"?>
<!-- Generator: Adobe Illustrator 19.0.0, SVG Export Plug-In . SVG Version: 6.00 Build 0)  -->
<svg version="1.1" id="Layer_1" xmlns="http://www.w3.org/2000/svg" xmlns:xlink="http://www.w3.org/1999/xlink" x="0px" y="0px"
	 width="108.1px" height="109.4px" viewBox="0 0 108.1 109.4" style="enable-background:new 0 0 108.1 109.4;" xml:space="preserve"
	>
<style type="text/css">
	.st0{fill:#FFFFFF;}
</style>
<g>
	<path class="st0" d="M83.3,56.8c-2,13.8-13.3,24.4-26.9,24.4c-13.6,0-24.9-10.6-26.9-24.4c0-0.7-0.1-1.4-0.1-2.1
		c0-15.7,12.1-28.6,27-28.6s27,12.8,27,28.6C83.4,55.4,83.4,56.1,83.3,56.8 M56.4,83.3c-11.4,0-21.2-7.6-25.2-18.2
		c1.3,3,3.2,5.7,5.5,8.1c5.3,5.6,12.3,8.6,19.7,8.6c7.4,0,14.5-3.1,19.7-8.6c2.3-2.4,4.1-5.2,5.5-8.1C77.6,75.7,67.8,83.3,56.4,83.3
		 M86.5,52.9c-0.7,0-1.3,0.1-2,0.2c-0.1-2.6-0.6-5.1-1.3-7.6c0.1,0,0.3,0,0.3-0.1c0,0,0-0.1,0-0.1c-0.1,0-0.2,0-0.4,0
		c-1.4-4.4-3.7-8.3-6.8-11.7C71,28.1,63.9,25,56.4,25c-7.5,0-14.6,3.1-19.9,8.7c-5.3,5.6-8.2,13.1-8.2,21c0,7.9,2.9,15.4,8.2,21
		c2.4,2.6,5.2,4.6,8.3,6.1c0.1,0.7-0.1,1.5-0.3,2.2c-0.2,0.9-0.5,1.8-0.8,2.7c-0.6,1.8-1.4,3.4-2.3,5c-1.7,3.1-3.9,6.3-4.6,9.9
		c0,0,0,0.1,0.1,0c0.6-1.8,1.3-3.5,2.2-5.1c0.9-1.8,2-3.4,3-5.1c0.9-1.6,1.7-3.3,2.3-5.1c0.4-1.3,1-2.8,1-4.2
		c3.5,1.6,7.3,2.5,11.3,2.5c7.5,0,14.6-3.1,19.9-8.7c5.3-5.6,8.2-13.1,8.2-21c0-0.5,0-0.9,0-1.4c0.7-0.1,1.3-0.2,2-0.3
		C86.5,53,86.5,52.9,86.5,52.9"/>
	<path class="st0" d="M60.2,60.4C60.2,60.4,60.2,60.4,60.2,60.4C60,60.9,60.1,61.5,60,62c-0.1,0.3-0.2,0.5-0.5,0.7
		c-0.2,0.1-0.3,0.1-0.4,0.4c0,0.1,0,0.1,0,0.2c0.5,0.4,1-0.6,1.2-1C60.5,61.7,60.5,60.8,60.2,60.4"/>
	<path class="st0" d="M52.5,60.3C52.5,60.3,52.5,60.3,52.5,60.3c0.2,0.5,0.1,1.1,0.2,1.6c0.1,0.3,0.2,0.5,0.5,0.7
		c0.2,0.1,0.3,0.1,0.4,0.4c0,0.1,0,0.1,0,0.2c-0.5,0.4-1-0.6-1.2-1C52.2,61.6,52.2,60.7,52.5,60.3"/>
	<path class="st0" d="M53.6,61.6c0.8-0.2,1.8,1.4,1.6,1.3c-0.3-0.3-0.9-0.7-1.4-0.4C53.3,62.6,53,61.8,53.6,61.6"/>
	<path class="st0" d="M57,63.4c0.2-0.1,0.3-0.2,0.5-0.3c0.2-0.1,0.3-0.3,0.5-0.4c0,0.1-0.1,0.1-0.1,0.2c-0.1,0.1-0.2,0.2-0.3,0.3
		C57.4,63.3,57.2,63.4,57,63.4C57,63.5,57,63.5,57,63.4 M59.1,61.7c-0.5-0.1-2.4,2.4-4.2,1.4c-0.1-0.1,1.7,1.7,3.4-0.6
		c0.2,0,0.4,0,0.6,0C59.4,62.8,59.6,61.9,59.1,61.7"/>
	<path class="st0" d="M63.6,69.5C63.6,69.6,63.6,69.6,63.6,69.5C63.6,69.6,63.6,69.6,63.6,69.5"/>
	<path class="st0" d="M58.6,69.3c-0.1,0-0.2-0.1-0.3-0.1c0.1-0.5-0.2-1.2-0.4-1.6h0c0.2-0.1,0.4-0.1,0.6,0c0,0,0,0,0,0
		c0.1,0.4,0.2,0.8,0.2,1.2C58.7,68.9,58.7,69.1,58.6,69.3 M58,69.2c-0.1,0-0.2,0-0.3,0c0.2-0.3,0-1-0.2-1.3c0.1-0.1,0.2-0.1,0.3-0.2
		c0.1,0.3,0.2,0.6,0.3,0.9C58.1,68.8,58,69,58,69.2 M57.5,69.2L57.5,69.2C57.5,69.2,57.5,69.2,57.5,69.2
		C57.4,69.2,57.4,69.2,57.5,69.2c0-0.4-0.1-0.9-0.4-1.2c0.1,0,0.1,0,0.2-0.1c0.1,0.1,0.1,0.3,0.2,0.4C57.6,68.7,57.5,68.9,57.5,69.2
		 M56.1,70c-0.2,0-0.6-0.3-0.7-0.4c-0.1-0.2-0.1-0.4-0.1-0.6c0-0.3,0.1-0.6,0.3-0.9c0,0,0.1,0,0.1,0c0.2,0,0.4,0.1,0.6,0.1
		c0.2,0,0.4,0,0.7-0.1C57,68.1,57.8,69.8,56.1,70 M55.3,68.1C55.3,68.1,55.3,68.1,55.3,68.1c0.1,0,0.1,0,0.2,0
		c-0.2,0.3-0.3,0.7-0.3,1c0,0.1,0,0.2,0,0.3C55,69.1,55.1,68,55.3,68.1 M54.6,69.2c-0.1,0-0.1,0-0.2,0c0-0.2-0.1-0.3-0.1-0.5
		c0-0.3,0.1-0.6,0.1-0.9c0-0.1-0.1-0.1-0.1,0c-0.1,0.3-0.2,0.7-0.2,1c0,0.1,0,0.3,0,0.5c-0.1,0-0.1,0-0.2,0c0,0,0,0,0,0
		c-0.1-0.2-0.1-0.4-0.1-0.6c0-0.4,0.1-0.8,0.3-1.1c0.3,0.1,0.6,0.2,0.9,0.4C54.7,68.3,54.6,68.8,54.6,69.2 M63.6,69.6
		C63.5,69.5,63.5,69.5,63.6,69.6c0-0.1-0.1-0.1-0.1-0.1c-0.1-0.1-0.1-0.2-0.2-0.3c-0.1-0.1-0.2,0-0.2,0.1c0,0,0,0,0,0
		c-1,0-2,0.7-3,0.5c-0.4-0.1-0.8-0.2-1.2-0.4c0-0.2,0-0.4,0-0.5c0-0.4-0.1-0.9-0.2-1.3c1,0.2,1.8,0.9,2.6,1.6
		c0.1,0.1,0.3-0.1,0.2-0.2c-0.8-0.9-1.7-1.6-2.9-1.8c-0.8-0.1-1.6,0.5-2.4,0.4c-0.1,0-0.2,0-0.2,0c-0.8,0.1-1.6-0.5-2.4-0.4
		c-1.2,0.2-2.1,0.9-2.9,1.8c-0.1,0.1,0.1,0.4,0.2,0.2c0.8-0.8,1.7-1.5,2.8-1.7c0.1,0,0.1,0,0.2,0c-0.3,0.2-0.3,0.7-0.3,1
		c0,0.2,0,0.5,0.1,0.7c-0.5,0.1-1.1,0.4-1.6,0.5c-1.1,0.2-2.1-0.5-3.1-0.5c0-0.1,0.1-0.1,0.1-0.2C49,69,48.9,69,48.8,69
		c-0.1,0.1-0.1,0.1-0.2,0.2c-0.1,0.1-0.2,0.2-0.2,0.3c0,0.1,0.1,0.2,0.2,0.2c0.1,0,0.1-0.1,0.1-0.1c0,0,0,0,0,0c0.9,0.3,2,1,3,0.9
		c0.5-0.1,0.9-0.2,1.3-0.3c0.2-0.1,0.4-0.1,0.5-0.1c0,0,0,0,0.1,0c0.9,0,1.5,0.8,2.3,0.8c0,0,0,0,0,0c0,0,0,0,0.1,0
		c0,0.1,0,0.2,0,0.3c0,0.2-0.1,0.4,0,0.6c0,0.1,0.1,0,0.1,0c0.1-0.2,0.1-0.4,0.1-0.5c0-0.1,0-0.3,0-0.4c0.8-0.1,1.4-0.7,2.2-0.8
		c0,0,0,0,0.1,0c0.2,0,0.4,0.1,0.5,0.1c0.4,0.2,0.9,0.3,1.3,0.3c1,0.1,2-0.6,2.9-0.9c0,0,0,0.1,0,0.1c0,0.1,0.1,0.1,0.2,0
		C63.6,69.7,63.6,69.6,63.6,69.6"/>
	<path class="st0" d="M80.4,66c-0.2,0-0.2,0.4,0,0.4C80.6,66.4,80.6,66,80.4,66"/>
	<path class="st0" d="M55,73c-1.5-0.5-3-0.5-4.2-1.8c-0.2-0.2-0.3,0.1-0.2,0.3c1.1,1.2,2.8,2.1,4.4,1.8C55.1,73.2,55.1,73,55,73"/>
	<path class="st0" d="M61.6,71.2c-0.7,0.2-1.3,0.9-2,1.2c-0.9,0.4-2,0.6-2.9,0.5c-0.3-0.1-0.5,0.5-0.1,0.6c0.9,0.1,1.9,0,2.8-0.3
		c0.8-0.3,2.4-0.7,2.6-1.8C61.9,71.3,61.7,71.2,61.6,71.2"/>
	<path class="st0" d="M56.2,72.3c0-0.1-0.2-0.1-0.1,0c0,0.1,0,0.2,0.1,0.3c0,0.1,0,0.2,0,0.2c0,0,0.1,0.1,0.1,0
		C56.3,72.7,56.2,72.5,56.2,72.3"/>
	<path class="st0" d="M55.6,67.2c-0.6-0.2-1-0.6-1-1.3c0-0.6,0.6-1.1,0.6-1.8c0,0-0.1-0.1-0.1,0c-0.3,0.7-0.9,1.4-0.7,2.2
		c0.1,0.5,0.6,1.1,1.1,1C55.7,67.3,55.7,67.2,55.6,67.2"/>
	<path class="st0" d="M56.3,67.2c0.6-0.2,1-0.6,1-1.3c0-0.6-0.6-1.1-0.6-1.8c0,0,0.1-0.1,0.1,0c0.3,0.7,0.9,1.4,0.7,2.2
		c-0.1,0.5-0.6,1.1-1.1,1C56.3,67.3,56.3,67.2,56.3,67.2"/>
	<path class="st0" d="M82.7,52.5c-0.2-1.7-0.5-3.4-0.9-5c0-0.1-0.2-0.1-0.2,0c0.2,1.4,0.5,2.8,0.7,4.3c0.2,1.8,0.1,3.4-0.1,5.2
		c0,0.1,0.2,0.2,0.2,0.1C82.9,55.6,82.8,54,82.7,52.5"/>
	<path class="st0" d="M81.5,54.8c-0.1,2.3-0.7,4.4-1.6,6.5c-0.9,2.1-2.1,4-3.1,6c-0.1,0.1,0.1,0.3,0.2,0.2c1.3-1.8,2.3-3.9,3.2-6
		c0.9-2.1,1.5-4.3,1.5-6.7C81.8,54.6,81.5,54.6,81.5,54.8"/>
	<path class="st0" d="M76.6,49.2c-0.5-2.5-3.4-4.1-5.7-4.2c-0.1,0-0.1,0.1,0,0.1c2.4,0.4,4.5,1.8,5.6,4.1
		C76.6,49.4,76.7,49.3,76.6,49.2"/>
	<path class="st0" d="M76.7,47.3c-0.2-0.3-0.4-0.7-0.6-1c-0.1-0.2-0.3,0-0.2,0.1c0.2,0.3,0.3,0.6,0.5,0.9c0.1,0.3,0.2,0.6,0.4,0.8
		c0.1,0.1,0.1,0,0.2-0.1C77,47.8,76.8,47.5,76.7,47.3"/>
	<path class="st0" d="M77.6,47.4c0-0.2-0.1-0.4-0.2-0.5c-0.1-0.2-0.4,0-0.3,0.2c0.1,0.1,0.1,0.3,0.1,0.4c0,0.2,0,0.3,0.2,0.4
		c0.1,0.1,0.1,0,0.2-0.1C77.7,47.8,77.6,47.6,77.6,47.4"/>
	<path class="st0" d="M63.4,44.4C63.3,44.4,63.3,44.4,63.4,44.4c-0.1-0.1-0.2-0.2-0.2-0.2c-0.4-0.4-0.6-0.8-0.9-1.2c0,0,0,0,0,0
		c0.1,0,0.1-0.1,0.2-0.1C62.5,43.4,63,44,63.4,44.4C63.4,44.4,63.4,44.4,63.4,44.4 M62.4,45.1c-0.6-0.3-1-1-1.1-1.6
		c0,0,0.1-0.1,0.2-0.1c0.1,0.4,0.2,0.7,0.4,1C61.9,44.7,62.2,44.9,62.4,45.1C62.4,45.1,62.4,45.1,62.4,45.1 M61.6,45.2
		c-0.4-0.3-0.6-0.8-0.8-1.2c0,0,0,0,0,0c0.1-0.1,0.2-0.2,0.2-0.2c0.1,0.6,0.5,1.4,1.1,1.8c0,0,0,0.1,0,0.1
		C62,45.5,61.7,45.4,61.6,45.2 M60.3,44.6c0.1-0.1,0.2-0.2,0.2-0.3c0.1,0.4,0.3,0.8,0.6,1.1c0.1,0.1,0.3,0.3,0.4,0.4
		C61,45.6,60.5,45.1,60.3,44.6 M60.4,45.7c-0.2-0.2-0.4-0.3-0.4-0.5c0-0.1,0.1-0.2,0.1-0.3c0.2,0.5,0.6,0.9,1.1,1.1
		C60.9,46,60.7,45.9,60.4,45.7 M61.7,43.2C61.7,43.2,61.7,43.2,61.7,43.2C61.7,43.2,61.7,43.2,61.7,43.2
		C61.8,43.3,61.8,43.3,61.7,43.2c0,0.1,0,0.1,0,0.1c0,0.1,0,0.2,0,0.2c-0.1-0.1-0.1-0.2-0.2-0.3C61.6,43.3,61.7,43.2,61.7,43.2
		 M62.9,42.7C62.9,42.7,62.9,42.7,62.9,42.7C62.9,42.7,62.9,42.7,62.9,42.7C62.9,42.7,62.9,42.7,62.9,42.7c0.1,0.3,0.2,0.4,0.3,0.6
		c-0.2-0.2-0.3-0.4-0.5-0.6C62.8,42.7,62.8,42.7,62.9,42.7 M62.2,42.3c-0.9,0.4-1.8,0.9-2.4,1.6c-0.1,0.1-0.3,0.4-0.3,0.5
		c-0.1,0.4-0.1,0.7,0,1.1c0.1,0.4,0.6,0.8,1.2,0.9c1.4,0.2,2.7-1,3.8-1.5c2.9-1.3,6.1-0.9,9.1,0.1C73.8,44.9,68.6,39.5,62.2,42.3"/>
	<path class="st0" d="M61.4,41.4c-1.4,0.5-2.8,1.6-3.3,3.2c0,0.1,0.1,0.1,0.1,0c0.5-1.6,1.9-2.4,3.2-3.1
		C61.6,41.4,61.5,41.3,61.4,41.4"/>
	<path class="st0" d="M60.3,47.8c-0.1-0.1-0.1-0.1-0.2-0.2c-0.1-0.1-0.2-0.1-0.3-0.2c-0.2-0.2-0.4-0.5-0.5-0.8c0-0.1-0.2-0.1-0.2,0
		c0.1,0.4,0.3,0.7,0.5,0.9c0.2,0.2,0.4,0.4,0.7,0.4C60.3,48,60.4,47.9,60.3,47.8"/>
	<path class="st0" d="M59.1,48.1C59.2,48.1,59.2,48.1,59.1,48.1c0.1,0,0.1,0,0.1,0c0,0,0,0,0,0c0,0,0,0,0,0c0,0,0,0,0,0c0,0,0,0,0,0
		c0,0,0,0,0,0l0,0c0,0,0,0,0,0h0c0,0,0,0,0,0c0,0,0,0,0,0.1c0,0.1-0.1,0.2-0.2,0.3c0,0,0,0-0.1,0C59,48.3,59,48.2,59,48.2
		C59,48.1,59.1,48.1,59.1,48.1 M59.9,59.4c-0.8-1.7-1.6-3.5-1.8-5.5c-0.2-1.9,0.3-3.6,0.7-5.4c0.1,0.1,0.2,0.1,0.3,0.1c0,0,0,0,0,0
		c0,0,0.1,0,0.1-0.1c0.1-0.1,0.1-0.2,0.2-0.2c0.1-0.2,0.2-0.4,0-0.6c-0.2-0.1-0.4-0.1-0.5,0c-0.2,0.1-0.4,0.2-0.4,0.4
		c0,0.1,0.1,0.2,0.1,0.3c0,0,0,0,0,0c-0.4,1.3-0.9,2.5-0.9,3.9c-0.1,1.3,0.1,2.7,0.3,4c0.3,1.1,0.8,2.2,1.3,3.3
		C59.6,60,60,59.8,59.9,59.4"/>
	<path class="st0" d="M73.4,54.4C73.4,54.4,73.4,54.3,73.4,54.4c0.3-0.2,0.5-0.4,0.7-0.6C73.8,53.9,73.6,54.1,73.4,54.4
		C73.3,54.4,73.4,54.4,73.4,54.4"/>
	<path class="st0" d="M74.2,54.2C74.2,54.2,74.2,54.2,74.2,54.2c0.3-0.2,0.6-0.3,0.9-0.5c0.1-0.1,0.2-0.2,0.3-0.4
		C75,53.6,74.6,53.9,74.2,54.2C74.2,54.1,74.2,54.1,74.2,54.2"/>
	<path class="st0" d="M61.7,52.3C61.7,52.3,61.7,52.2,61.7,52.3c0.1-0.8,0.1-1.4,0.3-2.1c0.2-0.6,0.5-1.1,0.9-1.5
		c0.1,0,0-0.1-0.1-0.1C61.7,49.2,61.2,51.1,61.7,52.3C61.6,52.3,61.7,52.3,61.7,52.3"/>
	<path class="st0" d="M36.1,49.2c0.1-0.1,0.1-0.1,0.2-0.2c1.1-2.2,3.1-3.6,5.5-4c0.1,0,0.1-0.1,0-0.1C39.5,45,36.6,46.6,36.1,49.2
		C36,49.1,36,49.1,36.1,49.2"/>
	<path class="st0" d="M36,47.1c0.2-0.3,0.4-0.7,0.6-1c0.1-0.2,0.3,0,0.2,0.1c-0.2,0.3-0.3,0.6-0.5,0.9c-0.1,0.3-0.2,0.6-0.4,0.8
		c-0.1,0.1-0.1,0-0.2-0.1C35.7,47.7,35.9,47.4,36,47.1"/>
	<path class="st0" d="M35.1,47.3c0-0.2,0.1-0.4,0.2-0.5c0.1-0.2,0.4,0,0.3,0.2c-0.1,0.1-0.1,0.3-0.1,0.4c0,0.2,0,0.3-0.2,0.4
		c-0.1,0.1-0.1,0-0.2-0.1C35,47.6,35.1,47.4,35.1,47.3"/>
	<path class="st0" d="M49.3,44.4c0.4-0.4,0.9-1,1-1.6v0c0.1,0,0.2,0.1,0.2,0.1c0,0,0,0,0,0c-0.3,0.4-0.5,0.8-0.9,1.2
		C49.5,44.3,49.4,44.4,49.3,44.4C49.4,44.4,49.4,44.4,49.3,44.4C49.3,44.4,49.3,44.4,49.3,44.4 M50.3,45.1c0.3-0.1,0.5-0.4,0.6-0.6
		c0.2-0.3,0.4-0.6,0.4-1c0.1,0,0.1,0.1,0.2,0.1C51.3,44.1,50.9,44.8,50.3,45.1C50.3,45.1,50.3,45.1,50.3,45.1 M50.6,45.6
		c0,0,0-0.1,0-0.1c0.6-0.3,1.1-1.1,1.1-1.8c0.1,0.1,0.2,0.2,0.2,0.2c0,0,0,0,0,0c-0.2,0.4-0.4,0.9-0.8,1.2
		C51,45.4,50.7,45.5,50.6,45.6 M51.1,45.7c0.2-0.1,0.3-0.3,0.4-0.4c0.3-0.3,0.5-0.7,0.6-1.1c0.1,0.1,0.2,0.2,0.2,0.3
		C52.2,45.1,51.7,45.6,51.1,45.7 M51.5,46c0.5-0.2,0.9-0.6,1.1-1.1c0.1,0.1,0.1,0.2,0.1,0.3c-0.1,0.2-0.2,0.4-0.4,0.5
		C52,45.9,51.8,46,51.5,46 M51.1,43.3c-0.1,0.1-0.1,0.2-0.2,0.3c0-0.1,0-0.2,0-0.2c0,0,0,0,0-0.1c0,0,0,0,0,0c0,0,0,0,0,0
		c0,0,0,0,0,0C51,43.2,51.1,43.3,51.1,43.3 M50,42.7c-0.1,0.2-0.3,0.4-0.5,0.6c0.1-0.2,0.2-0.4,0.2-0.5c0,0,0-0.1,0-0.1c0,0,0,0,0,0
		c0,0,0.1,0,0.1,0C49.9,42.7,49.9,42.7,50,42.7 M39.1,44.9c2.9-1,6.2-1.4,9.1-0.1c1.2,0.5,2.4,1.8,3.8,1.5c0.6-0.1,1-0.5,1.2-0.9
		c0.2-0.3,0.2-0.7,0-1.1c0,0-0.2-0.4-0.3-0.5c-0.6-0.7-1.5-1.2-2.4-1.6C44.1,39.5,38.9,44.9,39.1,44.9"/>
	<path class="st0" d="M51.2,41.2c1.4,0.5,2.8,1.6,3.3,3.2c0,0.1-0.1,0.1-0.1,0c-0.5-1.6-1.9-2.4-3.2-3.1
		C51.1,41.3,51.2,41.2,51.2,41.2"/>
	<path class="st0" d="M52.4,47.7c0.1-0.1,0.1-0.1,0.2-0.2c0.1-0.1,0.2-0.1,0.3-0.2c0.2-0.2,0.4-0.5,0.5-0.8c0-0.1,0.2-0.1,0.2,0
		c-0.1,0.4-0.3,0.7-0.5,0.9c-0.2,0.2-0.4,0.4-0.7,0.4C52.3,47.8,52.3,47.7,52.4,47.7"/>
	<path class="st0" d="M53.7,48c0,0.1-0.1,0.2-0.1,0.2c0,0,0,0-0.1,0c-0.1-0.1-0.2-0.2-0.2-0.3c0,0,0,0,0-0.1c0,0,0,0,0,0l0,0v0v0
		c0,0,0,0,0,0c0,0,0,0,0,0c0,0,0,0,0,0c0,0,0,0,0,0c0,0,0,0,0,0c0,0,0,0,0,0c0,0,0.1,0,0.1,0C53.6,47.9,53.7,48,53.7,48 M53.3,59.6
		c0.5-1.1,1-2.2,1.3-3.3c0.2-1.3,0.4-2.6,0.3-4c-0.1-1.3-0.5-2.6-0.9-3.9c0,0,0,0,0,0c0.1-0.1,0.1-0.2,0.1-0.3
		c0-0.2-0.2-0.4-0.4-0.4c-0.2-0.1-0.4-0.1-0.5,0c-0.2,0.1-0.1,0.4,0,0.6c0.1,0.1,0.1,0.2,0.2,0.2c0,0,0.1,0,0.1,0.1c0,0,0,0,0,0
		c0.1,0,0.2,0,0.3-0.1c0.4,1.8,0.9,3.5,0.7,5.4c-0.2,2-0.9,3.7-1.8,5.5C52.7,59.6,53.1,59.9,53.3,59.6"/>
	<path class="st0" d="M50.9,52.2C50.9,52.1,50.8,52.1,50.9,52.2c-0.1-0.8-0.1-1.4-0.3-2.1c-0.2-0.6-0.5-1.1-0.9-1.5
		c-0.1,0,0-0.1,0.1-0.1C50.8,49,51.3,51,50.9,52.2C50.9,52.2,50.9,52.2,50.9,52.2"/>
	<path class="st0" d="M50.3,51.3c0-0.2-0.1-0.3-0.2-0.4c0,0.1,0,0.2,0,0.3c0.1,0.2,0,0.4-0.1,0.5c0-0.1,0-0.3,0-0.4
		c-0.1,0.4-0.4,0.7-0.7,0.9c0.2-0.1,0.4-0.2,0.4-0.2c0,0,0,0,0.1,0c0,0-0.1,0-0.1,0.1c-0.2,0.1-0.4,0.2-0.6,0.4c0,0,0,0.1,0,0
		c0.3-0.1,0.9-0.4,1.1-0.8C50.2,51.6,50.3,51.5,50.3,51.3"/>
	<path class="st0" d="M38.8,54c-0.4-0.3-0.8-0.6-1.2-1c0,0,0,0.1,0,0.1c0.3,0.5,0.8,1,1.3,1.2c0.1,0,0.1-0.1,0.1-0.1
		C38.9,54.2,38.9,54.1,38.8,54"/>
	<path class="st0" d="M48.4,52.5C48.4,52.5,48.4,52.5,48.4,52.5c0.1-0.2,0.1-0.4,0-0.6c0.1,0,0.2,0,0.4-0.1
		C48.7,52.1,48.6,52.3,48.4,52.5 M46.7,53.4C46.7,53.4,46.7,53.4,46.7,53.4c0.4-0.1,0.8-0.3,1.2-0.5c0,0,0,0,0,0
		C47.6,53.1,47.1,53.2,46.7,53.4 M45.8,53.5c0.2,0,0.3,0,0.5,0c0,0,0,0,0,0C46.1,53.5,45.9,53.5,45.8,53.5 M44.5,53.9
		c-0.3,0-0.5,0-0.8-0.1c0-0.1,0.1-0.2,0.1-0.3c0.2,0,0.3,0,0.5,0.1c0.1,0,0.1,0,0.2,0.1C44.5,53.7,44.5,53.8,44.5,53.9 M43.5,52.1
		c-0.1,0-0.1,0-0.2,0c-0.1,0-0.1,0-0.2,0c-1.1-0.2-2.7-0.6-3.6-1.4c0,0,0-0.1-0.1-0.1c1,0.6,2.1,1.1,3.3,1.4
		c0.4,0.1,0.8,0.2,1.2,0.2C43.9,52.1,43.7,52.1,43.5,52.1 M43.2,54.1c-0.7-0.2-1.4-0.4-2-0.7c0,0,0,0,0,0c0.1-0.2,0.2-0.4,0.3-0.7
		c0.3,0.1,0.6,0.2,0.9,0.3c0.3,0.1,0.7,0.2,1.1,0.4C43.3,53.6,43.3,53.8,43.2,54.1 M40.8,53.1C40.8,53.1,40.8,53.1,40.8,53.1
		c-0.4-0.2-0.8-0.5-1.2-0.8c0,0,0.1-0.1,0.1-0.1c0.1-0.1,0.3-0.2,0.4-0.3c0.2,0.1,0.4,0.3,0.6,0.4c0.1,0.1,0.3,0.2,0.4,0.2
		C41,52.7,40.9,52.9,40.8,53.1 M48.9,51.7c-2,0.5-4,0.6-6.1,0.1c-1.3-0.3-2.4-0.8-3.5-1.5c-0.2-0.2-0.3-0.4-0.5-0.6
		c-0.3-0.4-0.8-0.8-1.3-0.7c-0.3,0,0.4,0.5,0.6,0.7c0,0.1,0.1,0.2,0.2,0.3c0,0,0,0.1,0.1,0.1c0.1,0.1,0.1,0.2,0.2,0.3
		c0,0,0.6,0.9,1.2,1.4c-0.1,0.1-0.2,0.2-0.3,0.2c0,0-0.1,0.1-0.1,0.1c-0.4-0.4-0.7-0.9-0.9-1.5c0,0-0.1,0-0.1,0
		c0.2,0.6,0.5,1.1,0.9,1.5c-0.1,0.1-0.2,0.2-0.2,0.4c0,0.1,0.1,0.3,0.2,0.3c0.1,0,0.1,0,0.1-0.1c0,0,0-0.1,0.1-0.1c0,0,0,0,0,0
		c0,0.1,0,0.1,0.1,0c0,0,0-0.1,0.1-0.1c0.3,0.3,0.6,0.5,0.9,0.8c0.1,0,0.1,0.1,0.2,0.1c-0.1,0.2-0.2,0.4-0.3,0.6
		c-0.1,0.2,0.1,0.3,0.3,0.3c0.2-0.1,0.3-0.4,0.4-0.6c0.6,0.4,1.3,0.7,2,0.8c-0.1,0.3-0.2,0.6-0.2,0.9c0,0.2,0.3,0.3,0.4,0.1
		c0.1-0.3,0.2-0.6,0.3-0.9c0.1,0,0.3,0,0.4,0c0.1,0,0.1-0.1,0-0.1c-0.1,0-0.2,0-0.3-0.1c0-0.1,0-0.1,0.1-0.2
		c0.2,0.1,0.5,0.1,0.8,0.1c0,0.3-0.1,0.6,0,0.8c0,0.2,0.4,0.3,0.4,0c0.1-0.3,0.1-0.6,0.1-0.9c0.2,0,0.4-0.1,0.6-0.1
		c0.1,0,0.1-0.1,0-0.1c-0.2,0-0.4,0-0.6,0c0-0.1,0-0.2,0-0.2c0.4,0,0.9,0,1.3-0.1c0.1,0.3,0.1,0.7,0.2,1c-0.2,0-0.4,0.1-0.6,0
		c0,0-0.1,0.1,0,0.1c0.2,0.1,0.4,0.1,0.7,0c0,0.2,0.1,0.3,0.1,0.5c0.1,0.2,0.4,0.2,0.4-0.1c0-0.2,0-0.4-0.1-0.6c0,0,0,0,0,0
		c0.3-0.1,0.8-0.4,0.9-0.7c0,0,0-0.1-0.1,0c-0.3,0.2-0.5,0.4-0.8,0.6c0,0,0,0-0.1,0c-0.1-0.3-0.1-0.6-0.2-0.9
		c0.4-0.1,0.9-0.2,1.2-0.4c0.2,0.5,0.4,0.9,0.6,1.4c0.1,0.2,0.4,0,0.4-0.2c-0.1-0.5-0.4-0.9-0.6-1.4c0.3-0.2,0.5-0.3,0.5-0.3
		c0,0,0,0-0.1,0c0,0,0,0,0,0c0.1-0.2,0.2-0.4,0.3-0.7C49,51.7,49,51.6,48.9,51.7"/>
	<path class="st0" d="M62,51.3c0-0.2,0.1-0.3,0.2-0.4c0,0.1,0,0.2,0,0.3c-0.1,0.2,0,0.4,0.1,0.5c0-0.1,0-0.3,0-0.4
		c0.1,0.4,0.4,0.7,0.7,0.9c-0.2-0.1-0.4-0.2-0.4-0.2c0,0,0,0-0.1,0c0,0,0.1,0,0.1,0.1c0.2,0.1,0.4,0.2,0.6,0.4c0,0,0,0.1,0,0
		c-0.3-0.1-0.9-0.4-1.1-0.8C62.1,51.6,62,51.5,62,51.3"/>
	<path class="st0" d="M73.5,54c0.4-0.3,0.8-0.6,1.2-1c0,0,0,0.1,0,0.1c-0.3,0.5-0.8,1-1.3,1.2c-0.1,0-0.1-0.1-0.1-0.1
		C73.4,54.2,73.4,54.1,73.5,54"/>
	<path class="st0" d="M63.5,51.9c0.1,0,0.2,0.1,0.4,0.1c-0.1,0.2-0.1,0.4,0,0.6c0,0,0,0,0,0C63.7,52.3,63.6,52.1,63.5,51.9
		 M64.4,52.9C64.4,52.9,64.4,52.9,64.4,52.9c0.4,0.2,0.8,0.3,1.2,0.4c0,0,0,0,0,0C65.2,53.2,64.8,53.1,64.4,52.9 M66,53.5
		C66,53.4,66,53.4,66,53.5c0.2,0,0.3,0,0.5,0C66.4,53.5,66.2,53.5,66,53.5 M67.8,53.6c0.1,0,0.1,0,0.2-0.1c0.2,0,0.3,0,0.5-0.1
		c0,0.1,0.1,0.2,0.1,0.3c-0.2,0.1-0.5,0.1-0.8,0.1C67.8,53.8,67.8,53.7,67.8,53.6 M68.3,52.1c0.4-0.1,0.8-0.1,1.2-0.2
		c1.2-0.3,2.3-0.7,3.3-1.4c0,0,0,0.1-0.1,0.1c-0.9,0.9-2.6,1.2-3.6,1.4c-0.1,0-0.1,0-0.2,0c0,0-0.1,0-0.2,0
		C68.6,52.1,68.4,52.1,68.3,52.1 M68.9,53.4c0.4-0.1,0.7-0.2,1.1-0.4c0.3-0.1,0.6-0.2,0.9-0.3c0.1,0.2,0.2,0.4,0.3,0.7c0,0,0,0,0,0
		c-0.6,0.3-1.3,0.6-2,0.7C69,53.8,69,53.6,68.9,53.4 M71.2,52.5c0.1-0.1,0.3-0.1,0.4-0.2c0.2-0.1,0.4-0.2,0.6-0.4
		c0.1,0.1,0.3,0.2,0.4,0.3c0,0,0.1,0.1,0.1,0.1c-0.3,0.3-0.7,0.6-1.1,0.8c0,0,0,0,0,0C71.4,52.9,71.3,52.7,71.2,52.5 M63.3,51.8
		c0.1,0.3,0.2,0.5,0.3,0.7c0,0,0,0,0,0c0,0,0,0-0.1,0c0,0,0.2,0.1,0.5,0.3c-0.2,0.5-0.4,0.9-0.6,1.4c-0.1,0.2,0.2,0.5,0.4,0.2
		c0.2-0.4,0.4-0.9,0.6-1.4c0.4,0.2,0.8,0.4,1.2,0.4c-0.1,0.3-0.1,0.6-0.2,0.9c0,0,0,0-0.1,0c-0.3-0.2-0.6-0.4-0.8-0.6
		c0,0-0.1,0-0.1,0c0.2,0.3,0.6,0.6,0.9,0.7c0,0,0,0,0,0c0,0.2-0.1,0.4-0.1,0.6c0,0.3,0.4,0.3,0.4,0.1c0-0.2,0.1-0.3,0.1-0.5
		c0.2,0,0.4,0,0.7,0c0,0,0-0.1,0-0.1c-0.2,0.1-0.4,0.1-0.6,0c0.1-0.3,0.1-0.7,0.2-1c0.4,0.1,0.9,0.2,1.3,0.1c0,0.1,0,0.2,0,0.2
		c-0.2,0-0.4,0-0.6,0c-0.1,0-0.1,0.1,0,0.1c0.2,0.1,0.4,0.1,0.6,0.1c0,0.3,0,0.6,0.1,0.9c0,0.3,0.4,0.2,0.4,0c0-0.3,0-0.5,0-0.8
		c0.3,0,0.5-0.1,0.8-0.1c0,0.1,0,0.1,0.1,0.2c-0.1,0-0.2,0-0.3,0.1c-0.1,0-0.1,0.1,0,0.1c0.1,0,0.3,0,0.4,0c0.1,0.3,0.1,0.6,0.3,0.9
		c0.1,0.2,0.4,0.1,0.4-0.1c0-0.3-0.1-0.6-0.2-0.9c0.7-0.1,1.4-0.4,2-0.8c0.1,0.2,0.2,0.5,0.4,0.6c0.1,0.1,0.4-0.1,0.3-0.3
		c-0.1-0.2-0.2-0.4-0.3-0.6c0.1,0,0.1-0.1,0.2-0.1c0.3-0.2,0.6-0.5,0.9-0.8c0,0,0,0.1,0.1,0.1c0,0.1,0.1,0.1,0.1,0c0,0,0,0,0,0
		c0,0,0,0.1,0.1,0.1c0,0,0.1,0.1,0.1,0.1c0.1,0,0.3-0.1,0.2-0.3c0-0.1-0.1-0.3-0.2-0.4c0.4-0.4,0.7-0.9,0.9-1.5c0,0-0.1-0.1-0.1,0
		c-0.2,0.6-0.6,1-0.9,1.5c0,0-0.1-0.1-0.1-0.1c-0.1-0.1-0.2-0.2-0.3-0.2c0.6-0.5,1.2-1.3,1.2-1.4c0.1-0.1,0.1-0.2,0.2-0.3
		c0,0,0-0.1,0.1-0.1c0.1-0.1,0.1-0.2,0.2-0.3c0.2-0.1,0.9-0.6,0.6-0.7c-0.6-0.1-1,0.3-1.3,0.7c-0.1,0.2-0.3,0.4-0.5,0.6
		c-1.1,0.7-2.3,1.2-3.5,1.5c-2,0.5-4,0.4-6.1-0.1C63.4,51.6,63.3,51.7,63.3,51.8"/>
	<path class="st0" d="M79.9,52.3c-2.7,2.4-5.1,5.3-7,8.4c-1.8,3-3.4,6.5-3.6,10.1c0,0.1,0.2,0.1,0.2,0
		C70.6,63.5,74.8,57.2,79.9,52.3C80,52.3,80,52.2,79.9,52.3"/>
	<path class="st0" d="M32.2,52.3c2.8,2.4,5.1,5.3,7,8.4c1.8,3,3.4,6.5,3.6,10.1c0,0.1-0.2,0.1-0.2,0C41.5,63.5,37.3,57.2,32.2,52.3
		C32.1,52.3,32.2,52.2,32.2,52.3"/>
	<path class="st0" d="M59.5,84.1C59.5,84,59.5,84,59.5,84.1c-0.1-0.3-0.1-0.5-0.2-0.7c0,0,0,0-0.1,0c-0.1,0.5-0.1,1-0.2,1.6
		c0.2,0.6,0.4,1.3,0.5,1.9C59.5,85.9,59.5,85,59.5,84.1"/>
	<path class="st0" d="M60.1,91.9c0-0.5-0.2-2.9-0.3-3.4c0,0.8,0,1.5,0,2.3C59.9,91.2,60,91.5,60.1,91.9"/>
	<path class="st0" d="M67.3,88.1c0.1,0.3,0.2,0.6,0.3,0.9c-0.1-0.8-0.3-1.6-0.5-2.4c-0.3-1.4-0.9-2.7-1.2-4c0,0-0.1,0-0.1,0
		C66.3,84.5,66.8,86.3,67.3,88.1"/>
	<path class="st0" d="M84.3,43.8c-0.4,0.1-0.7,0.3-1.1,0.4c-0.1,0-0.2,0.1-0.2,0.1c0.1,0.1,0.1,0.3,0.2,0.4c1.1-0.4,2.1-0.8,3.1-1.4
		c0.3-0.1,0.5-0.3,0.8-0.4C86.1,43.2,85.2,43.4,84.3,43.8"/>
	<path class="st0" d="M104.4,32.9c-0.9-0.2-1.9-0.3-2.9-0.6c-0.5-0.1-1.1-0.1-1.6-0.2c-2.5-0.2-5-0.3-7.4,0.1
		c-2.5,0.4-5.1,1.3-7.5,2.3c-1.2,0.5-2.5,1.1-3.6,1.7c-0.8,0.5-1.6,1.1-2.4,1.6c0.1,0.1,0.2,0.2,0.2,0.3c0.4-0.2,0.9-0.5,1.3-0.8
		c1.2-0.7,2.5-1.3,3.8-1.9c2.6-1.1,5.4-2.1,8.2-2.5c2.1-0.3,4.2-0.3,6.3-0.1c-0.6,0.2-1.2,0.3-1.8,0.5c-1.8,0.6-3.4,1.6-5.1,2.6
		c-2.4,0.7-4.8,1.3-7.2,2.2c-1.4,0.5-2.6,1.1-3.9,1.7c-0.1,0-0.1,0.1-0.2,0.1c0.1,0.2,0.3,0.4,0.4,0.6c0.2-0.1,0.3-0.2,0.5-0.2
		c1.2-0.6,2.4-1.1,3.6-1.6c1.4-0.5,2.9-1,4.3-1.4c-0.1,0-0.1,0.1-0.2,0.1c-0.4,0.3-0.9,0.6-1.4,0.9c-0.9,0.5-1.9,0.8-2.8,1.2
		c-1.2,0.4-2.6,0.8-3.9,1.3c0.1,0.2,0.2,0.3,0.3,0.5c0.2-0.1,0.5-0.2,0.7-0.3c1-0.3,2-0.6,3-1c0.4-0.1,0.7-0.2,1.1-0.4
		c-0.3,0.2-0.6,0.4-0.9,0.6c-0.9,0.5-1.9,1-2.8,1.5c-0.2,0.1-0.4,0.2-0.7,0.3c0.1,0.1,0.1,0.3,0.2,0.4c0,0,0.1,0,0.1-0.1
		c1-0.4,2-0.9,2.9-1.4c1.9-1,3.6-2.2,5.4-3.3c1.8-1.2,3.6-2.3,5.6-3.1c1-0.4,2.1-0.9,3.2-1c1.2-0.2,2.3-0.1,3.5-0.1
		c0.1,0,0.2,0,0.2-0.1c0.2,0,0.4,0,0.6,0c-0.2,0.1-0.3,0.1-0.5,0.2c-1.2,0.4-2.4,0.8-3.6,1.2c-2.2,0.8-4.2,2.1-6.2,3.4
		c-1.5,1-3,2.1-4.6,3.2c0.2,0,0.4,0,0.7-0.1c0.1,0,0.2,0,0.4,0c0.9-0.6,1.8-1.2,2.6-1.8c2.1-1.4,4.2-2.9,6.5-3.9
		c2-0.9,4.1-1.5,6.2-2.1C105,33.2,104.7,33,104.4,32.9"/>
	<path class="st0" d="M79.6,38.5c0.1-0.1,0.2-0.1,0.3-0.2c0.9-0.6,1.9-1,2.8-1.6c0.1-0.1,0-0.2-0.1-0.2c-0.9,0.3-1.8,0.9-2.7,1.4
		c-0.2,0.1-0.4,0.2-0.5,0.3C79.5,38.4,79.5,38.5,79.6,38.5"/>
	<path class="st0" d="M86.1,35.1c-0.8,0.3-1.6,0.7-2.4,1.1c-0.1,0,0,0.2,0.1,0.2c0.7-0.3,1.5-0.6,2.2-0.9c0.9-0.3,1.9-0.5,2.7-0.9
		c0.1,0,0-0.2,0-0.2C87.8,34.4,86.9,34.8,86.1,35.1"/>
	<path class="st0" d="M89.7,34.1c-0.1,0-0.1,0.3,0.1,0.3c1.4-0.3,2.9-0.4,4.3-0.9c0.1,0,0.1-0.2,0-0.2
		C92.6,33.2,91.1,33.7,89.7,34.1"/>
	<path class="st0" d="M68.4,25.6c-0.5,0.6-0.9,1.3-1.2,2.1c0.1,0,0.2,0.1,0.3,0.1C67.8,27.1,68.2,26.4,68.4,25.6
		C68.5,25.6,68.4,25.6,68.4,25.6"/>
	<path class="st0" d="M64.5,26.7c0.2-1.1,0.6-2.2,1.1-3.2c0.9-1.9,1.8-3.8,2.9-5.6c1.1-1.8,2.2-3.6,3.1-5.5c0.2-0.5,0.4-1,0.6-1.5
		c0,0,0,0,0,0c0,0.1,0,0.1,0,0.2c-0.2,0.9-0.5,1.7-0.8,2.5c-0.8,2.2-2,4.3-3.1,6.3c-0.9,1.8-2,3.5-2.6,5.5c-0.2,0.6-0.3,1.1-0.4,1.7
		c0.1,0,0.2,0.1,0.3,0.1c0.2-0.9,0.4-1.7,0.7-2.5c0.7-1.9,1.8-3.8,2.8-5.6c0.6-1.1,1.2-2.2,1.7-3.3c-0.4,1-0.8,2-1.2,3
		c-0.3,0.5-0.6,1-0.8,1.6c-0.3,0.6-0.6,1.3-0.8,1.9c-0.4,1-0.9,2-1.3,3c-0.2,0.7-0.5,1.3-0.6,2.1c0.3,0.1,0.5,0.2,0.8,0.3
		c0.2-0.4,0.4-0.8,0.6-1.3c0.7-1.3,1.4-2.6,2.3-3.8c1.6-2.4,3.3-4.6,5-6.9c1-1.3,1.9-2.6,2.7-4c-0.1-0.3-0.2-0.7-0.2-1
		c-1,1.6-2.1,3.2-3.2,4.7c-1.6,2.3-3.4,4.5-4.9,6.8c-0.4,0.6-0.8,1.3-1.2,2c0.8-1.9,1.6-3.8,2.5-5.6c0.3-0.7,0.6-1.3,0.8-2
		c0.4-0.8,0.8-1.7,1.1-2.6c0.2-0.7,0.5-1.5,0.5-2.3c0-0.1,0-0.2,0-0.3c0.1-0.4,0-1.1-0.4-1.4c-0.6-0.3-1.4,1.9-1.4,1.9
		c0,0,0,0.1,0,0.1c-0.1,0.2-0.2,0.4-0.3,0.7c-1,2-2.2,4-3.3,5.9c-1,1.8-1.9,3.8-2.7,5.7c-0.3,0.7-0.5,1.5-0.7,2.3
		C64.3,26.6,64.4,26.7,64.5,26.7"/>
	<path class="st0" d="M85.5,30.8c-1.1,1.1-2.3,2.2-3.7,3c0.1-0.1,0.1-0.1,0.2-0.2c1.4-1.4,3-2.7,4.5-3.9
		C86.2,30,85.9,30.4,85.5,30.8 M90.7,17.2c0.3-0.2,0.5-0.4,0.8-0.5c-0.4,0.3-0.8,0.6-1.2,0.8C90.5,17.4,90.6,17.3,90.7,17.2
		 M83.3,22c-2.2,1.8-4,3.9-5.7,6.2c-0.8,1.1-1.6,2.2-2.3,3.4c0.1-2,1.4-3.7,2.5-5.1c1.2-1.5,2.5-2.8,4-4c1.6-1.3,3.4-2.4,5.1-3.5
		c0.3-0.2,0.6-0.3,0.9-0.5C86.3,19.6,84.7,20.8,83.3,22 M96.5,19.4c-0.2-0.1-0.4-0.2-0.5-0.1c-1.7,1.5-3.7,2.6-5.6,3.7
		c-2.1,1.2-4.2,2.3-6.3,3.6c-2.3,1.5-4.6,3.2-6.5,5.2c0.6-0.9,1.2-1.9,1.8-2.9c0.3-0.5,0.6-1,1-1.5c1-1.3,2.1-2.4,3.3-3.5
		c1-1.1,2-2.1,3.1-3.1c0.6-0.6,1.2-1.1,1.9-1.7c0.6-0.5,1.3-0.9,1.9-1.3c0.7-0.5,1.5-1,2.2-1.6c0.2-0.2,0.4-0.4,0.6-0.6
		c0.1-0.1,0.2-0.2,0.3-0.3c0.1-0.2,0.2-0.4,0.3-0.6c0,0,0-0.1,0-0.1c0-0.3-0.2-0.4-0.4-0.4c0,0,0,0-0.1,0c0,0,0,0-0.1,0
		c0,0-0.1,0.1-0.1,0.1c-0.9,0.4-1.7,0.8-2.5,1.2c-2.7,1.4-5.4,3-8,4.7c-2.5,1.7-4.8,3.7-6.7,6.1c-1,1.2-1.9,2.5-2.6,3.9c0,0,0,0,0,0
		c0.5-1.1,1-2.1,1.6-3.1c0.5-0.8,1.1-1.6,1.5-2.4c1-1.5,2.1-3,3.3-4.4c0.3-0.3,0.7-0.7,0.9-1.1c1.5-1.7,3.1-3.4,4.5-5.2
		c0.8-1.1,1.6-2.2,2.2-3.3c0.1-0.1,0.1-0.2,0.2-0.3c0,0,0,0,0,0c0-0.2,0.1-0.4,0-0.6c0,0,0-0.1,0-0.1c-0.1-0.1-0.2-0.2-0.3-0.2
		c0,0-0.1,0-0.2,0c-0.2,0.1-0.3,0.2-0.5,0.3c-0.2,0.3-0.5,0.7-0.7,1c-0.9,1.2-2,2.3-3,3.3c-1.9,1.8-3.8,3.5-5.7,5.2
		c-1.9,1.7-3.8,3.6-5.4,5.7c1.8-3.2,3.9-6.2,5.9-9.3c0.4-0.6,0.7-1.2,1.1-1.8c-0.1,0-0.1-0.1-0.1-0.1c-0.1-0.1-0.2-0.2-0.2-0.4
		c-0.4,0.8-0.9,1.5-1.4,2.2c-2.8,4.3-5.8,8.4-7.9,13.1c0.2,0.1,0.5,0.2,0.7,0.4c0.7-1.5,1.6-2.9,2.7-4.2c1.6-2,3.5-3.8,5.4-5.5
		c1.9-1.7,3.8-3.3,5.6-5c1-1,2-2.1,2.9-3.2c0.3-0.4,0.7-0.8,1-1.3c0,0,0,0,0,0c0,0,0,0,0,0c-0.1,0.2-0.3,0.5-0.4,0.7
		c-0.7,1.3-1.6,2.4-2.4,3.5c-1.7,2.1-3.6,4-5.4,6.1c-0.3,0.4-0.6,0.8-0.9,1.1c-0.3,0.2-0.5,0.4-0.7,0.7c-1.4,1.3-2.6,3-3.7,4.6
		c-0.7,1.2-1.4,2.4-2,3.6c0.1,0.1,0.2,0.2,0.4,0.3c0.7-1.3,1.4-2.6,2.2-3.8c0.7-1.1,1.5-2.2,2.3-3.2c-0.2,0.3-0.4,0.6-0.7,1
		c-1.2,1.4-2.1,3-2.9,4.6c-0.3,0.5-0.5,1-0.7,1.6c0.3,0.3,0.7,0.5,1,0.8c0.9-1.9,2.1-3.6,3.4-5.2c1.9-2.3,4.3-4.3,6.8-5.9
		c2.5-1.7,5.2-3.2,7.9-4.5c0.2-0.1,0.4-0.2,0.6-0.3c-0.9,0.5-1.7,1.1-2.6,1.6c-1,0.6-2,1.2-3,1.8c-1.8,1.1-3.6,2.3-5.3,3.7
		c-1.5,1.3-2.8,2.7-4,4.2c-1,1.4-2.2,3.1-2,5c-0.2,0.3-0.3,0.6-0.5,0.8c0.1,0.1,0.2,0.2,0.2,0.2c2.4-4.2,5.3-8.1,9.1-11.1
		c2.1-1.7,4.3-3,6.5-4.5c-0.1,0.1-0.2,0.2-0.4,0.3c-0.1,0.1-0.2,0.1-0.3,0.2c-1.2,0.8-2.3,1.7-3.3,2.7c-0.8,0.6-1.5,1.3-2.3,2
		c-1.8,1.6-3.5,3.2-5,5.1c-0.8,1-1.5,2.2-2.2,3.4c-0.2,0.3-0.3,0.6-0.5,1c-0.3,0.5-0.7,1-1,1.6c0.2,0.3,0.4,0.5,0.6,0.8
		c2.3-3.2,5.4-5.6,8.7-7.6c2.1-1.3,4.2-2.4,6.3-3.6c0.1-0.1,0.2-0.1,0.4-0.2c-0.2,0.1-0.4,0.3-0.6,0.4c-1.8,1.3-3.8,2.6-5.6,3.9
		c-1.6,1.2-3.2,2.3-4.7,3.6c-1.4,1.2-2.7,2.5-3.6,4.1c0,0.1,0.1,0.1,0.1,0.1c2.2-3.4,5.6-5.6,8.8-7.8c1.8-1.3,3.6-2.4,5.4-3.7
		c0.8-0.6,1.6-1.3,2.5-1.9c0.3-0.2,0.6-0.4,0.9-0.6c0.5-0.3,1.1-0.7,1.5-1.1c0,0,0,0,0,0c0.1-0.1,0.1-0.1,0.2-0.2
		c-0.1,0.2-0.3,0.4-0.4,0.6c-1.7,1.5-3.3,3.2-5.1,4.5c-2,1.4-4.2,2.6-6.2,4c-2.1,1.4-3.9,3.2-5.6,5.1c-0.6,0.7-1.2,1.4-1.7,2.1
		c0.2,0.1,0.3,0.2,0.5,0.3c0.4-0.6,0.9-1.1,1.3-1.7c1.7-2,3.5-3.8,5.6-5.3c2-1.4,4.2-2.6,6.2-4.1c1-0.7,1.9-1.5,2.8-2.3
		c-2.2,2.3-4.7,4.2-7.2,6.1c-1.8,1.4-3.6,2.9-5.2,4.5c-1.1,1.1-2.1,2.2-3.1,3.3c0.1,0.2,0.3,0.3,0.4,0.5c1-1.2,2-2.3,3-3.4
		c1.5-0.7,2.7-1.7,3.9-2.9c0.6-0.6,1.1-1.2,1.7-1.7c0.5-0.5,1.2-1,1.7-1.6c0.2-0.2,0.4-0.3,0.6-0.5c-0.8,0.9-1.6,2-2.3,2.9
		c-1.3,1.6-2.6,3.1-4.2,4.3c-1.3,1.1-2.7,2-4.1,3.1c0.1,0.1,0.2,0.3,0.4,0.4c0,0,0.1-0.1,0.1-0.1c1.4-1.2,2.9-2.2,4.3-3.4
		c2.8-2.3,4.7-5.5,7-8.3c0.8-0.7,1.6-1.4,2.3-2.1c0.1-0.1,0.2-0.2,0.4-0.4c0.9-1.1,1.9-2.2,2.8-3.4c0.1-0.1,0.2-0.2,0.3-0.2
		C96.6,19.9,96.8,19.6,96.5,19.4"/>
	<path class="st0" d="M70.9,29.6c0.4-0.6,0.8-1.2,1.1-1.9c0-0.1-0.1-0.2-0.2-0.1c-0.4,0.6-0.8,1.2-1.1,1.9
		C70.7,29.5,70.8,29.6,70.9,29.6"/>
	<path class="st0" d="M73.4,25.1c-0.5,0.5-0.9,1.1-1.2,1.7c-0.1,0.2,0.1,0.3,0.2,0.1c0.3-0.6,0.9-1.1,1.1-1.7
		C73.6,25.1,73.5,25,73.4,25.1"/>
	<path class="st0" d="M75.6,22.8c-0.7,0.4-1.3,1-1.8,1.6c-0.1,0.1,0,0.3,0.2,0.2c0.6-0.6,1.3-1,1.8-1.7
		C75.8,22.8,75.7,22.7,75.6,22.8"/>
	<path class="st0" d="M78.1,20.6c-0.6,0.3-1.1,0.8-1.6,1.2c-0.1,0.1,0,0.3,0.1,0.2c0.5-0.4,1.1-0.8,1.5-1.3
		C78.3,20.7,78.2,20.6,78.1,20.6"/>
	<path class="st0" d="M77.7,13.1c-0.3,0.4-0.6,0.9-0.9,1.4c0,0.1,0.1,0.1,0.1,0.1C77.2,14.1,77.6,13.7,77.7,13.1
		C77.8,13.1,77.7,13.1,77.7,13.1"/>
	<path class="st0" d="M75.9,15.7c-0.4,0.6-0.8,1.1-1.2,1.6c0,0,0,0.1,0.1,0.1C75.2,16.9,75.6,16.4,75.9,15.7
		C76,15.7,75.9,15.7,75.9,15.7"/>
	<path class="st0" d="M72.9,19.7c-0.3,0.4-0.6,0.8-0.9,1.1c-0.2,0.2-0.5,0.5-0.6,0.8c0,0.1,0.1,0.1,0.1,0.1c0.2-0.3,0.4-0.6,0.7-0.9
		C72.5,20.5,72.8,20.1,72.9,19.7C73,19.7,72.9,19.6,72.9,19.7"/>
	<path class="st0" d="M70.4,23.6c-0.5,0.5-1,1.1-1.3,1.7c0,0.1,0.1,0.1,0.1,0.1c0.2-0.2,0.4-0.5,0.5-0.8
		C70,24.2,70.2,23.9,70.4,23.6C70.5,23.6,70.4,23.5,70.4,23.6"/>
	<path class="st0" d="M29.8,38.6C29.8,38.6,29.7,38.6,29.8,38.6c0.4,0.8,1.1,1.4,1.7,1.9c0.1,0.1,0.2,0.1,0.3,0.2
		c0.1-0.1,0.1-0.2,0.2-0.3c-0.1-0.1-0.2-0.1-0.3-0.2C31.1,39.7,30.5,39.1,29.8,38.6"/>
	<path class="st0" d="M30.6,43.4c0-0.1,0.1-0.1,0.1-0.2c-1.2-0.4-2.4-1.2-3.5-2c-1.6-1.3-3.2-2.6-4.6-4.1c-1.5-1.5-2.9-3-4.5-4.4
		c-0.4-0.3-0.8-0.7-1.3-1c0,0,0,0,0,0c0.1,0,0.1,0.1,0.2,0.1c0.7,0.4,1.5,0.8,2.2,1.3c1.9,1.3,3.5,2.9,5.2,4.5
		c1.4,1.3,2.9,2.8,4.5,3.8c0.7,0.4,1.4,0.7,2.1,1c0.1-0.1,0.1-0.2,0.2-0.3c0,0,0,0,0,0c-1-0.4-1.9-0.9-2.8-1.5
		c-1.7-1.1-3.1-2.7-4.6-4c-0.9-0.8-1.8-1.7-2.7-2.5c0.9,0.6,1.7,1.2,2.5,1.9c0.4,0.4,0.8,0.8,1.3,1.2c0.5,0.4,1.1,0.8,1.6,1.2
		c0.8,0.7,1.7,1.3,2.5,1.9c0.7,0.5,1.5,1,2.3,1.4c0.1-0.2,0.2-0.5,0.4-0.7c-0.1,0-0.2-0.1-0.2-0.1c-0.4-0.3-0.9-0.7-1.3-1.1
		c-1.1-1-2.1-2-3.1-3.1c-1.9-2.1-3.6-4.4-5.4-6.6c-1.7-2.2-3.6-4.3-5.7-6.1c-1.9-1.6-3.9-3.2-6.1-4.3c0.8,0.2,1.5,0.4,2.3,0.6
		c1.3,0.5,2.4,1.1,3.6,1.9c1.8,1.2,3.5,2.7,5,4.4c0.7,1.4,1.8,2.7,2.7,3.9c1.1,1.5,2.4,2.9,3.6,4.2c1.6,1.8,3.4,3.6,5.3,5
		c0.1-0.1,0.2-0.3,0.2-0.4c-0.6-0.4-1.1-0.9-1.6-1.4c-1.3-1.2-2.6-2.5-3.8-3.8c-1.2-1.3-2.3-2.6-3.4-4c-0.4-0.5-0.8-1.1-1.3-1.7
		c3.3,3.7,6.4,7.5,10.2,10.5c0.1-0.2,0.3-0.5,0.4-0.7c-1.3-1.1-2.5-2.4-3.6-3.8c-1.5-2.1-2.8-4.4-3.9-6.8c-1.1-2.3-2.2-4.6-3.5-6.8
		c-0.7-1.3-1.5-2.5-2.4-3.7c-0.3-0.4-0.6-0.9-1-1.3c0,0,0,0,0,0c0,0,0,0,0,0c0.2,0.2,0.4,0.4,0.6,0.6c1,1,1.9,2.1,2.8,3.3
		c1.6,2.2,3,4.6,4.5,6.8c0.3,0.4,0.6,0.8,0.9,1.2c0.1,0.3,0.3,0.6,0.5,0.9c0.9,1.8,2.2,3.3,3.5,4.7c0.9,1,1.8,1.9,2.8,2.7
		c0.1-0.1,0.2-0.2,0.3-0.4c-1-0.9-2-1.9-2.9-2.9c-0.9-1-1.7-2-2.5-3.1c0.3,0.3,0.5,0.6,0.8,0.9c1,1.5,2.3,2.8,3.7,3.9
		c0.4,0.3,0.7,0.6,1.1,0.9c0.1-0.2,0.3-0.4,0.4-0.5c-0.3-0.3-0.5-0.6-0.8-0.8c-0.8-0.6-1.5-1.3-2.2-2c-0.6-0.7-1.2-1.5-1.9-2.1
		c-1.2-1.4-2.3-2.8-3.4-4.3c-0.1-0.2-0.3-0.4-0.4-0.7c-1.2-1.6-2.4-3.3-3.4-5c-0.3-0.4-0.6-0.8-0.9-1.2c-0.8-1.1-1.7-2.1-2.6-3
		c-0.1-0.1-0.2-0.2-0.3-0.3c0,0,0,0,0,0c-0.2-0.1-0.4-0.2-0.6-0.2c0,0-0.1,0-0.1,0c-0.1,0-0.2,0.1-0.3,0.3c0,0-0.1,0.1-0.1,0.2
		c0,0.2,0.1,0.4,0.2,0.6c0.3,0.3,0.5,0.6,0.8,1c0.9,1.2,1.7,2.5,2.4,3.8c1.3,2.3,2.4,4.7,3.6,7c1.2,2.3,2.5,4.7,4.1,6.7
		c-2.6-2.5-4.9-5.3-7.3-8c-2.6-2.8-5.7-5.6-9.2-7.1c-0.3-0.2-0.7-0.3-1-0.5c-0.2-0.1-0.4-0.2-0.7-0.2c-0.3-0.1-0.5-0.2-0.8-0.3
		c-0.3-0.1-1.4-0.2-1.3,0.5c0.1,0.5,0.6,0.8,0.9,1c0.3,0.2,0.6,0.3,0.9,0.5c0.2,0.1,0.4,0.2,0.5,0.3c1.3,1,2.9,2.2,3.9,3.1
		c2.1,1.8,3.9,3.9,5.7,6.1c1.8,2.2,3.5,4.4,5.3,6.5c0.5,0.6,1,1.1,1.6,1.7c-1.6-1.2-3.1-2.5-4.7-3.7c-0.5-0.4-1.1-0.8-1.7-1.2
		c-0.7-0.6-1.4-1.2-2.2-1.7c-0.6-0.3-1.3-0.8-2-1c-0.1,0-0.2-0.1-0.3-0.1c-0.4-0.1-1-0.3-1.3,0.1c-0.4,0.6,1.5,1.8,1.5,1.9
		c0,0,0,0,0.1,0c0.2,0.2,0.4,0.3,0.6,0.5c1.7,1.4,3.2,3.1,4.8,4.6c1.5,1.4,3.1,2.8,4.7,4c0.8,0.6,1.7,1.2,2.7,1.5
		C30.5,43.5,30.5,43.4,30.6,43.4"/>
	<path class="st0" d="M33.8,37.2c0.1-0.1,0.1-0.2,0.2-0.3c-0.5-0.5-1-1.1-1.6-1.5c-0.1-0.1-0.2,0.1-0.1,0.2
		C32.8,36.1,33.3,36.7,33.8,37.2"/>
	<path class="st0" d="M30.3,33.4c0.3,0.6,0.9,1.1,1.3,1.6c0.1,0.1,0.3-0.1,0.2-0.2c-0.5-0.5-0.8-1.1-1.4-1.5
		C30.3,33.2,30.2,33.3,30.3,33.4"/>
	<path class="st0" d="M28.6,30.6c0.2,0.8,0.7,1.6,1.1,2.2c0.1,0.1,0.3,0,0.2-0.1c-0.4-0.7-0.7-1.6-1.2-2.2
		C28.7,30.4,28.6,30.5,28.6,30.6"/>
	<path class="st0" d="M27.1,27.6c0.2,0.7,0.5,1.3,0.8,1.9c0.1,0.1,0.3,0.1,0.2-0.1c-0.3-0.6-0.5-1.3-0.9-1.9
		C27.2,27.4,27.1,27.5,27.1,27.6"/>
	<path class="st0" d="M12,20.3c0.3,0.2,0.6,0.3,1,0.4c0.1,0,0.1-0.1,0-0.1C12.7,20.5,12.4,20.4,12,20.3C12,20.3,12,20.3,12,20.3"/>
	<path class="st0" d="M20.1,26.5c0.3,0.4,0.7,0.8,1.1,1.2c0,0,0.1,0,0.1-0.1C20.9,27.2,20.6,26.7,20.1,26.5
		C20.1,26.4,20.1,26.5,20.1,26.5"/>
	<path class="st0" d="M18,24.5c0.1,0.1,0.2,0.3,0.4,0.4c0.1,0.1,0.3,0.3,0.4,0.4c0,0,0.1,0,0.1-0.1c-0.1-0.1-0.3-0.3-0.4-0.4
		C18.3,24.6,18.2,24.5,18,24.5C18,24.4,18,24.5,18,24.5"/>
	<path class="st0" d="M15.6,22.7c0.3,0.4,0.8,0.7,1.2,0.9c0.1,0,0.1-0.1,0.1-0.1c-0.2-0.1-0.4-0.2-0.6-0.4
		C16.1,22.9,15.9,22.7,15.6,22.7C15.6,22.6,15.6,22.6,15.6,22.7"/>
	<path class="st0" d="M13.6,21.2c0.1,0.1,0.2,0.1,0.3,0.2c0.2,0.1,0.4,0.2,0.5,0.3c0.1,0,0.1-0.1,0.1-0.1
		C14.3,21.5,14,21.2,13.6,21.2C13.6,21.1,13.6,21.2,13.6,21.2"/>
	<path class="st0" d="M22.1,28.9c0.4,0.5,0.8,1.1,1.3,1.6c0,0,0.1,0,0.1-0.1C23.1,29.8,22.7,29.3,22.1,28.9
		C22.1,28.8,22.1,28.8,22.1,28.9"/>
	<path class="st0" d="M25.2,32.8c0.3,0.4,0.6,0.8,0.8,1.2c0.2,0.3,0.4,0.6,0.7,0.8c0,0,0.1,0,0.1-0.1c-0.2-0.3-0.5-0.6-0.7-0.9
		C25.8,33.4,25.6,33,25.2,32.8C25.2,32.7,25.1,32.7,25.2,32.8"/>
	<path class="st0" d="M28.2,36.2c0.4,0.6,0.8,1.3,1.3,1.6c0.1,0,0.1,0,0.1-0.1c-0.2-0.3-0.4-0.5-0.6-0.7c-0.2-0.3-0.5-0.6-0.7-0.9
		C28.3,36,28.2,36.1,28.2,36.2"/>
	<path class="st0" d="M21.6,68.6c0.6-0.3,1.3-0.5,1.9-0.7C22.9,68.1,22.2,68.3,21.6,68.6 M31.8,69.9c-0.1,0-0.3,0-0.4,0.1
		c-1,0.2-2,0.3-3,0.6c-1.7,0.4-3.4,1-4.9,1.8c-0.4,0.1-0.7,0.3-1.1,0.4c1.1-0.6,2.3-1.2,3.5-1.6c1.7-0.6,3.5-1.2,5.3-1.7
		c0.3-0.1,0.6-0.2,0.9-0.3C32.1,69.1,32,69,32,68.8c-0.2,0-0.3,0.1-0.5,0.1c-1.9,0.5-3.7,1.1-5.6,1.7c-1.8,0.7-3.6,1.5-5.1,2.6
		c-0.3,0.2-0.5,0.4-0.8,0.6c-0.4,0.2-0.9,0.4-1.3,0.7c-2.3,1.3-4.5,2.8-6.9,4c-1.2,0.6-2.5,1.2-3.8,1.6c-0.3,0.1-0.5,0.2-0.8,0.2
		c0,0,0,0,0,0c0,0,0,0,0,0c0.5-0.2,0.9-0.5,1.4-0.7c1.3-0.7,2.5-1.4,3.6-2.2c2-1.4,4-3,5.9-4.5c2-1.6,4.1-3.1,6.3-4.2
		c2-1,4-1.7,6.2-2.1c0.2,0,0.4-0.1,0.6-0.1c-0.1-0.2-0.2-0.5-0.3-0.7c-2.1,0.3-4.1,0.8-6.1,1.4c0.1,0,0.2-0.1,0.3-0.1
		c1-0.4,2.1-0.8,3.2-1.1c0.9-0.2,1.7-0.3,2.6-0.4c0-0.1-0.1-0.1-0.1-0.2c-0.8,0-1.6,0.2-2.3,0.4c-1.2,0.3-2.4,0.8-3.6,1.2
		c-1.5,0.5-3,0.9-4.3,1.8c-1.2,0.5-2.4,1-3.6,1.5c0.7-0.4,1.5-0.8,2.2-1.2c1.3-0.7,2.7-1.3,4-1.8c1.4-0.5,2.7-1,4.1-1.4
		c0.7-0.2,1.5-0.4,2.2-0.5c0.4,0,0.8-0.1,1.2-0.1c0-0.1-0.1-0.3-0.1-0.4c-1,0.1-2.1,0.3-3.1,0.6c-1.4,0.4-2.8,0.9-4.2,1.5
		c-1.4,0.5-2.7,1.2-4,1.8c-1.3,0.6-2.6,1.3-3.8,2.1c-0.2,0.1-0.4,0.1-0.5,0.2c-2.6,1-5.3,1.9-8,2.2c-1.3,0.1-2.7,0.2-4,0
		c-0.8-0.1-1.5-0.3-2.3-0.5c2.4,0,4.9-0.5,7.3-1.1c2.6-0.7,5.1-1.7,7.6-2.9c2.5-1.2,5-2.4,7.6-3.5c1.3-0.5,2.7-1,4-1.4
		c0.5-0.1,1.1-0.3,1.6-0.4c0.3,0,0.5,0,0.8,0.1c-0.3,0-0.6,0.1-0.9,0.2c-0.8,0.2-1.7,0.3-2.4,0.8c0,0,0,0.1,0,0.1
		c0.8-0.1,1.6-0.4,2.4-0.5c0.4-0.1,0.8-0.1,1.2-0.1c0.2,0,0.3,0,0.5,0c-0.1-0.2-0.1-0.5-0.1-0.7c-0.1-0.1-0.1-0.3-0.2-0.4
		c-1.2-0.2-2.6-0.1-3.8,0c-1,0.1-2.1,0.3-3.1,0.6c-0.7,0.1-1.3,0.2-2,0.3c-0.6,0.1-1.1,0.3-1.7,0.5c-1,0.2-2,0.4-3,0.5
		c1.2-0.3,2.3-0.6,3.4-1c1.9-0.6,3.8-1.3,5.8-1.5c1-0.1,2.1-0.1,3.1,0c0.3,0,0.7,0.1,1,0.1c0-0.1-0.1-0.3-0.1-0.4
		c-0.2,0-0.4-0.1-0.6-0.1c-0.9-0.1-1.7-0.2-2.6-0.1c-1.9,0.1-3.8,0.7-5.6,1.3c-2.2,0.6-4.3,1.4-6.5,1.6c-0.8,0.1-1.7,0.1-2.5,0.2
		c-0.1,0-0.1,0-0.2,0c0,0,0,0,0,0c0.5-0.1,1-0.2,1.5-0.3c2-0.5,3.9-1.2,5.8-1.9c1.9-0.7,3.9-1.2,5.9-1.6c1.6-0.3,3.1-0.4,4.6-0.1
		c0-0.2-0.1-0.3-0.1-0.5c-1.1-0.3-2.4-0.2-3.5,0c-2,0.3-4,0.8-5.9,1.4c-2.1,0.6-4.1,1.4-6.3,1.9c-0.2,0.1-0.5,0.1-0.7,0.2
		c0,0,0,0-0.1,0c0,0-2.3,0.3-2.1,1c0.1,0.5,0.7,0.7,1.1,0.7c0.1,0,0.2,0,0.3,0c0.7,0.1,1.6,0,2.2,0c0.9-0.1,1.8-0.2,2.7-0.5
		c0.7-0.1,1.3-0.2,2-0.3c1.9-0.4,3.8-0.8,5.8-1.2c-0.7,0.2-1.4,0.5-2.1,0.8c-2.5,1-5,2.2-7.5,3.4c-2.5,1.1-5,2.2-7.6,2.9
		c-1.3,0.3-3.3,0.7-4.8,1c-0.2,0-0.4,0-0.6,0c-0.3,0-0.7,0-1,0.1c-0.4,0-1,0.1-1.2,0.5c-0.3,0.5,0.7,0.9,1,1
		c0.3,0.1,0.5,0.1,0.8,0.1C2.1,74,2.4,74,2.6,74c0.3,0,0.7,0.1,1.1,0c3.8,0.3,7.7-0.8,11.2-2.1c3.3-1.3,6.6-2.7,9.9-3.8
		c-2.3,1.1-4.5,2.6-6.5,4.2c-2.1,1.5-4.1,3.2-6.2,4.6c-1.2,0.8-2.5,1.6-3.8,2.3c-0.4,0.2-0.7,0.3-1.1,0.5c-0.2,0.1-0.3,0.3-0.4,0.4
		c0,0.1,0,0.2,0,0.3c0,0.1,0,0.3,0.1,0.4c0,0,0.1,0,0.1,0C7.2,80.9,7.4,81,7.6,81c0,0,0,0,0,0c0.1,0,0.2-0.1,0.4-0.1
		c1.2-0.4,2.4-0.9,3.6-1.5c0.4-0.2,0.8-0.4,1.3-0.7c1.7-1.1,3.4-2.1,5.2-3c0.2-0.1,0.4-0.3,0.6-0.4c1.6-0.9,3.2-1.6,4.8-2.3
		c0.9-0.2,1.7-0.6,2.6-1c0.9-0.3,1.8-0.6,2.8-0.8c1.2-0.4,2.4-0.8,3.7-1c-0.1-0.2-0.1-0.3-0.2-0.5C32.1,69.8,32,69.9,31.8,69.9"/>
	<path class="st0" d="M31.8,67.7c-0.6,0-1.3,0.2-1.8,0.3c-0.9,0.3-1.8,0.5-2.6,0.9c-0.1,0-0.1,0.2,0.1,0.2c0.9-0.2,1.7-0.5,2.5-0.8
		c0.7-0.2,1.4-0.3,2.1-0.4C31.9,67.9,31.9,67.8,31.8,67.7"/>
	<path class="st0" d="M24.6,69.9c0.5-0.4,1.2-0.6,1.9-0.8c0.2,0,0.2,0.2,0.1,0.3c-0.6,0.2-1.2,0.6-1.8,0.7
		C24.6,70.2,24.5,70,24.6,69.9"/>
	<path class="st0" d="M21.9,71.7c0.5-0.6,1.3-1.1,1.9-1.5c0.1-0.1,0.2,0.1,0.1,0.2c-0.6,0.5-1.3,1.1-2,1.4
		C22,71.8,21.9,71.7,21.9,71.7"/>
	<path class="st0" d="M19.4,73.7c0.4-0.5,1-0.9,1.5-1.3c0.1-0.1,0.3,0.1,0.2,0.2c-0.5,0.4-1,0.9-1.6,1.3
		C19.4,73.9,19.3,73.8,19.4,73.7"/>
	<path class="st0" d="M2.8,73.2c0.3,0,0.7,0,1,0.1c0.1,0,0.1,0.1,0,0.1C3.5,73.4,3.1,73.4,2.8,73.2C2.7,73.3,2.8,73.2,2.8,73.2"/>
	<path class="st0" d="M12.6,71.4c0.5-0.2,1-0.4,1.5-0.5c0.1,0,0.1,0.1,0,0.1C13.6,71.2,13.1,71.5,12.6,71.4
		C12.6,71.5,12.6,71.4,12.6,71.4"/>
	<path class="st0" d="M9.9,72.3c0.1-0.1,0.3-0.1,0.5-0.2c0.2-0.1,0.3-0.1,0.5-0.2c0.1,0,0.1,0.1,0,0.1c-0.2,0.1-0.4,0.1-0.5,0.2
		C10.2,72.3,10.1,72.3,9.9,72.3C9.9,72.3,9.8,72.3,9.9,72.3"/>
	<path class="st0" d="M7,72.8c0.4-0.2,1-0.2,1.5-0.2c0.1,0,0.1,0.1,0,0.1c-0.2,0-0.5,0-0.7,0.1C7.5,72.8,7.3,72.9,7,72.8
		C7,72.9,6.9,72.8,7,72.8"/>
	<path class="st0" d="M4.6,73.2c0.1,0,0.2,0,0.4,0c0.2,0,0.4,0,0.6-0.1c0.1,0,0.1,0.1,0,0.1C5.3,73.3,4.9,73.4,4.6,73.2
		C4.5,73.3,4.5,73.2,4.6,73.2"/>
	<path class="st0" d="M15.4,70.2c0.6-0.3,1.2-0.6,1.8-0.9c0,0,0.1,0,0,0.1C16.7,69.8,16.1,70.1,15.4,70.2
		C15.4,70.3,15.3,70.2,15.4,70.2"/>
	<path class="st0" d="M19.8,68.1c0.4-0.2,0.8-0.4,1.3-0.7c0.3-0.2,0.6-0.4,0.9-0.4c0.1,0,0.1,0.1,0,0.1c-0.3,0.2-0.7,0.3-1,0.5
		C20.6,67.9,20.2,68.1,19.8,68.1C19.7,68.2,19.7,68.1,19.8,68.1"/>
	<path class="st0" d="M23.9,66.5c0.6-0.4,1.2-0.8,1.9-0.9c0.1,0,0.1,0.1,0,0.1c-0.3,0.1-0.6,0.2-0.8,0.4c-0.3,0.2-0.7,0.3-1,0.5
		C23.9,66.6,23.9,66.5,23.9,66.5"/>
	<path class="st0" d="M85.3,65.1c-0.8-0.3-1.7-0.5-2.6-0.8c0,0.1-0.1,0.2-0.1,0.3c0,0,0.1,0,0.1,0c0.8,0.2,1.7,0.5,2.5,0.6
		C85.4,65.3,85.4,65.1,85.3,65.1"/>
	<path class="st0" d="M88,66c-0.5-0.3-1.3-0.6-1.9-0.7c-0.2,0-0.2,0.2,0,0.3c0.6,0.2,1.2,0.6,1.9,0.6C88.1,66.2,88.1,66.1,88,66"/>
	<path class="st0" d="M90.8,67.6c-0.6-0.6-1.3-1-2-1.4c-0.1-0.1-0.2,0.1-0.1,0.2c0.7,0.4,1.3,1,2,1.3C90.8,67.8,90.9,67.7,90.8,67.6
		"/>
	<path class="st0" d="M93.5,69.5c-0.5-0.5-1-0.9-1.6-1.2c-0.1-0.1-0.3,0.1-0.2,0.2c0.5,0.4,1.1,0.9,1.6,1.2
		C93.4,69.7,93.5,69.6,93.5,69.5"/>
	<path class="st0" d="M100.1,66.9c-0.5-0.2-1-0.4-1.5-0.5c-0.1,0-0.1,0.1,0,0.1C99.1,66.7,99.6,66.9,100.1,66.9
		C100.1,67,100.2,66.9,100.1,66.9"/>
	<path class="st0" d="M86.1,61.1c-0.7-0.4-1.6-0.6-2.4-0.7c0,0-0.1,0-0.1,0c0,0.1,0,0.2,0,0.4c0.1,0,0.1,0,0.2,0
		C84.5,60.8,85.3,61.1,86.1,61.1C86.1,61.2,86.2,61.1,86.1,61.1"/>
	<path class="st0" d="M106.6,55.5c-0.1,0.1-0.3,0.2-0.4,0.3c0.2-0.2,0.3-0.4,0.5-0.6c0.1,0,0.2,0,0.3-0.1
		C106.8,55.3,106.7,55.4,106.6,55.5 M105.9,55.9c0,0,0-0.1,0-0.1c0.1-0.1,0.2-0.2,0.3-0.3c0.1,0,0.1-0.1,0.2-0.1c0,0,0,0,0.1,0
		c-0.1,0.1-0.2,0.3-0.4,0.4C106,55.8,105.9,55.8,105.9,55.9 M105.6,55.8c-1.5,1.4-3.5,1.5-5.4,1.5c-2.1,0-4.1-0.6-6.2-1
		c0.6,0.1,1.1,0.1,1.7,0.2c2.1,0.2,4.2,0.1,6.3-0.3c1.3-0.2,2.6-0.4,3.9-0.7c-0.1,0.1-0.1,0.2-0.2,0.2
		C105.7,55.7,105.7,55.7,105.6,55.8 M102.8,58c-1.9,0.7-3.9,0.9-5.9,0.8c-1,0-2.1-0.1-3.1-0.3c-0.5-0.1-1-0.3-1.5-0.4
		c-2-0.5-4-0.9-6-1.1C85.8,57,85.2,57,84.7,57c2.2-0.4,4.4,0,6.5,0.4c2,0.4,4.1,0.7,6.1,0.9c2.4,0.2,4.7,0,6.8-0.9
		C103.7,57.7,103.3,57.9,102.8,58 M96.6,67.5c-1.5-0.2-2.9-0.5-4.3-1.1c-1-0.4-1.9-1-2.7-1.6c2.8,0.9,5.5,1.9,8.3,2.8
		c0.1,0,0.2,0.1,0.2,0.1C97.6,67.6,97.1,67.5,96.6,67.5 M87.8,64.2c0.4,0.1,0.8,0.2,1.1,0.3c0.1,0.1,0.2,0.3,0.4,0.4
		C88.8,64.7,88.3,64.5,87.8,64.2 M102.2,74.1c0.1,0.1,0.1,0.2,0,0.2c-0.4-0.4-0.8-0.8-1.2-1.1C101.3,73.5,101.9,73.7,102.2,74.1
		 M95.8,80.1c-1.4-0.6-2.4-1.9-3.6-2.8c0.6,0.3,1.2,0.6,1.7,0.9c1.2,0.7,2.3,1.5,3.5,2.2c0.1,0,0.1,0.1,0.2,0.1
		C96.9,80.4,96.3,80.3,95.8,80.1 M89.3,75.4c-1.4-0.8-2.8-1.6-4.3-2.1c-1.2-0.8-2.4-1.5-3.6-2c1.2,0.4,2.5,0.7,3.7,1.2
		c2.9,1.1,5.5,2.5,8,4.3c0.7,0.5,1.4,1.1,2.1,1.7c-0.3-0.2-0.6-0.4-0.9-0.5C92.6,77.1,90.9,76.4,89.3,75.4 M86.4,79.9
		c-1.4-0.8-2.6-1.7-3.7-2.9c0.1,0.1,0.2,0.1,0.3,0.2c1.7,1.1,3.3,2.3,4.8,3.5C87.3,80.4,86.8,80.2,86.4,79.9 M107.8,54.4
		c-2.1,0.8-4.4,1.1-6.6,1.4c-2.2,0.3-4.3,0.3-6.5,0.1c-2-0.2-3.9-0.6-5.9-1c-1.7-0.3-3.4-0.5-5.1,0.1c0,0.1,0,0.2,0,0.2
		c2-0.6,4.1-0.2,6,0.3c0.3,0.1,0.7,0.1,1,0.2c-1-0.1-1.9-0.1-2.9-0.1c-1.3,0-2.9,0.1-4,0.8c0,0.1,0,0.1,0,0.2
		c1.4-0.7,3.2-0.7,4.7-0.7c2,0.1,4,0.4,6,0.9c2.3,0.5,4.5,1,6.9,0.9c0.4,0,0.8-0.1,1.3-0.1c-0.1,0-0.1,0-0.2,0.1
		c-1.9,0.5-3.9,0.5-5.9,0.3c-1.9-0.2-3.8-0.6-5.7-0.9c-2.2-0.4-4.4-0.8-6.7-0.3c-0.2,0-0.2,0.3-0.1,0.4c-0.1,0-0.2,0-0.2,0
		c0,0.2,0,0.3,0,0.5c0.6-0.1,1.3-0.1,2-0.1c1.8,0.3,3.7,0.7,5.5,1c0.4,0.1,0.8,0.2,1.2,0.2c0.2,0.1,0.5,0.1,0.7,0.2
		c2,0.6,3.9,1.2,5.9,1.6c0.5,0.1,1,0.2,1.6,0.2c0,0,0,0,0,0c-0.1,0-0.1,0-0.2,0c-0.4,0-0.9,0-1.3,0c0,0,0,0,0,0
		c-0.7-0.1-1.5-0.1-2.2-0.2c-0.8-0.1-1.5-0.4-2.2-0.6c-1.4-0.4-2.8-0.9-4.2-1.3c-1.3-0.4-2.7-0.6-4-0.8c-0.8-0.1-1.8-0.2-2.7,0.1
		c0,0.1,0,0.1,0,0.2c0.4-0.1,0.8-0.2,1.3-0.2c0.6,0,1.2,0.1,1.8,0.2c1.5,0.2,2.9,0.5,4.3,1c1.3,0.4,2.7,0.8,4,1.2
		c-1.3-0.3-2.5-0.6-3.8-0.9c-1.9-0.5-3.8-1-5.7-1c-0.6,0-1.3,0.1-1.9,0.1c0,0.1,0,0.2-0.1,0.4c0.9-0.1,1.8-0.2,2.8-0.1
		c2,0.2,3.9,0.8,5.9,1.2c1.2,0.3,2.3,0.6,3.5,0.8c-1-0.1-2-0.2-3.1-0.4c-0.6-0.1-1.1-0.3-1.7-0.4c-0.7-0.1-1.3-0.2-2-0.2
		c-1-0.2-2.1-0.3-3.1-0.4c-0.8-0.1-1.6-0.1-2.4,0c0,0.3,0,0.5-0.1,0.8c0,0,0,0,0.1,0c0.5,0.1,1.1,0.2,1.6,0.3
		c1.4,0.3,2.8,0.7,4.1,1.2c2.6,0.9,5.2,2.1,7.7,3.1c2.3,1,4.7,1.8,7.2,2.4c-0.5,0.2-1,0.3-1.6,0.4c-0.1,0-0.2-0.1-0.3-0.1
		c-0.2,0-0.4-0.1-0.5-0.1c-0.1,0-0.1,0.1,0,0.1c0.2,0.1,0.4,0.1,0.5,0.2l0,0c-0.1,0-0.1,0-0.2,0c-0.6,0-1.1-0.1-1.7-0.2
		c-1.3-0.2-2.6-0.7-3.9-1c-0.7-0.5-1.5-0.9-2.3-1.3c-1.2-0.6-2.4-1.1-3.6-1.5c-2.4-0.8-4.9-1.2-7.4-1.9c0,0,0,0.1,0,0.1
		c2.3,0.8,4.7,1.3,7.1,2.1c1.2,0.4,2.4,0.9,3.6,1.5c0.4,0.2,0.8,0.4,1.1,0.6c-3.9-1.4-7.8-2.8-11.9-3.4c-0.1,0.3-0.1,0.5-0.2,0.8
		c1.8,0.3,3.5,0.8,5.1,1.6c2.3,1.1,4.4,2.5,6.5,3.9c1.3,0.9,2.6,1.8,3.9,2.7c0.1,0,0.1,0.1,0.2,0.1c0,0,0.1,0.1,0.1,0.1
		c0.7,0.6,1.3,1.2,2,1.7c0,0,0.1,0.1,0.1,0.1c0.2,0.2,0.5,0.5,0.7,0.7c-0.2-0.1-0.3-0.1-0.5-0.2c-2.4-1.1-4.7-2.5-7-3.7
		c-0.4-0.2-0.9-0.4-1.3-0.6c-0.3-0.2-0.5-0.4-0.8-0.6c-1.6-1.1-3.4-1.8-5.3-2.4c-1.5-0.5-3-0.8-4.5-1.2c-0.1,0.1-0.1,0.3-0.2,0.4
		c1.6,0.4,3.2,0.8,4.8,1.3c1.2,0.4,2.4,0.9,3.6,1.4c-0.4-0.1-0.7-0.3-1.1-0.4c-1.6-0.8-3.3-1.2-5-1.6c-0.8-0.2-1.6-0.3-2.5-0.4
		c-0.2,0.4-0.4,0.8-0.6,1.2c2.3,0.2,4.6,1.1,6.7,2.1c1,0.5,2,1.1,3,1.7c-1.1-0.6-2.2-1.2-3.3-1.7c-2.1-0.9-4.4-1.2-6.6-1.6
		c0,0.1-0.1,0.1-0.1,0.2c2.2,0.4,4.5,0.8,6.6,1.7c2.3,1,4.3,2.5,6.5,3.8c0.4,0.3,0.8,0.7,1.2,1.1c2.2,2.1,4.4,4.4,6.4,6.7
		c0.1,0.1,0.2,0.3,0.3,0.4c-0.1-0.1-0.2-0.1-0.4-0.2c-0.4-0.4-0.8-0.7-1.2-1.1c-2.1-2-4.3-3.9-6.7-5.7c-2.3-1.7-4.7-2.9-7.3-4
		c-1.9-0.8-4-1.5-6-1.9c0,0.1-0.1,0.2-0.1,0.2c4.9,1.2,9.6,3.1,13.8,6.3c2.2,1.7,4.3,3.7,6.3,5.7c0,0,0,0,0,0
		c-0.5-0.2-1-0.4-1.6-0.7c-0.3-0.2-0.5-0.3-0.8-0.5c-1.6-1.4-3.2-2.7-4.8-4c-2.5-1.9-5.1-3.2-8-4.3c-1.8-0.7-3.6-1.3-5.4-1.8
		c-0.2,0.3-0.4,0.6-0.5,0.8c4,1.2,7.4,3.9,10.5,6.9c1.7,1.7,3.4,3.6,5.1,5.4c1.5,1.6,2.9,3.1,4.7,4.3c-0.2-0.1-0.4-0.2-0.6-0.2
		c-1.1-0.8-2.3-1.5-3.4-2.2c-0.5-0.7-1-1.5-1.5-2.1c-1.3-1.6-2.7-3.2-4.2-4.6c-1.6-1.5-3.4-2.8-5.3-3.8c-1.8-1-3.7-1.9-5.4-3.1
		c0,0-0.1,0.1-0.1,0.1c1.6,1.1,3.4,2.1,5.1,3.1c2,1.1,3.8,2.4,5.5,4c1.6,1.5,3,3.2,4.4,4.9c0.3,0.3,0.5,0.7,0.8,1.1
		c-0.5-0.3-0.9-0.7-1.3-1.1c-1.9-1.6-3.6-3.5-5.4-5.1c-1.9-1.7-4-3.1-6.2-4.2c-1.2-0.6-2.3-1.1-3.5-1.6c-0.1,0.2-0.3,0.3-0.4,0.5
		c1.1,0.5,2.2,0.9,3.3,1.5c2.3,1.1,4.4,2.4,6.4,4.1c1.9,1.6,3.6,3.5,5.5,5.1c0.8,0.7,1.7,1.3,2.6,1.9c0,0,0,0,0,0
		c-2.6-1.5-4.9-3.5-7.3-5.3c-1.8-1.4-3.6-2.8-5.5-4c-1.7-1.1-3.6-2-5.4-2.9c-0.1,0.2-0.3,0.4-0.4,0.6c1.9,0.9,3.7,1.8,5.5,2.8
		c1.1,1.3,2.4,2.3,3.7,3.1c0.7,0.4,1.4,0.8,2.1,1.2c0.6,0.4,1.3,0.9,1.9,1.3c0.2,0.2,0.4,0.3,0.6,0.5c-1.1-0.5-2.2-1-3.3-1.5
		c-1.8-0.8-3.5-1.8-5.2-3c-1.4-1.1-2.7-2.2-4.1-3.3c-0.4-0.3-0.9-0.6-1.3-0.9c-0.1,0.1-0.2,0.2-0.3,0.3c0.1,0.1,0.1,0.2,0.2,0.3
		c0.5,0.3,0.9,0.7,1.4,1c1.4,1.1,2.8,2.3,4.3,3.4c2.9,2.1,6.3,3.2,9.5,4.7c0.8,0.6,1.7,1.2,2.6,1.8c0.4,0.3,0.9,0.5,1.3,0.8
		c0.7,0.5,1.5,0.9,2.4,1.2c0.2,0.1,0.4,0.1,0.5,0.2c0.3,0.1,1,0.4,1.1,0c0.1-0.2,0.1-0.4,0-0.6c-1.8-1.3-3.4-3-5-4.6
		c-1.7-1.8-3.3-3.6-5.1-5.3c-1.3-1.3-2.7-2.5-4.2-3.6c1.3,0.6,2.6,1.4,3.8,2.1c0.7,0.4,1.5,0.8,2.2,1.2c0,0,0,0,0,0
		c1.2,0.9,2.2,2.2,3.5,3.1c0.5,0.4,1.2,0.6,1.8,0.7c0.4,0.1,0.7,0.2,1.1,0.3c0.9,0.6,1.9,0.8,2.9,1.1c0.8,0.3,1.6,0.6,2.3,1.1
		c0.2,0.1,0-0.6-0.1-0.6c0,0,0,0,0,0c-0.1-0.1-0.2-0.3-0.3-0.4c0,0,0,0,0,0c-0.3-0.4-0.7-0.8-1-1.2c-2.1-2.3-4.2-4.7-6.5-6.7
		c-2.3-2-4.8-3.8-7.5-5.1c-1.4-0.6-2.8-1.2-4.3-1.5c0,0,0,0,0,0c1.1,0.2,2.2,0.4,3.3,0.7c0.9,0.3,1.7,0.7,2.6,0.8
		c1.7,0.6,3.3,1.3,4.9,2.1c0.4,0.2,0.8,0.5,1.2,0.6c1.7,0.9,3.4,1.8,5.1,2.6c0.2,0.2,0.7,0.4,1.1,0.5c0,0,0,0,0,0c0,0,0,0,0,0
		c0.2,0,0.3,0,0.5,0c0.4-0.1,0.6-0.3,0.6-0.6c0,0,0-0.1,0-0.1c-0.1-0.5-0.4-0.9-0.8-1.2c-0.6-0.5-1.2-0.9-1.9-1.3
		c-0.6-0.4-1.1-0.7-1.7-1c-0.3-0.3-0.6-0.5-1-0.7c0,0,0,0-0.1,0c-0.9-0.6-1.8-1.3-2.7-1.9c-0.5-0.4-1.1-0.7-1.6-1.1
		c1.3,0.4,2.7,0.7,3.9,0.9c1,0.1,2.1,0.3,3.2,0.3c0.1,0,0.2,0.1,0.3,0.1c0.3,0,0.7-0.1,1-0.1c0.5,0,1.1-0.1,1.6-0.2
		c0.3,0,0.7-0.1,1-0.1c0.8-0.4,1.6-0.8,2.4-1.2c0,0,0,0,0,0c0.1-0.1,0.1-0.4-0.1-0.4c-0.8,0-1.6-0.1-2.3-0.1
		c-2.2-0.5-4.4-1.4-6.5-2.2c-2.5-1-5-2.1-7.6-3c-0.7-0.2-1.4-0.5-2.2-0.7c1.9,0.2,3.9,0.6,5.8,0.9c0.7,0.1,1.3,0.2,2,0.2
		c0.9,0.2,1.8,0.3,2.7,0.3c0.6,0,1.5,0.1,2.2-0.1c0.1,0,0.2,0,0.3,0c0.4-0.1,1-0.3,1.1-0.8c0.1-0.7-2.1-0.9-2.1-0.9c0,0-0.1,0-0.1,0
		c-0.2,0-0.5-0.1-0.7-0.1c-0.9-0.2-1.8-0.4-2.7-0.6c0.6,0,1.2,0.1,1.8,0.1c1.8,0,3.6-0.3,5.4-0.9c1.4-0.5,2.6-1.3,3.7-2.4
		c0.4-0.3,0.9-0.7,1.3-1.1C108.2,54.6,108.1,54.3,107.8,54.4"/>
	<path class="st0" d="M97.3,65.8c-0.6-0.2-1.2-0.5-1.8-0.8c0,0-0.1,0.1,0,0.1C95.9,65.5,96.6,65.7,97.3,65.8
		C97.3,65.9,97.3,65.8,97.3,65.8"/>
	<path class="st0" d="M92.8,63.9c-0.5-0.2-0.9-0.4-1.3-0.6c-0.3-0.2-0.6-0.3-0.9-0.3c-0.1,0-0.1,0.1,0,0.1c0.3,0.2,0.7,0.3,1,0.4
		C92,63.7,92.4,63.9,92.8,63.9C92.8,64,92.9,64,92.8,63.9"/>
	<path class="st0" d="M88.6,62.5c-0.6-0.3-1.3-0.7-1.9-0.8c-0.1,0-0.1,0.1,0,0.1c0.3,0.1,0.6,0.2,0.9,0.3c0.4,0.1,0.7,0.3,1,0.5
		C88.6,62.7,88.6,62.6,88.6,62.5"/>
	<path class="st0" d="M51.2,100.5c-0.3,0-0.7,0.4-0.9,0.6c-0.2,0.2-0.4,0.4-0.4,0.7c0,0.1,0.1,0.1,0.1,0c0-0.1,0.1-0.2,0.1-0.2
		c0.1-0.1,0.3-0.3,0.4-0.4c0,0,0,0,0,0c0,0,0.1,0,0.1-0.1C50.8,100.9,51.1,100.8,51.2,100.5C51.3,100.5,51.2,100.5,51.2,100.5"/>
	<path class="st0" d="M51.1,98.1c0.8-2.2,1.7-4.5,2.2-6.9c0,0.4,0,0.8,0,1.2c0,0.5-0.1,1-0.2,1.5c0,0,0,0,0,0c0,0.9-0.2,1.7-0.5,2.4
		c-0.4,0.6-0.7,1.3-1,1.9c-0.1,0.1-0.2,0.3-0.2,0.4c0,0,0,0-0.1,0c-0.2,0.3-0.4,0.6-0.5,0.9c-0.1,0.2-0.3,0.4-0.4,0.6c0,0,0,0,0,0
		C50.6,99.5,50.8,98.8,51.1,98.1 M48.4,91.6c-0.3,1.4-0.8,2.7-1.3,4c-0.1,0.4-0.2,0.8-0.4,1.2c-0.2,0.6-0.5,1.4-0.9,2
		c0.6-1.5,1.2-3,1.7-4.5c0.3-1,0.5-2,0.7-3c0.2-1.1,0.4-2.1,0.5-3.2c0-0.1,0.1-2.7,0-4.5c0-0.3,0.1-0.5,0.1-0.8
		C49.5,85.7,49.1,88.7,48.4,91.6 M45.2,99.6c-0.1,0.2-0.2,0.4-0.3,0.6c-1.5,2.7-3.3,5.3-5.1,7.8c-0.2,0.2-0.4,0.5-0.6,0.7
		c0,0,0,0,0-0.1c0.4-0.7,0.8-1.4,1.1-2.1c1.3-2.4,2.6-4.8,3.7-7.2c0,0,0,0,0,0c0.3-0.6,0.6-1,1-1.5c0.4-0.6,0.8-1.2,1.1-1.9
		c0.5-1.1,0.9-2.3,1.3-3.5c0.5-1.6,0.7-3.3,0.9-5c0.1-0.6,0.1-1.2,0.2-1.7c-0.1,1.9-0.3,3.7-0.6,5.6c-0.1,0.7-0.3,1.4-0.5,2.2
		c0,0.1,0,0.1,0,0.2c-0.1,0.4-0.2,0.8-0.3,1.2C46.5,96.3,45.8,97.9,45.2,99.6 M40.1,104.3c-0.2,0.5-0.5,1-0.7,1.6
		C39.6,105.3,39.9,104.8,40.1,104.3 M44.3,93.6c-0.4,1.6-1,3.1-1.6,4.7c0,0.1-0.1,0.2-0.1,0.3C42.9,96.8,43.7,95.2,44.3,93.6
		 M36.7,101.8C36.7,101.8,36.7,101.8,36.7,101.8C36.6,101.8,36.6,101.8,36.7,101.8c0,0,0-0.2,0-0.3c0-0.1,0.1-0.2,0.1-0.2
		C36.8,101.4,36.7,101.6,36.7,101.8 M38.7,91.8c0.5-1.6,1.1-3.1,2-4.4c0,0.1-0.1,0.2-0.1,0.3c-0.7,1.9-1.5,3.8-2.4,5.7
		C38.3,92.8,38.5,92.3,38.7,91.8 M60,89.6c0-0.1,0-0.2,0-0.3c-0.2-1.1-0.2-2.3-0.2-3.4c-0.2-0.8-0.4-1.7-0.8-2.4c0,0,0,0-0.1,0
		c-0.1,0-0.1,0.1-0.2,0.1c0,0,0,0.1,0.1,0.1c0.3,1.1,0.7,2.2,0.9,3.4c0,0.3,0.1,0.7,0.1,1c0.1,1.6-0.3,3.3-0.2,4.9
		c0,0.7-0.1,1.4-0.1,2.1c-0.2,2.1-0.4,4.3-0.4,6.4c0,0.6,0,1.1,0.1,1.7c0,0,0,0,0,0c0-0.1,0-0.1-0.1-0.2c-0.2-0.9-0.3-1.8-0.4-2.6
		c-0.3-2.4-0.1-4.7,0-7.1c0-0.2,0.4-3.7,0.2-5.1c-0.2-1.4-0.5-2.9-1-4.2c-0.2,0-0.4,0.1-0.5,0.1c0.1,0.3,0.2,0.6,0.3,1
		c0.3,1,0.6,2.1,0.7,3.2c0.2,2.1,0,4.2-0.1,6.3c-0.1,1.3-0.1,2.5-0.1,3.8c-0.1-1.1-0.2-2.2-0.2-3.2c0-0.6,0.1-1.2,0.1-1.8
		c0-0.7,0-1.4-0.1-2.1c0-1.1-0.1-2.2-0.2-3.3c-0.1-1.2-0.3-2.5-0.8-3.7c-0.4,0-0.8,0-1.2-0.1c0,0.1,0.1,0.2,0.1,0.4
		c0.1,0.4,0.1,0.9,0.2,1.3c0.1,0.9,0,1.7,0,2.6c0,0.1,0.1,0.1,0.1,0c0.3-0.8,0.2-1.8,0.2-2.6c0-0.3,0-0.6,0-0.9
		c0.1,0.3,0.2,0.5,0.2,0.8c0,0.6,0,1.1,0,1.7c0,1.5-0.2,3-0.4,4.5c-0.3,2.3-0.7,4.6-1.2,6.9c-0.2,0.6-0.5,1.2-0.7,1.8
		c-0.6,1.7-0.5,3.6-0.2,5.4c-0.5-1.6-0.7-3.2-0.6-5c0.1-2,0.5-4,0.8-5.9c0.3-1.8,0.5-3.6,0.7-5.4c0.1-1.8,0.2-3.6-0.3-5.3
		c-0.1-0.2-0.4-0.1-0.4,0.1c0.6,1.8,0.4,3.8,0.3,5.6c-0.1,1.9-0.4,3.7-0.7,5.6c-0.4,2.4-0.8,5-0.5,7.5c-0.1-0.7-0.2-1.4-0.3-2.1
		c0-0.7-0.1-1.4-0.1-2.1c0,0,0,0,0,0c0.1-0.3,1.7-10.3,1.2-15.2c0,0,0,0,0,0c-0.2,0-0.5,0-0.7,0c0,0.2,0,0.4,0.1,0.6
		c0.1,2.3,0,4.6-0.5,6.9c-0.6,2.6-1.5,5.1-2.5,7.5c-0.4,0.9-0.8,1.9-1.1,2.8c-0.6,0.4-1.2,0.9-1.7,1.5c0.4-1.5,0.9-3,1.3-4.5
		c0.1-0.5,0.2-1,0.3-1.5c0.1-0.3,0.3-0.6,0.4-0.9c0.7-1.9,1-3.9,1.3-5.9c0.2-2,0.3-4.1,0.3-6.1c0-0.2,0-0.3,0-0.5
		c-0.1,0-0.3,0-0.4-0.1c0,0.3,0,0.7,0,1c-0.1,2-0.1,3.9-0.3,5.9c-0.1,1.3-0.4,2.7-0.7,4c0.1-0.4,0.1-0.8,0.2-1.2
		c0.4-1.8,0.6-3.7,0.6-5.5c0-1.1-0.1-2.2-0.1-3.2c0-0.1,0-0.3,0-0.4c0-0.2,0-0.4,0-0.6c-0.5-0.1-0.9-0.2-1.4-0.3c0-0.1,0-0.3,0-0.4
		c-0.1,0-0.2,0-0.2,0c-0.3,1.3-0.3,2.7-0.5,4.1c-0.1,1.4-0.3,2.9-0.6,4.3c-0.3,1.7-0.9,3.4-1.6,5.1c-0.3,0.8-0.8,1.5-1.3,2.2
		c0,0,0,0,0,0c1-2.5,1.7-5,2.1-7.7c0.5-2.5,0.8-5.2,0.6-7.8c-0.1,0-0.1,0-0.2,0c-0.1,5.7-1,11.4-3.4,16.6c-1.2,2.6-2.7,5.1-4.1,7.6
		c-0.1,0.3-0.3,0.5-0.4,0.8c0.1-0.3,0.2-0.6,0.3-0.8c0.4-1.1,0.9-2.1,1.3-3.2c0.3-0.6,0.7-1.3,1.1-2c0.4-0.6,0.7-1.2,0.8-1.8
		c0.3-0.5,0.5-1,0.7-1.5c0.2-0.4,0.3-0.9,0.5-1.5c0.9-2.4,1.5-4.9,1.9-7.5c0.4-2.3,0.6-4.6,0.8-6.9c-0.3-0.1-0.6-0.3-0.8-0.6
		c-0.2,4.8-2.2,9.3-4.6,13.3c-1.3,2.1-2.7,4.2-4.1,6.3c0,0-0.1,0.1-0.1,0.1c0.1-0.3,0.1-0.5,0.2-0.8c0,0,0.1,0,0.1,0
		c0.2-0.6,0.3-1.2,0.6-1.8c0.1-0.3,0.2-0.5,0.4-0.8c0.7-1.4,1.5-2.6,2.1-4.1c0,0,0,0,0,0c-0.9,1.5-1.8,3.2-2.6,4.8
		c-0.4,0.8-0.7,1.5-1,2.3c-0.2,0.5-0.5,1.3-0.6,1.9c-0.1,0.2-0.2,0.4-0.3,0.6c-0.2,0.3-0.3,0.6-0.5,0.8c0-0.5,0.1-1,0.2-1.5
		c0.4-1.1,0.8-2.1,1.4-3.1c1.2-2.3,2.6-4.4,3.8-6.6c1.3-2.3,2.1-4.7,2.8-7.2c0.3-1.3,0.6-2.7,0.9-4.1c0.1-0.3,0.1-0.7,0.2-1
		c0,0,0,0-0.1,0c-0.2-0.1-0.3-0.1-0.5-0.2c0,0.2-0.1,0.4-0.1,0.6c-0.2,1.3-0.5,2.7-0.8,4c-0.6,2.6-1.5,5.1-2.7,7.4
		c-1.2,2.3-2.6,4.4-3.8,6.6c-0.2,0.3-0.3,0.6-0.4,0.9c0.1-0.3,0.1-0.5,0.2-0.8c0.8-1.9,1.7-3.8,2.5-5.6c1-2.1,1.9-4.3,2.7-6.5
		c0.8-2.3,1.3-4.6,1.8-6.9c-0.2-0.1-0.4-0.2-0.6-0.3c-0.5,2.3-1,4.7-1.8,6.9c-1,1.3-1.7,2.9-2.2,4.4c-0.3,0.8-0.5,1.6-0.8,2.4
		c-0.2,0.7-0.6,1.5-0.8,2.2c-0.1,0.2-0.2,0.5-0.3,0.7c0.3-1.2,0.5-2.5,0.8-3.7c0.4-2.1,1-4,1.9-5.9c0.7-1.6,1.6-3.2,2.3-4.8
		c0.3-0.7,0.6-1.4,0.9-2.2c-0.1,0-0.1-0.1-0.2-0.1c-0.1,0.1-0.1,0.3-0.2,0.4c-0.1,0.1-0.2,0.3-0.4,0.4c-0.2,0.5-0.4,1.1-0.7,1.6
		c-0.8,1.7-1.6,3.4-2.4,5.1c-1.5,3.4-1.8,7.1-2.6,10.7c-0.2,0.6-0.5,1.2-0.7,1.8c-0.2,0.7-0.3,1.4-0.4,2.1c-0.3,1.2-0.4,2.3,0,3.6
		c0.1,0.2,0.3,0.1,0.4,0c0.2-0.6,0.5-1.2,0.7-1.8c0.6-0.9,1.2-1.8,1.8-2.8c1.4-2.1,2.8-4.1,4-6.3c1.8-3,3.3-6.3,4-9.8
		c-0.1,1.3-0.2,2.7-0.5,4c-0.1,0.8-0.2,1.5-0.4,2.2c-0.2,0.6-0.4,1.2-0.7,1.8c-0.8,2-1.8,4.1-2,6.3c-0.2,0.7-0.6,1.5-0.9,2.2
		c-0.5,0.8-1.1,1.6-1.5,2.5c-0.5,0.9-0.8,1.8-0.9,2.8c-0.1,0.6-0.1,1.3,0,2c0,0.2,0.1,0.4,0.2,0.5c0,0,0,0,0,0c0.1,0,0.2,0,0.4-0.1
		c0,0,0,0,0,0c0.4-0.5,0.7-1,1.1-1.4c1.8-2.6,3.6-5.2,5.1-8c1.5-2.7,2.7-5.6,3.3-8.7c0.3-1.5,0.6-3.1,0.7-4.7c0,0,0,0,0,0
		c0.1,1.2,0,2.4-0.1,3.5c-0.1,1-0.3,1.9-0.3,2.9c-0.2,1.8-0.6,3.7-1,5.5c-0.2,0.5-0.3,0.9-0.4,1.4c-0.4,1.6-0.9,3.1-1.3,4.7
		c0,0,0.1-0.1,0.1-0.1c0,0,0.1,0,0.1,0c0.1-0.2,0.3-0.4,0.4-0.6c0.7-0.8,1.4-1.5,2.2-2.1c0.2-0.2,0.5-0.4,0.7-0.5
		c0.9-0.7,2.1-1.6,2.5-2.8c0,0.5,0,1,0,1.4c0,0,0,0,0,0c0,0,0,0,0,0c0,0.2,0,0.5,0,0.7c0.1,2,0.5,3.9,1.3,5.7
		c0.2,0.1,0.4,0.2,0.6-0.1c0.1-0.1,0.1-0.3,0.2-0.4c0-0.9,0-1.8,0-2.6c0-1.2,1.5-5.6,1.5-6.3c0.1-0.5,0.1-1,0.2-1.5c0,0,0-0.1,0-0.1
		c0.2-1.1,0.3-2.2,0.5-3.3c0.1-0.8,0.2-1.6,0.2-2.4c0.1,2.1,0.2,4.1,0.2,6.2c0,0.7,0.1,1.4,0.2,2.1c0,0.9,0,1.9,0.2,2.8
		c0.1,0.7,0.2,1.6,0.5,2.3c0,0.1,0.1,0.2,0.1,0.3c0.1,0.4,0.4,1,0.9,1c0.3,0,0.4-0.4,0.5-0.8c0,0,0-0.1,0-0.1c0.1-0.7,0-1.4,0-1.4
		c0,0,0-0.1,0-0.1c0-0.2,0-0.5,0-0.7c0-2.3,0.3-4.6,0.4-6.9C60,92.6,60,91.1,60,89.6"/>
	<path class="st0" d="M52.1,83.2c0.1,0.7,0.1,1.3,0.1,2c0,0.9-0.2,1.8-0.1,2.7c0,0.1,0.2,0.1,0.2,0c0.1-1,0.2-2,0.2-2.9
		c0-0.5,0-1.2-0.1-1.8C52.3,83.3,52.2,83.3,52.1,83.2"/>
	<path class="st0" d="M51.9,91c0.2-0.6,0.3-1.4,0.3-2.1c0-0.2-0.2-0.2-0.3,0c0,0.7-0.3,1.4-0.2,2.1C51.7,91.1,51.8,91.1,51.9,91"/>
	<path class="st0" d="M50.9,94.2c0.4-0.7,0.7-1.6,0.9-2.3c0-0.1-0.2-0.2-0.2-0.1c-0.3,0.8-0.7,1.5-0.9,2.3
		C50.7,94.2,50.9,94.3,50.9,94.2"/>
	<path class="st0" d="M49.6,97.3c0.4-0.6,0.6-1.2,0.9-1.9c0.1-0.2-0.1-0.3-0.2-0.1c-0.3,0.6-0.6,1.3-0.8,1.9
		C49.4,97.3,49.5,97.4,49.6,97.3"/>
	<path class="st0" d="M54.7,95.6c0.1-0.5,0.2-1,0.3-1.5c0.1-0.3,0.2-0.7,0.2-1c0-0.1-0.1-0.1-0.1,0c-0.1,0.4-0.1,0.7-0.2,1.1
		C54.7,94.7,54.6,95.1,54.7,95.6C54.6,95.7,54.7,95.7,54.7,95.6"/>
	<path class="st0" d="M55.2,90.9c0.2-0.7,0.4-1.4,0.4-2.1c0-0.1-0.1-0.1-0.1,0c-0.1,0.3-0.1,0.6-0.1,1c-0.1,0.4-0.1,0.8-0.3,1.2
		C55.1,91,55.2,91,55.2,90.9"/>
	<path class="st0" d="M29.1,49.6c-0.2-0.1-0.3-0.1-0.5-0.2c-0.9-0.3-1.8-0.5-2.7-0.7c-0.1,0-0.2,0.2-0.1,0.2
		c0.8,0.3,1.7,0.5,2.5,0.8c0.2,0.1,0.5,0.2,0.7,0.3C29,49.9,29,49.7,29.1,49.6"/>
	<path class="st0" d="M23.1,48.1c0.6,0,1.4,0.2,2,0.4c0.2,0.1,0.1,0.3-0.1,0.2c-0.6-0.2-1.3-0.2-1.9-0.4
		C22.9,48.2,23,48.1,23.1,48.1"/>
	<path class="st0" d="M3,38.5c0.3,0.2,0.6,0.4,0.8,0.6c0,0,0,0.1-0.1,0.1C3.5,39,3.2,38.8,3,38.5C2.9,38.6,2.9,38.5,3,38.5"/>
	<path class="st0" d="M9.4,41.7c0.2,0,0.3,0.1,0.5,0.1c0.2,0.1,0.3,0.1,0.5,0.2c0.1,0,0,0.1,0,0.1c-0.2,0-0.4-0.1-0.5-0.1
		C9.7,41.9,9.6,41.9,9.4,41.7C9.4,41.8,9.4,41.7,9.4,41.7"/>
	<path class="st0" d="M6.7,40.5c0.5,0.1,1,0.4,1.4,0.7c0.1,0,0,0.2-0.1,0.1c-0.2-0.1-0.4-0.2-0.6-0.3C7.2,40.9,6.9,40.8,6.7,40.5
		C6.7,40.6,6.7,40.5,6.7,40.5"/>
	<path class="st0" d="M4.5,39.5c0.1,0,0.2,0.1,0.3,0.2C5,39.8,5.2,39.9,5.4,40c0.1,0,0,0.2,0,0.1C5.1,40,4.7,39.8,4.5,39.5
		C4.4,39.5,4.5,39.5,4.5,39.5"/>
	<path class="st0" d="M3,60.8c0.1,0,0.2,0,0.3,0c0.1,0,0.2,0.1,0.3,0.1C3.4,60.9,3.2,60.9,3,60.8 M20.7,55.3
		c-1.4-0.1-2.8-0.3-4.2-0.6c2.1,0,4.1,0.2,6.2,0.6c0.1,0,0.1,0,0.2,0C22.1,55.4,21.4,55.3,20.7,55.3 M12.6,52.1
		c2.6-0.6,5.4-0.9,8.1-0.7c-1.7,0-3.4,0.2-5.1,0.5c-3.8,0.6-7.6,1.7-11.4,2.6C7,53.5,9.8,52.7,12.6,52.1 M3.1,47.2
		C3.1,47.2,3,47.2,3.1,47.2C3,47.2,3,47.2,3.1,47.2c0.1,0,0.2,0,0.4,0c0.1,0.1,0.2,0.1,0.2,0.2C3.5,47.3,3.3,47.3,3.1,47.2
		 M22.3,60.5c0.1,0,0.2,0,0.3,0c-1.5,0.4-3,0.5-4.6,0.5c-0.5,0-1,0-1.5,0C18.4,60.8,20.4,60.6,22.3,60.5 M29.5,61.1
		c-0.7,0-1.4,0.1-2.1,0.1c-1.7,0.2-3.4,0.5-5.1,0.7c-2,0.2-3.9,0.2-5.9-0.1c-1.2-0.1-2.4-0.3-3.6-0.4c0.2,0,0.5-0.1,0.7-0.1
		c0.7,0,1.5-0.1,2.2-0.1c0.8,0,1.6,0,2.4,0c1.6,0,3.2-0.2,4.7-0.8C25.1,60.5,27.3,60.7,29.5,61.1c-0.1-0.3-0.1-0.6-0.2-0.8
		c-2.2-0.2-4.3-0.4-6.5-0.4c-2.2,0-4.5,0.3-6.7,0.6c-3,0.4-6.1,0.8-9.2,0.8c1.2,0,2.4-0.1,3.5-0.3c2.4-0.4,4.8-1.2,7.2-1.6
		c2.5-0.5,5-0.5,7.5-0.2c1.3,0.1,2.6,0.3,3.8,0.5c0.1,0,0.1,0,0.2,0c0-0.2-0.1-0.4-0.1-0.6c-0.1,0-0.3,0-0.4-0.1
		c-1.3-0.2-2.6-0.3-3.9-0.4c-2.5-0.2-4.9-0.1-7.4,0.4c-2.4,0.5-4.7,1.2-7.1,1.6c-0.9,0.2-1.8,0.2-2.8,0.3c0.2-0.1,0.5-0.1,0.7-0.2
		c2-0.5,4.1-1.1,6.1-1.6c2.3-0.6,4.7-1.2,7.1-1.3c1.3-0.1,2.5,0.1,3.8,0.3c1,0.2,2.1,0.5,3.2,0.4c0.1,0,0.1-0.1,0-0.1
		c-1.1-0.3-2.3-0.4-3.4-0.6c-1.1-0.2-2.3-0.3-3.4-0.2c-2.3,0.1-4.7,0.6-6.9,1.2c-2.1,0.5-4.2,1-6.2,1.6c-0.7,0.2-1.4,0.4-2.1,0.5
		c-0.7,0-1.4,0-2.1,0.1c-0.2,0-0.5-0.1-0.7-0.1c1.9-0.2,3.7-0.7,5.5-1.2c2.3-0.7,4.6-1.4,6.9-2c4.2-1.1,8.7-1.6,12.9-0.4
		c0-0.3,0-0.7-0.1-1c-2-0.6-4.1-1.1-6.1-1.4c-3-0.5-5.9-0.8-8.9-0.4c-2.9,0.3-5.7,0.9-8.6,1.4c-1.5,0.2-3,0.4-4.6,0.5
		c-0.2-0.1-0.2-0.2-0.1-0.4c0.1,0,0.2-0.1,0.4-0.1c0,0,0.1,0,0.1,0c1.4-0.1,2.7-0.3,4.1-0.6c2.7-0.6,5.4-1.3,8.2-1.6
		c0.3,0,0.5-0.1,0.8-0.1c0.2,0,0.4,0,0.6,0c4.8-0.3,9.5,0.5,14.1,2.1c0-0.1,0-0.1,0-0.2c-2.1-0.9-4.5-1.5-6.7-1.8
		c-1.8-0.3-3.6-0.4-5.4-0.4c0.1,0,0.2,0,0.3-0.1c1.9-0.2,3.8-0.2,5.7,0.1c1.1,0.2,2.2,0.5,3.3,0.8c1,0.3,2,0.6,2.9,1
		c0-0.1,0-0.2,0-0.4c-0.8-0.4-1.6-0.6-2.4-0.9c-1.2-0.4-2.3-0.7-3.5-0.9c-0.1,0-0.2,0-0.3,0c1.9,0.1,3.7,0.4,5.5,1.2
		c0.1,0,0.2-0.1,0.1-0.2c0,0,0,0,0,0c0,0,0,0,0,0c0,0,0,0,0,0c-2-1.2-4.6-1.2-6.9-1.3c-1,0-2-0.1-3,0.1c-0.7,0.1-1.5,0.2-2.1,0.4
		c0,0,0,0,0,0c-0.2,0-0.3,0.1-0.5,0.1c-0.6,0-1.2,0.1-1.8,0.1c-2.8,0.3-5.6,0.8-8.4,1.4c-0.8,0.2-1.7,0.3-2.6,0.5c0,0,0,0,0.1,0
		c4.1-0.9,8.1-2.1,12.2-2.7c2.9-0.5,5.8-0.6,8.6-0.5c1.7,0.3,3.4,0.8,5,1.7c0-0.5,0-1,0.1-1.5c0,0,0,0,0,0c-0.1,0-0.1,0-0.2,0
		c-0.9-0.4-1.8-0.8-2.8-1.2c-1.6-0.6-3.3-1.1-5.1-1.3c-0.4-0.1-0.7-0.2-1.1-0.2c1.3,0.1,2.5,0.3,3.8,0.6c1.8,0.4,3.6,1,5.3,1.6
		c0,0,0,0,0,0c0-0.2,0-0.3,0-0.5c-1.7-0.6-3.4-1.1-5.1-1.5c-1.9-0.5-3.8-0.8-5.7-0.7c-0.3,0-0.6,0-1,0.1c-0.5-0.1-1-0.1-1.4-0.1
		c-0.6,0-1.3-0.1-1.9-0.1c0.2,0,0.4,0,0.6,0c0.8-0.1,1.5-0.1,2.3-0.2c0,0,0,0-0.1,0c-0.1,0-0.1,0.2,0,0.2c0.6,0.1,1.3-0.1,2-0.2
		c0.1,0,0.1-0.1,0.1-0.2c0.4,0,0.8-0.1,1.3-0.1c0,0-0.1,0-0.1,0c-0.1,0-0.1,0.2,0,0.2c0.8,0.1,1.6-0.1,2.4-0.1
		c0.1,0,0.1-0.1,0.1-0.1c2.3,0.1,4.5,0.6,6.7,1.1c0-0.1,0-0.3,0.1-0.4c-2-0.5-4.1-0.9-6.2-1c-2.4-0.2-4.8,0.2-7.1,0.4
		c-2.5,0.3-5,0.4-7.5,0.1C7.6,48.1,6.8,48,6,47.9c-0.7-0.1-1.6-0.2-2.3-0.7c0.3,0,0.6,0.1,0.8,0.1c1.4,0.2,2.8,0.2,4.2,0.2
		c2.4,0,4.9-0.3,7.3-0.4c2.5-0.2,5-0.3,7.5,0c2,0.2,3.9,0.7,5.7,1.5c0-0.3,0.1-0.5,0.1-0.8c-4.8-2.1-9.9-2.9-15-4
		c2.4,0.3,4.8,0.4,7.2,0.8c2.8,0.5,5.3,1.5,7.9,2.5c0-0.1,0.1-0.2,0.1-0.4c-1-0.3-2-0.7-3-1.1c-0.1,0-0.3,0-0.4,0
		c-0.4-0.2-0.9-0.4-1.4-0.6c-0.1,0-0.2-0.1-0.3-0.1c0,0,0,0,0,0c-0.1,0-0.2-0.1-0.3-0.1c0,0,0,0,0,0c-0.4-0.1-0.8-0.2-1.3-0.3
		c-1.4-0.3-2.9-0.4-4.3-0.6c0.9,0.1,1.8,0.2,2.7,0.3c1.6,0.2,3.2,0.4,4.8,0.6c0.4,0.1,0.8,0.1,1.2,0.2c0.6,0.3,1.3,0.4,2,0.7
		c0.1,0,0.1,0.1,0.2,0.1c0.1,0,0.1,0.1,0.2,0.1c0-0.1,0.1-0.3,0.1-0.4c-0.9-0.6-2-0.8-3-1.1c-1.6-0.3-3.3-0.5-5-0.7
		c-1.7-0.2-3.4-0.3-5-0.5c-1.6-0.2-3.2-0.7-4.8-1c-0.1,0-0.1,0.1,0,0.1c0.1,0,0.1,0,0.2,0c0.4,0.2,0.8,0.2,1.2,0.3
		c1,0.3,2,0.5,3,0.7c0.2,0,0.5,0.1,0.7,0.1c-1.4-0.1-2.7-0.2-4.1-0.3c-2.3-0.6-4.5-1.2-6.6-2.3C5.2,40.5,4,39.8,3,38.9
		c-0.6-0.5-1.2-1.1-1.7-1.7c2.1,1.4,4.4,2.4,6.7,3.2c2.3,0.8,4.6,1.3,7,1.7c0,0,0.1,0,0.1,0c0.7,0,1.4,0.1,2.1,0.3
		c0.1,0,0.2,0.1,0.2,0.1c0,0,0,0,0,0c0.1,0,0.2,0,0.3,0.1c1.5,0.2,3,0.4,4.4,0.7c1,0.1,2,0.3,3,0.6c1,0.2,2,0.5,3,0.9
		c0.5,0.2,1,0.4,1.5,0.6c0.1,0.1,0.1,0.1,0.2,0.2c0.1-0.3,0.2-0.5,0.2-0.8c-0.7-0.5-1.4-0.9-2.2-1.3C27,43,26,42.5,25,42.2
		c-0.6-0.3-1.2-0.6-1.8-0.8c-0.5-0.2-1.1-0.4-1.6-0.5c-1-0.4-1.9-0.8-2.8-1.3c1.1,0.4,2.3,0.8,3.4,1.1c1.9,0.6,3.9,1.1,5.7,2
		c0.9,0.4,1.7,1,2.4,1.6c0-0.1,0.1-0.2,0.1-0.4c-0.5-0.4-1.1-0.8-1.7-1.2c-1.7-1-3.6-1.5-5.4-2.1c-2.1-0.7-4.3-1.3-6.3-2.3
		c-0.7-0.4-1.5-0.8-2.2-1.3c-0.1,0-0.1-0.1-0.2-0.1c0,0,0,0,0,0c0.5,0.2,0.9,0.5,1.4,0.6c1.9,0.7,3.9,1.2,5.9,1.7
		c2,0.5,3.9,1.2,5.7,2c1.1,0.5,2.2,1,3.1,1.7c0.1-0.1,0.1-0.3,0.2-0.4c-0.7-0.5-1.4-0.9-2.2-1.3c-1.8-0.8-3.8-1.6-5.7-2.2
		c-2.1-0.6-4.2-1.1-6.3-1.9c-0.2-0.1-0.4-0.2-0.7-0.3c0,0,0,0-0.1-0.1c0,0-2-1.1-2.3-0.4c-0.2,0.5,0.3,1,0.6,1.3
		c0.1,0.1,0.2,0.1,0.2,0.2c0.5,0.5,1.3,0.9,1.9,1.3c0.8,0.5,1.6,0.8,2.5,1.1c0.6,0.3,1.2,0.6,1.9,0.9c1.8,0.8,3.7,1.5,5.5,2.3
		c-0.7-0.2-1.5-0.4-2.2-0.5c-2.6-0.6-5.3-0.9-8-1.4c-2.7-0.4-5.3-0.9-7.9-1.9c-1.3-0.5-3.1-1.3-4.6-1.9c-0.2-0.1-0.4-0.2-0.5-0.3
		c-0.3-0.2-0.6-0.3-0.9-0.5c-0.4-0.2-0.9-0.5-1.3-0.3C0.3,36.9,1,37.8,1.2,38c0.2,0.2,0.4,0.4,0.6,0.6C2,38.8,2.2,39,2.4,39.1
		c0.3,0.2,0.6,0.5,0.9,0.6c3,2.4,6.9,3.7,10.5,4.5c3.4,0.8,6.9,1.4,10.3,2.4c-2.5-0.3-5.1-0.3-7.6-0.2c-2.5,0.1-5,0.4-7.5,0.4
		c-1.5,0-2.9,0-4.3-0.2c-0.4,0-0.8-0.1-1.2-0.2c-0.2,0-0.4,0-0.6,0.1c-0.1,0.1-0.1,0.2-0.1,0.2c-0.1,0.1-0.1,0.3-0.1,0.4
		c0,0,0,0.1,0.1,0.1c0.1,0.2,0.3,0.3,0.4,0.4c0,0,0,0,0,0c0.1,0,0.2,0.1,0.4,0.1c1.2,0.4,2.5,0.6,3.8,0.8c2.2,0.3,4.4,0.4,6.6,0.5
		c0.5,0.1,0.9,0.1,1.4,0.1c1.8,0.1,3.5,0.4,5.2,0.8c0.9,0.3,1.8,0.5,2.7,0.6c0.8,0.2,1.6,0.5,2.4,0.8c-0.2,0-0.5,0-0.7-0.1
		c-1-0.2-1.9-0.4-2.9-0.5c-3-0.3-5.9-0.1-8.9,0.5c-3,0.6-5.9,1.5-8.8,2.4c-0.9,0.3-1.7,0.6-2.6,1c-0.3,0-0.6,0.1-0.8,0.2
		c-0.2,0.1-0.5,0.2-0.6,0.4c-0.1,0.2-0.1,0.5,0,0.7c0.1,0.3,0.3,0.4,0.6,0.4c0.2,0,0.5,0.1,0.7,0.1c0,0,0,0,0,0
		c4-0.3,8.1-1.4,12.1-1.8c0.6-0.1,1.2-0.1,1.8-0.1c1.6,0.6,3.3,0.8,5,0.9c1,0.1,1.9,0.1,2.9,0.1c0.5,0,1,0,1.6,0.1
		c0.5,0.1,1,0.3,1.5,0.4c-3.3-0.5-6.7,0-10,0.8c-2.3,0.6-4.6,1.3-6.9,2c-2.1,0.6-4.3,1.3-6.5,1.4c-0.2,0.1-0.3,0.2-0.3,0.5
		c-0.1,0.4,0.7,0.5,1,0.6c0.2,0,0.4,0.1,0.6,0.1c0.9,0.2,1.7,0.3,2.6,0.2c0.5,0,1,0,1.5,0c1,0,2.1-0.1,3.1-0.2
		c3.5,0.4,6.9,1.2,10.4,0.9c1.8-0.2,3.5-0.5,5.3-0.7c0.6-0.1,1.1-0.1,1.7-0.2c0.1-0.1,0.3-0.2,0.5-0.2c0.1,0,0.2-0.1,0.3-0.1
		C29.6,61.2,29.5,61.2,29.5,61.1"/>
	<path class="st0" d="M49.4,16.1c0,0.4,0,0.9,0.1,1.3c0.4,0.9,0.7,1.9,1,2.9c0.1,0.3,0.3,0.7,0.4,1c0.6,1.4,1.3,3.1,1.2,4.6
		c0,0,0,0,0,0c0-0.9-0.2-1.8-0.4-2.7c-0.5-2.1-1.2-4.1-2-6.1C49.6,16.8,49.5,16.4,49.4,16.1"/>
	<path class="st0" d="M32.2,19.1c0.2,0.2,0.4,0.5,0.6,0.7c0.2,0.3,0.4,0.6,0.5,0.9c0.6,1.1,1.1,2.3,1.7,3.5c0.7,1.5,1.7,2.6,2.6,3.9
		c0,0,0,0,0,0c-0.5-0.6-1.1-1.2-1.6-1.9c-1.1-1.5-2.1-3-3-4.6c-0.8-1.3-1.4-2.6-2.2-3.8c0,0,0,0,0,0C31.3,18.2,31.8,18.7,32.2,19.1
		 M37.5,26.9c0.3,0.6,0.6,1.1,0.8,1.7c-0.3-0.5-0.6-0.9-0.9-1.3c-0.8-1-1.5-2-2.1-3.2c-0.3-0.8-0.6-1.6-1-2.3
		C35.5,23.3,36.6,25,37.5,26.9 M38.9,29.9c0,0,0-0.1,0-0.1c0.1,0.3,0.2,0.5,0.3,0.8C39.1,30.3,38.9,30.1,38.9,29.9
		C38.9,29.9,38.9,29.9,38.9,29.9 M33.5,29.9c0.1,0.1,0.1,0.2,0.2,0.2c-1.3-1-2.3-2.2-3.2-3.5c-0.3-0.4-0.6-0.9-0.9-1.3
		C30.9,26.8,32.2,28.3,33.5,29.9 M33.7,16.6c2.2,2,4.3,4.2,5.9,6.8c1.3,2.1,2.4,4.2,3,6.6c0.1,0,0.1-0.1,0.2-0.1
		c-0.4-1-0.7-2-0.8-3.1c0,0,0-0.1,0-0.2c-0.5-1-1-2.1-1.6-3c-1.6-2.7-3.6-5-5.9-7.1c-2.3-2.1-4.8-4-7.3-5.8c-0.7-0.5-1.6-1-2.4-1.5
		c-0.2-0.2-0.4-0.4-0.6-0.6c-0.2-0.1-0.5-0.3-0.7-0.3c-0.2,0.1-0.4,0.2-0.5,0.4c-0.2,0.3,0,0.5,0.1,0.8c0.1,0.2,0.2,0.4,0.4,0.7
		c0,0,0,0,0,0c2,2.3,4.2,4.3,6.4,6.4c0.4,0.6,0.8,1.1,1.2,1.8c0.7,1.3,1.4,2.5,2.1,3.8c0.6,1,1.2,1.9,1.8,2.8
		c-0.8-0.8-1.7-1.6-2.6-2.3c-1.9-1.6-3.8-3-5.8-4.5c-1.8-1.4-3.6-2.8-5.1-4.5c-0.2-0.1-0.3-0.1-0.5,0c-0.4,0.2,0.1,0.9,0.2,1.2
		c0.1,0.2,0.2,0.4,0.3,0.5c0.4,0.9,0.9,1.6,1.5,2.3c0.3,0.4,0.6,0.9,0.9,1.3c0.7,0.8,1.3,1.7,2,2.4c1.9,3.1,3.4,6.5,5.8,9.2
		c1.2,1.4,2.6,2.6,3.8,4c0,0,0.1,0.1,0.1,0.1c0,0,0.1-0.1,0.1-0.1c0.1-0.1,0.2-0.2,0.3-0.3c-1.2-1.2-2.4-2.4-3.6-3.6
		c-1.4-1.5-2.6-3.1-3.6-4.9c-0.6-1.1-1.2-2.2-1.9-3.2c0.2,0.2,0.3,0.4,0.5,0.6c0.5,0.6,1,1.2,1.5,1.8c0.5,0.7,1,1.3,1.5,2
		c1,1.3,2.1,2.5,3.5,3.4c0.9,1.2,1.7,2.4,2.5,3.7c0.2-0.2,0.3-0.3,0.5-0.5c-0.8-1.3-1.6-2.5-2.5-3.7c-1.4-1.8-3-3.5-4.6-5.2
		c-2.2-2.3-4.4-4.6-6.3-7.1c0.8,1,1.5,1.9,2.4,2.7c1.8,1.7,3.8,3.2,5.6,4.9c1.9,1.8,3.5,3.8,4.8,6.1c0.4,0.6,0.7,1.2,1,1.8
		c0.1-0.1,0.3-0.2,0.4-0.3c-0.4-0.7-0.9-1.5-1.3-2.2c-1.4-2.2-3-4.2-4.9-5.9c-1.8-1.7-3.8-3.2-5.6-4.9c-1.7-1.6-3-3.4-4.5-5.2
		c-0.1-0.2-0.2-0.4-0.3-0.6c1.4,1.6,3.1,2.9,4.7,4.2c1.9,1.5,3.9,2.9,5.8,4.5c3,2.5,5.8,5.4,7.6,8.9c0,0,0,0,0,0c0,0,0,0,0-0.1
		c0.2-0.3,0.4-0.5,0.7-0.6c-0.6-1.5-1.3-2.9-2.1-4.4c-1.5-2.8-3.1-5.4-5.2-7.7c0,0-0.1-0.1-0.1-0.1c-0.3-0.4-0.6-0.7-0.9-1
		c0,0,0,0-0.1,0c-1.7-1.7-3.5-3.4-5.3-5.1c-1.1-1.1-2.2-2.3-3.2-3.5c0-0.2,0-0.3,0.2-0.3c0.1,0.1,0.2,0.1,0.3,0.2
		c0,0,0.1,0.1,0.1,0.1c1,1.1,2,2.1,3,3c2.1,1.9,4.3,3.7,6.3,5.8c3.4,3.6,5.8,8,7.7,12.6c0.1,0,0.2-0.1,0.3-0.1
		c-0.6-1.9-1.5-3.7-2.4-5.3c-1.4-2.5-3-4.9-4.8-7c-2-2.2-4.1-4.2-6.3-6.1c-0.7-0.6-1.3-1.2-1.9-1.8c0.3,0.2,0.6,0.4,0.9,0.6
		C28.9,12.7,31.4,14.5,33.7,16.6"/>
	<path class="st0" d="M21.1,90.6c-0.3,0.4-0.5,0.8-0.8,1.2c-0.5,0.7-1,1.3-1.4,2c-0.2,0.2-0.3,0.5-0.5,0.7c0.8-1.8,1.8-3.5,2.9-5.1
		c1.6-2.5,3.4-4.9,5.5-6.9c1.1-1,2.3-2,3.5-2.8c1.1-0.8,2.3-1.4,3.5-2.1c0.9-0.6,1.9-1.2,2.7-2.1c-0.5,0.7-1.1,1.4-1.8,2
		c-1.7,1.5-3.6,2.6-5.4,3.8c-1.7,1.1-3.2,2.4-4.5,4c-1.3,1.6-2.6,3.4-3.7,5.2C21.1,90.5,21.1,90.5,21.1,90.6 M37.5,76.3
		c-0.3,0.5-0.7,0.9-1,1.2c-0.8,0.8-1.8,1.5-2.7,2.2c-2.2,1.6-4.4,3-6.5,4.7c-1.6,1.3-3.1,2.8-4.5,4.3c0.9-1.1,1.6-2.3,2.6-3.4
		c1.4-1.7,3.1-3,5-4.1c1.8-1.1,3.6-2.2,5.1-3.7c0.6-0.5,1.2-1.2,1.8-1.9c0,0,0,0,0-0.1c-0.3-0.3-0.6-0.6-0.8-0.9
		c-0.1,0.1-0.2,0.2-0.3,0.3c-0.9,0.9-2,1.6-3.1,2.3c-0.4,0.2-0.7,0.4-1.1,0.6c1.4-0.9,2.8-2,3.9-3.3c0,0,0-0.1,0,0
		c-1.5,1.4-3.2,2.5-4.8,3.8c0,0,0,0.1,0,0.1c-0.5,0.3-1,0.6-1.5,1c-1.2,0.9-2.3,1.9-3.4,2.9c-2,2-3.7,4.4-5.2,6.8
		c-1.5,2.4-3.1,4.9-3.8,7.7c0,0,0,0,0,0c0-0.4,0.1-0.8,0.1-1.2c0-0.7,0.1-1.3,0.3-2c0.3-1.4,0.7-2.8,1.3-4.1
		c1.1-2.7,2.7-5.1,4.4-7.4c1.7-2.2,3.7-4.2,5.9-6c1.3-1.1,2.6-2.1,3.9-3.1c0.5-0.4,1.1-0.7,1.6-1.1c-0.1-0.1-0.1-0.2-0.2-0.4
		c-0.1-0.1-0.2-0.2-0.2-0.3c-0.1,0.1-0.2,0.1-0.3,0.2c0.1-0.1,0.2-0.2,0.2-0.3c-0.1-0.1-0.1-0.2-0.2-0.3c-0.9,1.1-2.2,1.7-3.3,2.3
		c-1.8,1-3.7,2-5.4,3c-1.8,1.1-3.7,2.2-5.3,3.6c0.1-0.1,0.3-0.3,0.4-0.4c1.8-1.9,3.9-3.2,6.1-4.5c2.1-1.2,4.2-2.2,6.3-3.4
		c0.4-0.2,0.8-0.5,1.2-0.7c-0.1-0.1-0.2-0.3-0.3-0.4c-0.3,0.2-0.7,0.4-1,0.6c-2.1,1.2-4.3,2.3-6.5,3.5c-2.1,1.2-4.1,2.5-5.8,4.3
		c-0.8,0.8-1.5,1.7-2.3,2.5c-0.7,0.6-1.4,1.3-2.1,2c0.6-1.7,1.3-3.3,2.3-4.7c1.5-2.1,3.7-3.5,5.7-4.8c2-1.3,4-2.5,6.1-3.6
		c0,0,0,0-0.1,0c-0.7,0.3-1.4,0.5-2.1,0.5c-0.1,0-0.1,0-0.2,0c-0.6,0.4-1.2,0.7-1.8,1.1c0-0.1,0-0.1-0.1-0.1
		c-0.9,0.1-1.7,0.6-2.5,1.1c-0.9,0.5-1.7,1-2.5,1.6c-1.5,0.9-2.8,2.1-4.2,3.1c-1.4,1-2.8,2-4.4,2.7C10.4,81,8.7,81,7,80.7
		c-0.1,0-0.1,0.1,0,0.1c2.9,1.1,5.9-0.3,8.3-1.9c1.6-1.1,3.1-2.3,4.7-3.5c0.9-0.6,1.8-1.2,2.7-1.7c0.5-0.3,1-0.6,1.6-0.9
		c0.3-0.2,0.7-0.3,1.1-0.5c-0.7,0.4-1.4,0.9-2.1,1.3c-2.1,1.4-4.1,2.8-5.6,4.9c-1.3,1.8-2.1,4-2.9,6.2c-0.1,0.4,0.2,0.7,0.5,0.4
		c1.5-1.5,3-3,4.7-4.4c1.7-1.5,3.7-2.7,5.6-3.8c1.7-1,3.5-2.1,5.2-3c0.1-0.1,0.2-0.1,0.4-0.2c-0.9,0.7-1.8,1.4-2.7,2.2
		c-2.2,1.8-4.1,3.8-5.9,6.1c-1.8,2.3-3.3,4.8-4.4,7.5c-0.5,1.3-0.9,2.6-1.2,3.9c-0.1,0.7-0.2,1.4-0.3,2c0,0.4,0,0.8,0,1.1
		c0,0.4,0.1,0.7,0.2,1.1c0,0,0,0,0,0.1c0.6-1,1.3-2.1,2.1-2.9c0.1-0.2,0.2-0.3,0.3-0.4c0.2-0.3,0.4-0.6,0.6-0.9
		c0.2-0.3,0.4-0.6,0.5-0.8c0.6-0.8,1.2-1.5,1.9-2.3c1.9-2.2,3.9-4.1,6.2-5.9c2.2-1.6,4.4-3.1,6.6-4.7c0.9-0.7,1.8-1.4,2.6-2.3
		c0.1-0.2,0.3-0.3,0.4-0.5C37.8,76.8,37.7,76.6,37.5,76.3"/>
	<path class="st0" d="M32.1,89.2c-1.5,1.3-3.2,2.3-4.9,3.4c-0.6,0.4-1.2,0.8-1.7,1.3c2.1-2.7,4.9-4.8,7.3-7.1c0.4-0.3,0.7-0.7,1.1-1
		c0,0,0,0,0.1,0c1.8-1,3.4-2.5,4.5-4.3c0.3-0.5,0.6-0.9,0.8-1.5c-0.2,0.4-0.3,0.7-0.5,1.1c-0.6,1.1-1.2,2.1-1.9,3.1
		C35.5,86.1,33.9,87.8,32.1,89.2 M24.7,94.8c1-3.8,4.6-6.1,7.4-8.5c1.5-1.3,2.9-2.6,4.2-4.1c0.5-0.5,0.9-1.1,1.3-1.7
		c-0.3,0.6-0.6,1.2-1,1.7c-1.2,1.8-2.8,3.3-4.4,4.8C29.6,89.4,26.6,91.7,24.7,94.8 M24.3,95.3c0,0.1-0.1,0.1-0.1,0.2
		c0-0.1,0.1-0.2,0.1-0.3C24.3,95.2,24.3,95.3,24.3,95.3 M27,90.1c1.3-1.9,2.9-3.6,4.5-5.3c1.5-1.6,3.1-3,4.7-4.6
		c0.7-0.7,1.3-1.4,1.9-2.1c0-0.1,0.1-0.1,0.1-0.2c-0.4,1.7-1.8,3.3-2.9,4.5c-1.4,1.5-2.9,2.9-4.4,4.2c-1.4,1.2-2.8,2.3-4.1,3.6
		C27,90.1,27,90.1,27,90.1 M41.8,80.4c-0.4,1.1-1.1,2.1-1.8,3c-0.7,0.9-1.6,1.8-2.5,2.5c-0.8,0.6-1.6,1.2-2.4,1.7
		c-0.2,0.1-0.3,0.2-0.5,0.3c0.2-0.2,0.4-0.5,0.7-0.7c2.6-1.9,5-4.6,5.9-7.8c-0.1,0-0.1-0.1-0.2-0.1c0,0,0,0,0,0
		c-1,2.8-2.8,5.2-5,7.2c0.6-0.7,1.2-1.5,1.8-2.2c0.7-0.9,1.3-1.9,1.8-2.9c0.4-0.7,0.8-1.5,1-2.3c-0.3-0.2-0.7-0.5-1-0.7
		c-0.3,0.9-0.7,1.8-1.2,2.6c-1,1.7-2.3,3.1-3.8,4.2c0.9-1,1.8-2,2.6-3.2c0.5-0.8,1-1.7,1.3-2.6c0.2-0.5,0.3-1.1,0.4-1.6
		c-0.3-0.2-0.5-0.5-0.7-0.8c-0.2,0.4-0.5,0.9-0.8,1.2c-0.6,0.8-1.4,1.5-2.1,2.1c-1.6,1.5-3.2,3-4.7,4.6c-1.5,1.6-3,3.3-4.2,5.2
		c-0.6,0.9-1.9,3.8-2,4.2c-0.1,0.4-0.2,0.8-0.3,1.2c0,0.4,0,0.8,0.1,1.1c0.9-1.8,2.4-2.9,4.1-3.9c1.7-1.1,3.4-2.2,5-3.5
		c0.2-0.2,0.4-0.4,0.6-0.6c0.6-0.3,1.1-0.6,1.6-0.9c1-0.6,1.9-1.2,2.7-1.9c0.8-0.7,1.5-1.4,2.1-2.2c0.7-0.9,1.5-2,1.9-3.1
		C42.2,80.3,41.9,80.2,41.8,80.4"/>
	<path class="st0" d="M30.1,77.3c-1.8,0.6-3.3,2.1-4.5,3.6c-0.1,0.1,0.1,0.2,0.1,0.1c0.6-0.8,1.4-1.5,2.1-2.1c0.7-0.6,1.5-1,2.3-1.4
		C30.2,77.5,30.1,77.3,30.1,77.3"/>
	<path class="st0" d="M35.4,73.7C35.4,73.7,35.4,73.7,35.4,73.7c-0.3,0.2-0.6,0.4-0.9,0.7c-0.4,0.4-0.9,0.7-1.4,1.1
		c-0.8,0.5-1.6,1-2.4,1.4c-0.1,0,0,0.2,0,0.1c1-0.2,1.9-0.8,2.7-1.4c0.7-0.5,1.6-1,2-1.7C35.5,73.8,35.5,73.7,35.4,73.7"/>
	<path class="st0" d="M27.9,72.7c-0.6,0.1-1.2,0.5-1.8,0.7c-0.2,0.1-0.1,0.3,0.1,0.3c0.6-0.2,1.3-0.4,1.8-0.8
		C28.1,72.8,28,72.7,27.9,72.7"/>
	<path class="st0" d="M32.5,70.3c-0.2,0.1-0.3,0.1-0.5,0.2c-0.3,0.2-0.6,0.4-1,0.6c-0.4,0.2-0.9,0.4-1.3,0.6c-0.1,0,0,0.1,0,0.1
		c0.5-0.1,1-0.3,1.5-0.6c0.4-0.2,0.9-0.4,1.2-0.8C32.6,70.4,32.6,70.3,32.5,70.3"/>
	<path class="st0" d="M24.9,74.4c-0.5,0.1-1,0.5-1.3,0.8c-0.1,0.1,0,0.3,0.1,0.2c0.2-0.1,0.4-0.3,0.6-0.4c0.2-0.2,0.5-0.3,0.7-0.4
		C25,74.5,25,74.4,24.9,74.4"/>
	<path class="st0" d="M24.9,81.9c-0.7,1-1.6,1.9-2.2,3c0,0.1,0,0.1,0.1,0.1C23.5,83.9,24.2,83,24.9,81.9
		C25,81.9,24.9,81.8,24.9,81.9"/>
	<path class="st0" d="M73.3,90.3c0.2,1,0.5,2,0.7,2.9c0,0,0,0,0,0c-0.5-1.1-1-2.2-1.4-3.3c-0.8-2-1.6-3.9-2.3-5.9
		c0-0.1-0.1-0.3-0.2-0.4c0.6,1.1,1.2,2.1,1.8,3.1c0.1,0.2,0.2,0.3,0.3,0.5c0,0,0,0,0,0.1c0.2,0.5,0.5,1,0.6,1.5
		C73.1,89.3,73.2,89.8,73.3,90.3 M91.4,101.3C91.3,101.3,91.3,101.3,91.4,101.3c-0.2-0.1-2.5-2.5-3.6-3.5c-0.2-0.2-0.5-0.4-0.7-0.7
		c-0.7-0.7-1.3-1.5-2-2.2c-1.9-2.2-3.5-4.6-4.9-7.2c-1.3-2.5-2.4-5.1-3.7-7.5c-0.6-1-1.1-2.1-1.9-3c-0.1-0.1-0.2-0.3-0.4-0.4
		c-0.1,0-0.1,0.1-0.2,0.1c-0.1,0.1-0.2,0.3-0.3,0.4c0.3,0.3,0.6,0.7,0.9,1.1c0.7,1,1.3,2.1,1.8,3.2c1.3,2.5,2.4,5,3.7,7.5
		c1.1,1.9,2.3,3.6,3.6,5.3c-1-1-2-2-3-3.1c-1.5-1.7-2.5-3.6-3.4-5.7c-0.9-2-1.7-4-2.9-5.9c-0.4-0.6-0.8-1.2-1.3-1.8
		c-0.2,0.2-0.3,0.3-0.5,0.5c0.6,0.6,1.1,1.3,1.6,2c1.2,1.9,2,4.1,3,6.2c0.9,1.9,1.9,3.6,3.3,5.2c1.4,1.6,2.9,3.1,4.5,4.4
		c0,0,0,0,0.1,0c0.1,0.1,0.2,0.2,0.4,0.3c0.2,0.1,0.4,0.3,0.6,0.4c0.1,0.1,0.1,0.1,0.2,0.2c0.6,0.6,1.1,1.2,1.7,1.8
		c0.2,0.2,0.4,0.4,0.6,0.6c-1.6-1-3.1-2.3-4.6-3.7c-2.2-2-4.3-4.1-6-6.6c-0.9-1.3-1.6-2.6-2.3-4c-0.6-1.3-1.1-2.6-1.6-3.9
		c-0.4-1-0.9-2-1.5-2.9c-0.2,0.1-0.3,0.3-0.5,0.4c0.7,1,1.3,2.2,1.8,3.4c0.5,1.3,1,2.7,1.7,4c0.7,1.4,1.5,2.7,2.4,3.9
		c1.7,2.4,3.7,4.4,5.9,6.3c2.1,1.9,4.3,3.8,6.9,4.8c0,0,0,0,0,0c-0.4-0.1-0.7-0.2-1.1-0.2c-0.6-0.1-1.3-0.3-1.9-0.5
		c-1.3-0.4-2.6-1.1-3.8-1.8c-1.6-1-3.2-2.3-4.6-3.6c0,0,0-0.1,0-0.1c-0.3-0.5-0.8-0.9-1.3-1.4c-0.5-0.6-1-1.2-1.5-1.8
		c-1-1.2-1.8-2.5-2.5-3.9c-0.7-1.3-1.3-2.7-1.8-4.1c-0.6-1.4-1-2.9-1.7-4.2c0-0.1-0.1,0-0.1,0.1c0.4,1.4,1,2.8,1.5,4.2
		c0.5,1.4,1.1,2.8,1.8,4.1c0.4,0.8,0.9,1.6,1.4,2.4c-1-1.3-1.9-2.7-2.8-4.2c-0.9-1.5-1.7-3-2.5-4.5c-0.2-0.3-0.3-0.7-0.5-1
		c-0.3,0.2-0.6,0.4-0.9,0.5c0.6,0.9,0.9,2,1.2,3c0.7,2,1.5,4.1,2.3,6.1c0.8,2.1,1.7,4.1,2.8,6c-0.1-0.2-0.2-0.3-0.4-0.5
		C73,93.9,72,91.5,71,89c-0.9-2.3-1.6-4.7-2.5-7.1c-0.1-0.2-0.1-0.3-0.2-0.5c-0.1,0.1-0.3,0.2-0.4,0.2c0,0.1,0.1,0.2,0.1,0.2
		c0.9,2.4,1.7,4.9,2.6,7.3c0.9,2.4,2,4.6,3.4,6.7c0.7,0.9,1.4,1.8,2.2,2.7c0.5,0.8,1.1,1.6,1.6,2.4c-1.5-0.8-3-1.8-4.2-3
		c-1.8-1.8-2.9-4.3-4-6.6c-1.1-2.5-2.1-5.1-3.1-7.7c-0.1-0.4-0.3-0.8-0.4-1.1c-0.2,0.1-0.3,0.1-0.5,0.2c0.2,0.8,0.4,1.5,0.6,2.3
		c0.9,2.4,1.8,4.8,2.9,7.2c1.1,2.3,2.2,4.7,4,6.5c1.6,1.6,3.6,2.7,5.5,3.7c0.3,0.2,0.7-0.2,0.4-0.5c-1.3-1.8-2.5-3.5-3.6-5.4
		c-0.3-0.6-0.6-1.2-0.9-1.7c-0.2-0.7-0.4-1.4-0.5-2.1c-0.2-0.9-0.4-1.8-0.6-2.8c-0.1-0.3-0.2-0.6-0.2-0.9c1.2,1.7,2.4,3.3,3.8,4.8
		c2,2.1,4.2,4,6.6,5.5c1.1,0.7,2.3,1.3,3.6,1.7c0.6,0.2,1.3,0.4,1.9,0.5c0.4,0.1,0.7,0.1,1.1,0.2C90.7,101.6,91.5,101.4,91.4,101.3"
		/>
	<path class="st0" d="M88,92.1c-1-0.7-1.9-1.4-2.7-2.3c-0.1-0.1-0.2-0.2-0.3-0.3c-1.2-1.5-2.2-3.1-3.1-4.7c-1.6-2.7-3.1-5.6-5.4-7.8
		c0.9,0.5,1.6,1.1,2.3,1.8c1.6,1.5,2.8,3.3,4.1,5.1c2.1,3.1,4,6.8,6.9,9.2c0.1,0.1,0.2,0.2,0.3,0.3C89.5,93,88.7,92.6,88,92.1
		 M80.8,84.4c-1.3-1.8-2.5-3.7-3.8-5.5c-0.6-0.8-1.1-1.6-1.8-2.3c-0.1-0.1-0.1-0.1-0.2-0.2c0.4,0.1,0.7,0.2,1.1,0.4
		c2.4,2.5,4.1,5.5,5.8,8.5c0.5,0.9,1.1,1.8,1.7,2.7C82.6,86.8,81.7,85.6,80.8,84.4 M78.5,76.7c-0.4-0.4-0.8-0.7-1.3-1
		c0.3,0.2,0.7,0.4,1,0.7c1,0.7,1.8,1.5,2.7,2.4c1.6,1.6,3.1,3.5,4.2,5.6c1,1.8,1.8,3.7,2.7,5.5c0.3,0.6,0.6,1.3,1,1.9
		c-2.3-2.5-4-5.7-5.9-8.5c-0.3-0.4-0.6-0.8-0.8-1.2c0,0,0,0,0-0.1C81.3,79.9,80.1,78.1,78.5,76.7 M91.4,93.7
		c-1.6-1.2-2.5-2.9-3.3-4.8c-0.9-2-1.7-3.9-2.8-5.7c-1.2-2-2.6-3.8-4.3-5.4c-0.8-0.8-1.7-1.6-2.6-2.2c-0.6-0.4-1.2-0.9-1.8-1.2
		c-0.3,0.3-0.5,0.7-0.8,1c0.8,0.4,1.5,0.9,2.2,1.4c1.5,1.2,2.7,2.8,3.6,4.5c-0.8-1.1-1.7-2.2-2.7-3.1c-0.7-0.7-1.5-1.2-2.3-1.7
		c-0.4-0.2-0.8-0.4-1.2-0.6c-0.3,0.3-0.6,0.5-1,0.7c0.3,0.3,0.7,0.6,1,0.9c0.7,0.8,1.2,1.6,1.8,2.4c1.3,1.9,2.5,3.7,3.9,5.5
		c1.4,1.8,2.8,3.5,4.5,5c0.4,0.4,0.9,0.8,1.4,1.2c0.6,0.6,1.3,1.1,2.1,1.4c0.6,0.3,1.2,0.6,1.8,0.7c0.1,0,0.2,0.1,0.3,0.1
		c0.1,0,0.2,0,0.2-0.1C91.4,94,91.5,93.8,91.4,93.7"/>
	<path class="st0" d="M73.6,85.2c0.4,1.9,1.6,3.8,2.9,5.2c0.1,0.1,0.2,0,0.1-0.1c-0.7-0.8-1.2-1.6-1.7-2.5c-0.5-0.8-0.7-1.7-1.1-2.6
		C73.7,85.1,73.6,85.1,73.6,85.2"/>
	<path class="st0" d="M71.3,79.4c-0.1,0.1-0.2,0.2-0.3,0.2c0.1,0.1,0.2,0.2,0.2,0.4c0.3,0.5,0.6,1,0.9,1.6c0.4,0.9,0.7,1.8,1.1,2.7
		c0,0.1,0.1,0.1,0.1,0c-0.1-1.1-0.6-2.1-1-3C72,80.7,71.7,80,71.3,79.4"/>
	<path class="st0" d="M69,87c0,0.7,0.3,1.4,0.5,2c0,0.2,0.3,0.1,0.3-0.1c-0.2-0.6-0.3-1.4-0.6-2C69.1,86.8,69,86.9,69,87"/>
	<path class="st0" d="M67.4,81.9c-0.1,0-0.1,0.1-0.2,0.1c0,0.1,0.1,0.2,0.1,0.3c0.1,0.4,0.3,0.7,0.4,1.1c0.2,0.5,0.3,1,0.4,1.5
		c0,0.1,0.1,0.1,0.1,0c-0.1-0.6-0.2-1.1-0.4-1.7C67.8,82.8,67.7,82.3,67.4,81.9"/>
	<path class="st0" d="M70.2,90.4c0,0.5,0.4,1.1,0.6,1.5c0.1,0.1,0.3,0,0.2-0.1c-0.1-0.2-0.2-0.4-0.3-0.7c-0.1-0.3-0.2-0.5-0.3-0.8
		C70.3,90.2,70.2,90.3,70.2,90.4"/>
	<path class="st0" d="M77.3,91.2c0.9,0.9,1.7,1.9,2.6,2.7c0,0,0.1,0,0.1-0.1C79.1,92.9,78.3,92,77.3,91.2
		C77.3,91.1,77.2,91.2,77.3,91.2"/>
	<path class="st0" d="M61.3,24.5c0-0.1,0-0.1,0-0.2c0-0.1,0.1-0.1,0.1-0.2C61.4,24.3,61.4,24.4,61.3,24.5 M57.6,0.5
		c0.4,0.2,0.7,0.6,1,1.1C58.3,1.2,58,0.8,57.6,0.5 M62.2,7.5c1.4,2.5,1.2,5.5,0.7,8.3c-0.2,1.3-0.5,2.6-0.8,3.9
		c0,0.1-0.1,0.2-0.1,0.4c0.3-2.8,0.4-5.6,0.2-8.4C62.2,10.8,62.1,9.9,62,9c0,0,0-0.1,0-0.1C62,8.4,62,7.9,62.2,7.5 M68.3,10.1
		c-0.2-2.4-1.1-4.5-2-6.7c-0.1-0.4-0.7-0.3-0.7,0.1c-0.1,2.3-0.3,4.6-0.6,6.9c-0.3,2.4-1,4.9-1.7,7.2c-0.5,1.8-1.1,3.6-1.6,5.5
		c0.1-0.4,0.2-0.8,0.3-1.1c0.2-0.8,0.3-1.5,0.5-2.3c0.3-1.4,0.6-2.9,0.9-4.3c0.4-2.7,0.6-6-1.1-8.2c-0.1-0.1-0.2-0.1-0.2,0
		c-0.2,0.3-0.2,0.7-0.3,1C61.4,7,61,5.7,60.4,4.5c0,0,0,0.1,0,0.1c-0.3-0.8-0.7-1.5-1-2.2C59,1.6,58.4,0.1,57.4,0
		c-0.1,0-0.2,0.1-0.2,0.2c0,0.4,0,0.8,0.1,1.1c0.1,0.6,0.1,1.2,0.1,1.7c-0.1,2.2-0.9,9.7-1.3,11.7c-0.1,0.5-0.2,1.1-0.3,1.6
		c-0.4,1.1-0.9,2.1-1.3,3.2c-0.2,0.6-0.5,1.3-0.7,2c0.1-1.9,0.3-3.7,0.3-5.6c0.1-2.4,0-4.7-0.3-7.1c-0.1-0.7-0.2-1.3-0.4-2
		c-0.3-0.8-0.6-1.6-1-2.4c-0.2-0.3-0.4-0.6-0.7-0.9c-0.1,0-0.2,0-0.2,0c-0.1,0-0.2,0.1-0.3,0.3c0.1,1.6-0.2,3.2-0.6,4.8
		c-0.6,2.2-1.1,4.3-1.4,6.5c0,0.3,0,0.6,0,0.9c0,0.2,0,0.3,0,0.5c0.2,0.3,0.3,0.6,0.4,0.9c0-1,0.1-2.1,0.3-3.1
		c0.3-2.1,0.9-4.2,1.4-6.3c0.2-0.7,0.3-1.5,0.4-2.3c0.3,3.6-0.4,7.4-0.8,10.9c0,0.5-0.1,1-0.1,1.6c0,0,0,0,0,0.1
		c-0.1,0.4-0.2,0.8-0.3,1.2c0.1,0.2,0.1,0.4,0.2,0.6c0-0.3,0.1-0.6,0.1-0.9c0,0.5,0,0.9,0,1.4c0.2,0.6,0.3,1.2,0.4,1.8
		c-0.2-2.1,0-4.2,0.1-6.3c0.3-3.2,0.9-6.7,0.6-10c0.2,1.1,0.5,2.2,0.7,3.3c0.4,2.3,0.3,4.7,0,7c-0.3,2.1-0.7,4.2-0.8,6.3
		c-0.1,1-0.1,2.1,0,3.2c0-0.1-0.1-0.2-0.1-0.2c0,0.1,0,0.2,0,0.3c0.2,0,0.3-0.1,0.5-0.1c0-0.2-0.1-0.5-0.1-0.7
		c-0.1-1.2,0-2.4,0.1-3.6c0.2-2.1,0.6-4.2,0.8-6.2c0.2-2.1,0.1-4.3-0.3-6.4c-0.3-1.4-0.6-2.8-0.9-4.2c0.2,0.4,0.3,0.9,0.4,1.4
		c0.3,1.2,0.5,2.4,0.7,3.6c0.3,2.4,0.2,4.9,0.1,7.4c-0.1,2.3-0.3,4.7-0.5,7c0,0.5-0.1,1.1-0.1,1.6c0.2-0.1,0.4-0.1,0.6-0.2
		c0-0.7,0.1-1.5,0.1-2.2c0.2-1.3,0.7-2.6,1.1-3.8c0.2-0.4,0.3-0.8,0.5-1.2c-0.4,1.7-0.8,3.4-1.1,5.1c-0.1,0.7-0.2,1.4-0.3,2
		c0.2,0,0.5-0.1,0.7-0.1c0.1-1,0.3-2,0.5-3c0.6-2.9,1.3-5.7,1.8-8.6c0.4-2.2,0.5-4.3,0.5-6.5c0,0,0,0,0,0c0.1,1.4,0.3,2.8,0.4,4.3
		c0.1,2.4-0.4,4.6-1,6.9c-0.6,2.2-1.2,4.5-1.4,6.8c0,0,0,0,0,0c0.2,0,0.4,0,0.6,0c0-0.1,0-0.3,0-0.4c0.3-2.4,1-4.7,1.5-7.1
		c0.5-2.2,0.8-4.3,0.7-6.5C58.3,9.1,58.1,7,57.7,5c0-0.3-0.1-0.5-0.1-0.8c0-0.2,0-0.5,0.1-0.7c0-0.3,0-0.6,0-1c0.2,1,0.4,2,0.5,3
		c0.4,3.1,0.8,6.2,0.5,9.3c-0.1,1.6-0.4,3.2-0.8,4.8c-0.3,1.4-0.8,2.8-1.2,4.3c-0.1,0.4-0.2,0.8-0.3,1.2c0.2,0,0.4,0,0.6,0
		c0.1-0.6,0.3-1.2,0.5-1.8c0.4-1.5,0.9-2.9,1.2-4.4c0.3-1.6,0.5-3.2,0.6-4.8c0.2-3.1-0.2-6-0.6-9c-0.2-1.1-0.4-2.3-0.6-3.5
		c0.7,1.5,1.2,3.1,1.6,4.7c0.6,2,1.1,4.1,1.2,6.2c0,1.2-0.1,2.4-0.2,3.7c0-0.5,0-0.9,0-1.3c0-0.1-0.2-0.1-0.2,0
		c0,1.1-0.1,2.1-0.2,3.2c-0.2,1-0.5,1.9-0.8,2.9c0,0.1,0.1,0.2,0.2,0.1c0.1-0.2,0.2-0.5,0.3-0.8c-0.3,1.7-0.5,3.4-1,5
		c0.1,0,0.3,0,0.4,0.1c0.6-1.9,0.7-4,1.1-6c0.4-2.2,0.8-4.4,0.8-6.6c0-2.1-0.6-4.1-1.1-6.1c-0.5-1.9-1.2-3.7-2.1-5.4
		c0,0,0,0.1,0.1,0.1c0.8,1.2,1.4,2.5,1.9,3.9c0.5,1.3,0.9,2.7,1.2,4.2c0.1,0.6,0.2,1.3,0.3,1.9c0.1,0.6,0,1.3,0.2,2
		c0.1,2.5-0.1,5.1-0.4,7.7c-0.2,1.6-0.5,3.1-0.8,4.7c0.4,0.1,0.7,0.1,1,0.2c0.2-0.5,0.4-1.1,0.5-1.6c0.7-2.2,1.4-4.3,2.1-6.5
		c0.6-2.2,1.3-4.5,1.6-6.8c0,0.2,0,0.4,0,0.6c-0.1,2.8-0.8,5.4-1.6,8.1c-0.7,2.1-1.4,4.2-2.2,6.4c0.1,0,0.3,0.1,0.4,0.1
		c0.7-2.1,1.4-4.2,2.1-6.4c0.8-2.6,1.4-5.1,1.5-7.8c0.1-1.2,0-2.4,0-3.6c0.1-1,0.2-2,0.2-3c0.6,1.7,1.2,3.4,1.4,5.2
		c0.3,2.7-0.4,5.4-1.1,8c-0.7,2.7-1.5,5.4-2.4,8.1c0.2,0.1,0.4,0.1,0.6,0.2c0,0,0-0.1,0-0.1c0.9-2.9,1.8-5.7,2.5-8.6
		C68,15.5,68.6,12.8,68.3,10.1"/>
	<path class="st0" d="M58.6,25.3c0-0.1,0-0.2,0.1-0.3c0.2-1,0.5-1.9,0.9-2.9c0-0.1-0.1-0.1-0.1-0.1c-0.6,1-0.9,2.1-1.1,3.1
		c0,0,0,0.1,0,0.1C58.3,25.2,58.4,25.3,58.6,25.3"/>
	<path class="st0" d="M64.4,22.6c0.4-0.6,0.6-1.3,0.9-2c0.1-0.2-0.2-0.3-0.2-0.1c-0.3,0.6-0.7,1.3-0.8,2
		C64.2,22.6,64.3,22.7,64.4,22.6"/>
	<path class="st0" d="M63.1,26.2c0.2-0.5,0.3-1,0.6-1.5c0-0.1-0.1-0.1-0.1-0.1c-0.3,0.5-0.5,0.9-0.7,1.4
		C63,26.2,63.1,26.2,63.1,26.2"/>
	<path class="st0" d="M65.6,19c0.3-0.5,0.4-1.1,0.5-1.7c0-0.2-0.2-0.2-0.2-0.1c0,0.3-0.1,0.5-0.2,0.8c-0.1,0.3-0.2,0.6-0.2,0.9
		C65.4,19,65.5,19,65.6,19"/>
	<path class="st0" d="M60.6,13.7c-0.1-1.3-0.1-2.7-0.4-3.9c0-0.1-0.1,0-0.1,0c0.1,1.3,0.2,2.6,0.4,3.9
		C60.5,13.8,60.6,13.8,60.6,13.7"/>
	<path class="st0" d="M98.8,55.5c-0.1,0-0.3,0-0.4,0.1C98.5,55.5,98.6,55.5,98.8,55.5C98.8,55.4,98.8,55.5,98.8,55.5 M97.1,46.6
		c-0.6,0-1.2-0.1-1.9-0.2c-1.8-0.2-3.6-0.4-5.4-0.5c-0.5,0-1.1-0.1-1.6-0.1c1-0.1,1.9-0.3,2.8-0.5c1.2,0,2.4,0.2,3.6,0.3
		c1.5,0.2,2.9,0.5,4.4,0.6C98.3,46.4,97.7,46.5,97.1,46.6 M101.1,40.7C101.1,40.7,101.1,40.7,101.1,40.7c0.1-0.1,0.1-0.1,0.2-0.1
		c-0.1,0.1-0.2,0.2-0.3,0.2C101,40.8,101,40.8,101.1,40.7 M106.1,48.6c-1.8,0.5-3.5,1-5.3,1.2c-1.9,0.2-3.8,0.4-5.8,0.4
		c-0.8,0-1.6-0.1-2.4-0.2c0.6-0.1,1.2-0.1,1.7-0.2c2.5-0.4,4.7-1.2,7-2.1c0.2-0.1,0.3-0.1,0.5-0.2c0,0,0,0,0.1,0c0,0,0,0,0,0
		c0.4-0.2,0.8-0.4,1.1-0.6c0.9-0.6,1.6-1.4,2.4-2.2c0,0,0.1-0.1,0.1-0.1c-0.9,0.5-2,0.8-3,0.9c-0.4,0.1-0.8,0.2-1.3,0.3
		c-0.2,0-0.3,0.1-0.5,0.1c-0.6,0-1.2,0-1.7,0c-1.9-0.1-3.9-0.6-5.8-0.7c-0.3,0-0.6,0-0.9-0.1c1.8-0.4,3.5-0.9,5.1-1.5
		c1.8-0.7,4.9-3.5,4.9-3.5c0,0,0,0-0.1,0c0.1-0.1,0.1-0.1,0.2-0.2c0,0,0-0.1,0-0.1c-0.6,0.2-1.2,0.4-1.8,0.5
		c-1.2,0.3-2.6,0.3-3.9,0.2c-2.1-0.1-4.1-0.2-6.1,0c-0.9,0.1-1.8,0.2-2.7,0.4c0.8-0.8,1.7-1.4,2.6-2c1.4-0.9,2.8-1.9,4.3-2.7
		c1.8-0.9,3.8-1.5,5.8-2c1.2-0.3,2.8-0.1,3.6-1.2c0.2-0.2-0.2-0.5-0.3-0.3c-0.5,0.6-1.2,0.7-1.9,0.8c-0.7,0.1-1.4,0.2-2.1,0.4
		c-1.9,0.5-3.8,1.1-5.6,2.1c-1.3,0.8-2.6,1.7-3.9,2.6C89.3,39.2,88,40,87.4,41c-1.1,0.2-2.2,0.5-3.3,0.9c-0.6,0.2-1.2,0.5-1.8,0.7
		c0.1,0.1,0.1,0.2,0.2,0.3c0.9-0.4,1.7-0.7,2.6-1c0.7-0.2,1.3-0.3,2-0.5c0,0,0,0,0,0.1c0,0,0,0.1,0.1,0.1c0-0.1,0.1-0.1,0.1-0.2
		c0.3-0.1,0.5-0.1,0.8-0.1c0.5-0.1,1-0.2,1.6-0.2c0.5,0,0.9,0,1.4,0c0.1,0,0.2,0,0.3,0c2-0.1,3.9,0,5.9,0.1c0.4,0,0.9,0,1.4,0
		c-0.6,0.2-1.3,0.3-1.9,0.4c-1.7,0.3-3.4,0.5-5.2,0.6c-2.8,0.2-6,0.5-8.6,1.9c0.1,0.2,0.1,0.4,0.2,0.6c0.4-0.2,0.7-0.3,1.1-0.5
		c1.9-0.7,4-1,6-1.3c2.8-0.4,5.8-0.5,8.5-1.2c0.3-0.1,0.6-0.1,0.8-0.2c-0.7,0.4-1.4,0.7-2.2,1c-1.4,0.5-2.9,0.9-4.4,1.3
		c-1.4,0.4-2.9,0.7-4.4,0.9c-1.6,0.3-3.2,0.3-4.8,0.6c0,0,0,0.1,0,0.1c1.5,0.1,3.1-0.1,4.6-0.3c1.6-0.2,3.1-0.5,4.6-0.9
		c1.5-0.4,3-0.8,4.5-1.3c0.4-0.1,0.8-0.3,1.1-0.4c-0.7,0.4-1.5,0.7-2.3,1c-2,0.8-4.2,1.2-6.4,1.6c-0.4,0.1-0.9,0.1-1.3,0.2
		c-0.3,0-0.6,0-0.9,0.1c-1.2,0.1-2.5,0.2-3.7,0.6c-0.1,0-0.3,0-0.4,0.1c-0.1,0-0.2,0-0.2,0c0.1,0.2,0.1,0.4,0.1,0.6
		c0.4-0.1,0.8-0.1,1.2-0.2c0.5-0.1,1-0.1,1.5-0.2c0.1,0,0.2,0,0.3,0c1.4,0,2.7,0.1,4.1,0.2c1.5,0.1,3.1,0.3,4.6,0.5
		c-0.8,0.1-1.6,0.1-2.4,0.1c-2.7,0.1-5.4-0.1-8.1,0c-0.3,0-0.7,0-1,0c0,0.2,0.1,0.5,0.1,0.7c0.7,0,1.4,0,2.1,0c2.7,0,5.4,0.1,8.1,0
		c1.6-0.1,3.2-0.3,4.7-0.6c0.3,0,0.5-0.1,0.8-0.1c-1.1,0.4-2.1,0.8-3.2,1.1c-2,0.5-4.1,0.6-6.3,0.5c-2-0.1-4-0.2-5.9,0
		c0,0.2,0,0.4,0.1,0.6c0,0,0.1,0,0.1,0c2.2-0.2,4.4,0,6.6,0.1c2.1,0.1,4-0.1,5.9-0.6c1.9-0.5,3.8-1.2,5.5-2c0,0,0,0,0.1-0.1
		c0.4-0.1,0.8-0.3,1.2-0.5c-0.2,0.2-0.5,0.4-0.7,0.6c-0.1,0.1-0.2,0.1-0.3,0.2c-0.3,0.1-0.7,0.3-1,0.4c-2.6,1-5.1,1.9-8,2.3
		c-1.5,0.2-3,0.3-4.5,0.3c-0.2,0-0.4,0-0.7,0c-0.3,0-0.6,0-0.9-0.1c-0.9-0.1-1.7-0.2-2.6-0.2c-0.3,0-0.6,0-0.9,0c0,0.2,0,0.4,0,0.6
		c0.6,0,1.1,0,1.7,0.1c1.4,0.1,2.8,0.3,4.2,0.2c0.4,0,0.7,0,1.1,0c1.3,0.2,2.5,0.3,3.8,0.4c1.9,0,3.9-0.1,5.8-0.3
		c0.9-0.1,1.9-0.2,2.8-0.4c0.6-0.1,1.2-0.3,1.7-0.5c-0.8,0.4-1.6,0.8-2.5,1c-0.9,0.3-1.9,0.5-2.9,0.7c-2.3,0.4-4.6,0.1-6.9-0.1
		c-1.7-0.2-3.4-0.4-5.1-0.3c-1.2,0.1-2.6,0.3-3.7,0.9c0,0.1,0,0.2,0,0.2c3-1.6,6.6-0.9,9.7-0.5c2.2,0.3,4.3,0.4,6.5-0.1
		c0.8-0.2,1.8-0.3,2.7-0.6c-2.4,1.3-5,2-7.8,1.9c-2.2-0.1-4.3-0.5-6.5-0.7c-1.5-0.2-3.1-0.1-4.7,0.2c0,0.2,0,0.4,0,0.5
		c0.2,0,0.4-0.1,0.6-0.1c1.4,0,2.9-0.1,4.3,0c0.5,0,1,0.1,1.5,0.2c0,0-0.1,0-0.1,0c-0.1,0-0.1,0.1,0,0.1c0.8-0.2,1.5,0.3,2.3,0.4
		c0.1,0,0.1-0.1,0-0.1c0,0,0,0,0,0c0.7,0.1,1.4,0.3,2,0.4c3.2,0.6,6.4,0.6,9.5-0.3c-0.2,0.1-0.3,0.3-0.5,0.4
		c-0.5,0.3-1.1,0.5-1.7,0.7c0,0,0,0-0.1,0c-0.4,0.1-0.7,0.2-1.1,0.3c-2.1,0.4-4.3,0.3-6.5,0.1c-3.5-0.4-7.3-1-10.6,0.6
		c0,0.1,0,0.2,0,0.2c0,0.1,0,0.1,0,0.2c3.5-1.8,7.6-1,11.4-0.6c1.2,0.1,2.4,0.2,3.6,0.1c-0.3,0.1-0.7,0.1-1,0.2
		c-1.6,0.3-3.2,0.3-4.8,0.6c0,0,0,0.1,0,0.1c0.3,0,0.6,0,0.8,0c-0.3,0.1-0.6,0.1-0.9,0.2c-0.1,0,0,0.1,0,0.1c3.6-0.7,8,0,11.1-2.5
		c0.6-0.3,1.1-0.7,1.7-1.1c0.1-0.1,0-0.4-0.1-0.3c-3.6,1.2-7.2,1.3-10.9,0.6c-0.4-0.1-0.7-0.1-1-0.2c0.7,0.1,1.4,0.1,2.1,0.1
		c3.9,0,7.4-1.7,10.6-4C106.4,48.8,106.3,48.6,106.1,48.6"/>
	<path class="st0" d="M44.6,27.9c0.1-0.1,0.3-0.2,0.4-0.2c-0.5-0.6-1.1-1.2-1.7-1.8c-0.2-0.2-0.4-0.4-0.7-0.6
		c0.5,0.8,1.1,1.7,1.7,2.4C44.5,27.7,44.5,27.8,44.6,27.9"/>
	<path class="st0" d="M39,22.7c0.1,0.1,0.1,0.2,0.2,0.3c0.4,0.3,0.8,0.7,1.3,1c-0.1-0.2-0.2-0.4-0.3-0.6c0-0.1-0.1-0.2-0.1-0.3
		c-0.5-0.4-0.9-0.7-1.4-1C38.8,22.2,38.9,22.4,39,22.7"/>
	<path class="st0" d="M42.3,14.1c0.2,0.6,0.4,1.3,0.5,1.9c0.5,1.9,1,3.7,1.5,5.5c0.2,0.6,0.3,1.1,0.5,1.6c-0.5-0.9-0.9-1.8-1.4-2.6
		c-0.4-1.2-0.7-2.4-1-3.6c-0.3-1.5-0.6-3.1-1-4.5C41.7,12.9,42,13.5,42.3,14.1 M35.8,12.1C35.8,12.1,35.7,12.1,35.8,12.1
		c-0.1-0.1-0.1-0.1-0.2-0.2c0.1,0.1,0.2,0.2,0.3,0.2C35.9,12.2,35.8,12.2,35.8,12.1 M48.3,13.9c0.7,2.2,1.1,4.4,1.7,6.6
		c0.4,1.6,1,3.1,1.8,4.5c0.2-0.1,0.3-0.1,0.5-0.2c-0.1-0.2-0.2-0.4-0.3-0.5c-0.5-1.4-1.1-2.8-1.5-4.3c-0.2-0.5-0.3-1-0.4-1.6
		c0,0,0,0,0,0.1c0,0.1,0.1,0,0.1-0.1c-0.3-0.5-0.3-1.1-0.4-1.7c-0.1-0.3-0.1-0.5-0.2-0.8c0,0,0,0,0,0c0,0,0,0,0,0c0-0.1,0-0.2,0-0.3
		c0-0.2-0.1-0.3-0.1-0.5c-0.2-0.4-0.3-0.9-0.5-1.3c0,0.1,0,0.2,0,0.2c0.1,0.4,0.1,0.7,0.2,1.1c-0.2-0.7-0.4-1.4-0.6-2.1
		c-1.4-3.9-4.1-6.7-7.3-9C41,4.1,40.8,4.3,41,4.4C42,6,43.1,7.5,43.9,9.3c0.9,1.8,1.7,3.6,2.4,5.5c0.3,0.8,0.5,1.6,0.7,2.4
		c-0.3-0.6-0.5-1.1-0.8-1.6c-1.2-2.3-2.7-4.3-4.3-6.2c-0.1-0.1-0.2-0.3-0.3-0.4c0,0,0,0,0,0c0,0,0,0,0,0c-0.3-0.3-0.6-0.6-0.9-0.8
		c-0.9-0.6-1.8-1-2.8-1.6c0,0-0.1,0-0.1,0c0.8,0.8,1.4,1.7,1.8,2.7c0.3,0.4,0.5,0.8,0.7,1.1c0.1,0.2,0.2,0.3,0.3,0.5
		c0.2,0.6,0.4,1.1,0.6,1.7c0.6,2,0.8,4,1.4,6c0.1,0.3,0.2,0.6,0.3,1c-1-1.6-2-3.1-3.2-4.5c-1.3-1.5-4.8-3.6-4.8-3.6c0,0,0,0,0.1,0
		c-0.1,0-0.1-0.1-0.2-0.1c0,0-0.1,0-0.1,0c0.4,0.5,0.8,1,1.1,1.6c0.7,1.1,1.2,2.4,1.6,3.8c0.6,2.1,1.3,4.1,2.1,6.1
		c0.4,0.9,0.8,1.7,1.3,2.5c0,0-0.1,0-0.1-0.1c0,0,0.1,0.1,0.1,0.1c0.1,0.1,0.1,0.1,0.2,0.2c0,0,0,0,0,0c0,0.1,0.1,0.1,0.1,0.2
		c0.8,1,1.6,1.9,2.4,2.9c0,0,0,0,0,0c-0.3-0.4-0.6-0.7-0.8-1.1c-0.4-0.6-0.8-1.2-1.1-1.8c0,0,0,0,0.1,0c0.1,0,0.1-0.1,0-0.1
		c-0.1,0-0.1,0-0.2-0.1c-0.1-0.2-0.3-0.5-0.4-0.7c-0.3-0.5-0.5-1-0.7-1.5c-0.2-0.5-0.3-0.9-0.5-1.4c-0.1-0.1-0.1-0.2-0.1-0.3
		c-0.8-1.9-1.4-3.9-2-5.9c-0.1-0.4-0.3-0.9-0.5-1.3c0.4,0.6,0.7,1.2,1,1.7c0.9,1.6,1.6,3.2,2.4,4.9c1.1,2.3,2.2,5,3.9,7
		c0.2-0.1,0.4-0.2,0.5-0.3c0,0-0.1-0.1-0.1-0.1c-1.3-1.6-2.3-3.6-3.3-5.5c-1.3-2.6-2.5-5.6-4.1-8c-0.2-0.3-0.3-0.5-0.5-0.7
		c0.6,0.5,1.2,1.2,1.7,1.8c1,1.2,1.8,2.6,2.7,3.9c0.8,1.3,1.6,2.6,2.3,4c0.7,1.4,1.3,2.8,2,4.2c0,0,0.1,0,0.1-0.1
		c-0.4-1.4-1.1-2.8-1.8-4.1c-0.7-1.5-1.5-2.9-2.4-4.3c-0.9-1.4-1.8-2.7-2.7-4c-0.3-0.3-0.5-0.7-0.8-1c0.6,0.6,1.1,1.2,1.7,1.9
		c1.4,1.7,2.6,3.7,3.7,5.8c0.2,0.4,0.4,0.8,0.6,1.2c0.1,0.3,0.2,0.6,0.4,0.9c0.5,1.2,1.1,2.3,1.8,3.4c0.2-0.1,0.4-0.1,0.6-0.2
		c-0.1-0.2-0.2-0.4-0.3-0.7c-0.2-0.5-0.5-0.9-0.7-1.4c0-0.1-0.1-0.2-0.1-0.3c-0.5-1.3-0.9-2.7-1.3-4.1c-0.4-1.6-0.8-3.1-1.2-4.7
		c0.3,0.8,0.7,1.5,1,2.3c1,2.6,1.8,5.4,2.9,8c0.1,0.2,0.2,0.4,0.2,0.6c0.2-0.1,0.4-0.1,0.6-0.1c-0.3-0.6-0.5-1.3-0.7-1.9
		c-1-2.7-1.8-5.4-2.9-8c-0.6-1.6-1.4-3-2.2-4.4c-0.1-0.2-0.2-0.5-0.4-0.7c0.7,0.9,1.4,1.8,2.1,2.8c1.2,1.8,2,3.9,2.7,6.1
		c0.6,2,1.2,4,2.1,5.9c0.2-0.1,0.3-0.2,0.5-0.3c0,0,0-0.1-0.1-0.1c-1-2.1-1.6-4.4-2.3-6.6c-0.7-2.1-1.5-3.9-2.6-5.6
		c-1.1-1.7-2.4-3.3-3.7-4.8c0,0,0,0-0.1-0.1C40,8.7,39.7,8.3,39.4,8c0.3,0.2,0.5,0.3,0.8,0.5c0.1,0.1,0.2,0.1,0.3,0.2
		c0.3,0.3,0.5,0.6,0.7,0.9c1.8,2.2,3.5,4.4,4.9,7.1c0.7,1.4,1.3,2.8,1.8,4.3c0.1,0.2,0.1,0.4,0.2,0.7c0.1,0.3,0.2,0.6,0.3,0.9
		c0.2,0.9,0.5,1.7,0.7,2.6c0.1,0.3,0.2,0.6,0.3,0.9c0.2-0.1,0.3-0.2,0.5-0.2c-0.2-0.6-0.4-1.1-0.5-1.7c-0.4-1.4-0.8-2.9-1.3-4.2
		c-0.1-0.4-0.3-0.7-0.4-1.1c-0.3-1.3-0.6-2.6-1-3.9c-0.7-1.9-1.5-3.8-2.4-5.6c-0.4-0.9-0.8-1.8-1.4-2.6c-0.3-0.5-0.7-1-1-1.5
		c0.7,0.7,1.3,1.3,1.8,2.1c0.6,0.8,1.1,1.7,1.6,2.6c1.2,2.1,1.8,4.5,2.3,6.9c0.4,1.8,0.9,3.5,1.6,5.1c0.5,1.2,1.2,2.4,2.2,3.3
		c0.1,0,0.1-0.1,0.2-0.1c-2.4-2.4-3.1-6.2-3.9-9.4c-0.5-2.3-1.2-4.4-2.4-6.4c-0.5-0.8-0.9-1.6-1.5-2.4C45.8,8.7,47.4,11,48.3,13.9"
		/>
	<path class="st0" d="M60.5,83.7c0,0.8,0,1.6,0,2.4c0.1-0.3,0.1-0.6,0.2-0.9c0.1-0.5,0.2-1.1,0.2-1.6C60.8,83.7,60.6,83.7,60.5,83.7
		"/>
	<path class="st0" d="M65,93.1c-0.5-1.2-0.9-2.3-1.2-3.6c-0.1-1-0.2-2-0.3-3c0.2,0.5,0.3,1.1,0.5,1.6c0.6,1.8,1.2,3.6,1.9,5.4
		c0.2,0.6,0.4,1.2,0.6,1.9c0.1,0.7,0.2,1.3,0.2,2C66.2,95.9,65.5,94.5,65,93.1 M62.2,101.3c0-0.1,0-0.1,0-0.2c0,0,0,0,0,0
		c0-0.1,0.1-0.1,0.1-0.2C62.3,101,62.2,101.1,62.2,101.3 M72.1,96.8c0,1.2-0.1,2.3-0.4,3.5c0-1-0.1-2-0.2-2.9c0-0.6-0.1-1.1-0.2-1.6
		c-0.1-0.2-0.3-0.4-0.4-0.6c0.1,0.6,0.2,1.2,0.3,1.8c0.1,1,0.2,2.1,0.2,3.1c0,1-0.1,1.9-0.3,2.8c0-0.6,0-1.3,0-1.9c0-1-0.2-2-0.4-3
		c-0.3-1.7-0.6-3.4-1-5.1c-0.3-0.6-0.6-1.2-0.8-1.9c-0.6-1.4-1.1-3-1.5-4.5c-0.5-1.4-1-2.8-1.2-4.3c-0.1,0.1-0.3,0.1-0.4,0.2
		c0.3,0.8,0.6,1.6,0.8,2.4c0.1,0.3,0.2,0.6,0.3,0.9c0.1,0.2,0.1,0.5,0.2,0.7c0.4,1.5,0.7,3.1,1,4.6c0.4,3,0.3,5.9,0,8.8
		c0,0.4-0.1,0.8-0.1,1.2c0,0.1-0.1,0.2-0.1,0.3c-0.1,0.3-0.2,0.6-0.4,0.9c0.1-0.5,0.1-0.9,0.1-1.4c0-0.1,0-0.1,0-0.1
		c0.3-2,0.4-4.1,0.3-6.2c0-2.1-0.4-4.1-1-6.1c-0.5-1.9-1.2-3.8-1.6-5.7c-0.2,0.1-0.3,0.1-0.5,0.2c0.4,1.6,0.9,3.2,1.4,4.8
		c0.7,2.2,1.2,4.4,1.3,6.6c0,1.2-0.1,2.4-0.1,3.6c0-0.3-0.1-0.5-0.1-0.8c-0.1-1.6-0.3-3.3-0.7-4.9c-0.6-2.8-1.4-5.5-2.1-8.2
		c-0.1-0.3-0.1-0.6-0.2-0.8C64,82.9,63.8,83,63.6,83c0,0,0,0,0,0c0.6,2.6,1.4,5.3,2.1,7.9c0.2,0.8,0.4,1.7,0.5,2.5
		c-0.6-1.5-1.1-3-1.6-4.6c-0.5-1.3-0.9-2.7-1.3-4.1c0-0.1,0-0.2-0.1-0.3c-0.1-0.4-0.1-0.9-0.2-1.3c-0.2,0.1-0.5,0.1-0.7,0.2
		c0.1,1,0.2,2,0.4,3c0.1,0.3,0.1,0.7,0.2,1c0.1,0.5,0.1,0.9,0.2,1.4c0.2,2.3,0.4,4.7,0.3,7c-0.1,0.9-0.2,1.7-0.3,2.6
		c0.1-0.4,0.1-0.8,0.1-1.3c0.1-1.6,0-3.3,0-4.9c-0.1-1.7-0.2-3.3-0.4-5c-0.2-1.2-0.3-2.4-0.6-3.6c-0.1,0-0.2,0-0.2,0.1
		c0.2,1.3,0.4,2.6,0.6,3.8c0.2,1.6,0.3,3.1,0.3,4.7c0.1,1.6,0.1,3.2,0,4.8c0,0.9-0.1,1.7-0.3,2.5c0-0.3,0-0.6,0-0.9
		c0-2.9-0.7-6.1-1.1-9c-0.3-1.9-0.5-3.9-0.4-5.8c-0.2,0-0.4,0.1-0.6,0.1c-0.1,2.4,0.4,4.9,0.8,7.1c0.3,1.8,0.7,3.6,0.8,5.4
		c0.1,0.6,0.1,1.3,0.2,2c-0.1-0.5-0.2-0.9-0.4-1.4c-0.5-1.8-1.1-3.6-1.5-5.4c0-0.5,0-1.1,0.1-1.6c0-0.8,0.1-1.5,0-2.3
		c-0.1-1.2-0.2-2.7-0.8-3.6c-0.1-0.2-0.4,0-0.3,0.2c0.7,1.1,0.8,2.6,0.8,3.9c0,0.9-0.1,1.9-0.1,2.9c-0.1,0.3-0.1,0.5-0.2,0.8
		c0.4,1.5,0.8,3,1.3,4.5c0.4,1.4,0.8,2.7,0.8,4.1c0.1,0.4,0.1,0.9,0.1,1.3c0,0,0,0,0,0c0.1,0.1,0.2,0.1,0.3,0c0.4-1,1.6-3.9,1.7-5.5
		c0.2-1.8,0.2-3.7,0-5.6c0.1,0.3,0.2,0.6,0.3,1c0.6,1.9,1.6,3.8,2.2,5.7c0.2,0.5,0.3,1.1,0.4,1.7c0,0.1,0,0.1,0,0.2
		c0.1,0.6,0.2,1.3,0.1,2c0,0.1,0,0.1,0,0.2c0,0.3,0.1,0.6,0.1,1c0.1,0.2,0.3,0.4,0.6,0.2c0,0,0.1,0,0.1-0.1c0.2-0.5,0.4-0.9,0.6-1.4
		c0.1-0.4,0.2-0.8,0.3-1.3c0,0,0,0,0,0c0,0,0,0,0-0.1c0-0.2,0-0.4,0-0.5c0.2-2.5,0.4-5,0-7.7c-0.1-0.6-0.2-1.2-0.3-1.8
		c0.3,0.8,0.6,1.6,0.8,2.4c0.5,2,0.9,4,1.2,6c0.3,1.9,0.3,3.8,0.3,5.7c0,0.2,0.3,0.2,0.3,0.1c0.8-2.2,1.3-4.5,1.4-6.8
		C72.3,97.1,72.2,97,72.1,96.8"/>
	<path class="st0" d="M89.3,52.6c-0.7,0-1.5,0-2.2,0.1c0,0,0,0.1,0,0.1c0.7,0,1.5,0,2.2-0.1C89.4,52.7,89.4,52.6,89.3,52.6"/>
	<path class="st0" d="M41.8,28.8c-0.4-1.7-1.2-3.2-2-4.7c-0.5-0.8-1-1.6-1.6-2.3c-0.6-0.7-1.1-1.5-1.8-2.2c0,0-0.1,0-0.1,0
		c0.9,1.4,2,2.6,2.9,4c1,1.6,1.8,3.3,2.3,5.2C41.6,29,41.8,28.9,41.8,28.8"/>
	<path class="st0" d="M36.8,30c0,0.1,0,0.1,0.1,0.2c0,0,0,0,0,0c0.2,0.6,0.4,1.2,0.7,1.8c0.1,0.3,0.3,0.6,0.4,1
		c0.1,0.1,0.1,0.3,0.2,0.5c0.1-0.1,0.2-0.2,0.2-0.3c0-0.1-0.1-0.1-0.1-0.2c-0.1-0.1-0.2-0.3-0.2-0.4c-0.2-0.5-0.4-1-0.6-1.5
		c0,0,0,0.1,0.1,0.1c0,0.1,0.1,0,0.1-0.1c-0.1-0.5-0.4-0.9-0.6-1.3c0.2,0.3,0.4,0.5,0.6,0.8c0.4,0.7,0.8,1.4,1.2,2.1
		c0.1-0.1,0.2-0.2,0.3-0.3c-2.1-3.9-5.1-7.3-8.5-10C28.9,21,27,20,25.2,18.7c-1.6-1.2-3.2-2.6-3.6-4.7c0-0.1-0.1-0.1-0.1,0
		c0.2,2,1.7,3.5,3.2,4.7c1.6,1.2,3.3,2.1,4.8,3.3c1.7,1.3,3.2,2.7,4.6,4.3c0.3,0.3,0.6,0.7,0.8,1c0.4,0.6,0.9,1.1,1.3,1.7
		C36.4,29.4,36.6,29.7,36.8,30"/>
	<path class="st0" d="M35.6,19.2c-0.2-0.5-0.7-0.9-1-1.3c-0.4-0.4-0.9-0.8-1.4-0.9c0,0-0.1,0,0,0.1c0.5,0.3,0.9,0.6,1.3,1
		C34.8,18.5,35.1,18.9,35.6,19.2C35.5,19.3,35.6,19.3,35.6,19.2"/>
	<path class="st0" d="M71.9,21.4c-0.2,0-0.2,0.4,0,0.4C72.1,21.8,72.1,21.4,71.9,21.4"/>
</g>
</svg>
