<?xml version="1.0" standalone="no"?>
<!DOCTYPE svg PUBLIC "-//W3C//DTD SVG 1.1//EN" "http://www.w3.org/Graphics/SVG/1.1/DTD/svg11.dtd" >
<svg xmlns="http://www.w3.org/2000/svg">
<metadata>
Created by FontPrep 20130207 at Mon Oct 17 10:23:04 2016
 By Carl Calderon
(c) 1999-2014 Typodermic Fonts Inc. See attached license agreement. If agreement is missing visit typodermicfonts.com for more info.
</metadata>
<defs>
<font id="f9b8b4d6bdc693e5fee184cc0f03617c" horiz-adv-x='1024' >
  <font-face 
    font-family="PrimerPrint-Bold"
    font-weight="700"
    font-stretch="normal"
    units-per-em="2048"
    panose-1="2 15 8 3 2 2 2 6 11 2"
    ascent="1434"
    descent="-614"
    x-height="821"
    cap-height="1382"
    bbox="-188 -621 2050 1837"
    underline-thickness="40"
    underline-position="-252"
    unicode-range="U+0017-E0A1"
  />
<missing-glyph horiz-adv-x="1300" 
d="M518 98q0 -45 27.5 -75.5t68.5 -30.5t70 30.5t29 75.5t-29 76t-70 31t-68.5 -31t-27.5 -76zM614 1403q-123 0 -217 -72q-12 -10 -29.5 -24.5t-43 -39t-25.5 -54.5t16.5 -44t38.5 -14t46 31q26 31 80.5 70.5t133.5 39.5q135 0 203 -60t68 -165q-1 -119 -67 -193
q-38 -42 -92.5 -91.5t-76.5 -75.5q-86 -109 -86 -281q0 -55 52 -55q53 -1 53 65q1 126 65 213q25 33 68 69t87 80q100 100 99 264q0 164 -93 250.5t-280 86.5zM1198 -92q0 -154 -178 -154h-744q-176 0 -176 154v1548q0 156 176 156h744q178 0 178 -156v-1548z" />
    <glyph glyph-name=".notdef" horiz-adv-x="1300" 
d="M518 98q0 -45 27.5 -75.5t68.5 -30.5t70 30.5t29 75.5t-29 76t-70 31t-68.5 -31t-27.5 -76zM614 1403q-123 0 -217 -72q-12 -10 -29.5 -24.5t-43 -39t-25.5 -54.5t16.5 -44t38.5 -14t46 31q26 31 80.5 70.5t133.5 39.5q135 0 203 -60t68 -165q-1 -119 -67 -193
q-38 -42 -92.5 -91.5t-76.5 -75.5q-86 -109 -86 -281q0 -55 52 -55q53 -1 53 65q1 126 65 213q25 33 68 69t87 80q100 100 99 264q0 164 -93 250.5t-280 86.5zM1198 -92q0 -154 -178 -154h-744q-176 0 -176 154v1548q0 156 176 156h744q178 0 178 -156v-1548z" />
    <glyph glyph-name=".null" horiz-adv-x="0" 
 />
    <glyph glyph-name="nonmarkingreturn" horiz-adv-x="495" 
 />
    <glyph glyph-name="uni0017" horiz-adv-x="495" 
 />
    <glyph glyph-name="space" unicode=" " horiz-adv-x="495" 
 />
    <glyph glyph-name="exclam" unicode="!" horiz-adv-x="540" 
d="M139 136q0 60 38 103.5t91.5 43.5t93 -43.5t39.5 -103.5t-39.5 -102t-93 -42t-91.5 42t-38 102zM356 453q0 -96 -88 -96.5t-88 96.5v827q0 102 88 102t88 -102v-827z" />
    <glyph glyph-name="quotedbl" unicode="&#x22;" horiz-adv-x="659" 
d="M289 971q0 -100 -88 -101q-88 0 -88 101v307q0 104 88 104t88 -104v-307zM567 971q0 -100 -88 -101q-88 0 -88 101v307q0 104 88 104t88 -104v-307z" />
    <glyph glyph-name="numbersign" unicode="#" horiz-adv-x="1234" 
d="M764 532v332h-295v-332h295zM1153 438q0 -94 -90 -94h-125v-246q0 -98 -87 -98t-87 98v246h-295v-248q0 -96 -86 -96t-86 96v248h-129q-86 0 -86 94t86 94h129v332h-129q-86 0 -86 94.5t86 94.5h129v229q0 100 86 100t86 -100v-229h295v227q0 102 87 102t87 -102v-227
h125q90 0 90 -94.5t-90 -94.5h-125v-332h125q90 0 90 -94z" />
    <glyph glyph-name="dollar" unicode="$" horiz-adv-x="950" 
d="M340 1070q0 -82 82 -150v266q-82 -34 -82 -116zM569 209q105 51 105 172q0 120 -105 203v-375zM784 1128q0 -32 -25.5 -55.5t-65.5 -23.5t-66 55q-23 41 -58 67v-358q127 -87 177 -148q102 -122 102 -272t-75.5 -252.5t-203.5 -132.5v-61q0 -82 -73.5 -82t-73.5 82v55
q-123 20 -223 119q-97 105 -97 194q0 41 27 67t55 26q62 0 82 -62q55 -126 156 -153v495q-116 85 -187 173t-71 204q0 115 71.5 202t186.5 107v58q0 80 73.5 79.5t73.5 -79.5v-64q61 -18 138 -78.5t77 -161.5z" />
    <glyph glyph-name="percent" unicode="%" horiz-adv-x="1226" 
d="M279 1123q0 -38 27.5 -63.5t67.5 -25.5t67.5 25.5t27.5 63.5t-27.5 64.5t-67.5 26.5t-67.5 -26.5t-27.5 -64.5zM182 1319.5q80 81.5 192 81.5q113 0 192 -81.5t79 -195.5t-79.5 -196t-191.5 -82q-113 0 -192.5 82t-79.5 196t80 195.5zM253 0q-42 0 -68.5 30.5t-26.5 60.5
t16 59l688 1181q27 51 70 51t69.5 -28.5t26.5 -62.5t-14 -56l-690 -1186q-29 -49 -71 -49zM758 257q0 -38 27.5 -63.5t67.5 -25.5t67.5 25.5t27.5 63.5t-27.5 64.5t-67.5 26.5t-67.5 -26.5t-27.5 -64.5zM660.5 453q78.5 82 192.5 82t192.5 -82t78.5 -196q0 -115 -79 -196
t-192 -81t-192 81t-79 196q0 114 78.5 196z" />
    <glyph glyph-name="ampersand" unicode="&#x26;" horiz-adv-x="1169" 
d="M549 1210q-88 0 -88 -92q0 -84 63 -190q61 53 92 95t31 88t-25.5 72.5t-72.5 26.5zM262 358q0 -80 53.5 -134t157.5 -54t227 174q-139 207 -219 330l-65 -51q-154 -123 -154 -265zM285 1118q0 283 199.5 283t266 -77.5t66.5 -189.5t-52 -193t-144 -159l184 -274
q54 87 79 158t48.5 87.5t54.5 16.5t57.5 -25.5t26.5 -62.5q0 -100 -156 -340q33 -49 65 -96t57 -85t25 -73t-28 -61.5t-67 -26.5t-66 43l-96 141q-125 -164 -207 -184t-146 -20t-134 25.5t-150 101.5t-80 251q0 111 59.5 214.5t159.5 183.5l80 63q-102 169 -102 299z" />
    <glyph glyph-name="quotesingle" unicode="'" horiz-adv-x="380" 
d="M279 971q0 -100 -88.5 -100.5t-88.5 100.5v307q0 104 88.5 104t88.5 -104v-307z" />
    <glyph glyph-name="parenleft" unicode="(" horiz-adv-x="673" 
d="M541 1516q76 0 75 -86q0 -45 -24 -76q-197 -233 -197 -688t197 -684q25 -31 24 -76q0 -86 -75 -86q-37 0 -63.5 22.5t-55.5 59.5q-203 275 -203 766t203 766q29 37 55.5 59.5t63.5 22.5z" />
    <glyph glyph-name="parenright" unicode=")" horiz-adv-x="673" 
d="M133 -180q-76 0 -76 86q0 45 25 76q197 233 197 686t-197 686q-25 31 -25 76q0 86 76 86q37 0 63.5 -23t55.5 -59q203 -275 203 -766t-203 -766q-29 -37 -55.5 -59.5t-63.5 -22.5z" />
    <glyph glyph-name="asterisk" unicode="*" horiz-adv-x="948" 
d="M750 1014q33 0 56 -28t23 -68t-38 -78l-177 -158l183 -162q27 -26 27 -64t-26 -71t-59 -33t-59 23l-119 104v-243q0 -94 -88 -95q-84 0 -84 95v247l-121 -106q-28 -23 -60 -23t-60.5 31t-28.5 68t33 67l182 160l-180 162q-31 27 -31 65.5t26.5 69.5t59.5 31t59 -23
l121 -108v233q0 98 86 98t86 -98v-231l121 106q35 29 68 29z" />
    <glyph glyph-name="plus" unicode="+" horiz-adv-x="1079" 
d="M451 782v217q0 94 90 95q88 0 88 -95v-217h223q88 0 88 -94t-88 -94h-223v-219q0 -94 -89 -94t-89 94v219h-224q-88 0 -88 94t88 94h224z" />
    <glyph glyph-name="comma" unicode="," horiz-adv-x="462" 
d="M160 -135q-58 1 -58 57q0 24 17.5 41t17.5 41q0 34 -17.5 78t-17.5 101t36 94.5t92 37.5t93 -42.5t37 -104.5q0 -122 -60.5 -212.5t-139.5 -90.5z" />
    <glyph glyph-name="hyphen" unicode="-" horiz-adv-x="704" 
d="M569 782q88 0 88 -94t-88 -94h-434q-88 0 -88 94t88 94h434z" />
    <glyph glyph-name="period" unicode="." horiz-adv-x="466" 
d="M102 136q0 60 39 103.5t92.5 43.5t92.5 -43.5t39 -103.5t-39 -102t-92.5 -42t-92.5 42t-39 102z" />
    <glyph glyph-name="slash" unicode="/" horiz-adv-x="903" 
d="M110 0q-40 0 -67 30.5t-27 61.5t15 53l690 1186q27 51 70 51t69.5 -28.5t26.5 -57.5t-17 -61l-688 -1186q-32 -49 -72 -49z" />
    <glyph glyph-name="zero" unicode="0" horiz-adv-x="1234" 
d="M857 324q89 152 89 367t-89 367t-239.5 152t-239.5 -152t-89 -367t89 -367t239.5 -152t239.5 152zM1122 691q0 -138 -36.5 -266t-103.5 -227.5t-160 -158.5t-205.5 -59t-205 59t-195.5 213t-103 440q0 285 103 437.5t195.5 212t205 59.5t205.5 -59.5t160 -158
t103.5 -226.5t36.5 -266z" />
    <glyph glyph-name="one" unicode="1" horiz-adv-x="454" 
d="M315 96q0 -96 -88 -96t-88 96v1186q0 100 88 100t88 -100v-1186z" />
    <glyph glyph-name="two" unicode="2" horiz-adv-x="880" 
d="M721 190q86 0 86 -95t-86 -95h-496q-59 0 -83.5 29.5t-24.5 71.5t16 67l389 674q62 106 62 194t-40 131t-102 43q-126 0 -163 -139q-20 -82 -89 -82q-37 0 -61.5 25.5t-24.5 84.5t46 136q97 166 288 166q148 0 238 -90t90 -247t-94 -321l-322 -553h371z" />
    <glyph glyph-name="three" unicode="3" horiz-adv-x="950" 
d="M403 725q0 72 89 72q106 0 148 45.5t42 157.5t-54.5 161t-119.5 49q-110 0 -146.5 -48t-54.5 -146q-19 -80 -86 -80q-43 0 -67.5 29.5t-24.5 78.5t24.5 113t68.5 118t115 90t155 36q163 0 262.5 -110.5t99.5 -292.5q0 -183 -137 -285q78 -47 111.5 -135.5t33.5 -179.5
q0 -184 -99.5 -301t-279.5 -117q-222 0 -327 174q-57 94 -58 219q0 96 86 96q41 0 65.5 -24.5t24.5 -71.5q0 -86 52.5 -143.5t153.5 -57.5t154.5 61t53.5 171t-44 157t-148 47q-53 0 -73 22.5t-20 94.5z" />
    <glyph glyph-name="four" unicode="4" horiz-adv-x="1030" 
d="M952 684q0 -96 -84 -96h-6v-490q0 -98 -86 -98t-86 98v490h-469q-98 0 -98 112v580q0 102 88 102t88 -102v-500h391v500q0 102 86 102t86 -102v-500h6q84 0 84 -96z" />
    <glyph glyph-name="five" unicode="5" horiz-adv-x="1019" 
d="M518 899q210 0 308 -128.5t98 -327.5t-116 -331t-296 -132q-214 0 -334 172q-55 81 -55 163q0 88 88 88q61 0 78 -58t49 -98q33 -40 70.5 -57.5t95.5 -17.5q106 0 176 72.5t70 199.5t-63 194t-157 67t-144 -34t-99 -87q-33 -33 -70 -33t-64.5 31.5t-27.5 79.5v626
q0 94 84 94h596q90 0 90 -96t-90 -96h-504v-369q102 78 217 78z" />
    <glyph glyph-name="six" unicode="6" horiz-adv-x="993" 
d="M721 412q-1 229 -247 229q-80 0 -137.5 -59.5t-57.5 -145.5q0 -135 58 -199.5t163 -64.5t163 68t58 172zM786 108q-111 -128 -289 -128q-179 0 -287 114t-108 331q0 216 138 490t333 441q29 26 68 26t63.5 -26.5t24.5 -68.5t-29 -70q-210 -210 -327 -420q63 37 150 37
t158 -34t143.5 -119.5t72.5 -264.5q0 -180 -111 -308z" />
    <glyph glyph-name="seven" unicode="7" horiz-adv-x="1054" 
d="M164.5 25.5q-27.5 25.5 -27.5 62.5t13 55l591 1047h-514q-92 0 -92 96t92 96h629q61 0 88 -34.5t27 -70.5t-13 -56l-655 -1174q-26 -47 -83 -47q-28 0 -55.5 25.5z" />
    <glyph glyph-name="eight" unicode="8" horiz-adv-x="917" 
d="M639 358q0 76 -42 142.5t-142 152.5q-96 -117 -136 -185t-40 -138t50 -113t131 -43t130 54t49 130zM443 1210q-44 0 -73.5 -40t-29.5 -106t86 -153l156 209q-29 51 -62 70.5t-77 19.5zM815 394q0 -191 -98.5 -302.5t-257.5 -111.5t-258 101t-99 247q0 193 217 440
q-155 156 -155 303t81 238.5t212 91.5q179 0 266 -174q39 -85 39 -124q0 -38 -29 -77l-170 -229q131 -111 191.5 -208t60.5 -195z" />
    <glyph glyph-name="nine" unicode="9" horiz-adv-x="972" 
d="M623.5 1150.5q-56.5 59.5 -145.5 59.5t-149.5 -63.5t-60.5 -151.5q0 -89 60 -151t145 -62t146 63t61 155q0 91 -56.5 150.5zM850 98q0 -98 -88 -98t-88 98v568q-84 -72 -184 -72q-179 0 -288.5 119.5t-109.5 280.5t112 284t271 123q160 0 267.5 -113t107.5 -295v-895z
" />
    <glyph glyph-name="colon" unicode=":" horiz-adv-x="540" 
d="M139 194q0 60 38 103t91.5 43t93 -43t39.5 -103t-39.5 -102.5t-93 -42.5t-91.5 42.5t-38 102.5zM139 691q0 60 38 103.5t91.5 43.5t93 -43t39.5 -103t-39.5 -102.5t-93 -42.5t-91.5 42t-38 102z" />
    <glyph glyph-name="semicolon" unicode=";" horiz-adv-x="540" 
d="M199 -78q-58 0 -58 56q0 24 17.5 41t17.5 41q0 36 -17.5 80t-17.5 100q0 57 36 95t92 38t93 -43.5t37 -105.5q0 -122 -60.5 -212t-139.5 -90zM139 691q0 60 38 103.5t91.5 43.5t93 -43t39.5 -103t-39.5 -102.5t-93 -42.5t-91.5 42t-38 102z" />
    <glyph glyph-name="less" unicode="&#x3c;" horiz-adv-x="1079" 
d="M940 461q0 -53 -26.5 -80t-54.5 -27t-44 8l-608 228q-68 27 -68 101t68 100l608 225q16 8 44 8t54.5 -26.5t26.5 -80.5t-61 -75l-420 -152l420 -153q61 -23 61 -76z" />
    <glyph glyph-name="equal" unicode="=" horiz-adv-x="1079" 
d="M852 610q88 0 88 -94t-88 -94h-625q-88 0 -88 94t88 94h625zM852 956q88 0 88 -95t-88 -95h-625q-88 0 -88 95t88 95h625z" />
    <glyph glyph-name="greater" unicode="&#x3e;" horiz-adv-x="1079" 
d="M220 1024q28 0 44 -8l608 -225q68 -23 68 -99q0 -75 -68 -102l-608 -228q-16 -8 -44 -8t-54.5 27t-26.5 80t62 76l420 153l-420 152q-61 20 -61 74t26 81t54 27z" />
    <glyph glyph-name="question" unicode="?" horiz-adv-x="874" 
d="M291 136q0 60 39 103.5t92 43.5t92 -43.5t39 -103.5t-39 -102t-92 -42t-92 42t-39 102zM512 453q0 -104 -90 -105q-88 0 -88 95q0 228 129.5 341t150.5 163.5t21 112.5t-52.5 106t-137.5 44t-123 -22.5t-62 -56.5t-42.5 -44t-41.5 -10q-88 0 -88 86t97 162t237 76
q193 0 291 -94t98 -260t-90 -265q-35 -41 -80 -77.5t-76 -77.5q-53 -70 -53 -174z" />
    <glyph glyph-name="at" unicode="@" horiz-adv-x="1562" 
d="M884.5 564.5q-45.5 56.5 -117.5 56.5q-73 0 -118 -51.5t-45 -140.5t45 -137t121 -48t118 55t42 132t-45.5 133.5zM819 -154q94 0 94 -96t-96 -96q-318 0 -516.5 199.5t-198.5 568.5q0 170 58.5 308t157 236.5t228.5 151.5t342.5 53t392 -192.5t179.5 -503.5
q0 -212 -97 -341.5t-246 -129.5t-179 127q-78 -70 -197 -70t-210 97t-91 264q0 166 93 271.5t241 105.5q96 0 162 -62q12 59 74 60q80 0 80 -88v-492q0 -29 32 -29q66 0 116 74.5t50 214.5q0 254 -119.5 379t-345.5 125t-387.5 -157t-161.5 -409q0 -253 142.5 -411
t402.5 -158z" />
    <glyph glyph-name="A" unicode="A" horiz-adv-x="1173" 
d="M436 647h301l-151 400zM145 0q-47 0 -72.5 27.5t-25.5 58.5t8 47l437 1178q27 71 95 71t95 -73l434 -1176q10 -27 10 -53t-26.5 -53t-73.5 -27t-72 66l-147 393h-440l-150 -393q-25 -66 -72 -66z" />
    <glyph glyph-name="B" unicode="B" horiz-adv-x="1198" 
d="M766 598h-451v-408h451q97 0 146 60.5t49 145.5t-48.5 143.5t-146.5 58.5zM731 1190h-416v-402h478q62 0 111.5 58t48.5 143q-1 84 -53 142.5t-169 58.5zM1137 389q0 -158 -97.5 -273.5t-269.5 -115.5h-545q-86 0 -86 94v1194q0 94 86 94h508q192 0 294.5 -112
t102.5 -283q0 -106 -33.5 -176t-107.5 -115q148 -84 148 -307z" />
    <glyph glyph-name="C" unicode="C" horiz-adv-x="1259" 
d="M267.5 1199q165.5 202 439.5 202q265 0 440 -207q18 -22 18 -58t-26.5 -65t-61.5 -29t-61 27q-130 141 -318 141t-303.5 -144t-115.5 -371t115.5 -375t305.5 -148q191 0 316 143q27 31 61 31q33 0 60.5 -27.5t27.5 -67.5q0 -83 -139 -175q-138 -96 -298 -96t-272 56
t-233 207t-121 453q0 301 165.5 503z" />
    <glyph glyph-name="D" unicode="D" horiz-adv-x="1271" 
d="M860 1040q-139 150 -340 150h-205v-1000h211q196 0 334.5 148t138.5 350t-139 352zM987 200q-182 -200 -461 -200h-299q-88 0 -88 92v1196q0 94 88 94h293q281 0 465 -199.5t184 -491t-182 -491.5z" />
    <glyph glyph-name="E" unicode="E" horiz-adv-x="985" 
d="M803 190q86 0 86 -95t-86 -95h-576q-88 0 -88 92v1196q0 94 88 94h576q86 0 86 -96t-86 -96h-488v-408h369q88 0 88 -94t-88 -94h-369v-404h488z" />
    <glyph glyph-name="F" unicode="F" horiz-adv-x="950" 
d="M803 1382q86 0 86 -96t-86 -96h-488v-408h367q90 0 90 -95t-90 -95h-367v-496q0 -96 -88 -96t-88 96v1192q0 94 86 94h578z" />
    <glyph glyph-name="G" unicode="G" horiz-adv-x="1443" 
d="M1257 782q88 0 89 -94q0 -293 -125 -444.5t-240 -207.5t-254 -56t-254 56t-243 209t-128 451q0 147 47.5 276.5t130 224.5t198.5 149.5t228 54.5q290 0 396 -107.5t106 -150.5t-26.5 -72t-61.5 -29t-65 31q-57 61 -141.5 99t-184.5 38q-197 0 -323.5 -146t-126.5 -369
q0 -224 124 -373.5t311 -149.5t305.5 116t143.5 306h-526q-88 0 -88 94t88 94h620z" />
    <glyph glyph-name="H" unicode="H" horiz-adv-x="1187" 
d="M1049 96q0 -96 -88.5 -96t-88.5 96v498h-557v-498q0 -96 -88 -96t-88 96v1186q0 100 88 100t88 -100v-500h557v500q0 100 88.5 100t88.5 -100v-1186z" />
    <glyph glyph-name="I" unicode="I" horiz-adv-x="643" 
d="M410 1190v-1000h24q86 0 86 -95t-86 -95h-223q-88 0 -88 95t88 95h22v1000h-22q-88 0 -88 96t88 96h223q86 0 86 -96t-86 -96h-24z" />
    <glyph glyph-name="J" unicode="J" horiz-adv-x="1095" 
d="M973 496q0 -233 -135.5 -374.5t-345.5 -141.5q-137 0 -269 86q-75 51 -141 153q-23 37 -23 79t27 65.5t61.5 23.5t54 -15.5t40.5 -49.5q45 -86 109.5 -118t142.5 -32q143 0 223 91t80 233v788q0 98 88 98t88 -98v-788z" />
    <glyph glyph-name="K" unicode="K" horiz-adv-x="1071" 
d="M315 96q0 -96 -88 -96t-88 96v1186q0 100 88 100t88 -100v-399l525 475q24 24 61 24t66.5 -30.5t29.5 -66.5t-34 -66l-582 -514l580 -535q31 -29 31 -69t-27 -70.5t-61 -30.5t-60 27l-529 495v-426z" />
    <glyph glyph-name="L" unicode="L" horiz-adv-x="937" 
d="M803 190q86 0 86 -95t-86 -95h-578q-86 0 -86 92v1190q0 100 88 100t88 -100v-1092h488z" />
    <glyph glyph-name="M" unicode="M" horiz-adv-x="1617" 
d="M1479 96q0 -96 -88 -96t-88 96v830l-400 -858q-35 -68 -96 -68t-92 68l-400 858v-830q0 -96 -88 -96t-88 96v1180q0 106 94 106q61 0 93 -67l483 -1034l481 1034q31 68 94 67q94 0 95 -106v-1180z" />
    <glyph glyph-name="N" unicode="N" horiz-adv-x="1196" 
d="M968 0q-68 0 -104 59l-549 949v-910q0 -98 -88 -98t-88 98v1170q0 57 29 85.5t67 28.5t59 -16t38 -45l549 -946v907q0 100 88 100t88 -100v-1167q0 -59 -28.5 -87t-60.5 -28z" />
    <glyph glyph-name="O" unicode="O" horiz-adv-x="1413" 
d="M1135 695q0 226 -116 370.5t-312 144.5t-312 -144t-116 -371t115.5 -375t311.5 -148q197 0 313 148.5t116 374.5zM267.5 1199q165.5 202 439.5 202q137 0 249.5 -54.5t233.5 -202t121 -448.5t-121 -452.5t-233.5 -207.5t-250.5 -56t-250 56t-233 207t-121 453
q0 301 165.5 503z" />
    <glyph glyph-name="P" unicode="P" horiz-adv-x="1167" 
d="M940 987q0 88 -53 145.5t-139 57.5h-433v-408h426q92 0 145.5 58.5t53.5 146.5zM1017.5 706.5q-98.5 -114.5 -276.5 -114.5h-426v-496q0 -96 -88 -96t-88 96v1192q0 94 88 94h521q176 0 272 -110.5t96 -280.5t-98.5 -284.5z" />
    <glyph glyph-name="Q" unicode="Q" horiz-adv-x="1431" 
d="M399.5 1066.5q-120.5 -143.5 -120.5 -371.5t120.5 -375.5t317.5 -147.5q160 0 264 92l-100 105q-27 27 -27 65t25.5 66t61.5 28t67 -30l82 -88q66 127 66 261t-30 228t-121 202.5t-288 108.5t-317.5 -143.5zM717 -20q-272 0 -443.5 206.5t-171.5 509.5t171 504t443 201
t443.5 -201t171.5 -504q0 -240 -108 -422l106 -110q29 -33 29 -69t-25.5 -65.5t-59.5 -29.5t-67 33l-98 100q-166 -153 -391 -153z" />
    <glyph glyph-name="R" unicode="R" horiz-adv-x="1202" 
d="M946 987q0 88 -53 145.5t-139 57.5h-439v-408h433q92 0 145 58.5t53 146.5zM1024 714.5q-98 -110.5 -266 -122.5l350 -440q18 -29 18 -64t-26.5 -61.5t-63.5 -26.5t-69 37l-428 555h-224v-496q0 -96 -88 -96t-88 96v1192q0 94 88 94h527q176 0 272 -110.5t96 -278.5
t-98 -278.5z" />
    <glyph glyph-name="S" unicode="S" horiz-adv-x="942" 
d="M487 -20q-198 0 -285.5 114.5t-97.5 153t-10 72.5t25.5 57.5t55.5 23.5q60 0 85 -63q33 -86 81 -124t143 -38t143.5 59t48.5 121q0 118 -56 180q-56 60 -135 110t-160 118q-167 140 -167 297q0 156 92 248t212 92t204 -58q120 -82 120 -194q0 -41 -25.5 -65.5
t-55.5 -24.5q-51 0 -78 57q-50 94 -146 94q-70 0 -107.5 -34t-37.5 -90t22.5 -93t70.5 -76t90 -68.5t111.5 -78t120.5 -106.5q52 -57 76.5 -123t24.5 -157q0 -179 -104 -291.5t-261 -112.5z" />
    <glyph glyph-name="T" unicode="T" horiz-adv-x="1122" 
d="M989 1382q84 0 84 -96t-84 -96h-338v-1092q0 -98 -88 -98t-88 98v1092h-340q-86 0 -86 96t86 96h854z" />
    <glyph glyph-name="U" unicode="U" horiz-adv-x="1210" 
d="M606.5 172q141.5 0 223 87t81.5 235v788q0 100 88 100t88 -100v-788q0 -233 -132.5 -373.5t-349.5 -140.5q-218 0 -350 141.5t-132 372.5v788q0 100 88 100t88 -100v-788q0 -147 83 -234.5t224.5 -87.5z" />
    <glyph glyph-name="V" unicode="V" horiz-adv-x="1173" 
d="M1126 1300q0 -26 -10 -51l-436 -1179q-28 -70 -94 -70t-94 72l-437 1175q-8 16 -8 47t25.5 59.5t72.5 28.5t72 -65l369 -983l368 983q25 65 72 65t73.5 -28t26.5 -54z" />
    <glyph glyph-name="W" unicode="W" horiz-adv-x="2078" 
d="M2032 1296q0 -29 -9 -47l-436 -1179q-28 -70 -94 -70t-94 72l-359 968l-360 -970q-28 -70 -94 -70t-94 72l-437 1175q-8 16 -8 47t25.5 59.5t72.5 28.5t72 -65l369 -983l368 983q12 35 31 50t55 15q59 0 84 -65l369 -983l369 983q26 65 72 65t72 -28.5t26 -57.5z" />
    <glyph glyph-name="X" unicode="X" horiz-adv-x="1157" 
d="M84 1292q0 34 26.5 62t64.5 28t71 -43l336 -479l336 479q28 43 69 43t67.5 -27.5t26.5 -62.5t-18 -61l-371 -529l387 -552q21 -29 21 -63t-28 -60.5t-54 -26.5q-53 0 -82 41l-358 512l-359 -510q-30 -43 -69 -43q-40 0 -66.5 26.5t-26.5 61.5t17 62l393 561l-367 520
q-16 27 -16 61z" />
    <glyph glyph-name="Y" unicode="Y" horiz-adv-x="1107" 
d="M553 0q-88 0 -88 96v559l-399 576q-18 27 -18 63t26 62t64 26t69 -43l346 -489l346 489q30 43 69 43q40 0 66.5 -25.5t26.5 -62.5t-19 -63l-401 -576v-559q0 -96 -88 -96z" />
    <glyph glyph-name="Z" unicode="Z" horiz-adv-x="1089" 
d="M932 190q86 0 86 -95t-86 -95h-742q-51 0 -76.5 27.5t-25.5 70.5t27 82l641 1010h-596q-88 0 -88 96t88 96h739q53 0 76.5 -33.5t23.5 -74.5t-20 -74l-647 -1010h600z" />
    <glyph glyph-name="bracketleft" unicode="[" horiz-adv-x="673" 
d="M406 1309v-1280h124q86 -1 86 -97t-86 -96h-213q-88 0 -88 94v1477q0 94 88 94h213q86 0 86 -96t-86 -96h-124z" />
    <glyph glyph-name="backslash" unicode="\" horiz-adv-x="903" 
d="M16 1292q0 33 27 61.5t67 28.5t72 -51l688 -1181q37 -66 0.5 -108t-79.5 -42t-70 49l-690 1186q-15 24 -15 57z" />
    <glyph glyph-name="bracketright" unicode="]" horiz-adv-x="671" 
d="M143 1309q-86 0 -86 96t86 96h211q88 0 88 -94v-1477q0 -94 -88 -94h-211q-86 0 -86 96t86 97h123v1280h-123z" />
    <glyph glyph-name="asciicircum" unicode="^" horiz-adv-x="1128" 
d="M221 573q-29 0 -55.5 25.5t-26.5 55.5t11 55l319 608q35 65 93 65t95 -65l322 -610q10 -27 10 -55t-26.5 -53.5t-59.5 -25.5q-53 0 -84 60l-256 495l-254 -497q-28 -58 -88 -58z" />
    <glyph glyph-name="underscore" unicode="_" horiz-adv-x="808" 
d="M776 -39q86 0 86 -95t-86 -95h-741q-88 0 -88 95t88 95h741z" />
    <glyph glyph-name="grave" unicode="`" horiz-adv-x="618" 
d="M479 970q0 -36 -28.5 -64.5t-64.5 -28.5t-67 36l-159 207q-20 20 -20 60t29.5 68t64 28t67.5 -39l158 -205q20 -26 20 -62z" />
    <glyph glyph-name="a" unicode="a" 
d="M268 412q0 -115 53 -177.5t127 -62.5t125.5 62.5t51.5 175.5v12q-2 111 -53.5 169t-125 58t-126 -61t-52.5 -176zM464 840q92 0 169 -66q18 47 78 47q90 0 90 -98v-627q0 -96 -90 -96q-59 0 -78 45q-77 -65 -169 -65q-168 1 -270 124t-102 307q0 185 102 307t270 122z
" />
    <glyph glyph-name="b" unicode="b" horiz-adv-x="937" 
d="M672 412q0 115 -52.5 176t-126 61t-125 -58.5t-53.5 -168.5v-12q0 -113 51.5 -175.5t126.5 -62.5t127 62.5t52 177.5zM743.5 101.5q-102.5 -121.5 -249.5 -121.5q-109 0 -187 65q-18 -45 -78 -45q-90 0 -90 96v1186q0 100 88 100t88 -100v-500q77 58 165 58t152 -32
t139 -120t75 -277q0 -188 -102.5 -309.5z" />
    <glyph glyph-name="c" unicode="c" horiz-adv-x="837" 
d="M193.5 718q101.5 122 252.5 122q120 0 211 -74q80 -70 80 -123t-26.5 -82t-65.5 -29t-63 42t-54 58.5t-93 16.5t-115 -61.5t-52 -175.5t52.5 -177t125.5 -63q102 0 136 69t88 68q35 0 60.5 -26.5t25.5 -65.5q0 -69 -88 -153t-230 -84t-244 123.5t-102 307.5
q0 185 101.5 307z" />
    <glyph glyph-name="d" unicode="d" 
d="M268 412q0 -115 53 -177.5t127 -62.5t125.5 62.5t51.5 175.5v12q-2 111 -53.5 169t-125 58t-126 -61t-52.5 -176zM625 1282q0 100 88 100t88 -100v-1186q0 -96 -90 -96q-59 0 -78 45q-77 -65 -169 -65q-168 1 -270 124t-102 307q0 185 101.5 307t252.5 122q102 0 179 -58
v500z" />
    <glyph glyph-name="e" unicode="e" horiz-adv-x="870" 
d="M446 653q-51 0 -84.5 -24.5t-62.5 -75.5h297q-56 100 -150 100zM458 840q100 0 193.5 -74.5t118.5 -166t25 -122.5t-18.5 -58.5t-59.5 -27.5h-447q6 -100 56.5 -159.5t119.5 -59.5q102 0 136 69t88 68q35 0 60.5 -26.5t25.5 -79t-82 -137.5q-82 -86 -230 -86t-250 123.5
t-102 295.5t95 306.5t271 134.5z" />
    <glyph glyph-name="f" unicode="f" horiz-adv-x="806" 
d="M207 821v230q0 166 74.5 258t206.5 92q191 0 241.5 -111.5t50.5 -161.5t-23.5 -74t-58.5 -24q-68 0 -82 74q-10 49 -31.5 77.5t-84.5 28.5q-117 0 -117 -159v-230h119q88 0 88 -94t-88 -94h-119v-539q0 -94 -88 -94t-88 94v539h-78q-88 0 -88 94t88 94h78z" />
    <glyph glyph-name="g" unicode="g" 
d="M268 412q0 -115 52.5 -177.5t126 -62.5t125 59.5t53.5 165.5v13q0 117 -51.5 178t-126.5 61t-127 -61t-52 -176zM446 -430q179 0 179 240v229q-77 -59 -165 -59q-165 0 -266.5 123.5t-101.5 307.5q0 185 101.5 307t252.5 122q109 0 187 -64q18 45 78 45q90 0 90 -96v-915
q0 -189 -94.5 -310t-257.5 -121q-162 0 -236 95.5t-74 137.5t25.5 68.5t54.5 26.5q61 0 90 -65q35 -72 137 -72z" />
    <glyph glyph-name="h" unicode="h" horiz-adv-x="921" 
d="M487 840q312 0 312 -359v-389q0 -92 -90 -92q-47 0 -66.5 22.5t-19.5 69.5v389q0 168 -148 168q-74 0 -117 -49t-43 -119v-389q0 -92 -88 -92t-88 92v1196q0 94 88 94t88 -94v-497q69 49 172 49z" />
    <glyph glyph-name="i" unicode="i" horiz-adv-x="516" 
d="M139 1032q0 55 34 93t84 38t85 -38t35 -93t-35 -94t-85 -39t-84 39t-34 94zM346 96q0 -96 -88 -96t-88 96v629q0 96 88 96t88 -96v-629z" />
    <glyph glyph-name="j" unicode="j" horiz-adv-x="552" 
d="M176 1032q0 55 35 93t85 38t84 -38t34 -93t-34 -94t-84 -39t-85 39t-35 94zM383 -272q0 -166 -75 -257.5t-205 -91.5q-194 0 -242.5 112t-48.5 161t22.5 73.5t56.5 24.5q66 0 84 -74q10 -45 32 -75.5t83 -30.5q117 0 117 158v997q0 96 88 96t88 -96v-997z" />
    <glyph glyph-name="k" unicode="k" horiz-adv-x="815" 
d="M758 101q0 -44 -28 -72.5t-59 -28.5t-59 20l-297 226v-154q0 -92 -88 -92t-88 92v1196q0 94 88 94t88 -94v-713l291 226q26 20 58 20t59 -30.5t27 -71.5t-35 -70l-326 -239l330 -238q39 -27 39 -71z" />
    <glyph glyph-name="l" unicode="l" horiz-adv-x="454" 
d="M315 96q0 -96 -88 -96t-88 96v1186q0 100 88 100t88 -100v-1186z" />
    <glyph glyph-name="m" unicode="m" horiz-adv-x="1404" 
d="M1108 481q0 168 -147 168q-72 0 -117 -51t-45 -117v-389q0 -92 -90 -92q-47 0 -66.5 22.5t-19.5 69.5v389q0 168 -148 168q-74 0 -117 -49t-43 -119v-389q0 -92 -88 -92t-88 92v635q0 94 86 94q59 0 78 -39q73 58 184 58q164 0 244 -105q83 105 240 105q311 0 311 -359
v-389q0 -92 -88 -92q-47 0 -66.5 22.5t-19.5 69.5v389z" />
    <glyph glyph-name="n" unicode="n" horiz-adv-x="921" 
d="M487 840q312 0 312 -359v-389q0 -92 -90 -92q-47 0 -66.5 22.5t-19.5 69.5v389q0 168 -148 168q-74 0 -117 -49t-43 -119v-389q0 -92 -88 -92t-88 92v635q0 94 86 94q59 0 78 -39q73 58 184 58z" />
    <glyph glyph-name="o" unicode="o" horiz-adv-x="892" 
d="M625 412q0 115 -51.5 176t-126.5 61t-127 -61.5t-52 -175.5t53 -177t127 -63t125.5 62.5t51.5 177.5zM699.5 717q101.5 -123 101.5 -306t-101.5 -307t-252.5 -124t-253 123.5t-102 307.5q0 185 101.5 307t253 122t253 -123z" />
    <glyph glyph-name="p" unicode="p" horiz-adv-x="937" 
d="M672 412q0 115 -53 176t-127 61t-125.5 -61.5t-51.5 -177.5v-13q2 -106 53.5 -165.5t125 -59.5t126 62.5t52.5 177.5zM315 -502q0 -98 -88 -98t-88 98v1227q0 96 90 96q59 0 78 -45q77 64 169 64q165 1 267.5 -119.5t102.5 -309.5q0 -188 -102.5 -309.5t-249.5 -121.5
q-102 0 -179 59v-541z" />
    <glyph glyph-name="q" unicode="q" horiz-adv-x="950" 
d="M268 412q0 -115 52.5 -177.5t126 -62.5t125 59.5t53.5 165.5v13q0 117 -51.5 178t-126.5 61t-127 -61t-52 -176zM1170 -449q-26 -62 -56 -92q-80 -80 -210 -80t-204.5 91.5t-74.5 257.5v311q-77 -59 -165 -59q-165 0 -266.5 123.5t-101.5 307.5q0 185 101.5 307
t252.5 122q109 0 187 -64q18 45 78 45q90 0 90 -96v-997q0 -158 117 -158q63 0 83.5 30.5t30.5 75.5q18 74 84 74q35 0 57.5 -24.5t22.5 -68.5t-26 -106z" />
    <glyph glyph-name="r" unicode="r" horiz-adv-x="770" 
d="M477 840q101 0 171 -74t69 -134q0 -59 -23.5 -83.5t-52.5 -24.5q-61 1 -86 58q-16 39 -41 53t-70 14q-94 0 -129 -125v-422q0 -102 -87 -102t-89 98v631q0 98 88 98q35 0 51.5 -13t26.5 -40q71 66 172 66z" />
    <glyph glyph-name="s" unicode="s" horiz-adv-x="782" 
d="M94 258q0 41 22.5 66.5t64.5 25.5t63.5 -20.5t29.5 -64.5t40 -76.5t94 -32.5t87 29.5t25 67.5t-55 60q-47 16 -95 30.5t-108 41.5q-125 56 -125 215q0 104 69.5 172t199.5 68q86 0 144 -30t89 -64t31 -82t-26 -73.5t-70 -25.5t-68 37q-44 72 -107 72q-86 0 -86 -74
q0 -23 10.5 -36t39.5 -24t115.5 -40t129.5 -58q88 -55 88 -178t-78 -203.5t-208 -80.5t-223 80q-93 79 -93 198z" />
    <glyph glyph-name="t" unicode="t" horiz-adv-x="677" 
d="M551 821q86 0 86 -94t-86 -94h-129v-535q0 -98 -88 -98t-88 98v535h-117q-88 0 -88 94t88 94h117v166q0 94 88 94t88 -94v-166h129z" />
    <glyph glyph-name="u" unicode="u" horiz-adv-x="923" 
d="M436 -20q-313 0 -313 360v387q0 94 90 94q47 0 66.5 -22.5t19.5 -71.5v-387q0 -168 147 -168q76 0 119 48t43 120v387q0 94 88 94t88 -94v-635q0 -92 -86 -92q-59 0 -80 39q-72 -59 -182 -59z" />
    <glyph glyph-name="v" unicode="v" horiz-adv-x="847" 
d="M424 0q-25 0 -51.5 17.5t-42.5 52.5l-275 614q-8 16 -8 52t27.5 60.5t55.5 24.5q60 0 83 -55l211 -494l209 494q23 55 80 55q31 0 59.5 -24.5t28.5 -52.5t-10 -60l-273 -614q-16 -35 -42.5 -52.5t-51.5 -17.5z" />
    <glyph glyph-name="w" unicode="w" horiz-adv-x="1425" 
d="M424 0q-25 0 -51.5 17.5t-42.5 52.5l-275 614q-8 16 -8 52t27.5 60.5t55.5 24.5q60 0 83 -55l211 -487l209 487q23 55 78 55t80 -55l210 -487l209 487q23 55 80 55q33 0 60.5 -24.5t27.5 -58.5t-10 -54l-272 -614q-16 -35 -43 -52.5t-51.5 -17.5t-51 17.5t-43.5 52.5
l-194 440l-195 -440q-16 -35 -42.5 -52.5t-51.5 -17.5z" />
    <glyph glyph-name="x" unicode="x" horiz-adv-x="872" 
d="M730 821q36 0 60.5 -28.5t24.5 -70.5t-24 -67l-226 -247l226 -248q24 -24 24 -66t-26.5 -68t-61.5 -26t-65 31l-228 245l-223 -245q-31 -31 -66 -31t-61.5 26.5t-26.5 67.5t27 68l227 252l-217 239q-26 27 -26 69t25.5 70.5t62.5 28.5t67 -35l219 -243l220 243
q32 35 68 35z" />
    <glyph glyph-name="y" unicode="y" horiz-adv-x="833" 
d="M689 821q42 0 69.5 -25.5t27.5 -56.5t-8 -49l-553 -1237q-24 -53 -66 -53t-69 25.5t-27 61.5t9 52l258 580l-273 565q-10 24 -10 56t27.5 56.5t55.5 24.5q57 0 83 -53l215 -449l199 453q20 49 62 49z" />
    <glyph glyph-name="z" unicode="z" horiz-adv-x="903" 
d="M737 190q86 0 86 -95t-86 -95h-538q-47 0 -76 30.5t-29 74.5t33 81l405 445h-364q-88 0 -88 95t88 95h534q51 0 79 -33.5t28 -75.5t-29 -77l-409 -445h366z" />
    <glyph glyph-name="braceleft" unicode="{" horiz-adv-x="671" 
d="M496 492q0 -102 -16.5 -189t-16.5 -153t10 -88.5t46 -22.5t57.5 -28.5t21.5 -63.5t-22.5 -64.5t-69.5 -29.5q-111 0 -164 69.5t-53 173.5t15 191t15 189q1 102 -39 102t-66 23.5t-26 66.5t26 67.5t66 24.5t39 98q0 98 -15 184t-15 195t53 178.5t164 69.5q47 0 69.5 -30
t22.5 -64.5t-21.5 -63.5t-57.5 -29t-46 -24t-10 -86t16.5 -146t16.5 -191t-54 -183q54 -74 54 -176z" />
    <glyph glyph-name="bar" unicode="|" horiz-adv-x="821" 
d="M498 -287q0 -96 -88 -96t-88 96v1762q0 98 88 98t88 -98v-1762z" />
    <glyph glyph-name="braceright" unicode="}" horiz-adv-x="671" 
d="M392 578q-40 0 -40 -100t15.5 -183t15.5 -193t-53 -179.5t-164 -69.5q-47 0 -69.5 29.5t-22.5 64.5t21.5 63.5t57.5 28.5t46 22.5t10 86.5t-16.5 147.5t-16.5 191.5t53 181q-53 77 -53 178q0 102 16.5 188t16.5 175t-51 89q-41 0 -62.5 29t-21.5 63.5t22.5 64.5t69.5 30
q111 0 164 -69.5t53 -173.5t-15.5 -191t-15.5 -189t40 -102t65.5 -24.5t25.5 -67.5t-25.5 -66.5t-65.5 -23.5z" />
    <glyph glyph-name="asciitilde" unicode="~" horiz-adv-x="1079" 
d="M702 694q62 0 62 97q0 49 27.5 73.5t61.5 24.5t60.5 -23.5t26.5 -81.5q0 -125 -68 -199.5t-155 -74.5q-88 0 -140.5 44t-87.5 84t-60.5 63.5t-51.5 23.5q-62 0 -62 -96q0 -49 -27.5 -74t-61.5 -25t-60.5 24t-26.5 82q0 125 68.5 199t157.5 74q88 0 139 -44t86 -84
t59.5 -63.5t52.5 -23.5z" />
    <glyph glyph-name="nonbreakingspace" unicode="&#xa0;" horiz-adv-x="495" 
 />
    <glyph glyph-name="exclamdown" unicode="&#xa1;" horiz-adv-x="540" 
d="M401 911.5q0 -61.5 -38.5 -103.5t-92 -42t-92.5 42t-39 103.5t39 103.5t92.5 42t92 -42t38.5 -103.5zM182 596q0 96 88 96t88 -96v-827q0 -102 -88 -102.5t-88 102.5v827z" />
    <glyph glyph-name="cent" unicode="&#xa2;" horiz-adv-x="829" 
d="M268 686q0 -88 32 -145.5t83 -79.5v450q-51 -23 -83 -80t-32 -145zM737 919q0 -53 -26.5 -81.5t-65.5 -28.5t-67 46t-70 63v-461q50 14 72 57q38 72 90 72q35 0 60.5 -27t25.5 -65q0 -70 -72 -140t-176 -92v-194q0 -68 -62 -68t-63 68v194q-126 24 -208.5 141t-82.5 283
t82.5 283t208.5 141v201q0 72 63 71q61 0 62 -71v-201q84 -14 156 -76t73 -115z" />
    <glyph glyph-name="sterling" unicode="&#xa3;" horiz-adv-x="1191" 
d="M238 236q0 -62 53 -62q27 0 46 19.5t40 50.5q-46 32 -76 32q-63 0 -63 -40zM221 968q0 193 117.5 313t304.5 120q188 0 312 -113.5t124 -310.5q0 -49 -27.5 -73.5t-59.5 -24.5t-60.5 23.5t-28.5 70.5q0 111 -69.5 174t-192.5 63q-163 0 -203.5 -80.5t-40.5 -151.5
t76 -226h361q88 0 88 -96t-88 -95h-269q35 -85 35 -155t-12 -113q47 -47 113.5 -80t128.5 -33t94 24.5t54 61.5q35 60 77 60q43 0 68.5 -25t25.5 -55t-10 -56q-92 -200 -309 -200q-166 0 -320 131q-35 -55 -92.5 -97t-126.5 -42q-117 0 -173.5 71.5t-56.5 173.5t66 171
t160 69q58 0 135 -35q-9 45 -47 129h-129q-88 0 -88 95t88 96h30q-55 121 -55 216z" />
    <glyph glyph-name="currency" unicode="&#xa4;" horiz-adv-x="1253" 
d="M627 1100q117 0 217 -66l117 117q25 29 61 29t63 -30t27 -69t-27 -65l-114 -115q59 -96 59 -211t-61 -217l116 -113q29 -30 29 -68t-27.5 -67.5t-59.5 -29.5t-64 28l-123 119q-99 -61 -213 -61t-213 61l-121 -121q-69 -60 -111.5 -14.5t-42.5 83.5t27 64l117 119
q-59 94 -59 214t57 214l-111 113q-29 34 -29 70t28.5 66t62.5 30t63 -29l115 -117q100 66 217 66zM466.5 533q67.5 -66 160.5 -66q94 0 160.5 66.5t66.5 155.5t-65.5 155.5t-161.5 66.5q-95 0 -161.5 -66.5t-66.5 -155.5q0 -90 67.5 -156z" />
    <glyph glyph-name="yen" unicode="&#xa5;" horiz-adv-x="1107" 
d="M553 0q-88 0 -88 96v152h-283q-88 0 -88 94t88 94h283v101h-283q-88 0 -88 94t88 94h234l-350 506q-18 27 -18 63t26 62t64 26t69 -43l346 -489l346 489q30 43 69 43q40 0 66.5 -25.5t26.5 -62.5t-19 -63l-352 -506h234q88 0 88 -94t-88 -94h-283v-101h283q88 0 88 -94
t-88 -94h-283v-152q0 -96 -88 -96z" />
    <glyph glyph-name="brokenbar" unicode="&#xa6;" horiz-adv-x="821" 
d="M498 -287q0 -96 -88 -96t-88 96v709q0 100 88 100t88 -100v-709zM498 766q0 -98 -88 -98t-88 98v709q0 98 88 98t88 -98v-709z" />
    <glyph glyph-name="section" unicode="&#xa7;" horiz-adv-x="913" 
d="M555 209q80 53 80 159t-57 169q-35 35 -78 66.5t-88 64.5q-78 -12 -115 -53.5t-37 -93.5t23 -89t74 -78t100 -74.5t98 -70.5zM694 80q82 -106 82 -271t-104 -278t-282 -113t-265 116.5t-97 154t-10 71.5t26 57t56 23q59 0 84 -63q33 -86 81 -124t143 -38t143.5 59.5
t48.5 121.5q0 118 -56 178t-135 110.5t-160 118.5q-167 140 -167 309q0 98 44 172t118 115q-127 127 -127 273t92 237.5t212 91.5t204 -58q120 -82 120 -194q0 -41 -25.5 -65.5t-55.5 -24.5q-51 0 -78 57q-50 94 -146 94q-70 0 -107.5 -34t-37.5 -90t22.5 -93t70.5 -76
t90 -68.5t111.5 -78t120.5 -106.5q52 -57 76.5 -123t24.5 -170q0 -180 -117 -291z" />
    <glyph glyph-name="dieresis" unicode="&#xa8;" horiz-adv-x="845" 
d="M129 1083.5q0 57.5 36 96.5t84 39t86 -39t38 -96.5t-38 -96.5t-86 -39t-84 39t-36 96.5zM475 1083.5q0 57.5 35 96.5t84 39t86 -39t37 -96.5t-37 -96.5t-86 -39t-84 39t-35 96.5z" />
    <glyph glyph-name="copyright" unicode="&#xa9;" horiz-adv-x="1536" 
d="M768 1239q-241 0 -378.5 -151.5t-137.5 -391.5q0 -241 137.5 -397t378.5 -156t378.5 156t137.5 397t-137.5 392t-378.5 151zM533 974q95 113 219 113q159 0 219.5 -75.5t60.5 -116.5t-24.5 -66.5t-60.5 -25.5q-35 0 -59 38t-50 54t-84 16t-106 -57t-48 -161.5t48 -163
t128 -58.5t115 68q27 59 69 59t65.5 -24.5t23.5 -62.5t-26.5 -71.5t-58.5 -65.5t-86 -55.5t-118 -23.5t-123 29.5t-129 113.5t-70 253.5t95 282.5zM277 1203q175 198 491 198t491 -198t175 -507t-175 -512.5t-491 -203.5t-491 203.5t-175 512.5t175 507z" />
    <glyph glyph-name="ordfeminine" unicode="&#xaa;" horiz-adv-x="614" 
d="M225 999.5q0 -47.5 18.5 -73t47 -25.5t48 25.5t19.5 72.5v7q0 43 -19.5 67.5t-48 24.5t-47 -25.5t-18.5 -73zM295 1266q51 0 90 -27q20 14 51 14q76 0 76 -86v-336q0 -86 -76 -86q-31 0 -51 15q-39 -27 -90 -27t-91 20.5t-69 55.5t-46 84t-17 106.5t17 106.5t46 84
t69 55.5t91 20.5z" />
    <glyph glyph-name="guillemotleft" unicode="&#xab;" horiz-adv-x="827" 
d="M446 87q0 -39 -26 -63t-66 -24q-39 0 -71 47l-222 359q-14 23 -14 53q0 29 14 49l222 358q31 45 71 45q40 1 66 -25t26 -61t-14 -57l-190 -311l190 -312q14 -20 14 -58zM780 87q0 -39 -26 -63t-66 -24q-39 0 -72 47l-221 359q-14 23 -14 53q0 29 14 49l221 358
q31 45 71 45q40 1 67 -25q26 -26 26 -61t-14 -57l-191 -311l191 -312q14 -20 14 -58z" />
    <glyph glyph-name="logicalnot" unicode="&#xac;" horiz-adv-x="1028" 
d="M139 712.5q0 96.5 86 96.5h578q86 0 86 -94v-424q0 -100 -90 -101q-86 0 -86 101v325h-488q-86 0 -86 96.5z" />
    <glyph glyph-name="softhyphen" unicode="&#xad;" horiz-adv-x="704" 
d="M569 782q88 0 88 -94t-88 -94h-434q-88 0 -88 94t88 94h434z" />
    <glyph glyph-name="registered" unicode="&#xae;" horiz-adv-x="1536" 
d="M920 831.5q0 30.5 -18.5 51t-51.5 20.5h-188v-145h186q33 0 52.5 21.5t19.5 52zM530 975q0 72 66 72h254q98 0 150.5 -60.5t52.5 -145.5t-39 -144.5t-113 -75.5l139 -177q13 -16 13 -45t-18.5 -49t-48.5 -20t-46 20l-205 266h-73v-215q0 -35 -14.5 -53t-51.5 -18
q-66 0 -66 71v574zM768 1239q-241 0 -378.5 -151.5t-137.5 -391.5q0 -241 137.5 -397t378.5 -156t378.5 156t137.5 397t-137.5 392t-378.5 151zM277 1203q175 198 491 198t491 -198t175 -507t-175 -512.5t-491 -203.5t-491 203.5t-175 512.5t175 507z" />
    <glyph glyph-name="macron" unicode="&#xaf;" horiz-adv-x="849" 
d="M618 1169q92 0 92 -94t-92 -94h-387q-92 0 -92 94t92 94h387z" />
    <glyph glyph-name="degree" unicode="&#xb0;" horiz-adv-x="729" 
d="M258 1124q0 -41 29.5 -70.5t75 -29.5t76 29.5t30.5 70.5t-30.5 71t-76 30t-75 -30t-29.5 -71zM364.5 1401q113.5 0 193 -81.5t79.5 -195.5t-79.5 -196t-193 -82t-193 82t-79.5 196t79.5 195.5t193 81.5z" />
    <glyph glyph-name="plusminus" unicode="&#xb1;" horiz-adv-x="1091" 
d="M463 782v217q0 94 90 95q88 0 88 -95v-217h223q88 0 88 -94t-88 -94h-223v-219q0 -94 -89 -94t-89 94v219h-223q-88 0 -88 94t88 94h223zM864 188q88 0 88 -94t-88 -94h-624q-88 0 -88 94t88 94h624z" />
    <glyph glyph-name="twosuperior" unicode="&#xb2;" horiz-adv-x="581" 
d="M524 680q0 -84 -75 -84h-269q-47 0 -67 27q-21 27 -21 59t12 55l211 365q31 60 31 92q0 61 -51 61q-27 0 -39 -15t-18 -42q-16 -66 -78 -65q-30 1 -52 23t-22 64q0 82 64 141q64 58 150 58q87 0 144 -56q58 -56 58 -155t-56 -194l-149 -250h152q35 0 55 -22t20 -62z" />
    <glyph glyph-name="threesuperior" unicode="&#xb3;" horiz-adv-x="618" 
d="M397 1174q0 38 -20 62t-56 24q-35 0 -49 -25t-18 -51q-12 -74 -76 -74q-39 0 -59 28q-42 59 -2 149q36 83 122 116q42 16 89 16q98 1 160 -67t63 -176q0 -108 -70 -168q74 -70 74 -175q0 -106 -67 -176q-67 -71 -177 -71q-109 0 -169 68t-60 159q0 92 76 92q32 1 56 -21
t24 -65q0 -74 81 -74q37 0 60 25t23 70q-1 94 -74 94q-82 0 -82 75t80 74q71 0 71 91z" />
    <glyph glyph-name="acute" unicode="&#xb4;" horiz-adv-x="618" 
d="M385 1276q35 0 64.5 -28.5t29.5 -67.5t-20 -60l-160 -207q-29 -37 -66 -37t-65.5 29t-28.5 65t21 62l157 205q33 39 68 39z" />
    <glyph glyph-name="paragraph" unicode="&#xb6;" horiz-adv-x="1198" 
d="M137 1271.5q96 110.5 273 110.5h563q86 0 86 -94v-1751q0 -98 -88 -98t-88 98v1653h-228v-1653q0 -98 -88 -98t-88 98v1055h-63q-178 0 -276.5 114.5t-98.5 284.5t96 280.5z" />
    <glyph glyph-name="periodcentered" unicode="&#xb7;" horiz-adv-x="466" 
d="M102 689q0 59 39 103t92 44t93 -43t39 -103q0 -60 -39 -103q-38 -42 -92 -42t-93 42t-39 102z" />
    <glyph glyph-name="cedilla" unicode="&#xb8;" horiz-adv-x="632" 
d="M139 -469q0 94 84 94q29 0 44 -6t37 -6t41.5 22.5t19.5 51.5q0 80 -93 80q-78 0 -77 96v164q0 84 75.5 84t75.5 -84v-140q98 -8 148.5 -61.5t50.5 -125.5q0 -127 -73.5 -199t-176.5 -72q-156 0 -156 102z" />
    <glyph glyph-name="onesuperior" unicode="&#xb9;" horiz-adv-x="346" 
d="M260 682q0 -86 -74 -86q-82 0 -82 86v641q0 84 82 84q74 0 74 -84v-641z" />
    <glyph glyph-name="ordmasculine" unicode="&#xba;" horiz-adv-x="587" 
d="M358 999.5q0 47.5 -19.5 73t-48 25.5t-47 -25.5t-18.5 -73t18.5 -73t47 -25.5t48 25.5t19.5 73zM72 999.5q0 114.5 63 190.5t156 76t157 -76.5t64 -190t-64.5 -190t-156.5 -76.5q-93 0 -156 76t-63 190.5z" />
    <glyph glyph-name="guillemotright" unicode="&#xbb;" horiz-adv-x="827" 
d="M47 826q0 34 27 60q26 26 66 26t71 -46l221 -358q14 -20 14 -49t-14 -53l-221 -359q-33 -47 -72 -47t-65 25t-27 63q0 38 14 57l191 312l-191 311q-14 24 -14 58zM381 826q0 34 27 60q26 26 66 26t71 -46l221 -358q14 -20 14 -49t-14 -53l-221 -359q-33 -47 -72 -47
t-65 25t-27 63q0 38 14 57l191 312l-191 311q-14 24 -14 58z" />
    <glyph glyph-name="onequarter" unicode="&#xbc;" horiz-adv-x="1366" 
d="M283 682q0 -86 -74 -86q-82 0 -82 86v641q0 84 82 84q74 0 74 -84v-641zM94 82q0 26 12 49l707 1204q29 47 66 47t59 -26t23 -55q0 -28 -15 -54l-702 -1204q-22 -43 -76 -43q-26 0 -50 28t-24 54zM1272 380q0 -66 -49 -79v-235q0 -86 -76 -86t-76 86v231h-223
q-82 0 -82 96v312q0 86 77 86t77 -86v-240h151v240q0 86 76 86t76 -86v-242q49 -17 49 -83z" />
    <glyph glyph-name="onehalf" unicode="&#xbd;" horiz-adv-x="1271" 
d="M268 682q0 -86 -73 -86q-82 0 -82 86v641q0 84 82 84q74 0 73 -84v-641zM98 82q0 26 13 49l706 1204q29 47 66 47t59 -26t23 -56q0 -29 -15 -53l-702 -1204q-22 -43 -76 -43q-26 0 -50 28t-24 54zM1178 63q0 -84 -76 -83h-268q-47 0 -68 26q-20 27 -20 60t12 55l211 364
q30 58 30 91q0 63 -51 63q-27 0 -39 -15t-18 -42q-16 -66 -78 -66q-31 0 -53 23t-21 65q0 82 63 139q63 58 151 59q87 0 145 -56t57 -155q0 -99 -55 -194l-150 -250h152q36 -1 56 -23t20 -61z" />
    <glyph glyph-name="threequarters" unicode="&#xbe;" horiz-adv-x="1529" 
d="M426 1174q0 38 -20 62t-56 24t-50 -25q-13 -25 -17 -51q-12 -74 -76 -74q-39 0 -60 28q-20 28 -20 68q0 91 67 152t163 61q97 1 160 -67t63 -176t-70 -168q72 -68 73 -173q1 -106 -66 -177q-67 -72 -177 -72q-109 0 -169 68t-60 159q0 92 75 92q33 1 57 -21
q23 -22 23 -59q-1 -80 82 -80q37 0 60 25q22 25 22 70q-1 94 -74 94q-82 0 -82 75t80 74q72 0 72 91zM1070 1382q36 0 58 -26t23 -56q0 -29 -14 -53l-703 -1204q-22 -43 -76 -43q-26 0 -50 28q-41 48 -11 103l707 1204q30 47 66 47zM1436 380q0 -66 -50 -79v-235
q0 -86 -76 -86t-75 86v231h-223q-82 0 -82 96v312q0 86 77 86t76 -86v-240h152v240q0 86 76 86t75 -86v-242q50 -17 50 -83z" />
    <glyph glyph-name="questiondown" unicode="&#xbf;" horiz-adv-x="874" 
d="M608 912q0 -60 -39 -103t-92 -43t-92 43t-39 103t39 102.5t92 42.5t92 -42.5t39 -102.5zM387 596q0 104 89 104t89 -95q0 -227 -129.5 -340t-150.5 -164t-21 -113t52.5 -106t137.5 -44t123.5 22.5t62.5 56.5t42 44t41 10q88 0 88 -87q0 -88 -96 -162t-238 -74
q-193 0 -291 94t-98 260t90 264q35 41 80 78t76 78q53 70 53 174z" />
    <glyph glyph-name="Agrave" unicode="&#xc0;" horiz-adv-x="1173" 
d="M436 647h301l-151 400zM145 0q-47 0 -73 28t-25 58q0 30 8 47l437 1178q27 71 95 71t95 -73l434 -1176q10 -27 10 -53t-26 -52q-26 -28 -74 -28q-47 0 -72 66l-147 393h-440l-150 -393q-25 -66 -72 -66zM365 1740q-1 40 29 68t65 29q35 0 67 -39l158 -205q20 -27 20 -63
t-28 -64q-29 -29 -66 -28t-65 37l-160 206q-20 19 -20 59z" />
    <glyph glyph-name="Aacute" unicode="&#xc1;" horiz-adv-x="1173" 
d="M436 647h301l-151 400zM145 0q-47 0 -73 28t-25 58q0 30 8 47l437 1178q27 71 95 71t95 -73l434 -1176q10 -27 10 -53t-26 -52q-26 -28 -74 -28q-47 0 -72 66l-147 393h-440l-150 -393q-25 -66 -72 -66zM725 1837q35 0 65 -29q30 -30 30 -68t-21 -59l-160 -206
q-29 -37 -66 -37t-65 28t-29 65q0 36 21 62l157 205q33 39 68 39z" />
    <glyph glyph-name="Acircumflex" unicode="&#xc2;" horiz-adv-x="1173" 
d="M436 647h301l-151 400zM145 0q-47 0 -73 28t-25 58q0 30 8 47l437 1178q27 71 95 71t95 -73l434 -1176q10 -27 10 -53t-26 -52q-26 -28 -74 -28q-47 0 -72 66l-147 393h-440l-150 -393q-25 -66 -72 -66zM442 1438q-40 0 -68 28t-28 65q0 36 21 62l157 205q31 39 68 39
t70 -39l157 -205q21 -27 21 -63t-36 -71q-36 -36 -93 -13q-18 8 -33 29l-86 127l-86 -127q-25 -37 -64 -37z" />
    <glyph glyph-name="Atilde" unicode="&#xc3;" horiz-adv-x="1173" 
d="M436 647h301l-151 400zM145 0q-47 0 -73 28t-25 58q0 30 8 47l437 1178q27 71 95 71t95 -73l434 -1176q10 -27 10 -53t-26 -52q-26 -28 -74 -28q-47 0 -72 66l-147 393h-440l-150 -393q-25 -66 -72 -66zM708 1667q16 0 17 44q0 44 26 68q25 23 57 23t58 -20t27 -68
q0 -111 -54 -162q-53 -51 -123 -51q-115 0 -181 94q-21 29 -29 37t-25 8q-25 0 -25 -44t-26 -66q-28 -22 -60 -23q-32 1 -56 21t-23 67q0 111 54 162q55 51 125 51t108 -28t68 -63q28 -34 37 -42t25 -8z" />
    <glyph glyph-name="Adieresis" unicode="&#xc4;" horiz-adv-x="1173" 
d="M436 647h301l-151 400zM145 0q-47 0 -73 28t-25 58q0 30 8 47l437 1178q27 71 95 71t95 -73l434 -1176q10 -27 10 -53t-26 -52q-26 -28 -74 -28q-47 0 -72 66l-147 393h-440l-150 -393q-25 -66 -72 -66zM297 1645q0 57 36 96t84 39t86 -39t38 -96t-38 -97t-86 -39
q-48 -1 -84 39t-36 97zM643 1645q0 57 35 96t84 39t86 -39t37 -96t-37 -97t-86 -39q-49 -1 -84 39t-35 97z" />
    <glyph glyph-name="Aring" unicode="&#xc5;" horiz-adv-x="1173" 
d="M436 647h301l-151 400zM145 0q-47 0 -73 28t-25 58q0 30 8 47l437 1178q27 71 95 71t95 -73l434 -1176q10 -27 10 -53t-26 -52q-26 -28 -74 -28q-47 0 -72 66l-147 393h-440l-150 -393q-25 -66 -72 -66zM508 1628q0 -36 24 -60t60 -24q34 0 60 25t26 59t-26 61
q-26 25 -60 25t-60 -25q-24 -26 -24 -61zM447 1776q58 61 145 61q86 0 143 -61q58 -61 59 -149t-59 -147t-143 -60q-84 -2 -144 58t-59 149q0 88 58 149z" />
    <glyph glyph-name="AE" unicode="&#xc6;" horiz-adv-x="1544" 
d="M696 647v543h-57l-203 -543h260zM136 0q-42 0 -65.5 27.5t-23.5 56.5t8 47l437 1180q26 71 90 71h780q86 0 86 -96t-86 -96h-490v-408h371q88 0 88 -94t-88 -94h-371v-404h490q86 0 86 -95t-86 -95h-578q-88 0 -88 92v367h-329l-148 -391q-8 -25 -24.5 -46.5t-58.5 -21.5
z" />
    <glyph glyph-name="Ccedilla" unicode="&#xc7;" horiz-adv-x="1259" 
d="M543 -469q0 94 84 94q29 0 44 -6t37 -6t41 22.5t19 51.5q0 80 -92 80q-78 0 -78 96v127q-225 39 -360.5 236t-135.5 484t165.5 489t439.5 202q265 0 440 -207q18 -22 18 -58t-26.5 -65t-61.5 -29t-61 27q-130 141 -318 141t-303.5 -144t-115.5 -371t115.5 -375
t305.5 -148q191 0 316 143q27 31 61 31q33 0 60.5 -27.5t27.5 -67.5q0 -83 -133 -172t-282 -97v-95q198 -16 198 -206q0 -107 -72.5 -179.5t-177.5 -72.5q-155 0 -155 102z" />
    <glyph glyph-name="Egrave" unicode="&#xc8;" horiz-adv-x="985" 
d="M803 190q86 0 86 -95t-86 -95h-576q-88 0 -88 92v1196q0 94 88 94h576q86 0 86 -96t-86 -96h-488v-408h369q88 0 88 -94t-88 -94h-369v-404h488zM299 1740q0 40 30 68q31 28 65 29q34 0 67 -39l157 -205q20 -27 20 -63t-36 -72q-37 -37 -90 -11q-18 9 -33 28l-160 206
q-20 19 -20 59z" />
    <glyph glyph-name="Eacute" unicode="&#xc9;" horiz-adv-x="985" 
d="M803 190q86 0 86 -95t-86 -95h-576q-88 0 -88 92v1196q0 94 88 94h576q86 0 86 -96t-86 -96h-488v-408h369q88 0 88 -94t-88 -94h-369v-404h488zM664 1837q34 0 64 -29q30 -30 30 -68t-21 -59l-159 -206q-29 -37 -66 -37t-66 28q-28 28 -28 65q0 36 20 62l158 205
q33 39 68 39z" />
    <glyph glyph-name="Ecircumflex" unicode="&#xca;" horiz-adv-x="985" 
d="M803 190q86 0 86 -95t-86 -95h-576q-88 0 -88 92v1196q0 94 88 94h576q86 0 86 -96t-86 -96h-488v-408h369q88 0 88 -94t-88 -94h-369v-404h488zM774 1530q0 -36 -36 -71q-36 -36 -93 -13q-18 8 -33 29l-86 127l-86 -127q-26 -37 -64 -37t-67 28t-29 65q0 36 21 62
l158 205q31 39 67 39t70 -39l158 -205q20 -27 20 -63z" />
    <glyph glyph-name="Edieresis" unicode="&#xcb;" horiz-adv-x="985" 
d="M803 190q86 0 86 -95t-86 -95h-576q-88 0 -88 92v1196q0 94 88 94h576q86 0 86 -96t-86 -96h-488v-408h369q88 0 88 -94t-88 -94h-369v-404h488zM231 1645q0 57 36 96t84 39t86 -39t38 -96t-38 -97t-86 -39q-48 -1 -84 39t-36 97zM578 1645q0 57 34 96q35 39 84 39
t86 -39t37 -96t-37 -97t-86 -39q-49 0 -84 39q-34 40 -34 97z" />
    <glyph glyph-name="Igrave" unicode="&#xcc;" horiz-adv-x="638" 
d="M406 1190v-1000h24q86 0 86 -95t-86 -95h-223q-88 0 -88 95t88 95h22v1000h-22q-88 0 -88 96t88 96h223q86 0 86 -96t-86 -96h-24zM432 1530q0 -36 -37 -72q-37 -37 -90 -11q-18 9 -33 28l-159 206q-21 19 -21 59t30 68t64 29q34 0 68 -39l158 -205q20 -27 20 -63z" />
    <glyph glyph-name="Iacute" unicode="&#xcd;" horiz-adv-x="641" 
d="M410 1190v-1000h24q86 0 86 -95t-86 -95h-223q-88 0 -88 95t88 95h22v1000h-22q-88 0 -88 96t88 96h223q86 0 86 -96t-86 -96h-24zM455 1837q35 0 65 -29q30 -30 29 -68q0 -38 -21 -59l-159 -206q-29 -37 -66 -37t-65 28t-29 65q0 36 20 62l158 205q33 39 68 39z" />
    <glyph glyph-name="Icircumflex" unicode="&#xce;" horiz-adv-x="634" 
d="M418 1190v-1000h24q86 0 86 -95t-86 -95h-223q-88 0 -88 95t88 95h23v1000h-23q-88 0 -88 96t88 96h223q86 0 86 -96t-86 -96h-24zM84 1531q0 36 20 62l158 205q31 39 68 39t69 -39l158 -205q21 -27 21 -63t-29 -64q-29 -29 -68 -28t-65 37l-86 127l-86 -127
q-26 -37 -64 -37q-40 0 -68 28t-28 65z" />
    <glyph glyph-name="Idieresis" unicode="&#xcf;" horiz-adv-x="628" 
d="M403 1190v-1000h25q86 0 86 -95t-86 -95h-223q-88 0 -88 95t88 95h22v1000h-22q-88 0 -88 96t88 96h223q86 0 86 -96t-86 -96h-25zM20 1645q0 57 36 96t84 39t86 -39t38 -96t-38 -97t-86 -39q-48 -1 -84 39t-36 97zM367 1645q0 57 34 96q35 39 84 39t86 -39t37 -96
t-37 -97t-86 -39q-49 0 -84 39q-34 40 -34 97z" />
    <glyph glyph-name="Eth" unicode="&#xd0;" horiz-adv-x="1259" 
d="M847.5 1039.5q-139.5 150.5 -341.5 150.5h-205v-408h340q88 0 88 -94t-88 -94h-340v-404h211q197 0 336 148.5t139 349.5t-139.5 351.5zM1157 690.5q0 -145.5 -49 -270.5t-135 -219.5t-205 -147.5t-256 -53h-297q-88 0 -88 92v502h-39q-88 0 -88 94t88 94h39v506
q0 94 88 94h291q141 0 261 -53t206 -147.5t135 -220t49 -271z" />
    <glyph glyph-name="Ntilde" unicode="&#xd1;" horiz-adv-x="1196" 
d="M1057 115q-1 -59 -29 -87t-60 -28q-71 0 -104 59l-549 949v-910q0 -98 -88 -98t-88 98v1170q0 57 29 86q29 28 67 28q64 -1 97 -61l549 -946v907q0 100 88 100t88 -100v-1167zM714 1667q16 0 17 44q0 44 26 68q25 23 57 23t58 -20t27 -68q0 -111 -54 -162
q-53 -51 -123 -51q-115 0 -181 94q-21 29 -29 37t-25 8q-25 0 -25 -44t-26 -66q-28 -22 -60 -23q-32 1 -56 21t-23 67q0 111 54 162q55 51 125 51t108 -28t68 -63q28 -34 37 -42t25 -8z" />
    <glyph glyph-name="Ograve" unicode="&#xd2;" horiz-adv-x="1413" 
d="M1135 695q0 110 -29 204q-60 193 -219 271q-80 40 -181 40q-195 0 -312 -146t-116 -371q1 -226 116 -373q114 -148 312 -148q197 0 316 153q113 146 113 370zM102 694q0 148 43 278q88 265 311 375q112 54 250 54q275 0 440 -202t165 -503t-164 -507q-78 -97 -191 -153
q-112 -56 -250 -56t-250 56t-190 153t-121 227t-43 278zM821 1530q-1 -36 -29 -64q-44 -45 -98 -19q-18 9 -32 28l-160 206q-20 19 -20 59t29 68q31 28 65 29q34 0 67 -39l158 -205q20 -27 20 -63z" />
    <glyph glyph-name="Oacute" unicode="&#xd3;" horiz-adv-x="1413" 
d="M1135 695q0 110 -29 204q-60 193 -219 271q-80 40 -181 40q-195 0 -312 -146t-116 -371q1 -226 116 -373q114 -148 312 -148q197 0 316 153q113 146 113 370zM102 694q0 148 43 278q88 265 311 375q112 54 250 54q275 0 440 -202t165 -503t-164 -507q-78 -97 -191 -153
q-112 -56 -250 -56t-250 56t-190 153t-121 227t-43 278zM842 1837q34 0 64 -29q30 -30 30 -68t-21 -59l-159 -206q-29 -37 -66 -37q-38 0 -66 28t-28 65q0 36 20 62l158 205q33 39 68 39z" />
    <glyph glyph-name="Ocircumflex" unicode="&#xd4;" horiz-adv-x="1413" 
d="M1135 695q0 110 -29 204q-60 193 -219 271q-80 40 -181 40q-195 0 -312 -146t-116 -371q1 -226 116 -373q114 -148 312 -148q197 0 316 153q113 146 113 370zM102 694q0 148 43 278q88 265 311 375q112 54 250 54q275 0 440 -202t165 -503t-164 -507q-78 -97 -191 -153
q-112 -56 -250 -56t-250 56t-190 153t-121 227t-43 278zM956 1530q0 -36 -36 -72q-36 -37 -93 -12q-18 8 -32 29l-86 127l-86 -127q-26 -37 -64 -37q-39 0 -67 28t-29 65q0 36 20 62l158 205q31 39 68 39t69 -39l158 -205q20 -27 20 -63z" />
    <glyph glyph-name="Otilde" unicode="&#xd5;" horiz-adv-x="1413" 
d="M1135 695q0 110 -29 204q-60 193 -219 271q-80 40 -181 40q-195 0 -312 -146t-116 -371q1 -226 116 -373q114 -148 312 -148q197 0 316 153q113 146 113 370zM102 694q0 148 43 278q88 265 311 375q112 54 250 54q275 0 440 -202t165 -503t-164 -507q-78 -97 -191 -153
q-112 -56 -250 -56t-250 56t-190 153t-121 227t-43 278zM823 1667q19 0 19 44t25 68q26 23 58 23q33 0 59 -20t26 -68q0 -111 -54 -162t-124 -51t-111 27t-70 67q-20 29 -28 37t-25 8q-25 0 -25 -44q-1 -44 -27 -66t-59 -23q-33 1 -57 21t-22 67q0 111 54 162t124 51
t109 -28q38 -28 67 -63q29 -34 38 -42t23 -8z" />
    <glyph glyph-name="Odieresis" unicode="&#xd6;" horiz-adv-x="1413" 
d="M1135 695q0 110 -29 204q-60 193 -219 271q-80 40 -181 40q-195 0 -312 -146t-116 -371q1 -226 116 -373q114 -148 312 -148q197 0 316 153q113 146 113 370zM102 694q0 148 43 278q88 265 311 375q112 54 250 54q275 0 440 -202t165 -503t-164 -507q-78 -97 -191 -153
q-112 -56 -250 -56t-250 56t-190 153t-121 227t-43 278zM414 1645q0 57 36 96t84 39t86 -39t38 -96t-38 -97q-38 -39 -86 -39q-48 -1 -84 39t-36 97zM760 1645q0 57 35 96t84 39t86 -39t37 -96t-37 -97q-37 -39 -86 -39q-49 -1 -84 39t-35 97z" />
    <glyph glyph-name="multiply" unicode="&#xd7;" horiz-adv-x="1091" 
d="M858 464q0 -34 -29.5 -68t-57.5 -34t-64 31l-160 158l-158 -160q-31 -31 -54 -31q-39 0 -70.5 36t-31.5 65t29 63l156 158l-154 154q-45 45 -25 88.5t46 59t48 15.5t56 -30l158 -158l158 158q61 61 107 11.5t46 -83.5q0 -33 -29 -61l-151 -154l153 -156q27 -28 27 -62z
" />
    <glyph glyph-name="Oslash" unicode="&#xd8;" horiz-adv-x="1413" 
d="M700 172q203 0 319 148.5t116 365.5q0 216 -97 354l-526 -823q82 -45 188 -45zM279 701q0 -221 100 -363l528 823q-87 49 -195 49q-202 0 -317.5 -144t-115.5 -365zM274 178q-172 196 -172 508t165.5 513.5t439.5 201.5q160 0 299 -82l69 108q36 52 75 52q38 0 64.5 -29
t26.5 -61t-16 -60l-82 -129q168 -193 168 -499t-166.5 -513.5t-452.5 -207.5q-152 0 -278 81l-68 -106q-33 -51 -73 -51t-67.5 31.5t-27.5 60.5t17 57z" />
    <glyph glyph-name="Ugrave" unicode="&#xd9;" horiz-adv-x="1210" 
d="M606 172q141 0 223 87t82 235v788q0 100 88 100t88 -100v-788q0 -232 -133 -374t-349 -141t-349 143t-133 372v788q0 100 88 100t88 -100v-788q0 -146 83 -234t224 -88zM379 1740q0 40 30 68q31 28 65 29q34 0 67 -39l157 -205q20 -27 20 -63t-36 -72q-37 -37 -90 -11
q-18 9 -33 28l-160 206q-20 19 -20 59z" />
    <glyph glyph-name="Uacute" unicode="&#xda;" horiz-adv-x="1210" 
d="M606 172q141 0 223 87t82 235v788q0 100 88 100t88 -100v-788q0 -232 -133 -374t-349 -141t-349 143t-133 372v788q0 100 88 100t88 -100v-788q0 -146 83 -234t224 -88zM740 1837q34 0 64 -29q30 -30 30 -68t-21 -59l-160 -206q-29 -37 -65 -37t-66 28q-28 28 -28 65
q0 36 20 62l158 205q34 39 68 39z" />
    <glyph glyph-name="Ucircumflex" unicode="&#xdb;" horiz-adv-x="1210" 
d="M606 172q141 0 223 87t82 235v788q0 100 88 100t88 -100v-788q0 -232 -133 -374t-349 -141t-349 143t-133 372v788q0 100 88 100t88 -100v-788q0 -146 83 -234t224 -88zM454 1438q-38 0 -67 28t-29 65q0 36 21 62l158 205q31 39 67 39t70 -39l157 -205q21 -27 21 -63
t-36 -71q-36 -36 -93 -13q-18 8 -33 29l-86 127l-86 -127q-26 -37 -64 -37z" />
    <glyph glyph-name="Udieresis" unicode="&#xdc;" horiz-adv-x="1210" 
d="M606 172q141 0 223 87t82 235v788q0 100 88 100t88 -100v-788q0 -232 -133 -374t-349 -141t-349 143t-133 372v788q0 100 88 100t88 -100v-788q0 -146 83 -234t224 -88zM311 1645q0 57 36 96t84 39t86 -39t38 -96t-38 -97t-86 -39q-48 -1 -84 39t-36 97zM657 1645
q0 57 35 96t84 39t86 -39t37 -96t-37 -97t-86 -39q-49 -1 -84 39t-35 97z" />
    <glyph glyph-name="Yacute" unicode="&#xdd;" horiz-adv-x="1107" 
d="M553 0q-88 0 -88 96v559l-399 576q-18 27 -18 63t26 63q26 25 64 25t69 -43l346 -489l346 489q30 43 69 43q40 0 66 -26t27 -62q0 -37 -19 -63l-401 -576v-559q0 -96 -88 -96zM692 1837q34 0 65 -29q29 -30 29 -68t-20 -59l-160 -206q-30 -37 -66 -37t-65 28t-29 65
q0 36 21 62l158 205q33 39 67 39z" />
    <glyph glyph-name="Thorn" unicode="&#xde;" horiz-adv-x="1167" 
d="M940 700q0 88 -53 145.5t-139 57.5h-433v-407h426q92 0 145.5 58t53.5 146zM1016.5 419q-99.5 -114 -275.5 -114h-426v-209q0 -96 -88 -96t-88 96v1186q0 100 88 100t88 -100v-186h433q175 0 271.5 -111t96.5 -281.5t-99.5 -284.5z" />
    <glyph glyph-name="germandbls" unicode="&#xdf;" horiz-adv-x="983" 
d="M367 82q0 98 96 98q133 0 193.5 62.5t60.5 151.5t-53.5 153.5t-145.5 64.5h-20q-84 0 -84 96t84 95h20q82 0 119 53t37 131q0 223 -176 223q-111 0 -155 -56t-44 -185v-873q0 -96 -88 -96t-88 96v887q0 189 98 303.5t277 114.5t265.5 -111t86.5 -298t-137 -281
q83 -35 130.5 -125.5t47.5 -183.5q0 -186 -111 -299t-315 -113q-41 0 -69.5 24.5t-28.5 67.5z" />
    <glyph glyph-name="agrave" unicode="&#xe0;" 
d="M446 649q-74 0 -126 -61t-52 -176q0 -116 52 -178t128 -62q74 0 125 62t52 176v12q-1 111 -53 169t-126 58zM464 840q92 0 169 -66q18 47 78 47q90 0 90 -98v-627q0 -96 -90 -96q-59 0 -78 45q-77 -65 -169 -65q-170 1 -271 124q-101 122 -101 306t101 307
q102 123 271 123zM571 970q-1 -36 -29 -65q-44 -45 -98 -19q-18 9 -32 27l-160 207q-20 20 -20 60t29 68q30 28 65 28t67 -39l158 -205q20 -26 20 -62z" />
    <glyph glyph-name="aacute" unicode="&#xe1;" 
d="M446 649q-74 0 -126 -61t-52 -176q0 -116 52 -178t128 -62q74 0 125 62t52 176v12q-1 111 -53 169t-126 58zM464 840q92 0 169 -66q18 47 78 47q90 0 90 -98v-627q0 -96 -90 -96q-59 0 -78 45q-77 -65 -169 -65q-170 1 -271 124q-101 122 -101 306t101 307
q102 123 271 123zM586 1276q34 0 64 -29t30 -67t-21 -60l-159 -207q-29 -37 -66 -37q-38 0 -66 30q-28 28 -28 64t20 62l158 205q33 39 68 39z" />
    <glyph glyph-name="acircumflex" unicode="&#xe2;" 
d="M446 649q-74 0 -126 -61t-52 -176q0 -116 52 -178t128 -62q74 0 125 62t52 176v12q-1 111 -53 169t-126 58zM464 840q92 0 169 -66q18 47 78 47q90 0 90 -98v-627q0 -96 -90 -96q-59 0 -78 45q-77 -65 -169 -65q-170 1 -271 124q-101 122 -101 306t101 307
q102 123 271 123zM309 877q-39 1 -67 29t-29 64q0 36 20 62l158 205q31 39 68 39t69 -39l158 -205q20 -26 20 -62t-28 -65q-29 -29 -68 -28t-65 36l-86 127l-86 -127q-25 -36 -64 -36z" />
    <glyph glyph-name="atilde" unicode="&#xe3;" 
d="M446 649q-74 0 -126 -61t-52 -176q0 -116 52 -178t128 -62q74 0 125 62t52 176v12q-1 111 -53 169t-126 58zM464 840q92 0 169 -66q18 47 78 47q90 0 90 -98v-627q0 -96 -90 -96q-59 0 -78 45q-77 -65 -169 -65q-170 1 -271 124q-101 122 -101 306t101 307
q102 123 271 123zM580 1106q16 0 16 44t26 68t58 24t58 -21q26 -20 26 -68q0 -111 -54 -162t-124 -51q-115 0 -180 94q-20 29 -28 37t-26 8q-24 0 -24 -44q0 -45 -27 -67t-59 -22t-57 20q-24 20 -23 68q0 111 54 162t124 51q70 -1 110 -29q38 -28 66 -62t38 -42t26 -8z" />
    <glyph glyph-name="adieresis" unicode="&#xe4;" 
d="M446 649q-74 0 -126 -61t-52 -176q0 -116 52 -178t128 -62q74 0 125 62t52 176v12q-1 111 -53 169t-126 58zM464 840q92 0 169 -66q18 47 78 47q90 0 90 -98v-627q0 -96 -90 -96q-59 0 -78 45q-77 -65 -169 -65q-170 1 -271 124q-101 122 -101 306t101 307
q102 123 271 123zM166 1083q0 57 36 97t84 39q48 0 86 -39q38 -38 38 -96t-38 -97t-86 -39t-84 39t-36 96zM512 1083q0 57 35 97t84 39q49 0 86 -39q37 -38 37 -96t-37 -97t-86 -39t-84 39t-35 96z" />
    <glyph glyph-name="aring" unicode="&#xe5;" 
d="M446 649q-74 0 -126 -61t-52 -176q0 -116 52 -178t128 -62q74 0 125 62t52 176v12q-1 111 -53 169t-126 58zM464 840q92 0 169 -66q18 47 78 47q90 0 90 -98v-627q0 -96 -90 -96q-59 0 -78 45q-77 -65 -169 -65q-170 1 -271 124q-101 122 -101 306t101 307
q102 123 271 123zM375 1067q1 -35 25 -59t59 -25q35 0 61 25q26 26 25 60q0 34 -26 60q-27 26 -61 25q-34 1 -58 -25t-25 -61zM256 1066q0 90 59 150t145 60t143 -62t58 -149q1 -88 -60 -147q-61 -60 -145 -60t-142 60q-58 58 -58 148z" />
    <glyph glyph-name="ae" unicode="&#xe6;" horiz-adv-x="1421" 
d="M268 412q0 -115 53 -177.5t127 -62.5t125.5 62.5t51.5 175.5v12q-2 111 -53.5 169t-125 58t-126 -61t-52.5 -176zM982 653q-93 0 -148 -100h296q-55 100 -148 100zM985 840q107 0 202 -75.5t118.5 -166t23.5 -121.5t-18.5 -58.5t-59.5 -27.5h-446q6 -100 56 -159.5
t120 -59.5q102 0 135 69t88 68q35 0 60.5 -26.5t25.5 -79t-82 -137.5q-82 -86 -227 -86q-106 0 -190 63q-15 -43 -77 -43t-81 45q-77 -65 -169 -65q-168 1 -270 124t-102 307q0 185 101.5 307t252.5 122q109 0 187 -66q19 47 79 47t79 -45q87 64 194 64z" />
    <glyph glyph-name="ccedilla" unicode="&#xe7;" horiz-adv-x="837" 
d="M295 -469q0 94 84 94q29 0 44 -6t37 -6t41 22.5t19 51.5q0 80 -92 80q-78 0 -78 96v133q-117 35 -187.5 146.5t-70.5 282.5t101.5 293t252.5 122q120 0 211 -74q80 -70 80 -123t-26.5 -82t-65.5 -29t-63 42t-54 58.5t-93 16.5t-115 -61.5t-52 -175.5t52.5 -177t125.5 -63
q102 0 136 69t88 68q35 0 60.5 -26.5t25.5 -65.5q0 -69 -72 -139t-182 -92v-99q198 -16 198 -206q0 -109 -73 -180.5t-176 -71.5q-156 0 -156 102z" />
    <glyph glyph-name="egrave" unicode="&#xe8;" horiz-adv-x="870" 
d="M447 653q-93 0 -148 -100h297q-56 100 -149 100zM458 840q100 0 194 -75q95 -75 134 -226q20 -77 -10 -120q-18 -28 -59 -28h-447q6 -99 56 -159t120 -60q102 0 136 69t88 68q34 -1 60 -27t26 -77t-83 -139t-231 -87t-249 124t-101 295q0 171 95 306q96 136 271 136z
M565 970q-1 -36 -29 -65q-44 -45 -98 -19q-18 9 -32 27l-160 207q-20 20 -20 60t29 68q31 28 65 28t67 -39l158 -205q20 -26 20 -62z" />
    <glyph glyph-name="eacute" unicode="&#xe9;" horiz-adv-x="870" 
d="M447 653q-93 0 -148 -100h297q-56 100 -149 100zM458 840q100 0 194 -75q95 -75 134 -226q20 -77 -10 -120q-18 -28 -59 -28h-447q6 -99 56 -159t120 -60q102 0 136 69t88 68q34 -1 60 -27t26 -77t-83 -139t-231 -87t-249 124t-101 295q0 171 95 306q96 136 271 136z
M586 1276q34 0 64 -29t30 -67t-21 -60l-159 -207q-29 -37 -66 -37q-38 0 -66 30q-28 28 -28 64t20 62l158 205q33 39 68 39z" />
    <glyph glyph-name="ecircumflex" unicode="&#xea;" horiz-adv-x="870" 
d="M447 653q-93 0 -148 -100h297q-56 100 -149 100zM458 840q100 0 194 -75q95 -75 134 -226q20 -77 -10 -120q-18 -28 -59 -28h-447q6 -99 56 -159t120 -60q102 0 136 69t88 68q34 -1 60 -27t26 -77t-83 -139t-231 -87t-249 124t-101 295q0 171 95 306q96 136 271 136z
M698 970q0 -36 -36 -73t-93 -12q-18 8 -32 28l-86 127l-86 -127q-25 -36 -64 -36q-39 1 -68 29t-29 64t21 62l158 205q31 39 68 39t69 -39l158 -205q20 -26 20 -62z" />
    <glyph glyph-name="edieresis" unicode="&#xeb;" horiz-adv-x="870" 
d="M447 653q-93 0 -148 -100h297q-56 100 -149 100zM458 840q100 0 194 -75q95 -75 134 -226q20 -77 -10 -120q-18 -28 -59 -28h-447q6 -99 56 -159t120 -60q102 0 136 69t88 68q34 -1 60 -27t26 -77t-83 -139t-231 -87t-249 124t-101 295q0 171 95 306q96 136 271 136z
M158 1083q0 57 36 97t84 39q48 0 86 -39q38 -38 38 -96t-38 -97t-86 -39t-84 39t-36 96zM504 1083q0 57 35 97t84 39q49 0 86 -39q37 -38 37 -96t-38 -97q-36 -39 -85 -39t-84 39t-35 96z" />
    <glyph glyph-name="igrave" unicode="&#xec;" horiz-adv-x="540" 
d="M373 96q0 -96 -88 -96t-88 96v629q0 96 88 96t88 -96v-629zM395 970q-1 -36 -29 -65q-44 -45 -98 -19q-18 9 -32 27l-160 207q-20 20 -20 60t29 68q30 28 65 28t67 -39l158 -205q20 -26 20 -62z" />
    <glyph glyph-name="iacute" unicode="&#xed;" horiz-adv-x="557" 
d="M348 96q0 -96 -88 -96t-88 96v629q0 96 88 96t88 -96v-629zM392 1276q34 0 64 -29t30 -67t-21 -60l-160 -207q-29 -37 -65 -37t-66 30q-29 28 -29 64t21 62l158 205q34 39 68 39z" />
    <glyph glyph-name="icircumflex" unicode="&#xee;" horiz-adv-x="536" 
d="M369 96q0 -96 -88 -96t-88 96v629q0 96 88 96t88 -96v-629zM526 970q0 -36 -36 -73t-93 -12q-18 8 -32 28l-86 127l-86 -127q-25 -36 -64 -36q-39 1 -68 29t-29 64t21 62l158 205q31 39 68 39t69 -39l158 -205q20 -26 20 -62z" />
    <glyph glyph-name="idieresis" unicode="&#xef;" horiz-adv-x="571" 
d="M377 96q0 -96 -88 -96t-88 96v629q0 96 88 96t88 -96v-629zM-8 1083q0 57 36 97t84 39q48 0 86 -39q38 -38 38 -96t-38 -97t-86 -39t-84 39t-36 96zM338 1083q0 57 35 97t84 39q49 0 86 -39q37 -38 37 -96t-37 -97t-86 -39t-84 39t-35 96z" />
    <glyph glyph-name="eth" unicode="&#xf0;" horiz-adv-x="913" 
d="M635 412q0 115 -52.5 176t-126.5 61t-125.5 -61.5t-51.5 -175.5t51 -177t126 -63t127 62.5t52 177.5zM811 410q0 -183 -101 -306.5t-253 -123.5t-253.5 124.5t-101.5 306.5q0 183 101.5 306t253.5 123q66 0 121 -25q-16 67 -50 150l-71 -70q-29 -25 -59.5 -25t-55.5 26
t-25 62t29 64l107 104q-35 64 -70 88q-29 26 -29 68q0 43 24.5 71.5t65.5 28.5q67 0 144 -129l76 74q26 25 58 25t57.5 -24.5t25.5 -62.5t-29 -63l-108 -106q143 -347 143 -686z" />
    <glyph glyph-name="ntilde" unicode="&#xf1;" horiz-adv-x="921" 
d="M799 481v-389q0 -92 -90 -92q-47 0 -67 23q-19 23 -19 69v389q0 168 -148 168q-74 0 -117 -49t-43 -119v-389q0 -92 -88 -92t-88 92v635q0 94 86 94q59 0 78 -39q70 56 184 58q312 0 312 -359zM575 1106q19 0 19 44t26 68t58 24t58 -21q26 -20 26 -68q0 -111 -54 -162
t-124 -51q-113 0 -181 94q-20 29 -28 37t-25 8q-24 0 -24 -44q0 -45 -27 -67t-59 -22t-57 20q-24 20 -23 68q0 111 54 162t124 51q70 -1 109 -29q38 -28 67 -62t38 -42t23 -8z" />
    <glyph glyph-name="ograve" unicode="&#xf2;" horiz-adv-x="892" 
d="M625 412q1 115 -51 176t-127 61t-127 -61t-52 -176q0 -116 52 -178t128 -62q74 0 126 62t51 178zM92 410q0 184 101 307t255 123q153 0 253 -123t100 -305t-103 -308t-253 -125q-151 1 -252 124t-101 307zM561 970q0 -36 -37 -73t-90 -11q-18 9 -33 27l-159 207
q-20 20 -20 60t29 68q31 28 65 28t67 -39l158 -205q20 -26 20 -62z" />
    <glyph glyph-name="oacute" unicode="&#xf3;" horiz-adv-x="892" 
d="M625 412q1 115 -51 176t-127 61t-127 -61t-52 -176q0 -116 52 -178t128 -62q74 0 126 62t51 178zM92 410q0 184 101 307t255 123q153 0 253 -123t100 -305t-103 -308t-253 -125q-151 1 -252 124t-101 307zM582 1276q34 0 64 -29t30 -67t-21 -60l-159 -207
q-29 -37 -66 -37q-38 0 -66 30q-28 28 -28 64t20 62l158 205q33 39 68 39z" />
    <glyph glyph-name="ocircumflex" unicode="&#xf4;" horiz-adv-x="892" 
d="M625 412q1 115 -51 176t-127 61t-127 -61t-52 -176q0 -116 52 -178t128 -62q74 0 126 62t51 178zM92 410q0 184 101 307t255 123q153 0 253 -123t100 -305t-103 -308t-253 -125q-151 1 -252 124t-101 307zM696 970q0 -36 -36 -73t-93 -12q-18 8 -32 28l-86 127l-87 -127
q-25 -36 -64 -36q-38 1 -67 29t-29 64t21 62l158 205q31 39 68 39t69 -39l158 -205q20 -26 20 -62z" />
    <glyph glyph-name="otilde" unicode="&#xf5;" horiz-adv-x="892" 
d="M625 412q1 115 -51 176t-127 61t-127 -61t-52 -176q0 -116 52 -178t128 -62q74 0 126 62t51 178zM92 410q0 184 101 307t255 123q153 0 253 -123t100 -305t-103 -308t-253 -125q-151 1 -252 124t-101 307zM563 1106q19 0 19 44t25 68q26 24 58 24q33 0 59 -21
q26 -20 26 -68q0 -111 -54 -162t-124 -51t-111 27t-65 61t-34 43q-8 8 -24 8q-25 0 -25 -44q-1 -45 -27 -67t-59 -22t-57 20t-23 68q1 111 55 162t124 51q70 -1 109 -29q38 -28 67 -62t38 -42t23 -8z" />
    <glyph glyph-name="odieresis" unicode="&#xf6;" horiz-adv-x="892" 
d="M625 412q1 115 -51 176t-127 61t-127 -61t-52 -176q0 -116 52 -178t128 -62q74 0 126 62t51 178zM92 410q0 184 101 307t255 123q153 0 253 -123t100 -305t-103 -308t-253 -125q-151 1 -252 124t-101 307zM154 1083q0 57 35 97q36 39 84 39t86 -39q38 -38 38 -96t-38 -97
t-86 -39t-84 39q-35 39 -35 96zM500 1083q0 57 35 97t84 39q49 0 86 -39q37 -38 37 -96t-38 -97q-36 -39 -85 -39t-84 39t-35 96z" />
    <glyph glyph-name="divide" unicode="&#xf7;" horiz-adv-x="1079" 
d="M864 782q88 0 88 -94t-88 -94h-624q-88 0 -88 94t88 94h624zM420 1039q0 59 39 103t92 44t92 -43t39 -103t-39 -103q-39 -42 -92 -42t-92 42t-39 102zM420 339q0 60 39 103t92 43t92 -43t39 -103t-39 -102t-92 -42t-92 42t-39 102z" />
    <glyph glyph-name="oslash" unicode="&#xf8;" horiz-adv-x="892" 
d="M446 172q76 0 127.5 62.5t51.5 175.5q0 55 -13 98l-206 -332q20 -4 40 -4zM446 649q-74 0 -126 -61t-52 -178q0 -37 13 -97l204 332q-20 4 -39 4zM170 133q-78 116 -78 289q0 174 101.5 296t252.5 122q76 0 140 -33l37 59q33 52 73 52t66 -29t26 -64t-14 -57l-51 -84
q78 -112 78 -284t-101.5 -296t-214 -124t-178.5 34l-37 -59q-32 -51 -72 -51t-67 31t-27 63t15 53z" />
    <glyph glyph-name="ugrave" unicode="&#xf9;" horiz-adv-x="923" 
d="M436 -20q-313 0 -313 360v387q0 94 90 94q47 0 67 -22q19 -23 19 -72v-387q0 -168 147 -168q76 0 119 48t43 120v387q0 94 88 94t88 -94v-635q0 -92 -86 -92q-59 0 -80 39q-72 -59 -182 -59zM573 970q-1 -36 -29 -65q-44 -45 -98 -19q-18 9 -32 27l-160 207
q-20 20 -20 60t29 68q30 28 65 28t67 -39l158 -205q20 -26 20 -62z" />
    <glyph glyph-name="uacute" unicode="&#xfa;" horiz-adv-x="923" 
d="M436 -20q-313 0 -313 360v387q0 94 90 94q47 0 67 -22q19 -23 19 -72v-387q0 -168 147 -168q76 0 119 48t43 120v387q0 94 88 94t88 -94v-635q0 -92 -86 -92q-59 0 -80 39q-72 -59 -182 -59zM594 1276q34 0 64 -29t30 -67t-20 -60l-160 -207q-29 -37 -66 -37
q-38 0 -66 30q-28 28 -28 64t21 62l157 205q33 39 68 39z" />
    <glyph glyph-name="ucircumflex" unicode="&#xfb;" horiz-adv-x="923" 
d="M436 -20q-313 0 -313 360v387q0 94 90 94q47 0 67 -22q19 -23 19 -72v-387q0 -168 147 -168q76 0 119 48t43 120v387q0 94 88 94t88 -94v-635q0 -92 -86 -92q-59 0 -80 39q-72 -59 -182 -59zM309 877q-39 1 -67 29t-29 64q0 36 20 62l158 205q31 39 68 39t69 -39
l158 -205q20 -26 20 -62t-28 -65q-29 -29 -68 -28t-65 36l-86 127l-86 -127q-25 -36 -64 -36z" />
    <glyph glyph-name="udieresis" unicode="&#xfc;" 
d="M436 -20q-313 0 -313 360v387q0 94 90 94q47 0 67 -22q19 -23 19 -72v-387q0 -168 147 -168q76 0 119 48t43 120v387q0 94 88 94t88 -94v-635q0 -92 -86 -92q-59 0 -80 39q-72 -59 -182 -59zM164 1083q0 57 36 97t84 39q48 0 86 -39q38 -38 38 -96t-38 -97t-86 -39
t-84 39t-36 96zM510 1083q0 57 35 97t84 39q49 0 86 -39q37 -38 37 -96t-37 -97t-86 -39t-84 39t-35 96z" />
    <glyph glyph-name="yacute" unicode="&#xfd;" horiz-adv-x="833" 
d="M689 821q42 1 70 -25q27 -26 27 -57t-8 -49l-553 -1237q-24 -53 -66 -53t-69 26t-27 62t9 51l258 580l-273 565q-10 24 -10 56t28 57q27 25 55 25q55 -1 83 -54l215 -449l199 453q20 49 62 49zM566 1276q34 0 64 -29t30 -67t-21 -60l-160 -207q-29 -37 -65 -37t-66 30
q-29 28 -29 64t21 62l158 205q34 39 68 39z" />
    <glyph glyph-name="thorn" unicode="&#xfe;" horiz-adv-x="937" 
d="M672 412q0 115 -52.5 176t-126 61t-125 -58.5t-53.5 -168.5v-12q0 -113 51.5 -175.5t126.5 -62.5t127 62.5t52 177.5zM315 -502q0 -98 -88 -98t-88 98v1784q0 100 88 100t88 -100v-500q77 58 165 58q162 1 264 -119.5t102 -309.5q0 -188 -102.5 -309.5t-267.5 -121.5
q-91 0 -161 59v-541z" />
    <glyph glyph-name="ydieresis" unicode="&#xff;" horiz-adv-x="833" 
d="M689 821q42 1 70 -25q27 -26 27 -57t-8 -49l-553 -1237q-24 -53 -66 -53t-69 26t-27 62t9 51l258 580l-273 565q-10 24 -10 56t28 57q27 25 55 25q55 -1 83 -54l215 -449l199 453q20 49 62 49zM143 1083q0 57 36 97t84 39q48 0 86 -39q38 -38 38 -96t-38 -97t-86 -39
t-84 39t-36 96zM489 1083q0 57 35 97t84 39q49 0 86 -39q37 -38 37 -96t-37 -97t-86 -39t-84 39t-35 96z" />
    <glyph glyph-name="Amacron" unicode="&#x100;" horiz-adv-x="1173" 
d="M436 647h301l-151 400zM145 0q-47 0 -73 28t-25 58q0 30 8 47l437 1178q27 71 95 71t95 -73l434 -1176q10 -27 10 -53t-26 -52q-26 -28 -74 -28q-47 0 -72 66l-147 393h-440l-150 -393q-25 -66 -72 -66zM784 1731q92 -1 92 -95t-92 -94h-387q-92 0 -92 94t92 95h387z" />
    <glyph glyph-name="amacron" unicode="&#x101;" 
d="M446 649q-74 0 -126 -61t-52 -176q0 -116 52 -178t128 -62q74 0 125 62t52 176v12q-1 111 -53 169t-126 58zM464 840q92 0 169 -66q18 47 78 47q90 0 90 -98v-627q0 -96 -90 -96q-59 0 -78 45q-77 -65 -169 -65q-170 1 -271 124q-101 122 -101 306t101 307
q102 123 271 123zM649 1169q92 0 92 -94t-92 -94h-387q-92 0 -92 94t92 94h387z" />
    <glyph glyph-name="Abreve" unicode="&#x102;" horiz-adv-x="1173" 
d="M436 647h301l-151 400zM145 0q-47 0 -73 28t-25 58q0 30 8 47l437 1178q27 71 95 71t95 -73l434 -1176q10 -27 10 -53t-26 -52q-26 -28 -74 -28q-47 0 -72 66l-147 393h-440l-150 -393q-25 -66 -72 -66zM313 1736q0 52 23 76t57 25q68 0 84 -74q16 -67 40 -95t75 -28
t76 29t41 94q23 74 82 74q35 0 59 -25q24 -24 22 -76q0 -52 -24 -104q-47 -103 -151 -146q-50 -22 -105 -22q-110 0 -194 81q-85 82 -85 191z" />
    <glyph glyph-name="abreve" unicode="&#x103;" 
d="M446 649q-74 0 -126 -61t-52 -176q0 -116 52 -178t128 -62q74 0 125 62t52 176v12q-1 111 -53 169t-126 58zM464 840q92 0 169 -66q18 47 78 47q90 0 90 -98v-627q0 -96 -90 -96q-59 0 -78 45q-77 -65 -169 -65q-170 1 -271 124q-101 122 -101 306t101 307
q102 123 271 123zM172 1175q0 53 23 77t57 24q68 0 84 -74q16 -66 40 -94t75 -29q51 0 75 29t41 94q23 74 82 74q35 0 59 -25t24 -77t-24 -102q-47 -103 -152 -147q-50 -22 -105 -22q-110 0 -194 81q-85 82 -85 191z" />
    <glyph glyph-name="Aogonek" unicode="&#x104;" horiz-adv-x="1173" 
d="M436 647h301l-151 400zM1087 -367q87 0 87 -88q0 -55 -76 -89t-140 -34q-129 0 -220 74t-91 203q0 236 295 397l-135 363h-440l-150 -393q-25 -66 -72 -66t-72.5 27.5t-25.5 58.5t8 47l437 1178q27 71 95 71t95 -73l434 -1176q10 -27 10 -49q0 -57 -55 -80
q-131 -59 -190.5 -122.5t-59.5 -164.5q0 -53 40 -80.5t84 -27.5t80 12t62 12z" />
    <glyph glyph-name="aogonek" unicode="&#x105;" 
d="M268 412q0 -115 53 -177.5t127 -62.5t125.5 62.5t51.5 175.5v12q-2 111 -53.5 169t-125 58t-126 -61t-52.5 -176zM758 -367q86 0 86 -88q0 -55 -76.5 -89t-139.5 -34q-128 0 -219.5 74.5t-91.5 216.5t127 267q-147 0 -249.5 121.5t-102.5 307.5q0 187 101.5 309
t252.5 122q109 0 187 -66q18 47 78 47q90 0 90 -98v-627q0 -73 -62 -94q-135 -47 -191 -115.5t-56 -169.5q0 -53 40 -80.5t84 -27.5t79.5 12t62.5 12z" />
    <glyph glyph-name="Cacute" unicode="&#x106;" horiz-adv-x="1259" 
d="M102 694q0 148 43 278q88 265 311 375q112 54 224 54q296 0 460 -199q26 -30 25 -66t-27 -65t-61 -29t-61 27q-130 141 -318 141q-187 0 -304 -146t-116 -371q1 -226 116 -373q115 -148 306 -148t316 143q27 31 61 31q33 0 61 -28t27 -68q-2 -83 -139 -174
q-138 -96 -298 -96t-272 56t-190 153t-121 227t-43 278zM824 1837q34 0 64 -29q30 -30 30 -68t-21 -59l-160 -206q-29 -37 -65 -37t-66 28q-28 28 -28 65q0 36 20 62l158 205q34 39 68 39z" />
    <glyph glyph-name="cacute" unicode="&#x107;" horiz-adv-x="837" 
d="M446 840q120 0 211 -74q81 -71 81 -123q-2 -53 -28 -82t-65 -29t-63 42t-55 58q-31 17 -93 17t-114 -61t-52 -176q0 -116 52 -178t126 -62q102 0 136 69t88 68q34 -1 60 -27t26 -65q0 -71 -78 -143q-100 -96 -243 -95q-142 1 -242 124q-101 123 -101 307t101 307
q102 123 253 123zM574 1276q34 0 64 -29t30 -67t-21 -60l-160 -207q-29 -37 -65 -37t-66 30q-28 28 -28 64t20 62l158 205q34 39 68 39z" />
    <glyph glyph-name="Cdotaccent" unicode="&#x10a;" horiz-adv-x="1259" 
d="M102 694q0 148 43 278q88 265 311 375q112 54 224 54q296 0 460 -199q26 -30 25 -66t-27 -65t-61 -29t-61 27q-130 141 -318 141q-187 0 -304 -146t-116 -371q1 -226 116 -373q115 -148 306 -148t316 143q27 31 61 31q33 0 61 -28t27 -68q-2 -83 -139 -174
q-138 -96 -298 -96t-272 56t-190 153t-121 227t-43 278zM567 1645q0 57 36 96t84 39t86 -39t38 -96t-38 -97t-86 -39q-48 -1 -84 39t-36 97z" />
    <glyph glyph-name="cdotaccent" unicode="&#x10b;" horiz-adv-x="837" 
d="M446 840q120 0 211 -74q81 -71 81 -123q-2 -53 -28 -82t-65 -29t-63 42t-55 58q-31 17 -93 17t-114 -61t-52 -176q0 -116 52 -178t126 -62q102 0 136 69t88 68q34 -1 60 -27t26 -65q0 -71 -78 -143q-100 -96 -243 -95q-142 1 -242 124q-101 123 -101 307t101 307
q102 123 253 123zM319 1083q0 57 36 97t84 39q48 0 86 -39q38 -38 38 -96t-38 -97t-86 -39t-84 39t-36 96z" />
    <glyph glyph-name="Ccaron" unicode="&#x10c;" horiz-adv-x="1259" 
d="M102 694q0 148 43 278q88 265 311 375q112 54 224 54q296 0 460 -199q26 -30 25 -66t-27 -65t-61 -29t-61 27q-130 141 -318 141q-187 0 -304 -146t-116 -371q1 -226 116 -373q115 -148 306 -148t316 143q27 31 61 31q33 0 61 -28t27 -68q-2 -83 -139 -174
q-138 -96 -298 -96t-272 56t-190 153t-121 227t-43 278zM473 1808q29 28 68 29q39 0 65 -37l86 -127l86 127q26 37 64 37q40 0 68 -29q28 -28 28 -64t-20 -63l-158 -204q-31 -39 -68 -39t-69 39l-158 204q-21 27 -21 63t29 64z" />
    <glyph glyph-name="ccaron" unicode="&#x10d;" horiz-adv-x="837" 
d="M446 840q120 0 211 -74q81 -71 81 -123q-2 -53 -28 -82t-65 -29t-63 42t-55 58q-31 17 -93 17t-114 -61t-52 -176q0 -116 52 -178t126 -62q102 0 136 69t88 68q34 -1 60 -27t26 -65q0 -71 -78 -143q-100 -96 -243 -95q-142 1 -242 124q-101 123 -101 307t101 307
q102 123 253 123zM193 1183q1 37 29 65t68 28t64 -37l86 -127l86 127q26 37 64 37q40 0 68 -29t28 -65t-20 -62l-158 -205q-31 -39 -68 -39t-69 39l-158 205q-20 27 -20 63z" />
    <glyph glyph-name="Dcaron" unicode="&#x10e;" horiz-adv-x="1271" 
d="M520 1190h-205v-1000h211q197 0 335 148t138 351q1 203 -139 352t-340 149zM1169 690q0 -145 -48 -270q-99 -258 -338 -367q-118 -53 -257 -53h-299q-88 0 -88 92v1196q0 94 88 94h293q281 0 465 -199t184 -493zM342 1808q29 28 68 29q39 0 65 -37l86 -127l86 127
q26 37 64 37q39 0 67 -29q28 -28 29 -64q0 -36 -21 -63l-157 -204q-31 -39 -68 -39t-69 39l-158 204q-20 27 -20 63t28 64z" />
    <glyph glyph-name="dcaron" unicode="&#x10f;" horiz-adv-x="1093" 
d="M446 649q-74 0 -126 -61t-52 -176q0 -116 52 -178t128 -62q74 0 125 62t52 176v12q-1 111 -53 169t-126 58zM625 1282q0 100 88 100t88 -100v-1186q0 -96 -90 -96q-59 0 -78 45q-77 -65 -169 -65q-170 1 -271 124q-101 122 -101 306t101 307t253 123q102 0 179 -58v500z
M1108 1518q34 0 64 -29t30 -68t-20 -59l-160 -207q-29 -37 -66 -37q-38 0 -66 29t-28 65t21 62l157 205q33 39 68 39z" />
    <glyph glyph-name="Dcroat" unicode="&#x110;" horiz-adv-x="1259" 
d="M987 686q1 203 -139 354q-139 150 -342 150h-205v-408h340q88 0 88 -94t-88 -94h-340v-404h211q197 0 337 149q65 69 101 159q37 90 37 188zM1157 690q0 -145 -49 -270q-101 -259 -340 -367q-119 -53 -256 -53h-297q-88 0 -88 92v502h-39q-88 0 -88 94t88 94h39v506
q0 94 88 94h291q141 0 261 -53q239 -106 341 -367q49 -127 49 -272z" />
    <glyph glyph-name="dmacron" unicode="&#x111;" horiz-adv-x="931" 
d="M268 412q0 -115 53 -177.5t127 -62.5t125.5 62.5t51.5 175.5v12q-2 111 -53.5 169t-125 58t-126 -61t-52.5 -176zM625 1081v201q0 100 88 100t88 -100v-201h43q88 0 88 -94t-88 -94h-43v-797q0 -96 -90 -96q-59 0 -78 45q-77 -65 -169 -65q-168 1 -270 124t-102 307
q0 185 101.5 307t252.5 122q102 0 179 -58v111h-179q-88 0 -88 94t88 94h179z" />
    <glyph glyph-name="Emacron" unicode="&#x112;" horiz-adv-x="985" 
d="M803 190q86 0 86 -95t-86 -95h-576q-88 0 -88 92v1196q0 94 88 94h576q86 0 86 -96t-86 -96h-488v-408h369q88 0 88 -94t-88 -94h-369v-404h488zM721 1731q92 -1 92 -95t-92 -94h-387q-92 0 -92 94t92 95h387z" />
    <glyph glyph-name="emacron" unicode="&#x113;" horiz-adv-x="870" 
d="M447 653q-93 0 -148 -100h297q-56 100 -149 100zM458 840q100 0 194 -75q95 -75 134 -226q20 -77 -10 -120q-18 -28 -59 -28h-447q6 -99 56 -159t120 -60q102 0 136 69t88 68q34 -1 60 -27t26 -77t-83 -139t-231 -87t-249 124t-101 295q0 171 95 306q96 136 271 136z
M639 1169q92 0 92 -94t-92 -94h-387q-92 0 -92 94t92 94h387z" />
    <glyph glyph-name="Ebreve" unicode="&#x114;" horiz-adv-x="985" 
d="M803 190q86 0 86 -95t-86 -95h-576q-88 0 -88 92v1196q0 94 88 94h576q86 0 86 -96t-86 -96h-488v-408h369q88 0 88 -94t-88 -94h-369v-404h488zM248 1736q0 52 22 76t58 25q68 0 84 -74q16 -67 40 -95t74 -28t76 29q25 29 41 94q23 74 82 74q35 0 59 -25q24 -24 23 -76
q0 -108 -85 -190t-195 -82t-194 81q-85 82 -85 191z" />
    <glyph glyph-name="ebreve" unicode="&#x115;" horiz-adv-x="870" 
d="M447 653q-93 0 -148 -100h297q-56 100 -149 100zM458 840q100 0 194 -75q95 -75 134 -226q20 -77 -10 -120q-18 -28 -59 -28h-447q6 -99 56 -159t120 -60q102 0 136 69t88 68q34 -1 60 -27t26 -77t-83 -139t-231 -87t-249 124t-101 295q0 171 95 306q96 136 271 136z
M166 1175q0 53 22 77t58 24q68 0 84 -74q16 -66 40 -94t74 -29q50 0 76 29q25 29 41 94q23 74 82 74q35 0 59 -25t23 -77q0 -108 -85 -189q-85 -82 -195 -82t-194 81q-85 82 -85 191z" />
    <glyph glyph-name="Edotaccent" unicode="&#x116;" horiz-adv-x="985" 
d="M803 190q86 0 86 -95t-86 -95h-576q-88 0 -88 92v1196q0 94 88 94h576q86 0 86 -96t-86 -96h-488v-408h369q88 0 88 -94t-88 -94h-369v-404h488zM408 1645q0 57 35 96q36 39 84 39t86 -39t38 -96t-38 -97t-86 -39q-48 0 -84 39q-35 40 -35 97z" />
    <glyph glyph-name="edotaccent" unicode="&#x117;" horiz-adv-x="870" 
d="M447 653q-93 0 -148 -100h297q-56 100 -149 100zM458 840q100 0 194 -75q95 -75 134 -226q20 -77 -10 -120q-18 -28 -59 -28h-447q6 -99 56 -159t120 -60q102 0 136 69t88 68q34 -1 60 -27t26 -77t-83 -139t-231 -87t-249 124t-101 295q0 171 95 306q96 136 271 136z
M326 1083q0 57 35 97q36 39 84 39t86 -39q38 -38 38 -96t-38 -97t-86 -39t-84 39q-35 39 -35 96z" />
    <glyph glyph-name="Eogonek" unicode="&#x118;" horiz-adv-x="985" 
d="M858 -371q86 0 86 -88q0 -57 -77 -90t-139 -33q-128 0 -219 74t-91 224t149 280h-331q-88 0 -89 92v1196q0 94 89 94h575q86 0 86 -96t-86 -96h-487v-408h368q88 0 88 -94t-88 -94h-368v-404h487q86 0 86 -96q0 -70 -57 -90q-135 -47 -191.5 -116.5t-56.5 -170.5
q0 -53 40 -80.5t84 -27.5t79.5 12t62.5 12z" />
    <glyph glyph-name="eogonek" unicode="&#x119;" horiz-adv-x="870" 
d="M446 653q-51 0 -84.5 -24.5t-62.5 -75.5h297q-56 100 -150 100zM598 -367q86 0 86 -88q0 -55 -76.5 -89t-138.5 -34q-129 0 -220 74t-91 211q0 171 159 299q-100 45 -162.5 152.5t-62.5 260.5t94.5 287t259.5 134q111 0 205 -74.5t119 -166t25 -122.5t-18.5 -58.5
t-59.5 -27.5h-447q6 -100 56.5 -159.5t119.5 -59.5q102 0 136 69t88 68q35 0 60.5 -26.5t25.5 -64.5q0 -131 -201 -228q-102 -49 -162.5 -110.5t-60.5 -162.5q0 -53 40 -80.5t84 -27.5t79.5 12t62.5 12z" />
    <glyph glyph-name="Ecaron" unicode="&#x11a;" horiz-adv-x="985" 
d="M803 190q86 0 86 -95t-86 -95h-576q-88 0 -88 92v1196q0 94 88 94h576q86 0 86 -96t-86 -96h-488v-408h369q88 0 88 -94t-88 -94h-369v-404h488zM281 1744q1 36 29 64t68 29q40 0 64 -37l86 -127l86 127q26 37 64 37q40 0 68 -29q28 -28 28 -64t-20 -63l-158 -204
q-31 -39 -68 -39t-69 39l-158 204q-20 27 -20 63z" />
    <glyph glyph-name="ecaron" unicode="&#x11b;" horiz-adv-x="870" 
d="M447 653q-93 0 -148 -100h297q-56 100 -149 100zM458 840q100 0 194 -75q95 -75 134 -226q20 -77 -10 -120q-18 -28 -59 -28h-447q6 -99 56 -159t120 -60q102 0 136 69t88 68q34 -1 60 -27t26 -77t-83 -139t-231 -87t-249 124t-101 295q0 171 95 306q96 136 271 136z
M219 1248q29 28 68 28t65 -37l86 -127l86 127q26 37 64 37q40 0 68 -29t28 -65t-20 -62l-158 -205q-31 -39 -68 -39t-69 39l-158 205q-21 27 -21 63q0 37 29 65z" />
    <glyph glyph-name="Gbreve" unicode="&#x11e;" horiz-adv-x="1443" 
d="M1257 782q88 0 89 -94q0 -295 -169 -499q-81 -97 -196 -153t-254 -56t-254 56q-231 112 -325 381q-46 130 -46 278q0 147 48 277q97 264 328 375q116 54 228 54q291 0 457 -170q45 -45 45 -88t-26 -72t-62 -29q-35 0 -65 31q-57 61 -141 99t-185 38q-195 0 -324 -148
q-128 -148 -127 -369q1 -222 124 -371q123 -150 311 -150t307 116q118 116 143 306h-526q-88 0 -88 94t88 94h620zM444 1736q0 52 23 76t57 25q68 0 84 -74q16 -67 40 -95t75 -28t76 29t41 94q23 74 82 74q34 0 58 -25q24 -24 24 -76q0 -108 -85 -190t-195 -82t-195 81
q-85 82 -85 191z" />
    <glyph glyph-name="gbreve" unicode="&#x11f;" 
d="M625 410q1 117 -51 178t-127 61t-127 -61t-52 -176q0 -116 52 -178t126 -62t125 59t54 166v13zM446 -430q179 0 179 240v229q-77 -59 -165 -59q-167 0 -267 123q-101 123 -101 307t101 307t253 123q109 0 187 -64q18 45 78 45q90 0 90 -96v-915q0 -188 -94 -310
q-96 -121 -261 -121q-126 0 -227 95q-25 24 -53 60t-27 78q0 42 26 69q47 49 105 12q23 -14 39 -51q35 -72 137 -72zM172 1175q0 53 23 77t57 24q68 0 84 -74q16 -66 40 -94t75 -29q51 0 75 29t41 94q23 74 82 74q35 0 59 -25t24 -77t-24 -102q-47 -103 -152 -147
q-50 -22 -105 -22q-110 0 -194 81q-85 82 -85 191z" />
    <glyph glyph-name="Gdotaccent" unicode="&#x120;" horiz-adv-x="1443" 
d="M1257 782q88 0 89 -94q0 -295 -169 -499q-81 -97 -196 -153t-254 -56t-254 56q-231 112 -325 381q-46 130 -46 278q0 147 48 277q97 264 328 375q116 54 228 54q291 0 457 -170q45 -45 45 -88t-26 -72t-62 -29q-35 0 -65 31q-57 61 -141 99t-185 38q-195 0 -324 -148
q-128 -148 -127 -369q1 -222 124 -371q123 -150 311 -150t307 116q118 116 143 306h-526q-88 0 -88 94t88 94h620zM602 1645q0 57 36 96t84 39t86 -39t38 -96t-38 -97t-86 -39q-48 -1 -84 39t-36 97z" />
    <glyph glyph-name="gdotaccent" unicode="&#x121;" 
d="M625 410q1 117 -51 178t-127 61t-127 -61t-52 -176q0 -116 52 -178t126 -62t125 59t54 166v13zM446 -430q179 0 179 240v229q-77 -59 -165 -59q-167 0 -267 123q-101 123 -101 307t101 307t253 123q109 0 187 -64q18 45 78 45q90 0 90 -96v-915q0 -188 -94 -310
q-96 -121 -261 -121q-126 0 -227 95q-25 24 -53 60t-27 78q0 42 26 69q47 49 105 12q23 -14 39 -51q35 -72 137 -72zM330 1083q0 57 36 97t84 39q48 0 86 -39q38 -38 38 -96t-38 -97t-86 -39t-84 39t-36 96z" />
    <glyph glyph-name="Gcommaaccent" unicode="&#x122;" horiz-adv-x="1443" 
d="M1257 782q88 0 89 -94q0 -295 -169 -499q-81 -97 -196 -153t-254 -56t-254 56q-231 112 -325 381q-46 130 -46 278q0 147 48 277q97 264 328 375q116 54 228 54q291 0 457 -170q45 -45 45 -88t-26 -72t-62 -29q-35 0 -65 31q-57 61 -141 99t-185 38q-195 0 -324 -148
q-128 -148 -127 -369q1 -222 124 -371q123 -150 311 -150t307 116q118 116 143 306h-526q-88 0 -88 94t88 94h620zM632 -427q17 17 17 46t-17 72q-17 42 -17 101q-1 58 35 96t92 38t93 -42t37 -106q0 -62 -16 -116q-32 -111 -108 -162q-36 -24 -84 -24q-47 0 -50 49
q0 31 18 48z" />
    <glyph glyph-name="gcommaaccent" unicode="&#x123;" 
d="M625 410q1 117 -51 178t-127 61t-127 -61t-52 -176q0 -116 52 -178t126 -62t125 59t54 166v13zM446 -430q179 0 179 240v229q-77 -59 -165 -59q-167 0 -267 123q-101 123 -101 307t101 307t253 123q109 0 187 -64q18 45 78 45q90 0 90 -96v-915q0 -188 -94 -310
q-96 -121 -261 -121q-126 0 -227 95q-25 24 -53 60t-27 78q0 42 26 69q47 49 105 12q23 -14 39 -51q35 -72 137 -72zM541 1352q57 0 57 -56q0 -24 -17 -42q-38 -39 0 -118q17 -41 17 -100t-36 -97t-92 -38t-93 43q-37 44 -37 106q0 120 61 211q62 91 140 91z" />
    <glyph glyph-name="Hbar" unicode="&#x126;" horiz-adv-x="1173" 
d="M866 782v191h-557v-191h557zM133 1161v121q0 100 88 100t88 -100v-121h557v121q0 100 88 100t88 -100v-121h11q88 0 88 -94t-88 -94h-11v-877q0 -96 -88 -96t-88 96v498h-557v-498q0 -96 -88 -96t-88 96v877h-12q-88 0 -88 94t88 94h12z" />
    <glyph glyph-name="hbar" unicode="&#x127;" horiz-adv-x="913" 
d="M614 481q0 168 -147 168q-74 0 -117 -49t-43 -119v-389q0 -92 -88 -92t-88 92v801h-43q-88 0 -88 94t88 94h43v207q0 94 88 94t88 -94v-207h178q88 0 88 -94t-88 -94h-178v-102q69 49 172 49q312 0 312 -359v-389q0 -92 -91 -92q-47 0 -66.5 22.5t-19.5 69.5v389z" />
    <glyph glyph-name="Imacron" unicode="&#x12a;" horiz-adv-x="628" 
d="M401 1190v-1000h25q86 0 86 -95t-86 -95h-223q-88 0 -88 95t88 95h22v1000h-22q-88 0 -88 96t88 96h223q86 0 86 -96t-86 -96h-25zM508 1731q92 -1 92 -95t-92 -94h-387q-92 0 -92 94t92 95h387z" />
    <glyph glyph-name="imacron" unicode="&#x12b;" horiz-adv-x="585" 
d="M383 96q0 -96 -88 -96t-88 96v629q0 96 88 96t88 -96v-629zM485 1169q93 0 93 -94t-93 -94h-387q-92 0 -92 94t92 94h387z" />
    <glyph glyph-name="Ibreve" unicode="&#x12c;" horiz-adv-x="630" 
d="M416 1190v-1000h24q86 0 86 -95t-86 -95h-223q-88 0 -88 95t88 95h23v1000h-23q-88 0 -88 96t88 96h223q86 0 86 -96t-86 -96h-24zM49 1736q0 52 23 76t57 25q68 0 84 -74q16 -67 40 -95t75 -28q52 0 76 29t40 94q23 74 82 74q35 0 59 -25q23 -24 23 -76t-24 -104
q-47 -103 -151 -146q-50 -22 -105 -22q-110 0 -194 81q-85 82 -85 191z" />
    <glyph glyph-name="ibreve" unicode="&#x12d;" horiz-adv-x="583" 
d="M383 96q0 -96 -88 -96t-88 96v629q0 96 88 96t88 -96v-629zM12 1175q0 53 23 77t57 24q68 0 84 -74q16 -66 40 -94t75 -29q51 0 76 29t41 94q23 74 81 74q35 0 59 -25t24 -77t-24 -102q-47 -103 -152 -147q-50 -22 -105 -22q-110 0 -194 81q-85 82 -85 191z" />
    <glyph glyph-name="Iogonek" unicode="&#x12e;" horiz-adv-x="643" 
d="M481 -367q86 0 86 -88q0 -55 -75.5 -89t-139.5 -34q-129 0 -220 74t-91 211q0 166 152 293q-70 8 -70 99t88 91h22v1000h-22q-88 0 -88 96t88 96h223q86 0 86 -96t-86 -96h-24v-1000h24q86 0 86 -98q0 -69 -59 -90q-135 -45 -190.5 -114.5t-55.5 -170.5q0 -53 40 -80.5
t84 -27.5t80 12t62 12z" />
    <glyph glyph-name="iogonek" unicode="&#x12f;" horiz-adv-x="595" 
d="M219 1032q0 55 34 93t84 38t85 -38t35 -93t-35 -94t-85 -39t-84 39t-34 94zM385 -367q86 0 86 -88q0 -55 -76.5 -89t-138.5 -34q-129 0 -220 74t-91 204t87 234.5t218 165.5v625q0 96 88 96t88 -96v-629q0 -73 -59 -94q-135 -47 -191.5 -115.5t-56.5 -169.5
q0 -53 40 -80.5t84 -27.5t79.5 12t62.5 12z" />
    <glyph glyph-name="Idotaccent" unicode="&#x130;" horiz-adv-x="643" 
d="M410 1190v-1000h24q86 0 86 -95t-86 -95h-223q-88 0 -88 95t88 95h22v1000h-22q-88 0 -88 96t88 96h223q86 0 86 -96t-86 -96h-24zM201 1645q0 57 36 96t84 39t86 -39q37 -39 37 -96t-37 -97q-38 -39 -86 -39q-48 -1 -84 39t-36 97z" />
    <glyph glyph-name="dotlessi" unicode="&#x131;" horiz-adv-x="520" 
d="M348 96q0 -96 -88 -96t-88 96v629q0 96 88 96t88 -96v-629z" />
    <glyph glyph-name="IJ" unicode="&#x132;" horiz-adv-x="1404" 
d="M1282 496q0 -230 -136 -374t-345 -142q-139 0 -269 86q-75 51 -141 153q-22 35 -22 78t26 67q27 24 62 24t54 -16q19 -15 40 -50q45 -86 109 -118t143 -32q143 0 223 91t80 233v788q0 98 88 98t88 -98v-788zM315 96q0 -96 -88 -96t-88 96v1186q0 100 88 100t88 -100
v-1186z" />
    <glyph glyph-name="ij" unicode="&#x133;" horiz-adv-x="890" 
d="M139 1032q0 55 34 93t84 38t85 -38t35 -93t-35 -94t-85 -39t-84 39t-34 94zM346 96q0 -96 -88 -96t-88 96v629q0 96 88 96t88 -96v-629zM514 1032q0 55 35 93t85 38t84 -38t34 -93t-34 -94t-84 -39t-85 39t-35 94zM721 -272q0 -166 -75 -257t-205 -91q-196 -1 -268 168
q-23 54 -23 104t22 74q23 25 57 24q66 0 84 -74q10 -46 32 -76t83 -30q117 0 117 158v997q0 96 88 96t88 -96v-997z" />
    <glyph glyph-name="Kcommaaccent" unicode="&#x136;" horiz-adv-x="1071" 
d="M315 96q0 -96 -88 -96t-88 96v1186q0 100 88 100t88 -100v-399l525 475q24 24 61 24t67 -30t30 -67q0 -36 -35 -66l-582 -514l580 -535q31 -29 31 -69q0 -41 -28 -71q-26 -30 -60 -30t-60 27l-529 495v-426zM481 -524q-57 0 -57 56q0 24 17 41q36 36 10 98
q-27 61 -27 120t36 97t92 38t93 -42t37 -106q0 -122 -61 -213t-140 -89z" />
    <glyph glyph-name="kcommaaccent" unicode="&#x137;" horiz-adv-x="815" 
d="M758 101q0 -45 -28 -73t-59 -28t-59 20l-297 226v-154q0 -92 -88 -92t-88 92v1196q0 94 88 94t88 -94v-713l291 226q26 20 58 20q32 -1 59 -31t27 -71t-35 -70l-326 -239l330 -238q39 -27 39 -71zM327 -427q17 17 17 46t-18 74q-18 44 -17 101q0 56 36 94t92 38t93 -42
t37 -106q0 -122 -61 -213q-61 -92 -139 -89q-55 0 -58 49q0 31 18 48z" />
    <glyph glyph-name="Lacute" unicode="&#x139;" horiz-adv-x="937" 
d="M803 190q86 0 86 -95t-86 -95h-578q-86 0 -86 92v1190q0 100 88 100t88 -100v-1092h488zM510 1837q34 0 64 -29q30 -30 30 -68t-20 -59l-160 -206q-29 -37 -66 -37q-38 0 -66 28t-28 65q0 36 21 62l157 205q33 39 68 39z" />
    <glyph glyph-name="lacute" unicode="&#x13a;" horiz-adv-x="477" 
d="M313 96q0 -96 -88 -96t-88 96v1186q0 100 88 100t88 -100v-1186zM358 1837q34 0 65 -29q30 -30 30 -68t-21 -59l-160 -206q-30 -37 -66 -37t-65 28t-29 65q0 36 21 62l158 205q33 39 67 39z" />
    <glyph glyph-name="Lcommaaccent" unicode="&#x13b;" horiz-adv-x="937" 
d="M803 190q86 0 86 -95t-86 -95h-578q-86 0 -86 92v1190q0 100 88 100t88 -100v-1092h488zM436 -524q-57 0 -57 56q0 24 17 41q36 36 10 98q-27 61 -27 120t36 97t92 38t93 -42t37 -106q0 -122 -61 -213t-140 -89z" />
    <glyph glyph-name="lcommaaccent" unicode="&#x13c;" horiz-adv-x="448" 
d="M315 96q0 -96 -88 -96t-88 96v1186q0 100 88 100t88 -100v-1186zM116 -427q17 17 17 46q1 29 -17 74q-18 44 -18 101q0 56 36 94t92 38t93 -42t37 -106q0 -122 -61 -213q-61 -92 -139 -89q-55 0 -58 49q0 31 18 48z" />
    <glyph glyph-name="Lcaron" unicode="&#x13d;" horiz-adv-x="937" 
d="M803 190q86 0 86 -95t-86 -95h-578q-86 0 -86 92v1190q0 100 88 100t88 -100v-1092h488zM643 1518q35 0 65 -29t30 -68t-21 -59l-160 -207q-29 -37 -66 -37t-65 29t-29 65q0 36 21 62l157 205q33 39 68 39z" />
    <glyph glyph-name="lcaron" unicode="&#x13e;" horiz-adv-x="610" 
d="M315 96q0 -96 -88 -96t-88 96v1186q0 100 88 100t88 -100v-1186zM623 1518q35 0 65 -29t29 -68q0 -39 -21 -59l-159 -207q-29 -37 -66 -37t-65 29t-29 65q0 36 20 62l158 205q33 39 68 39z" />
    <glyph glyph-name="Ldot" unicode="&#x13f;" horiz-adv-x="937" 
d="M803 190q86 0 86 -95t-86 -95h-578q-86 0 -86 92v1190q0 100 88 100t88 -100v-1092h488zM457 776q0 57 36 96t84 39t86 -39q37 -39 37 -96t-38 -96t-85 -39q-48 0 -84 39t-36 96z" />
    <glyph glyph-name="ldot" unicode="&#x140;" horiz-adv-x="555" 
d="M315 96q0 -96 -88 -96t-88 96v1186q0 100 88 100t88 -100v-1186zM383 776q0 57 36 96t84 39t86 -39t38 -96t-38 -96t-86 -39t-84 39t-36 96z" />
    <glyph glyph-name="Lslash" unicode="&#x141;" horiz-adv-x="966" 
d="M168 1282q0 100 88 100t88 -100v-354l217 108q27 10 53 10t51 -30.5t25 -76.5t-49 -73l-297 -147v-529h487q87 0 87 -95t-87 -95h-577q-86 0 -86 92v541q-28 -12 -56 -12t-51.5 31.5t-23.5 75.5t49 73l82 41v440z" />
    <glyph glyph-name="lslash" unicode="&#x142;" horiz-adv-x="737" 
d="M457 96q0 -96 -88 -96t-88 96v590l-111 -55q-28 -10 -54 -10t-49.5 31.5t-23.5 62.5q0 62 49 86l189 92v389q0 100 88 100t88 -100v-299l108 53q27 10 53 10t51 -30.5t25 -65.5q0 -61 -49 -84l-188 -94v-676z" />
    <glyph glyph-name="Nacute" unicode="&#x143;" horiz-adv-x="1196" 
d="M1057 115q-1 -59 -29 -87t-60 -28q-71 0 -104 59l-549 949v-910q0 -98 -88 -98t-88 98v1170q0 57 29 86q29 28 67 28q64 -1 97 -61l549 -946v907q0 100 88 100t88 -100v-1167zM732 1837q34 0 64 -29q30 -30 30 -68t-21 -59l-160 -206q-29 -37 -65 -37t-66 28
q-29 28 -29 65q0 36 21 62l158 205q34 39 68 39z" />
    <glyph glyph-name="nacute" unicode="&#x144;" horiz-adv-x="921" 
d="M799 481v-389q0 -92 -90 -92q-47 0 -67 23q-19 23 -19 69v389q0 168 -148 168q-74 0 -117 -49t-43 -119v-389q0 -92 -88 -92t-88 92v635q0 94 86 94q59 0 78 -39q70 56 184 58q312 0 312 -359zM594 1276q34 0 64 -29t30 -67t-20 -60l-160 -207q-29 -37 -66 -37
q-38 0 -66 30q-28 28 -28 64t21 62l157 205q33 39 68 39z" />
    <glyph glyph-name="Ncommaaccent" unicode="&#x145;" horiz-adv-x="1196" 
d="M1057 115q-1 -59 -29 -87t-60 -28q-71 0 -104 59l-549 949v-910q0 -98 -88 -98t-88 98v1170q0 57 29 86q29 28 67 28q64 -1 97 -61l549 -946v907q0 100 88 100t88 -100v-1167zM628 -74q56 0 93 -42t37 -106q0 -62 -16 -116q-34 -111 -109 -162q-37 -24 -74 -24
q-59 1 -59 49q0 31 17 48q33 33 0 119q-17 41 -17 100q0 58 36 96t92 38z" />
    <glyph glyph-name="ncommaaccent" unicode="&#x146;" horiz-adv-x="921" 
d="M799 481v-389q0 -92 -90 -92q-47 0 -67 23q-19 23 -19 69v389q0 168 -148 168q-74 0 -117 -49t-43 -119v-389q0 -92 -88 -92t-88 92v635q0 94 86 94q59 0 78 -39q70 56 184 58q312 0 312 -359zM403 -524q-57 0 -57 56q0 24 18 41q17 17 17 46q1 29 -17 74q-18 44 -18 101
q0 56 36 94t92 38t93 -42t37 -106q0 -122 -61 -213t-140 -89z" />
    <glyph glyph-name="Ncaron" unicode="&#x147;" horiz-adv-x="1196" 
d="M1057 115q-1 -59 -29 -87t-60 -28q-71 0 -104 59l-549 949v-910q0 -98 -88 -98t-88 98v1170q0 57 29 86q29 28 67 28q64 -1 97 -61l549 -946v907q0 100 88 100t88 -100v-1167zM381 1808q29 28 68 29q39 0 65 -37l86 -127l86 127q26 37 64 37q40 0 68 -29q28 -28 28 -64
t-21 -63l-157 -204q-31 -39 -68 -39t-70 39l-157 204q-21 27 -21 63t29 64z" />
    <glyph glyph-name="ncaron" unicode="&#x148;" horiz-adv-x="921" 
d="M799 481v-389q0 -92 -90 -92q-47 0 -67 23q-19 23 -19 69v389q0 168 -148 168q-74 0 -117 -49t-43 -119v-389q0 -92 -88 -92t-88 92v635q0 94 86 94q59 0 78 -39q70 56 184 58q312 0 312 -359zM213 1183q0 37 29 65t68 28t65 -37l86 -127l86 127q26 37 64 37t67 -29
t29 -65t-21 -62l-158 -205q-32 -39 -68 -39t-69 39l-158 205q-20 27 -20 63z" />
    <glyph glyph-name="Eng" unicode="&#x14a;" horiz-adv-x="1196" 
d="M1057 -272q0 -166 -75 -257.5t-205 -91.5q-230 0 -261 129.5t-31 161.5t22.5 56t57.5 24q66 0 84 -74q10 -45 31.5 -75.5t83.5 -30.5q117 0 117 158v301l-566 979v-910q0 -98 -88 -98t-88 98v1170q0 57 29 85.5t61 28.5q67 0 103 -61l549 -946v907q0 100 88 100t88 -100
v-1554z" />
    <glyph glyph-name="eng" unicode="&#x14b;" horiz-adv-x="921" 
d="M487 840q312 0 312 -359v-753q0 -166 -75 -257.5t-204 -91.5t-211 85t-82 192q0 45 22.5 69.5t61.5 24.5t55.5 -28.5t29 -62.5t34 -61.5t76.5 -27.5q117 0 117 158v753q0 168 -148 168q-74 0 -117 -49t-43 -119v-389q0 -92 -88 -92t-88 92v635q0 94 86 94q59 0 78 -39
q73 58 184 58z" />
    <glyph glyph-name="Omacron" unicode="&#x14c;" horiz-adv-x="1413" 
d="M1135 695q0 110 -29 204q-60 193 -219 271q-80 40 -181 40q-195 0 -312 -146t-116 -371q1 -226 116 -373q114 -148 312 -148q197 0 316 153q113 146 113 370zM102 694q0 148 43 278q88 265 311 375q112 54 250 54q275 0 440 -202t165 -503t-164 -507q-78 -97 -191 -153
q-112 -56 -250 -56t-250 56t-190 153t-121 227t-43 278zM901 1731q92 -1 92 -95t-92 -94h-387q-92 0 -92 94t92 95h387z" />
    <glyph glyph-name="omacron" unicode="&#x14d;" horiz-adv-x="892" 
d="M625 412q1 115 -51 176t-127 61t-127 -61t-52 -176q0 -116 52 -178t128 -62q74 0 126 62t51 178zM92 410q0 184 101 307t255 123q153 0 253 -123t100 -305t-103 -308t-253 -125q-151 1 -252 124t-101 307zM641 1169q92 0 92 -94t-92 -94h-387q-92 0 -92 94t92 94h387z
" />
    <glyph glyph-name="Obreve" unicode="&#x14e;" horiz-adv-x="1413" 
d="M1135 695q0 110 -29 204q-60 193 -219 271q-80 40 -181 40q-195 0 -312 -146t-116 -371q1 -226 116 -373q114 -148 312 -148q197 0 316 153q113 146 113 370zM102 694q0 148 43 278q88 265 311 375q112 54 250 54q275 0 440 -202t165 -503t-164 -507q-78 -97 -191 -153
q-112 -56 -250 -56t-250 56t-190 153t-121 227t-43 278zM430 1736q0 52 23 76t57 25q68 0 84 -74q16 -67 40 -95t75 -28t75 29t41 94q23 74 82 74q35 0 59 -25q24 -24 24 -76t-24 -104q-47 -103 -152 -146q-50 -22 -105 -22q-110 0 -194 81q-85 82 -85 191z" />
    <glyph glyph-name="obreve" unicode="&#x14f;" horiz-adv-x="892" 
d="M625 412q1 115 -51 176t-127 61t-127 -61t-52 -176q0 -116 52 -178t128 -62q74 0 126 62t51 178zM92 410q0 184 101 307t255 123q153 0 253 -123t100 -305t-103 -308t-253 -125q-151 1 -252 124t-101 307zM170 1175q0 53 23 77t57 24q68 0 84 -74q16 -66 40 -94t75 -29
q51 0 75 29t41 94q23 74 82 74q35 0 59 -25t24 -77t-24 -102q-47 -103 -152 -147q-50 -22 -105 -22q-110 0 -194 81q-85 82 -85 191z" />
    <glyph glyph-name="Ohungarumlaut" unicode="&#x150;" horiz-adv-x="1413" 
d="M1135 695q0 110 -29 204q-60 193 -219 271q-80 40 -181 40q-195 0 -312 -146t-116 -371q1 -226 116 -373q114 -148 312 -148q197 0 316 153q113 146 113 370zM102 694q0 148 43 278q88 265 311 375q112 54 250 54q275 0 440 -202t165 -503t-164 -507q-78 -97 -191 -153
q-112 -56 -250 -56t-250 56t-190 153t-121 227t-43 278zM672 1837q34 0 64 -29q30 -30 30 -68t-21 -59l-159 -206q-29 -37 -66 -37q-38 0 -66 28t-28 65q0 36 20 62l158 205q33 39 68 39zM1012 1837q34 0 64 -29q30 -30 30 -68t-21 -59l-159 -206q-29 -37 -66 -37
q-38 0 -66 28t-28 65q0 36 20 62l158 205q33 39 68 39z" />
    <glyph glyph-name="ohungarumlaut" unicode="&#x151;" horiz-adv-x="880" 
d="M625 412q1 115 -51 176t-127 61t-127 -61t-52 -176q0 -116 52 -178t128 -62q74 0 126 62t51 178zM92 410q0 184 101 307t255 123q153 0 253 -123t100 -305t-103 -308t-253 -125q-151 1 -252 124t-101 307zM412 1276q34 0 64 -29t30 -67t-21 -60l-159 -207
q-29 -37 -66 -37q-38 0 -66 30q-28 28 -28 64t20 62l158 205q33 39 68 39zM752 1276q34 0 64 -29t30 -67t-21 -60l-159 -207q-29 -37 -66 -37q-38 0 -66 30q-28 28 -28 64t20 62l158 205q33 39 68 39z" />
    <glyph glyph-name="OE" unicode="&#x152;" horiz-adv-x="1982" 
d="M1135 695q0 226 -116 370.5t-312 144.5t-312 -144t-116 -371t115.5 -375t311.5 -148q197 0 313 148.5t116 374.5zM1135 1288q0 94 88 94h577q86 0 86 -96t-86 -96h-489v-408h370q88 0 88 -94t-88 -94h-370v-404h489q86 0 86 -95t-86 -95h-577q-88 0 -88 92v82
q-164 -194 -433 -194q-268 0 -434 207t-166 509q0 301 165.5 503t432.5 202q266 0 435 -191v78z" />
    <glyph glyph-name="oe" unicode="&#x153;" horiz-adv-x="1419" 
d="M625 412q0 115 -51.5 176t-126.5 61t-127 -61.5t-52 -175.5t53 -177t127 -63t125.5 62.5t51.5 177.5zM979 653q-51 0 -85 -24.5t-63 -75.5h297q-55 100 -149 100zM979 840q111 0 206 -75.5t118.5 -166t23.5 -121.5t-18.5 -58.5t-59.5 -27.5h-446q6 -100 56 -159.5
t120 -59.5q102 0 135 69t88 68q35 0 60.5 -26.5t25.5 -79t-82 -137.5q-82 -86 -237 -86t-256 141q-105 -141 -261 -141t-258 123.5t-102 307.5q0 185 101.5 307t252.5 122q80 0 150 -39t117 -105q103 144 266 144z" />
    <glyph glyph-name="Racute" unicode="&#x154;" horiz-adv-x="1202" 
d="M946 987q0 87 -53 145t-139 58h-439v-408h433q92 0 145 58t53 147zM1122 992q0 -167 -98 -277q-98 -111 -266 -123l350 -440q18 -29 18 -64q0 -36 -26 -62t-64 -26q-37 0 -69 37l-428 555h-224v-496q0 -96 -88 -96t-88 96v1192q0 94 88 94h527q88 0 157 -29
q135 -58 187 -208q24 -72 24 -153zM717 1837q35 0 65 -29q30 -30 29 -68q0 -38 -20 -59l-160 -206q-29 -37 -66 -37t-65 28t-29 65q0 36 21 62l157 205q33 39 68 39z" />
    <glyph glyph-name="racute" unicode="&#x155;" horiz-adv-x="770" 
d="M444 649q-44 0 -78 -33t-51 -92v-422q0 -102 -87 -102t-89 98v631q0 98 88 98q35 0 51 -13t27 -40q69 64 171 65t170 -72t70 -134q1 -61 -23 -85t-52 -24q-61 1 -86 58q-16 39 -41 53t-70 14zM560 1276q34 0 64 -29t30 -67t-21 -60l-160 -207q-29 -37 -65 -37t-66 30
q-29 28 -29 64t21 62l158 205q34 39 68 39z" />
    <glyph glyph-name="Rcommaaccent" unicode="&#x156;" horiz-adv-x="1202" 
d="M946 987q0 87 -53 145t-139 58h-439v-408h433q92 0 145 58t53 147zM1122 992q0 -167 -98 -277q-98 -111 -266 -123l350 -440q18 -29 18 -64q0 -36 -26 -62t-64 -26q-37 0 -69 37l-428 555h-224v-496q0 -96 -88 -96t-88 96v1192q0 94 88 94h527q88 0 157 -29
q135 -58 187 -208q24 -72 24 -153zM520 -524q-57 0 -57 56q0 24 17 41q36 36 10 98q-27 61 -27 120t36 97t92 38t93 -42t37 -106q1 -123 -61 -213q-62 -91 -140 -89z" />
    <glyph glyph-name="rcommaaccent" unicode="&#x157;" horiz-adv-x="772" 
d="M446 649q-44 0 -78 -33t-51 -92v-422q0 -102 -87 -102t-89 98v631q0 98 88 98q35 0 51 -13t27 -40q69 64 171 65t170 -72t70 -134q1 -61 -23 -85t-52 -24q-61 1 -86 58q-16 39 -41 53t-70 14zM157 -427q17 17 17 46t-18 74q-18 44 -17 101q0 56 36 94t92 38t93 -42
t37 -106q0 -122 -61 -213q-61 -92 -139 -89q-55 0 -58 49q0 31 18 48z" />
    <glyph glyph-name="Rcaron" unicode="&#x158;" horiz-adv-x="1202" 
d="M946 987q0 87 -53 145t-139 58h-439v-408h433q92 0 145 58t53 147zM1122 992q0 -167 -98 -277q-98 -111 -266 -123l350 -440q18 -29 18 -64q0 -36 -26 -62t-64 -26q-37 0 -69 37l-428 555h-224v-496q0 -96 -88 -96t-88 96v1192q0 94 88 94h527q88 0 157 -29
q135 -58 187 -208q24 -72 24 -153zM336 1744q0 36 29 64t68 29q39 0 65 -37l86 -127l86 127q26 37 64 37t67 -29q29 -28 29 -64t-21 -63l-158 -204q-31 -39 -67 -39t-70 39l-158 204q-20 27 -20 63z" />
    <glyph glyph-name="rcaron" unicode="&#x159;" horiz-adv-x="770" 
d="M444 649q-44 0 -78 -33t-51 -92v-422q0 -102 -87 -102t-89 98v631q0 98 88 98q35 0 51 -13t27 -40q69 64 171 65t170 -72t70 -134q1 -61 -23 -85t-52 -24q-61 1 -86 58q-16 39 -41 53t-70 14zM209 1248q29 28 68 28t65 -37l86 -127l86 127q26 37 64 37q40 0 68 -29
t28 -65t-21 -62l-157 -205q-31 -39 -68 -39t-70 39l-157 205q-21 27 -21 63q0 37 29 65z" />
    <glyph glyph-name="Sacute" unicode="&#x15a;" horiz-adv-x="942" 
d="M852 371q0 -165 -100 -275q-48 -52 -119 -84q-70 -32 -146 -32q-198 0 -311 148q-60 79 -71 119q-11 39 -11 73t26 58t56 24q58 -1 84 -64q33 -86 81 -124t143 -38q96 0 144 60t48 120q0 121 -56 181q-56 59 -136 109q-209 132 -283 260q-43 75 -43 157q0 152 92 245
t212 93t204 -58q122 -84 120 -194q0 -41 -26 -66t-55 -24q-51 0 -78 57q-51 96 -146 94q-69 0 -107 -34t-38 -90t29 -103t154 -134q42 -30 111 -79t121 -106q53 -57 77 -123t24 -170zM616 1837q34 0 65 -29q30 -30 30 -68t-21 -59l-160 -206q-30 -37 -66 -37t-65 28t-29 65
q0 36 21 62l158 205q33 39 67 39z" />
    <glyph glyph-name="sacute" unicode="&#x15b;" horiz-adv-x="782" 
d="M94 258q0 41 23 67q23 25 65 25t63 -20t29 -64t40 -78q32 -32 94 -32t87 30t25 67q0 38 -55 60q-47 17 -95 31t-108 41q-125 56 -125 215q0 104 70 172t199 68q86 0 144 -30q95 -49 113 -104q7 -22 7 -56t-26 -60t-70 -25q-44 0 -68 37q-43 70 -107 72q-86 0 -86 -74
q0 -23 11 -37t128 -54q116 -40 156 -67q88 -55 88 -178t-78 -204t-209 -81q-130 1 -222 81q-93 79 -93 198zM537 1276q35 0 65 -29t29 -67q0 -38 -21 -60l-159 -207q-29 -37 -66 -37t-66 30q-29 28 -29 64t21 62l158 205q33 39 68 39z" />
    <glyph glyph-name="Scedilla" unicode="&#x15e;" horiz-adv-x="942" 
d="M309 -469q0 94 84 94q29 0 44 -6t37 -6t41.5 22.5t19.5 51.5q0 80 -93 80q-78 0 -77 96v133q-164 46 -252 231q-19 43 -19 85t25.5 65.5t55.5 23.5q60 0 85 -63q33 -86 81 -124t143 -38t143.5 59t48.5 121q0 118 -56 180q-56 60 -135 110t-160 118q-167 140 -167 297
q0 156 92 248t212 92t204 -58q120 -82 120 -194q0 -41 -25.5 -65.5t-55.5 -24.5q-51 0 -78 57q-50 94 -146 94q-70 0 -107.5 -34t-37.5 -90t22.5 -93t70.5 -76t90 -68.5t111.5 -78t120.5 -106.5q52 -57 76.5 -123t24.5 -155q0 -166 -91 -279t-245 -125v-95
q98 -8 148.5 -61.5t50.5 -125.5q0 -127 -73.5 -199t-176.5 -72q-156 0 -156 102z" />
    <glyph glyph-name="scedilla" unicode="&#x15f;" horiz-adv-x="782" 
d="M254 -469q0 94 84 94q29 0 44 -6t37 -6t41 22.5t19 51.5q0 80 -92 80q-78 0 -78 96v131q-89 21 -152 96t-63 168q0 41 22.5 66.5t64.5 25.5t63.5 -20.5t29.5 -64.5t40 -76.5t94 -32.5t87 29.5t25 67.5t-55 60q-47 16 -95 30.5t-108 41.5q-125 56 -125 215q0 104 69.5 172
t199.5 68q86 0 144 -30t89 -64t31 -82t-26 -73.5t-70 -25.5t-68 37q-44 72 -107 72q-86 0 -86 -74q0 -23 10.5 -36t39.5 -24t115.5 -40t129.5 -58q88 -56 88 -172t-62.5 -193t-172.5 -93v-97q198 -16 198 -206q0 -109 -73 -180.5t-176 -71.5q-156 0 -156 102z" />
    <glyph glyph-name="Scaron" unicode="&#x160;" horiz-adv-x="942" 
d="M852 371q0 -165 -100 -275q-48 -52 -119 -84q-70 -32 -146 -32q-198 0 -311 148q-60 79 -71 119q-11 39 -11 73t26 58t56 24q58 -1 84 -64q33 -86 81 -124t143 -38q96 0 144 60t48 120q0 121 -56 181q-56 59 -136 109q-209 132 -283 260q-43 75 -43 157q0 152 92 245
t212 93t204 -58q122 -84 120 -194q0 -41 -26 -66t-55 -24q-51 0 -78 57q-51 96 -146 94q-69 0 -107 -34t-38 -90t29 -103t154 -134q42 -30 111 -79t121 -106q53 -57 77 -123t24 -170zM236 1744q0 36 28 64t69 29q40 0 64 -37l86 -127l86 127q26 37 64 37q39 0 67 -29
q28 -28 29 -64q0 -36 -20 -63l-158 -204q-31 -39 -68 -39t-69 39l-158 204q-20 27 -20 63z" />
    <glyph glyph-name="scaron" unicode="&#x161;" horiz-adv-x="782" 
d="M94 258q0 41 23 67q23 25 65 25t63 -20t29 -64t40 -78q32 -32 94 -32t87 30t25 67q0 38 -55 60q-47 17 -95 31t-108 41q-125 56 -125 215q0 104 70 172t199 68q86 0 144 -30q95 -49 113 -104q7 -22 7 -56t-26 -60t-70 -25q-44 0 -68 37q-43 70 -107 72q-86 0 -86 -74
q0 -23 11 -37t128 -54q116 -40 156 -67q88 -55 88 -178t-78 -204t-209 -81q-130 1 -222 81q-93 79 -93 198zM156 1183q0 37 28 65t69 28q40 0 64 -37l86 -127l86 127q26 37 64 37q39 0 68 -29t29 -65t-21 -62l-158 -205q-31 -39 -68 -39t-69 39l-158 205q-20 27 -20 63z" />
    <glyph glyph-name="Tcedilla" unicode="&#x162;" horiz-adv-x="1122" 
d="M989 1382q84 0 84 -96t-84 -96h-338v-1092q0 -98 -88 -98t-88 98v1092h-340q-86 0 -86 96t86 96h854zM460 -427q17 17 17 46q1 29 -17 74q-18 44 -18 101q0 56 36 94t92 38t93 -42t37 -106q0 -122 -61 -213q-61 -92 -139 -89q-55 0 -58 49q0 31 18 48z" />
    <glyph glyph-name="tcedilla" unicode="&#x163;" horiz-adv-x="677" 
d="M551 821q86 0 86 -94t-86 -94h-129v-535q0 -98 -88 -98t-88 98v535h-117q-88 0 -88 94t88 94h117v166q0 94 88 94t88 -94v-166h129zM266 -524q-57 0 -57 56q0 24 17 41q36 36 10 98q-27 61 -27 120t36 97t92 38t93 -42t37 -106q0 -122 -61 -213t-140 -89z" />
    <glyph glyph-name="Tcaron" unicode="&#x164;" horiz-adv-x="1122" 
d="M989 1382q84 0 84 -96t-84 -96h-338v-1092q0 -98 -88 -98t-88 98v1092h-340q-86 0 -86 96t86 96h854zM322 1744q0 36 28 64t69 29q40 0 64 -37l86 -127l86 127q26 37 64 37q39 0 67 -29q28 -28 29 -64q0 -36 -20 -63l-158 -204q-31 -39 -68 -39t-69 39l-158 204
q-20 27 -20 63z" />
    <glyph glyph-name="tcaron" unicode="&#x165;" horiz-adv-x="749" 
d="M551 821q86 0 86 -94t-86 -94h-129v-535q0 -98 -88 -98t-88 98v535h-117q-88 0 -88 94t88 94h117v166q0 94 88 94t88 -94v-166h129zM764 1518q34 0 64 -29t30 -68t-20 -59l-160 -207q-29 -37 -66 -37q-38 0 -66 29t-28 65t21 62l157 205q33 39 68 39z" />
    <glyph glyph-name="Tbar" unicode="&#x166;" horiz-adv-x="1122" 
d="M475 821v369h-340q-86 0 -86 96t86 96h854q84 0 84 -96t-84 -96h-338v-369h127q88 0 88 -94t-88 -94h-127v-535q0 -98 -88 -98t-88 98v535h-131q-88 0 -88 94t88 94h131z" />
    <glyph glyph-name="tbar" unicode="&#x167;" horiz-adv-x="677" 
d="M246 496v137h-117q-88 0 -88 94t88 94h117v166q0 94 88 94t88 -94v-166h129q86 0 86 -94t-86 -94h-129v-137h121q88 0 88 -94.5t-88 -94.5h-121v-209q0 -98 -88 -98t-88 98v209h-111q-88 0 -88 94t88 95h111z" />
    <glyph glyph-name="Utilde" unicode="&#x168;" horiz-adv-x="1210" 
d="M606 172q141 0 223 87t82 235v788q0 100 88 100t88 -100v-788q0 -232 -133 -374t-349 -141t-349 143t-133 372v788q0 100 88 100t88 -100v-788q0 -146 83 -234t224 -88zM482 1808q70 0 108 -28t68 -63q30 -34 38 -42t24 -8t17 44q0 44 26 68q25 23 57 23t59 -20t26 -68
q0 -111 -54 -162q-53 -51 -123 -51q-115 0 -181 94q-21 29 -29 37t-24 8q-25 0 -25 -44t-27 -66q-28 -22 -60 -23q-32 1 -56 21t-23 67q0 111 54 162q55 51 125 51z" />
    <glyph glyph-name="utilde" unicode="&#x169;" horiz-adv-x="923" 
d="M436 -20q-313 0 -313 360v387q0 94 90 94q47 0 67 -22q19 -23 19 -72v-387q0 -168 147 -168q76 0 119 48t43 120v387q0 94 88 94t88 -94v-635q0 -92 -86 -92q-59 0 -80 39q-72 -59 -182 -59zM575 1106q19 0 19 44t26 68t58 24t58 -21q26 -20 26 -68q0 -111 -54 -162
t-124 -51q-113 0 -181 94q-20 29 -28 37t-25 8q-24 0 -24 -44q0 -45 -27 -67t-59 -22t-57 20q-24 20 -23 68q0 111 54 162t124 51q70 -1 109 -29q38 -28 67 -62t38 -42t23 -8z" />
    <glyph glyph-name="Umacron" unicode="&#x16a;" horiz-adv-x="1210" 
d="M606 172q141 0 223 87t82 235v788q0 100 88 100t88 -100v-788q0 -232 -133 -374t-349 -141t-349 143t-133 372v788q0 100 88 100t88 -100v-788q0 -146 83 -234t224 -88zM799 1731q92 -1 92 -95t-92 -94h-387q-92 0 -93 94q0 94 93 95h387z" />
    <glyph glyph-name="umacron" unicode="&#x16b;" horiz-adv-x="923" 
d="M436 -20q-313 0 -313 360v387q0 94 90 94q47 0 67 -22q19 -23 19 -72v-387q0 -168 147 -168q76 0 119 48t43 120v387q0 94 88 94t88 -94v-635q0 -92 -86 -92q-59 0 -80 39q-72 -59 -182 -59zM655 1169q93 0 93 -94t-93 -94h-387q-92 0 -92 94t92 94h387z" />
    <glyph glyph-name="Ubreve" unicode="&#x16c;" horiz-adv-x="1210" 
d="M606 172q141 0 223 87t82 235v788q0 100 88 100t88 -100v-788q0 -232 -133 -374t-349 -141t-349 143t-133 372v788q0 100 88 100t88 -100v-788q0 -146 83 -234t224 -88zM328 1736q0 52 22 76t58 25q68 0 84 -74q16 -67 40 -95t74 -28q51 0 76 29t41 94q23 74 82 74
q35 0 59 -25q24 -24 23 -76q0 -108 -85 -190t-195 -82t-194 81q-85 82 -85 191z" />
    <glyph glyph-name="ubreve" unicode="&#x16d;" horiz-adv-x="923" 
d="M436 -20q-313 0 -313 360v387q0 94 90 94q47 0 67 -22q19 -23 19 -72v-387q0 -168 147 -168q76 0 119 48t43 120v387q0 94 88 94t88 -94v-635q0 -92 -86 -92q-59 0 -80 39q-72 -59 -182 -59zM182 1175q0 53 23 77t57 24q68 0 84 -74q16 -66 40 -94t75 -29q51 0 76 29
t41 94q23 74 81 74q35 0 59 -25t24 -77t-24 -102q-47 -103 -152 -147q-50 -22 -105 -22q-110 0 -194 81q-85 82 -85 191z" />
    <glyph glyph-name="Uring" unicode="&#x16e;" horiz-adv-x="1210" 
d="M606 172q141 0 223 87t82 235v788q0 100 88 100t88 -100v-788q0 -232 -133 -374t-349 -141t-349 143t-133 372v788q0 100 88 100t88 -100v-788q0 -146 83 -234t224 -88zM520 1628q0 -36 25 -60t59 -24t61 25q25 25 25 59t-25 61q-26 25 -61 25q-36 0 -60 -26t-24 -60z
M604 1837q85 0 144 -62t59 -150t-61 -145q-59 -59 -143 -60t-143 59t-59 148t59 149t144 61z" />
    <glyph glyph-name="uring" unicode="&#x16f;" horiz-adv-x="923" 
d="M436 -20q-313 0 -313 360v387q0 94 90 94q47 0 67 -22q19 -23 19 -72v-387q0 -168 147 -168q76 0 119 48t43 120v387q0 94 88 94t88 -94v-635q0 -92 -86 -92q-59 0 -80 39q-72 -59 -182 -59zM375 1067q1 -35 25 -59t59 -25q35 0 61 25q26 26 25 60q0 34 -26 60
q-27 26 -61 25q-34 1 -58 -25t-25 -61zM256 1066q0 90 59 150t145 60t143 -62t58 -149q1 -88 -60 -147q-61 -60 -145 -60t-142 60q-58 58 -58 148z" />
    <glyph glyph-name="Uhungarumlaut" unicode="&#x170;" horiz-adv-x="1210" 
d="M606 172q141 0 223 87t82 235v788q0 100 88 100t88 -100v-788q0 -232 -133 -374t-349 -141t-349 143t-133 372v788q0 100 88 100t88 -100v-788q0 -146 83 -234t224 -88zM570 1837q34 0 64 -29q30 -30 30 -68t-21 -59l-160 -206q-29 -37 -65 -37t-66 28q-28 28 -28 65
q0 36 20 62l158 205q34 39 68 39zM910 1837q34 0 64 -29q30 -30 30 -68t-21 -59l-160 -206q-29 -37 -65 -37t-66 28q-28 28 -28 65q0 36 20 62l158 205q34 39 68 39z" />
    <glyph glyph-name="uhungarumlaut" unicode="&#x171;" horiz-adv-x="907" 
d="M436 -20q-313 0 -313 360v387q0 94 90 94q47 0 67 -22q19 -23 19 -72v-387q0 -168 147 -168q76 0 119 48t43 120v387q0 94 88 94t88 -94v-635q0 -92 -86 -92q-59 0 -80 39q-72 -59 -182 -59zM424 1276q34 0 64 -29t30 -67t-20 -60l-160 -207q-29 -37 -66 -37
q-38 0 -66 30q-28 28 -28 64t21 62l157 205q33 39 68 39zM764 1276q34 0 64 -29t30 -67t-20 -60l-160 -207q-29 -37 -66 -37q-38 0 -66 30q-28 28 -28 64t21 62l157 205q33 39 68 39z" />
    <glyph glyph-name="Uogonek" unicode="&#x172;" horiz-adv-x="1210" 
d="M774 -367q86 0 86 -88q0 -55 -76.5 -89t-138.5 -34q-129 0 -220 74t-91 223t143 275q-166 39 -260 170t-94 330v788q0 100 88 100t88 -100v-788q0 -147 83 -234.5t224.5 -87.5t223 87t81.5 235v788q0 100 88 100t88 -100v-788q0 -197 -96.5 -320t-238.5 -173t-193 -117.5
t-51 -166.5q0 -53 40 -80.5t84 -27.5t80 12t62 12z" />
    <glyph glyph-name="uogonek" unicode="&#x173;" horiz-adv-x="923" 
d="M745 -367q86 0 86 -88q0 -55 -75.5 -89t-139.5 -34q-129 0 -220 74t-91 217t127 267q-160 2 -234.5 92t-74.5 268v387q0 94 90 94q47 0 66.5 -22.5t19.5 -71.5v-387q0 -168 147 -168q76 0 119 48t43 120v387q0 94 88 94t88 -94v-635q0 -70 -59 -90
q-135 -45 -190.5 -114.5t-55.5 -170.5q0 -53 40 -80.5t84 -27.5t80 12t62 12z" />
    <glyph glyph-name="Wcircumflex" unicode="&#x174;" horiz-adv-x="2078" 
d="M2032 1296q0 -29 -9 -47l-436 -1179q-28 -70 -95 -70t-93 72l-359 968l-360 -970q-28 -70 -96 -70t-92 72l-437 1175q-8 16 -8 47t26 60q27 28 73 28t71 -65l369 -983l368 983q12 35 30 50t55 15t55 -17t30 -48l369 -983l369 983q26 65 72 65t72 -28t26 -58zM1292 1530
q0 -36 -36 -72q-36 -37 -93 -12q-18 8 -33 29l-86 127l-86 -127q-26 -37 -64 -37t-67 28t-29 65q0 36 21 62l158 205q31 39 67 39t70 -39l158 -205q20 -27 20 -63z" />
    <glyph glyph-name="wcircumflex" unicode="&#x175;" horiz-adv-x="1425" 
d="M424 0q-63 0 -94 70l-275 614q-8 16 -8 52t28 61q50 45 104 11q22 -13 34 -42l211 -487l209 487q23 55 79 55t79 -55l210 -487l209 487q23 55 80 55q33 -1 61 -25q27 -24 27 -58t-10 -54l-272 -614q-16 -34 -43 -52t-52 -18q-63 0 -94 70l-194 440l-195 -440
q-16 -34 -42 -52t-52 -18zM473 970q0 36 21 62l157 205q31 39 68 39t69 -39l158 -205q20 -26 20 -62t-28 -65q-29 -29 -68 -28t-65 36l-86 127l-86 -127q-25 -36 -64 -36q-39 1 -67 29t-29 64z" />
    <glyph glyph-name="Ycircumflex" unicode="&#x176;" horiz-adv-x="1107" 
d="M553 0q-88 0 -88 96v559l-399 576q-18 27 -18 63t26 63q26 25 64 25t69 -43l346 -489l346 489q30 43 69 43q40 0 66 -26t27 -62q0 -37 -19 -63l-401 -576v-559q0 -96 -88 -96zM409 1438q-38 0 -67 28t-29 65q0 36 21 62l158 205q32 39 68 39t69 -39l157 -205
q20 -27 20 -63t-35 -71q-36 -36 -93 -13q-18 8 -33 29l-86 127l-86 -127q-26 -37 -64 -37z" />
    <glyph glyph-name="ycircumflex" unicode="&#x177;" horiz-adv-x="833" 
d="M689 821q42 1 70 -25q27 -26 27 -57t-8 -49l-553 -1237q-24 -53 -66 -53t-69 26t-27 62t9 51l258 580l-273 565q-10 24 -10 56t28 57q27 25 55 25q55 -1 83 -54l215 -449l199 453q20 49 62 49zM282 877q-38 1 -67 29t-29 64t21 62l158 205q31 39 67 39t70 -39l157 -205
q21 -26 21 -62t-36 -72t-93 -13q-18 8 -33 28l-86 127l-86 -127q-26 -36 -64 -36z" />
    <glyph glyph-name="Ydieresis" unicode="&#x178;" horiz-adv-x="1107" 
d="M553 0q-88 0 -88 96v559l-399 576q-18 27 -18 63t26 63q26 25 64 25t69 -43l346 -489l346 489q30 43 69 43q40 0 66 -26t27 -62q0 -37 -19 -63l-401 -576v-559q0 -96 -88 -96zM264 1645q0 57 36 96t84 39t86 -39t38 -96t-38 -97t-86 -39q-48 -1 -84 39t-36 97zM610 1645
q0 57 35 96t84 39t86 -39t37 -96t-37 -97t-86 -39q-49 -1 -84 39t-35 97z" />
    <glyph glyph-name="Zacute" unicode="&#x179;" horiz-adv-x="1089" 
d="M932 190q86 0 86 -95t-86 -95h-742q-50 0 -76 28t-26 70t27 82l641 1010h-596q-88 0 -88 96t88 96h739q53 0 77 -34t24 -74q0 -41 -21 -74l-647 -1010h600zM694 1837q34 0 65 -29q29 -30 29 -68t-20 -59l-160 -206q-30 -37 -66 -37t-65 28t-29 65q0 36 21 62l158 205
q33 39 67 39z" />
    <glyph glyph-name="zacute" unicode="&#x17a;" horiz-adv-x="903" 
d="M737 190q86 0 86 -95t-86 -95h-538q-47 0 -76 31t-29 75t33 80l405 445h-364q-88 0 -88 95t88 95h534q51 0 79 -34q28 -33 28 -75t-29 -77l-409 -445h366zM600 1276q35 0 65 -29q29 -29 29 -67t-20 -60l-160 -207q-29 -37 -66 -37q-38 0 -66 30q-28 28 -28 64t21 62
l157 205q33 39 68 39z" />
    <glyph glyph-name="Zdotaccent" unicode="&#x17b;" horiz-adv-x="1089" 
d="M932 190q86 0 86 -95t-86 -95h-742q-50 0 -76 28t-26 70t27 82l641 1010h-596q-88 0 -88 96t88 96h739q53 0 77 -34t24 -74q0 -41 -21 -74l-647 -1010h600zM440 1645q0 57 36 96t84 39t86 -39t38 -96t-38 -97t-86 -39q-48 -1 -84 39t-36 97z" />
    <glyph glyph-name="zdotaccent" unicode="&#x17c;" horiz-adv-x="903" 
d="M737 190q86 0 86 -95t-86 -95h-538q-47 0 -76 31t-29 75t33 80l405 445h-364q-88 0 -88 95t88 95h534q51 0 79 -34q28 -33 28 -75t-29 -77l-409 -445h366zM346 1083q0 57 36 97t84 39q48 0 86 -39q38 -38 38 -96t-38 -97t-86 -39t-84 39t-36 96z" />
    <glyph glyph-name="Zcaron" unicode="&#x17d;" horiz-adv-x="1089" 
d="M932 190q86 0 86 -95t-86 -95h-742q-50 0 -76 28t-26 70t27 82l641 1010h-596q-88 0 -88 96t88 96h739q53 0 77 -34t24 -74q0 -41 -21 -74l-647 -1010h600zM338 1808q29 28 68 29q39 0 65 -37l86 -127l86 127q26 37 64 37q39 0 67 -29q28 -28 29 -64q0 -36 -21 -63
l-157 -204q-31 -39 -68 -39t-70 39l-157 204q-20 27 -20 63t28 64z" />
    <glyph glyph-name="zcaron" unicode="&#x17e;" horiz-adv-x="903" 
d="M737 190q86 0 86 -95t-86 -95h-538q-47 0 -76 31t-29 75t33 80l405 445h-364q-88 0 -88 95t88 95h534q51 0 79 -34q28 -33 28 -75t-29 -77l-409 -445h366zM244 1248q29 28 68 28t65 -37l86 -127l86 127q26 37 64 37t67 -29t29 -65t-21 -62l-158 -205q-32 -39 -68 -39
t-69 39l-157 205q-20 27 -20 63q0 37 28 65z" />
    <glyph glyph-name="florin" unicode="&#x192;" horiz-adv-x="1017" 
d="M420 821v230q0 166 74.5 258t201.5 92t211 -81.5t84 -195.5q0 -47 -22.5 -70.5t-57.5 -23.5q-66 0 -84 74q-10 45 -31.5 75.5t-82.5 30.5q-117 0 -117 -159v-230h119q88 0 88 -94t-88 -94h-119v-864q0 -166 -75 -257.5t-203 -91.5t-210.5 81.5t-82.5 195.5
q0 45 22.5 69.5t56.5 24.5q66 0 82 -74q10 -45 32 -75.5t85 -30.5q117 0 117 158v864h-78q-88 0 -88 94t88 94h78z" />
    <glyph glyph-name="Scommaaccent" unicode="&#x218;" horiz-adv-x="942" 
d="M852 371q0 -165 -100 -275q-48 -52 -119 -84q-70 -32 -146 -32q-198 0 -311 148q-60 79 -71 119q-11 39 -11 73t26 58t56 24q58 -1 84 -64q33 -86 81 -124t143 -38q96 0 144 60t48 120q0 121 -56 181q-56 59 -136 109q-209 132 -283 260q-43 75 -43 157q0 152 92 245
t212 93t204 -58q122 -84 120 -194q0 -41 -26 -66t-55 -24q-51 0 -78 57q-51 96 -146 94q-69 0 -107 -34t-38 -90t29 -103t154 -134q42 -30 111 -79t121 -106q53 -57 77 -123t24 -170zM374 -427q17 17 17 46q1 29 -17 74q-18 44 -18 101q0 56 36 94t92 38t93 -42t37 -106
q0 -122 -61 -213q-61 -92 -139 -89q-55 0 -58 49q0 31 18 48z" />
    <glyph glyph-name="scommaaccent" unicode="&#x219;" horiz-adv-x="782" 
d="M94 258q0 41 23 67q23 25 65 25t63 -20t29 -64t40 -78q32 -32 94 -32t87 30t25 67q0 38 -55 60q-47 17 -95 31t-108 41q-125 56 -125 215q0 104 70 172t199 68q86 0 144 -30q95 -49 113 -104q7 -22 7 -56t-26 -60t-70 -25q-44 0 -68 37q-43 70 -107 72q-86 0 -86 -74
q0 -23 11 -37t128 -54q116 -40 156 -67q88 -55 88 -178t-78 -204t-209 -81q-130 1 -222 81q-93 79 -93 198zM415 -74q56 0 93 -42t37 -106q-1 -62 -17 -116q-34 -111 -108 -162q-37 -24 -74 -24q-59 1 -59 49q0 31 17 48q33 33 0 119q-17 41 -17 100q0 58 36 96t92 38z" />
    <glyph glyph-name="uni021A" unicode="&#x21a;" horiz-adv-x="1122" 
d="M989 1382q84 0 84 -96t-84 -96h-338v-1092q0 -98 -88 -98t-88 98v1092h-340q-86 0 -86 96t86 96h854zM460 -427q17 17 17 46q1 29 -17 74q-18 44 -18 101q0 56 36 94t92 38t93 -42t37 -106q0 -122 -61 -213q-61 -92 -139 -89q-55 0 -58 49q0 31 18 48z" />
    <glyph glyph-name="uni021B" unicode="&#x21b;" horiz-adv-x="677" 
d="M551 821q86 0 86 -94t-86 -94h-129v-535q0 -98 -88 -98t-88 98v535h-117q-88 0 -88 94t88 94h117v166q0 94 88 94t88 -94v-166h129zM266 -524q-57 0 -57 56q0 24 17 41q36 36 10 98q-27 61 -27 120t36 97t92 38t93 -42t37 -106q0 -122 -61 -213t-140 -89z" />
    <glyph glyph-name="circumflex" unicode="&#x2c6;" horiz-adv-x="772" 
d="M603.5 905.5q-28.5 -28.5 -67.5 -28.5t-65 36l-86 127l-86 -127q-25 -36 -64 -36t-67.5 28.5t-28.5 64.5t21 62l157 205q31 39 68 39t70 -39l157 -205q20 -26 20 -62t-28.5 -64.5z" />
    <glyph glyph-name="caron" unicode="&#x2c7;" horiz-adv-x="772" 
d="M168.5 1247.5q28.5 28.5 68.5 28.5t64 -37l86 -127l86 127q26 37 64 37q39 0 67.5 -28.5t28.5 -64.5t-21 -63l-157 -205q-31 -39 -68 -38.5t-70 38.5l-157 205q-20 27 -20 63t28.5 64.5z" />
    <glyph glyph-name="breve" unicode="&#x2d8;" horiz-adv-x="837" 
d="M139 1175q0 52 22.5 76.5t57.5 24.5q68 0 84 -74q16 -66 40 -94.5t75 -28.5t75.5 29t41.5 94q23 74 81 74q35 0 58.5 -24.5t23.5 -76.5t-23.5 -103.5t-62.5 -88.5t-89 -58.5t-105.5 -21.5t-105.5 21.5t-88 58.5t-61.5 88.5t-23.5 103.5z" />
    <glyph glyph-name="dotaccent" unicode="&#x2d9;" horiz-adv-x="522" 
d="M139 1083.5q0 57.5 36 96.5t84 39t86 -39t38 -96.5t-38 -96.5t-86 -39t-84 39t-36 96.5z" />
    <glyph glyph-name="ring" unicode="&#x2da;" horiz-adv-x="636" 
d="M233 1067q0 -35 25 -59.5t59.5 -24.5t60 24.5t25.5 59.5t-25.5 60.5t-60 25.5t-59.5 -25.5t-25 -60.5zM174 1215.5q59 60.5 143 60.5q83 0 143 -62t60 -148.5t-60.5 -147t-142.5 -60.5t-142 58.5t-60 148.5t59 150.5z" />
    <glyph glyph-name="ogonek" unicode="&#x2db;" horiz-adv-x="618" 
d="M485 -367q86 0 86 -88q0 -55 -75.5 -89t-139.5 -34q-129 0 -220 74t-91 195q0 120 58.5 205.5t138.5 138.5q157 104 217 104q61 0 61 -59q0 -33 -12 -48.5t-39 -27.5q-131 -59 -190.5 -122.5t-59.5 -164.5q0 -53 40 -80.5t84 -27.5t80 12t62 12z" />
    <glyph glyph-name="tilde" unicode="&#x2dc;" horiz-adv-x="880" 
d="M557 1106q16 0 16 44t25.5 67.5t57.5 23.5t58.5 -20.5t26.5 -67.5q0 -111 -53.5 -162t-123.5 -51t-111 26.5t-65 61.5t-33 43t-25 8q-25 0 -25 -44t-26.5 -66.5t-59.5 -22.5t-56.5 20.5t-23.5 67.5q0 111 54.5 162t124.5 51t108.5 -28.5t67.5 -62.5t38 -42t25 -8z" />
    <glyph glyph-name="hungarumlaut" unicode="&#x2dd;" horiz-adv-x="917" 
d="M364.5 1276q34.5 0 64.5 -28.5t30 -67.5t-21 -60l-159 -207q-29 -37 -66 -37t-65.5 29t-28.5 65t20 62l158 205q33 39 67.5 39zM704.5 1276q34.5 0 64.5 -28.5t30 -67.5t-21 -60l-160 -207q-30 -37 -66 -37t-64.5 29t-28.5 65t20 62l158 205q33 39 67.5 39z" />
    <glyph glyph-name="Delta" unicode="&#x394;" horiz-adv-x="1173" 
d="M264 190h643l-321 859zM141 0q-51 0 -72.5 27.5t-21.5 58.5t8 47l437 1178q27 71 95 71t93 -71l436 -1178q10 -27 10 -53t-20.5 -53t-73.5 -27h-891z" />
    <glyph glyph-name="Omega" unicode="&#x3a9;" horiz-adv-x="1417" 
d="M1145 1260.5q170 -140.5 170 -424.5q0 -239 -128 -399.5t-204 -246.5h236q41 0 61 -28.5t20 -64.5t-21.5 -66.5t-64.5 -30.5h-315q-55 6 -93 30t-38 80t14.5 88t65.5 84q137 141 215 269.5t78 298.5t-115.5 265t-369.5 95t-317 -139t-63 -228q0 -161 79 -292t231 -287
q35 -35 49 -66.5t14 -87.5t-38 -80t-93 -30h-315q-43 0 -64.5 30.5t-21.5 66.5t20.5 64.5t61.5 28.5h235q-173 191 -230 291.5t-79.5 181t-22.5 200.5t47.5 227.5t169.5 209t389 101.5t437 -140.5z" />
    <glyph glyph-name="mu" unicode="&#x3bc;" horiz-adv-x="937" 
d="M315 340q0 -168 148 -168q74 0 117 48t43 120v387q0 94 88 94t88 -94v-635q0 -92 -86 -92q-59 0 -80 39q-72 -59 -166 -59t-152 24v-506q0 -98 -88 -98t-88 98v1229q0 94 90 94q47 0 66.5 -22.5t19.5 -71.5v-387z" />
    <glyph glyph-name="pi" unicode="&#x3c0;" horiz-adv-x="1036" 
d="M815 821q84 0 84 -95t-84 -95h-88v-350q0 -45 10.5 -74t48.5 -29t54 43q26 63 70 63t67.5 -24t23.5 -74t-39 -101q-74 -95 -187 -95q-114 0 -169 71.5t-55 190.5v379h-178v-287q0 -182 -103 -303q-35 -41 -72 -41q-38 0 -62.5 25.5t-24.5 63.5t18 63q68 82 68 188v291
h-43q-86 0 -86 95t86 95h661z" />
    <glyph glyph-name="Wgrave" unicode="&#x1e80;" horiz-adv-x="2078" 
d="M2032 1296q0 -29 -9 -47l-436 -1179q-28 -70 -95 -70t-93 72l-359 968l-360 -970q-28 -70 -96 -70t-92 72l-437 1175q-8 16 -8 47t26 60q27 28 73 28t71 -65l369 -983l368 983q12 35 30 50t55 15t55 -17t30 -48l369 -983l369 983q26 65 72 65t72 -28t26 -58zM1159 1530
q0 -36 -37 -72q-37 -37 -90 -11q-18 9 -33 28l-159 206q-20 19 -20 59t29 68q31 28 65 29q34 0 67 -39l158 -205q20 -27 20 -63z" />
    <glyph glyph-name="wgrave" unicode="&#x1e81;" horiz-adv-x="1425" 
d="M424 0q-63 0 -94 70l-275 614q-8 16 -8 52t28 61q50 45 104 11q22 -13 34 -42l211 -487l209 487q23 55 79 55t79 -55l210 -487l209 487q23 55 80 55q33 -1 61 -25q27 -24 27 -58t-10 -54l-272 -614q-16 -34 -43 -52t-52 -18q-63 0 -94 70l-194 440l-195 -440
q-16 -34 -42 -52t-52 -18zM831 970q-1 -36 -29 -65t-64 -28t-66 36l-160 207q-20 20 -20 60t30 68t64 28q35 0 67 -39l158 -205q20 -26 20 -62z" />
    <glyph glyph-name="Wacute" unicode="&#x1e82;" horiz-adv-x="2078" 
d="M2032 1296q0 -29 -9 -47l-436 -1179q-28 -70 -95 -70t-93 72l-359 968l-360 -970q-28 -70 -96 -70t-92 72l-437 1175q-8 16 -8 47t26 60q27 28 73 28t71 -65l369 -983l368 983q12 35 30 50t55 15t55 -17t30 -48l369 -983l369 983q26 65 72 65t72 -28t26 -58zM1180 1837
q34 0 64 -29q30 -30 30 -68t-21 -59l-159 -206q-29 -37 -66 -37q-38 0 -66 28t-28 65q0 36 20 62l158 205q33 39 68 39z" />
    <glyph glyph-name="wacute" unicode="&#x1e83;" horiz-adv-x="1425" 
d="M424 0q-63 0 -94 70l-275 614q-8 16 -8 52t28 61q50 45 104 11q22 -13 34 -42l211 -487l209 487q23 55 79 55t79 -55l210 -487l209 487q23 55 80 55q33 -1 61 -25q27 -24 27 -58t-10 -54l-272 -614q-16 -34 -43 -52t-52 -18q-63 0 -94 70l-194 440l-195 -440
q-16 -34 -42 -52t-52 -18zM852 1276q34 0 64 -29t30 -67t-20 -60l-160 -207q-29 -37 -66 -37q-38 0 -66 30q-28 28 -28 64t21 62l157 205q33 39 68 39z" />
    <glyph glyph-name="Wdieresis" unicode="&#x1e84;" horiz-adv-x="2078" 
d="M2032 1296q0 -29 -9 -47l-436 -1179q-28 -70 -95 -70t-93 72l-359 968l-360 -970q-28 -70 -96 -70t-92 72l-437 1175q-8 16 -8 47t26 60q27 28 73 28t71 -65l369 -983l368 983q12 35 30 50t55 15t55 -17t30 -48l369 -983l369 983q26 65 72 65t72 -28t26 -58zM752 1645
q0 57 35 96q36 39 84 39t86 -39t38 -96t-38 -97t-86 -39q-48 0 -84 39q-35 40 -35 97zM1098 1645q0 57 35 96t84 39t86 -39t37 -96t-37 -97q-37 -39 -86 -39q-49 -1 -84 39t-35 97z" />
    <glyph glyph-name="wdieresis" unicode="&#x1e85;" horiz-adv-x="1425" 
d="M424 0q-63 0 -94 70l-275 614q-8 16 -8 52t28 61q50 45 104 11q22 -13 34 -42l211 -487l209 487q23 55 79 55t79 -55l210 -487l209 487q23 55 80 55q33 -1 61 -25q27 -24 27 -58t-10 -54l-272 -614q-16 -34 -43 -52t-52 -18q-63 0 -94 70l-194 440l-195 -440
q-16 -34 -42 -52t-52 -18zM424 1083q0 57 36 97t84 39q48 0 86 -39q38 -38 38 -96t-38 -97t-86 -39t-84 39t-36 96zM770 1083q0 57 35 97t84 39q49 0 86 -39q37 -38 37 -96t-37 -97t-86 -39t-84 39t-35 96z" />
    <glyph glyph-name="Ygrave" unicode="&#x1ef2;" horiz-adv-x="1107" 
d="M553 0q-88 0 -88 96v559l-399 576q-18 27 -18 63t26 63q26 25 64 25t69 -43l346 -489l346 489q30 43 69 43q40 0 66 -26t27 -62q0 -37 -19 -63l-401 -576v-559q0 -96 -88 -96zM332 1740q0 40 30 68t64 29q35 0 68 -39l157 -205q21 -27 21 -63t-37 -72q-37 -37 -90 -11
q-18 9 -33 28l-160 206q-20 19 -20 59z" />
    <glyph glyph-name="ygrave" unicode="&#x1ef3;" horiz-adv-x="833" 
d="M689 821q42 1 70 -25q27 -26 27 -57t-8 -49l-553 -1237q-24 -53 -66 -53t-69 26t-27 62t9 51l258 580l-273 565q-10 24 -10 56t28 57q27 25 55 25q55 -1 83 -54l215 -449l199 453q20 49 62 49zM207 1180q0 40 30 68q31 28 65 28t67 -39l157 -205q20 -26 20 -62t-36 -73
q-37 -37 -90 -11q-18 9 -33 27l-160 207q-20 20 -20 60z" />
    <glyph glyph-name="endash" unicode="&#x2013;" horiz-adv-x="1030" 
d="M895 782q88 0 88 -94t-88 -94h-760q-88 0 -88 94t88 94h760z" />
    <glyph glyph-name="emdash" unicode="&#x2014;" horiz-adv-x="1411" 
d="M1276 782q88 0 88 -94t-88 -94h-1141q-88 0 -88 94t88 94h1141z" />
    <glyph glyph-name="quoteleft" unicode="&#x2018;" horiz-adv-x="462" 
d="M303 1444q57 0 57 -56q0 -24 -17 -41t-17 -41q0 -36 17 -78.5t17 -100.5t-36 -96t-92 -38t-93 43.5t-37 105.5q0 120 61 211t140 91z" />
    <glyph glyph-name="quoteright" unicode="&#x2019;" horiz-adv-x="462" 
d="M160 993q-58 1 -58 57q0 24 17.5 41t17.5 41q0 36 -17.5 79t-17.5 100t36 95t92 38t93 -43t37 -105q0 -122 -60.5 -212.5t-139.5 -90.5z" />
    <glyph glyph-name="quotesinglbase" unicode="&#x201a;" horiz-adv-x="462" 
d="M160 -135q-58 1 -58 57q0 24 17.5 41t17.5 41q0 34 -17.5 78t-17.5 101t36 94.5t92 37.5t93 -42.5t37 -104.5q0 -122 -60.5 -212.5t-139.5 -90.5z" />
    <glyph glyph-name="quotedblleft" unicode="&#x201c;" horiz-adv-x="778" 
d="M303 1444q57 0 57 -56q0 -24 -17 -41t-17 -46t17 -72t17 -102q0 -58 -36 -96t-92 -38t-93 43q-37 44 -37 106q0 119 62 210q62 92 139 92zM618 1444q58 0 58 -56q0 -24 -18 -41t-17 -46q-1 -29 17 -74q18 -44 18 -101t-36 -95t-92 -38t-93 43q-37 44 -37 106
q0 120 61 211q62 91 139 91z" />
    <glyph glyph-name="quotedblright" unicode="&#x201d;" horiz-adv-x="778" 
d="M230 1444q56 0 93 -43t37 -105q0 -119 -60 -212q-61 -91 -140 -91q-56 1 -58 57q0 24 18 40q18 18 17 42q0 36 -17 76q-17 41 -17 101q-1 59 35 97t92 38zM475 993q-57 1 -57 57q0 24 17 40q34 35 0 119q-17 41 -17 100t36 97t92 38t93 -43t37 -105q0 -118 -61 -211
q-61 -92 -140 -92z" />
    <glyph glyph-name="quotedblbase" unicode="&#x201e;" horiz-adv-x="778" 
d="M120 -38q17 17 17 46t-17 72q-17 42 -17 101q-1 59 35 97t92 38t93 -44q37 -42 37 -104t-16 -117q-32 -111 -108 -162q-36 -25 -84 -25q-47 0 -50 50q0 31 18 48zM676 168q0 -62 -16 -116q-34 -111 -109 -163q-37 -25 -74 -25q-59 1 -59 50q0 31 17 48q33 33 0 119
q-17 41 -17 100t36 97t92 38t93 -44q37 -42 37 -104z" />
    <glyph glyph-name="dagger" unicode="&#x2020;" horiz-adv-x="1079" 
d="M451 1073v215q0 94 89 94t89 -94v-215h223q88 0 88 -95t-88 -95h-223v-791q0 -92 -89 -92t-89 92v791h-224q-88 0 -88 95t88 95h224z" />
    <glyph glyph-name="daggerdbl" unicode="&#x2021;" horiz-adv-x="1079" 
d="M227 309q-88 0 -88 94.5t88 94.5h224v385h-224q-88 0 -88 95t88 95h224v215q0 94 89 94t89 -94v-215h223q88 0 88 -95t-88 -95h-223v-385h223q88 0 88 -94t-88 -95h-223v-217q0 -92 -89 -92t-89 92v217h-224z" />
    <glyph glyph-name="bullet" unicode="&#x2022;" horiz-adv-x="655" 
d="M549 692q0 -117 -62.5 -180t-157.5 -63t-159 63t-64 180t63 180.5t159 63.5t158.5 -63.5t62.5 -180.5z" />
    <glyph glyph-name="ellipsis" unicode="&#x2026;" horiz-adv-x="1396" 
d="M127 136q0 60 39 104t92 43q53 0 92 -43q39 -44 39 -104t-39 -102t-92 -42t-92 42t-39 102zM567 136q0 60 39 104t92 43q52 0 92 -43q40 -44 40 -104t-40 -102q-38 -42 -92 -42t-92 42q-39 42 -39 102zM1008 136q0 60 39 104t92 43q53 0 92 -43q39 -44 39 -104t-39 -102
t-92 -42t-92 42t-39 102z" />
    <glyph glyph-name="perthousand" unicode="&#x2030;" horiz-adv-x="2095" 
d="M351 1251q-33 0 -61 -20q-54 -39 -77 -133q-10 -45 -10 -94q0 -108 41 -179q42 -71 108 -71q67 0 106 71q40 71 41 149q3 193 -86 257q-28 20 -62 20zM655 1003q-1 -81 -23 -156t-62 -133t-95 -93t-123 -35t-124 35q-114 71 -157 226q-22 75 -22 156q0 168 86 292
t216 124t219 -127q85 -121 85 -289zM1070 1382q36 0 58 -26t23 -56q0 -29 -14 -53l-703 -1204q-22 -43 -76 -43q-26 0 -50 28q-41 48 -11 103l707 1204q30 47 66 47zM1241 360q0 192 -87 254q-63 45 -120 3q-90 -66 -90 -230q0 -107 41 -179t107 -71q67 0 108 73
q41 74 41 150zM1310 96q-87 -127 -216 -127q-130 0 -218 125q-87 125 -86 294t87 292q85 123 215 123t220 -127q85 -121 85 -287t-87 -293zM1746 137q34 1 62 21q86 64 86 229t-87 227q-63 45 -123 0q-84 -60 -87 -227q0 -49 11 -95q20 -94 76 -134q28 -20 62 -21zM2050 386
q0 -81 -22 -156t-63 -133q-40 -58 -95 -93t-123 -35q-132 0 -218 126q-87 126 -86 294q1 169 87 291q86 123 216 123t219 -127q85 -121 85 -290z" />
    <glyph glyph-name="guilsinglleft" unicode="&#x2039;" horiz-adv-x="493" 
d="M446 87q0 -38 -26.5 -62.5t-65.5 -24.5t-71 47l-222 359q-14 23 -14 53q0 29 14 49l222 358q31 45 71 45t66 -25.5t26 -60.5t-14 -57l-190 -311l190 -312q14 -20 14 -58z" />
    <glyph glyph-name="guilsinglright" unicode="&#x203a;" horiz-adv-x="493" 
d="M47 826q0 34 26.5 59.5t66.5 25.5t71 -45l221 -358q14 -20 14 -49t-14 -53l-221 -359q-33 -47 -72 -47t-65.5 24.5t-26.5 62.5t14 58l191 312l-191 311q-14 24 -14 58z" />
    <glyph glyph-name="fraction" unicode="&#x2044;" horiz-adv-x="526" 
d="M-172 82q0 27 12 49l707 1204q29 47 65 47t59 -26.5t23 -55.5t-14 -53l-703 -1204q-21 -43 -75 -43q-26 0 -50 27.5t-24 54.5z" />
    <glyph glyph-name="zerosuperior" unicode="&#x2070;" horiz-adv-x="776" 
d="M392 1251q-34 0 -62 -20q-54 -39 -76 -133q-10 -45 -10 -94q0 -108 41 -179t108 -71t106 71q40 71 41 149q3 193 -86 257q-28 20 -62 20zM696 1003q0 -81 -22 -156t-63 -133q-40 -58 -95 -93t-123 -35t-124 35q-114 71 -157 226q-22 75 -22 156q0 168 86 292t216 124
t219 -127q85 -121 85 -289z" />
    <glyph glyph-name="foursuperior" unicode="&#x2074;" horiz-adv-x="661" 
d="M602 996q0 -66 -49 -78v-236q0 -86 -76 -86t-76 86v231h-223q-82 0 -82 97v311q0 86 77 86t77 -86v-240h151v240q0 86 76 86t76 -86v-242q49 -17 49 -83z" />
    <glyph glyph-name="fivesuperior" unicode="&#x2075;" horiz-adv-x="657" 
d="M492 1407q79 0 79 -83t-79 -83h-244v-123q47 27 106 27q113 0 173 -78q59 -78 60 -198t-72 -203q-73 -82 -181 -81q-107 1 -171 62t-66 140q-1 79 75 79q48 0 65 -45t42 -58t67 -13t66 32q23 32 22 84q0 121 -106 121q-38 1 -67 -21t-45 -32t-44 -10t-52 22t-24 72v309
q0 80 74 80h322z" />
    <glyph glyph-name="sixsuperior" unicode="&#x2076;" horiz-adv-x="641" 
d="M418 850q0 38 -22 66t-66 28t-67 -26t-23 -69q0 -44 24 -70q24 -25 65 -25t65 28t24 68zM573 853q0 -112 -70 -190t-179 -78q-110 1 -174 69t-64 197q0 128 75 290t183 243q30 23 63 23t60 -31t11 -85q-6 -15 -38 -42q-81 -67 -135 -164q89 29 159 -10q109 -57 109 -222z
" />
    <glyph glyph-name="sevensuperior" unicode="&#x2077;" horiz-adv-x="677" 
d="M179 596q-25 0 -49 22t-24 52t11 55l293 516h-226q-80 0 -80 83t80 83h340q41 0 66 -25q24 -26 24 -60t-16 -62l-348 -621q-22 -43 -71 -43z" />
    <glyph glyph-name="eightsuperior" unicode="&#x2078;" horiz-adv-x="602" 
d="M305 1253q-30 0 -32 -33q-1 -33 20 -69l57 72q-16 31 -45 30zM240 823q0 -31 16 -51t47 -20q72 -1 72 77q0 65 -70 129q-65 -68 -65 -135zM528 839q0 -111 -58 -183t-160 -70q-102 0 -163 64t-61 155q0 123 117 242q-86 75 -86 165t51 148q50 58 136 59q86 0 141 -54
t57 -136q0 -37 -23 -66l-84 -94q133 -119 133 -230z" />
    <glyph glyph-name="ninesuperior" unicode="&#x2079;" horiz-adv-x="630" 
d="M397 1167q0 35 -22 60q-23 25 -59 25t-60 -26q-24 -24 -23 -59q0 -35 24 -59q25 -24 59 -25q34 1 58 25t23 59zM547 682q0 -86 -77 -86t-77 86v268q-39 -22 -91 -22t-92 19t-70 52q-60 66 -60 166t70 178t166 77q97 0 164 -68t67 -185v-485z" />
    <glyph glyph-name="zeroinferior" unicode="&#x2080;" horiz-adv-x="776" 
d="M384 137q34 0 61.5 20.5t47 54.5t29.5 80t10 122.5t-41.5 148.5t-106.5 72t-106.5 -72t-41.5 -148.5t10 -122.5t29.5 -80t47 -54.5t61.5 -20.5zM167.5 94q-85.5 125 -85.5 294t86 292t216 123t217 -125t87 -290q0 -166 -86.5 -292.5t-217.5 -126.5t-216.5 125z" />
    <glyph glyph-name="oneinferior" unicode="&#x2081;" horiz-adv-x="346" 
d="M250 66q0 -86 -74 -86q-82 0 -82 86v641q0 84 82 84q74 0 74 -84v-641z" />
    <glyph glyph-name="twoinferior" unicode="&#x2082;" horiz-adv-x="581" 
d="M516 63q0 -84 -76 -83h-268q-47 0 -67.5 26.5t-20.5 59.5t12 55l211 364q31 60 31 92q0 62 -51 62q-27 0 -39 -15.5t-19 -41.5q-16 -66 -77 -66q-31 0 -52.5 22.5t-21.5 64.5q0 81 63.5 140.5t150.5 59.5t144.5 -56.5t57.5 -155.5t-56 -194l-149 -250h151
q35 0 55.5 -22.5t20.5 -61.5z" />
    <glyph glyph-name="threeinferior" unicode="&#x2083;" horiz-adv-x="618" 
d="M317 467q72 0 72 90q0 39 -20.5 62.5t-56.5 23.5t-49 -24.5t-17 -51.5q-12 -74 -76 -73q-39 0 -59.5 27.5t-20.5 67.5q0 89 66.5 151.5t163.5 62.5t160 -67.5t63 -175.5t-70 -169q74 -70 74 -173q0 -104 -67 -176.5t-177 -72.5q-109 0 -169 67.5t-60 159.5t76 93
q33 0 56 -21.5t23 -64.5q0 -74 82 -74q37 0 59.5 24.5t22.5 69.5q0 94 -74 94q-82 0 -81 76q0 74 79 74z" />
    <glyph glyph-name="fourinferior" unicode="&#x2084;" horiz-adv-x="661" 
d="M594 380q0 -66 -49 -79v-235q0 -86 -76 -86t-76 86v231h-223q-82 0 -82 96v312q0 86 77 86t77 -86v-240h151v240q0 86 76 86t76 -86v-242q49 -17 49 -83z" />
    <glyph glyph-name="fiveinferior" unicode="&#x2085;" horiz-adv-x="657" 
d="M483 791q80 0 80 -83t-80 -83h-243v-123q47 26 106 26t103.5 -22.5t73 -60t43 -89t14.5 -138.5t-72.5 -168t-179.5 -81t-173.5 62.5t-66.5 140.5t76 78q49 0 70 -58t102 -59q45 0 67.5 33t22.5 84q0 121 -107 121q-35 0 -65.5 -21.5t-47 -32t-42.5 -10.5t-51 22.5
t-25 71.5v310q0 80 74 80h321z" />
    <glyph glyph-name="sixinferior" unicode="&#x2086;" horiz-adv-x="641" 
d="M410 234q0 39 -22 66.5t-66 27.5t-67.5 -26t-23.5 -70t23.5 -69.5t65.5 -25.5t66 29t24 68zM496 47.5q-69 -78.5 -179 -78.5q-111 0 -175 68.5t-64 193.5t73.5 289.5t184.5 247.5q30 23 63 23t54.5 -25t21.5 -50t-5 -41.5t-38 -42.5q-76 -61 -135 -163q31 10 76 10
t83 -20.5t73.5 -69t35.5 -156.5q0 -107 -69 -185.5z" />
    <glyph glyph-name="seveninferior" unicode="&#x2087;" horiz-adv-x="677" 
d="M96 53q0 30 10 56l293 516h-225q-80 0 -80 83t80 83h340q41 0 65.5 -25t24.5 -60t-16 -63l-348 -620q-22 -43 -71 -43q-24 0 -48.5 21.5t-24.5 51.5z" />
    <glyph glyph-name="eightinferior" unicode="&#x2088;" horiz-adv-x="602" 
d="M304 637q-40 0 -40 -43q0 -28 21 -59l57 71q-16 31 -38 31zM231 207q0 -31 16.5 -51.5t47.5 -20.5q72 0 72 78q0 63 -70 129q-66 -69 -66 -135zM520 222q0 -111 -58.5 -182t-159.5 -71t-162.5 64t-61.5 155q0 127 117 242q-86 75 -86 166q0 90 51 148.5t135 58.5
t141.5 -55t57.5 -136q0 -37 -23 -65l-84 -94q133 -120 133 -231z" />
    <glyph glyph-name="nineinferior" unicode="&#x2089;" horiz-adv-x="630" 
d="M389 551q0 35 -22.5 59.5t-58.5 24.5t-59.5 -24.5t-23.5 -59.5t23.5 -59.5t58.5 -24.5t58.5 24.5t23.5 59.5zM539 66q0 -86 -77 -86t-77 86v268q-39 -23 -91 -23t-92 19.5t-70 52.5t-45 77t-15 115t69 149.5t166 78.5q98 0 165 -67.5t67 -184.5v-485z" />
    <glyph glyph-name="uni20A4" unicode="&#x20a4;" horiz-adv-x="1191" 
d="M238 236q0 -62 53 -62q27 0 46 19.5t40 50.5q-46 32 -76 32q-63 0 -63 -40zM600 384q0 -48 -12 -91q47 -47 113.5 -80t128.5 -33t94 24.5t54 61.5q35 60 77 60q43 0 68.5 -25t25.5 -55t-10 -56q-92 -200 -309 -200q-166 0 -320 131q-35 -55 -92.5 -97t-126.5 -42
q-117 0 -173.5 71.5t-56.5 173.5t66 171t160 69q58 0 135 -35l-19 66h-180q-65 0 -65 70t65 71h113l-31 59h-82q-65 0 -65 71t65 71h19q-20 53 -20 138q-1 183 116.5 303t304.5 120q188 0 312 -113.5t124 -310.5q0 -49 -27.5 -73.5t-59.5 -24.5t-60.5 23.5t-28.5 70.5
q0 111 -69.5 174t-192.5 63q-163 0 -203.5 -80.5t-40.5 -144.5t31 -145h428q66 0 66 -71t-66 -71h-360l30 -59h330q66 0 66 -71t-66 -70h-274q18 -66 18 -114z" />
    <glyph glyph-name="Euro" unicode="&#x20ac;" horiz-adv-x="1331" 
d="M166 681v35q0 34 2 50h-23q-88 0 -88 95t88 95h58q99 313 280 379t299 66t233 -51.5t195 -155.5q18 -26 18 -60t-26 -63t-61 -29t-62 27q-126 141 -309 141q-141 0 -236.5 -68.5t-144.5 -185.5h572q88 0 88 -95t-88 -95h-617q-2 -18 -2 -22v-48q0 -40 4 -86h426
q88 0 88 -94t-88 -94h-379q51 -117 146.5 -183.5t227.5 -66.5q195 0 312 143q27 31 61 31t61.5 -27.5t27.5 -67.5t-21 -63q-183 -208 -438 -208q-202 0 -352 120.5t-213 321.5h-60q-88 0 -88 94t88 94h25q-4 40 -4 71z" />
    <glyph glyph-name="uni20B9" unicode="&#x20b9;" horiz-adv-x="1087" 
d="M948 1382q88 0 88 -96t-88 -96h-88q16 -37 33 -96h55q88 0 88 -96.5t-88 -96.5h-51q-25 -129 -114 -216t-236 -93l342 -440q18 -25 18 -62t-26.5 -63.5t-66.5 -26.5t-66 37l-439 569q-50 77 -11.5 126.5t89.5 49.5h141q68 0 115 33t68 86h-561q-88 0 -88 96t88 97h555
q-25 41 -69 68.5t-101 27.5h-385q-88 0 -88.5 96t88.5 96h798z" />
    <glyph glyph-name="uni20BA" unicode="&#x20ba;" horiz-adv-x="1095" 
d="M117 831q-29 0 -52.5 31t-23.5 76t49 74l82 41v229q0 100 88 100t88 -100v-143l217 108q27 10 53 10t51 -31.5t25 -76.5t-49 -72l-297 -149v-133l217 108q27 10 53 10t51 -31.5t25 -76.5t-49 -72l-297 -149v-394h209q196 0 365 183q26 31 62 31t62.5 -32t26.5 -69
t-16 -59q-86 -117 -216 -180.5t-284 -63.5h-297q-88 0 -88 92v408q-26 -13 -55 -13t-52.5 31t-23.5 76t49 74l82 41v135q-26 -13 -55 -13z" />
    <glyph glyph-name="uni20BD" unicode="&#x20bd;" horiz-adv-x="1138" 
d="M905 987q0 88 -53 145.5t-139 57.5h-336v-408h330q92 0 145 58.5t53 146.5zM201 473v121h-68q-88 0 -88 94t88 94h68v506q0 94 88 94h424q176 0 272 -110.5t96 -280.5t-98.5 -284.5t-275.5 -114.5h-330v-119h565q88 0 88 -94t-88 -94h-565v-189q0 -96 -88 -96t-88 96v189
h-68q-88 0 -88 94t88 94h68z" />
    <glyph glyph-name="uni2117" unicode="&#x2117;" horiz-adv-x="1536" 
d="M768 1239q-241 0 -378.5 -151.5t-137.5 -391.5q0 -241 137.5 -397t378.5 -156t378.5 156t137.5 397t-137.5 392t-378.5 151zM918 811q0 27 -15.5 44t-42.5 17h-172v-124h170q29 0 44.5 18t15.5 45zM1065 814q0 -93 -53.5 -157.5t-153.5 -64.5h-170v-203q0 -80 -74 -80
q-41 0 -57 19.5t-16 60.5v565q0 41 16 59.5t57 18.5h246q98 0 151.5 -62.5t53.5 -155.5zM277 1203q175 198 491 198t491 -198t175 -507t-175 -512.5t-491 -203.5t-491 203.5t-175 512.5t175 507z" />
    <glyph glyph-name="trademark" unicode="&#x2122;" horiz-adv-x="1685" 
d="M1462 1382q84 0 84 -92v-696q0 -88 -80 -88t-80 88v362l-184 -395q-29 -55 -81 -55t-79 57l-182 393v-362q0 -88 -81 -88t-81 88v696q0 92 84 92q54 0 82 -57l258 -557l260 557q25 57 80 57zM623 1296q0 -88 -76 -88h-131v-614q0 -88 -80 -88t-80 88v614h-133
q-78 0 -78 88q0 47 18.5 66.5t59.5 19.5h424q39 0 57.5 -19.5t18.5 -66.5z" />
    <glyph glyph-name="onethird" unicode="&#x2153;" horiz-adv-x="1239" 
d="M272 682q0 -86 -73 -86q-82 0 -82 86v641q0 84 82 84q74 0 73 -84v-641zM102 82q0 26 13 49l706 1204q29 47 66 47t59 -26t23 -56q0 -29 -15 -53l-702 -1204q-22 -43 -76 -43q-26 0 -50 28t-24 54zM907 467q72 0 72 90q-1 39 -21 63t-56 24t-49 -26q-13 -25 -17 -51
q-12 -74 -76 -73q-39 0 -60 27q-20 28 -20 68q0 92 66 152t164 61q97 2 160 -66t63 -176t-70 -169q72 -68 73 -173t-66 -176t-176 -72q-110 -1 -170 67t-60 160t75 92q33 0 57 -22q24 -23 24 -59q-1 -79 81 -79q37 0 60 25q23 26 23 70q-1 96 -75 93q-82 0 -82 75t80 75z
" />
    <glyph glyph-name="twothirds" unicode="&#x2154;" horiz-adv-x="1386" 
d="M541 680q0 -84 -76 -84h-268q-47 0 -68 27q-20 27 -20 59t12 55l211 365q30 58 30 91q0 62 -51 62q-27 0 -39 -15t-18 -42q-16 -66 -78 -65q-30 1 -52 23t-22 64t18 78q36 72 112 105q38 16 79 16q91 0 149 -56t58 -156t-55 -193l-150 -250h152q35 0 55 -22t21 -62z
M270 82q0 26 13 49l706 1204q29 47 66 47t59 -26t23 -56q0 -29 -15 -53l-702 -1204q-22 -43 -76 -43q-26 0 -50 28t-24 54zM1055 467q71 0 71 90q0 39 -20 63t-56 24t-50 -26q-14 -25 -17 -51q-12 -74 -76 -73q-39 0 -59 28q-43 59 -2 149q35 82 122 115q42 16 89 17
q99 1 161 -67t62 -177t-70 -168q74 -70 74 -174q0 -105 -66 -175q-66 -71 -176 -72t-171 67q-60 68 -60 160t76 92q33 0 57 -22t23 -64q0 -74 82 -74q37 0 59 25q22 26 22 70q-1 96 -73 93q-82 0 -82 75t80 75z" />
    <glyph glyph-name="uni2155" unicode="&#x2155;" horiz-adv-x="1329" 
d="M272 682q0 -86 -73 -86q-82 0 -82 86v641q0 84 82 84q74 0 73 -84v-641zM102 82q0 26 13 49l706 1204q29 47 66 47t59 -26t23 -56q0 -29 -15 -53l-702 -1204q-22 -43 -76 -43q-26 0 -50 28t-24 54zM1130 791q80 0 80 -83t-80 -83h-243v-123q47 26 106 26q115 -1 174 -78
q58 -78 59 -198t-72 -202q-73 -81 -179 -81q-107 0 -173 62q-65 62 -66 140q-1 79 75 79q48 0 65 -45t42 -59q26 -14 68 -13q42 0 65 33t22 84q0 121 -106 121q-34 1 -65 -21q-32 -22 -48 -32t-43 -11q-27 0 -51 23t-25 71v310q0 80 74 80h321z" />
    <glyph glyph-name="uni2156" unicode="&#x2156;" horiz-adv-x="1419" 
d="M541 680q0 -84 -76 -84h-268q-47 0 -68 27q-20 27 -20 59t12 55l211 365q30 58 30 91q0 62 -51 62q-27 0 -39 -15t-18 -42q-16 -66 -78 -65q-30 1 -52 23t-22 64t18 78q36 72 112 105q38 16 79 16q91 0 149 -56t58 -156t-55 -193l-150 -250h152q35 0 55 -22t21 -62z
M254 82q0 26 12 49l707 1204q29 47 65 47t60 -26q43 -49 8 -109l-703 -1204q-22 -43 -75 -43q-26 0 -50 28t-24 54zM1239 791q80 0 80 -83t-80 -83h-244v-123q47 26 107 26t103 -22q44 -22 73 -61q29 -38 43 -89t14 -108q0 -58 -18 -108q-37 -103 -132 -148
q-47 -23 -103 -23q-56 1 -100 19q-87 37 -122 110q-16 35 -16 68q0 84 76 84q49 0 70 -58t102 -59q46 0 68 33t22 84q0 121 -107 121q-34 1 -65 -21t-47 -32t-43 -11q-27 0 -52 23t-24 71v310q0 80 74 80h321z" />
    <glyph glyph-name="uni2157" unicode="&#x2157;" horiz-adv-x="1458" 
d="M341 1260q-36 0 -49 -25t-18 -51q-12 -74 -75 -74q-39 0 -60 28q-20 28 -20 68q0 90 66 151q66 62 164 62q97 0 160 -67q62 -68 62 -177t-69 -167q73 -69 73 -174q0 -106 -67 -177t-176 -71t-169 68q-61 68 -61 159q0 92 76 92q32 1 56 -21t24 -65q0 -74 82 -74
q38 0 60 25t22 70q0 94 -74 94q-82 0 -82 75t80 74q69 0 72 91q0 38 -20 62t-57 24zM1034 1382q36 0 60 -26q43 -49 8 -109l-703 -1204q-22 -43 -75 -43q-27 0 -51 28q-41 48 -11 103l707 1204q29 47 65 47zM1260 791q79 0 79 -83t-79 -83h-244v-123q47 26 106 26
q115 -1 174 -78q58 -78 59 -198t-72 -202q-73 -81 -179 -81q-107 0 -173 62q-65 62 -66 140q-1 79 75 79q48 0 65 -45t42 -59t67 -13q42 0 66 33q23 33 22 84q0 121 -106 121q-34 1 -65 -21t-47 -32t-44 -11q-28 0 -52 23t-24 71v310q0 80 74 80h322z" />
    <glyph glyph-name="uni2158" unicode="&#x2158;" horiz-adv-x="1468" 
d="M608 996q0 -66 -49 -78v-236q0 -86 -76 -86t-75 86v231h-224q-82 0 -82 97v311q0 86 77 86t77 -86v-240h152v240q0 86 76 86t75 -86v-242q49 -17 49 -83zM1063 1382q37 0 59 -26t23 -56q0 -29 -15 -53l-702 -1204q-22 -43 -76 -43q-26 0 -50 28q-40 48 -11 103l706 1204
q29 47 66 47zM1270 791q80 0 80 -83t-80 -83h-244v-123q46 26 106 26t104 -22t73 -61q57 -75 57 -195q0 -121 -73 -201t-178 -80q-106 0 -173 62q-66 62 -67 140q-1 79 75 79q48 0 65 -45t42 -59t67 -13q42 0 66 33q23 33 22 84q0 121 -106 121q-34 1 -65 -21t-47 -32
t-44 -11q-28 0 -52 23t-24 71v310q0 80 74 80h322z" />
    <glyph glyph-name="uni2159" unicode="&#x2159;" horiz-adv-x="1181" 
d="M272 682q0 -86 -73 -86q-82 0 -82 86v641q0 84 82 84q74 0 73 -84v-641zM102 82q0 26 13 49l706 1204q29 47 66 47t59 -26t23 -56q0 -29 -15 -53l-702 -1204q-22 -43 -76 -43q-26 0 -50 28t-24 54zM924 234q0 38 -22 66t-66 28t-67 -26q-24 -26 -24 -70t24 -69
q23 -26 65 -26t66 29t24 68zM1032 404q47 -64 47 -172t-69 -185q-69 -78 -180 -78q-110 0 -174 69t-64 197t75 290t183 243q25 20 61 21q35 2 62 -29t11 -85q-5 -15 -38 -42q-77 -63 -135 -164q31 10 76 10q94 0 145 -75z" />
    <glyph glyph-name="uni215A" unicode="&#x215a;" horiz-adv-x="1372" 
d="M498 1407q80 0 80 -83t-80 -83h-244v-123q47 27 106 27q112 0 173 -79t61 -198t-73 -202q-73 -82 -180 -81q-106 1 -171 62q-66 61 -67 140t75 79q48 0 65 -45t42 -58t67 -13t66 32q23 32 22 84q0 121 -106 121q-38 1 -67 -21t-45 -32t-44 -10t-52 22t-24 72v309
q0 80 74 80h322zM1080 1382q36 0 59 -26q43 -49 8 -109l-703 -1204q-22 -43 -75 -43q-27 0 -51 28q-41 48 -11 103l707 1204q30 47 66 47zM1114 234q0 38 -22 66t-65 28q-44 0 -68 -26q-23 -26 -23 -70t24 -69q24 -26 65 -26q42 0 66 29q23 29 23 68zM1270 237
q0 -112 -70 -190t-179 -78q-111 0 -175 69t-64 195t74 289t184 246q26 20 61 21q35 2 57 -23t22 -50q0 -24 -5 -40t-38 -43q-79 -65 -136 -164q31 10 76 10t83 -20q110 -58 110 -222z" />
    <glyph glyph-name="oneeighth" unicode="&#x215b;" horiz-adv-x="1251" 
d="M272 682q0 -86 -73 -86q-82 0 -82 86v641q0 84 82 84q74 0 73 -84v-641zM102 82q0 26 13 49l706 1204q29 47 66 47t59 -26t23 -56q0 -29 -15 -53l-702 -1204q-22 -43 -76 -43q-26 0 -50 28t-24 54zM924 637q-31 0 -31 -35t20 -67l58 71q-16 31 -47 31zM860 207
q0 -31 16 -51t48 -21q71 0 71 78q0 64 -69 129q-66 -69 -66 -135zM1149 222q0 -111 -58 -182t-159 -71t-163 64t-62 155q0 124 116 242q-84 73 -85 165q-1 91 50 149q50 58 136 58t142 -54q56 -55 56 -136q0 -37 -22 -65l-84 -94q133 -120 133 -231z" />
    <glyph glyph-name="threeeighths" unicode="&#x215c;" horiz-adv-x="1361" 
d="M341 1260q-36 0 -49 -25t-18 -51q-12 -74 -75 -74q-39 0 -60 28q-20 28 -20 68q0 90 66 151q66 62 164 62q97 0 160 -67q62 -68 62 -177t-69 -167q73 -69 73 -174q0 -106 -67 -177t-176 -71t-169 68q-61 68 -61 159q0 92 76 92q32 1 56 -21t24 -65q0 -74 82 -74
q38 0 60 25t22 70q0 94 -74 94q-82 0 -82 75t80 74q69 0 72 91q0 38 -20 62t-57 24zM260 82q0 26 12 49l707 1204q29 47 66 47t59 -26q42 -50 8 -109l-702 -1204q-22 -43 -76 -43q-26 0 -50 28t-24 54zM1034 637q-30 0 -30 -35t20 -67l57 71q-17 31 -47 31zM971 205
q0 -68 63 -70q72 0 72 78q0 65 -70 129q-65 -69 -65 -137zM1260 222q0 -111 -58 -182t-161 -71q-102 0 -162 64t-62 155q0 123 117 242q-86 75 -86 166q0 90 51 148t135 58t142 -54q57 -55 57 -136q0 -37 -23 -65l-84 -94q134 -120 134 -231z" />
    <glyph glyph-name="fiveeighths" unicode="&#x215d;" horiz-adv-x="1363" 
d="M498 1407q80 0 80 -83t-80 -83h-244v-123q47 27 106 27q112 0 173 -79t61 -198t-73 -202q-73 -82 -180 -81q-106 1 -171 62q-66 61 -67 140t75 79q48 0 65 -45t42 -58t67 -13t66 32q23 32 22 84q0 121 -106 121q-38 1 -67 -21t-45 -32t-44 -10t-52 22t-24 72v309
q0 80 74 80h322zM274 82q0 26 13 49l706 1204q29 47 66 47t59 -26t23 -56q0 -29 -15 -53l-702 -1204q-22 -43 -76 -43q-26 0 -50 28t-24 54zM1036 637q-30 0 -30 -35t20 -67l57 71q-17 31 -47 31zM973 205q0 -68 63 -70q72 0 72 78q0 65 -70 129q-65 -69 -65 -137zM1262 222
q0 -111 -58 -182t-161 -71q-102 0 -162 64t-62 155q0 123 117 242q-86 75 -86 166q0 90 51 148t135 58t142 -54q57 -55 57 -136q0 -37 -23 -65l-84 -94q134 -120 134 -231z" />
    <glyph glyph-name="seveneighths" unicode="&#x215e;" horiz-adv-x="1263" 
d="M177 596q-25 0 -49 22t-24 52t11 55l293 516h-226q-80 0 -80 83t80 83h340q41 0 66 -25q24 -26 24 -60t-16 -62l-348 -621q-22 -43 -71 -43zM938 1382q38 0 60 -26t22 -56q0 -29 -14 -53l-703 -1204q-21 -43 -75 -43q-26 0 -51 28q-41 48 -11 103l706 1204q29 47 66 47z
M936 637q-31 0 -31 -36t21 -66l57 71q-16 31 -47 31zM1008 213q0 63 -70 129q-64 -67 -66 -135q0 -31 16 -51t48 -21q72 0 72 78zM1161 222q0 -111 -58 -182t-159 -71t-163 64t-62 155q0 123 117 242q-86 75 -86 166q0 90 51 148t136 58t140 -53q55 -54 58 -137
q0 -37 -23 -65l-84 -94q133 -120 133 -231z" />
    <glyph glyph-name="partialdiff" unicode="&#x2202;" horiz-adv-x="985" 
d="M556 641q-134 0 -218 -90.5t-84 -214.5q0 -164 174 -164q118 0 201.5 102.5t83.5 219.5q0 63 -43.5 105t-113.5 42zM76 333q0 85 34.5 175t130 201.5t273.5 111.5q87 0 191 -43q-64 272 -220 424q-37 37 -37 81t27 71.5t60 27.5t67 -28q140 -129 216.5 -360.5
t76.5 -404.5q0 -299 -143.5 -454t-343.5 -155q-158 0 -245 95t-87 258z" />
    <glyph glyph-name="product" unicode="&#x220f;" horiz-adv-x="1275" 
d="M139 1288q0 94 86 94h826q86 0 86 -94v-1573q0 -98 -87 -98t-87 98v1475h-648v-1475q0 -98 -88 -98t-88 98v1573z" />
    <glyph glyph-name="summation" unicode="&#x2211;" horiz-adv-x="1021" 
d="M145 1382h740q88 0 88 -96t-88 -96h-596l424 -664q53 -81 0 -159l-424 -664h596q88 0 88 -96t-88 -96h-740q-53 0 -76.5 33.5t-23.5 74.5t21 74l487 753l-487 752q-20 33 -20 75t23 75.5t76 33.5z" />
    <glyph glyph-name="minus" unicode="&#x2212;" horiz-adv-x="1079" 
d="M852 782q88 0 88 -94t-88 -94h-625q-88 0 -88 94t88 94h625z" />
    <glyph glyph-name="radical" unicode="&#x221a;" horiz-adv-x="1495" 
d="M338 782q53 0 78 -65l276 -752l596 1626q25 66 72 66t72.5 -28.5t25.5 -56.5t-8 -46l-662 -1825q-14 -37 -42.5 -54.5t-56.5 -17.5q-63 0 -91 74l-326 891h-159q-88 0 -88 94t88 94h225z" />
    <glyph glyph-name="infinity" unicode="&#x221e;" horiz-adv-x="1589" 
d="M1360 694q0 72 -37 121t-109 49t-130.5 -33.5t-180.5 -136.5q127 -106 184 -139t128 -33t108 50t37 122zM231 693q0 -73 36 -122t107 -49t127 31.5t185 140.5q-126 106 -183 138t-128 32q-72 0 -108 -49t-36 -122zM795 567q-256 -231 -411 -231q-154 0 -244.5 99
t-90.5 258t91 258.5t233 99.5q94 0 196.5 -60.5t225.5 -171.5q257 232 410 232t244 -99.5t91 -258.5t-90.5 -258t-232.5 -99q-94 0 -196.5 60.5t-225.5 170.5z" />
    <glyph glyph-name="integral" unicode="&#x222b;" horiz-adv-x="653" 
d="M238 1337q0 118 73.5 190t182.5 72q47 0 69.5 -29.5t22.5 -64.5t-21.5 -63.5t-60.5 -28.5t-64.5 -23.5t-25.5 -62.5v-1665q0 -119 -75 -190.5t-181 -71.5q-47 0 -69.5 29.5t-22.5 65.5t21.5 63.5t61.5 27.5t64.5 23.5t24.5 62.5v1665z" />
    <glyph glyph-name="approxequal" unicode="&#x2248;" horiz-adv-x="1079" 
d="M764 1022q0 49 28 74q28 24 62 24t60 -24t26 -82q0 -126 -68 -198q-68 -73 -155 -74q-88 -1 -140 43q-51 45 -87 85t-62 64t-56 22q-55 -1 -57 -96q1 -49 -27 -74q-28 -24 -62 -24t-60 24t-27 82q0 124 68 197q68 74 157 75t140 -43t86 -84q36 -40 60 -64t52 -23
q62 0 62 96zM764 559q0 49 28 74t62 25t60 -24t26 -82q0 -126 -68 -200q-68 -73 -156 -73t-139 44t-87 84q-36 39 -62 63t-51 24q-60 0 -62 -97q1 -49 -27 -73t-62 -25q-34 0 -60 24t-27 82q0 124 68 197q68 74 157 75t140 -43t86 -84q36 -40 60 -64t52 -23q62 0 62 96z" />
    <glyph glyph-name="notequal" unicode="&#x2260;" horiz-adv-x="1075" 
d="M225 766q-88 0 -88 95t88 95h361l221 375q33 51 73 51t66.5 -28.5t26.5 -62.5t-15 -56l-163 -279h55q88 0 88 -95t-88 -95h-166l-90 -156h256q88 0 88 -94t-88 -94h-365l-217 -373q-28 -49 -70 -49t-69 30.5t-27 58.5t17 56l160 277h-54q-88 0 -88 94t88 94h162l90 156
h-252z" />
    <glyph glyph-name="lessequal" unicode="&#x2264;" horiz-adv-x="1079" 
d="M940 461q0 -53 -27 -80t-55 -27t-43 8l-608 228q-66 26 -67 102t67 99l608 225q16 8 44 8q29 0 55 -27t26 -81t-61 -74l-420 -152l420 -153q61 -23 61 -76zM852 188q88 0 88 -94t-88 -94h-625q-88 0 -88 94t88 94h625z" />
    <glyph glyph-name="greaterequal" unicode="&#x2265;" horiz-adv-x="1079" 
d="M220 1024q28 0 44 -8l608 -225q68 -23 68 -99t-68 -102l-608 -228q-16 -8 -44 -8t-54 27t-27 80q0 53 62 76l420 153l-420 152q-61 20 -61 74t26 82q26 26 54 26zM852 188q88 0 88 -94t-88 -94h-625q-88 0 -88 94t88 94h625z" />
    <glyph glyph-name="lozenge" unicode="&#x25ca;" horiz-adv-x="1005" 
d="M260 690l242 -432l243 430l-243 436zM504 1382q37 0 56.5 -16t35.5 -45l330 -582q10 -15 10 -45t-10 -49l-330 -586q-35 -59 -93 -59t-93 59l-328 582q-12 21 -12 45t10 49l330 584q16 31 36.5 47t57.5 16z" />
    <glyph glyph-name="J.alt" unicode="&#xe0a0;" horiz-adv-x="1169" 
d="M797 1190h-135q-86 0 -86 96t86 96h423q84 0 84 -96t-84 -96h-112v-694q0 -233 -135.5 -374.5t-335.5 -141.5q-201 0 -322 121t-121 194q0 43 26 67.5t62 24.5t54.5 -15.5t36.5 -45.5q42 -70 95.5 -112t158.5 -42q147 0 226 91t79 233v694z" />
    <glyph glyph-name="q.alt" unicode="&#xe0a1;" horiz-adv-x="950" 
d="M268 411.5q0 -114.5 52.5 -177t126 -62.5t125 59.5t53.5 165.5v13q0 117 -51.5 178t-126.5 61t-127 -61.5t-52 -176zM745 -621q-120 0 -120 146v514q-77 -59 -165 -59t-153 32.5t-112.5 90t-75 136t-27.5 218.5t103 261.5t256 121.5q104 0 182 -64q18 45 78 45
q90 0 90 -96v-1120l69 78q29 36 68 36t61.5 -24.5t22.5 -60.5t-27 -64l-88 -98q-41 -45 -75.5 -69t-86.5 -24z" />
    <glyph glyph-name="DEL" horiz-adv-x="0" 
 />
    <glyph glyph-name=".ttfautohint" horiz-adv-x="950" 
 />
    </font>
</defs>
</svg>
